%TF.GenerationSoftware,KiCad,Pcbnew,(7.0.0-rc1-145-gbd6d0b6cb6)*%
%TF.CreationDate,2023-03-28T23:28:48+02:00*%
%TF.ProjectId,2HBR_MINIMAL,32484252-5f4d-4494-9e49-4d414c2e6b69,rev?*%
%TF.SameCoordinates,Original*%
%TF.FileFunction,Copper,L1,Top*%
%TF.FilePolarity,Positive*%
%FSLAX46Y46*%
G04 Gerber Fmt 4.6, Leading zero omitted, Abs format (unit mm)*
G04 Created by KiCad (PCBNEW (7.0.0-rc1-145-gbd6d0b6cb6)) date 2023-03-28 23:28:48*
%MOMM*%
%LPD*%
G01*
G04 APERTURE LIST*
G04 Aperture macros list*
%AMRoundRect*
0 Rectangle with rounded corners*
0 $1 Rounding radius*
0 $2 $3 $4 $5 $6 $7 $8 $9 X,Y pos of 4 corners*
0 Add a 4 corners polygon primitive as box body*
4,1,4,$2,$3,$4,$5,$6,$7,$8,$9,$2,$3,0*
0 Add four circle primitives for the rounded corners*
1,1,$1+$1,$2,$3*
1,1,$1+$1,$4,$5*
1,1,$1+$1,$6,$7*
1,1,$1+$1,$8,$9*
0 Add four rect primitives between the rounded corners*
20,1,$1+$1,$2,$3,$4,$5,0*
20,1,$1+$1,$4,$5,$6,$7,0*
20,1,$1+$1,$6,$7,$8,$9,0*
20,1,$1+$1,$8,$9,$2,$3,0*%
G04 Aperture macros list end*
%TA.AperFunction,EtchedComponent*%
%ADD10C,0.100000*%
%TD*%
%TA.AperFunction,SMDPad,CuDef*%
%ADD11RoundRect,0.250000X-0.250000X-0.475000X0.250000X-0.475000X0.250000X0.475000X-0.250000X0.475000X0*%
%TD*%
%TA.AperFunction,SMDPad,CuDef*%
%ADD12R,1.000000X1.500000*%
%TD*%
%TA.AperFunction,ComponentPad*%
%ADD13R,1.700000X1.700000*%
%TD*%
%TA.AperFunction,ComponentPad*%
%ADD14O,1.700000X1.700000*%
%TD*%
%TA.AperFunction,SMDPad,CuDef*%
%ADD15RoundRect,0.250000X0.450000X-0.262500X0.450000X0.262500X-0.450000X0.262500X-0.450000X-0.262500X0*%
%TD*%
%TA.AperFunction,SMDPad,CuDef*%
%ADD16R,0.220000X0.220000*%
%TD*%
%TA.AperFunction,SMDPad,CuDef*%
%ADD17R,0.200000X1.300000*%
%TD*%
%TA.AperFunction,SMDPad,CuDef*%
%ADD18R,0.700000X0.200000*%
%TD*%
%TA.AperFunction,SMDPad,CuDef*%
%ADD19RoundRect,0.250000X-0.450000X0.262500X-0.450000X-0.262500X0.450000X-0.262500X0.450000X0.262500X0*%
%TD*%
%TA.AperFunction,SMDPad,CuDef*%
%ADD20RoundRect,0.250000X0.262500X0.450000X-0.262500X0.450000X-0.262500X-0.450000X0.262500X-0.450000X0*%
%TD*%
%TA.AperFunction,SMDPad,CuDef*%
%ADD21RoundRect,0.250000X0.325000X1.100000X-0.325000X1.100000X-0.325000X-1.100000X0.325000X-1.100000X0*%
%TD*%
%TA.AperFunction,SMDPad,CuDef*%
%ADD22RoundRect,0.250000X0.475000X-0.250000X0.475000X0.250000X-0.475000X0.250000X-0.475000X-0.250000X0*%
%TD*%
%TA.AperFunction,SMDPad,CuDef*%
%ADD23RoundRect,0.250000X-0.262500X-0.450000X0.262500X-0.450000X0.262500X0.450000X-0.262500X0.450000X0*%
%TD*%
%TA.AperFunction,SMDPad,CuDef*%
%ADD24RoundRect,0.243750X0.456250X-0.243750X0.456250X0.243750X-0.456250X0.243750X-0.456250X-0.243750X0*%
%TD*%
%TA.AperFunction,ComponentPad*%
%ADD25R,1.600000X1.600000*%
%TD*%
%TA.AperFunction,ComponentPad*%
%ADD26C,1.600000*%
%TD*%
%TA.AperFunction,SMDPad,CuDef*%
%ADD27RoundRect,0.250000X0.250000X0.475000X-0.250000X0.475000X-0.250000X-0.475000X0.250000X-0.475000X0*%
%TD*%
%TA.AperFunction,ViaPad*%
%ADD28C,0.800000*%
%TD*%
%TA.AperFunction,Conductor*%
%ADD29C,0.250000*%
%TD*%
%TA.AperFunction,Conductor*%
%ADD30C,0.400000*%
%TD*%
%TA.AperFunction,Conductor*%
%ADD31C,0.200000*%
%TD*%
%TA.AperFunction,Conductor*%
%ADD32C,0.500000*%
%TD*%
%TA.AperFunction,Conductor*%
%ADD33C,0.800000*%
%TD*%
%TA.AperFunction,Conductor*%
%ADD34C,0.300000*%
%TD*%
G04 APERTURE END LIST*
%TO.C,JP1*%
G36*
X140712000Y-110290000D02*
G01*
X140212000Y-110290000D01*
X140212000Y-109890000D01*
X140712000Y-109890000D01*
X140712000Y-110290000D01*
G37*
G36*
X140712000Y-111090000D02*
G01*
X140212000Y-111090000D01*
X140212000Y-110690000D01*
X140712000Y-110690000D01*
X140712000Y-111090000D01*
G37*
%TO.C,U1*%
G36*
X134120001Y-112290000D02*
G01*
X133920001Y-112290000D01*
X133920001Y-111240000D01*
X134070001Y-111090000D01*
X134120001Y-111090000D01*
X134120001Y-112290000D01*
G37*
D10*
X134120001Y-112290000D02*
X133920001Y-112290000D01*
X133920001Y-111240000D01*
X134070001Y-111090000D01*
X134120001Y-111090000D01*
X134120001Y-112290000D01*
G36*
X134120001Y-112290000D02*
G01*
X133920001Y-112290000D01*
X133920001Y-111240000D01*
X134070001Y-111090000D01*
X134120001Y-111090000D01*
X134120001Y-112290000D01*
G37*
X134120001Y-112290000D02*
X133920001Y-112290000D01*
X133920001Y-111240000D01*
X134070001Y-111090000D01*
X134120001Y-111090000D01*
X134120001Y-112290000D01*
%TD*%
D11*
%TO.P,C1,1*%
%TO.N,U1-OUT2*%
X139512000Y-115570000D03*
%TO.P,C1,2*%
%TO.N,Net-(C1-Pad2)*%
X141412000Y-115570000D03*
%TD*%
D12*
%TO.P,JP1,1,A*%
%TO.N,GNDA*%
X139811999Y-110489999D03*
%TO.P,JP1,2,B*%
%TO.N,GND*%
X141111999Y-110489999D03*
%TD*%
D13*
%TO.P,J4,1,Pin_1*%
%TO.N,GND*%
X124459999Y-106679999D03*
D14*
%TO.P,J4,2,Pin_2*%
%TO.N,VIN*%
X124459999Y-109219999D03*
%TD*%
D15*
%TO.P,R10,1*%
%TO.N,U1-VCC*%
X141478000Y-100330000D03*
%TO.P,R10,2*%
%TO.N,Net-(D2-A)*%
X141478000Y-98505000D03*
%TD*%
D16*
%TO.P,U1,1,IFB*%
%TO.N,U1-IFB*%
X134020000Y-111639999D03*
D17*
%TO.P,U1,2,VIN*%
%TO.N,VIN*%
X134619999Y-111639999D03*
%TO.P,U1,3,OUT2*%
%TO.N,U1-OUT2*%
X135219998Y-111639999D03*
D18*
%TO.P,U1,4,BST2*%
%TO.N,Net-(U1-BST2)*%
X136069999Y-111689999D03*
%TO.P,U1,5,EN*%
%TO.N,U1-EN*%
X136069999Y-111090000D03*
%TO.P,U1,6,LSS*%
%TO.N,U1-IFB*%
X136069999Y-110689998D03*
%TO.P,U1,7,LSS*%
X136069999Y-110289999D03*
%TO.P,U1,8,LSS*%
X136069999Y-109890000D03*
%TO.P,U1,9,BST1*%
%TO.N,Net-(U1-BST1)*%
X136069999Y-109289998D03*
D17*
%TO.P,U1,10,OUT1*%
%TO.N,U1-OUT1*%
X135219998Y-109339999D03*
%TO.P,U1,11,VIN*%
%TO.N,VIN*%
X134619999Y-109339999D03*
%TO.P,U1,12,NC*%
%TO.N,unconnected-(U1-NC-Pad12)*%
X134020000Y-109339999D03*
D18*
%TO.P,U1,13,NFAULT*%
%TO.N,U1-nFault*%
X133169999Y-109289999D03*
%TO.P,U1,14,VCC*%
%TO.N,U1-VCC*%
X133169999Y-109689998D03*
%TO.P,U1,15,IN1*%
%TO.N,U1-IN1*%
X133169999Y-110090000D03*
%TO.P,U1,16,IN2*%
%TO.N,U1-IN2*%
X133169999Y-110489999D03*
%TO.P,U1,17,ISET*%
%TO.N,U1-ISET*%
X133169999Y-110889998D03*
%TO.P,U1,18,NC*%
%TO.N,unconnected-(U1-NC-Pad18)*%
X133169999Y-111290000D03*
%TO.P,U1,19,AGND*%
%TO.N,GNDA*%
X133169999Y-111689999D03*
%TD*%
D19*
%TO.P,R13,1*%
%TO.N,U1-ISET*%
X129032000Y-114149500D03*
%TO.P,R13,2*%
%TO.N,GNDA*%
X129032000Y-115974500D03*
%TD*%
D15*
%TO.P,R9,1*%
%TO.N,U1-VCC*%
X136906000Y-100330000D03*
%TO.P,R9,2*%
%TO.N,Net-(D4-A)*%
X136906000Y-98505000D03*
%TD*%
D20*
%TO.P,R5,1*%
%TO.N,U1-VCC*%
X141374500Y-102870000D03*
%TO.P,R5,2*%
%TO.N,U1-nFault*%
X139549500Y-102870000D03*
%TD*%
D21*
%TO.P,C10,1*%
%TO.N,VIN*%
X134620000Y-105918000D03*
%TO.P,C10,2*%
%TO.N,GND*%
X131670000Y-105918000D03*
%TD*%
D22*
%TO.P,C5,1*%
%TO.N,GNDA*%
X129032000Y-111450000D03*
%TO.P,C5,2*%
%TO.N,U1-VCC*%
X129032000Y-109550000D03*
%TD*%
D20*
%TO.P,R3,1*%
%TO.N,Net-(C3-Pad1)*%
X141374500Y-107188000D03*
%TO.P,R3,2*%
%TO.N,Net-(U1-BST1)*%
X139549500Y-107188000D03*
%TD*%
D21*
%TO.P,C7,1*%
%TO.N,VIN*%
X134571000Y-115062000D03*
%TO.P,C7,2*%
%TO.N,GND*%
X131621000Y-115062000D03*
%TD*%
D13*
%TO.P,J5,1,Pin_1*%
%TO.N,GND*%
X124459999Y-111759999D03*
D14*
%TO.P,J5,2,Pin_2*%
%TO.N,VIN*%
X124459999Y-114299999D03*
%TD*%
D13*
%TO.P,J6,1,Pin_1*%
%TO.N,U1-OUT1*%
X144779999Y-111759999D03*
D14*
%TO.P,J6,2,Pin_2*%
%TO.N,U1-OUT2*%
X144779999Y-114299999D03*
%TD*%
D23*
%TO.P,R1,1*%
%TO.N,Net-(U1-BST2)*%
X139549500Y-113538000D03*
%TO.P,R1,2*%
%TO.N,Net-(C1-Pad2)*%
X141374500Y-113538000D03*
%TD*%
D24*
%TO.P,D2,1,K*%
%TO.N,U1-nFault*%
X139192000Y-100355000D03*
%TO.P,D2,2,A*%
%TO.N,Net-(D2-A)*%
X139192000Y-98480000D03*
%TD*%
D25*
%TO.P,C8,1*%
%TO.N,VIN*%
X128015999Y-99439348D03*
D26*
%TO.P,C8,2*%
%TO.N,GND*%
X128016000Y-102939349D03*
%TD*%
D13*
%TO.P,J3,1,Pin_1*%
%TO.N,GNDA*%
X129539999Y-119379999D03*
D14*
%TO.P,J3,2,Pin_2*%
%TO.N,U1-IN2*%
X132079999Y-119379999D03*
%TO.P,J3,3,Pin_3*%
%TO.N,U1-IN1*%
X134619999Y-119379999D03*
%TO.P,J3,4,Pin_4*%
%TO.N,U1-EN*%
X137159999Y-119379999D03*
%TO.P,J3,5,Pin_5*%
%TO.N,U1-nFault*%
X139699999Y-119379999D03*
%TO.P,J3,6,Pin_6*%
%TO.N,U1-VCC*%
X142239999Y-119379999D03*
%TD*%
D27*
%TO.P,C3,1*%
%TO.N,Net-(C3-Pad1)*%
X141412000Y-105156000D03*
%TO.P,C3,2*%
%TO.N,U1-OUT1*%
X139512000Y-105156000D03*
%TD*%
D24*
%TO.P,D4,1,K*%
%TO.N,GNDA*%
X134620000Y-100355000D03*
%TO.P,D4,2,A*%
%TO.N,Net-(D4-A)*%
X134620000Y-98480000D03*
%TD*%
D13*
%TO.P,J2,1,Pin_1*%
%TO.N,U1-OUT1*%
X144779999Y-106679999D03*
D14*
%TO.P,J2,2,Pin_2*%
%TO.N,U1-OUT2*%
X144779999Y-109219999D03*
%TD*%
D28*
%TO.N,U1-OUT2*%
X135469500Y-113014575D03*
X136398000Y-113030000D03*
%TO.N,U1-OUT1*%
X136652000Y-106680000D03*
X135469500Y-107935364D03*
%TO.N,GNDA*%
X134620000Y-101600000D03*
X139409000Y-111760000D03*
X127508000Y-116078000D03*
X132334000Y-112776000D03*
X127508000Y-111506000D03*
X139409000Y-108966000D03*
%TO.N,U1-VCC*%
X136906000Y-101600000D03*
X129032000Y-108204000D03*
X142748000Y-102870000D03*
%TO.N,VIN*%
X135890000Y-116078000D03*
X135890000Y-115062000D03*
X133604000Y-103632000D03*
X135890000Y-104902000D03*
X124460000Y-116078000D03*
X135890000Y-103886000D03*
X125984000Y-109220000D03*
%TO.N,GND*%
X145034000Y-102362000D03*
X125730000Y-117348000D03*
X141261500Y-111760000D03*
X145034000Y-116840000D03*
X133096000Y-105918000D03*
X127254000Y-107950000D03*
X145034000Y-99314000D03*
X146050000Y-116840000D03*
X145542000Y-104140000D03*
X130556000Y-107950000D03*
X123190000Y-100584000D03*
X132080000Y-97536000D03*
X145034000Y-100838000D03*
X123190000Y-117348000D03*
X127254000Y-106680000D03*
X131572000Y-117094000D03*
X136144000Y-102616000D03*
X145034000Y-97790000D03*
X127254000Y-109220000D03*
X123190000Y-102108000D03*
X144018000Y-116840000D03*
X137414000Y-103124000D03*
X133096000Y-115062000D03*
X123190000Y-98044000D03*
X130302000Y-105918000D03*
X124460000Y-117348000D03*
X141261500Y-108966000D03*
X123190000Y-103124000D03*
X143510000Y-104140000D03*
X123190000Y-99314000D03*
X144526000Y-104140000D03*
%TO.N,U1-nFault*%
X131826000Y-108458000D03*
X139446000Y-101600000D03*
%TO.N,U1-IN2*%
X131026500Y-110998000D03*
%TO.N,U1-IN1*%
X130302000Y-110236000D03*
%TO.N,U1-EN*%
X138430000Y-112268000D03*
%TO.N,U1-IFB*%
X137869048Y-110576383D03*
X137922000Y-109728000D03*
X143256000Y-108204000D03*
X133604000Y-113284000D03*
%TO.N,U1-ISET*%
X129032000Y-113030000D03*
%TD*%
D29*
%TO.N,GNDA*%
X130302000Y-114142827D02*
X130302000Y-114704500D01*
X131668827Y-112776000D02*
X130302000Y-114142827D01*
X130302000Y-114704500D02*
X129032000Y-115974500D01*
X132334000Y-112776000D02*
X131668827Y-112776000D01*
D30*
%TO.N,U1-OUT2*%
X135469500Y-113117500D02*
X135469500Y-113014575D01*
D31*
X135219999Y-111640000D02*
X135219999Y-112765074D01*
D30*
X139512000Y-115570000D02*
X137922000Y-115570000D01*
X137922000Y-115570000D02*
X135469500Y-113117500D01*
D31*
X135219999Y-112765074D02*
X135469500Y-113014575D01*
D32*
%TO.N,Net-(C1-Pad2)*%
X141412000Y-113575500D02*
X141374500Y-113538000D01*
X141412000Y-115570000D02*
X141412000Y-113575500D01*
%TO.N,Net-(C3-Pad1)*%
X141374500Y-107188000D02*
X141374500Y-105193500D01*
X141374500Y-105193500D02*
X141412000Y-105156000D01*
D31*
%TO.N,U1-OUT1*%
X135219999Y-108184865D02*
X135469500Y-107935364D01*
D32*
X146080000Y-111730000D02*
X146050000Y-111760000D01*
X139512000Y-105156000D02*
X138176000Y-105156000D01*
X138176000Y-105156000D02*
X136652000Y-106680000D01*
X146080000Y-106964000D02*
X146080000Y-111730000D01*
D31*
X135219999Y-109340000D02*
X135219999Y-108184865D01*
D32*
X145796000Y-106680000D02*
X146080000Y-106964000D01*
X144780000Y-106680000D02*
X145796000Y-106680000D01*
X146050000Y-111760000D02*
X144780000Y-111760000D01*
D30*
%TO.N,GNDA*%
X132334000Y-112776000D02*
X132334000Y-111760000D01*
D31*
X132404000Y-111690000D02*
X132334000Y-111760000D01*
D30*
X139812000Y-110490000D02*
X139812000Y-109369000D01*
X127564000Y-111450000D02*
X127508000Y-111506000D01*
X139812000Y-109369000D02*
X139409000Y-108966000D01*
X129032000Y-111450000D02*
X127564000Y-111450000D01*
X129540000Y-116482500D02*
X129032000Y-115974500D01*
X130246000Y-111450000D02*
X129032000Y-111450000D01*
D31*
X133170000Y-111690000D02*
X132404000Y-111690000D01*
D30*
X129540000Y-119380000D02*
X129540000Y-116482500D01*
X134620000Y-100355000D02*
X134620000Y-101600000D01*
X129032000Y-115974500D02*
X127611500Y-115974500D01*
X127611500Y-115974500D02*
X127508000Y-116078000D01*
%TO.N,U1-VCC*%
X141478000Y-99417500D02*
X141478000Y-100330000D01*
X140758761Y-99417500D02*
X141478000Y-99417500D01*
X129145500Y-109436500D02*
X131141164Y-109436500D01*
D32*
X142748000Y-102870000D02*
X141374500Y-102870000D01*
D31*
X131394663Y-109689999D02*
X131141164Y-109436500D01*
D30*
X136906000Y-100330000D02*
X136906000Y-101600000D01*
D31*
X133170000Y-109689999D02*
X131394663Y-109689999D01*
D30*
X140708761Y-99367500D02*
X140758761Y-99417500D01*
X137868500Y-99367500D02*
X140708761Y-99367500D01*
X129032000Y-109550000D02*
X129145500Y-109436500D01*
X141478000Y-100330000D02*
X141478000Y-102766500D01*
X141478000Y-102766500D02*
X141374500Y-102870000D01*
X129032000Y-108204000D02*
X129032000Y-109550000D01*
X136906000Y-100330000D02*
X137868500Y-99367500D01*
D31*
%TO.N,VIN*%
X134620000Y-109340000D02*
X134620000Y-105918000D01*
X134620000Y-111640000D02*
X134620000Y-115013000D01*
D30*
X134620000Y-105918000D02*
X134874000Y-105918000D01*
X134571000Y-115062000D02*
X135890000Y-115062000D01*
D33*
X135890000Y-116078000D02*
X135890000Y-115062000D01*
D30*
X134874000Y-105918000D02*
X135890000Y-104902000D01*
D31*
X134620000Y-115013000D02*
X134571000Y-115062000D01*
D30*
%TO.N,GND*%
X141112000Y-109115500D02*
X141261500Y-108966000D01*
X131621000Y-117045000D02*
X131572000Y-117094000D01*
D31*
X131670000Y-105918000D02*
X130302000Y-105918000D01*
X131670000Y-105918000D02*
X133096000Y-105918000D01*
D30*
X131621000Y-115062000D02*
X131621000Y-117045000D01*
X131621000Y-115062000D02*
X133096000Y-115062000D01*
X141112000Y-110490000D02*
X141112000Y-109115500D01*
D31*
%TO.N,U1-nFault*%
X139192000Y-100355000D02*
X139192000Y-101346000D01*
X139446000Y-101600000D02*
X139446000Y-102766500D01*
X139446000Y-102766500D02*
X139549500Y-102870000D01*
X132404000Y-109290000D02*
X131826000Y-108712000D01*
X133170000Y-109290000D02*
X132404000Y-109290000D01*
X131826000Y-108712000D02*
X131826000Y-108458000D01*
X139192000Y-101346000D02*
X139446000Y-101600000D01*
D30*
%TO.N,Net-(D2-A)*%
X139217000Y-98505000D02*
X139192000Y-98480000D01*
X141478000Y-98505000D02*
X139217000Y-98505000D01*
%TO.N,Net-(D4-A)*%
X134620000Y-98480000D02*
X136881000Y-98480000D01*
X136881000Y-98480000D02*
X136906000Y-98505000D01*
D31*
%TO.N,U1-IN2*%
X132080000Y-110490000D02*
X133170000Y-110490000D01*
X132080000Y-110490000D02*
X131572000Y-110998000D01*
D34*
X131572000Y-110998000D02*
X131026500Y-110998000D01*
D31*
%TO.N,U1-IN1*%
X130447999Y-110090001D02*
X130302000Y-110236000D01*
X133170000Y-110090001D02*
X130447999Y-110090001D01*
X130302000Y-110236000D02*
X130339002Y-110198998D01*
%TO.N,U1-EN*%
X137252001Y-111090001D02*
X138430000Y-112268000D01*
X136070000Y-111090001D02*
X137252001Y-111090001D01*
D30*
%TO.N,Net-(U1-BST2)*%
X139549500Y-113538000D02*
X138430000Y-113538000D01*
X138430000Y-113538000D02*
X137160000Y-112268000D01*
X137160000Y-112268000D02*
X137160000Y-111760000D01*
D31*
X137160000Y-111760000D02*
X137090000Y-111690000D01*
X136070000Y-111690000D02*
X137090000Y-111690000D01*
%TO.N,Net-(U1-BST1)*%
X136070000Y-109289999D02*
X137090001Y-109289999D01*
X137090001Y-109289999D02*
X137160000Y-109220000D01*
D30*
X139192000Y-107188000D02*
X137160000Y-109220000D01*
X139549500Y-107188000D02*
X139192000Y-107188000D01*
D31*
%TO.N,U1-IFB*%
X137172344Y-110289867D02*
X136852000Y-110290000D01*
X137922000Y-109728000D02*
X137360133Y-110289867D01*
X136852000Y-110290000D02*
X136070000Y-110290000D01*
X137160555Y-110687753D02*
X137160000Y-109982000D01*
D32*
X137869048Y-110576383D02*
X137869048Y-109780952D01*
D31*
X137757678Y-110687753D02*
X137869048Y-110576383D01*
X136070000Y-110689999D02*
X137105999Y-110689999D01*
D32*
X137869048Y-109780952D02*
X137922000Y-109728000D01*
D31*
X137160000Y-109982000D02*
X137922000Y-109728000D01*
X137160000Y-109982000D02*
X137068001Y-109890001D01*
X137582532Y-110289867D02*
X137869048Y-110576383D01*
D29*
X134022647Y-112865353D02*
X134022647Y-112094275D01*
D31*
X137160555Y-110687753D02*
X137757678Y-110687753D01*
D29*
X133604000Y-113284000D02*
X134022647Y-112865353D01*
D31*
X137068001Y-109890001D02*
X136070000Y-109890001D01*
X137360133Y-110289867D02*
X137172344Y-110289867D01*
X137172344Y-110289867D02*
X137582532Y-110289867D01*
X137105999Y-110689999D02*
X137160555Y-110687753D01*
%TO.N,U1-ISET*%
X132718478Y-110889999D02*
X132718476Y-110890001D01*
X131572000Y-111760000D02*
X132080000Y-111252000D01*
X133170000Y-110889999D02*
X132718478Y-110889999D01*
X133170000Y-110889999D02*
X132442001Y-110889999D01*
X132442001Y-110889999D02*
X132080000Y-111252000D01*
X130302000Y-113030000D02*
X131572000Y-111760000D01*
X129032000Y-114149500D02*
X129032000Y-113030000D01*
X129032000Y-113030000D02*
X130302000Y-113030000D01*
%TD*%
%TA.AperFunction,Conductor*%
%TO.N,VIN*%
G36*
X147256500Y-96537381D02*
G01*
X147302619Y-96583500D01*
X147319500Y-96646500D01*
X147319500Y-121285500D01*
X147302619Y-121348500D01*
X147256500Y-121394619D01*
X147193500Y-121411500D01*
X122046500Y-121411500D01*
X121983500Y-121394619D01*
X121937381Y-121348500D01*
X121920500Y-121285500D01*
X121920500Y-117348000D01*
X122484355Y-117348000D01*
X122485274Y-117355569D01*
X122503940Y-117509303D01*
X122503941Y-117509310D01*
X122504860Y-117516872D01*
X122507562Y-117523998D01*
X122507563Y-117524000D01*
X122562477Y-117668799D01*
X122562479Y-117668803D01*
X122565182Y-117675930D01*
X122661817Y-117815929D01*
X122789148Y-117928734D01*
X122939775Y-118007790D01*
X123104944Y-118048500D01*
X123267438Y-118048500D01*
X123275056Y-118048500D01*
X123440225Y-118007790D01*
X123590852Y-117928734D01*
X123718183Y-117815929D01*
X123722514Y-117809653D01*
X123727566Y-117803952D01*
X123728643Y-117804906D01*
X123766442Y-117771417D01*
X123825000Y-117756983D01*
X123883558Y-117771417D01*
X123921356Y-117804906D01*
X123922434Y-117803952D01*
X123927486Y-117809654D01*
X123931817Y-117815929D01*
X124059148Y-117928734D01*
X124209775Y-118007790D01*
X124374944Y-118048500D01*
X124537438Y-118048500D01*
X124545056Y-118048500D01*
X124710225Y-118007790D01*
X124860852Y-117928734D01*
X124988183Y-117815929D01*
X124992514Y-117809653D01*
X124997566Y-117803952D01*
X124998643Y-117804906D01*
X125036442Y-117771417D01*
X125095000Y-117756983D01*
X125153558Y-117771417D01*
X125191356Y-117804906D01*
X125192434Y-117803952D01*
X125197486Y-117809654D01*
X125201817Y-117815929D01*
X125329148Y-117928734D01*
X125479775Y-118007790D01*
X125644944Y-118048500D01*
X125807438Y-118048500D01*
X125815056Y-118048500D01*
X125980225Y-118007790D01*
X126130852Y-117928734D01*
X126258183Y-117815929D01*
X126354818Y-117675930D01*
X126415140Y-117516872D01*
X126435645Y-117348000D01*
X126434726Y-117340431D01*
X126416059Y-117186696D01*
X126416058Y-117186695D01*
X126415140Y-117179128D01*
X126354818Y-117020070D01*
X126258183Y-116880071D01*
X126206549Y-116834327D01*
X126136555Y-116772318D01*
X126136552Y-116772316D01*
X126130852Y-116767266D01*
X126124106Y-116763725D01*
X126124104Y-116763724D01*
X126043043Y-116721180D01*
X125980225Y-116688210D01*
X125972827Y-116686386D01*
X125972823Y-116686385D01*
X125822451Y-116649322D01*
X125822445Y-116649321D01*
X125815056Y-116647500D01*
X125644944Y-116647500D01*
X125637555Y-116649321D01*
X125637548Y-116649322D01*
X125487176Y-116686385D01*
X125487169Y-116686387D01*
X125479775Y-116688210D01*
X125473025Y-116691752D01*
X125473024Y-116691753D01*
X125335895Y-116763724D01*
X125335889Y-116763727D01*
X125329148Y-116767266D01*
X125323450Y-116772313D01*
X125323444Y-116772318D01*
X125207522Y-116875016D01*
X125207518Y-116875019D01*
X125201817Y-116880071D01*
X125197487Y-116886343D01*
X125192434Y-116892048D01*
X125191359Y-116891096D01*
X125153534Y-116924594D01*
X125094980Y-116939016D01*
X125036430Y-116924576D01*
X124998643Y-116891093D01*
X124997566Y-116892048D01*
X124992513Y-116886345D01*
X124988183Y-116880071D01*
X124936549Y-116834327D01*
X124866555Y-116772318D01*
X124866552Y-116772316D01*
X124860852Y-116767266D01*
X124854106Y-116763725D01*
X124854104Y-116763724D01*
X124773043Y-116721180D01*
X124710225Y-116688210D01*
X124702827Y-116686386D01*
X124702823Y-116686385D01*
X124552451Y-116649322D01*
X124552445Y-116649321D01*
X124545056Y-116647500D01*
X124374944Y-116647500D01*
X124367555Y-116649321D01*
X124367548Y-116649322D01*
X124217176Y-116686385D01*
X124217169Y-116686387D01*
X124209775Y-116688210D01*
X124203025Y-116691752D01*
X124203024Y-116691753D01*
X124065895Y-116763724D01*
X124065889Y-116763727D01*
X124059148Y-116767266D01*
X124053450Y-116772313D01*
X124053444Y-116772318D01*
X123937522Y-116875016D01*
X123937518Y-116875019D01*
X123931817Y-116880071D01*
X123927487Y-116886343D01*
X123922434Y-116892048D01*
X123921359Y-116891096D01*
X123883534Y-116924594D01*
X123824980Y-116939016D01*
X123766430Y-116924576D01*
X123728643Y-116891093D01*
X123727566Y-116892048D01*
X123722513Y-116886345D01*
X123718183Y-116880071D01*
X123666549Y-116834327D01*
X123596555Y-116772318D01*
X123596552Y-116772316D01*
X123590852Y-116767266D01*
X123584106Y-116763725D01*
X123584104Y-116763724D01*
X123503043Y-116721180D01*
X123440225Y-116688210D01*
X123432827Y-116686386D01*
X123432823Y-116686385D01*
X123282451Y-116649322D01*
X123282445Y-116649321D01*
X123275056Y-116647500D01*
X123104944Y-116647500D01*
X123097555Y-116649321D01*
X123097548Y-116649322D01*
X122947176Y-116686385D01*
X122947169Y-116686387D01*
X122939775Y-116688210D01*
X122933025Y-116691752D01*
X122933024Y-116691753D01*
X122795895Y-116763724D01*
X122795889Y-116763727D01*
X122789148Y-116767266D01*
X122783450Y-116772313D01*
X122783444Y-116772318D01*
X122667522Y-116875016D01*
X122667518Y-116875019D01*
X122661817Y-116880071D01*
X122657487Y-116886343D01*
X122657486Y-116886345D01*
X122569513Y-117013794D01*
X122569509Y-117013800D01*
X122565182Y-117020070D01*
X122562480Y-117027193D01*
X122562477Y-117027200D01*
X122507563Y-117171999D01*
X122507561Y-117172003D01*
X122504860Y-117179128D01*
X122503942Y-117186687D01*
X122503940Y-117186696D01*
X122485274Y-117340431D01*
X122484355Y-117348000D01*
X121920500Y-117348000D01*
X121920500Y-114467499D01*
X123320594Y-114467499D01*
X123324201Y-114506423D01*
X123326330Y-114517815D01*
X123381469Y-114711607D01*
X123385657Y-114722419D01*
X123475464Y-114902776D01*
X123481572Y-114912641D01*
X123602986Y-115073418D01*
X123610804Y-115081994D01*
X123759693Y-115217725D01*
X123768956Y-115224720D01*
X123940253Y-115330782D01*
X123950640Y-115335953D01*
X124138500Y-115408731D01*
X124149667Y-115411908D01*
X124296357Y-115439329D01*
X124307559Y-115438941D01*
X124310000Y-115428000D01*
X124610000Y-115428000D01*
X124612440Y-115438941D01*
X124623642Y-115439329D01*
X124770332Y-115411908D01*
X124781499Y-115408731D01*
X124969359Y-115335953D01*
X124979746Y-115330782D01*
X125151043Y-115224720D01*
X125160306Y-115217725D01*
X125309195Y-115081994D01*
X125317013Y-115073418D01*
X125438427Y-114912641D01*
X125444535Y-114902776D01*
X125534342Y-114722419D01*
X125538530Y-114711607D01*
X125593669Y-114517815D01*
X125595798Y-114506423D01*
X125599405Y-114467499D01*
X125596846Y-114453811D01*
X125583450Y-114450000D01*
X124626590Y-114450000D01*
X124613506Y-114453506D01*
X124610000Y-114466590D01*
X124610000Y-115428000D01*
X124310000Y-115428000D01*
X124310000Y-114466590D01*
X124306493Y-114453506D01*
X124293410Y-114450000D01*
X123336550Y-114450000D01*
X123323153Y-114453811D01*
X123320594Y-114467499D01*
X121920500Y-114467499D01*
X121920500Y-112651243D01*
X123309500Y-112651243D01*
X123309501Y-112654864D01*
X123309919Y-112658469D01*
X123309920Y-112658479D01*
X123310464Y-112663168D01*
X123312415Y-112679991D01*
X123316242Y-112688660D01*
X123316243Y-112688661D01*
X123338310Y-112738639D01*
X123357794Y-112782765D01*
X123437235Y-112862206D01*
X123540009Y-112907585D01*
X123565135Y-112910500D01*
X124274894Y-112910499D01*
X124334502Y-112925491D01*
X124379926Y-112966901D01*
X124400354Y-113024873D01*
X124390926Y-113085612D01*
X124353885Y-113134663D01*
X124298045Y-113160353D01*
X124149675Y-113188088D01*
X124138500Y-113191268D01*
X123950640Y-113264046D01*
X123940253Y-113269217D01*
X123768956Y-113375279D01*
X123759693Y-113382274D01*
X123610804Y-113518005D01*
X123602986Y-113526581D01*
X123481572Y-113687358D01*
X123475464Y-113697223D01*
X123385657Y-113877580D01*
X123381469Y-113888392D01*
X123326330Y-114082184D01*
X123324201Y-114093576D01*
X123320594Y-114132500D01*
X123323153Y-114146188D01*
X123336550Y-114150000D01*
X125583450Y-114150000D01*
X125596846Y-114146188D01*
X125599405Y-114132500D01*
X125595798Y-114093576D01*
X125593669Y-114082184D01*
X125538530Y-113888392D01*
X125534342Y-113877580D01*
X125444535Y-113697223D01*
X125438427Y-113687358D01*
X125317013Y-113526581D01*
X125309195Y-113518005D01*
X125160306Y-113382274D01*
X125151043Y-113375279D01*
X124979746Y-113269217D01*
X124969359Y-113264046D01*
X124781499Y-113191268D01*
X124770334Y-113188091D01*
X124621953Y-113160354D01*
X124566113Y-113134663D01*
X124529072Y-113085612D01*
X124519644Y-113024873D01*
X124540072Y-112966901D01*
X124585496Y-112925491D01*
X124645104Y-112910499D01*
X125354864Y-112910499D01*
X125379991Y-112907585D01*
X125482765Y-112862206D01*
X125562206Y-112782765D01*
X125607585Y-112679991D01*
X125610500Y-112654865D01*
X125610499Y-110865136D01*
X125607585Y-110840009D01*
X125562206Y-110737235D01*
X125482765Y-110657794D01*
X125472084Y-110653078D01*
X125472083Y-110653077D01*
X125388662Y-110616243D01*
X125388658Y-110616242D01*
X125379991Y-110612415D01*
X125370580Y-110611323D01*
X125370576Y-110611322D01*
X125358469Y-110609918D01*
X125358466Y-110609917D01*
X125354865Y-110609500D01*
X125351232Y-110609500D01*
X124645107Y-110609500D01*
X124585497Y-110594508D01*
X124540073Y-110553098D01*
X124519644Y-110495126D01*
X124529073Y-110434387D01*
X124566115Y-110385336D01*
X124621955Y-110359645D01*
X124770332Y-110331908D01*
X124781499Y-110328731D01*
X124969359Y-110255953D01*
X124979746Y-110250782D01*
X125151043Y-110144720D01*
X125160306Y-110137725D01*
X125309195Y-110001994D01*
X125317013Y-109993418D01*
X125438427Y-109832641D01*
X125444535Y-109822776D01*
X125534342Y-109642419D01*
X125538530Y-109631607D01*
X125593669Y-109437815D01*
X125595798Y-109426423D01*
X125599405Y-109387499D01*
X125596846Y-109373811D01*
X125583450Y-109370000D01*
X123336550Y-109370000D01*
X123323153Y-109373811D01*
X123320594Y-109387499D01*
X123324201Y-109426423D01*
X123326330Y-109437815D01*
X123381469Y-109631607D01*
X123385657Y-109642419D01*
X123475464Y-109822776D01*
X123481572Y-109832641D01*
X123602986Y-109993418D01*
X123610804Y-110001994D01*
X123759693Y-110137725D01*
X123768956Y-110144720D01*
X123940253Y-110250782D01*
X123950640Y-110255953D01*
X124138500Y-110328731D01*
X124149667Y-110331908D01*
X124298045Y-110359645D01*
X124353885Y-110385336D01*
X124390927Y-110434387D01*
X124400356Y-110495126D01*
X124379927Y-110553098D01*
X124334503Y-110594507D01*
X124274893Y-110609500D01*
X123568774Y-110609500D01*
X123568756Y-110609500D01*
X123565136Y-110609501D01*
X123561526Y-110609919D01*
X123561520Y-110609920D01*
X123549424Y-110611323D01*
X123549423Y-110611323D01*
X123540009Y-110612415D01*
X123531341Y-110616242D01*
X123531338Y-110616243D01*
X123447916Y-110653077D01*
X123447912Y-110653079D01*
X123437235Y-110657794D01*
X123428980Y-110666048D01*
X123428977Y-110666051D01*
X123366051Y-110728977D01*
X123366048Y-110728980D01*
X123357794Y-110737235D01*
X123353079Y-110747912D01*
X123353077Y-110747916D01*
X123316243Y-110831337D01*
X123316241Y-110831343D01*
X123312415Y-110840009D01*
X123311323Y-110849417D01*
X123311322Y-110849423D01*
X123309919Y-110861520D01*
X123309500Y-110865135D01*
X123309500Y-110868767D01*
X123309500Y-110868768D01*
X123309500Y-112651226D01*
X123309500Y-112651243D01*
X121920500Y-112651243D01*
X121920500Y-109220000D01*
X126548355Y-109220000D01*
X126549274Y-109227569D01*
X126567940Y-109381303D01*
X126567941Y-109381310D01*
X126568860Y-109388872D01*
X126571562Y-109395998D01*
X126571563Y-109396000D01*
X126626477Y-109540799D01*
X126626479Y-109540803D01*
X126629182Y-109547930D01*
X126633511Y-109554202D01*
X126633513Y-109554205D01*
X126668431Y-109604792D01*
X126725817Y-109687929D01*
X126853148Y-109800734D01*
X127003775Y-109879790D01*
X127168944Y-109920500D01*
X127331438Y-109920500D01*
X127339056Y-109920500D01*
X127504225Y-109879790D01*
X127654852Y-109800734D01*
X127782183Y-109687929D01*
X127786324Y-109681928D01*
X127835820Y-109647765D01*
X127895688Y-109640496D01*
X127952076Y-109661881D01*
X127992067Y-109707022D01*
X128006500Y-109765577D01*
X128006500Y-109843102D01*
X128006948Y-109846839D01*
X128006949Y-109846843D01*
X128011124Y-109881614D01*
X128017123Y-109931564D01*
X128020086Y-109939078D01*
X128020087Y-109939081D01*
X128044897Y-110001994D01*
X128072639Y-110072342D01*
X128164078Y-110192922D01*
X128284658Y-110284361D01*
X128425436Y-110339877D01*
X128513898Y-110350500D01*
X128517665Y-110350500D01*
X129509268Y-110350500D01*
X129558656Y-110360583D01*
X129600140Y-110389218D01*
X129627079Y-110431818D01*
X129637764Y-110459991D01*
X129644905Y-110478821D01*
X129652173Y-110538689D01*
X129630787Y-110595077D01*
X129585647Y-110635068D01*
X129527092Y-110649500D01*
X128513898Y-110649500D01*
X128510161Y-110649948D01*
X128510156Y-110649949D01*
X128433457Y-110659159D01*
X128433451Y-110659160D01*
X128425436Y-110660123D01*
X128417923Y-110663085D01*
X128417917Y-110663087D01*
X128381671Y-110677380D01*
X128368745Y-110681685D01*
X128338366Y-110690008D01*
X128338353Y-110690012D01*
X128334161Y-110691161D01*
X127952229Y-110855162D01*
X127916664Y-110864587D01*
X127879890Y-110863336D01*
X127682518Y-110827307D01*
X127674994Y-110825694D01*
X127600455Y-110807323D01*
X127600450Y-110807322D01*
X127593056Y-110805500D01*
X127585438Y-110805500D01*
X127507526Y-110805500D01*
X127503149Y-110805424D01*
X127492486Y-110805053D01*
X127492480Y-110805053D01*
X127487901Y-110804894D01*
X127483342Y-110805402D01*
X127483195Y-110805408D01*
X127478390Y-110805500D01*
X127422944Y-110805500D01*
X127415555Y-110807321D01*
X127415548Y-110807322D01*
X127265176Y-110844385D01*
X127265169Y-110844387D01*
X127257775Y-110846210D01*
X127251025Y-110849752D01*
X127251024Y-110849753D01*
X127113895Y-110921724D01*
X127113889Y-110921727D01*
X127107148Y-110925266D01*
X127101450Y-110930313D01*
X127101444Y-110930318D01*
X126985522Y-111033016D01*
X126985518Y-111033019D01*
X126979817Y-111038071D01*
X126975487Y-111044343D01*
X126975486Y-111044345D01*
X126887513Y-111171794D01*
X126887509Y-111171800D01*
X126883182Y-111178070D01*
X126880480Y-111185193D01*
X126880477Y-111185200D01*
X126825563Y-111329999D01*
X126825561Y-111330003D01*
X126822860Y-111337128D01*
X126821942Y-111344687D01*
X126821940Y-111344696D01*
X126810466Y-111439200D01*
X126802355Y-111506000D01*
X126803274Y-111513569D01*
X126821940Y-111667303D01*
X126821941Y-111667310D01*
X126822860Y-111674872D01*
X126825562Y-111681998D01*
X126825563Y-111682000D01*
X126880477Y-111826799D01*
X126880479Y-111826803D01*
X126883182Y-111833930D01*
X126979817Y-111973929D01*
X126985522Y-111978983D01*
X127100448Y-112080799D01*
X127107148Y-112086734D01*
X127257775Y-112165790D01*
X127422944Y-112206500D01*
X127585438Y-112206500D01*
X127593056Y-112206500D01*
X127758225Y-112165790D01*
X127764131Y-112162689D01*
X127769207Y-112160962D01*
X127770749Y-112160495D01*
X127773660Y-112159765D01*
X127971506Y-112089576D01*
X128017706Y-112082392D01*
X128063346Y-112092548D01*
X128078829Y-112099197D01*
X128328718Y-112206500D01*
X128334161Y-112208837D01*
X128362124Y-112216499D01*
X128368748Y-112218314D01*
X128381677Y-112222621D01*
X128417914Y-112236911D01*
X128417916Y-112236911D01*
X128425436Y-112239877D01*
X128513898Y-112250500D01*
X128517665Y-112250500D01*
X128523273Y-112250500D01*
X128581828Y-112264933D01*
X128626969Y-112304924D01*
X128648354Y-112361312D01*
X128641085Y-112421180D01*
X128606826Y-112470812D01*
X128509526Y-112557011D01*
X128509516Y-112557021D01*
X128503817Y-112562071D01*
X128499487Y-112568343D01*
X128499486Y-112568345D01*
X128411513Y-112695794D01*
X128411509Y-112695800D01*
X128407182Y-112702070D01*
X128404480Y-112709193D01*
X128404477Y-112709200D01*
X128349563Y-112853999D01*
X128349561Y-112854003D01*
X128346860Y-112861128D01*
X128345942Y-112868687D01*
X128345940Y-112868696D01*
X128331351Y-112988851D01*
X128326355Y-113030000D01*
X128327274Y-113037569D01*
X128345941Y-113191308D01*
X128345942Y-113191312D01*
X128346860Y-113198872D01*
X128349561Y-113205994D01*
X128364677Y-113245854D01*
X128367081Y-113254194D01*
X128367439Y-113254085D01*
X128368427Y-113257318D01*
X128368571Y-113259364D01*
X128370379Y-113265632D01*
X128370455Y-113266009D01*
X128369062Y-113266289D01*
X128372415Y-113313609D01*
X128351433Y-113365995D01*
X128312290Y-113401600D01*
X128309658Y-113402639D01*
X128302796Y-113407842D01*
X128302790Y-113407846D01*
X128195942Y-113488872D01*
X128195938Y-113488875D01*
X128189078Y-113494078D01*
X128183875Y-113500938D01*
X128183872Y-113500942D01*
X128106037Y-113603583D01*
X128097639Y-113614658D01*
X128094477Y-113622676D01*
X128094476Y-113622678D01*
X128045087Y-113747918D01*
X128045085Y-113747923D01*
X128042123Y-113755436D01*
X128041159Y-113763456D01*
X128041159Y-113763460D01*
X128032153Y-113838460D01*
X128031500Y-113843898D01*
X128031500Y-114455102D01*
X128031948Y-114458839D01*
X128031949Y-114458843D01*
X128040736Y-114532019D01*
X128042123Y-114543564D01*
X128045086Y-114551078D01*
X128045087Y-114551081D01*
X128072794Y-114621339D01*
X128097639Y-114684342D01*
X128189078Y-114804922D01*
X128309658Y-114896361D01*
X128432450Y-114944784D01*
X128481195Y-114979191D01*
X128508645Y-115032167D01*
X128508644Y-115091832D01*
X128481194Y-115144807D01*
X128432449Y-115179215D01*
X128403385Y-115190676D01*
X128390888Y-115194863D01*
X128370428Y-115200546D01*
X128356339Y-115204460D01*
X128352196Y-115206283D01*
X128352194Y-115206284D01*
X127908002Y-115401771D01*
X127841766Y-115411490D01*
X127626548Y-115384844D01*
X127611881Y-115382139D01*
X127600453Y-115379322D01*
X127600443Y-115379320D01*
X127593056Y-115377500D01*
X127585439Y-115377500D01*
X127574993Y-115377500D01*
X127567492Y-115377037D01*
X127567483Y-115377217D01*
X127563051Y-115376983D01*
X127558640Y-115376437D01*
X127554198Y-115376516D01*
X127500045Y-115377480D01*
X127497803Y-115377500D01*
X127422944Y-115377500D01*
X127415555Y-115379321D01*
X127415548Y-115379322D01*
X127265176Y-115416385D01*
X127265169Y-115416387D01*
X127257775Y-115418210D01*
X127251025Y-115421752D01*
X127251024Y-115421753D01*
X127113895Y-115493724D01*
X127113889Y-115493727D01*
X127107148Y-115497266D01*
X127101450Y-115502313D01*
X127101444Y-115502318D01*
X126985522Y-115605016D01*
X126985518Y-115605019D01*
X126979817Y-115610071D01*
X126975487Y-115616343D01*
X126975486Y-115616345D01*
X126887513Y-115743794D01*
X126887509Y-115743800D01*
X126883182Y-115750070D01*
X126880480Y-115757193D01*
X126880477Y-115757200D01*
X126825563Y-115901999D01*
X126825561Y-115902003D01*
X126822860Y-115909128D01*
X126821942Y-115916687D01*
X126821940Y-115916696D01*
X126803274Y-116070431D01*
X126802355Y-116078000D01*
X126803274Y-116085569D01*
X126821940Y-116239303D01*
X126821941Y-116239310D01*
X126822860Y-116246872D01*
X126825562Y-116253998D01*
X126825563Y-116254000D01*
X126880477Y-116398799D01*
X126880479Y-116398803D01*
X126883182Y-116405930D01*
X126887511Y-116412202D01*
X126887513Y-116412205D01*
X126907365Y-116440965D01*
X126979817Y-116545929D01*
X126985522Y-116550983D01*
X127077595Y-116632553D01*
X127107148Y-116658734D01*
X127257775Y-116737790D01*
X127422944Y-116778500D01*
X127585438Y-116778500D01*
X127593056Y-116778500D01*
X127758225Y-116737790D01*
X127766415Y-116733490D01*
X127786189Y-116725568D01*
X127786129Y-116725402D01*
X127790058Y-116723989D01*
X127794057Y-116722845D01*
X127865377Y-116691753D01*
X128001174Y-116632553D01*
X128051746Y-116622054D01*
X128102278Y-116632727D01*
X128356338Y-116744538D01*
X128390892Y-116754136D01*
X128403390Y-116758324D01*
X128450436Y-116776877D01*
X128538898Y-116787500D01*
X128558399Y-116787500D01*
X128600142Y-116794615D01*
X128637168Y-116815157D01*
X128832558Y-116971663D01*
X128992271Y-117099592D01*
X129027081Y-117143387D01*
X129039500Y-117197934D01*
X129039500Y-117527384D01*
X129032847Y-117567787D01*
X129013589Y-117603921D01*
X128453541Y-118336293D01*
X128450960Y-118341333D01*
X128448412Y-118345371D01*
X128446016Y-118349011D01*
X128437794Y-118357235D01*
X128433082Y-118367904D01*
X128433077Y-118367913D01*
X128407708Y-118425369D01*
X128407021Y-118426811D01*
X128406480Y-118428152D01*
X128406260Y-118428651D01*
X128403774Y-118433509D01*
X128403704Y-118433740D01*
X128402270Y-118435624D01*
X128403033Y-118435961D01*
X128392415Y-118460009D01*
X128391323Y-118469413D01*
X128391323Y-118469417D01*
X128391322Y-118469426D01*
X128389500Y-118485135D01*
X128389500Y-118545535D01*
X128389002Y-118549897D01*
X128389157Y-118550518D01*
X128388872Y-118551882D01*
X128389500Y-118551882D01*
X128389500Y-120271226D01*
X128389500Y-120271243D01*
X128389501Y-120274864D01*
X128392415Y-120299991D01*
X128396242Y-120308660D01*
X128396243Y-120308661D01*
X128396243Y-120308662D01*
X128437794Y-120402765D01*
X128517235Y-120482206D01*
X128620009Y-120527585D01*
X128645135Y-120530500D01*
X130434864Y-120530499D01*
X130459991Y-120527585D01*
X130562765Y-120482206D01*
X130642206Y-120402765D01*
X130687585Y-120299991D01*
X130690500Y-120274865D01*
X130690499Y-119579312D01*
X130706422Y-119518003D01*
X130750168Y-119472188D01*
X130810678Y-119453450D01*
X130872660Y-119466524D01*
X130920447Y-119508106D01*
X130941961Y-119567687D01*
X130943705Y-119586505D01*
X130943707Y-119586514D01*
X130944244Y-119592310D01*
X131002595Y-119797389D01*
X131005186Y-119802593D01*
X131005189Y-119802600D01*
X131095037Y-119983040D01*
X131097634Y-119988255D01*
X131101142Y-119992900D01*
X131101145Y-119992905D01*
X131210751Y-120138045D01*
X131226128Y-120158407D01*
X131230430Y-120162329D01*
X131230433Y-120162332D01*
X131379394Y-120298129D01*
X131379398Y-120298132D01*
X131383698Y-120302052D01*
X131505193Y-120377278D01*
X131546354Y-120402765D01*
X131564981Y-120414298D01*
X131570411Y-120416401D01*
X131570414Y-120416403D01*
X131642229Y-120444223D01*
X131763802Y-120491321D01*
X131973390Y-120530500D01*
X132180783Y-120530500D01*
X132186610Y-120530500D01*
X132396198Y-120491321D01*
X132595019Y-120414298D01*
X132776302Y-120302052D01*
X132933872Y-120158407D01*
X133062366Y-119988255D01*
X133157405Y-119797389D01*
X133215756Y-119592310D01*
X133224536Y-119497546D01*
X133244966Y-119439573D01*
X133290390Y-119398164D01*
X133350000Y-119383171D01*
X133409610Y-119398164D01*
X133455034Y-119439573D01*
X133475463Y-119497546D01*
X133483706Y-119586514D01*
X133483707Y-119586523D01*
X133484244Y-119592310D01*
X133542595Y-119797389D01*
X133545186Y-119802593D01*
X133545189Y-119802600D01*
X133635037Y-119983040D01*
X133637634Y-119988255D01*
X133641142Y-119992900D01*
X133641145Y-119992905D01*
X133750751Y-120138045D01*
X133766128Y-120158407D01*
X133770430Y-120162329D01*
X133770433Y-120162332D01*
X133919394Y-120298129D01*
X133919398Y-120298132D01*
X133923698Y-120302052D01*
X134045193Y-120377278D01*
X134086354Y-120402765D01*
X134104981Y-120414298D01*
X134110411Y-120416401D01*
X134110414Y-120416403D01*
X134182229Y-120444223D01*
X134303802Y-120491321D01*
X134513390Y-120530500D01*
X134720783Y-120530500D01*
X134726610Y-120530500D01*
X134936198Y-120491321D01*
X135135019Y-120414298D01*
X135316302Y-120302052D01*
X135473872Y-120158407D01*
X135602366Y-119988255D01*
X135697405Y-119797389D01*
X135755756Y-119592310D01*
X135764536Y-119497546D01*
X135784966Y-119439573D01*
X135830390Y-119398164D01*
X135890000Y-119383171D01*
X135949610Y-119398164D01*
X135995034Y-119439573D01*
X136015463Y-119497546D01*
X136023706Y-119586514D01*
X136023707Y-119586523D01*
X136024244Y-119592310D01*
X136082595Y-119797389D01*
X136085186Y-119802593D01*
X136085189Y-119802600D01*
X136175037Y-119983040D01*
X136177634Y-119988255D01*
X136181142Y-119992900D01*
X136181145Y-119992905D01*
X136290751Y-120138045D01*
X136306128Y-120158407D01*
X136310430Y-120162329D01*
X136310433Y-120162332D01*
X136459394Y-120298129D01*
X136459398Y-120298132D01*
X136463698Y-120302052D01*
X136585193Y-120377278D01*
X136626354Y-120402765D01*
X136644981Y-120414298D01*
X136650411Y-120416401D01*
X136650414Y-120416403D01*
X136722229Y-120444223D01*
X136843802Y-120491321D01*
X137053390Y-120530500D01*
X137260783Y-120530500D01*
X137266610Y-120530500D01*
X137476198Y-120491321D01*
X137675019Y-120414298D01*
X137856302Y-120302052D01*
X138013872Y-120158407D01*
X138142366Y-119988255D01*
X138237405Y-119797389D01*
X138295756Y-119592310D01*
X138304536Y-119497546D01*
X138324966Y-119439573D01*
X138370390Y-119398164D01*
X138430000Y-119383171D01*
X138489610Y-119398164D01*
X138535034Y-119439573D01*
X138555463Y-119497546D01*
X138563706Y-119586514D01*
X138563707Y-119586523D01*
X138564244Y-119592310D01*
X138622595Y-119797389D01*
X138625186Y-119802593D01*
X138625189Y-119802600D01*
X138715037Y-119983040D01*
X138717634Y-119988255D01*
X138721142Y-119992900D01*
X138721145Y-119992905D01*
X138830751Y-120138045D01*
X138846128Y-120158407D01*
X138850430Y-120162329D01*
X138850433Y-120162332D01*
X138999394Y-120298129D01*
X138999398Y-120298132D01*
X139003698Y-120302052D01*
X139125193Y-120377278D01*
X139166354Y-120402765D01*
X139184981Y-120414298D01*
X139190411Y-120416401D01*
X139190414Y-120416403D01*
X139262229Y-120444223D01*
X139383802Y-120491321D01*
X139593390Y-120530500D01*
X139800783Y-120530500D01*
X139806610Y-120530500D01*
X140016198Y-120491321D01*
X140215019Y-120414298D01*
X140396302Y-120302052D01*
X140553872Y-120158407D01*
X140682366Y-119988255D01*
X140777405Y-119797389D01*
X140835756Y-119592310D01*
X140844536Y-119497546D01*
X140864966Y-119439573D01*
X140910390Y-119398164D01*
X140970000Y-119383171D01*
X141029610Y-119398164D01*
X141075034Y-119439573D01*
X141095463Y-119497546D01*
X141103706Y-119586514D01*
X141103707Y-119586523D01*
X141104244Y-119592310D01*
X141162595Y-119797389D01*
X141165186Y-119802593D01*
X141165189Y-119802600D01*
X141255037Y-119983040D01*
X141257634Y-119988255D01*
X141261142Y-119992900D01*
X141261145Y-119992905D01*
X141370751Y-120138045D01*
X141386128Y-120158407D01*
X141390430Y-120162329D01*
X141390433Y-120162332D01*
X141539394Y-120298129D01*
X141539398Y-120298132D01*
X141543698Y-120302052D01*
X141665193Y-120377278D01*
X141706354Y-120402765D01*
X141724981Y-120414298D01*
X141730411Y-120416401D01*
X141730414Y-120416403D01*
X141802229Y-120444223D01*
X141923802Y-120491321D01*
X142133390Y-120530500D01*
X142340783Y-120530500D01*
X142346610Y-120530500D01*
X142556198Y-120491321D01*
X142755019Y-120414298D01*
X142936302Y-120302052D01*
X143093872Y-120158407D01*
X143222366Y-119988255D01*
X143317405Y-119797389D01*
X143375756Y-119592310D01*
X143395429Y-119380000D01*
X143375756Y-119167690D01*
X143317405Y-118962611D01*
X143222366Y-118771745D01*
X143093872Y-118601593D01*
X143089568Y-118597670D01*
X143089566Y-118597667D01*
X142940605Y-118461870D01*
X142940600Y-118461866D01*
X142936302Y-118457948D01*
X142883569Y-118425297D01*
X142759975Y-118348770D01*
X142759969Y-118348767D01*
X142755019Y-118345702D01*
X142749592Y-118343599D01*
X142749585Y-118343596D01*
X142561627Y-118270782D01*
X142561625Y-118270781D01*
X142556198Y-118268679D01*
X142550476Y-118267609D01*
X142550475Y-118267609D01*
X142352335Y-118230570D01*
X142352332Y-118230569D01*
X142346610Y-118229500D01*
X142133390Y-118229500D01*
X142127668Y-118230569D01*
X142127664Y-118230570D01*
X141929524Y-118267609D01*
X141929520Y-118267610D01*
X141923802Y-118268679D01*
X141918377Y-118270780D01*
X141918372Y-118270782D01*
X141730414Y-118343596D01*
X141730402Y-118343601D01*
X141724981Y-118345702D01*
X141720034Y-118348764D01*
X141720024Y-118348770D01*
X141548649Y-118454882D01*
X141548645Y-118454884D01*
X141543698Y-118457948D01*
X141539404Y-118461862D01*
X141539394Y-118461870D01*
X141390433Y-118597667D01*
X141390425Y-118597675D01*
X141386128Y-118601593D01*
X141382619Y-118606239D01*
X141382615Y-118606244D01*
X141261145Y-118767094D01*
X141261139Y-118767103D01*
X141257634Y-118771745D01*
X141255040Y-118776952D01*
X141255037Y-118776959D01*
X141165189Y-118957399D01*
X141165184Y-118957410D01*
X141162595Y-118962611D01*
X141161003Y-118968204D01*
X141161001Y-118968211D01*
X141105837Y-119162090D01*
X141104244Y-119167690D01*
X141103707Y-119173482D01*
X141103707Y-119173484D01*
X141095463Y-119262454D01*
X141075034Y-119320426D01*
X141029610Y-119361835D01*
X140970000Y-119376828D01*
X140910390Y-119361835D01*
X140864966Y-119320426D01*
X140844537Y-119262454D01*
X140844452Y-119261542D01*
X140835756Y-119167690D01*
X140777405Y-118962611D01*
X140682366Y-118771745D01*
X140553872Y-118601593D01*
X140549568Y-118597670D01*
X140549566Y-118597667D01*
X140400605Y-118461870D01*
X140400600Y-118461866D01*
X140396302Y-118457948D01*
X140343569Y-118425297D01*
X140219975Y-118348770D01*
X140219969Y-118348767D01*
X140215019Y-118345702D01*
X140209592Y-118343599D01*
X140209585Y-118343596D01*
X140021627Y-118270782D01*
X140021625Y-118270781D01*
X140016198Y-118268679D01*
X140010476Y-118267609D01*
X140010475Y-118267609D01*
X139812335Y-118230570D01*
X139812332Y-118230569D01*
X139806610Y-118229500D01*
X139593390Y-118229500D01*
X139587668Y-118230569D01*
X139587664Y-118230570D01*
X139389524Y-118267609D01*
X139389520Y-118267610D01*
X139383802Y-118268679D01*
X139378377Y-118270780D01*
X139378372Y-118270782D01*
X139190414Y-118343596D01*
X139190402Y-118343601D01*
X139184981Y-118345702D01*
X139180034Y-118348764D01*
X139180024Y-118348770D01*
X139008649Y-118454882D01*
X139008645Y-118454884D01*
X139003698Y-118457948D01*
X138999404Y-118461862D01*
X138999394Y-118461870D01*
X138850433Y-118597667D01*
X138850425Y-118597675D01*
X138846128Y-118601593D01*
X138842619Y-118606239D01*
X138842615Y-118606244D01*
X138721145Y-118767094D01*
X138721139Y-118767103D01*
X138717634Y-118771745D01*
X138715040Y-118776952D01*
X138715037Y-118776959D01*
X138625189Y-118957399D01*
X138625184Y-118957410D01*
X138622595Y-118962611D01*
X138621003Y-118968204D01*
X138621001Y-118968211D01*
X138565837Y-119162090D01*
X138564244Y-119167690D01*
X138563707Y-119173482D01*
X138563707Y-119173484D01*
X138555463Y-119262454D01*
X138535034Y-119320426D01*
X138489610Y-119361835D01*
X138430000Y-119376828D01*
X138370390Y-119361835D01*
X138324966Y-119320426D01*
X138304537Y-119262454D01*
X138304452Y-119261542D01*
X138295756Y-119167690D01*
X138237405Y-118962611D01*
X138142366Y-118771745D01*
X138013872Y-118601593D01*
X138009568Y-118597670D01*
X138009566Y-118597667D01*
X137860605Y-118461870D01*
X137860600Y-118461866D01*
X137856302Y-118457948D01*
X137803569Y-118425297D01*
X137679975Y-118348770D01*
X137679969Y-118348767D01*
X137675019Y-118345702D01*
X137669592Y-118343599D01*
X137669585Y-118343596D01*
X137481627Y-118270782D01*
X137481625Y-118270781D01*
X137476198Y-118268679D01*
X137470476Y-118267609D01*
X137470475Y-118267609D01*
X137272335Y-118230570D01*
X137272332Y-118230569D01*
X137266610Y-118229500D01*
X137053390Y-118229500D01*
X137047668Y-118230569D01*
X137047664Y-118230570D01*
X136849524Y-118267609D01*
X136849520Y-118267610D01*
X136843802Y-118268679D01*
X136838377Y-118270780D01*
X136838372Y-118270782D01*
X136650414Y-118343596D01*
X136650402Y-118343601D01*
X136644981Y-118345702D01*
X136640034Y-118348764D01*
X136640024Y-118348770D01*
X136468649Y-118454882D01*
X136468645Y-118454884D01*
X136463698Y-118457948D01*
X136459404Y-118461862D01*
X136459394Y-118461870D01*
X136310433Y-118597667D01*
X136310425Y-118597675D01*
X136306128Y-118601593D01*
X136302619Y-118606239D01*
X136302615Y-118606244D01*
X136181145Y-118767094D01*
X136181139Y-118767103D01*
X136177634Y-118771745D01*
X136175040Y-118776952D01*
X136175037Y-118776959D01*
X136085189Y-118957399D01*
X136085184Y-118957410D01*
X136082595Y-118962611D01*
X136081003Y-118968204D01*
X136081001Y-118968211D01*
X136025837Y-119162090D01*
X136024244Y-119167690D01*
X136023707Y-119173482D01*
X136023707Y-119173484D01*
X136015463Y-119262454D01*
X135995034Y-119320426D01*
X135949610Y-119361835D01*
X135890000Y-119376828D01*
X135830390Y-119361835D01*
X135784966Y-119320426D01*
X135764537Y-119262454D01*
X135764452Y-119261542D01*
X135755756Y-119167690D01*
X135697405Y-118962611D01*
X135602366Y-118771745D01*
X135473872Y-118601593D01*
X135469568Y-118597670D01*
X135469566Y-118597667D01*
X135320605Y-118461870D01*
X135320600Y-118461866D01*
X135316302Y-118457948D01*
X135263569Y-118425297D01*
X135139975Y-118348770D01*
X135139969Y-118348767D01*
X135135019Y-118345702D01*
X135129592Y-118343599D01*
X135129585Y-118343596D01*
X134941627Y-118270782D01*
X134941625Y-118270781D01*
X134936198Y-118268679D01*
X134930476Y-118267609D01*
X134930475Y-118267609D01*
X134732335Y-118230570D01*
X134732332Y-118230569D01*
X134726610Y-118229500D01*
X134513390Y-118229500D01*
X134507668Y-118230569D01*
X134507664Y-118230570D01*
X134309524Y-118267609D01*
X134309520Y-118267610D01*
X134303802Y-118268679D01*
X134298377Y-118270780D01*
X134298372Y-118270782D01*
X134110414Y-118343596D01*
X134110402Y-118343601D01*
X134104981Y-118345702D01*
X134100034Y-118348764D01*
X134100024Y-118348770D01*
X133928649Y-118454882D01*
X133928645Y-118454884D01*
X133923698Y-118457948D01*
X133919404Y-118461862D01*
X133919394Y-118461870D01*
X133770433Y-118597667D01*
X133770425Y-118597675D01*
X133766128Y-118601593D01*
X133762619Y-118606239D01*
X133762615Y-118606244D01*
X133641145Y-118767094D01*
X133641139Y-118767103D01*
X133637634Y-118771745D01*
X133635040Y-118776952D01*
X133635037Y-118776959D01*
X133545189Y-118957399D01*
X133545184Y-118957410D01*
X133542595Y-118962611D01*
X133541003Y-118968204D01*
X133541001Y-118968211D01*
X133485837Y-119162090D01*
X133484244Y-119167690D01*
X133483707Y-119173482D01*
X133483707Y-119173484D01*
X133475463Y-119262454D01*
X133455034Y-119320426D01*
X133409610Y-119361835D01*
X133350000Y-119376828D01*
X133290390Y-119361835D01*
X133244966Y-119320426D01*
X133224537Y-119262454D01*
X133224452Y-119261542D01*
X133215756Y-119167690D01*
X133157405Y-118962611D01*
X133062366Y-118771745D01*
X132933872Y-118601593D01*
X132929568Y-118597670D01*
X132929566Y-118597667D01*
X132780605Y-118461870D01*
X132780600Y-118461866D01*
X132776302Y-118457948D01*
X132723569Y-118425297D01*
X132599975Y-118348770D01*
X132599969Y-118348767D01*
X132595019Y-118345702D01*
X132589592Y-118343599D01*
X132589585Y-118343596D01*
X132401627Y-118270782D01*
X132401625Y-118270781D01*
X132396198Y-118268679D01*
X132390476Y-118267609D01*
X132390475Y-118267609D01*
X132192335Y-118230570D01*
X132192332Y-118230569D01*
X132186610Y-118229500D01*
X131973390Y-118229500D01*
X131967668Y-118230569D01*
X131967664Y-118230570D01*
X131769524Y-118267609D01*
X131769520Y-118267610D01*
X131763802Y-118268679D01*
X131758377Y-118270780D01*
X131758372Y-118270782D01*
X131570414Y-118343596D01*
X131570402Y-118343601D01*
X131564981Y-118345702D01*
X131560034Y-118348764D01*
X131560024Y-118348770D01*
X131388649Y-118454882D01*
X131388645Y-118454884D01*
X131383698Y-118457948D01*
X131379404Y-118461862D01*
X131379394Y-118461870D01*
X131230433Y-118597667D01*
X131230425Y-118597675D01*
X131226128Y-118601593D01*
X131222619Y-118606239D01*
X131222615Y-118606244D01*
X131101145Y-118767094D01*
X131101139Y-118767103D01*
X131097634Y-118771745D01*
X131095040Y-118776952D01*
X131095037Y-118776959D01*
X131005189Y-118957399D01*
X131005184Y-118957410D01*
X131002595Y-118962611D01*
X131001003Y-118968204D01*
X131001001Y-118968211D01*
X130945837Y-119162090D01*
X130944244Y-119167690D01*
X130943707Y-119173481D01*
X130943705Y-119173494D01*
X130941961Y-119192315D01*
X130920448Y-119251895D01*
X130872661Y-119293478D01*
X130810679Y-119306553D01*
X130750168Y-119287814D01*
X130706422Y-119241999D01*
X130690499Y-119180687D01*
X130690499Y-118551874D01*
X130691123Y-118551874D01*
X130690838Y-118550519D01*
X130690998Y-118549885D01*
X130690499Y-118545518D01*
X130690499Y-118485136D01*
X130687585Y-118460009D01*
X130676963Y-118435952D01*
X130677721Y-118435616D01*
X130676293Y-118433736D01*
X130676217Y-118433484D01*
X130673717Y-118428601D01*
X130673518Y-118428151D01*
X130672971Y-118426794D01*
X130672258Y-118425297D01*
X130642206Y-118357235D01*
X130633979Y-118349008D01*
X130631583Y-118345366D01*
X130629038Y-118341333D01*
X130626457Y-118336292D01*
X130066410Y-117603922D01*
X130047153Y-117567788D01*
X130040500Y-117527385D01*
X130040500Y-117019189D01*
X130041425Y-117003949D01*
X130041747Y-117001303D01*
X130045359Y-116971663D01*
X130040915Y-116549295D01*
X130042234Y-116536399D01*
X130041799Y-116536368D01*
X130042441Y-116527380D01*
X130044358Y-116518573D01*
X130040821Y-116469117D01*
X130040500Y-116460129D01*
X130040500Y-116451199D01*
X130040500Y-116446701D01*
X130039973Y-116443045D01*
X130039736Y-116437255D01*
X130039275Y-116393379D01*
X130037568Y-116231092D01*
X130034153Y-116210228D01*
X130032500Y-116189881D01*
X130032500Y-116081628D01*
X130038348Y-116043687D01*
X130127716Y-115760677D01*
X130247731Y-115380611D01*
X130278785Y-115329461D01*
X130530404Y-115077843D01*
X130580564Y-115047106D01*
X130639211Y-115042490D01*
X130693561Y-115065003D01*
X130731767Y-115109736D01*
X130745500Y-115166939D01*
X130745500Y-116205102D01*
X130745948Y-116208839D01*
X130745949Y-116208843D01*
X130755159Y-116285544D01*
X130755160Y-116285550D01*
X130756123Y-116293564D01*
X130764616Y-116315100D01*
X130768089Y-116326172D01*
X130768348Y-116326096D01*
X130769341Y-116329457D01*
X130770146Y-116332865D01*
X130792930Y-116396678D01*
X130794462Y-116399818D01*
X130794463Y-116399819D01*
X130814914Y-116441720D01*
X130918367Y-116653681D01*
X130930527Y-116678594D01*
X130943053Y-116726075D01*
X130936479Y-116774736D01*
X130917032Y-116831436D01*
X130916340Y-116834308D01*
X130916335Y-116834327D01*
X130909575Y-116862402D01*
X130904890Y-116877581D01*
X130889564Y-116917994D01*
X130889561Y-116918005D01*
X130886860Y-116925128D01*
X130885941Y-116932689D01*
X130885940Y-116932697D01*
X130873883Y-117031998D01*
X130866355Y-117094000D01*
X130867274Y-117101569D01*
X130885940Y-117255303D01*
X130885941Y-117255310D01*
X130886860Y-117262872D01*
X130889562Y-117269998D01*
X130889563Y-117270000D01*
X130944477Y-117414799D01*
X130944479Y-117414803D01*
X130947182Y-117421930D01*
X131043817Y-117561929D01*
X131091219Y-117603923D01*
X131164448Y-117668799D01*
X131171148Y-117674734D01*
X131321775Y-117753790D01*
X131486944Y-117794500D01*
X131649438Y-117794500D01*
X131657056Y-117794500D01*
X131822225Y-117753790D01*
X131972852Y-117674734D01*
X132100183Y-117561929D01*
X132196818Y-117421930D01*
X132257140Y-117262872D01*
X132277645Y-117094000D01*
X132270242Y-117033037D01*
X132270158Y-117031996D01*
X132270149Y-117031998D01*
X132269617Y-117027417D01*
X132269422Y-117022802D01*
X132268555Y-117018265D01*
X132268283Y-117015921D01*
X132267746Y-117012480D01*
X132267308Y-117008872D01*
X132257140Y-116925128D01*
X132248166Y-116901467D01*
X132242219Y-116880438D01*
X132241860Y-116878559D01*
X132240777Y-116840000D01*
X143312355Y-116840000D01*
X143313274Y-116847569D01*
X143331940Y-117001303D01*
X143331941Y-117001310D01*
X143332860Y-117008872D01*
X143335562Y-117015998D01*
X143335563Y-117016000D01*
X143390477Y-117160799D01*
X143390479Y-117160803D01*
X143393182Y-117167930D01*
X143489817Y-117307929D01*
X143526504Y-117340431D01*
X143611439Y-117415677D01*
X143617148Y-117420734D01*
X143767775Y-117499790D01*
X143932944Y-117540500D01*
X144095438Y-117540500D01*
X144103056Y-117540500D01*
X144268225Y-117499790D01*
X144418852Y-117420734D01*
X144442446Y-117399831D01*
X144495846Y-117371804D01*
X144556154Y-117371804D01*
X144609553Y-117399831D01*
X144633148Y-117420734D01*
X144783775Y-117499790D01*
X144948944Y-117540500D01*
X145111438Y-117540500D01*
X145119056Y-117540500D01*
X145284225Y-117499790D01*
X145434852Y-117420734D01*
X145458446Y-117399831D01*
X145511846Y-117371804D01*
X145572154Y-117371804D01*
X145625553Y-117399831D01*
X145649148Y-117420734D01*
X145799775Y-117499790D01*
X145964944Y-117540500D01*
X146127438Y-117540500D01*
X146135056Y-117540500D01*
X146300225Y-117499790D01*
X146450852Y-117420734D01*
X146578183Y-117307929D01*
X146674818Y-117167930D01*
X146735140Y-117008872D01*
X146755645Y-116840000D01*
X146749216Y-116787050D01*
X146736059Y-116678696D01*
X146736058Y-116678695D01*
X146735140Y-116671128D01*
X146674818Y-116512070D01*
X146578183Y-116372071D01*
X146537652Y-116336164D01*
X146456555Y-116264318D01*
X146456552Y-116264316D01*
X146450852Y-116259266D01*
X146444106Y-116255725D01*
X146444104Y-116255724D01*
X146307600Y-116184081D01*
X146300225Y-116180210D01*
X146292827Y-116178386D01*
X146292823Y-116178385D01*
X146142451Y-116141322D01*
X146142445Y-116141321D01*
X146135056Y-116139500D01*
X145964944Y-116139500D01*
X145957555Y-116141321D01*
X145957548Y-116141322D01*
X145807176Y-116178385D01*
X145807169Y-116178387D01*
X145799775Y-116180210D01*
X145793025Y-116183752D01*
X145793024Y-116183753D01*
X145655895Y-116255724D01*
X145655889Y-116255727D01*
X145649148Y-116259266D01*
X145643450Y-116264313D01*
X145643444Y-116264318D01*
X145625553Y-116280169D01*
X145572153Y-116308195D01*
X145511847Y-116308195D01*
X145458447Y-116280169D01*
X145440555Y-116264318D01*
X145440553Y-116264316D01*
X145434852Y-116259266D01*
X145428106Y-116255725D01*
X145428104Y-116255724D01*
X145291600Y-116184081D01*
X145284225Y-116180210D01*
X145276827Y-116178386D01*
X145276823Y-116178385D01*
X145126451Y-116141322D01*
X145126445Y-116141321D01*
X145119056Y-116139500D01*
X144948944Y-116139500D01*
X144941555Y-116141321D01*
X144941548Y-116141322D01*
X144791176Y-116178385D01*
X144791169Y-116178387D01*
X144783775Y-116180210D01*
X144777025Y-116183752D01*
X144777024Y-116183753D01*
X144639895Y-116255724D01*
X144639889Y-116255727D01*
X144633148Y-116259266D01*
X144627450Y-116264313D01*
X144627444Y-116264318D01*
X144609553Y-116280169D01*
X144556153Y-116308195D01*
X144495847Y-116308195D01*
X144442447Y-116280169D01*
X144424555Y-116264318D01*
X144424553Y-116264316D01*
X144418852Y-116259266D01*
X144412106Y-116255725D01*
X144412104Y-116255724D01*
X144275600Y-116184081D01*
X144268225Y-116180210D01*
X144260827Y-116178386D01*
X144260823Y-116178385D01*
X144110451Y-116141322D01*
X144110445Y-116141321D01*
X144103056Y-116139500D01*
X143932944Y-116139500D01*
X143925555Y-116141321D01*
X143925548Y-116141322D01*
X143775176Y-116178385D01*
X143775169Y-116178387D01*
X143767775Y-116180210D01*
X143761025Y-116183752D01*
X143761024Y-116183753D01*
X143623895Y-116255724D01*
X143623889Y-116255727D01*
X143617148Y-116259266D01*
X143611450Y-116264313D01*
X143611444Y-116264318D01*
X143495522Y-116367016D01*
X143495518Y-116367019D01*
X143489817Y-116372071D01*
X143485487Y-116378343D01*
X143485486Y-116378345D01*
X143397513Y-116505794D01*
X143397509Y-116505800D01*
X143393182Y-116512070D01*
X143390480Y-116519193D01*
X143390477Y-116519200D01*
X143335563Y-116663999D01*
X143335561Y-116664003D01*
X143332860Y-116671128D01*
X143331942Y-116678687D01*
X143331940Y-116678696D01*
X143317255Y-116799646D01*
X143312355Y-116840000D01*
X132240777Y-116840000D01*
X132240728Y-116838249D01*
X132252387Y-116799648D01*
X132449069Y-116396678D01*
X132471853Y-116332865D01*
X132472658Y-116329452D01*
X132473651Y-116326096D01*
X132473923Y-116326176D01*
X132477377Y-116315117D01*
X132485877Y-116293564D01*
X132496500Y-116205102D01*
X132496500Y-115874003D01*
X132511711Y-115813989D01*
X132553670Y-115768464D01*
X132565610Y-115760677D01*
X132641565Y-115711141D01*
X132690220Y-115692306D01*
X132742337Y-115694798D01*
X132855627Y-115724490D01*
X132855249Y-115725931D01*
X132856744Y-115726597D01*
X132857234Y-115724614D01*
X133010944Y-115762500D01*
X133173438Y-115762500D01*
X133181056Y-115762500D01*
X133346225Y-115721790D01*
X133496852Y-115642734D01*
X133499918Y-115640017D01*
X133562393Y-115618459D01*
X133628555Y-115632662D01*
X133677829Y-115679045D01*
X133696000Y-115744229D01*
X133696000Y-116201293D01*
X133696449Y-116208801D01*
X133705650Y-116285420D01*
X133709578Y-116300963D01*
X133758916Y-116426074D01*
X133767288Y-116440965D01*
X133848229Y-116547700D01*
X133860299Y-116559770D01*
X133967034Y-116640711D01*
X133981925Y-116649083D01*
X134107036Y-116698421D01*
X134122579Y-116702349D01*
X134199198Y-116711550D01*
X134206707Y-116712000D01*
X134404410Y-116712000D01*
X134417493Y-116708493D01*
X134421000Y-116695410D01*
X134721000Y-116695410D01*
X134724506Y-116708493D01*
X134737590Y-116712000D01*
X134935293Y-116712000D01*
X134942801Y-116711550D01*
X135019420Y-116702349D01*
X135034963Y-116698421D01*
X135160074Y-116649083D01*
X135174965Y-116640711D01*
X135281700Y-116559770D01*
X135293770Y-116547700D01*
X135374711Y-116440965D01*
X135383083Y-116426074D01*
X135432421Y-116300963D01*
X135436349Y-116285420D01*
X135445550Y-116208801D01*
X135446000Y-116201293D01*
X135446000Y-115228590D01*
X135442493Y-115215506D01*
X135429410Y-115212000D01*
X134737590Y-115212000D01*
X134724506Y-115215506D01*
X134721000Y-115228590D01*
X134721000Y-116695410D01*
X134421000Y-116695410D01*
X134421000Y-113428590D01*
X134417493Y-113415506D01*
X134415195Y-113414890D01*
X134359971Y-113383520D01*
X134327064Y-113329197D01*
X134324835Y-113265724D01*
X134327434Y-113254085D01*
X134346873Y-113167028D01*
X134366748Y-113122999D01*
X134371175Y-113118573D01*
X134382070Y-113097189D01*
X134392394Y-113080343D01*
X134406496Y-113060934D01*
X134413910Y-113038112D01*
X134421470Y-113019861D01*
X134432366Y-112998479D01*
X134436118Y-112974784D01*
X134440733Y-112955560D01*
X134448147Y-112932746D01*
X134448147Y-112797960D01*
X134448147Y-112716000D01*
X134465028Y-112653000D01*
X134511146Y-112606881D01*
X134574146Y-112590000D01*
X134658275Y-112589999D01*
X134723857Y-112608411D01*
X134770273Y-112658269D01*
X134783954Y-112724999D01*
X134765982Y-112975955D01*
X134765981Y-112975962D01*
X134765675Y-112980249D01*
X134765955Y-112984543D01*
X134765942Y-112988853D01*
X134765517Y-112988851D01*
X134765079Y-113004486D01*
X134763855Y-113014575D01*
X134764774Y-113022144D01*
X134783440Y-113175878D01*
X134783441Y-113175885D01*
X134784360Y-113183447D01*
X134787063Y-113190574D01*
X134787064Y-113190578D01*
X134809306Y-113249227D01*
X134815114Y-113318280D01*
X134783529Y-113379961D01*
X134724548Y-113415346D01*
X134721000Y-113428590D01*
X134721000Y-114895410D01*
X134724506Y-114908493D01*
X134737590Y-114912000D01*
X135429410Y-114912000D01*
X135442493Y-114908493D01*
X135446000Y-114895410D01*
X135446000Y-114107308D01*
X135463086Y-114043954D01*
X135509709Y-113997782D01*
X135573226Y-113981314D01*
X135636410Y-113999015D01*
X135639628Y-114000929D01*
X135664313Y-114020127D01*
X137520462Y-115876276D01*
X137528971Y-115886834D01*
X137529084Y-115886737D01*
X137534983Y-115893545D01*
X137539857Y-115901128D01*
X137549090Y-115909128D01*
X137577338Y-115933605D01*
X137583921Y-115939735D01*
X137593407Y-115949221D01*
X137604158Y-115957269D01*
X137611158Y-115962910D01*
X137648627Y-115995377D01*
X137656820Y-115999118D01*
X137664406Y-116003994D01*
X137664325Y-116004119D01*
X137664473Y-116004207D01*
X137664545Y-116004076D01*
X137672452Y-116008393D01*
X137679669Y-116013796D01*
X137688115Y-116016946D01*
X137726129Y-116031124D01*
X137734427Y-116034560D01*
X137779543Y-116055165D01*
X137788464Y-116056447D01*
X137797113Y-116058987D01*
X137797070Y-116059131D01*
X137797236Y-116059173D01*
X137797269Y-116059026D01*
X137806069Y-116060940D01*
X137814517Y-116064091D01*
X137863992Y-116067629D01*
X137872893Y-116068586D01*
X137886201Y-116070500D01*
X137899620Y-116070500D01*
X137908608Y-116070820D01*
X137958073Y-116074359D01*
X137966883Y-116072442D01*
X137975867Y-116071800D01*
X137975877Y-116071949D01*
X137989357Y-116070500D01*
X138385079Y-116070500D01*
X138449434Y-116088175D01*
X138538893Y-116141322D01*
X138716559Y-116246872D01*
X138722983Y-116250688D01*
X138754575Y-116277342D01*
X138769507Y-116302228D01*
X138770252Y-116301810D01*
X138774477Y-116309324D01*
X138777639Y-116317342D01*
X138782845Y-116324208D01*
X138782848Y-116324212D01*
X138849576Y-116412205D01*
X138869078Y-116437922D01*
X138989658Y-116529361D01*
X139130436Y-116584877D01*
X139218898Y-116595500D01*
X139801335Y-116595500D01*
X139805102Y-116595500D01*
X139893564Y-116584877D01*
X140034342Y-116529361D01*
X140154922Y-116437922D01*
X140246361Y-116317342D01*
X140301877Y-116176564D01*
X140312500Y-116088102D01*
X140312500Y-115051898D01*
X140301877Y-114963436D01*
X140246361Y-114822658D01*
X140154922Y-114702078D01*
X140100560Y-114660854D01*
X140063848Y-114616508D01*
X140050695Y-114560458D01*
X140063848Y-114504408D01*
X140100557Y-114460064D01*
X140204922Y-114380922D01*
X140296361Y-114260342D01*
X140344785Y-114137545D01*
X140379193Y-114088803D01*
X140432169Y-114061353D01*
X140491835Y-114061354D01*
X140544810Y-114088805D01*
X140579215Y-114137548D01*
X140584126Y-114150000D01*
X140589520Y-114163680D01*
X140594160Y-114177856D01*
X140601252Y-114204826D01*
X140602389Y-114209149D01*
X140604120Y-114213257D01*
X140604121Y-114213260D01*
X140737780Y-114530474D01*
X140747610Y-114575655D01*
X140740481Y-114621339D01*
X140646538Y-114887475D01*
X140645176Y-114891334D01*
X140644327Y-114895324D01*
X140644326Y-114895331D01*
X140641067Y-114910666D01*
X140635037Y-114930687D01*
X140622123Y-114963436D01*
X140621160Y-114971447D01*
X140621159Y-114971455D01*
X140612075Y-115047106D01*
X140611500Y-115051898D01*
X140611500Y-116088102D01*
X140622123Y-116176564D01*
X140625086Y-116184078D01*
X140625087Y-116184081D01*
X140634852Y-116208843D01*
X140677639Y-116317342D01*
X140769078Y-116437922D01*
X140889658Y-116529361D01*
X141030436Y-116584877D01*
X141118898Y-116595500D01*
X141701335Y-116595500D01*
X141705102Y-116595500D01*
X141793564Y-116584877D01*
X141934342Y-116529361D01*
X142054922Y-116437922D01*
X142146361Y-116317342D01*
X142201877Y-116176564D01*
X142212500Y-116088102D01*
X142212500Y-115051898D01*
X142201877Y-114963436D01*
X142188962Y-114930687D01*
X142182933Y-114910668D01*
X142179672Y-114895330D01*
X142179671Y-114895327D01*
X142178822Y-114891333D01*
X142064386Y-114567141D01*
X142057227Y-114527710D01*
X142062813Y-114488023D01*
X142157899Y-114180186D01*
X142159512Y-114170807D01*
X142166470Y-114145951D01*
X142176877Y-114119564D01*
X142187500Y-114031102D01*
X142187500Y-113044898D01*
X142176877Y-112956436D01*
X142121361Y-112815658D01*
X142029922Y-112695078D01*
X141909342Y-112603639D01*
X141874498Y-112589898D01*
X141776081Y-112551087D01*
X141776078Y-112551086D01*
X141768564Y-112548123D01*
X141760543Y-112547159D01*
X141760540Y-112547159D01*
X141747330Y-112545573D01*
X141693416Y-112525939D01*
X141653797Y-112484433D01*
X141636692Y-112429663D01*
X141645646Y-112372988D01*
X141678801Y-112326160D01*
X141789683Y-112227929D01*
X141886318Y-112087930D01*
X141946640Y-111928872D01*
X141967145Y-111760000D01*
X141960077Y-111701790D01*
X141947559Y-111598696D01*
X141947558Y-111598695D01*
X141946640Y-111591128D01*
X141890482Y-111443050D01*
X141882340Y-111395014D01*
X141893033Y-111347476D01*
X141897603Y-111337128D01*
X141909585Y-111309991D01*
X141912500Y-111284865D01*
X141912499Y-109774228D01*
X141913738Y-109759197D01*
X141913815Y-109755912D01*
X141915272Y-109747137D01*
X141913366Y-109730990D01*
X141912499Y-109716228D01*
X141912499Y-109698774D01*
X141912499Y-109698768D01*
X141912499Y-109695136D01*
X141909585Y-109670009D01*
X141905434Y-109660609D01*
X141903708Y-109656190D01*
X141903548Y-109655582D01*
X141870157Y-109576477D01*
X141835590Y-109518866D01*
X141817698Y-109458029D01*
X141831703Y-109396187D01*
X141875666Y-109311142D01*
X141880267Y-109303480D01*
X141881985Y-109300205D01*
X141886318Y-109293930D01*
X141889021Y-109286801D01*
X141889535Y-109285823D01*
X141894470Y-109274768D01*
X141896602Y-109270645D01*
X141915725Y-109216474D01*
X141916698Y-109213820D01*
X141946640Y-109134872D01*
X141967145Y-108966000D01*
X141963502Y-108936000D01*
X141947559Y-108804696D01*
X141947558Y-108804695D01*
X141946640Y-108797128D01*
X141886318Y-108638070D01*
X141789683Y-108498071D01*
X141783977Y-108493016D01*
X141783973Y-108493011D01*
X141678803Y-108399839D01*
X141645645Y-108353010D01*
X141636692Y-108296333D01*
X141653799Y-108241563D01*
X141689657Y-108204000D01*
X142550355Y-108204000D01*
X142551274Y-108211569D01*
X142569940Y-108365303D01*
X142569941Y-108365310D01*
X142570860Y-108372872D01*
X142573562Y-108379998D01*
X142573563Y-108380000D01*
X142628477Y-108524799D01*
X142628479Y-108524803D01*
X142631182Y-108531930D01*
X142727817Y-108671929D01*
X142759633Y-108700115D01*
X142849254Y-108779513D01*
X142855148Y-108784734D01*
X143005775Y-108863790D01*
X143170944Y-108904500D01*
X143333438Y-108904500D01*
X143341056Y-108904500D01*
X143489728Y-108867856D01*
X143551984Y-108868354D01*
X143606404Y-108898602D01*
X143639697Y-108951215D01*
X143643360Y-109007608D01*
X143644244Y-109007690D01*
X143643727Y-109013262D01*
X143643727Y-109013266D01*
X143643707Y-109013478D01*
X143643707Y-109013482D01*
X143629349Y-109168436D01*
X143624571Y-109220000D01*
X143625108Y-109225795D01*
X143643698Y-109426423D01*
X143644244Y-109432310D01*
X143645836Y-109437908D01*
X143645837Y-109437909D01*
X143697088Y-109618037D01*
X143702595Y-109637389D01*
X143705186Y-109642593D01*
X143705189Y-109642600D01*
X143794906Y-109822776D01*
X143797634Y-109828255D01*
X143801142Y-109832900D01*
X143801145Y-109832905D01*
X143854834Y-109904000D01*
X143926128Y-109998407D01*
X143930430Y-110002329D01*
X143930433Y-110002332D01*
X144079394Y-110138129D01*
X144079398Y-110138132D01*
X144083698Y-110142052D01*
X144205193Y-110217278D01*
X144244542Y-110241643D01*
X144264981Y-110254298D01*
X144270411Y-110256401D01*
X144270414Y-110256403D01*
X144292180Y-110264835D01*
X144463802Y-110331321D01*
X144469523Y-110332390D01*
X144469525Y-110332391D01*
X144493711Y-110336912D01*
X144615324Y-110359645D01*
X144671163Y-110385336D01*
X144708205Y-110434387D01*
X144717634Y-110495126D01*
X144697205Y-110553098D01*
X144651781Y-110594507D01*
X144592171Y-110609500D01*
X143888774Y-110609500D01*
X143888756Y-110609500D01*
X143885136Y-110609501D01*
X143881526Y-110609919D01*
X143881520Y-110609920D01*
X143869424Y-110611323D01*
X143869423Y-110611323D01*
X143860009Y-110612415D01*
X143851341Y-110616242D01*
X143851338Y-110616243D01*
X143767916Y-110653077D01*
X143767912Y-110653079D01*
X143757235Y-110657794D01*
X143748980Y-110666048D01*
X143748977Y-110666051D01*
X143686051Y-110728977D01*
X143686048Y-110728980D01*
X143677794Y-110737235D01*
X143673079Y-110747912D01*
X143673077Y-110747916D01*
X143636243Y-110831337D01*
X143636241Y-110831343D01*
X143632415Y-110840009D01*
X143631323Y-110849417D01*
X143631322Y-110849423D01*
X143629919Y-110861520D01*
X143629500Y-110865135D01*
X143629500Y-110868767D01*
X143629500Y-110868768D01*
X143629500Y-112651226D01*
X143629500Y-112651243D01*
X143629501Y-112654864D01*
X143629919Y-112658469D01*
X143629920Y-112658479D01*
X143630464Y-112663168D01*
X143632415Y-112679991D01*
X143636242Y-112688660D01*
X143636243Y-112688661D01*
X143658310Y-112738639D01*
X143677794Y-112782765D01*
X143757235Y-112862206D01*
X143860009Y-112907585D01*
X143885135Y-112910500D01*
X144592172Y-112910499D01*
X144651780Y-112925491D01*
X144697204Y-112966901D01*
X144717632Y-113024873D01*
X144708204Y-113085612D01*
X144671163Y-113134663D01*
X144615323Y-113160353D01*
X144469534Y-113187606D01*
X144469518Y-113187610D01*
X144463802Y-113188679D01*
X144458377Y-113190780D01*
X144458372Y-113190782D01*
X144270414Y-113263596D01*
X144270402Y-113263601D01*
X144264981Y-113265702D01*
X144260034Y-113268764D01*
X144260024Y-113268770D01*
X144088649Y-113374882D01*
X144088645Y-113374884D01*
X144083698Y-113377948D01*
X144079404Y-113381862D01*
X144079394Y-113381870D01*
X143930433Y-113517667D01*
X143930425Y-113517675D01*
X143926128Y-113521593D01*
X143922619Y-113526239D01*
X143922615Y-113526244D01*
X143801145Y-113687094D01*
X143801139Y-113687103D01*
X143797634Y-113691745D01*
X143795040Y-113696952D01*
X143795037Y-113696959D01*
X143705189Y-113877399D01*
X143705184Y-113877410D01*
X143702595Y-113882611D01*
X143701003Y-113888204D01*
X143701001Y-113888211D01*
X143651737Y-114061354D01*
X143644244Y-114087690D01*
X143643707Y-114093482D01*
X143643707Y-114093484D01*
X143633390Y-114204826D01*
X143624571Y-114300000D01*
X143625108Y-114305795D01*
X143643698Y-114506423D01*
X143644244Y-114512310D01*
X143645836Y-114517908D01*
X143645837Y-114517909D01*
X143700191Y-114708942D01*
X143702595Y-114717389D01*
X143705186Y-114722593D01*
X143705189Y-114722600D01*
X143793564Y-114900081D01*
X143797634Y-114908255D01*
X143801142Y-114912900D01*
X143801145Y-114912905D01*
X143851203Y-114979191D01*
X143926128Y-115078407D01*
X143930430Y-115082329D01*
X143930433Y-115082332D01*
X144079394Y-115218129D01*
X144079398Y-115218132D01*
X144083698Y-115222052D01*
X144205193Y-115297278D01*
X144257165Y-115329459D01*
X144264981Y-115334298D01*
X144270411Y-115336401D01*
X144270414Y-115336403D01*
X144308716Y-115351241D01*
X144463802Y-115411321D01*
X144673390Y-115450500D01*
X144880783Y-115450500D01*
X144886610Y-115450500D01*
X145096198Y-115411321D01*
X145295019Y-115334298D01*
X145476302Y-115222052D01*
X145633872Y-115078407D01*
X145762366Y-114908255D01*
X145857405Y-114717389D01*
X145915756Y-114512310D01*
X145935429Y-114300000D01*
X145915756Y-114087690D01*
X145857405Y-113882611D01*
X145850691Y-113869128D01*
X145792334Y-113751929D01*
X145762366Y-113691745D01*
X145738657Y-113660350D01*
X145663803Y-113561228D01*
X145633872Y-113521593D01*
X145629568Y-113517670D01*
X145629566Y-113517667D01*
X145480605Y-113381870D01*
X145480600Y-113381866D01*
X145476302Y-113377948D01*
X145384446Y-113321073D01*
X145299975Y-113268770D01*
X145299969Y-113268767D01*
X145295019Y-113265702D01*
X145289592Y-113263599D01*
X145289585Y-113263596D01*
X145101627Y-113190782D01*
X145101625Y-113190781D01*
X145096198Y-113188679D01*
X145090476Y-113187609D01*
X145090475Y-113187609D01*
X144944675Y-113160354D01*
X144888835Y-113134663D01*
X144851794Y-113085612D01*
X144842366Y-113024873D01*
X144862794Y-112966901D01*
X144908218Y-112925491D01*
X144967826Y-112910499D01*
X145674864Y-112910499D01*
X145699991Y-112907585D01*
X145802765Y-112862206D01*
X145882206Y-112782765D01*
X145886924Y-112772077D01*
X145890544Y-112766794D01*
X145908934Y-112738644D01*
X146474460Y-112121413D01*
X146484625Y-112107935D01*
X146499216Y-112091725D01*
X146511044Y-112080680D01*
X146515665Y-112073080D01*
X146532337Y-112045664D01*
X146539602Y-112034989D01*
X146559152Y-112009210D01*
X146564361Y-112002342D01*
X146570880Y-111985809D01*
X146580442Y-111966559D01*
X146589672Y-111951382D01*
X146600735Y-111911895D01*
X146604833Y-111899709D01*
X146619876Y-111861565D01*
X146621692Y-111843889D01*
X146625703Y-111822780D01*
X146630500Y-111805665D01*
X146630500Y-111764673D01*
X146631161Y-111751788D01*
X146634469Y-111719607D01*
X146635351Y-111711029D01*
X146632332Y-111693518D01*
X146630500Y-111672111D01*
X146630500Y-106975579D01*
X146630573Y-106971277D01*
X146632763Y-106907174D01*
X146623059Y-106867357D01*
X146620649Y-106854677D01*
X146618811Y-106841303D01*
X146615070Y-106814080D01*
X146607990Y-106797780D01*
X146601142Y-106777416D01*
X146598975Y-106768527D01*
X146598974Y-106768526D01*
X146596933Y-106760148D01*
X146576841Y-106724415D01*
X146571113Y-106712883D01*
X146554780Y-106675280D01*
X146549340Y-106668593D01*
X146549338Y-106668590D01*
X146543565Y-106661494D01*
X146531476Y-106643732D01*
X146522766Y-106628241D01*
X146508376Y-106613851D01*
X146492282Y-106594031D01*
X146489851Y-106589447D01*
X146475680Y-106571544D01*
X145957703Y-105917151D01*
X145937494Y-105880349D01*
X145930499Y-105838950D01*
X145930499Y-105788774D01*
X145930499Y-105788768D01*
X145930499Y-105785136D01*
X145927585Y-105760009D01*
X145882206Y-105657235D01*
X145802765Y-105577794D01*
X145792084Y-105573078D01*
X145792083Y-105573077D01*
X145708662Y-105536243D01*
X145708658Y-105536242D01*
X145699991Y-105532415D01*
X145690580Y-105531323D01*
X145690576Y-105531322D01*
X145678469Y-105529918D01*
X145678466Y-105529917D01*
X145674865Y-105529500D01*
X145671231Y-105529500D01*
X143888773Y-105529500D01*
X143888755Y-105529500D01*
X143885136Y-105529501D01*
X143881526Y-105529919D01*
X143881520Y-105529920D01*
X143869424Y-105531323D01*
X143869423Y-105531323D01*
X143860009Y-105532415D01*
X143851341Y-105536242D01*
X143851338Y-105536243D01*
X143767916Y-105573077D01*
X143767912Y-105573079D01*
X143757235Y-105577794D01*
X143748980Y-105586048D01*
X143748977Y-105586051D01*
X143686051Y-105648977D01*
X143686048Y-105648980D01*
X143677794Y-105657235D01*
X143673079Y-105667912D01*
X143673077Y-105667916D01*
X143636243Y-105751337D01*
X143636241Y-105751343D01*
X143632415Y-105760009D01*
X143631323Y-105769417D01*
X143631322Y-105769423D01*
X143631246Y-105770081D01*
X143629500Y-105785135D01*
X143629500Y-105788767D01*
X143629500Y-105788768D01*
X143629500Y-107413767D01*
X143616785Y-107468926D01*
X143581207Y-107512952D01*
X143529946Y-107536960D01*
X143473347Y-107536106D01*
X143348451Y-107505322D01*
X143348445Y-107505321D01*
X143341056Y-107503500D01*
X143170944Y-107503500D01*
X143163555Y-107505321D01*
X143163548Y-107505322D01*
X143013176Y-107542385D01*
X143013169Y-107542387D01*
X143005775Y-107544210D01*
X142999025Y-107547752D01*
X142999024Y-107547753D01*
X142861895Y-107619724D01*
X142861889Y-107619727D01*
X142855148Y-107623266D01*
X142849450Y-107628313D01*
X142849444Y-107628318D01*
X142733522Y-107731016D01*
X142733518Y-107731019D01*
X142727817Y-107736071D01*
X142723487Y-107742343D01*
X142723486Y-107742345D01*
X142635513Y-107869794D01*
X142635509Y-107869800D01*
X142631182Y-107876070D01*
X142628480Y-107883193D01*
X142628477Y-107883200D01*
X142573563Y-108027999D01*
X142573561Y-108028003D01*
X142570860Y-108035128D01*
X142569942Y-108042687D01*
X142569940Y-108042696D01*
X142552778Y-108184046D01*
X142550355Y-108204000D01*
X141689657Y-108204000D01*
X141693420Y-108200058D01*
X141747331Y-108180426D01*
X141768564Y-108177877D01*
X141909342Y-108122361D01*
X142029922Y-108030922D01*
X142121361Y-107910342D01*
X142176877Y-107769564D01*
X142187500Y-107681102D01*
X142187500Y-106694898D01*
X142176877Y-106606436D01*
X142171838Y-106593658D01*
X142162949Y-106571116D01*
X142157052Y-106551717D01*
X142153431Y-106535103D01*
X142152522Y-106530930D01*
X142047160Y-106242360D01*
X142039543Y-106196675D01*
X142048948Y-106151325D01*
X142172916Y-105849189D01*
X142180916Y-105818284D01*
X142185682Y-105803631D01*
X142192424Y-105786535D01*
X142201877Y-105762564D01*
X142212500Y-105674102D01*
X142212500Y-104637898D01*
X142201877Y-104549436D01*
X142146361Y-104408658D01*
X142054922Y-104288078D01*
X142046350Y-104281578D01*
X141941212Y-104201849D01*
X141941213Y-104201849D01*
X141934342Y-104196639D01*
X141899498Y-104182898D01*
X141801081Y-104144087D01*
X141801078Y-104144086D01*
X141793564Y-104141123D01*
X141785541Y-104140159D01*
X141785539Y-104140159D01*
X141708843Y-104130949D01*
X141708839Y-104130948D01*
X141705102Y-104130500D01*
X141118898Y-104130500D01*
X141115161Y-104130948D01*
X141115156Y-104130949D01*
X141038460Y-104140159D01*
X141038456Y-104140159D01*
X141030436Y-104141123D01*
X141022923Y-104144085D01*
X141022918Y-104144087D01*
X140897678Y-104193476D01*
X140897676Y-104193477D01*
X140889658Y-104196639D01*
X140882789Y-104201847D01*
X140882787Y-104201849D01*
X140775942Y-104282872D01*
X140775938Y-104282875D01*
X140769078Y-104288078D01*
X140763875Y-104294938D01*
X140763872Y-104294942D01*
X140682849Y-104401787D01*
X140677639Y-104408658D01*
X140674477Y-104416676D01*
X140674476Y-104416678D01*
X140625087Y-104541918D01*
X140625085Y-104541923D01*
X140622123Y-104549436D01*
X140621159Y-104557456D01*
X140621159Y-104557460D01*
X140612687Y-104628013D01*
X140611500Y-104637898D01*
X140611500Y-105674102D01*
X140611949Y-105677839D01*
X140621159Y-105754541D01*
X140621160Y-105754545D01*
X140622123Y-105762564D01*
X140625084Y-105770074D01*
X140625086Y-105770080D01*
X140631575Y-105786535D01*
X140638661Y-105812147D01*
X140639212Y-105815475D01*
X140639219Y-105815505D01*
X140639852Y-105819326D01*
X140640949Y-105823038D01*
X140640953Y-105823053D01*
X140724909Y-106106997D01*
X140730018Y-106146666D01*
X140722438Y-106185937D01*
X140597937Y-106526927D01*
X140597933Y-106526939D01*
X140596476Y-106530931D01*
X140595568Y-106535094D01*
X140595567Y-106535101D01*
X140591946Y-106551720D01*
X140586049Y-106571120D01*
X140579213Y-106588454D01*
X140544805Y-106637197D01*
X140491830Y-106664646D01*
X140432165Y-106664645D01*
X140379191Y-106637195D01*
X140344785Y-106588452D01*
X140296361Y-106465658D01*
X140204922Y-106345078D01*
X140100561Y-106265938D01*
X140063848Y-106221590D01*
X140050695Y-106165540D01*
X140063849Y-106109490D01*
X140100558Y-106065147D01*
X140154922Y-106023922D01*
X140246361Y-105903342D01*
X140301877Y-105762564D01*
X140312500Y-105674102D01*
X140312500Y-104637898D01*
X140301877Y-104549436D01*
X140246361Y-104408658D01*
X140154922Y-104288078D01*
X140146350Y-104281578D01*
X140041212Y-104201849D01*
X140041213Y-104201849D01*
X140034342Y-104196639D01*
X139999498Y-104182898D01*
X139901081Y-104144087D01*
X139901078Y-104144086D01*
X139893564Y-104141123D01*
X139885541Y-104140159D01*
X139885539Y-104140159D01*
X139808843Y-104130949D01*
X139808839Y-104130948D01*
X139805102Y-104130500D01*
X139218898Y-104130500D01*
X139215161Y-104130948D01*
X139215156Y-104130949D01*
X139138460Y-104140159D01*
X139138456Y-104140159D01*
X139130436Y-104141123D01*
X139122923Y-104144085D01*
X139122918Y-104144087D01*
X138997678Y-104193476D01*
X138997676Y-104193477D01*
X138989658Y-104196639D01*
X138982789Y-104201847D01*
X138982787Y-104201849D01*
X138875942Y-104282872D01*
X138875938Y-104282875D01*
X138869078Y-104288078D01*
X138863875Y-104294938D01*
X138863872Y-104294942D01*
X138782846Y-104401790D01*
X138782842Y-104401796D01*
X138777639Y-104408658D01*
X138776318Y-104412006D01*
X138756030Y-104438041D01*
X138725211Y-104459553D01*
X138456841Y-104592419D01*
X138400937Y-104605500D01*
X138187561Y-104605500D01*
X138183260Y-104605427D01*
X138127781Y-104603532D01*
X138119174Y-104603238D01*
X138110810Y-104605276D01*
X138110802Y-104605277D01*
X138079353Y-104612941D01*
X138066682Y-104615349D01*
X138034617Y-104619756D01*
X138034612Y-104619757D01*
X138026080Y-104620930D01*
X138018183Y-104624360D01*
X138018169Y-104624364D01*
X138009770Y-104628013D01*
X137989412Y-104634859D01*
X137980523Y-104637025D01*
X137980516Y-104637027D01*
X137972148Y-104639067D01*
X137964639Y-104643288D01*
X137964636Y-104643290D01*
X137936422Y-104659153D01*
X137924877Y-104664887D01*
X137895188Y-104677784D01*
X137895183Y-104677786D01*
X137887280Y-104681220D01*
X137880595Y-104686658D01*
X137880591Y-104686661D01*
X137873486Y-104692441D01*
X137855734Y-104704523D01*
X137847754Y-104709009D01*
X137847745Y-104709015D01*
X137840241Y-104713235D01*
X137834147Y-104719328D01*
X137834145Y-104719330D01*
X137811257Y-104742216D01*
X137801688Y-104750852D01*
X137782014Y-104766859D01*
X137769892Y-104776722D01*
X137764923Y-104783760D01*
X137764922Y-104783762D01*
X137759640Y-104791245D01*
X137745801Y-104807673D01*
X136875634Y-105677839D01*
X136857689Y-105692732D01*
X136310359Y-106067220D01*
X136297767Y-106074797D01*
X136257899Y-106095722D01*
X136257894Y-106095725D01*
X136251148Y-106099266D01*
X136245447Y-106104316D01*
X136245439Y-106104322D01*
X136209166Y-106136458D01*
X136208159Y-106135322D01*
X136207467Y-106136275D01*
X136208231Y-106137102D01*
X136204426Y-106140618D01*
X136202469Y-106142389D01*
X136129523Y-106207015D01*
X136129519Y-106207018D01*
X136123817Y-106212071D01*
X136119490Y-106218338D01*
X136119486Y-106218344D01*
X136031513Y-106345794D01*
X136031509Y-106345800D01*
X136027182Y-106352070D01*
X136024480Y-106359193D01*
X136024477Y-106359200D01*
X135969563Y-106503999D01*
X135969561Y-106504003D01*
X135966860Y-106511128D01*
X135965942Y-106518687D01*
X135965940Y-106518696D01*
X135951552Y-106637197D01*
X135946355Y-106680000D01*
X135947274Y-106687569D01*
X135965940Y-106841303D01*
X135965941Y-106841310D01*
X135966860Y-106848872D01*
X135969562Y-106855998D01*
X135969563Y-106856000D01*
X136024477Y-107000799D01*
X136024479Y-107000803D01*
X136027182Y-107007930D01*
X136031511Y-107014202D01*
X136031513Y-107014205D01*
X136075499Y-107077929D01*
X136123817Y-107147929D01*
X136165959Y-107185263D01*
X136245439Y-107255677D01*
X136251148Y-107260734D01*
X136401775Y-107339790D01*
X136566944Y-107380500D01*
X136729438Y-107380500D01*
X136737056Y-107380500D01*
X136902225Y-107339790D01*
X137052852Y-107260734D01*
X137124313Y-107197424D01*
X137129133Y-107193646D01*
X137129353Y-107193440D01*
X137129256Y-107193319D01*
X137130913Y-107191983D01*
X137134505Y-107189088D01*
X137137638Y-107185698D01*
X137138052Y-107185312D01*
X137140489Y-107183093D01*
X137180183Y-107147929D01*
X137276818Y-107007930D01*
X137279066Y-107001999D01*
X137285278Y-106991677D01*
X137639272Y-106474300D01*
X137654157Y-106456365D01*
X138348817Y-105761706D01*
X138392304Y-105733347D01*
X138443536Y-105724930D01*
X138493810Y-105737884D01*
X138725212Y-105852445D01*
X138756030Y-105873958D01*
X138776318Y-105899993D01*
X138777639Y-105903342D01*
X138782844Y-105910206D01*
X138782846Y-105910209D01*
X138836773Y-105981322D01*
X138869078Y-106023922D01*
X138875942Y-106029127D01*
X138960938Y-106093582D01*
X138997651Y-106137929D01*
X139010804Y-106193979D01*
X138997651Y-106250028D01*
X138960938Y-106294376D01*
X138900942Y-106339872D01*
X138900938Y-106339875D01*
X138894078Y-106345078D01*
X138888875Y-106351938D01*
X138888872Y-106351942D01*
X138807849Y-106458787D01*
X138802639Y-106465658D01*
X138799477Y-106473676D01*
X138799476Y-106473678D01*
X138750087Y-106598918D01*
X138750085Y-106598923D01*
X138747123Y-106606436D01*
X138746159Y-106614456D01*
X138746159Y-106614460D01*
X138738289Y-106680000D01*
X138736500Y-106694898D01*
X138736500Y-106698665D01*
X138736500Y-106744437D01*
X138729988Y-106784421D01*
X138711124Y-106820271D01*
X138298726Y-107367478D01*
X138298721Y-107367484D01*
X138295334Y-107371980D01*
X138294595Y-107373445D01*
X138278640Y-107393544D01*
X136819589Y-108852596D01*
X136778715Y-108879908D01*
X136730497Y-108889499D01*
X135811600Y-108889499D01*
X135754133Y-108875631D01*
X135709316Y-108837079D01*
X135687015Y-108782330D01*
X135692139Y-108723435D01*
X135723557Y-108673363D01*
X135957350Y-108445014D01*
X135963016Y-108437794D01*
X135965736Y-108434328D01*
X135981302Y-108417803D01*
X135997683Y-108403293D01*
X136094318Y-108263294D01*
X136154640Y-108104236D01*
X136167154Y-108001179D01*
X136174226Y-107942933D01*
X136174226Y-107942931D01*
X136175145Y-107935364D01*
X136169897Y-107892140D01*
X136155559Y-107774060D01*
X136155558Y-107774059D01*
X136154640Y-107766492D01*
X136094318Y-107607434D01*
X135997683Y-107467435D01*
X135932077Y-107409313D01*
X135876055Y-107359682D01*
X135876052Y-107359680D01*
X135870352Y-107354630D01*
X135863606Y-107351089D01*
X135863604Y-107351088D01*
X135760952Y-107297212D01*
X135719725Y-107275574D01*
X135673883Y-107264275D01*
X135584679Y-107242288D01*
X135531321Y-107214298D01*
X135497060Y-107164732D01*
X135489732Y-107104925D01*
X135494550Y-107064799D01*
X135495000Y-107057293D01*
X135495000Y-106084590D01*
X135491493Y-106071506D01*
X135478410Y-106068000D01*
X134786590Y-106068000D01*
X134773506Y-106071506D01*
X134770000Y-106084590D01*
X134770000Y-107551410D01*
X134773850Y-107565779D01*
X134779054Y-107570983D01*
X134805876Y-107610689D01*
X134815933Y-107657539D01*
X134807772Y-107704756D01*
X134787063Y-107759364D01*
X134784360Y-107766492D01*
X134783442Y-107774051D01*
X134783440Y-107774060D01*
X134764773Y-107927797D01*
X134764773Y-107927804D01*
X134763855Y-107935364D01*
X134764773Y-107942927D01*
X134764773Y-107942931D01*
X134765080Y-107945460D01*
X134765521Y-107961088D01*
X134765941Y-107961087D01*
X134765954Y-107965399D01*
X134765675Y-107969689D01*
X134765981Y-107973975D01*
X134765982Y-107973980D01*
X134786107Y-108255000D01*
X134772426Y-108321730D01*
X134726012Y-108371587D01*
X134660430Y-108390000D01*
X134478845Y-108390000D01*
X134471594Y-108390420D01*
X134459543Y-108391817D01*
X134441455Y-108396738D01*
X134371512Y-108427621D01*
X134320619Y-108438356D01*
X134269726Y-108427620D01*
X134198666Y-108396244D01*
X134198660Y-108396242D01*
X134189992Y-108392415D01*
X134180581Y-108391323D01*
X134180577Y-108391322D01*
X134168470Y-108389918D01*
X134168467Y-108389917D01*
X134164866Y-108389500D01*
X134161232Y-108389500D01*
X133878775Y-108389500D01*
X133878757Y-108389500D01*
X133875137Y-108389501D01*
X133871527Y-108389919D01*
X133871521Y-108389920D01*
X133859425Y-108391323D01*
X133859424Y-108391323D01*
X133850010Y-108392415D01*
X133841342Y-108396242D01*
X133841339Y-108396243D01*
X133757917Y-108433077D01*
X133757913Y-108433079D01*
X133747236Y-108437794D01*
X133738981Y-108446048D01*
X133738978Y-108446051D01*
X133676052Y-108508977D01*
X133676049Y-108508980D01*
X133667795Y-108517235D01*
X133663080Y-108527912D01*
X133663078Y-108527916D01*
X133626244Y-108611337D01*
X133626242Y-108611343D01*
X133622416Y-108620009D01*
X133621324Y-108629417D01*
X133621323Y-108629423D01*
X133620182Y-108639266D01*
X133619501Y-108645135D01*
X133619501Y-108648768D01*
X133619501Y-108763500D01*
X133602620Y-108826500D01*
X133556501Y-108872619D01*
X133493501Y-108889500D01*
X132700171Y-108889500D01*
X132641862Y-108875196D01*
X132596791Y-108835532D01*
X132575193Y-108779513D01*
X132574490Y-108774023D01*
X132530329Y-108429367D01*
X132528606Y-108423948D01*
X132527488Y-108418887D01*
X132525436Y-108406874D01*
X132524582Y-108399839D01*
X132511140Y-108289128D01*
X132506373Y-108276559D01*
X132453522Y-108137200D01*
X132450818Y-108130070D01*
X132354183Y-107990071D01*
X132308952Y-107950000D01*
X132232555Y-107882318D01*
X132232552Y-107882316D01*
X132226852Y-107877266D01*
X132220106Y-107873725D01*
X132220104Y-107873724D01*
X132076225Y-107798210D01*
X132076930Y-107796865D01*
X132030817Y-107763352D01*
X132004390Y-107702618D01*
X132012418Y-107636872D01*
X132052682Y-107584282D01*
X132114057Y-107559379D01*
X132114512Y-107559324D01*
X132126564Y-107557877D01*
X132267342Y-107502361D01*
X132387922Y-107410922D01*
X132479361Y-107290342D01*
X132534877Y-107149564D01*
X132545500Y-107061102D01*
X132545500Y-106700364D01*
X132557510Y-106646677D01*
X132591252Y-106603224D01*
X132630114Y-106571120D01*
X132638282Y-106564371D01*
X132699971Y-106536886D01*
X132766992Y-106545205D01*
X132811768Y-106563862D01*
X132811787Y-106563868D01*
X132814629Y-106565053D01*
X132819818Y-106566639D01*
X132831881Y-106571597D01*
X132831901Y-106571545D01*
X132839023Y-106574246D01*
X132845775Y-106577790D01*
X133010944Y-106618500D01*
X133173438Y-106618500D01*
X133181056Y-106618500D01*
X133346225Y-106577790D01*
X133496852Y-106498734D01*
X133535446Y-106464542D01*
X133585899Y-106437281D01*
X133643208Y-106435202D01*
X133695503Y-106458738D01*
X133731950Y-106503013D01*
X133745000Y-106558855D01*
X133745000Y-107057293D01*
X133745449Y-107064801D01*
X133754650Y-107141420D01*
X133758578Y-107156963D01*
X133807916Y-107282074D01*
X133816288Y-107296965D01*
X133897229Y-107403700D01*
X133909299Y-107415770D01*
X134016034Y-107496711D01*
X134030925Y-107505083D01*
X134156036Y-107554421D01*
X134171579Y-107558349D01*
X134248198Y-107567550D01*
X134255707Y-107568000D01*
X134453410Y-107568000D01*
X134466493Y-107564493D01*
X134470000Y-107551410D01*
X134470000Y-105751410D01*
X134770000Y-105751410D01*
X134773506Y-105764493D01*
X134786590Y-105768000D01*
X135478410Y-105768000D01*
X135491493Y-105764493D01*
X135495000Y-105751410D01*
X135495000Y-104778707D01*
X135494550Y-104771198D01*
X135485349Y-104694579D01*
X135481421Y-104679036D01*
X135432083Y-104553925D01*
X135423711Y-104539034D01*
X135342770Y-104432299D01*
X135330700Y-104420229D01*
X135223965Y-104339288D01*
X135209074Y-104330916D01*
X135083963Y-104281578D01*
X135068420Y-104277650D01*
X134991801Y-104268449D01*
X134984293Y-104268000D01*
X134786590Y-104268000D01*
X134773506Y-104271506D01*
X134770000Y-104284590D01*
X134770000Y-105751410D01*
X134470000Y-105751410D01*
X134470000Y-104284590D01*
X134466493Y-104271506D01*
X134453410Y-104268000D01*
X134255707Y-104268000D01*
X134248198Y-104268449D01*
X134171579Y-104277650D01*
X134156036Y-104281578D01*
X134030925Y-104330916D01*
X134016034Y-104339288D01*
X133909299Y-104420229D01*
X133897229Y-104432299D01*
X133816288Y-104539034D01*
X133807916Y-104553925D01*
X133758578Y-104679036D01*
X133754650Y-104694579D01*
X133745449Y-104771198D01*
X133745000Y-104778707D01*
X133745000Y-105277145D01*
X133731950Y-105332987D01*
X133695503Y-105377262D01*
X133643208Y-105400798D01*
X133585899Y-105398719D01*
X133535447Y-105371458D01*
X133502555Y-105342318D01*
X133502552Y-105342316D01*
X133496852Y-105337266D01*
X133490106Y-105333725D01*
X133490104Y-105333724D01*
X133377701Y-105274730D01*
X133346225Y-105258210D01*
X133338827Y-105256386D01*
X133338823Y-105256385D01*
X133188451Y-105219322D01*
X133188445Y-105219321D01*
X133181056Y-105217500D01*
X133010944Y-105217500D01*
X133003555Y-105219321D01*
X133003548Y-105219322D01*
X132853170Y-105256387D01*
X132853167Y-105256387D01*
X132845775Y-105258210D01*
X132839031Y-105261749D01*
X132831902Y-105264453D01*
X132831882Y-105264402D01*
X132819830Y-105269356D01*
X132817586Y-105270041D01*
X132817571Y-105270046D01*
X132814631Y-105270945D01*
X132811797Y-105272125D01*
X132811777Y-105272133D01*
X132766989Y-105290795D01*
X132699971Y-105299112D01*
X132638284Y-105271628D01*
X132618839Y-105255565D01*
X132591253Y-105232776D01*
X132557511Y-105189325D01*
X132545500Y-105135636D01*
X132545500Y-104778665D01*
X132545500Y-104774898D01*
X132534877Y-104686436D01*
X132479361Y-104545658D01*
X132387922Y-104425078D01*
X132267342Y-104333639D01*
X132169214Y-104294942D01*
X132134081Y-104281087D01*
X132134078Y-104281086D01*
X132126564Y-104278123D01*
X132118541Y-104277159D01*
X132118539Y-104277159D01*
X132041843Y-104267949D01*
X132041839Y-104267948D01*
X132038102Y-104267500D01*
X131301898Y-104267500D01*
X131298161Y-104267948D01*
X131298156Y-104267949D01*
X131221460Y-104277159D01*
X131221456Y-104277159D01*
X131213436Y-104278123D01*
X131205923Y-104281085D01*
X131205918Y-104281087D01*
X131080678Y-104330476D01*
X131080676Y-104330477D01*
X131072658Y-104333639D01*
X131065789Y-104338847D01*
X131065787Y-104338849D01*
X130958942Y-104419872D01*
X130958938Y-104419875D01*
X130952078Y-104425078D01*
X130946875Y-104431938D01*
X130946872Y-104431942D01*
X130865849Y-104538787D01*
X130860639Y-104545658D01*
X130857477Y-104553676D01*
X130857476Y-104553678D01*
X130808087Y-104678918D01*
X130808085Y-104678923D01*
X130805123Y-104686436D01*
X130804159Y-104694456D01*
X130804159Y-104694460D01*
X130794949Y-104771156D01*
X130794500Y-104774898D01*
X130794500Y-104778665D01*
X130794500Y-105135634D01*
X130782489Y-105189324D01*
X130748744Y-105232777D01*
X130721157Y-105255565D01*
X130659470Y-105283048D01*
X130592452Y-105274730D01*
X130583368Y-105270945D01*
X130580419Y-105270043D01*
X130580406Y-105270039D01*
X130578170Y-105269356D01*
X130566120Y-105264403D01*
X130566101Y-105264455D01*
X130558973Y-105261752D01*
X130552225Y-105258210D01*
X130544824Y-105256385D01*
X130544822Y-105256385D01*
X130394451Y-105219322D01*
X130394445Y-105219321D01*
X130387056Y-105217500D01*
X130216944Y-105217500D01*
X130209555Y-105219321D01*
X130209548Y-105219322D01*
X130059176Y-105256385D01*
X130059169Y-105256387D01*
X130051775Y-105258210D01*
X130045025Y-105261752D01*
X130045024Y-105261753D01*
X129907895Y-105333724D01*
X129907889Y-105333727D01*
X129901148Y-105337266D01*
X129895450Y-105342313D01*
X129895444Y-105342318D01*
X129779522Y-105445016D01*
X129779518Y-105445019D01*
X129773817Y-105450071D01*
X129769487Y-105456343D01*
X129769486Y-105456345D01*
X129681513Y-105583794D01*
X129681509Y-105583800D01*
X129677182Y-105590070D01*
X129674480Y-105597193D01*
X129674477Y-105597200D01*
X129619563Y-105741999D01*
X129619561Y-105742003D01*
X129616860Y-105749128D01*
X129615942Y-105756687D01*
X129615940Y-105756696D01*
X129600631Y-105882783D01*
X129596355Y-105918000D01*
X129597274Y-105925569D01*
X129615940Y-106079303D01*
X129615941Y-106079310D01*
X129616860Y-106086872D01*
X129619562Y-106093998D01*
X129619563Y-106094000D01*
X129674477Y-106238799D01*
X129674479Y-106238803D01*
X129677182Y-106245930D01*
X129681511Y-106252202D01*
X129681513Y-106252205D01*
X129710622Y-106294376D01*
X129773817Y-106385929D01*
X129779522Y-106390983D01*
X129872865Y-106473678D01*
X129901148Y-106498734D01*
X130051775Y-106577790D01*
X130216944Y-106618500D01*
X130379438Y-106618500D01*
X130387056Y-106618500D01*
X130552225Y-106577790D01*
X130558974Y-106574247D01*
X130566102Y-106571544D01*
X130566122Y-106571597D01*
X130578205Y-106566631D01*
X130583370Y-106565053D01*
X130592449Y-106561269D01*
X130659472Y-106552950D01*
X130721160Y-106580433D01*
X130748749Y-106603224D01*
X130782490Y-106646676D01*
X130794500Y-106700364D01*
X130794500Y-107061102D01*
X130794948Y-107064836D01*
X130794949Y-107064846D01*
X130800760Y-107113235D01*
X130793429Y-107173049D01*
X130759158Y-107222617D01*
X130705788Y-107250602D01*
X130656221Y-107250601D01*
X130656022Y-107252242D01*
X130648451Y-107251322D01*
X130641056Y-107249500D01*
X130470944Y-107249500D01*
X130463555Y-107251321D01*
X130463548Y-107251322D01*
X130313176Y-107288385D01*
X130313169Y-107288387D01*
X130305775Y-107290210D01*
X130299025Y-107293752D01*
X130299024Y-107293753D01*
X130161895Y-107365724D01*
X130161889Y-107365727D01*
X130155148Y-107369266D01*
X130149450Y-107374313D01*
X130149444Y-107374318D01*
X130033522Y-107477016D01*
X130033518Y-107477019D01*
X130027817Y-107482071D01*
X130023487Y-107488343D01*
X130023486Y-107488345D01*
X129935513Y-107615794D01*
X129935509Y-107615800D01*
X129931182Y-107622070D01*
X129928480Y-107629193D01*
X129928477Y-107629200D01*
X129873563Y-107773999D01*
X129873561Y-107774003D01*
X129870860Y-107781128D01*
X129869941Y-107788693D01*
X129869941Y-107788695D01*
X129869083Y-107795763D01*
X129847697Y-107852150D01*
X129802556Y-107892140D01*
X129744001Y-107906572D01*
X129685447Y-107892139D01*
X129640306Y-107852149D01*
X129560183Y-107736071D01*
X129493884Y-107677335D01*
X129438555Y-107628318D01*
X129438552Y-107628316D01*
X129432852Y-107623266D01*
X129426106Y-107619725D01*
X129426104Y-107619724D01*
X129347499Y-107578469D01*
X129282225Y-107544210D01*
X129274827Y-107542386D01*
X129274823Y-107542385D01*
X129124451Y-107505322D01*
X129124445Y-107505321D01*
X129117056Y-107503500D01*
X128946944Y-107503500D01*
X128939555Y-107505321D01*
X128939548Y-107505322D01*
X128789176Y-107542385D01*
X128789169Y-107542387D01*
X128781775Y-107544210D01*
X128775025Y-107547752D01*
X128775024Y-107547753D01*
X128637895Y-107619724D01*
X128637889Y-107619727D01*
X128631148Y-107623266D01*
X128625450Y-107628313D01*
X128625444Y-107628318D01*
X128509522Y-107731016D01*
X128509518Y-107731019D01*
X128503817Y-107736071D01*
X128499487Y-107742343D01*
X128499486Y-107742345D01*
X128411513Y-107869794D01*
X128411509Y-107869800D01*
X128407182Y-107876070D01*
X128404480Y-107883193D01*
X128404477Y-107883200D01*
X128349563Y-108027999D01*
X128349561Y-108028003D01*
X128346860Y-108035128D01*
X128345942Y-108042687D01*
X128345940Y-108042696D01*
X128328778Y-108184046D01*
X128326355Y-108204000D01*
X128327274Y-108211569D01*
X128345940Y-108365302D01*
X128345941Y-108365308D01*
X128346860Y-108372872D01*
X128349561Y-108379996D01*
X128349564Y-108380005D01*
X128362478Y-108414059D01*
X128368914Y-108437805D01*
X128369074Y-108438757D01*
X128369509Y-108444369D01*
X128408155Y-108591825D01*
X128411040Y-108641331D01*
X128394596Y-108688120D01*
X128351308Y-108760984D01*
X128324661Y-108792570D01*
X128299769Y-108807508D01*
X128300188Y-108808252D01*
X128292668Y-108812479D01*
X128284658Y-108815639D01*
X128277800Y-108820839D01*
X128277792Y-108820844D01*
X128170942Y-108901872D01*
X128170938Y-108901875D01*
X128164078Y-108907078D01*
X128158875Y-108913938D01*
X128158875Y-108913939D01*
X128115222Y-108971504D01*
X128062659Y-109011936D01*
X127996847Y-109020080D01*
X127936014Y-108993679D01*
X127897014Y-108940050D01*
X127878818Y-108892070D01*
X127782183Y-108752071D01*
X127700053Y-108679311D01*
X127662583Y-108620056D01*
X127662583Y-108549944D01*
X127700053Y-108490688D01*
X127782183Y-108417929D01*
X127878818Y-108277930D01*
X127939140Y-108118872D01*
X127959645Y-107950000D01*
X127953856Y-107902321D01*
X127940059Y-107788696D01*
X127940058Y-107788695D01*
X127939140Y-107781128D01*
X127878818Y-107622070D01*
X127782183Y-107482071D01*
X127700053Y-107409311D01*
X127662583Y-107350056D01*
X127662583Y-107279944D01*
X127700053Y-107220688D01*
X127782183Y-107147929D01*
X127878818Y-107007930D01*
X127939140Y-106848872D01*
X127959645Y-106680000D01*
X127954448Y-106637197D01*
X127940059Y-106518696D01*
X127940058Y-106518695D01*
X127939140Y-106511128D01*
X127878818Y-106352070D01*
X127782183Y-106212071D01*
X127747675Y-106181500D01*
X127660555Y-106104318D01*
X127660552Y-106104316D01*
X127654852Y-106099266D01*
X127648106Y-106095725D01*
X127648104Y-106095724D01*
X127574103Y-106056885D01*
X127504225Y-106020210D01*
X127496827Y-106018386D01*
X127496823Y-106018385D01*
X127346451Y-105981322D01*
X127346445Y-105981321D01*
X127339056Y-105979500D01*
X127168944Y-105979500D01*
X127161555Y-105981321D01*
X127161548Y-105981322D01*
X127011176Y-106018385D01*
X127011169Y-106018387D01*
X127003775Y-106020210D01*
X126997025Y-106023752D01*
X126997024Y-106023753D01*
X126859895Y-106095724D01*
X126859889Y-106095727D01*
X126853148Y-106099266D01*
X126847450Y-106104313D01*
X126847444Y-106104318D01*
X126731522Y-106207016D01*
X126731518Y-106207019D01*
X126725817Y-106212071D01*
X126721487Y-106218343D01*
X126721486Y-106218345D01*
X126633513Y-106345794D01*
X126633509Y-106345800D01*
X126629182Y-106352070D01*
X126626480Y-106359193D01*
X126626477Y-106359200D01*
X126571563Y-106503999D01*
X126571561Y-106504003D01*
X126568860Y-106511128D01*
X126567942Y-106518687D01*
X126567940Y-106518696D01*
X126553552Y-106637197D01*
X126548355Y-106680000D01*
X126549274Y-106687569D01*
X126567940Y-106841303D01*
X126567941Y-106841310D01*
X126568860Y-106848872D01*
X126571562Y-106855998D01*
X126571563Y-106856000D01*
X126626477Y-107000799D01*
X126626479Y-107000803D01*
X126629182Y-107007930D01*
X126633511Y-107014202D01*
X126633513Y-107014205D01*
X126677499Y-107077929D01*
X126725817Y-107147929D01*
X126731520Y-107152982D01*
X126731526Y-107152988D01*
X126807944Y-107220688D01*
X126845416Y-107279945D01*
X126845416Y-107350055D01*
X126807944Y-107409312D01*
X126731526Y-107477011D01*
X126731516Y-107477021D01*
X126725817Y-107482071D01*
X126721487Y-107488343D01*
X126721486Y-107488345D01*
X126633513Y-107615794D01*
X126633509Y-107615800D01*
X126629182Y-107622070D01*
X126626480Y-107629193D01*
X126626477Y-107629200D01*
X126571563Y-107773999D01*
X126571561Y-107774003D01*
X126568860Y-107781128D01*
X126567942Y-107788687D01*
X126567940Y-107788696D01*
X126554144Y-107902321D01*
X126548355Y-107950000D01*
X126549274Y-107957569D01*
X126567940Y-108111303D01*
X126567941Y-108111310D01*
X126568860Y-108118872D01*
X126571562Y-108125998D01*
X126571563Y-108126000D01*
X126626477Y-108270799D01*
X126626479Y-108270803D01*
X126629182Y-108277930D01*
X126633511Y-108284202D01*
X126633513Y-108284205D01*
X126648702Y-108306210D01*
X126725817Y-108417929D01*
X126731520Y-108422982D01*
X126731526Y-108422988D01*
X126807944Y-108490688D01*
X126845416Y-108549945D01*
X126845416Y-108620055D01*
X126807944Y-108679312D01*
X126731526Y-108747011D01*
X126731516Y-108747021D01*
X126725817Y-108752071D01*
X126721487Y-108758343D01*
X126721486Y-108758345D01*
X126633513Y-108885794D01*
X126633509Y-108885800D01*
X126629182Y-108892070D01*
X126626480Y-108899193D01*
X126626477Y-108899200D01*
X126571563Y-109043999D01*
X126571561Y-109044003D01*
X126568860Y-109051128D01*
X126567942Y-109058687D01*
X126567940Y-109058696D01*
X126556573Y-109152318D01*
X126548355Y-109220000D01*
X121920500Y-109220000D01*
X121920500Y-107571243D01*
X123309500Y-107571243D01*
X123309501Y-107574864D01*
X123312415Y-107599991D01*
X123316242Y-107608660D01*
X123316243Y-107608661D01*
X123349880Y-107684843D01*
X123357794Y-107702765D01*
X123437235Y-107782206D01*
X123540009Y-107827585D01*
X123565135Y-107830500D01*
X124274894Y-107830499D01*
X124334502Y-107845491D01*
X124379926Y-107886901D01*
X124400354Y-107944873D01*
X124390926Y-108005612D01*
X124353885Y-108054663D01*
X124298045Y-108080353D01*
X124149675Y-108108088D01*
X124138500Y-108111268D01*
X123950640Y-108184046D01*
X123940253Y-108189217D01*
X123768956Y-108295279D01*
X123759693Y-108302274D01*
X123610804Y-108438005D01*
X123602986Y-108446581D01*
X123481572Y-108607358D01*
X123475464Y-108617223D01*
X123385657Y-108797580D01*
X123381469Y-108808392D01*
X123326330Y-109002184D01*
X123324201Y-109013576D01*
X123320594Y-109052500D01*
X123323153Y-109066188D01*
X123336550Y-109070000D01*
X125583450Y-109070000D01*
X125596846Y-109066188D01*
X125599405Y-109052500D01*
X125595798Y-109013576D01*
X125593669Y-109002184D01*
X125538530Y-108808392D01*
X125534342Y-108797580D01*
X125444535Y-108617223D01*
X125438427Y-108607358D01*
X125317013Y-108446581D01*
X125309195Y-108438005D01*
X125160306Y-108302274D01*
X125151043Y-108295279D01*
X124979746Y-108189217D01*
X124969359Y-108184046D01*
X124781499Y-108111268D01*
X124770334Y-108108091D01*
X124621953Y-108080354D01*
X124566113Y-108054663D01*
X124529072Y-108005612D01*
X124519644Y-107944873D01*
X124540072Y-107886901D01*
X124585496Y-107845491D01*
X124645104Y-107830499D01*
X125354864Y-107830499D01*
X125379991Y-107827585D01*
X125482765Y-107782206D01*
X125562206Y-107702765D01*
X125607585Y-107599991D01*
X125610500Y-107574865D01*
X125610499Y-105785136D01*
X125607585Y-105760009D01*
X125562206Y-105657235D01*
X125482765Y-105577794D01*
X125472084Y-105573078D01*
X125472083Y-105573077D01*
X125388662Y-105536243D01*
X125388658Y-105536242D01*
X125379991Y-105532415D01*
X125370580Y-105531323D01*
X125370576Y-105531322D01*
X125358469Y-105529918D01*
X125358466Y-105529917D01*
X125354865Y-105529500D01*
X125351231Y-105529500D01*
X123568773Y-105529500D01*
X123568755Y-105529500D01*
X123565136Y-105529501D01*
X123561526Y-105529919D01*
X123561520Y-105529920D01*
X123549424Y-105531323D01*
X123549423Y-105531323D01*
X123540009Y-105532415D01*
X123531341Y-105536242D01*
X123531338Y-105536243D01*
X123447916Y-105573077D01*
X123447912Y-105573079D01*
X123437235Y-105577794D01*
X123428980Y-105586048D01*
X123428977Y-105586051D01*
X123366051Y-105648977D01*
X123366048Y-105648980D01*
X123357794Y-105657235D01*
X123353079Y-105667912D01*
X123353077Y-105667916D01*
X123316243Y-105751337D01*
X123316241Y-105751343D01*
X123312415Y-105760009D01*
X123311323Y-105769417D01*
X123311322Y-105769423D01*
X123311246Y-105770081D01*
X123309500Y-105785135D01*
X123309500Y-105788767D01*
X123309500Y-105788768D01*
X123309500Y-107571226D01*
X123309500Y-107571243D01*
X121920500Y-107571243D01*
X121920500Y-103124000D01*
X122484355Y-103124000D01*
X122485274Y-103131569D01*
X122503940Y-103285303D01*
X122503941Y-103285310D01*
X122504860Y-103292872D01*
X122507562Y-103299998D01*
X122507563Y-103300000D01*
X122562477Y-103444799D01*
X122562479Y-103444803D01*
X122565182Y-103451930D01*
X122569511Y-103458202D01*
X122569513Y-103458205D01*
X122584702Y-103480210D01*
X122661817Y-103591929D01*
X122789148Y-103704734D01*
X122939775Y-103783790D01*
X123104944Y-103824500D01*
X123267438Y-103824500D01*
X123275056Y-103824500D01*
X123440225Y-103783790D01*
X123590852Y-103704734D01*
X123718183Y-103591929D01*
X123814818Y-103451930D01*
X123875140Y-103292872D01*
X123895645Y-103124000D01*
X123891393Y-103088983D01*
X123876059Y-102962696D01*
X123876058Y-102962695D01*
X123875140Y-102955128D01*
X123869156Y-102939349D01*
X126910785Y-102939349D01*
X126929603Y-103142432D01*
X126931195Y-103148030D01*
X126931196Y-103148031D01*
X126978611Y-103314677D01*
X126985418Y-103338599D01*
X126988009Y-103343803D01*
X126988012Y-103343810D01*
X127069594Y-103507648D01*
X127076327Y-103521170D01*
X127079835Y-103525816D01*
X127079838Y-103525820D01*
X127195723Y-103679277D01*
X127195727Y-103679281D01*
X127199236Y-103683928D01*
X127203538Y-103687850D01*
X127203541Y-103687853D01*
X127290684Y-103767294D01*
X127349959Y-103821330D01*
X127523363Y-103928697D01*
X127713544Y-104002373D01*
X127914024Y-104039849D01*
X128112148Y-104039849D01*
X128117976Y-104039849D01*
X128318456Y-104002373D01*
X128508637Y-103928697D01*
X128682041Y-103821330D01*
X128832764Y-103683928D01*
X128955673Y-103521170D01*
X129046582Y-103338599D01*
X129102397Y-103142432D01*
X129121215Y-102939349D01*
X129102397Y-102736266D01*
X129046582Y-102540099D01*
X128955673Y-102357528D01*
X128911231Y-102298677D01*
X128836276Y-102199420D01*
X128836273Y-102199416D01*
X128832764Y-102194770D01*
X128828461Y-102190847D01*
X128828458Y-102190844D01*
X128720830Y-102092729D01*
X128682041Y-102057368D01*
X128604478Y-102009343D01*
X128513596Y-101953071D01*
X128513592Y-101953069D01*
X128508637Y-101950001D01*
X128503206Y-101947897D01*
X128503202Y-101947895D01*
X128323882Y-101878427D01*
X128323881Y-101878426D01*
X128318456Y-101876325D01*
X128312737Y-101875256D01*
X128312734Y-101875255D01*
X128123702Y-101839919D01*
X128123698Y-101839918D01*
X128117976Y-101838849D01*
X127914024Y-101838849D01*
X127908302Y-101839918D01*
X127908297Y-101839919D01*
X127719265Y-101875255D01*
X127719259Y-101875256D01*
X127713544Y-101876325D01*
X127708121Y-101878425D01*
X127708117Y-101878427D01*
X127528797Y-101947895D01*
X127528789Y-101947898D01*
X127523363Y-101950001D01*
X127518412Y-101953066D01*
X127518403Y-101953071D01*
X127376071Y-102041200D01*
X127349959Y-102057368D01*
X127345660Y-102061286D01*
X127345656Y-102061290D01*
X127203541Y-102190844D01*
X127203533Y-102190852D01*
X127199236Y-102194770D01*
X127195731Y-102199410D01*
X127195723Y-102199420D01*
X127079838Y-102352877D01*
X127079832Y-102352886D01*
X127076327Y-102357528D01*
X127073733Y-102362735D01*
X127073730Y-102362742D01*
X126988012Y-102534887D01*
X126988007Y-102534898D01*
X126985418Y-102540099D01*
X126983826Y-102545692D01*
X126983824Y-102545699D01*
X126937447Y-102708696D01*
X126929603Y-102736266D01*
X126910785Y-102939349D01*
X123869156Y-102939349D01*
X123814818Y-102796070D01*
X123744363Y-102693999D01*
X123739929Y-102687575D01*
X123720171Y-102641202D01*
X123720172Y-102590795D01*
X123739928Y-102544425D01*
X123814818Y-102435930D01*
X123875140Y-102276872D01*
X123895645Y-102108000D01*
X123891393Y-102072983D01*
X123876059Y-101946696D01*
X123876058Y-101946695D01*
X123875140Y-101939128D01*
X123814818Y-101780070D01*
X123718183Y-101640071D01*
X123667576Y-101595237D01*
X123596555Y-101532318D01*
X123596552Y-101532316D01*
X123590852Y-101527266D01*
X123584106Y-101523725D01*
X123584104Y-101523724D01*
X123458053Y-101457566D01*
X123408780Y-101411183D01*
X123390609Y-101345998D01*
X123408781Y-101280814D01*
X123458050Y-101234434D01*
X123590852Y-101164734D01*
X123718183Y-101051929D01*
X123814818Y-100911930D01*
X123875140Y-100752872D01*
X123888680Y-100641360D01*
X133619500Y-100641360D01*
X133619948Y-100645096D01*
X133619949Y-100645101D01*
X133622834Y-100669128D01*
X133630003Y-100728821D01*
X133632966Y-100736335D01*
X133632967Y-100736338D01*
X133680480Y-100856821D01*
X133684889Y-100868000D01*
X133690093Y-100874862D01*
X133690095Y-100874866D01*
X133770083Y-100980346D01*
X133775289Y-100987211D01*
X133894500Y-101077611D01*
X133901167Y-101080240D01*
X133947763Y-101126136D01*
X133966783Y-101158799D01*
X133970488Y-101165161D01*
X133986447Y-101211544D01*
X133983486Y-101260506D01*
X133958939Y-101354169D01*
X133958937Y-101354179D01*
X133957509Y-101359629D01*
X133957073Y-101365250D01*
X133956916Y-101366187D01*
X133950478Y-101389943D01*
X133937563Y-101423997D01*
X133937562Y-101424003D01*
X133934860Y-101431128D01*
X133933941Y-101438689D01*
X133933940Y-101438697D01*
X133918531Y-101565604D01*
X133914355Y-101600000D01*
X133915274Y-101607566D01*
X133915274Y-101607569D01*
X133933940Y-101761303D01*
X133933941Y-101761310D01*
X133934860Y-101768872D01*
X133937562Y-101775998D01*
X133937563Y-101776000D01*
X133992477Y-101920799D01*
X133992479Y-101920803D01*
X133995182Y-101927930D01*
X133999511Y-101934202D01*
X133999513Y-101934205D01*
X134014702Y-101956210D01*
X134091817Y-102067929D01*
X134119811Y-102092729D01*
X134190865Y-102155678D01*
X134219148Y-102180734D01*
X134369775Y-102259790D01*
X134534944Y-102300500D01*
X134697438Y-102300500D01*
X134705056Y-102300500D01*
X134870225Y-102259790D01*
X135020852Y-102180734D01*
X135148183Y-102067929D01*
X135244818Y-101927930D01*
X135305140Y-101768872D01*
X135325645Y-101600000D01*
X135305140Y-101431128D01*
X135289520Y-101389943D01*
X135283082Y-101366182D01*
X135282925Y-101365250D01*
X135282490Y-101359627D01*
X135256512Y-101260509D01*
X135253550Y-101211544D01*
X135269511Y-101165159D01*
X135292234Y-101126137D01*
X135338827Y-101080242D01*
X135345500Y-101077611D01*
X135464711Y-100987211D01*
X135555111Y-100868000D01*
X135609997Y-100728821D01*
X135620500Y-100641360D01*
X135620500Y-100068640D01*
X135609997Y-99981179D01*
X135555111Y-99842000D01*
X135514379Y-99788287D01*
X135469916Y-99729653D01*
X135464711Y-99722789D01*
X135457846Y-99717583D01*
X135352366Y-99637595D01*
X135352362Y-99637593D01*
X135345500Y-99632389D01*
X135337485Y-99629228D01*
X135337483Y-99629227D01*
X135213838Y-99580467D01*
X135213835Y-99580466D01*
X135206321Y-99577503D01*
X135198298Y-99576539D01*
X135198296Y-99576539D01*
X135122601Y-99567449D01*
X135122596Y-99567448D01*
X135118860Y-99567000D01*
X134121140Y-99567000D01*
X134117404Y-99567448D01*
X134117398Y-99567449D01*
X134041703Y-99576539D01*
X134041699Y-99576539D01*
X134033679Y-99577503D01*
X134026166Y-99580465D01*
X134026161Y-99580467D01*
X133902516Y-99629227D01*
X133902510Y-99629229D01*
X133894500Y-99632389D01*
X133887640Y-99637591D01*
X133887633Y-99637595D01*
X133782153Y-99717583D01*
X133782149Y-99717586D01*
X133775289Y-99722789D01*
X133770086Y-99729649D01*
X133770083Y-99729653D01*
X133690095Y-99835133D01*
X133690091Y-99835140D01*
X133684889Y-99842000D01*
X133681729Y-99850010D01*
X133681727Y-99850016D01*
X133632967Y-99973661D01*
X133632965Y-99973666D01*
X133630003Y-99981179D01*
X133629039Y-99989199D01*
X133629039Y-99989203D01*
X133619949Y-100064897D01*
X133619500Y-100068640D01*
X133619500Y-100641360D01*
X123888680Y-100641360D01*
X123895645Y-100584000D01*
X123890003Y-100537531D01*
X123876059Y-100422696D01*
X123876058Y-100422695D01*
X123875140Y-100415128D01*
X123824084Y-100280504D01*
X126916001Y-100280504D01*
X126916420Y-100287754D01*
X126917817Y-100299805D01*
X126922740Y-100317898D01*
X126959495Y-100401142D01*
X126972471Y-100420085D01*
X127035263Y-100482877D01*
X127054206Y-100495853D01*
X127137454Y-100532610D01*
X127155539Y-100537531D01*
X127167580Y-100538928D01*
X127174854Y-100539349D01*
X127849410Y-100539349D01*
X127862493Y-100535842D01*
X127866000Y-100522759D01*
X127866000Y-100522758D01*
X128166000Y-100522758D01*
X128169506Y-100535841D01*
X128182590Y-100539348D01*
X128857155Y-100539348D01*
X128864405Y-100538928D01*
X128876456Y-100537531D01*
X128894549Y-100532608D01*
X128977793Y-100495853D01*
X128996736Y-100482877D01*
X129059528Y-100420085D01*
X129072504Y-100401142D01*
X129109261Y-100317894D01*
X129114182Y-100299809D01*
X129115579Y-100287768D01*
X129116000Y-100280495D01*
X129116000Y-99605939D01*
X129112493Y-99592855D01*
X129099410Y-99589349D01*
X128182590Y-99589349D01*
X128169506Y-99592855D01*
X128166000Y-99605939D01*
X128166000Y-100522758D01*
X127866000Y-100522758D01*
X127866000Y-99605939D01*
X127862493Y-99592855D01*
X127849410Y-99589349D01*
X126932591Y-99589349D01*
X126919507Y-99592855D01*
X126916001Y-99605939D01*
X126916001Y-100280504D01*
X123824084Y-100280504D01*
X123814818Y-100256070D01*
X123718183Y-100116071D01*
X123712478Y-100111017D01*
X123712473Y-100111011D01*
X123636055Y-100043311D01*
X123598583Y-99984054D01*
X123598583Y-99913942D01*
X123636053Y-99854689D01*
X123718183Y-99781929D01*
X123814818Y-99641930D01*
X123875140Y-99482872D01*
X123895645Y-99314000D01*
X123890637Y-99272759D01*
X126916000Y-99272759D01*
X126919506Y-99285842D01*
X126932590Y-99289349D01*
X127849410Y-99289349D01*
X127862493Y-99285842D01*
X127866000Y-99272759D01*
X128166000Y-99272759D01*
X128169506Y-99285842D01*
X128182590Y-99289349D01*
X129099409Y-99289349D01*
X129112492Y-99285842D01*
X129115999Y-99272759D01*
X129115999Y-98766360D01*
X133619500Y-98766360D01*
X133619948Y-98770096D01*
X133619949Y-98770101D01*
X133628464Y-98841011D01*
X133630003Y-98853821D01*
X133632966Y-98861335D01*
X133632967Y-98861338D01*
X133647844Y-98899064D01*
X133684889Y-98993000D01*
X133690093Y-98999862D01*
X133690095Y-98999866D01*
X133737472Y-99062342D01*
X133775289Y-99112211D01*
X133894500Y-99202611D01*
X134033679Y-99257497D01*
X134121140Y-99268000D01*
X135115093Y-99268000D01*
X135118860Y-99268000D01*
X135206321Y-99257497D01*
X135248333Y-99240928D01*
X135262054Y-99236408D01*
X135290636Y-99228777D01*
X135290635Y-99228777D01*
X135294846Y-99227653D01*
X135686984Y-99062341D01*
X135738861Y-99052481D01*
X135790226Y-99064747D01*
X136221602Y-99270768D01*
X136249269Y-99279266D01*
X136262167Y-99283229D01*
X136271393Y-99286460D01*
X136306452Y-99300286D01*
X136355196Y-99334693D01*
X136382645Y-99387668D01*
X136382644Y-99447333D01*
X136355195Y-99500308D01*
X136306451Y-99534715D01*
X136191678Y-99579976D01*
X136191676Y-99579977D01*
X136183658Y-99583139D01*
X136176789Y-99588347D01*
X136176787Y-99588349D01*
X136069942Y-99669372D01*
X136069938Y-99669375D01*
X136063078Y-99674578D01*
X136057875Y-99681438D01*
X136057872Y-99681442D01*
X135977839Y-99786982D01*
X135971639Y-99795158D01*
X135968477Y-99803176D01*
X135968476Y-99803178D01*
X135919087Y-99928418D01*
X135919085Y-99928423D01*
X135916123Y-99935936D01*
X135915159Y-99943956D01*
X135915159Y-99943960D01*
X135905949Y-100020656D01*
X135905500Y-100024398D01*
X135905500Y-100635602D01*
X135905948Y-100639339D01*
X135905949Y-100639343D01*
X135906640Y-100645101D01*
X135916123Y-100724064D01*
X135919086Y-100731578D01*
X135919087Y-100731581D01*
X135927483Y-100752872D01*
X135971639Y-100864842D01*
X136063078Y-100985422D01*
X136166322Y-101063715D01*
X136198452Y-101099656D01*
X136250047Y-101186325D01*
X136266541Y-101233154D01*
X136263664Y-101282720D01*
X136244939Y-101354169D01*
X136244937Y-101354179D01*
X136243509Y-101359629D01*
X136243073Y-101365248D01*
X136242916Y-101366186D01*
X136236478Y-101389943D01*
X136223563Y-101423997D01*
X136223562Y-101424003D01*
X136220860Y-101431128D01*
X136219941Y-101438689D01*
X136219940Y-101438697D01*
X136204531Y-101565604D01*
X136200355Y-101600000D01*
X136201274Y-101607566D01*
X136201274Y-101607569D01*
X136220860Y-101768872D01*
X136219604Y-101769024D01*
X136220314Y-101815942D01*
X136196306Y-101867205D01*
X136152280Y-101902785D01*
X136097120Y-101915500D01*
X136058944Y-101915500D01*
X136051555Y-101917321D01*
X136051548Y-101917322D01*
X135901176Y-101954385D01*
X135901169Y-101954387D01*
X135893775Y-101956210D01*
X135887025Y-101959752D01*
X135887024Y-101959753D01*
X135749895Y-102031724D01*
X135749889Y-102031727D01*
X135743148Y-102035266D01*
X135737450Y-102040313D01*
X135737444Y-102040318D01*
X135621522Y-102143016D01*
X135621518Y-102143019D01*
X135615817Y-102148071D01*
X135611487Y-102154343D01*
X135611486Y-102154345D01*
X135523513Y-102281794D01*
X135523509Y-102281800D01*
X135519182Y-102288070D01*
X135516480Y-102295193D01*
X135516477Y-102295200D01*
X135461563Y-102439999D01*
X135461561Y-102440003D01*
X135458860Y-102447128D01*
X135457942Y-102454687D01*
X135457940Y-102454696D01*
X135441415Y-102590795D01*
X135438355Y-102616000D01*
X135439274Y-102623569D01*
X135457940Y-102777303D01*
X135457941Y-102777310D01*
X135458860Y-102784872D01*
X135461562Y-102791998D01*
X135461563Y-102792000D01*
X135516477Y-102936799D01*
X135516479Y-102936803D01*
X135519182Y-102943930D01*
X135615817Y-103083929D01*
X135621522Y-103088983D01*
X135736448Y-103190799D01*
X135743148Y-103196734D01*
X135893775Y-103275790D01*
X136058944Y-103316500D01*
X136221438Y-103316500D01*
X136229056Y-103316500D01*
X136394225Y-103275790D01*
X136544852Y-103196734D01*
X136546177Y-103199258D01*
X136591662Y-103182630D01*
X136654244Y-103192595D01*
X136704061Y-103231763D01*
X136723616Y-103278523D01*
X136726118Y-103277907D01*
X136727941Y-103285303D01*
X136728860Y-103292872D01*
X136731562Y-103299998D01*
X136731563Y-103300000D01*
X136786477Y-103444799D01*
X136786479Y-103444803D01*
X136789182Y-103451930D01*
X136793511Y-103458202D01*
X136793513Y-103458205D01*
X136808702Y-103480210D01*
X136885817Y-103591929D01*
X137013148Y-103704734D01*
X137163775Y-103783790D01*
X137328944Y-103824500D01*
X137491438Y-103824500D01*
X137499056Y-103824500D01*
X137664225Y-103783790D01*
X137814852Y-103704734D01*
X137942183Y-103591929D01*
X138038818Y-103451930D01*
X138099140Y-103292872D01*
X138119645Y-103124000D01*
X138115393Y-103088983D01*
X138100059Y-102962696D01*
X138100058Y-102962695D01*
X138099140Y-102955128D01*
X138038818Y-102796070D01*
X137942183Y-102656071D01*
X137896952Y-102616000D01*
X137820555Y-102548318D01*
X137820552Y-102548316D01*
X137814852Y-102543266D01*
X137808106Y-102539725D01*
X137808104Y-102539724D01*
X137734103Y-102500885D01*
X137664225Y-102464210D01*
X137656827Y-102462386D01*
X137656823Y-102462385D01*
X137506451Y-102425322D01*
X137506445Y-102425321D01*
X137499056Y-102423500D01*
X137355502Y-102423500D01*
X137291625Y-102406108D01*
X137245382Y-102358734D01*
X137229539Y-102294455D01*
X137248469Y-102231017D01*
X137293926Y-102188741D01*
X137293832Y-102188605D01*
X137294766Y-102187960D01*
X137296945Y-102185933D01*
X137306852Y-102180734D01*
X137434183Y-102067929D01*
X137530818Y-101927930D01*
X137591140Y-101768872D01*
X137611645Y-101600000D01*
X137591140Y-101431128D01*
X137575520Y-101389943D01*
X137569082Y-101366182D01*
X137568925Y-101365250D01*
X137568490Y-101359627D01*
X137548334Y-101282723D01*
X137545455Y-101233156D01*
X137561948Y-101186328D01*
X137613545Y-101099655D01*
X137645672Y-101063718D01*
X137748922Y-100985422D01*
X137840361Y-100864842D01*
X137895877Y-100724064D01*
X137906500Y-100635602D01*
X137906500Y-100451852D01*
X137915881Y-100404145D01*
X137948881Y-100323476D01*
X137991081Y-100269508D01*
X138055283Y-100245598D01*
X138122506Y-100258816D01*
X138172875Y-100305254D01*
X138191500Y-100371183D01*
X138191500Y-100641360D01*
X138191948Y-100645096D01*
X138191949Y-100645101D01*
X138194834Y-100669128D01*
X138202003Y-100728821D01*
X138204966Y-100736335D01*
X138204967Y-100736338D01*
X138252480Y-100856821D01*
X138256889Y-100868000D01*
X138262093Y-100874862D01*
X138262095Y-100874866D01*
X138342083Y-100980346D01*
X138347289Y-100987211D01*
X138363235Y-100999303D01*
X138448176Y-101063716D01*
X138466500Y-101077611D01*
X138474517Y-101080772D01*
X138474518Y-101080773D01*
X138491259Y-101087375D01*
X138544151Y-101126795D01*
X138723619Y-101355454D01*
X138744872Y-101396008D01*
X138750230Y-101441482D01*
X138742248Y-101563306D01*
X138742248Y-101563320D01*
X138741968Y-101567595D01*
X138742270Y-101571867D01*
X138742282Y-101576173D01*
X138741366Y-101591662D01*
X138741273Y-101592426D01*
X138741273Y-101592437D01*
X138740355Y-101600000D01*
X138741273Y-101607560D01*
X138741273Y-101607566D01*
X138759941Y-101761308D01*
X138759942Y-101761312D01*
X138760860Y-101768872D01*
X138763560Y-101775991D01*
X138763561Y-101775994D01*
X138778677Y-101815854D01*
X138781080Y-101824192D01*
X138781438Y-101824083D01*
X138798041Y-101878412D01*
X138798045Y-101878423D01*
X138798945Y-101881368D01*
X138800131Y-101884215D01*
X138800132Y-101884217D01*
X138835354Y-101968751D01*
X138845042Y-102018181D01*
X138834594Y-102067457D01*
X138780671Y-102191462D01*
X138780667Y-102191472D01*
X138778876Y-102195592D01*
X138773906Y-102213753D01*
X138769662Y-102229260D01*
X138765347Y-102242219D01*
X138750087Y-102280918D01*
X138750085Y-102280922D01*
X138747123Y-102288436D01*
X138746160Y-102296451D01*
X138746159Y-102296457D01*
X138738826Y-102357528D01*
X138736500Y-102376898D01*
X138736500Y-103363102D01*
X138747123Y-103451564D01*
X138750086Y-103459078D01*
X138750087Y-103459081D01*
X138784496Y-103546334D01*
X138802639Y-103592342D01*
X138807849Y-103599212D01*
X138875067Y-103687853D01*
X138894078Y-103712922D01*
X139014658Y-103804361D01*
X139155436Y-103859877D01*
X139243898Y-103870500D01*
X139851335Y-103870500D01*
X139855102Y-103870500D01*
X139943564Y-103859877D01*
X140084342Y-103804361D01*
X140204922Y-103712922D01*
X140296361Y-103592342D01*
X140344785Y-103469545D01*
X140379192Y-103420803D01*
X140432168Y-103393354D01*
X140491832Y-103393354D01*
X140544808Y-103420803D01*
X140579214Y-103469545D01*
X140627639Y-103592342D01*
X140632849Y-103599212D01*
X140700067Y-103687853D01*
X140719078Y-103712922D01*
X140839658Y-103804361D01*
X140980436Y-103859877D01*
X141068898Y-103870500D01*
X141676335Y-103870500D01*
X141680102Y-103870500D01*
X141768564Y-103859877D01*
X141909342Y-103804361D01*
X142029922Y-103712922D01*
X142093448Y-103629150D01*
X142137487Y-103592591D01*
X142283183Y-103519733D01*
X142322054Y-103507648D01*
X142362749Y-103508587D01*
X142564088Y-103546339D01*
X142571003Y-103547838D01*
X142662944Y-103570500D01*
X142747479Y-103570500D01*
X142752415Y-103570597D01*
X142766802Y-103571161D01*
X142771383Y-103570668D01*
X142774248Y-103570572D01*
X142778514Y-103570500D01*
X142811853Y-103570500D01*
X142877038Y-103588672D01*
X142923421Y-103637945D01*
X142937623Y-103704108D01*
X142915549Y-103768076D01*
X142889513Y-103805794D01*
X142889509Y-103805800D01*
X142885182Y-103812070D01*
X142882480Y-103819193D01*
X142882477Y-103819200D01*
X142827563Y-103963999D01*
X142827561Y-103964003D01*
X142824860Y-103971128D01*
X142823942Y-103978687D01*
X142823940Y-103978696D01*
X142805454Y-104130949D01*
X142804355Y-104140000D01*
X142805274Y-104147569D01*
X142823940Y-104301303D01*
X142823941Y-104301310D01*
X142824860Y-104308872D01*
X142827562Y-104315998D01*
X142827563Y-104316000D01*
X142882477Y-104460799D01*
X142882479Y-104460803D01*
X142885182Y-104467930D01*
X142981817Y-104607929D01*
X143030923Y-104651433D01*
X143103439Y-104715677D01*
X143109148Y-104720734D01*
X143259775Y-104799790D01*
X143424944Y-104840500D01*
X143587438Y-104840500D01*
X143595056Y-104840500D01*
X143760225Y-104799790D01*
X143910852Y-104720734D01*
X143934446Y-104699831D01*
X143987846Y-104671804D01*
X144048154Y-104671804D01*
X144101553Y-104699831D01*
X144125148Y-104720734D01*
X144275775Y-104799790D01*
X144440944Y-104840500D01*
X144603438Y-104840500D01*
X144611056Y-104840500D01*
X144776225Y-104799790D01*
X144926852Y-104720734D01*
X144950446Y-104699831D01*
X145003846Y-104671804D01*
X145064154Y-104671804D01*
X145117553Y-104699831D01*
X145141148Y-104720734D01*
X145291775Y-104799790D01*
X145456944Y-104840500D01*
X145619438Y-104840500D01*
X145627056Y-104840500D01*
X145792225Y-104799790D01*
X145942852Y-104720734D01*
X146070183Y-104607929D01*
X146166818Y-104467930D01*
X146227140Y-104308872D01*
X146247645Y-104140000D01*
X146246546Y-104130949D01*
X146228059Y-103978696D01*
X146228058Y-103978695D01*
X146227140Y-103971128D01*
X146166818Y-103812070D01*
X146070183Y-103672071D01*
X145980466Y-103592589D01*
X145948555Y-103564318D01*
X145948552Y-103564316D01*
X145942852Y-103559266D01*
X145936106Y-103555725D01*
X145936104Y-103555724D01*
X145844503Y-103507648D01*
X145792225Y-103480210D01*
X145784827Y-103478386D01*
X145784823Y-103478385D01*
X145634451Y-103441322D01*
X145634445Y-103441321D01*
X145627056Y-103439500D01*
X145456944Y-103439500D01*
X145449555Y-103441321D01*
X145449548Y-103441322D01*
X145299176Y-103478385D01*
X145299169Y-103478387D01*
X145291775Y-103480210D01*
X145285025Y-103483752D01*
X145285024Y-103483753D01*
X145147895Y-103555724D01*
X145147889Y-103555727D01*
X145141148Y-103559266D01*
X145135450Y-103564313D01*
X145135444Y-103564318D01*
X145117553Y-103580169D01*
X145064153Y-103608195D01*
X145003847Y-103608195D01*
X144950447Y-103580169D01*
X144932555Y-103564318D01*
X144932553Y-103564316D01*
X144926852Y-103559266D01*
X144920106Y-103555725D01*
X144920104Y-103555724D01*
X144828503Y-103507648D01*
X144776225Y-103480210D01*
X144768827Y-103478386D01*
X144768823Y-103478385D01*
X144618451Y-103441322D01*
X144618445Y-103441321D01*
X144611056Y-103439500D01*
X144440944Y-103439500D01*
X144433555Y-103441321D01*
X144433548Y-103441322D01*
X144283176Y-103478385D01*
X144283169Y-103478387D01*
X144275775Y-103480210D01*
X144269025Y-103483752D01*
X144269024Y-103483753D01*
X144131895Y-103555724D01*
X144131889Y-103555727D01*
X144125148Y-103559266D01*
X144119450Y-103564313D01*
X144119444Y-103564318D01*
X144101553Y-103580169D01*
X144048153Y-103608195D01*
X143987847Y-103608195D01*
X143934447Y-103580169D01*
X143916555Y-103564318D01*
X143916553Y-103564316D01*
X143910852Y-103559266D01*
X143904106Y-103555725D01*
X143904104Y-103555724D01*
X143812503Y-103507648D01*
X143760225Y-103480210D01*
X143752827Y-103478386D01*
X143752823Y-103478385D01*
X143602451Y-103441322D01*
X143602445Y-103441321D01*
X143595056Y-103439500D01*
X143446147Y-103439500D01*
X143380962Y-103421328D01*
X143334579Y-103372055D01*
X143320377Y-103305892D01*
X143342451Y-103241924D01*
X143345156Y-103238004D01*
X143372818Y-103197930D01*
X143433140Y-103038872D01*
X143453645Y-102870000D01*
X143449393Y-102834983D01*
X143434059Y-102708696D01*
X143434058Y-102708695D01*
X143433140Y-102701128D01*
X143372818Y-102542070D01*
X143276183Y-102402071D01*
X143230952Y-102362000D01*
X144328355Y-102362000D01*
X144329274Y-102369569D01*
X144347940Y-102523303D01*
X144347941Y-102523310D01*
X144348860Y-102530872D01*
X144351562Y-102537998D01*
X144351563Y-102538000D01*
X144406477Y-102682799D01*
X144406479Y-102682803D01*
X144409182Y-102689930D01*
X144505817Y-102829929D01*
X144511522Y-102834983D01*
X144626448Y-102936799D01*
X144633148Y-102942734D01*
X144783775Y-103021790D01*
X144948944Y-103062500D01*
X145111438Y-103062500D01*
X145119056Y-103062500D01*
X145284225Y-103021790D01*
X145434852Y-102942734D01*
X145562183Y-102829929D01*
X145658818Y-102689930D01*
X145719140Y-102530872D01*
X145739645Y-102362000D01*
X145734448Y-102319196D01*
X145720059Y-102200696D01*
X145720058Y-102200695D01*
X145719140Y-102193128D01*
X145658818Y-102034070D01*
X145562183Y-101894071D01*
X145483183Y-101824083D01*
X145440555Y-101786318D01*
X145440552Y-101786316D01*
X145434852Y-101781266D01*
X145428106Y-101777725D01*
X145428104Y-101777724D01*
X145302053Y-101711567D01*
X145252780Y-101665184D01*
X145234609Y-101600000D01*
X145252780Y-101534816D01*
X145302053Y-101488433D01*
X145314093Y-101482114D01*
X145434852Y-101418734D01*
X145562183Y-101305929D01*
X145658818Y-101165930D01*
X145719140Y-101006872D01*
X145739645Y-100838000D01*
X145730174Y-100760000D01*
X145720059Y-100676696D01*
X145720058Y-100676695D01*
X145719140Y-100669128D01*
X145658818Y-100510070D01*
X145562183Y-100370071D01*
X145503287Y-100317894D01*
X145440555Y-100262318D01*
X145440552Y-100262316D01*
X145434852Y-100257266D01*
X145428106Y-100253725D01*
X145428104Y-100253724D01*
X145302053Y-100187567D01*
X145252780Y-100141184D01*
X145234609Y-100076000D01*
X145252780Y-100010816D01*
X145302053Y-99964433D01*
X145434852Y-99894734D01*
X145562183Y-99781929D01*
X145658818Y-99641930D01*
X145719140Y-99482872D01*
X145739645Y-99314000D01*
X145729297Y-99228777D01*
X145720059Y-99152696D01*
X145720058Y-99152695D01*
X145719140Y-99145128D01*
X145658818Y-98986070D01*
X145562183Y-98846071D01*
X145517895Y-98806835D01*
X145440555Y-98738318D01*
X145440552Y-98738316D01*
X145434852Y-98733266D01*
X145428106Y-98729725D01*
X145428104Y-98729724D01*
X145302053Y-98663566D01*
X145252780Y-98617183D01*
X145234609Y-98551998D01*
X145252781Y-98486814D01*
X145302050Y-98440434D01*
X145434852Y-98370734D01*
X145562183Y-98257929D01*
X145658818Y-98117930D01*
X145719140Y-97958872D01*
X145739645Y-97790000D01*
X145729381Y-97705466D01*
X145720059Y-97628696D01*
X145720058Y-97628695D01*
X145719140Y-97621128D01*
X145658818Y-97462070D01*
X145562183Y-97322071D01*
X145542194Y-97304362D01*
X145440555Y-97214318D01*
X145440552Y-97214316D01*
X145434852Y-97209266D01*
X145428106Y-97205725D01*
X145428104Y-97205724D01*
X145354103Y-97166885D01*
X145284225Y-97130210D01*
X145276827Y-97128386D01*
X145276823Y-97128385D01*
X145126451Y-97091322D01*
X145126445Y-97091321D01*
X145119056Y-97089500D01*
X144948944Y-97089500D01*
X144941555Y-97091321D01*
X144941548Y-97091322D01*
X144791176Y-97128385D01*
X144791169Y-97128387D01*
X144783775Y-97130210D01*
X144777025Y-97133752D01*
X144777024Y-97133753D01*
X144639895Y-97205724D01*
X144639889Y-97205727D01*
X144633148Y-97209266D01*
X144627450Y-97214313D01*
X144627444Y-97214318D01*
X144511522Y-97317016D01*
X144511518Y-97317019D01*
X144505817Y-97322071D01*
X144501487Y-97328343D01*
X144501486Y-97328345D01*
X144413513Y-97455794D01*
X144413509Y-97455800D01*
X144409182Y-97462070D01*
X144406480Y-97469193D01*
X144406477Y-97469200D01*
X144351563Y-97613999D01*
X144351561Y-97614003D01*
X144348860Y-97621128D01*
X144347942Y-97628687D01*
X144347940Y-97628696D01*
X144331591Y-97763349D01*
X144328355Y-97790000D01*
X144329274Y-97797569D01*
X144347940Y-97951303D01*
X144347941Y-97951310D01*
X144348860Y-97958872D01*
X144351562Y-97965998D01*
X144351563Y-97966000D01*
X144406477Y-98110799D01*
X144406479Y-98110803D01*
X144409182Y-98117930D01*
X144505817Y-98257929D01*
X144511522Y-98262983D01*
X144626448Y-98364799D01*
X144633148Y-98370734D01*
X144639896Y-98374275D01*
X144639898Y-98374277D01*
X144765945Y-98440432D01*
X144815218Y-98486814D01*
X144833390Y-98551998D01*
X144815219Y-98617183D01*
X144765947Y-98663566D01*
X144639892Y-98729726D01*
X144639889Y-98729727D01*
X144633148Y-98733266D01*
X144627450Y-98738313D01*
X144627444Y-98738318D01*
X144511522Y-98841016D01*
X144511518Y-98841019D01*
X144505817Y-98846071D01*
X144501487Y-98852343D01*
X144501486Y-98852345D01*
X144413513Y-98979794D01*
X144413509Y-98979800D01*
X144409182Y-98986070D01*
X144406480Y-98993193D01*
X144406477Y-98993200D01*
X144351563Y-99137999D01*
X144351561Y-99138003D01*
X144348860Y-99145128D01*
X144347942Y-99152687D01*
X144347940Y-99152696D01*
X144331774Y-99285842D01*
X144328355Y-99314000D01*
X144329274Y-99321569D01*
X144347940Y-99475303D01*
X144347941Y-99475310D01*
X144348860Y-99482872D01*
X144351562Y-99489998D01*
X144351563Y-99490000D01*
X144406477Y-99634799D01*
X144406479Y-99634803D01*
X144409182Y-99641930D01*
X144505817Y-99781929D01*
X144633148Y-99894734D01*
X144639895Y-99898275D01*
X144765946Y-99964433D01*
X144815219Y-100010816D01*
X144833390Y-100076000D01*
X144815219Y-100141184D01*
X144765946Y-100187567D01*
X144639895Y-100253724D01*
X144639889Y-100253727D01*
X144633148Y-100257266D01*
X144627450Y-100262313D01*
X144627444Y-100262318D01*
X144511522Y-100365016D01*
X144511518Y-100365019D01*
X144505817Y-100370071D01*
X144501487Y-100376343D01*
X144501486Y-100376345D01*
X144413513Y-100503794D01*
X144413509Y-100503800D01*
X144409182Y-100510070D01*
X144406480Y-100517193D01*
X144406477Y-100517200D01*
X144351563Y-100661999D01*
X144351561Y-100662003D01*
X144348860Y-100669128D01*
X144347942Y-100676687D01*
X144347940Y-100676696D01*
X144337826Y-100760000D01*
X144328355Y-100838000D01*
X144329274Y-100845569D01*
X144347940Y-100999303D01*
X144347941Y-100999310D01*
X144348860Y-101006872D01*
X144351562Y-101013998D01*
X144351563Y-101014000D01*
X144406477Y-101158799D01*
X144406479Y-101158803D01*
X144409182Y-101165930D01*
X144413511Y-101172202D01*
X144413513Y-101172205D01*
X144423260Y-101186326D01*
X144505817Y-101305929D01*
X144511522Y-101310983D01*
X144624624Y-101411183D01*
X144633148Y-101418734D01*
X144639895Y-101422275D01*
X144765946Y-101488433D01*
X144815219Y-101534816D01*
X144833390Y-101600000D01*
X144815219Y-101665184D01*
X144765946Y-101711567D01*
X144639895Y-101777724D01*
X144639889Y-101777727D01*
X144633148Y-101781266D01*
X144627450Y-101786313D01*
X144627444Y-101786318D01*
X144511522Y-101889016D01*
X144511518Y-101889019D01*
X144505817Y-101894071D01*
X144501487Y-101900343D01*
X144501486Y-101900345D01*
X144413513Y-102027794D01*
X144413509Y-102027800D01*
X144409182Y-102034070D01*
X144406480Y-102041193D01*
X144406477Y-102041200D01*
X144351563Y-102185999D01*
X144351561Y-102186003D01*
X144348860Y-102193128D01*
X144347942Y-102200687D01*
X144347940Y-102200696D01*
X144333552Y-102319196D01*
X144328355Y-102362000D01*
X143230952Y-102362000D01*
X143154555Y-102294318D01*
X143154552Y-102294316D01*
X143148852Y-102289266D01*
X143142106Y-102285725D01*
X143142104Y-102285724D01*
X143053502Y-102239222D01*
X142998225Y-102210210D01*
X142990827Y-102208386D01*
X142990823Y-102208385D01*
X142840451Y-102171322D01*
X142840445Y-102171321D01*
X142833056Y-102169500D01*
X142825438Y-102169500D01*
X142778525Y-102169500D01*
X142774253Y-102169428D01*
X142771395Y-102169330D01*
X142766807Y-102168838D01*
X142762204Y-102169018D01*
X142762193Y-102169018D01*
X142752394Y-102169403D01*
X142747458Y-102169500D01*
X142662944Y-102169500D01*
X142655556Y-102171320D01*
X142655547Y-102171322D01*
X142571013Y-102192158D01*
X142564080Y-102193661D01*
X142362752Y-102231410D01*
X142322052Y-102232350D01*
X142283177Y-102220263D01*
X142259424Y-102208385D01*
X142184468Y-102170901D01*
X142143833Y-102138635D01*
X142119645Y-102092729D01*
X142112445Y-102067457D01*
X141983320Y-101614203D01*
X141978500Y-101579682D01*
X141978500Y-101482114D01*
X141996233Y-101417661D01*
X141998603Y-101413681D01*
X142185543Y-101099659D01*
X142217676Y-101063716D01*
X142320922Y-100985422D01*
X142412361Y-100864842D01*
X142467877Y-100724064D01*
X142478500Y-100635602D01*
X142478500Y-100024398D01*
X142467877Y-99935936D01*
X142412361Y-99795158D01*
X142320922Y-99674578D01*
X142200342Y-99583139D01*
X142114545Y-99549304D01*
X142069087Y-99518519D01*
X142049030Y-99497241D01*
X142019220Y-99444197D01*
X142017745Y-99383364D01*
X142044952Y-99328934D01*
X142094493Y-99293602D01*
X142200342Y-99251861D01*
X142320922Y-99160422D01*
X142412361Y-99039842D01*
X142467877Y-98899064D01*
X142478500Y-98810602D01*
X142478500Y-98199398D01*
X142467877Y-98110936D01*
X142412361Y-97970158D01*
X142320922Y-97849578D01*
X142200342Y-97758139D01*
X142146190Y-97736784D01*
X142067081Y-97705587D01*
X142067078Y-97705586D01*
X142059564Y-97702623D01*
X142051541Y-97701659D01*
X142051539Y-97701659D01*
X141974843Y-97692449D01*
X141974839Y-97692448D01*
X141971102Y-97692000D01*
X140984898Y-97692000D01*
X140981161Y-97692448D01*
X140981156Y-97692449D01*
X140904457Y-97701659D01*
X140904451Y-97701660D01*
X140896436Y-97702623D01*
X140888927Y-97705583D01*
X140888915Y-97705587D01*
X140849383Y-97721176D01*
X140836888Y-97725363D01*
X140820908Y-97729802D01*
X140802339Y-97734960D01*
X140798196Y-97736783D01*
X140798194Y-97736784D01*
X140378621Y-97921436D01*
X140326785Y-97932105D01*
X140275140Y-97920547D01*
X139880228Y-97738591D01*
X139880223Y-97738589D01*
X139876162Y-97736718D01*
X139871873Y-97735439D01*
X139871866Y-97735437D01*
X139835990Y-97724744D01*
X139825759Y-97721210D01*
X139825673Y-97721176D01*
X139778321Y-97702503D01*
X139770307Y-97701540D01*
X139770301Y-97701539D01*
X139694601Y-97692449D01*
X139694596Y-97692448D01*
X139690860Y-97692000D01*
X138693140Y-97692000D01*
X138689404Y-97692448D01*
X138689398Y-97692449D01*
X138613703Y-97701539D01*
X138613699Y-97701539D01*
X138605679Y-97702503D01*
X138598166Y-97705465D01*
X138598161Y-97705467D01*
X138474516Y-97754227D01*
X138474510Y-97754229D01*
X138466500Y-97757389D01*
X138459640Y-97762591D01*
X138459633Y-97762595D01*
X138354153Y-97842583D01*
X138354149Y-97842586D01*
X138347289Y-97847789D01*
X138342086Y-97854649D01*
X138342083Y-97854653D01*
X138262095Y-97960133D01*
X138262091Y-97960140D01*
X138256889Y-97967000D01*
X138253729Y-97975010D01*
X138253727Y-97975016D01*
X138204967Y-98098661D01*
X138204965Y-98098666D01*
X138202003Y-98106179D01*
X138201039Y-98114199D01*
X138201039Y-98114203D01*
X138200468Y-98118960D01*
X138191500Y-98193640D01*
X138191500Y-98197407D01*
X138191500Y-98741000D01*
X138174619Y-98804000D01*
X138128500Y-98850119D01*
X138065500Y-98867000D01*
X138032500Y-98867000D01*
X137969500Y-98850119D01*
X137923381Y-98804000D01*
X137906500Y-98741000D01*
X137906500Y-98203165D01*
X137906500Y-98199398D01*
X137895877Y-98110936D01*
X137840361Y-97970158D01*
X137748922Y-97849578D01*
X137628342Y-97758139D01*
X137574190Y-97736784D01*
X137495081Y-97705587D01*
X137495078Y-97705586D01*
X137487564Y-97702623D01*
X137479541Y-97701659D01*
X137479539Y-97701659D01*
X137402843Y-97692449D01*
X137402839Y-97692448D01*
X137399102Y-97692000D01*
X136412898Y-97692000D01*
X136409161Y-97692448D01*
X136409156Y-97692449D01*
X136332455Y-97701659D01*
X136332447Y-97701660D01*
X136324436Y-97702623D01*
X136283251Y-97718863D01*
X136267368Y-97723940D01*
X136243733Y-97729802D01*
X136243720Y-97729806D01*
X136239451Y-97730865D01*
X136235382Y-97732502D01*
X136235367Y-97732508D01*
X135802650Y-97906724D01*
X135754571Y-97915837D01*
X135706646Y-97905946D01*
X135298848Y-97734032D01*
X135298836Y-97734027D01*
X135294844Y-97732345D01*
X135290646Y-97731224D01*
X135290642Y-97731223D01*
X135262069Y-97723596D01*
X135248341Y-97719074D01*
X135247803Y-97718862D01*
X135230403Y-97712000D01*
X135213835Y-97705466D01*
X135213833Y-97705465D01*
X135206321Y-97702503D01*
X135198302Y-97701540D01*
X135198298Y-97701539D01*
X135122601Y-97692449D01*
X135122596Y-97692448D01*
X135118860Y-97692000D01*
X134121140Y-97692000D01*
X134117404Y-97692448D01*
X134117398Y-97692449D01*
X134041703Y-97701539D01*
X134041699Y-97701539D01*
X134033679Y-97702503D01*
X134026166Y-97705465D01*
X134026161Y-97705467D01*
X133902516Y-97754227D01*
X133902510Y-97754229D01*
X133894500Y-97757389D01*
X133887640Y-97762591D01*
X133887633Y-97762595D01*
X133782153Y-97842583D01*
X133782149Y-97842586D01*
X133775289Y-97847789D01*
X133770086Y-97854649D01*
X133770083Y-97854653D01*
X133690095Y-97960133D01*
X133690091Y-97960140D01*
X133684889Y-97967000D01*
X133681729Y-97975010D01*
X133681727Y-97975016D01*
X133632967Y-98098661D01*
X133632965Y-98098666D01*
X133630003Y-98106179D01*
X133629039Y-98114199D01*
X133629039Y-98114203D01*
X133628468Y-98118960D01*
X133619500Y-98193640D01*
X133619500Y-98766360D01*
X129115999Y-98766360D01*
X129115999Y-98598194D01*
X129115579Y-98590943D01*
X129114182Y-98578892D01*
X129109259Y-98560799D01*
X129072504Y-98477555D01*
X129059528Y-98458612D01*
X128996736Y-98395820D01*
X128977793Y-98382844D01*
X128894545Y-98346087D01*
X128876460Y-98341166D01*
X128864419Y-98339769D01*
X128857146Y-98339349D01*
X128182590Y-98339349D01*
X128169506Y-98342855D01*
X128166000Y-98355939D01*
X128166000Y-99272759D01*
X127866000Y-99272759D01*
X127866000Y-98355940D01*
X127862493Y-98342856D01*
X127849410Y-98339350D01*
X127174845Y-98339350D01*
X127167594Y-98339769D01*
X127155543Y-98341166D01*
X127137450Y-98346089D01*
X127054206Y-98382844D01*
X127035263Y-98395820D01*
X126972471Y-98458612D01*
X126959495Y-98477555D01*
X126922738Y-98560803D01*
X126917817Y-98578888D01*
X126916420Y-98590929D01*
X126916000Y-98598203D01*
X126916000Y-99272759D01*
X123890637Y-99272759D01*
X123885297Y-99228777D01*
X123876059Y-99152696D01*
X123876058Y-99152695D01*
X123875140Y-99145128D01*
X123814818Y-98986070D01*
X123718183Y-98846071D01*
X123636053Y-98773311D01*
X123598583Y-98714056D01*
X123598583Y-98643944D01*
X123636053Y-98584688D01*
X123718183Y-98511929D01*
X123814818Y-98371930D01*
X123875140Y-98212872D01*
X123895645Y-98044000D01*
X123891393Y-98008983D01*
X123876059Y-97882696D01*
X123876058Y-97882695D01*
X123875140Y-97875128D01*
X123814818Y-97716070D01*
X123718183Y-97576071D01*
X123672952Y-97536000D01*
X131374355Y-97536000D01*
X131375274Y-97543569D01*
X131393940Y-97697303D01*
X131393941Y-97697310D01*
X131394860Y-97704872D01*
X131397562Y-97711998D01*
X131397563Y-97712000D01*
X131452477Y-97856799D01*
X131452479Y-97856803D01*
X131455182Y-97863930D01*
X131459511Y-97870202D01*
X131459513Y-97870205D01*
X131502240Y-97932105D01*
X131551817Y-98003929D01*
X131557522Y-98008983D01*
X131672448Y-98110799D01*
X131679148Y-98116734D01*
X131829775Y-98195790D01*
X131994944Y-98236500D01*
X132157438Y-98236500D01*
X132165056Y-98236500D01*
X132330225Y-98195790D01*
X132480852Y-98116734D01*
X132608183Y-98003929D01*
X132704818Y-97863930D01*
X132765140Y-97704872D01*
X132785645Y-97536000D01*
X132765140Y-97367128D01*
X132704818Y-97208070D01*
X132608183Y-97068071D01*
X132480852Y-96955266D01*
X132474106Y-96951725D01*
X132474104Y-96951724D01*
X132400103Y-96912885D01*
X132330225Y-96876210D01*
X132322827Y-96874386D01*
X132322823Y-96874385D01*
X132172451Y-96837322D01*
X132172445Y-96837321D01*
X132165056Y-96835500D01*
X131994944Y-96835500D01*
X131987555Y-96837321D01*
X131987548Y-96837322D01*
X131837176Y-96874385D01*
X131837169Y-96874387D01*
X131829775Y-96876210D01*
X131823025Y-96879752D01*
X131823024Y-96879753D01*
X131685895Y-96951724D01*
X131685889Y-96951727D01*
X131679148Y-96955266D01*
X131673450Y-96960313D01*
X131673444Y-96960318D01*
X131557522Y-97063016D01*
X131557518Y-97063019D01*
X131551817Y-97068071D01*
X131547487Y-97074343D01*
X131547486Y-97074345D01*
X131459513Y-97201794D01*
X131459509Y-97201800D01*
X131455182Y-97208070D01*
X131452480Y-97215193D01*
X131452477Y-97215200D01*
X131397563Y-97359999D01*
X131397561Y-97360003D01*
X131394860Y-97367128D01*
X131393942Y-97374687D01*
X131393940Y-97374696D01*
X131382573Y-97468318D01*
X131374355Y-97536000D01*
X123672952Y-97536000D01*
X123596555Y-97468318D01*
X123596552Y-97468316D01*
X123590852Y-97463266D01*
X123584106Y-97459725D01*
X123584104Y-97459724D01*
X123510103Y-97420885D01*
X123440225Y-97384210D01*
X123432827Y-97382386D01*
X123432823Y-97382385D01*
X123282451Y-97345322D01*
X123282445Y-97345321D01*
X123275056Y-97343500D01*
X123104944Y-97343500D01*
X123097555Y-97345321D01*
X123097548Y-97345322D01*
X122947176Y-97382385D01*
X122947169Y-97382387D01*
X122939775Y-97384210D01*
X122933025Y-97387752D01*
X122933024Y-97387753D01*
X122795895Y-97459724D01*
X122795889Y-97459727D01*
X122789148Y-97463266D01*
X122783450Y-97468313D01*
X122783444Y-97468318D01*
X122667522Y-97571016D01*
X122667518Y-97571019D01*
X122661817Y-97576071D01*
X122657487Y-97582343D01*
X122657486Y-97582345D01*
X122569513Y-97709794D01*
X122569509Y-97709800D01*
X122565182Y-97716070D01*
X122562480Y-97723193D01*
X122562477Y-97723200D01*
X122507563Y-97867999D01*
X122507561Y-97868003D01*
X122504860Y-97875128D01*
X122503942Y-97882687D01*
X122503940Y-97882696D01*
X122488607Y-98008983D01*
X122484355Y-98044000D01*
X122485274Y-98051569D01*
X122503940Y-98205303D01*
X122503941Y-98205310D01*
X122504860Y-98212872D01*
X122507562Y-98219998D01*
X122507563Y-98220000D01*
X122562477Y-98364799D01*
X122562479Y-98364803D01*
X122565182Y-98371930D01*
X122661817Y-98511929D01*
X122667520Y-98516982D01*
X122667526Y-98516988D01*
X122743944Y-98584688D01*
X122781416Y-98643945D01*
X122781416Y-98714055D01*
X122743944Y-98773312D01*
X122667526Y-98841011D01*
X122667516Y-98841021D01*
X122661817Y-98846071D01*
X122657487Y-98852343D01*
X122657486Y-98852345D01*
X122569513Y-98979794D01*
X122569509Y-98979800D01*
X122565182Y-98986070D01*
X122562480Y-98993193D01*
X122562477Y-98993200D01*
X122507563Y-99137999D01*
X122507561Y-99138003D01*
X122504860Y-99145128D01*
X122503942Y-99152687D01*
X122503940Y-99152696D01*
X122487774Y-99285842D01*
X122484355Y-99314000D01*
X122485274Y-99321569D01*
X122503940Y-99475303D01*
X122503941Y-99475310D01*
X122504860Y-99482872D01*
X122507562Y-99489998D01*
X122507563Y-99490000D01*
X122562477Y-99634799D01*
X122562479Y-99634803D01*
X122565182Y-99641930D01*
X122661817Y-99781929D01*
X122743945Y-99854688D01*
X122781416Y-99913943D01*
X122781417Y-99984054D01*
X122743945Y-100043311D01*
X122667523Y-100111015D01*
X122667519Y-100111019D01*
X122661817Y-100116071D01*
X122657487Y-100122343D01*
X122657486Y-100122345D01*
X122569513Y-100249794D01*
X122569509Y-100249800D01*
X122565182Y-100256070D01*
X122562480Y-100263193D01*
X122562477Y-100263200D01*
X122507563Y-100407999D01*
X122507561Y-100408003D01*
X122504860Y-100415128D01*
X122503942Y-100422687D01*
X122503940Y-100422696D01*
X122485274Y-100576431D01*
X122484355Y-100584000D01*
X122485274Y-100591569D01*
X122503940Y-100745303D01*
X122503941Y-100745310D01*
X122504860Y-100752872D01*
X122507562Y-100759998D01*
X122507563Y-100760000D01*
X122562477Y-100904799D01*
X122562479Y-100904803D01*
X122565182Y-100911930D01*
X122661817Y-101051929D01*
X122710923Y-101095433D01*
X122782448Y-101158799D01*
X122789148Y-101164734D01*
X122795896Y-101168275D01*
X122795898Y-101168277D01*
X122921945Y-101234432D01*
X122971218Y-101280814D01*
X122989390Y-101345998D01*
X122971219Y-101411183D01*
X122921947Y-101457566D01*
X122795892Y-101523726D01*
X122795889Y-101523727D01*
X122789148Y-101527266D01*
X122783450Y-101532313D01*
X122783444Y-101532318D01*
X122667522Y-101635016D01*
X122667518Y-101635019D01*
X122661817Y-101640071D01*
X122657487Y-101646343D01*
X122657486Y-101646345D01*
X122569513Y-101773794D01*
X122569509Y-101773800D01*
X122565182Y-101780070D01*
X122562480Y-101787193D01*
X122562477Y-101787200D01*
X122507563Y-101931999D01*
X122507561Y-101932003D01*
X122504860Y-101939128D01*
X122503942Y-101946687D01*
X122503940Y-101946696D01*
X122488607Y-102072983D01*
X122484355Y-102108000D01*
X122485274Y-102115569D01*
X122503940Y-102269303D01*
X122503941Y-102269310D01*
X122504860Y-102276872D01*
X122507562Y-102283998D01*
X122507563Y-102284000D01*
X122562477Y-102428799D01*
X122562479Y-102428803D01*
X122565182Y-102435930D01*
X122640071Y-102544425D01*
X122659828Y-102590795D01*
X122659828Y-102641202D01*
X122640070Y-102687575D01*
X122569514Y-102789793D01*
X122569511Y-102789797D01*
X122565182Y-102796070D01*
X122562480Y-102803193D01*
X122562477Y-102803200D01*
X122507563Y-102947999D01*
X122507561Y-102948003D01*
X122504860Y-102955128D01*
X122503942Y-102962687D01*
X122503940Y-102962696D01*
X122488607Y-103088983D01*
X122484355Y-103124000D01*
X121920500Y-103124000D01*
X121920500Y-96646500D01*
X121937381Y-96583500D01*
X121983500Y-96537381D01*
X122046500Y-96520500D01*
X147193500Y-96520500D01*
X147256500Y-96537381D01*
G37*
%TD.AperFunction*%
%TD*%
%TA.AperFunction,Conductor*%
%TO.N,GNDA*%
G36*
X129813821Y-115027276D02*
G01*
X129979888Y-115193343D01*
X129982980Y-115198838D01*
X129982772Y-115205139D01*
X129734676Y-115990808D01*
X129730272Y-115996839D01*
X129723117Y-115998978D01*
X129038832Y-115975466D01*
X129032560Y-115973383D01*
X129028417Y-115968232D01*
X128824051Y-115472516D01*
X128824004Y-115463714D01*
X128830105Y-115457370D01*
X129800789Y-115024861D01*
X129807679Y-115024045D01*
X129813821Y-115027276D01*
G37*
%TD.AperFunction*%
%TD*%
%TA.AperFunction,Conductor*%
%TO.N,GNDA*%
G36*
X132181893Y-112413366D02*
G01*
X132185908Y-112418396D01*
X132332833Y-112770799D01*
X132333734Y-112775293D01*
X132332839Y-112779789D01*
X132185196Y-113135273D01*
X132179126Y-113141484D01*
X132170447Y-113141800D01*
X131664351Y-112960610D01*
X131660022Y-112957868D01*
X131496197Y-112794043D01*
X131492930Y-112787695D01*
X131493959Y-112780631D01*
X131498899Y-112775482D01*
X132169543Y-112412607D01*
X132175826Y-112411220D01*
X132181893Y-112413366D01*
G37*
%TD.AperFunction*%
%TD*%
%TA.AperFunction,Conductor*%
%TO.N,U1-OUT2*%
G36*
X135323408Y-112312784D02*
G01*
X135743888Y-112723474D01*
X135746988Y-112728721D01*
X135747030Y-112734814D01*
X135744001Y-112740103D01*
X135472941Y-113012121D01*
X135469126Y-113014673D01*
X135464624Y-113015562D01*
X135082036Y-113014606D01*
X135075959Y-113012886D01*
X135071661Y-113008258D01*
X135070395Y-113002072D01*
X135119220Y-112320318D01*
X135122919Y-112312590D01*
X135130891Y-112309454D01*
X135315233Y-112309454D01*
X135323408Y-112312784D01*
G37*
%TD.AperFunction*%
%TD*%
%TA.AperFunction,Conductor*%
%TO.N,U1-OUT2*%
G36*
X139023403Y-115076481D02*
G01*
X139271704Y-115326771D01*
X139504825Y-115561760D01*
X139508219Y-115570000D01*
X139504825Y-115578240D01*
X139023404Y-116063517D01*
X139016576Y-116066883D01*
X139009122Y-116065336D01*
X138517723Y-115773399D01*
X138513531Y-115769129D01*
X138512000Y-115763342D01*
X138512000Y-115376658D01*
X138513531Y-115370871D01*
X138517723Y-115366600D01*
X139009125Y-115074662D01*
X139016576Y-115073116D01*
X139023403Y-115076481D01*
G37*
%TD.AperFunction*%
%TD*%
%TA.AperFunction,Conductor*%
%TO.N,U1-OUT2*%
G36*
X135843680Y-112871881D02*
G01*
X136111631Y-113472716D01*
X136112450Y-113479610D01*
X136109218Y-113485754D01*
X135839105Y-113755867D01*
X135831770Y-113759256D01*
X135823988Y-113757083D01*
X135197777Y-113305438D01*
X135193712Y-113300177D01*
X135193171Y-113293550D01*
X135196327Y-113287699D01*
X135467130Y-113015538D01*
X135470970Y-113012971D01*
X135828544Y-112865825D01*
X135837339Y-112865783D01*
X135843680Y-112871881D01*
G37*
%TD.AperFunction*%
%TD*%
%TA.AperFunction,Conductor*%
%TO.N,Net-(C1-Pad2)*%
G36*
X141660479Y-114347149D02*
G01*
X141664755Y-114352806D01*
X141890743Y-114993021D01*
X141891221Y-114999010D01*
X141888663Y-115004447D01*
X141420953Y-115560358D01*
X141415351Y-115564036D01*
X141408649Y-115564036D01*
X141403047Y-115560358D01*
X140935336Y-115004447D01*
X140932778Y-114999010D01*
X140933255Y-114993023D01*
X141159245Y-114352806D01*
X141163521Y-114347149D01*
X141170278Y-114345000D01*
X141653722Y-114345000D01*
X141660479Y-114347149D01*
G37*
%TD.AperFunction*%
%TD*%
%TA.AperFunction,Conductor*%
%TO.N,Net-(C1-Pad2)*%
G36*
X141383185Y-113546621D02*
G01*
X141863512Y-114078733D01*
X141866252Y-114084050D01*
X141866006Y-114090026D01*
X141664547Y-114742253D01*
X141660314Y-114748215D01*
X141653368Y-114750500D01*
X141169766Y-114750500D01*
X141163295Y-114748548D01*
X141158984Y-114743343D01*
X141158525Y-114742253D01*
X140883918Y-114090526D01*
X140883165Y-114084032D01*
X140886014Y-114078149D01*
X141365815Y-113546620D01*
X141371280Y-113543213D01*
X141377720Y-113543213D01*
X141383185Y-113546621D01*
G37*
%TD.AperFunction*%
%TD*%
%TA.AperFunction,Conductor*%
%TO.N,Net-(C3-Pad1)*%
G36*
X141623023Y-105977613D02*
G01*
X141627307Y-105983187D01*
X141865552Y-106635707D01*
X141866047Y-106641954D01*
X141863247Y-106647560D01*
X141383185Y-107179378D01*
X141377720Y-107182786D01*
X141371280Y-107182786D01*
X141365815Y-107179378D01*
X140885752Y-106647560D01*
X140882952Y-106641954D01*
X140883446Y-106635709D01*
X141121693Y-105983186D01*
X141125977Y-105977613D01*
X141132683Y-105975500D01*
X141616317Y-105975500D01*
X141623023Y-105977613D01*
G37*
%TD.AperFunction*%
%TD*%
%TA.AperFunction,Conductor*%
%TO.N,Net-(C3-Pad1)*%
G36*
X141420953Y-105165641D02*
G01*
X141888410Y-105721251D01*
X141891017Y-105726976D01*
X141890281Y-105733224D01*
X141627478Y-106373741D01*
X141623170Y-106379017D01*
X141616654Y-106381000D01*
X141133241Y-106381000D01*
X141126238Y-106378673D01*
X141122021Y-106372617D01*
X140932814Y-105732704D01*
X140932581Y-105726994D01*
X140935079Y-105721857D01*
X141403047Y-105165640D01*
X141408649Y-105161963D01*
X141415351Y-105161963D01*
X141420953Y-105165641D01*
G37*
%TD.AperFunction*%
%TD*%
%TA.AperFunction,Conductor*%
%TO.N,U1-OUT1*%
G36*
X139022910Y-104661985D02*
G01*
X139266070Y-104907092D01*
X139504825Y-105147760D01*
X139508219Y-105156000D01*
X139504825Y-105164240D01*
X139022912Y-105650013D01*
X139016526Y-105653314D01*
X139009415Y-105652258D01*
X138518509Y-105409222D01*
X138513760Y-105404908D01*
X138512000Y-105398737D01*
X138512000Y-104913263D01*
X138513760Y-104907092D01*
X138518509Y-104902778D01*
X138697373Y-104814226D01*
X139009417Y-104659740D01*
X139016526Y-104658685D01*
X139022910Y-104661985D01*
G37*
%TD.AperFunction*%
%TD*%
%TA.AperFunction,Conductor*%
%TO.N,U1-OUT1*%
G36*
X137047775Y-105944404D02*
G01*
X137387595Y-106284224D01*
X137390972Y-106291414D01*
X137388978Y-106299104D01*
X136942783Y-106951237D01*
X136937534Y-106955468D01*
X136930822Y-106956101D01*
X136924875Y-106952924D01*
X136651293Y-106680707D01*
X136651251Y-106680665D01*
X136379075Y-106407124D01*
X136375898Y-106401177D01*
X136376531Y-106394465D01*
X136380760Y-106389217D01*
X137032895Y-105943020D01*
X137040585Y-105941027D01*
X137047775Y-105944404D01*
G37*
%TD.AperFunction*%
%TD*%
%TA.AperFunction,Conductor*%
%TO.N,U1-OUT1*%
G36*
X135469126Y-107935265D02*
G01*
X135472940Y-107937816D01*
X135744001Y-108209836D01*
X135747030Y-108215124D01*
X135746988Y-108221217D01*
X135743888Y-108226464D01*
X135323408Y-108637155D01*
X135315233Y-108640485D01*
X135130891Y-108640485D01*
X135122919Y-108637349D01*
X135119221Y-108629621D01*
X135089972Y-108221217D01*
X135070395Y-107947866D01*
X135071661Y-107941680D01*
X135075959Y-107937052D01*
X135082033Y-107935332D01*
X135464624Y-107934376D01*
X135469126Y-107935265D01*
G37*
%TD.AperFunction*%
%TD*%
%TA.AperFunction,Conductor*%
%TO.N,U1-OUT1*%
G36*
X145632429Y-106000996D02*
G01*
X145637316Y-106004620D01*
X146250310Y-106779053D01*
X146252816Y-106786992D01*
X146249409Y-106794588D01*
X145903581Y-107140416D01*
X145903575Y-107140422D01*
X145903222Y-107140776D01*
X145902934Y-107141186D01*
X145902930Y-107141191D01*
X145638001Y-107518601D01*
X145632736Y-107522756D01*
X145626055Y-107523336D01*
X145620152Y-107520152D01*
X144788514Y-106688514D01*
X144785384Y-106682859D01*
X144785733Y-106676406D01*
X144789455Y-106671123D01*
X145620814Y-106002761D01*
X145626382Y-106000315D01*
X145632429Y-106000996D01*
G37*
%TD.AperFunction*%
%TD*%
%TA.AperFunction,Conductor*%
%TO.N,U1-OUT1*%
G36*
X145631799Y-110920368D02*
G01*
X145636779Y-110925961D01*
X145902783Y-111552186D01*
X145903224Y-111553224D01*
X145904021Y-111554021D01*
X146248856Y-111898856D01*
X146252280Y-111906873D01*
X146249210Y-111915033D01*
X145638156Y-112581957D01*
X145632931Y-112585248D01*
X145626758Y-112585420D01*
X145621358Y-112582427D01*
X144787767Y-111768977D01*
X144784664Y-111763725D01*
X144784626Y-111757623D01*
X144787665Y-111752334D01*
X145617738Y-110922261D01*
X145624448Y-110918940D01*
X145631799Y-110920368D01*
G37*
%TD.AperFunction*%
%TD*%
%TA.AperFunction,Conductor*%
%TO.N,GNDA*%
G36*
X132532119Y-111978437D02*
G01*
X132536289Y-111984734D01*
X132700971Y-112613079D01*
X132700138Y-112621236D01*
X132694155Y-112626844D01*
X132338502Y-112775123D01*
X132334000Y-112776024D01*
X132329498Y-112775123D01*
X131973844Y-112626844D01*
X131967861Y-112621236D01*
X131967028Y-112613081D01*
X132131710Y-111984734D01*
X132135881Y-111978437D01*
X132143029Y-111976000D01*
X132524971Y-111976000D01*
X132532119Y-111978437D01*
G37*
%TD.AperFunction*%
%TD*%
%TA.AperFunction,Conductor*%
%TO.N,GNDA*%
G36*
X139864843Y-109144033D02*
G01*
X139870087Y-109148407D01*
X140253256Y-109733902D01*
X140255163Y-109740047D01*
X140253533Y-109746270D01*
X139822185Y-110474699D01*
X139816275Y-110479675D01*
X139808553Y-110479882D01*
X139802384Y-110475230D01*
X139316848Y-109747269D01*
X139314899Y-109740154D01*
X139317592Y-109733289D01*
X139579036Y-109419594D01*
X139579730Y-109418835D01*
X139852026Y-109146539D01*
X139858051Y-109143332D01*
X139864843Y-109144033D01*
G37*
%TD.AperFunction*%
%TD*%
%TA.AperFunction,Conductor*%
%TO.N,GNDA*%
G36*
X139778778Y-108819916D02*
G01*
X139782239Y-108825345D01*
X140007537Y-109584042D01*
X140007385Y-109591177D01*
X140003117Y-109596897D01*
X139996321Y-109599073D01*
X139615778Y-109599073D01*
X139608936Y-109596864D01*
X139137291Y-109256869D01*
X139133223Y-109251604D01*
X139132683Y-109244973D01*
X139135842Y-109239122D01*
X139407342Y-108966663D01*
X139411173Y-108964105D01*
X139766575Y-108817855D01*
X139772969Y-108817139D01*
X139778778Y-108819916D01*
G37*
%TD.AperFunction*%
%TD*%
%TA.AperFunction,Conductor*%
%TO.N,GNDA*%
G36*
X128133994Y-111220270D02*
G01*
X128287262Y-111248248D01*
X128294146Y-111252264D01*
X128296861Y-111259758D01*
X128296861Y-111641736D01*
X128294718Y-111648486D01*
X128289073Y-111652763D01*
X127671518Y-111871846D01*
X127662863Y-111871514D01*
X127656807Y-111865321D01*
X127507905Y-111508171D01*
X127507005Y-111503648D01*
X127507965Y-111119992D01*
X127509913Y-111113557D01*
X127515083Y-111109257D01*
X127521763Y-111108512D01*
X128133994Y-111220270D01*
G37*
%TD.AperFunction*%
%TD*%
%TA.AperFunction,Conductor*%
%TO.N,GNDA*%
G36*
X128466848Y-110973674D02*
G01*
X129022358Y-111441047D01*
X129026036Y-111446649D01*
X129026036Y-111453351D01*
X129022358Y-111458953D01*
X128466848Y-111926325D01*
X128461029Y-111928946D01*
X128454700Y-111928123D01*
X127814084Y-111653042D01*
X127808930Y-111648728D01*
X127807000Y-111642291D01*
X127807000Y-111257709D01*
X127808930Y-111251272D01*
X127814084Y-111246958D01*
X128454701Y-110971875D01*
X128461029Y-110971053D01*
X128466848Y-110973674D01*
G37*
%TD.AperFunction*%
%TD*%
%TA.AperFunction,Conductor*%
%TO.N,GNDA*%
G36*
X129040950Y-115976730D02*
G01*
X129724360Y-116223425D01*
X129729926Y-116227655D01*
X129732085Y-116234306D01*
X129739876Y-116974877D01*
X129738350Y-116980779D01*
X129734062Y-116985112D01*
X129728177Y-116986700D01*
X129344108Y-116986700D01*
X129336794Y-116984132D01*
X128724215Y-116493460D01*
X128720002Y-116486331D01*
X128721562Y-116478200D01*
X129027015Y-115981604D01*
X129033116Y-115976692D01*
X129040950Y-115976730D01*
G37*
%TD.AperFunction*%
%TD*%
%TA.AperFunction,Conductor*%
%TO.N,GNDA*%
G36*
X129609327Y-110971937D02*
G01*
X129660785Y-110994410D01*
X130238983Y-111246935D01*
X130244090Y-111251250D01*
X130246000Y-111257657D01*
X130246000Y-111642343D01*
X130244090Y-111648750D01*
X130238983Y-111653064D01*
X130073487Y-111725343D01*
X129609327Y-111928062D01*
X129602967Y-111928919D01*
X129597112Y-111926293D01*
X129041641Y-111458952D01*
X129037963Y-111453350D01*
X129037963Y-111446648D01*
X129041639Y-111441048D01*
X129597114Y-110973704D01*
X129602967Y-110971080D01*
X129609327Y-110971937D01*
G37*
%TD.AperFunction*%
%TD*%
%TA.AperFunction,Conductor*%
%TO.N,GNDA*%
G36*
X129739401Y-117681211D02*
G01*
X129743512Y-117684593D01*
X130383781Y-118521868D01*
X130386162Y-118529746D01*
X130382765Y-118537243D01*
X129548278Y-119372712D01*
X129543030Y-119375745D01*
X129536970Y-119375745D01*
X129531722Y-119372712D01*
X128697234Y-118537243D01*
X128693837Y-118529746D01*
X128696217Y-118521869D01*
X129336487Y-117684593D01*
X129340599Y-117681211D01*
X129345782Y-117680000D01*
X129734218Y-117680000D01*
X129739401Y-117681211D01*
G37*
%TD.AperFunction*%
%TD*%
%TA.AperFunction,Conductor*%
%TO.N,GNDA*%
G36*
X134818119Y-100802437D02*
G01*
X134822289Y-100808734D01*
X134986971Y-101437079D01*
X134986138Y-101445236D01*
X134980155Y-101450844D01*
X134624501Y-101599123D01*
X134619999Y-101600024D01*
X134615498Y-101599123D01*
X134433236Y-101523134D01*
X134259844Y-101450844D01*
X134253861Y-101445236D01*
X134253028Y-101437081D01*
X134417710Y-100808734D01*
X134421881Y-100802437D01*
X134429029Y-100800000D01*
X134810971Y-100800000D01*
X134818119Y-100802437D01*
G37*
%TD.AperFunction*%
%TD*%
%TA.AperFunction,Conductor*%
%TO.N,GNDA*%
G36*
X134628227Y-100362139D02*
G01*
X135071675Y-100800842D01*
X135101057Y-100829910D01*
X135104427Y-100836691D01*
X135102939Y-100844116D01*
X134823384Y-101324188D01*
X134819104Y-101328443D01*
X134813273Y-101330000D01*
X134426727Y-101330000D01*
X134420896Y-101328443D01*
X134416616Y-101324188D01*
X134311159Y-101143091D01*
X134137059Y-100844114D01*
X134135572Y-100836691D01*
X134138941Y-100829911D01*
X134611772Y-100362139D01*
X134620000Y-100358758D01*
X134628227Y-100362139D01*
G37*
%TD.AperFunction*%
%TD*%
%TA.AperFunction,Conductor*%
%TO.N,GNDA*%
G36*
X128277152Y-115773229D02*
G01*
X128284480Y-115777092D01*
X128287413Y-115784840D01*
X128287413Y-116166837D01*
X128285501Y-116173247D01*
X128280389Y-116177562D01*
X127671972Y-116442800D01*
X127665920Y-116443694D01*
X127660245Y-116441412D01*
X127656497Y-116436577D01*
X127548509Y-116177562D01*
X127507905Y-116080171D01*
X127507005Y-116075648D01*
X127507966Y-115691200D01*
X127509793Y-115684956D01*
X127514676Y-115680651D01*
X127521102Y-115679622D01*
X128277152Y-115773229D01*
G37*
%TD.AperFunction*%
%TD*%
%TA.AperFunction,Conductor*%
%TO.N,GNDA*%
G36*
X128491950Y-115486104D02*
G01*
X129023378Y-115965815D01*
X129026786Y-115971280D01*
X129026786Y-115977720D01*
X129023378Y-115983185D01*
X128491950Y-116462895D01*
X128485972Y-116465761D01*
X128479397Y-116464919D01*
X127826487Y-116177575D01*
X127821401Y-116173259D01*
X127819500Y-116166866D01*
X127819500Y-115782134D01*
X127821401Y-115775741D01*
X127826487Y-115771425D01*
X128479399Y-115484079D01*
X128485972Y-115483238D01*
X128491950Y-115486104D01*
G37*
%TD.AperFunction*%
%TD*%
%TA.AperFunction,Conductor*%
%TO.N,U1-VCC*%
G36*
X141385714Y-99238944D02*
G01*
X141924466Y-99810479D01*
X141927651Y-99818320D01*
X141924714Y-99826257D01*
X141486485Y-100321539D01*
X141478641Y-100325450D01*
X141470282Y-100322815D01*
X140917259Y-99867040D01*
X140913289Y-99860596D01*
X140914094Y-99853071D01*
X140919334Y-99847615D01*
X141365500Y-99617500D01*
X141365500Y-99246969D01*
X141367520Y-99240397D01*
X141372883Y-99236095D01*
X141379736Y-99235547D01*
X141385714Y-99238944D01*
G37*
%TD.AperFunction*%
%TD*%
%TA.AperFunction,Conductor*%
%TO.N,U1-VCC*%
G36*
X129608496Y-109070520D02*
G01*
X130219026Y-109226780D01*
X130248201Y-109234248D01*
X130254542Y-109238408D01*
X130257000Y-109245583D01*
X130257000Y-109625981D01*
X130254097Y-109633695D01*
X130246827Y-109637581D01*
X130146000Y-109650855D01*
X130145995Y-109650856D01*
X130145238Y-109650956D01*
X130144532Y-109651248D01*
X130144526Y-109651250D01*
X129999874Y-109711167D01*
X129999868Y-109711169D01*
X129999159Y-109711464D01*
X129998545Y-109711934D01*
X129998545Y-109711935D01*
X129874327Y-109807250D01*
X129874323Y-109807253D01*
X129873718Y-109807718D01*
X129873253Y-109808323D01*
X129873252Y-109808325D01*
X129793619Y-109912103D01*
X129790333Y-109915027D01*
X129664383Y-109990201D01*
X129657929Y-109991845D01*
X129651623Y-109989701D01*
X129546223Y-109915027D01*
X129043352Y-109558751D01*
X129039110Y-109553171D01*
X129038819Y-109546166D01*
X129042583Y-109540254D01*
X129598069Y-109072901D01*
X129602994Y-109070449D01*
X129608496Y-109070520D01*
G37*
%TD.AperFunction*%
%TD*%
%TA.AperFunction,Conductor*%
%TO.N,U1-VCC*%
G36*
X142740883Y-102473311D02*
G01*
X142746076Y-102477610D01*
X142748035Y-102484062D01*
X142749000Y-102870000D01*
X142749000Y-102870058D01*
X142748035Y-103255937D01*
X142746076Y-103262389D01*
X142740883Y-103266688D01*
X142734179Y-103267408D01*
X142323019Y-103190316D01*
X141957542Y-103121789D01*
X141950697Y-103117762D01*
X141948000Y-103110290D01*
X141948000Y-102629711D01*
X141950697Y-102622239D01*
X141957544Y-102618211D01*
X142371749Y-102540546D01*
X142734180Y-102472591D01*
X142740883Y-102473311D01*
G37*
%TD.AperFunction*%
%TD*%
%TA.AperFunction,Conductor*%
%TO.N,U1-VCC*%
G36*
X141882198Y-102361315D02*
G01*
X142393033Y-102616766D01*
X142397753Y-102621080D01*
X142399500Y-102627231D01*
X142399500Y-103112769D01*
X142397753Y-103118920D01*
X142393033Y-103123234D01*
X141882200Y-103378683D01*
X141875028Y-103379756D01*
X141868601Y-103376397D01*
X141617923Y-103120000D01*
X141381495Y-102878178D01*
X141378162Y-102870000D01*
X141381495Y-102861821D01*
X141868603Y-102363600D01*
X141875028Y-102360243D01*
X141882198Y-102361315D01*
G37*
%TD.AperFunction*%
%TD*%
%TA.AperFunction,Conductor*%
%TO.N,U1-VCC*%
G36*
X137104119Y-100802437D02*
G01*
X137108289Y-100808734D01*
X137272971Y-101437079D01*
X137272138Y-101445236D01*
X137266155Y-101450844D01*
X136910501Y-101599123D01*
X136905999Y-101600024D01*
X136901498Y-101599123D01*
X136719236Y-101523134D01*
X136545844Y-101450844D01*
X136539861Y-101445236D01*
X136539028Y-101437081D01*
X136703710Y-100808734D01*
X136707881Y-100802437D01*
X136715029Y-100800000D01*
X137096971Y-100800000D01*
X137104119Y-100802437D01*
G37*
%TD.AperFunction*%
%TD*%
%TA.AperFunction,Conductor*%
%TO.N,U1-VCC*%
G36*
X136914178Y-100336995D02*
G01*
X137328057Y-100741642D01*
X137411915Y-100823630D01*
X137415337Y-100830481D01*
X137413789Y-100837981D01*
X137109402Y-101349285D01*
X137105131Y-101353471D01*
X137099349Y-101355000D01*
X136712651Y-101355000D01*
X136706869Y-101353471D01*
X136702598Y-101349285D01*
X136630486Y-101228153D01*
X136398209Y-100837979D01*
X136396662Y-100830481D01*
X136400083Y-100823631D01*
X136897821Y-100336995D01*
X136906000Y-100333662D01*
X136914178Y-100336995D01*
G37*
%TD.AperFunction*%
%TD*%
%TA.AperFunction,Conductor*%
%TO.N,U1-VCC*%
G36*
X141486178Y-100336995D02*
G01*
X141900057Y-100741642D01*
X141983915Y-100823630D01*
X141987337Y-100830481D01*
X141985789Y-100837981D01*
X141681402Y-101349285D01*
X141677131Y-101353471D01*
X141671349Y-101355000D01*
X141284651Y-101355000D01*
X141278869Y-101353471D01*
X141274598Y-101349285D01*
X141202486Y-101228153D01*
X140970209Y-100837979D01*
X140968662Y-100830481D01*
X140972083Y-100823631D01*
X141469821Y-100336995D01*
X141478000Y-100333662D01*
X141486178Y-100336995D01*
G37*
%TD.AperFunction*%
%TD*%
%TA.AperFunction,Conductor*%
%TO.N,U1-VCC*%
G36*
X141676217Y-101659862D02*
G01*
X141680420Y-101665994D01*
X141866193Y-102318094D01*
X141866337Y-102323949D01*
X141863626Y-102329140D01*
X141383807Y-102860688D01*
X141378084Y-102864167D01*
X141371391Y-102863937D01*
X141365920Y-102860074D01*
X140915467Y-102286464D01*
X140912995Y-102280013D01*
X140914593Y-102273292D01*
X141274604Y-101663254D01*
X141278878Y-101659040D01*
X141284680Y-101657500D01*
X141669168Y-101657500D01*
X141676217Y-101659862D01*
G37*
%TD.AperFunction*%
%TD*%
%TA.AperFunction,Conductor*%
%TO.N,U1-VCC*%
G36*
X129036498Y-108204875D02*
G01*
X129392155Y-108353155D01*
X129398138Y-108358763D01*
X129398971Y-108366920D01*
X129234289Y-108995266D01*
X129230119Y-109001563D01*
X129222971Y-109004000D01*
X128841029Y-109004000D01*
X128833881Y-109001563D01*
X128829711Y-108995266D01*
X128814585Y-108937553D01*
X128665028Y-108366917D01*
X128665861Y-108358763D01*
X128671842Y-108353156D01*
X129027503Y-108204874D01*
X129031999Y-108203975D01*
X129036498Y-108204875D01*
G37*
%TD.AperFunction*%
%TD*%
%TA.AperFunction,Conductor*%
%TO.N,U1-VCC*%
G36*
X129231129Y-108551531D02*
G01*
X129235401Y-108555724D01*
X129527336Y-109047122D01*
X129528883Y-109054576D01*
X129525517Y-109061404D01*
X129040240Y-109542825D01*
X129032000Y-109546219D01*
X129023760Y-109542825D01*
X128788771Y-109309704D01*
X128538481Y-109061403D01*
X128535116Y-109054576D01*
X128536662Y-109047125D01*
X128828600Y-108555723D01*
X128832871Y-108551531D01*
X128838658Y-108550000D01*
X129225342Y-108550000D01*
X129231129Y-108551531D01*
G37*
%TD.AperFunction*%
%TD*%
%TA.AperFunction,Conductor*%
%TO.N,U1-VCC*%
G36*
X137635201Y-99330156D02*
G01*
X137906442Y-99601397D01*
X137909639Y-99607362D01*
X137908998Y-99614100D01*
X137609085Y-100347241D01*
X137604610Y-100352635D01*
X137597854Y-100354504D01*
X136912832Y-100330966D01*
X136906560Y-100328883D01*
X136902417Y-100323732D01*
X136697771Y-99827338D01*
X136697587Y-99818900D01*
X136703128Y-99812534D01*
X137621472Y-99328080D01*
X137628676Y-99326860D01*
X137635201Y-99330156D01*
G37*
%TD.AperFunction*%
%TD*%
%TA.AperFunction,Conductor*%
%TO.N,GND*%
G36*
X130465868Y-105552945D02*
G01*
X131094800Y-105815000D01*
X131100035Y-105819310D01*
X131102000Y-105825800D01*
X131102000Y-106010200D01*
X131100035Y-106016690D01*
X131094800Y-106021000D01*
X130465870Y-106283053D01*
X130456916Y-106283072D01*
X130450571Y-106276755D01*
X130302875Y-105922497D01*
X130301975Y-105918000D01*
X130302875Y-105913502D01*
X130450572Y-105559242D01*
X130456916Y-105552927D01*
X130465868Y-105552945D01*
G37*
%TD.AperFunction*%
%TD*%
%TA.AperFunction,Conductor*%
%TO.N,GND*%
G36*
X131102522Y-105350509D02*
G01*
X131662705Y-105909720D01*
X131665739Y-105914969D01*
X131665739Y-105921031D01*
X131662705Y-105926280D01*
X131102522Y-106485490D01*
X131094806Y-106488897D01*
X131086805Y-106486230D01*
X130524248Y-106021509D01*
X130521115Y-106017474D01*
X130520000Y-106012489D01*
X130520000Y-105823511D01*
X130521115Y-105818526D01*
X130524248Y-105814491D01*
X130591218Y-105759166D01*
X131086807Y-105349767D01*
X131094806Y-105347102D01*
X131102522Y-105350509D01*
G37*
%TD.AperFunction*%
%TD*%
%TA.AperFunction,Conductor*%
%TO.N,GND*%
G36*
X132947428Y-105559244D02*
G01*
X133095123Y-105913498D01*
X133096024Y-105918000D01*
X133095123Y-105922502D01*
X132947428Y-106276755D01*
X132941083Y-106283072D01*
X132932129Y-106283053D01*
X132303200Y-106021000D01*
X132297965Y-106016690D01*
X132296000Y-106010200D01*
X132296000Y-105825800D01*
X132297965Y-105819310D01*
X132303200Y-105815000D01*
X132932131Y-105552945D01*
X132941083Y-105552927D01*
X132947428Y-105559244D01*
G37*
%TD.AperFunction*%
%TD*%
%TA.AperFunction,Conductor*%
%TO.N,GND*%
G36*
X132253193Y-105349768D02*
G01*
X132693457Y-105713464D01*
X132815752Y-105814491D01*
X132818885Y-105818526D01*
X132820000Y-105823511D01*
X132820000Y-106012489D01*
X132818885Y-106017474D01*
X132815752Y-106021509D01*
X132253195Y-106486230D01*
X132245193Y-106488897D01*
X132237477Y-106485490D01*
X131677294Y-105926280D01*
X131674260Y-105921031D01*
X131674260Y-105914969D01*
X131677294Y-105909720D01*
X131768647Y-105818526D01*
X132237478Y-105350508D01*
X132245193Y-105347102D01*
X132253193Y-105349768D01*
G37*
%TD.AperFunction*%
%TD*%
%TA.AperFunction,Conductor*%
%TO.N,GND*%
G36*
X131818780Y-116306431D02*
G01*
X131822816Y-116313251D01*
X131969351Y-117080139D01*
X131968649Y-117086858D01*
X131964351Y-117092069D01*
X131957888Y-117094035D01*
X131574355Y-117094994D01*
X131569824Y-117094093D01*
X131456995Y-117047052D01*
X131212571Y-116945147D01*
X131206403Y-116939147D01*
X131206006Y-116930553D01*
X131418288Y-116311651D01*
X131422556Y-116305926D01*
X131429356Y-116303747D01*
X131811324Y-116303747D01*
X131818780Y-116306431D01*
G37*
%TD.AperFunction*%
%TD*%
%TA.AperFunction,Conductor*%
%TO.N,GND*%
G36*
X131631611Y-115083839D02*
G01*
X132174622Y-116252617D01*
X132175710Y-116257659D01*
X132174525Y-116262679D01*
X131824206Y-116980432D01*
X131819891Y-116985223D01*
X131813692Y-116987000D01*
X131428308Y-116987000D01*
X131422109Y-116985223D01*
X131417794Y-116980432D01*
X131067474Y-116262679D01*
X131066289Y-116257659D01*
X131067376Y-116252621D01*
X131610389Y-115083838D01*
X131616675Y-115077898D01*
X131625325Y-115077898D01*
X131631611Y-115083839D01*
G37*
%TD.AperFunction*%
%TD*%
%TA.AperFunction,Conductor*%
%TO.N,GND*%
G36*
X132941236Y-114695861D02*
G01*
X132946844Y-114701844D01*
X133095123Y-115057498D01*
X133096024Y-115062000D01*
X133095123Y-115066502D01*
X132946844Y-115422155D01*
X132941236Y-115428138D01*
X132933079Y-115428971D01*
X132304734Y-115264289D01*
X132298437Y-115260119D01*
X132296000Y-115252971D01*
X132296000Y-114871029D01*
X132298437Y-114863881D01*
X132304734Y-114859711D01*
X132348999Y-114848109D01*
X132933081Y-114695028D01*
X132941236Y-114695861D01*
G37*
%TD.AperFunction*%
%TD*%
%TA.AperFunction,Conductor*%
%TO.N,GND*%
G36*
X132203944Y-114492181D02*
G01*
X132765691Y-114858538D01*
X132769588Y-114862765D01*
X132771000Y-114868338D01*
X132771000Y-115255662D01*
X132769588Y-115261235D01*
X132765691Y-115265462D01*
X132203944Y-115631818D01*
X132196346Y-115633656D01*
X132189287Y-115630298D01*
X131628294Y-115070280D01*
X131625260Y-115065031D01*
X131625260Y-115058969D01*
X131628294Y-115053720D01*
X131813999Y-114868338D01*
X132189287Y-114493700D01*
X132196346Y-114490343D01*
X132203944Y-114492181D01*
G37*
%TD.AperFunction*%
%TD*%
%TA.AperFunction,Conductor*%
%TO.N,GND*%
G36*
X141263671Y-108965905D02*
G01*
X141619328Y-109114185D01*
X141624314Y-109118139D01*
X141626493Y-109124120D01*
X141625218Y-109130356D01*
X141315271Y-109729936D01*
X141310962Y-109734557D01*
X141304878Y-109736263D01*
X140922958Y-109736263D01*
X140914960Y-109733102D01*
X140911283Y-109725328D01*
X140862315Y-108978432D01*
X140863607Y-108972274D01*
X140867904Y-108967676D01*
X140873957Y-108965968D01*
X141259148Y-108965005D01*
X141263671Y-108965905D01*
G37*
%TD.AperFunction*%
%TD*%
%TA.AperFunction,Conductor*%
%TO.N,GND*%
G36*
X141311140Y-109241519D02*
G01*
X141315408Y-109245680D01*
X141608193Y-109733655D01*
X141609857Y-109739950D01*
X141607899Y-109746159D01*
X141121739Y-110476372D01*
X141115767Y-110480965D01*
X141108233Y-110480965D01*
X141102261Y-110476372D01*
X141089249Y-110456828D01*
X140616099Y-109746157D01*
X140614142Y-109739950D01*
X140615805Y-109733657D01*
X140908592Y-109245680D01*
X140912860Y-109241519D01*
X140918625Y-109240000D01*
X141305375Y-109240000D01*
X141311140Y-109241519D01*
G37*
%TD.AperFunction*%
%TD*%
%TA.AperFunction,Conductor*%
%TO.N,U1-nFault*%
G36*
X139295395Y-100901143D02*
G01*
X139715628Y-101304473D01*
X139720241Y-101308901D01*
X139723396Y-101314153D01*
X139723464Y-101320279D01*
X139720427Y-101325601D01*
X139449441Y-101597546D01*
X139445626Y-101600098D01*
X139441124Y-101600987D01*
X139058460Y-101600031D01*
X139052403Y-101598323D01*
X139048107Y-101593725D01*
X139046814Y-101587568D01*
X139091284Y-100908820D01*
X139094961Y-100901046D01*
X139102959Y-100897885D01*
X139287294Y-100897885D01*
X139295395Y-100901143D01*
G37*
%TD.AperFunction*%
%TD*%
%TA.AperFunction,Conductor*%
%TO.N,U1-nFault*%
G36*
X139200227Y-100362139D02*
G01*
X139672084Y-100828947D01*
X139675532Y-100836532D01*
X139673059Y-100844489D01*
X139295513Y-101325524D01*
X139291426Y-101328822D01*
X139286309Y-101330000D01*
X139097691Y-101330000D01*
X139092574Y-101328822D01*
X139088487Y-101325524D01*
X138710940Y-100844489D01*
X138708467Y-100836532D01*
X138711913Y-100828949D01*
X139183772Y-100362139D01*
X139192000Y-100358758D01*
X139200227Y-100362139D01*
G37*
%TD.AperFunction*%
%TD*%
%TA.AperFunction,Conductor*%
%TO.N,U1-nFault*%
G36*
X139450497Y-101600875D02*
G01*
X139804755Y-101748571D01*
X139811072Y-101754916D01*
X139811053Y-101763870D01*
X139549000Y-102392800D01*
X139544690Y-102398035D01*
X139538200Y-102400000D01*
X139353800Y-102400000D01*
X139347310Y-102398035D01*
X139343000Y-102392800D01*
X139080945Y-101763868D01*
X139080927Y-101754916D01*
X139087242Y-101748572D01*
X139441502Y-101600875D01*
X139446000Y-101599975D01*
X139450497Y-101600875D01*
G37*
%TD.AperFunction*%
%TD*%
%TA.AperFunction,Conductor*%
%TO.N,U1-nFault*%
G36*
X139545391Y-101658725D02*
G01*
X139549511Y-101662145D01*
X139983644Y-102236433D01*
X139986009Y-102243273D01*
X139983897Y-102250196D01*
X139557924Y-102858960D01*
X139552474Y-102863196D01*
X139545584Y-102863623D01*
X139539654Y-102860092D01*
X139061078Y-102329921D01*
X139058217Y-102323971D01*
X139059034Y-102317419D01*
X139342941Y-101664533D01*
X139347255Y-101659415D01*
X139353670Y-101657500D01*
X139540178Y-101657500D01*
X139545391Y-101658725D01*
G37*
%TD.AperFunction*%
%TD*%
%TA.AperFunction,Conductor*%
%TO.N,U1-nFault*%
G36*
X132215724Y-108457981D02*
G01*
X132223438Y-108460905D01*
X132227306Y-108468194D01*
X132300599Y-109040211D01*
X132300067Y-109045478D01*
X132297267Y-109049971D01*
X132166962Y-109180276D01*
X132159617Y-109183666D01*
X132151828Y-109181480D01*
X131554244Y-108748869D01*
X131550190Y-108743606D01*
X131549655Y-108736985D01*
X131552810Y-108731141D01*
X131821856Y-108460746D01*
X131825666Y-108458193D01*
X131830164Y-108457301D01*
X132215724Y-108457981D01*
G37*
%TD.AperFunction*%
%TD*%
%TA.AperFunction,Conductor*%
%TO.N,Net-(D2-A)*%
G36*
X140937950Y-98016604D02*
G01*
X141469378Y-98496315D01*
X141472786Y-98501780D01*
X141472786Y-98508220D01*
X141469378Y-98513685D01*
X140937950Y-98993395D01*
X140931972Y-98996261D01*
X140925397Y-98995419D01*
X140272487Y-98708075D01*
X140267401Y-98703759D01*
X140265500Y-98697366D01*
X140265500Y-98312634D01*
X140267401Y-98306241D01*
X140272487Y-98301925D01*
X140925399Y-98014579D01*
X140931972Y-98013738D01*
X140937950Y-98016604D01*
G37*
%TD.AperFunction*%
%TD*%
%TA.AperFunction,Conductor*%
%TO.N,Net-(D2-A)*%
G36*
X139748320Y-98014183D02*
G01*
X140372696Y-98301865D01*
X140377653Y-98306182D01*
X140379500Y-98312491D01*
X140379500Y-98696948D01*
X140377438Y-98703581D01*
X140371979Y-98707876D01*
X139748012Y-98946466D01*
X139741852Y-98947069D01*
X139736246Y-98944445D01*
X139388147Y-98647932D01*
X139201455Y-98488905D01*
X139197826Y-98483328D01*
X139197826Y-98476672D01*
X139201455Y-98471094D01*
X139735838Y-98015901D01*
X139741827Y-98013218D01*
X139748320Y-98014183D01*
G37*
%TD.AperFunction*%
%TD*%
%TA.AperFunction,Conductor*%
%TO.N,Net-(D4-A)*%
G36*
X136365753Y-98016426D02*
G01*
X136654474Y-98277049D01*
X136897378Y-98496315D01*
X136900786Y-98501780D01*
X136900786Y-98508220D01*
X136897378Y-98513685D01*
X136366143Y-98993221D01*
X136359986Y-98996114D01*
X136353261Y-98995094D01*
X135700158Y-98683180D01*
X135695303Y-98678863D01*
X135693500Y-98672622D01*
X135693500Y-98287902D01*
X135695504Y-98281354D01*
X135700830Y-98277049D01*
X135772578Y-98248162D01*
X136353548Y-98014259D01*
X136359962Y-98013593D01*
X136365753Y-98016426D01*
G37*
%TD.AperFunction*%
%TD*%
%TA.AperFunction,Conductor*%
%TO.N,Net-(D4-A)*%
G36*
X135176170Y-98013853D02*
G01*
X135554511Y-98173348D01*
X135800345Y-98276984D01*
X135805548Y-98281295D01*
X135807500Y-98287765D01*
X135807500Y-98672235D01*
X135805548Y-98678705D01*
X135800345Y-98683016D01*
X135176172Y-98946145D01*
X135169840Y-98946927D01*
X135164041Y-98944271D01*
X134629455Y-98488905D01*
X134625826Y-98483328D01*
X134625826Y-98476672D01*
X134629455Y-98471094D01*
X135164044Y-98015726D01*
X135169840Y-98013072D01*
X135176170Y-98013853D01*
G37*
%TD.AperFunction*%
%TD*%
%TA.AperFunction,Conductor*%
%TO.N,U1-IN2*%
G36*
X131678019Y-110746566D02*
G01*
X131683594Y-110749678D01*
X131813214Y-110879298D01*
X131816366Y-110885047D01*
X131815929Y-110891589D01*
X131812043Y-110896869D01*
X131317458Y-111274644D01*
X131309592Y-111277021D01*
X131302104Y-111273640D01*
X131269945Y-111241641D01*
X131031354Y-111004240D01*
X131028134Y-110998239D01*
X131028801Y-110991462D01*
X131175755Y-110637639D01*
X131181238Y-110631708D01*
X131189258Y-110630743D01*
X131678019Y-110746566D01*
G37*
%TD.AperFunction*%
%TD*%
%TA.AperFunction,Conductor*%
%TO.N,U1-IN1*%
G36*
X131063553Y-109988120D02*
G01*
X131070307Y-109992175D01*
X131072959Y-109999593D01*
X131072959Y-110183776D01*
X131071588Y-110189272D01*
X131067796Y-110193479D01*
X130592823Y-110513466D01*
X130585172Y-110515410D01*
X130578027Y-110512051D01*
X130572071Y-110506116D01*
X130306560Y-110241540D01*
X130303344Y-110235533D01*
X130304020Y-110228754D01*
X130451383Y-109875297D01*
X130456683Y-109869473D01*
X130464475Y-109868328D01*
X131063553Y-109988120D01*
G37*
%TD.AperFunction*%
%TD*%
%TA.AperFunction,Conductor*%
%TO.N,U1-EN*%
G36*
X137942234Y-111634572D02*
G01*
X138510944Y-111868747D01*
X138572256Y-111893994D01*
X138578601Y-111900312D01*
X138578621Y-111909265D01*
X138432563Y-112264195D01*
X138430016Y-112268016D01*
X138426195Y-112270563D01*
X138071265Y-112416621D01*
X138062312Y-112416601D01*
X138055994Y-112410256D01*
X137995851Y-112264195D01*
X137796572Y-111780234D01*
X137795919Y-111773487D01*
X137799117Y-111767511D01*
X137929511Y-111637117D01*
X137935487Y-111633919D01*
X137942234Y-111634572D01*
G37*
%TD.AperFunction*%
%TD*%
%TA.AperFunction,Conductor*%
%TO.N,Net-(U1-BST2)*%
G36*
X139055869Y-113032084D02*
G01*
X139542503Y-113529820D01*
X139545837Y-113537999D01*
X139542503Y-113546178D01*
X139055869Y-114043915D01*
X139049018Y-114047337D01*
X139041518Y-114045789D01*
X138530215Y-113741402D01*
X138526029Y-113737131D01*
X138524500Y-113731349D01*
X138524500Y-113344651D01*
X138526029Y-113338869D01*
X138530215Y-113334598D01*
X138604849Y-113290166D01*
X139041521Y-113030209D01*
X139049018Y-113028662D01*
X139055869Y-113032084D01*
G37*
%TD.AperFunction*%
%TD*%
%TA.AperFunction,Conductor*%
%TO.N,Net-(U1-BST1)*%
G36*
X139045936Y-106900545D02*
G01*
X139541525Y-107182356D01*
X139546744Y-107188546D01*
X139546695Y-107196641D01*
X139290123Y-107879684D01*
X139285406Y-107885470D01*
X139278151Y-107887226D01*
X138820271Y-107847183D01*
X138813017Y-107843800D01*
X138540379Y-107571162D01*
X138536980Y-107563705D01*
X138539307Y-107555848D01*
X139030812Y-106903673D01*
X139037785Y-106899260D01*
X139045936Y-106900545D01*
G37*
%TD.AperFunction*%
%TD*%
%TA.AperFunction,Conductor*%
%TO.N,U1-IFB*%
G36*
X137564169Y-109579768D02*
G01*
X137581679Y-109587002D01*
X137918500Y-109726141D01*
X137922312Y-109728687D01*
X137924853Y-109732503D01*
X138070599Y-110086680D01*
X138071373Y-110092705D01*
X138069021Y-110098306D01*
X138064178Y-110101973D01*
X137370831Y-110383334D01*
X137363350Y-110383780D01*
X137357133Y-110379593D01*
X137354732Y-110372493D01*
X137354732Y-110191700D01*
X137355294Y-110188119D01*
X137384413Y-110097552D01*
X137548566Y-109587000D01*
X137552083Y-109581704D01*
X137557854Y-109579030D01*
X137564169Y-109579768D01*
G37*
%TD.AperFunction*%
%TD*%
%TA.AperFunction,Conductor*%
%TO.N,U1-IFB*%
G36*
X137710304Y-109615746D02*
G01*
X138047372Y-109952814D01*
X138049946Y-109956701D01*
X138234255Y-110412564D01*
X138234200Y-110421468D01*
X138227896Y-110427755D01*
X137872837Y-110575222D01*
X137868341Y-110576117D01*
X137863847Y-110575216D01*
X137508682Y-110427140D01*
X137502757Y-110421649D01*
X137501803Y-110413629D01*
X137690650Y-109621305D01*
X137695144Y-109614561D01*
X137702943Y-109612355D01*
X137710304Y-109615746D01*
G37*
%TD.AperFunction*%
%TD*%
%TA.AperFunction,Conductor*%
%TO.N,U1-IFB*%
G36*
X137924171Y-109727905D02*
G01*
X138230271Y-109855523D01*
X138282075Y-109877122D01*
X138288080Y-109882774D01*
X138288865Y-109890982D01*
X138156607Y-110378905D01*
X138121833Y-110507195D01*
X138121390Y-110508828D01*
X138117207Y-110515060D01*
X138110098Y-110517467D01*
X137629398Y-110517467D01*
X137621646Y-110514530D01*
X137617785Y-110507195D01*
X137523609Y-109741092D01*
X137524642Y-109734671D01*
X137528947Y-109729792D01*
X137535192Y-109727967D01*
X137919648Y-109727005D01*
X137924171Y-109727905D01*
G37*
%TD.AperFunction*%
%TD*%
%TA.AperFunction,Conductor*%
%TO.N,U1-IFB*%
G36*
X137646886Y-109452852D02*
G01*
X137919491Y-109724242D01*
X137922046Y-109728057D01*
X137922936Y-109732562D01*
X137922029Y-110115430D01*
X137920304Y-110121516D01*
X137915664Y-110125815D01*
X137909464Y-110127070D01*
X137206793Y-110074978D01*
X137200470Y-110072542D01*
X137196558Y-110067010D01*
X137138239Y-109892054D01*
X137138049Y-109885282D01*
X137141643Y-109879542D01*
X137630940Y-109452331D01*
X137639016Y-109449451D01*
X137646886Y-109452852D01*
G37*
%TD.AperFunction*%
%TD*%
%TA.AperFunction,Conductor*%
%TO.N,U1-IFB*%
G36*
X137863084Y-110178102D02*
G01*
X137867461Y-110182382D01*
X137869077Y-110188287D01*
X137870035Y-110571507D01*
X137869146Y-110576009D01*
X137866594Y-110579824D01*
X137595181Y-110850281D01*
X137589629Y-110853376D01*
X137583278Y-110853111D01*
X137578003Y-110849565D01*
X137190507Y-110393143D01*
X137187726Y-110385571D01*
X137187726Y-110201338D01*
X137191071Y-110193147D01*
X137199193Y-110189640D01*
X137857147Y-110176618D01*
X137863084Y-110178102D01*
G37*
%TD.AperFunction*%
%TD*%
%TA.AperFunction,Conductor*%
%TO.N,U1-IFB*%
G36*
X137717052Y-110214451D02*
G01*
X137721268Y-110219646D01*
X137867197Y-110572903D01*
X137868083Y-110577381D01*
X137867188Y-110581858D01*
X137721634Y-110932309D01*
X137717211Y-110937627D01*
X137710556Y-110939518D01*
X137703997Y-110937319D01*
X137261994Y-110619395D01*
X137261992Y-110619394D01*
X137260500Y-110618321D01*
X137258660Y-110618322D01*
X137101189Y-110618446D01*
X137094150Y-110616098D01*
X137089938Y-110609988D01*
X137090249Y-110602574D01*
X137094957Y-110596839D01*
X137704234Y-110214204D01*
X137710678Y-110212415D01*
X137717052Y-110214451D01*
G37*
%TD.AperFunction*%
%TD*%
%TA.AperFunction,Conductor*%
%TO.N,U1-IFB*%
G36*
X134139622Y-112659431D02*
G01*
X134143924Y-112664799D01*
X134144465Y-112671658D01*
X133976578Y-113423517D01*
X133973309Y-113429362D01*
X133967370Y-113432456D01*
X133960707Y-113431787D01*
X133608503Y-113286853D01*
X133604687Y-113284312D01*
X133602141Y-113280500D01*
X133454846Y-112923935D01*
X133454585Y-112915694D01*
X133459823Y-112909329D01*
X133814962Y-112704984D01*
X133894938Y-112658967D01*
X133900773Y-112657408D01*
X134133046Y-112657408D01*
X134139622Y-112659431D01*
G37*
%TD.AperFunction*%
%TD*%
%TA.AperFunction,Conductor*%
%TO.N,U1-ISET*%
G36*
X129036497Y-113030875D02*
G01*
X129390755Y-113178571D01*
X129397072Y-113184916D01*
X129397053Y-113193870D01*
X129135000Y-113822800D01*
X129130690Y-113828035D01*
X129124200Y-113830000D01*
X128939800Y-113830000D01*
X128933310Y-113828035D01*
X128929000Y-113822800D01*
X128666945Y-113193868D01*
X128666927Y-113184916D01*
X128673242Y-113178572D01*
X129027502Y-113030875D01*
X129032000Y-113029975D01*
X129036497Y-113030875D01*
G37*
%TD.AperFunction*%
%TD*%
%TA.AperFunction,Conductor*%
%TO.N,U1-ISET*%
G36*
X129131428Y-113125677D02*
G01*
X129135513Y-113128971D01*
X129538012Y-113641176D01*
X129540488Y-113649169D01*
X129536992Y-113656771D01*
X129040179Y-114142503D01*
X129032000Y-114145837D01*
X129023821Y-114142503D01*
X128527007Y-113656771D01*
X128523511Y-113649169D01*
X128525986Y-113641177D01*
X128928485Y-113128971D01*
X128932572Y-113125677D01*
X128937686Y-113124500D01*
X129126314Y-113124500D01*
X129131428Y-113125677D01*
G37*
%TD.AperFunction*%
%TD*%
%TA.AperFunction,Conductor*%
%TO.N,U1-ISET*%
G36*
X129195868Y-112664945D02*
G01*
X129824800Y-112927000D01*
X129830035Y-112931310D01*
X129832000Y-112937800D01*
X129832000Y-113122200D01*
X129830035Y-113128690D01*
X129824800Y-113133000D01*
X129195870Y-113395053D01*
X129186916Y-113395072D01*
X129180571Y-113388755D01*
X129032875Y-113034497D01*
X129031975Y-113030000D01*
X129032875Y-113025502D01*
X129180572Y-112671242D01*
X129186916Y-112664927D01*
X129195868Y-112664945D01*
G37*
%TD.AperFunction*%
%TD*%
M02*
