%TF.GenerationSoftware,KiCad,Pcbnew,(7.0.0-rc1-145-gbd6d0b6cb6)*%
%TF.CreationDate,2023-03-28T23:28:49+02:00*%
%TF.ProjectId,2HBR_MINIMAL,32484252-5f4d-4494-9e49-4d414c2e6b69,rev?*%
%TF.SameCoordinates,Original*%
%TF.FileFunction,Copper,L4,Bot*%
%TF.FilePolarity,Positive*%
%FSLAX46Y46*%
G04 Gerber Fmt 4.6, Leading zero omitted, Abs format (unit mm)*
G04 Created by KiCad (PCBNEW (7.0.0-rc1-145-gbd6d0b6cb6)) date 2023-03-28 23:28:49*
%MOMM*%
%LPD*%
G01*
G04 APERTURE LIST*
G04 Aperture macros list*
%AMRoundRect*
0 Rectangle with rounded corners*
0 $1 Rounding radius*
0 $2 $3 $4 $5 $6 $7 $8 $9 X,Y pos of 4 corners*
0 Add a 4 corners polygon primitive as box body*
4,1,4,$2,$3,$4,$5,$6,$7,$8,$9,$2,$3,0*
0 Add four circle primitives for the rounded corners*
1,1,$1+$1,$2,$3*
1,1,$1+$1,$4,$5*
1,1,$1+$1,$6,$7*
1,1,$1+$1,$8,$9*
0 Add four rect primitives between the rounded corners*
20,1,$1+$1,$2,$3,$4,$5,0*
20,1,$1+$1,$4,$5,$6,$7,0*
20,1,$1+$1,$6,$7,$8,$9,0*
20,1,$1+$1,$8,$9,$2,$3,0*%
G04 Aperture macros list end*
%TA.AperFunction,ComponentPad*%
%ADD10R,1.700000X1.700000*%
%TD*%
%TA.AperFunction,ComponentPad*%
%ADD11O,1.700000X1.700000*%
%TD*%
%TA.AperFunction,ComponentPad*%
%ADD12R,1.600000X1.600000*%
%TD*%
%TA.AperFunction,ComponentPad*%
%ADD13C,1.600000*%
%TD*%
%TA.AperFunction,SMDPad,CuDef*%
%ADD14RoundRect,0.250000X-1.425000X0.362500X-1.425000X-0.362500X1.425000X-0.362500X1.425000X0.362500X0*%
%TD*%
%TA.AperFunction,ViaPad*%
%ADD15C,0.800000*%
%TD*%
%TA.AperFunction,Conductor*%
%ADD16C,0.500000*%
%TD*%
%TA.AperFunction,Conductor*%
%ADD17C,0.800000*%
%TD*%
%TA.AperFunction,Conductor*%
%ADD18C,0.400000*%
%TD*%
%TA.AperFunction,Conductor*%
%ADD19C,0.200000*%
%TD*%
%TA.AperFunction,Conductor*%
%ADD20C,1.000000*%
%TD*%
G04 APERTURE END LIST*
D10*
%TO.P,J4,1,Pin_1*%
%TO.N,GND*%
X124459999Y-106679999D03*
D11*
%TO.P,J4,2,Pin_2*%
%TO.N,VIN*%
X124459999Y-109219999D03*
%TD*%
D10*
%TO.P,J5,1,Pin_1*%
%TO.N,GND*%
X124459999Y-111759999D03*
D11*
%TO.P,J5,2,Pin_2*%
%TO.N,VIN*%
X124459999Y-114299999D03*
%TD*%
D10*
%TO.P,J6,1,Pin_1*%
%TO.N,U1-OUT1*%
X144779999Y-111759999D03*
D11*
%TO.P,J6,2,Pin_2*%
%TO.N,U1-OUT2*%
X144779999Y-114299999D03*
%TD*%
D12*
%TO.P,C8,1*%
%TO.N,VIN*%
X128015999Y-99439348D03*
D13*
%TO.P,C8,2*%
%TO.N,GND*%
X128016000Y-102939349D03*
%TD*%
D10*
%TO.P,J3,1,Pin_1*%
%TO.N,GNDA*%
X129539999Y-119379999D03*
D11*
%TO.P,J3,2,Pin_2*%
%TO.N,U1-IN2*%
X132079999Y-119379999D03*
%TO.P,J3,3,Pin_3*%
%TO.N,U1-IN1*%
X134619999Y-119379999D03*
%TO.P,J3,4,Pin_4*%
%TO.N,U1-EN*%
X137159999Y-119379999D03*
%TO.P,J3,5,Pin_5*%
%TO.N,U1-nFault*%
X139699999Y-119379999D03*
%TO.P,J3,6,Pin_6*%
%TO.N,U1-VCC*%
X142239999Y-119379999D03*
%TD*%
D10*
%TO.P,J2,1,Pin_1*%
%TO.N,U1-OUT1*%
X144779999Y-106679999D03*
D11*
%TO.P,J2,2,Pin_2*%
%TO.N,U1-OUT2*%
X144779999Y-109219999D03*
%TD*%
D14*
%TO.P,R8,1*%
%TO.N,U1-IFB*%
X140462000Y-107527500D03*
%TO.P,R8,2*%
%TO.N,GND*%
X140462000Y-113452500D03*
%TD*%
D15*
%TO.N,U1-OUT2*%
X135469500Y-113014575D03*
X136398000Y-113030000D03*
%TO.N,U1-OUT1*%
X136652000Y-106680000D03*
X135469500Y-107935364D03*
%TO.N,GNDA*%
X134620000Y-101600000D03*
X139409000Y-111760000D03*
X127508000Y-116078000D03*
X132334000Y-112776000D03*
X127508000Y-111506000D03*
X139409000Y-108966000D03*
%TO.N,U1-VCC*%
X136906000Y-101600000D03*
X129032000Y-108204000D03*
X142748000Y-102870000D03*
%TO.N,VIN*%
X135890000Y-116078000D03*
X135890000Y-115062000D03*
X133604000Y-103632000D03*
X135890000Y-104902000D03*
X124460000Y-116078000D03*
X135890000Y-103886000D03*
X125984000Y-109220000D03*
%TO.N,GND*%
X145034000Y-102362000D03*
X125730000Y-117348000D03*
X141261500Y-111760000D03*
X145034000Y-116840000D03*
X133096000Y-105918000D03*
X127254000Y-107950000D03*
X145034000Y-99314000D03*
X146050000Y-116840000D03*
X145542000Y-104140000D03*
X130556000Y-107950000D03*
X123190000Y-100584000D03*
X132080000Y-97536000D03*
X145034000Y-100838000D03*
X123190000Y-117348000D03*
X127254000Y-106680000D03*
X131572000Y-117094000D03*
X136144000Y-102616000D03*
X145034000Y-97790000D03*
X127254000Y-109220000D03*
X123190000Y-102108000D03*
X144018000Y-116840000D03*
X137414000Y-103124000D03*
X133096000Y-115062000D03*
X123190000Y-98044000D03*
X130302000Y-105918000D03*
X124460000Y-117348000D03*
X141261500Y-108966000D03*
X123190000Y-103124000D03*
X143510000Y-104140000D03*
X123190000Y-99314000D03*
X144526000Y-104140000D03*
%TO.N,U1-nFault*%
X131826000Y-108458000D03*
X139446000Y-101600000D03*
%TO.N,U1-IN2*%
X131026500Y-110998000D03*
%TO.N,U1-IN1*%
X130302000Y-110236000D03*
%TO.N,U1-EN*%
X138430000Y-112268000D03*
%TO.N,U1-IFB*%
X137869048Y-110576383D03*
X137922000Y-109728000D03*
X143256000Y-108204000D03*
X133604000Y-113284000D03*
%TO.N,U1-ISET*%
X129032000Y-113030000D03*
%TD*%
D16*
%TO.N,U1-OUT2*%
X144780000Y-114300000D02*
X146304000Y-114300000D01*
X146304000Y-114300000D02*
X146304000Y-109220000D01*
X146304000Y-109220000D02*
X144780000Y-109220000D01*
%TO.N,VIN*%
X135890000Y-104902000D02*
X135890000Y-103886000D01*
D17*
X135890000Y-115570000D02*
X134620000Y-114300000D01*
D16*
X134620000Y-104648000D02*
X133604000Y-103632000D01*
D17*
X135890000Y-116078000D02*
X135890000Y-115570000D01*
D16*
X135890000Y-104902000D02*
X134874000Y-104902000D01*
X134874000Y-104902000D02*
X133604000Y-103632000D01*
X134620000Y-114300000D02*
X134620000Y-104648000D01*
D17*
X129411349Y-99439349D02*
X133604000Y-103632000D01*
X128016000Y-99439349D02*
X129411349Y-99439349D01*
D18*
%TO.N,GND*%
X141261500Y-111760000D02*
X141261500Y-108966000D01*
X140462000Y-113452500D02*
X140462000Y-112559500D01*
X140462000Y-112559500D02*
X141261500Y-111760000D01*
D19*
%TO.N,U1-IFB*%
X140462000Y-107527500D02*
X142579500Y-107527500D01*
D20*
X137922000Y-107696000D02*
X138090500Y-107527500D01*
D19*
X142579500Y-107527500D02*
X143256000Y-108204000D01*
D20*
X137922000Y-109728000D02*
X137922000Y-107696000D01*
X138090500Y-107527500D02*
X140462000Y-107527500D01*
%TD*%
%TA.AperFunction,Conductor*%
%TO.N,GND*%
G36*
X147257500Y-96537113D02*
G01*
X147302887Y-96582500D01*
X147319500Y-96644500D01*
X147319500Y-121287500D01*
X147302887Y-121349500D01*
X147257500Y-121394887D01*
X147195500Y-121411500D01*
X122044500Y-121411500D01*
X121982500Y-121394887D01*
X121937113Y-121349500D01*
X121920500Y-121287500D01*
X121920500Y-120254674D01*
X128439500Y-120254674D01*
X128440688Y-120260649D01*
X128440689Y-120260653D01*
X128451650Y-120315759D01*
X128451651Y-120315762D01*
X128454034Y-120327740D01*
X128509399Y-120410601D01*
X128592260Y-120465966D01*
X128665326Y-120480500D01*
X130408579Y-120480500D01*
X130414674Y-120480500D01*
X130487740Y-120465966D01*
X130570601Y-120410601D01*
X130625966Y-120327740D01*
X130640500Y-120254674D01*
X130640500Y-119380000D01*
X130974785Y-119380000D01*
X130993603Y-119583083D01*
X130995171Y-119588594D01*
X130995173Y-119588604D01*
X131047847Y-119773731D01*
X131047849Y-119773737D01*
X131049418Y-119779250D01*
X131140327Y-119961821D01*
X131143779Y-119966392D01*
X131259778Y-120120001D01*
X131259783Y-120120006D01*
X131263236Y-120124579D01*
X131267472Y-120128440D01*
X131267476Y-120128445D01*
X131369227Y-120221203D01*
X131413959Y-120261981D01*
X131587363Y-120369348D01*
X131777544Y-120443024D01*
X131978024Y-120480500D01*
X132176247Y-120480500D01*
X132181976Y-120480500D01*
X132382456Y-120443024D01*
X132572637Y-120369348D01*
X132746041Y-120261981D01*
X132896764Y-120124579D01*
X133019673Y-119961821D01*
X133110582Y-119779250D01*
X133166397Y-119583083D01*
X133185215Y-119380000D01*
X133514785Y-119380000D01*
X133533603Y-119583083D01*
X133535171Y-119588594D01*
X133535173Y-119588604D01*
X133587847Y-119773731D01*
X133587849Y-119773737D01*
X133589418Y-119779250D01*
X133680327Y-119961821D01*
X133683779Y-119966392D01*
X133799778Y-120120001D01*
X133799783Y-120120006D01*
X133803236Y-120124579D01*
X133807472Y-120128440D01*
X133807476Y-120128445D01*
X133909227Y-120221203D01*
X133953959Y-120261981D01*
X134127363Y-120369348D01*
X134317544Y-120443024D01*
X134518024Y-120480500D01*
X134716247Y-120480500D01*
X134721976Y-120480500D01*
X134922456Y-120443024D01*
X135112637Y-120369348D01*
X135286041Y-120261981D01*
X135436764Y-120124579D01*
X135559673Y-119961821D01*
X135650582Y-119779250D01*
X135706397Y-119583083D01*
X135725215Y-119380000D01*
X136054785Y-119380000D01*
X136073603Y-119583083D01*
X136075171Y-119588594D01*
X136075173Y-119588604D01*
X136127847Y-119773731D01*
X136127849Y-119773737D01*
X136129418Y-119779250D01*
X136220327Y-119961821D01*
X136223779Y-119966392D01*
X136339778Y-120120001D01*
X136339783Y-120120006D01*
X136343236Y-120124579D01*
X136347472Y-120128440D01*
X136347476Y-120128445D01*
X136449227Y-120221203D01*
X136493959Y-120261981D01*
X136667363Y-120369348D01*
X136857544Y-120443024D01*
X137058024Y-120480500D01*
X137256247Y-120480500D01*
X137261976Y-120480500D01*
X137462456Y-120443024D01*
X137652637Y-120369348D01*
X137826041Y-120261981D01*
X137976764Y-120124579D01*
X138099673Y-119961821D01*
X138190582Y-119779250D01*
X138246397Y-119583083D01*
X138265215Y-119380000D01*
X138594785Y-119380000D01*
X138613603Y-119583083D01*
X138615171Y-119588594D01*
X138615173Y-119588604D01*
X138667847Y-119773731D01*
X138667849Y-119773737D01*
X138669418Y-119779250D01*
X138760327Y-119961821D01*
X138763779Y-119966392D01*
X138879778Y-120120001D01*
X138879783Y-120120006D01*
X138883236Y-120124579D01*
X138887472Y-120128440D01*
X138887476Y-120128445D01*
X138989227Y-120221203D01*
X139033959Y-120261981D01*
X139207363Y-120369348D01*
X139397544Y-120443024D01*
X139598024Y-120480500D01*
X139796247Y-120480500D01*
X139801976Y-120480500D01*
X140002456Y-120443024D01*
X140192637Y-120369348D01*
X140366041Y-120261981D01*
X140516764Y-120124579D01*
X140639673Y-119961821D01*
X140730582Y-119779250D01*
X140786397Y-119583083D01*
X140805215Y-119380000D01*
X141134785Y-119380000D01*
X141153603Y-119583083D01*
X141155171Y-119588594D01*
X141155173Y-119588604D01*
X141207847Y-119773731D01*
X141207849Y-119773737D01*
X141209418Y-119779250D01*
X141300327Y-119961821D01*
X141303779Y-119966392D01*
X141419778Y-120120001D01*
X141419783Y-120120006D01*
X141423236Y-120124579D01*
X141427472Y-120128440D01*
X141427476Y-120128445D01*
X141529227Y-120221203D01*
X141573959Y-120261981D01*
X141747363Y-120369348D01*
X141937544Y-120443024D01*
X142138024Y-120480500D01*
X142336247Y-120480500D01*
X142341976Y-120480500D01*
X142542456Y-120443024D01*
X142732637Y-120369348D01*
X142906041Y-120261981D01*
X143056764Y-120124579D01*
X143179673Y-119961821D01*
X143270582Y-119779250D01*
X143326397Y-119583083D01*
X143345215Y-119380000D01*
X143326397Y-119176917D01*
X143270582Y-118980750D01*
X143179673Y-118798179D01*
X143131176Y-118733959D01*
X143060221Y-118639998D01*
X143060217Y-118639994D01*
X143056764Y-118635421D01*
X143052527Y-118631558D01*
X143052523Y-118631554D01*
X142910275Y-118501879D01*
X142910276Y-118501879D01*
X142906041Y-118498019D01*
X142901171Y-118495004D01*
X142901169Y-118495002D01*
X142737511Y-118393670D01*
X142737512Y-118393670D01*
X142732637Y-118390652D01*
X142652356Y-118359551D01*
X142547803Y-118319047D01*
X142547798Y-118319045D01*
X142542456Y-118316976D01*
X142456029Y-118300820D01*
X142347605Y-118280552D01*
X142347602Y-118280551D01*
X142341976Y-118279500D01*
X142138024Y-118279500D01*
X142132398Y-118280551D01*
X142132394Y-118280552D01*
X141943181Y-118315922D01*
X141943178Y-118315922D01*
X141937544Y-118316976D01*
X141932203Y-118319044D01*
X141932196Y-118319047D01*
X141752705Y-118388582D01*
X141752700Y-118388584D01*
X141747363Y-118390652D01*
X141742491Y-118393668D01*
X141742488Y-118393670D01*
X141578830Y-118495002D01*
X141578822Y-118495007D01*
X141573959Y-118498019D01*
X141569728Y-118501875D01*
X141569724Y-118501879D01*
X141427476Y-118631554D01*
X141427466Y-118631564D01*
X141423236Y-118635421D01*
X141419787Y-118639987D01*
X141419778Y-118639998D01*
X141303779Y-118793607D01*
X141303776Y-118793611D01*
X141300327Y-118798179D01*
X141297774Y-118803304D01*
X141297772Y-118803309D01*
X141211976Y-118975612D01*
X141209418Y-118980750D01*
X141207850Y-118986258D01*
X141207847Y-118986268D01*
X141155173Y-119171395D01*
X141155170Y-119171406D01*
X141153603Y-119176917D01*
X141134785Y-119380000D01*
X140805215Y-119380000D01*
X140786397Y-119176917D01*
X140730582Y-118980750D01*
X140639673Y-118798179D01*
X140591176Y-118733959D01*
X140520221Y-118639998D01*
X140520217Y-118639994D01*
X140516764Y-118635421D01*
X140512527Y-118631558D01*
X140512523Y-118631554D01*
X140370275Y-118501879D01*
X140370276Y-118501879D01*
X140366041Y-118498019D01*
X140361171Y-118495004D01*
X140361169Y-118495002D01*
X140197511Y-118393670D01*
X140197512Y-118393670D01*
X140192637Y-118390652D01*
X140112356Y-118359551D01*
X140007803Y-118319047D01*
X140007798Y-118319045D01*
X140002456Y-118316976D01*
X139916029Y-118300820D01*
X139807605Y-118280552D01*
X139807602Y-118280551D01*
X139801976Y-118279500D01*
X139598024Y-118279500D01*
X139592398Y-118280551D01*
X139592394Y-118280552D01*
X139403181Y-118315922D01*
X139403178Y-118315922D01*
X139397544Y-118316976D01*
X139392203Y-118319044D01*
X139392196Y-118319047D01*
X139212705Y-118388582D01*
X139212700Y-118388584D01*
X139207363Y-118390652D01*
X139202491Y-118393668D01*
X139202488Y-118393670D01*
X139038830Y-118495002D01*
X139038822Y-118495007D01*
X139033959Y-118498019D01*
X139029728Y-118501875D01*
X139029724Y-118501879D01*
X138887476Y-118631554D01*
X138887466Y-118631564D01*
X138883236Y-118635421D01*
X138879787Y-118639987D01*
X138879778Y-118639998D01*
X138763779Y-118793607D01*
X138763776Y-118793611D01*
X138760327Y-118798179D01*
X138757774Y-118803304D01*
X138757772Y-118803309D01*
X138671976Y-118975612D01*
X138669418Y-118980750D01*
X138667850Y-118986258D01*
X138667847Y-118986268D01*
X138615173Y-119171395D01*
X138615170Y-119171406D01*
X138613603Y-119176917D01*
X138594785Y-119380000D01*
X138265215Y-119380000D01*
X138246397Y-119176917D01*
X138190582Y-118980750D01*
X138099673Y-118798179D01*
X138051176Y-118733959D01*
X137980221Y-118639998D01*
X137980217Y-118639994D01*
X137976764Y-118635421D01*
X137972527Y-118631558D01*
X137972523Y-118631554D01*
X137830275Y-118501879D01*
X137830276Y-118501879D01*
X137826041Y-118498019D01*
X137821171Y-118495004D01*
X137821169Y-118495002D01*
X137657511Y-118393670D01*
X137657512Y-118393670D01*
X137652637Y-118390652D01*
X137572356Y-118359551D01*
X137467803Y-118319047D01*
X137467798Y-118319045D01*
X137462456Y-118316976D01*
X137376029Y-118300820D01*
X137267605Y-118280552D01*
X137267602Y-118280551D01*
X137261976Y-118279500D01*
X137058024Y-118279500D01*
X137052398Y-118280551D01*
X137052394Y-118280552D01*
X136863181Y-118315922D01*
X136863178Y-118315922D01*
X136857544Y-118316976D01*
X136852203Y-118319044D01*
X136852196Y-118319047D01*
X136672705Y-118388582D01*
X136672700Y-118388584D01*
X136667363Y-118390652D01*
X136662491Y-118393668D01*
X136662488Y-118393670D01*
X136498830Y-118495002D01*
X136498822Y-118495007D01*
X136493959Y-118498019D01*
X136489728Y-118501875D01*
X136489724Y-118501879D01*
X136347476Y-118631554D01*
X136347466Y-118631564D01*
X136343236Y-118635421D01*
X136339787Y-118639987D01*
X136339778Y-118639998D01*
X136223779Y-118793607D01*
X136223776Y-118793611D01*
X136220327Y-118798179D01*
X136217774Y-118803304D01*
X136217772Y-118803309D01*
X136131976Y-118975612D01*
X136129418Y-118980750D01*
X136127850Y-118986258D01*
X136127847Y-118986268D01*
X136075173Y-119171395D01*
X136075170Y-119171406D01*
X136073603Y-119176917D01*
X136054785Y-119380000D01*
X135725215Y-119380000D01*
X135706397Y-119176917D01*
X135650582Y-118980750D01*
X135559673Y-118798179D01*
X135511176Y-118733959D01*
X135440221Y-118639998D01*
X135440217Y-118639994D01*
X135436764Y-118635421D01*
X135432527Y-118631558D01*
X135432523Y-118631554D01*
X135290275Y-118501879D01*
X135290276Y-118501879D01*
X135286041Y-118498019D01*
X135281171Y-118495004D01*
X135281169Y-118495002D01*
X135117511Y-118393670D01*
X135117512Y-118393670D01*
X135112637Y-118390652D01*
X135032356Y-118359551D01*
X134927803Y-118319047D01*
X134927798Y-118319045D01*
X134922456Y-118316976D01*
X134836029Y-118300820D01*
X134727605Y-118280552D01*
X134727602Y-118280551D01*
X134721976Y-118279500D01*
X134518024Y-118279500D01*
X134512398Y-118280551D01*
X134512394Y-118280552D01*
X134323181Y-118315922D01*
X134323178Y-118315922D01*
X134317544Y-118316976D01*
X134312203Y-118319044D01*
X134312196Y-118319047D01*
X134132705Y-118388582D01*
X134132700Y-118388584D01*
X134127363Y-118390652D01*
X134122491Y-118393668D01*
X134122488Y-118393670D01*
X133958830Y-118495002D01*
X133958822Y-118495007D01*
X133953959Y-118498019D01*
X133949728Y-118501875D01*
X133949724Y-118501879D01*
X133807476Y-118631554D01*
X133807466Y-118631564D01*
X133803236Y-118635421D01*
X133799787Y-118639987D01*
X133799778Y-118639998D01*
X133683779Y-118793607D01*
X133683776Y-118793611D01*
X133680327Y-118798179D01*
X133677774Y-118803304D01*
X133677772Y-118803309D01*
X133591976Y-118975612D01*
X133589418Y-118980750D01*
X133587850Y-118986258D01*
X133587847Y-118986268D01*
X133535173Y-119171395D01*
X133535170Y-119171406D01*
X133533603Y-119176917D01*
X133514785Y-119380000D01*
X133185215Y-119380000D01*
X133166397Y-119176917D01*
X133110582Y-118980750D01*
X133019673Y-118798179D01*
X132971176Y-118733959D01*
X132900221Y-118639998D01*
X132900217Y-118639994D01*
X132896764Y-118635421D01*
X132892527Y-118631558D01*
X132892523Y-118631554D01*
X132750275Y-118501879D01*
X132750276Y-118501879D01*
X132746041Y-118498019D01*
X132741171Y-118495004D01*
X132741169Y-118495002D01*
X132577511Y-118393670D01*
X132577512Y-118393670D01*
X132572637Y-118390652D01*
X132492356Y-118359551D01*
X132387803Y-118319047D01*
X132387798Y-118319045D01*
X132382456Y-118316976D01*
X132296029Y-118300820D01*
X132187605Y-118280552D01*
X132187602Y-118280551D01*
X132181976Y-118279500D01*
X131978024Y-118279500D01*
X131972398Y-118280551D01*
X131972394Y-118280552D01*
X131783181Y-118315922D01*
X131783178Y-118315922D01*
X131777544Y-118316976D01*
X131772203Y-118319044D01*
X131772196Y-118319047D01*
X131592705Y-118388582D01*
X131592700Y-118388584D01*
X131587363Y-118390652D01*
X131582491Y-118393668D01*
X131582488Y-118393670D01*
X131418830Y-118495002D01*
X131418822Y-118495007D01*
X131413959Y-118498019D01*
X131409728Y-118501875D01*
X131409724Y-118501879D01*
X131267476Y-118631554D01*
X131267466Y-118631564D01*
X131263236Y-118635421D01*
X131259787Y-118639987D01*
X131259778Y-118639998D01*
X131143779Y-118793607D01*
X131143776Y-118793611D01*
X131140327Y-118798179D01*
X131137774Y-118803304D01*
X131137772Y-118803309D01*
X131051976Y-118975612D01*
X131049418Y-118980750D01*
X131047850Y-118986258D01*
X131047847Y-118986268D01*
X130995173Y-119171395D01*
X130995170Y-119171406D01*
X130993603Y-119176917D01*
X130974785Y-119380000D01*
X130640500Y-119380000D01*
X130640500Y-118505326D01*
X130625966Y-118432260D01*
X130570601Y-118349399D01*
X130487740Y-118294034D01*
X130475762Y-118291651D01*
X130475759Y-118291650D01*
X130420653Y-118280689D01*
X130420649Y-118280688D01*
X130414674Y-118279500D01*
X128665326Y-118279500D01*
X128659351Y-118280688D01*
X128659346Y-118280689D01*
X128604240Y-118291650D01*
X128604235Y-118291651D01*
X128592260Y-118294034D01*
X128582105Y-118300819D01*
X128582103Y-118300820D01*
X128519551Y-118342615D01*
X128519548Y-118342617D01*
X128509399Y-118349399D01*
X128502617Y-118359548D01*
X128502615Y-118359551D01*
X128460820Y-118422103D01*
X128460819Y-118422105D01*
X128454034Y-118432260D01*
X128451651Y-118444235D01*
X128451650Y-118444240D01*
X128440689Y-118499346D01*
X128440688Y-118499351D01*
X128439500Y-118505326D01*
X128439500Y-120254674D01*
X121920500Y-120254674D01*
X121920500Y-114300000D01*
X123354785Y-114300000D01*
X123355314Y-114305709D01*
X123368942Y-114452789D01*
X123373603Y-114503083D01*
X123375171Y-114508594D01*
X123375173Y-114508604D01*
X123427847Y-114693731D01*
X123427849Y-114693737D01*
X123429418Y-114699250D01*
X123520327Y-114881821D01*
X123523779Y-114886392D01*
X123639778Y-115040001D01*
X123639783Y-115040006D01*
X123643236Y-115044579D01*
X123647472Y-115048440D01*
X123647476Y-115048445D01*
X123735848Y-115129006D01*
X123793959Y-115181981D01*
X123967363Y-115289348D01*
X123972704Y-115291417D01*
X123972708Y-115291419D01*
X124019885Y-115309695D01*
X124058479Y-115324646D01*
X124111702Y-115364320D01*
X124136834Y-115425761D01*
X124126672Y-115491362D01*
X124087439Y-115538355D01*
X124087760Y-115538717D01*
X124085370Y-115540833D01*
X124085365Y-115540838D01*
X124082153Y-115543683D01*
X124082149Y-115543687D01*
X123975127Y-115638499D01*
X123975122Y-115638503D01*
X123969517Y-115643470D01*
X123965262Y-115649634D01*
X123965257Y-115649640D01*
X123884043Y-115767300D01*
X123884040Y-115767303D01*
X123879780Y-115773477D01*
X123877120Y-115780488D01*
X123877118Y-115780494D01*
X123835282Y-115890808D01*
X123823763Y-115921182D01*
X123822859Y-115928622D01*
X123822858Y-115928629D01*
X123810411Y-116031148D01*
X123804722Y-116078000D01*
X123805626Y-116085445D01*
X123822858Y-116227370D01*
X123822859Y-116227375D01*
X123823763Y-116234818D01*
X123826422Y-116241831D01*
X123826423Y-116241832D01*
X123867962Y-116351363D01*
X123879780Y-116382523D01*
X123884043Y-116388699D01*
X123965256Y-116506358D01*
X123969517Y-116512530D01*
X123975126Y-116517499D01*
X123975127Y-116517500D01*
X124074968Y-116605951D01*
X124087760Y-116617283D01*
X124227635Y-116690696D01*
X124381015Y-116728500D01*
X124531485Y-116728500D01*
X124538985Y-116728500D01*
X124692365Y-116690696D01*
X124832240Y-116617283D01*
X124950483Y-116512530D01*
X125040220Y-116382523D01*
X125096237Y-116234818D01*
X125115278Y-116078000D01*
X126852722Y-116078000D01*
X126853626Y-116085445D01*
X126870858Y-116227370D01*
X126870859Y-116227375D01*
X126871763Y-116234818D01*
X126874422Y-116241831D01*
X126874423Y-116241832D01*
X126915962Y-116351363D01*
X126927780Y-116382523D01*
X126932043Y-116388699D01*
X127013256Y-116506358D01*
X127017517Y-116512530D01*
X127023126Y-116517499D01*
X127023127Y-116517500D01*
X127122968Y-116605951D01*
X127135760Y-116617283D01*
X127275635Y-116690696D01*
X127429015Y-116728500D01*
X127579485Y-116728500D01*
X127586985Y-116728500D01*
X127740365Y-116690696D01*
X127880240Y-116617283D01*
X127998483Y-116512530D01*
X128088220Y-116382523D01*
X128144237Y-116234818D01*
X128163278Y-116078000D01*
X128144237Y-115921182D01*
X128088220Y-115773477D01*
X127998483Y-115643470D01*
X127985201Y-115631703D01*
X127885856Y-115543692D01*
X127885852Y-115543689D01*
X127880240Y-115538717D01*
X127873595Y-115535229D01*
X127873593Y-115535228D01*
X127747006Y-115468789D01*
X127747002Y-115468787D01*
X127740365Y-115465304D01*
X127733087Y-115463510D01*
X127733084Y-115463509D01*
X127594267Y-115429294D01*
X127594260Y-115429293D01*
X127586985Y-115427500D01*
X127429015Y-115427500D01*
X127421740Y-115429292D01*
X127421732Y-115429294D01*
X127282915Y-115463509D01*
X127282909Y-115463510D01*
X127275635Y-115465304D01*
X127269000Y-115468786D01*
X127268993Y-115468789D01*
X127142406Y-115535228D01*
X127142400Y-115535231D01*
X127135760Y-115538717D01*
X127130148Y-115543687D01*
X127130143Y-115543692D01*
X127023127Y-115638499D01*
X127023122Y-115638503D01*
X127017517Y-115643470D01*
X127013262Y-115649634D01*
X127013257Y-115649640D01*
X126932043Y-115767300D01*
X126932040Y-115767303D01*
X126927780Y-115773477D01*
X126925120Y-115780488D01*
X126925118Y-115780494D01*
X126883282Y-115890808D01*
X126871763Y-115921182D01*
X126870859Y-115928622D01*
X126870858Y-115928629D01*
X126858411Y-116031148D01*
X126852722Y-116078000D01*
X125115278Y-116078000D01*
X125096237Y-115921182D01*
X125040220Y-115773477D01*
X124950483Y-115643470D01*
X124928398Y-115623905D01*
X124858224Y-115561737D01*
X124832240Y-115538717D01*
X124832240Y-115538716D01*
X124832560Y-115538354D01*
X124793329Y-115491367D01*
X124783165Y-115425765D01*
X124808296Y-115364321D01*
X124861518Y-115324647D01*
X124952637Y-115289348D01*
X125126041Y-115181981D01*
X125276764Y-115044579D01*
X125399673Y-114881821D01*
X125490582Y-114699250D01*
X125546397Y-114503083D01*
X125565215Y-114300000D01*
X125546397Y-114096917D01*
X125535397Y-114058258D01*
X125492152Y-113906268D01*
X125490582Y-113900750D01*
X125399673Y-113718179D01*
X125342671Y-113642696D01*
X125280221Y-113559998D01*
X125280217Y-113559994D01*
X125276764Y-113555421D01*
X125272527Y-113551558D01*
X125272523Y-113551554D01*
X125130275Y-113421879D01*
X125130276Y-113421879D01*
X125126041Y-113418019D01*
X125121171Y-113415004D01*
X125121169Y-113415002D01*
X124991190Y-113334523D01*
X124952637Y-113310652D01*
X124902689Y-113291302D01*
X124767803Y-113239047D01*
X124767798Y-113239045D01*
X124762456Y-113236976D01*
X124756818Y-113235922D01*
X124567605Y-113200552D01*
X124567602Y-113200551D01*
X124561976Y-113199500D01*
X124358024Y-113199500D01*
X124352398Y-113200551D01*
X124352394Y-113200552D01*
X124163181Y-113235922D01*
X124163178Y-113235922D01*
X124157544Y-113236976D01*
X124152203Y-113239044D01*
X124152196Y-113239047D01*
X123972705Y-113308582D01*
X123972700Y-113308584D01*
X123967363Y-113310652D01*
X123962491Y-113313668D01*
X123962488Y-113313670D01*
X123798830Y-113415002D01*
X123798822Y-113415007D01*
X123793959Y-113418019D01*
X123789728Y-113421875D01*
X123789724Y-113421879D01*
X123647476Y-113551554D01*
X123647466Y-113551564D01*
X123643236Y-113555421D01*
X123639787Y-113559987D01*
X123639778Y-113559998D01*
X123523779Y-113713607D01*
X123523776Y-113713611D01*
X123520327Y-113718179D01*
X123517774Y-113723304D01*
X123517772Y-113723309D01*
X123431976Y-113895612D01*
X123429418Y-113900750D01*
X123427850Y-113906258D01*
X123427847Y-113906268D01*
X123375173Y-114091395D01*
X123375170Y-114091406D01*
X123373603Y-114096917D01*
X123373073Y-114102627D01*
X123373073Y-114102632D01*
X123359780Y-114246093D01*
X123354785Y-114300000D01*
X121920500Y-114300000D01*
X121920500Y-113030000D01*
X128376722Y-113030000D01*
X128377626Y-113037445D01*
X128394858Y-113179370D01*
X128394859Y-113179375D01*
X128395763Y-113186818D01*
X128398422Y-113193831D01*
X128398423Y-113193832D01*
X128449116Y-113327500D01*
X128451780Y-113334523D01*
X128456043Y-113340699D01*
X128525149Y-113440818D01*
X128541517Y-113464530D01*
X128547126Y-113469499D01*
X128547127Y-113469500D01*
X128646283Y-113557344D01*
X128659760Y-113569283D01*
X128799635Y-113642696D01*
X128953015Y-113680500D01*
X129103485Y-113680500D01*
X129110985Y-113680500D01*
X129264365Y-113642696D01*
X129404240Y-113569283D01*
X129522483Y-113464530D01*
X129612220Y-113334523D01*
X129668237Y-113186818D01*
X129687278Y-113030000D01*
X129668237Y-112873182D01*
X129612220Y-112725477D01*
X129522483Y-112595470D01*
X129503552Y-112578699D01*
X129409856Y-112495692D01*
X129409854Y-112495690D01*
X129404240Y-112490717D01*
X129397595Y-112487229D01*
X129397593Y-112487228D01*
X129271006Y-112420789D01*
X129271002Y-112420787D01*
X129264365Y-112417304D01*
X129257087Y-112415510D01*
X129257084Y-112415509D01*
X129118267Y-112381294D01*
X129118260Y-112381293D01*
X129110985Y-112379500D01*
X128953015Y-112379500D01*
X128945740Y-112381292D01*
X128945732Y-112381294D01*
X128806915Y-112415509D01*
X128806909Y-112415510D01*
X128799635Y-112417304D01*
X128793000Y-112420786D01*
X128792993Y-112420789D01*
X128666406Y-112487228D01*
X128666400Y-112487231D01*
X128659760Y-112490717D01*
X128654148Y-112495687D01*
X128654143Y-112495692D01*
X128547127Y-112590499D01*
X128547122Y-112590503D01*
X128541517Y-112595470D01*
X128537262Y-112601634D01*
X128537257Y-112601640D01*
X128456043Y-112719300D01*
X128456040Y-112719303D01*
X128451780Y-112725477D01*
X128449120Y-112732488D01*
X128449118Y-112732494D01*
X128400113Y-112861711D01*
X128395763Y-112873182D01*
X128394859Y-112880622D01*
X128394858Y-112880629D01*
X128378070Y-113018896D01*
X128376722Y-113030000D01*
X121920500Y-113030000D01*
X121920500Y-112628528D01*
X123360000Y-112628528D01*
X123361189Y-112640604D01*
X123372122Y-112695566D01*
X123381289Y-112717699D01*
X123422975Y-112780086D01*
X123439913Y-112797024D01*
X123502300Y-112838710D01*
X123524433Y-112847877D01*
X123579395Y-112858810D01*
X123591472Y-112860000D01*
X124318674Y-112860000D01*
X124331549Y-112856549D01*
X124335000Y-112843674D01*
X124585000Y-112843674D01*
X124588450Y-112856549D01*
X124601326Y-112860000D01*
X125328528Y-112860000D01*
X125340604Y-112858810D01*
X125395566Y-112847877D01*
X125417699Y-112838710D01*
X125480086Y-112797024D01*
X125497024Y-112780086D01*
X125538710Y-112717699D01*
X125547877Y-112695566D01*
X125558810Y-112640604D01*
X125560000Y-112628528D01*
X125560000Y-111901326D01*
X125556549Y-111888450D01*
X125543674Y-111885000D01*
X124601326Y-111885000D01*
X124588450Y-111888450D01*
X124585000Y-111901326D01*
X124585000Y-112843674D01*
X124335000Y-112843674D01*
X124335000Y-111901326D01*
X124331549Y-111888450D01*
X124318674Y-111885000D01*
X123376326Y-111885000D01*
X123363450Y-111888450D01*
X123360000Y-111901326D01*
X123360000Y-112628528D01*
X121920500Y-112628528D01*
X121920500Y-111618674D01*
X123360000Y-111618674D01*
X123363450Y-111631549D01*
X123376326Y-111635000D01*
X124318674Y-111635000D01*
X124331549Y-111631549D01*
X124335000Y-111618674D01*
X124585000Y-111618674D01*
X124588450Y-111631549D01*
X124601326Y-111635000D01*
X125543674Y-111635000D01*
X125556549Y-111631549D01*
X125560000Y-111618674D01*
X125560000Y-111506000D01*
X126852722Y-111506000D01*
X126853626Y-111513445D01*
X126870858Y-111655370D01*
X126870859Y-111655375D01*
X126871763Y-111662818D01*
X126874422Y-111669831D01*
X126874423Y-111669832D01*
X126911442Y-111767445D01*
X126927780Y-111810523D01*
X126932043Y-111816699D01*
X127001149Y-111916818D01*
X127017517Y-111940530D01*
X127135760Y-112045283D01*
X127275635Y-112118696D01*
X127429015Y-112156500D01*
X127579485Y-112156500D01*
X127586985Y-112156500D01*
X127740365Y-112118696D01*
X127880240Y-112045283D01*
X127998483Y-111940530D01*
X128088220Y-111810523D01*
X128144237Y-111662818D01*
X128163278Y-111506000D01*
X128144237Y-111349182D01*
X128088220Y-111201477D01*
X127998483Y-111071470D01*
X127930128Y-111010913D01*
X127885856Y-110971692D01*
X127885854Y-110971690D01*
X127880240Y-110966717D01*
X127873595Y-110963229D01*
X127873593Y-110963228D01*
X127747006Y-110896789D01*
X127747002Y-110896787D01*
X127740365Y-110893304D01*
X127733087Y-110891510D01*
X127733084Y-110891509D01*
X127594267Y-110857294D01*
X127594260Y-110857293D01*
X127586985Y-110855500D01*
X127429015Y-110855500D01*
X127421740Y-110857292D01*
X127421732Y-110857294D01*
X127282915Y-110891509D01*
X127282909Y-110891510D01*
X127275635Y-110893304D01*
X127269000Y-110896786D01*
X127268993Y-110896789D01*
X127142406Y-110963228D01*
X127142400Y-110963231D01*
X127135760Y-110966717D01*
X127130148Y-110971687D01*
X127130143Y-110971692D01*
X127023127Y-111066499D01*
X127023122Y-111066503D01*
X127017517Y-111071470D01*
X127013262Y-111077634D01*
X127013257Y-111077640D01*
X126932043Y-111195300D01*
X126932040Y-111195303D01*
X126927780Y-111201477D01*
X126925120Y-111208488D01*
X126925118Y-111208494D01*
X126874423Y-111342167D01*
X126871763Y-111349182D01*
X126870859Y-111356622D01*
X126870858Y-111356629D01*
X126854070Y-111494896D01*
X126852722Y-111506000D01*
X125560000Y-111506000D01*
X125560000Y-110891472D01*
X125558810Y-110879395D01*
X125547877Y-110824433D01*
X125538710Y-110802300D01*
X125497024Y-110739913D01*
X125480086Y-110722975D01*
X125417699Y-110681289D01*
X125395566Y-110672122D01*
X125340604Y-110661189D01*
X125328528Y-110660000D01*
X124601326Y-110660000D01*
X124588450Y-110663450D01*
X124585000Y-110676326D01*
X124585000Y-111618674D01*
X124335000Y-111618674D01*
X124335000Y-110676326D01*
X124331549Y-110663450D01*
X124318674Y-110660000D01*
X123591472Y-110660000D01*
X123579395Y-110661189D01*
X123524433Y-110672122D01*
X123502300Y-110681289D01*
X123439913Y-110722975D01*
X123422975Y-110739913D01*
X123381289Y-110802300D01*
X123372122Y-110824433D01*
X123361189Y-110879395D01*
X123360000Y-110891472D01*
X123360000Y-111618674D01*
X121920500Y-111618674D01*
X121920500Y-109220000D01*
X123354785Y-109220000D01*
X123355314Y-109225709D01*
X123371973Y-109405500D01*
X123373603Y-109423083D01*
X123375171Y-109428594D01*
X123375173Y-109428604D01*
X123427847Y-109613731D01*
X123427849Y-109613737D01*
X123429418Y-109619250D01*
X123446985Y-109654530D01*
X123512831Y-109786768D01*
X123520327Y-109801821D01*
X123524721Y-109807640D01*
X123639778Y-109960001D01*
X123639783Y-109960006D01*
X123643236Y-109964579D01*
X123647472Y-109968440D01*
X123647476Y-109968445D01*
X123708718Y-110024274D01*
X123793959Y-110101981D01*
X123967363Y-110209348D01*
X124157544Y-110283024D01*
X124358024Y-110320500D01*
X124556247Y-110320500D01*
X124561976Y-110320500D01*
X124762456Y-110283024D01*
X124883840Y-110236000D01*
X129646722Y-110236000D01*
X129647626Y-110243445D01*
X129664858Y-110385370D01*
X129664859Y-110385375D01*
X129665763Y-110392818D01*
X129721780Y-110540523D01*
X129726043Y-110546699D01*
X129804248Y-110660000D01*
X129811517Y-110670530D01*
X129817126Y-110675499D01*
X129817127Y-110675500D01*
X129873851Y-110725753D01*
X129929760Y-110775283D01*
X130069635Y-110848696D01*
X130223015Y-110886500D01*
X130230515Y-110886500D01*
X130248126Y-110886500D01*
X130310126Y-110903113D01*
X130355513Y-110948500D01*
X130368853Y-110998287D01*
X130371222Y-110998000D01*
X130389358Y-111147370D01*
X130389359Y-111147375D01*
X130390263Y-111154818D01*
X130392922Y-111161831D01*
X130392923Y-111161832D01*
X130417593Y-111226883D01*
X130446280Y-111302523D01*
X130450543Y-111308699D01*
X130483626Y-111356629D01*
X130536017Y-111432530D01*
X130654260Y-111537283D01*
X130794135Y-111610696D01*
X130947515Y-111648500D01*
X131097985Y-111648500D01*
X131105485Y-111648500D01*
X131258865Y-111610696D01*
X131398740Y-111537283D01*
X131516983Y-111432530D01*
X131606720Y-111302523D01*
X131662737Y-111154818D01*
X131681778Y-110998000D01*
X131662737Y-110841182D01*
X131606720Y-110693477D01*
X131516983Y-110563470D01*
X131398740Y-110458717D01*
X131392095Y-110455229D01*
X131392093Y-110455228D01*
X131265506Y-110388789D01*
X131265502Y-110388787D01*
X131258865Y-110385304D01*
X131251587Y-110383510D01*
X131251584Y-110383509D01*
X131112767Y-110349294D01*
X131112760Y-110349293D01*
X131105485Y-110347500D01*
X131080374Y-110347500D01*
X131018374Y-110330887D01*
X130972987Y-110285500D01*
X130959646Y-110235712D01*
X130957278Y-110236000D01*
X130938237Y-110079182D01*
X130882220Y-109931477D01*
X130814037Y-109832696D01*
X130796742Y-109807640D01*
X130796741Y-109807639D01*
X130792483Y-109801470D01*
X130762918Y-109775278D01*
X130679856Y-109701692D01*
X130679854Y-109701690D01*
X130674240Y-109696717D01*
X130667595Y-109693229D01*
X130667593Y-109693228D01*
X130541006Y-109626789D01*
X130541002Y-109626787D01*
X130534365Y-109623304D01*
X130527087Y-109621510D01*
X130527084Y-109621509D01*
X130388267Y-109587294D01*
X130388260Y-109587293D01*
X130380985Y-109585500D01*
X130223015Y-109585500D01*
X130215740Y-109587292D01*
X130215732Y-109587294D01*
X130076915Y-109621509D01*
X130076909Y-109621510D01*
X130069635Y-109623304D01*
X130063000Y-109626786D01*
X130062993Y-109626789D01*
X129936406Y-109693228D01*
X129936400Y-109693231D01*
X129929760Y-109696717D01*
X129924148Y-109701687D01*
X129924143Y-109701692D01*
X129817127Y-109796499D01*
X129817122Y-109796503D01*
X129811517Y-109801470D01*
X129807262Y-109807634D01*
X129807257Y-109807640D01*
X129726043Y-109925300D01*
X129726040Y-109925303D01*
X129721780Y-109931477D01*
X129719120Y-109938488D01*
X129719118Y-109938494D01*
X129669687Y-110068834D01*
X129665763Y-110079182D01*
X129664859Y-110086622D01*
X129664858Y-110086629D01*
X129651652Y-110195398D01*
X129646722Y-110236000D01*
X124883840Y-110236000D01*
X124952637Y-110209348D01*
X125126041Y-110101981D01*
X125276764Y-109964579D01*
X125399673Y-109801821D01*
X125407168Y-109786766D01*
X125443088Y-109743350D01*
X125494515Y-109720311D01*
X125550826Y-109722411D01*
X125600394Y-109749215D01*
X125606139Y-109754304D01*
X125606142Y-109754306D01*
X125611760Y-109759283D01*
X125751635Y-109832696D01*
X125905015Y-109870500D01*
X126055485Y-109870500D01*
X126062985Y-109870500D01*
X126216365Y-109832696D01*
X126356240Y-109759283D01*
X126474483Y-109654530D01*
X126564220Y-109524523D01*
X126620237Y-109376818D01*
X126639278Y-109220000D01*
X126620237Y-109063182D01*
X126564220Y-108915477D01*
X126495990Y-108816629D01*
X126478742Y-108791640D01*
X126478741Y-108791639D01*
X126474483Y-108785470D01*
X126440659Y-108755505D01*
X126361856Y-108685692D01*
X126361854Y-108685690D01*
X126356240Y-108680717D01*
X126349595Y-108677229D01*
X126349593Y-108677228D01*
X126223006Y-108610789D01*
X126223002Y-108610787D01*
X126216365Y-108607304D01*
X126209087Y-108605510D01*
X126209084Y-108605509D01*
X126070267Y-108571294D01*
X126070260Y-108571293D01*
X126062985Y-108569500D01*
X125905015Y-108569500D01*
X125897740Y-108571292D01*
X125897732Y-108571294D01*
X125758915Y-108605509D01*
X125758909Y-108605510D01*
X125751635Y-108607304D01*
X125745000Y-108610786D01*
X125744993Y-108610789D01*
X125618406Y-108677228D01*
X125618400Y-108677231D01*
X125611760Y-108680717D01*
X125606147Y-108685688D01*
X125606139Y-108685695D01*
X125600390Y-108690788D01*
X125550823Y-108717589D01*
X125494513Y-108719687D01*
X125443089Y-108696650D01*
X125407169Y-108653234D01*
X125399673Y-108638179D01*
X125376407Y-108607370D01*
X125280221Y-108479998D01*
X125280217Y-108479994D01*
X125276764Y-108475421D01*
X125272527Y-108471558D01*
X125272523Y-108471554D01*
X125132817Y-108344196D01*
X125126041Y-108338019D01*
X125121171Y-108335004D01*
X125121169Y-108335002D01*
X124957511Y-108233670D01*
X124957512Y-108233670D01*
X124952637Y-108230652D01*
X124903058Y-108211445D01*
X124883840Y-108204000D01*
X128376722Y-108204000D01*
X128377626Y-108211445D01*
X128394858Y-108353370D01*
X128394859Y-108353375D01*
X128395763Y-108360818D01*
X128398422Y-108367831D01*
X128398423Y-108367832D01*
X128439245Y-108475473D01*
X128451780Y-108508523D01*
X128456043Y-108514699D01*
X128531006Y-108623303D01*
X128541517Y-108638530D01*
X128547126Y-108643499D01*
X128547127Y-108643500D01*
X128645837Y-108730949D01*
X128659760Y-108743283D01*
X128799635Y-108816696D01*
X128953015Y-108854500D01*
X129103485Y-108854500D01*
X129110985Y-108854500D01*
X129264365Y-108816696D01*
X129404240Y-108743283D01*
X129522483Y-108638530D01*
X129612220Y-108508523D01*
X129631381Y-108458000D01*
X131170722Y-108458000D01*
X131171626Y-108465445D01*
X131188858Y-108607370D01*
X131188859Y-108607375D01*
X131189763Y-108614818D01*
X131192422Y-108621831D01*
X131192423Y-108621832D01*
X131240976Y-108749858D01*
X131245780Y-108762523D01*
X131250043Y-108768699D01*
X131302403Y-108844557D01*
X131335517Y-108892530D01*
X131341126Y-108897499D01*
X131341127Y-108897500D01*
X131396580Y-108946627D01*
X131453760Y-108997283D01*
X131593635Y-109070696D01*
X131747015Y-109108500D01*
X131897485Y-109108500D01*
X131904985Y-109108500D01*
X132058365Y-109070696D01*
X132198240Y-108997283D01*
X132316483Y-108892530D01*
X132406220Y-108762523D01*
X132462237Y-108614818D01*
X132481278Y-108458000D01*
X132462237Y-108301182D01*
X132406220Y-108153477D01*
X132316483Y-108023470D01*
X132198240Y-107918717D01*
X132191595Y-107915229D01*
X132191593Y-107915228D01*
X132065006Y-107848789D01*
X132065002Y-107848787D01*
X132058365Y-107845304D01*
X132051087Y-107843510D01*
X132051084Y-107843509D01*
X131912267Y-107809294D01*
X131912260Y-107809293D01*
X131904985Y-107807500D01*
X131747015Y-107807500D01*
X131739740Y-107809292D01*
X131739732Y-107809294D01*
X131600915Y-107843509D01*
X131600909Y-107843510D01*
X131593635Y-107845304D01*
X131587000Y-107848786D01*
X131586993Y-107848789D01*
X131460406Y-107915228D01*
X131460400Y-107915231D01*
X131453760Y-107918717D01*
X131448148Y-107923687D01*
X131448143Y-107923692D01*
X131341127Y-108018499D01*
X131341122Y-108018503D01*
X131335517Y-108023470D01*
X131331262Y-108029634D01*
X131331257Y-108029640D01*
X131250043Y-108147300D01*
X131250040Y-108147303D01*
X131245780Y-108153477D01*
X131243120Y-108160488D01*
X131243118Y-108160494D01*
X131194756Y-108288016D01*
X131189763Y-108301182D01*
X131188859Y-108308622D01*
X131188858Y-108308629D01*
X131174520Y-108426717D01*
X131170722Y-108458000D01*
X129631381Y-108458000D01*
X129668237Y-108360818D01*
X129687278Y-108204000D01*
X129668237Y-108047182D01*
X129612220Y-107899477D01*
X129533888Y-107785993D01*
X129526742Y-107775640D01*
X129526741Y-107775639D01*
X129522483Y-107769470D01*
X129510867Y-107759179D01*
X129409856Y-107669692D01*
X129409854Y-107669690D01*
X129404240Y-107664717D01*
X129397595Y-107661229D01*
X129397593Y-107661228D01*
X129271006Y-107594789D01*
X129271002Y-107594787D01*
X129264365Y-107591304D01*
X129257087Y-107589510D01*
X129257084Y-107589509D01*
X129118267Y-107555294D01*
X129118260Y-107555293D01*
X129110985Y-107553500D01*
X128953015Y-107553500D01*
X128945740Y-107555292D01*
X128945732Y-107555294D01*
X128806915Y-107589509D01*
X128806909Y-107589510D01*
X128799635Y-107591304D01*
X128793000Y-107594786D01*
X128792993Y-107594789D01*
X128666406Y-107661228D01*
X128666400Y-107661231D01*
X128659760Y-107664717D01*
X128654148Y-107669687D01*
X128654143Y-107669692D01*
X128547127Y-107764499D01*
X128547122Y-107764503D01*
X128541517Y-107769470D01*
X128537262Y-107775634D01*
X128537257Y-107775640D01*
X128456043Y-107893300D01*
X128456040Y-107893303D01*
X128451780Y-107899477D01*
X128449120Y-107906488D01*
X128449118Y-107906494D01*
X128398423Y-108040167D01*
X128395763Y-108047182D01*
X128394859Y-108054622D01*
X128394858Y-108054629D01*
X128381773Y-108162400D01*
X128376722Y-108204000D01*
X124883840Y-108204000D01*
X124767803Y-108159047D01*
X124767798Y-108159045D01*
X124762456Y-108156976D01*
X124710694Y-108147300D01*
X124567605Y-108120552D01*
X124567602Y-108120551D01*
X124561976Y-108119500D01*
X124358024Y-108119500D01*
X124352398Y-108120551D01*
X124352394Y-108120552D01*
X124163181Y-108155922D01*
X124163178Y-108155922D01*
X124157544Y-108156976D01*
X124152203Y-108159044D01*
X124152196Y-108159047D01*
X123972705Y-108228582D01*
X123972700Y-108228584D01*
X123967363Y-108230652D01*
X123962491Y-108233668D01*
X123962488Y-108233670D01*
X123798830Y-108335002D01*
X123798822Y-108335007D01*
X123793959Y-108338019D01*
X123789728Y-108341875D01*
X123789724Y-108341879D01*
X123647476Y-108471554D01*
X123647466Y-108471564D01*
X123643236Y-108475421D01*
X123639787Y-108479987D01*
X123639778Y-108479998D01*
X123523779Y-108633607D01*
X123523776Y-108633611D01*
X123520327Y-108638179D01*
X123517774Y-108643304D01*
X123517772Y-108643309D01*
X123439535Y-108800432D01*
X123429418Y-108820750D01*
X123427850Y-108826258D01*
X123427847Y-108826268D01*
X123375173Y-109011395D01*
X123375172Y-109011402D01*
X123373603Y-109016917D01*
X123373073Y-109022627D01*
X123373073Y-109022632D01*
X123361453Y-109148039D01*
X123354785Y-109220000D01*
X121920500Y-109220000D01*
X121920500Y-107548528D01*
X123360000Y-107548528D01*
X123361189Y-107560604D01*
X123372122Y-107615566D01*
X123381289Y-107637699D01*
X123422975Y-107700086D01*
X123439913Y-107717024D01*
X123502300Y-107758710D01*
X123524433Y-107767877D01*
X123579395Y-107778810D01*
X123591472Y-107780000D01*
X124318674Y-107780000D01*
X124331549Y-107776549D01*
X124335000Y-107763674D01*
X124585000Y-107763674D01*
X124588450Y-107776549D01*
X124601326Y-107780000D01*
X125328528Y-107780000D01*
X125340604Y-107778810D01*
X125395566Y-107767877D01*
X125417699Y-107758710D01*
X125480086Y-107717024D01*
X125497024Y-107700086D01*
X125538710Y-107637699D01*
X125547877Y-107615566D01*
X125558810Y-107560604D01*
X125560000Y-107548528D01*
X125560000Y-106821326D01*
X125556549Y-106808450D01*
X125543674Y-106805000D01*
X124601326Y-106805000D01*
X124588450Y-106808450D01*
X124585000Y-106821326D01*
X124585000Y-107763674D01*
X124335000Y-107763674D01*
X124335000Y-106821326D01*
X124331549Y-106808450D01*
X124318674Y-106805000D01*
X123376326Y-106805000D01*
X123363450Y-106808450D01*
X123360000Y-106821326D01*
X123360000Y-107548528D01*
X121920500Y-107548528D01*
X121920500Y-106538674D01*
X123360000Y-106538674D01*
X123363450Y-106551549D01*
X123376326Y-106555000D01*
X124318674Y-106555000D01*
X124331549Y-106551549D01*
X124335000Y-106538674D01*
X124585000Y-106538674D01*
X124588450Y-106551549D01*
X124601326Y-106555000D01*
X125543674Y-106555000D01*
X125556549Y-106551549D01*
X125560000Y-106538674D01*
X125560000Y-105811472D01*
X125558810Y-105799395D01*
X125547877Y-105744433D01*
X125538710Y-105722300D01*
X125497024Y-105659913D01*
X125480086Y-105642975D01*
X125417699Y-105601289D01*
X125395566Y-105592122D01*
X125340604Y-105581189D01*
X125328528Y-105580000D01*
X124601326Y-105580000D01*
X124588450Y-105583450D01*
X124585000Y-105596326D01*
X124585000Y-106538674D01*
X124335000Y-106538674D01*
X124335000Y-105596326D01*
X124331549Y-105583450D01*
X124318674Y-105580000D01*
X123591472Y-105580000D01*
X123579395Y-105581189D01*
X123524433Y-105592122D01*
X123502300Y-105601289D01*
X123439913Y-105642975D01*
X123422975Y-105659913D01*
X123381289Y-105722300D01*
X123372122Y-105744433D01*
X123361189Y-105799395D01*
X123360000Y-105811472D01*
X123360000Y-106538674D01*
X121920500Y-106538674D01*
X121920500Y-103764811D01*
X127372644Y-103764811D01*
X127380456Y-103776099D01*
X127425115Y-103812749D01*
X127435206Y-103819492D01*
X127606865Y-103911245D01*
X127618065Y-103915884D01*
X127804333Y-103972388D01*
X127816228Y-103974754D01*
X128009939Y-103993833D01*
X128022061Y-103993833D01*
X128215771Y-103974754D01*
X128227666Y-103972388D01*
X128413934Y-103915884D01*
X128425134Y-103911245D01*
X128596795Y-103819491D01*
X128606883Y-103812749D01*
X128651541Y-103776100D01*
X128659354Y-103764810D01*
X128652687Y-103752813D01*
X128027542Y-103127668D01*
X128015999Y-103121004D01*
X128004457Y-103127668D01*
X127379312Y-103752812D01*
X127372644Y-103764811D01*
X121920500Y-103764811D01*
X121920500Y-102945410D01*
X126961516Y-102945410D01*
X126980594Y-103139120D01*
X126982960Y-103151015D01*
X127039464Y-103337283D01*
X127044103Y-103348483D01*
X127135856Y-103520142D01*
X127142599Y-103530234D01*
X127179248Y-103574891D01*
X127190536Y-103582703D01*
X127202535Y-103576035D01*
X127827680Y-102950891D01*
X127834344Y-102939349D01*
X128197655Y-102939349D01*
X128204319Y-102950891D01*
X128829464Y-103576036D01*
X128841461Y-103582703D01*
X128852751Y-103574890D01*
X128889400Y-103530232D01*
X128896142Y-103520144D01*
X128987896Y-103348483D01*
X128992535Y-103337283D01*
X129049039Y-103151015D01*
X129051405Y-103139120D01*
X129070484Y-102945410D01*
X129070484Y-102933288D01*
X129051405Y-102739577D01*
X129049039Y-102727682D01*
X128992535Y-102541414D01*
X128987896Y-102530214D01*
X128896143Y-102358555D01*
X128889400Y-102348464D01*
X128852750Y-102303805D01*
X128841462Y-102295993D01*
X128829463Y-102302661D01*
X128204319Y-102927806D01*
X128197655Y-102939349D01*
X127834344Y-102939349D01*
X127827680Y-102927806D01*
X127202535Y-102302661D01*
X127190536Y-102295993D01*
X127179247Y-102303807D01*
X127142599Y-102348464D01*
X127135858Y-102358552D01*
X127044103Y-102530214D01*
X127039464Y-102541414D01*
X126982960Y-102727682D01*
X126980594Y-102739577D01*
X126961516Y-102933288D01*
X126961516Y-102945410D01*
X121920500Y-102945410D01*
X121920500Y-102113885D01*
X127372644Y-102113885D01*
X127379312Y-102125884D01*
X128004457Y-102751029D01*
X128016000Y-102757693D01*
X128027542Y-102751029D01*
X128652686Y-102125884D01*
X128659354Y-102113885D01*
X128651542Y-102102597D01*
X128606885Y-102065948D01*
X128596793Y-102059205D01*
X128425134Y-101967452D01*
X128413934Y-101962813D01*
X128227666Y-101906309D01*
X128215771Y-101903943D01*
X128022061Y-101884865D01*
X128009939Y-101884865D01*
X127816228Y-101903943D01*
X127804333Y-101906309D01*
X127618065Y-101962813D01*
X127606865Y-101967452D01*
X127435203Y-102059207D01*
X127425115Y-102065948D01*
X127380458Y-102102596D01*
X127372644Y-102113885D01*
X121920500Y-102113885D01*
X121920500Y-100264023D01*
X126965500Y-100264023D01*
X126966688Y-100269998D01*
X126966689Y-100270002D01*
X126977650Y-100325108D01*
X126977651Y-100325111D01*
X126980034Y-100337089D01*
X127035399Y-100419950D01*
X127118260Y-100475315D01*
X127191326Y-100489849D01*
X128800658Y-100489849D01*
X128800658Y-100489970D01*
X128800920Y-100489911D01*
X128803211Y-100490459D01*
X128807779Y-100489849D01*
X128840674Y-100489849D01*
X128913740Y-100475315D01*
X128952739Y-100449256D01*
X128962159Y-100443552D01*
X128985558Y-100430770D01*
X129172777Y-100278260D01*
X129227196Y-100252724D01*
X129287231Y-100255783D01*
X129338773Y-100286719D01*
X133094257Y-104042203D01*
X133108621Y-104059437D01*
X133113517Y-104066530D01*
X133119126Y-104071499D01*
X133119127Y-104071500D01*
X133155133Y-104103398D01*
X133160587Y-104108533D01*
X133172965Y-104120911D01*
X133179547Y-104126016D01*
X133181595Y-104127751D01*
X133181605Y-104127739D01*
X133185155Y-104130569D01*
X133188486Y-104133649D01*
X133191373Y-104135624D01*
X133194027Y-104137854D01*
X133231760Y-104171283D01*
X133238402Y-104174769D01*
X133241045Y-104176156D01*
X133259422Y-104187974D01*
X133270236Y-104196362D01*
X133277400Y-104199462D01*
X133286253Y-104203293D01*
X133307029Y-104214757D01*
X133840619Y-104579844D01*
X133840138Y-104580546D01*
X133859214Y-104595028D01*
X134083181Y-104818995D01*
X134110061Y-104859223D01*
X134119500Y-104906676D01*
X134119500Y-112614785D01*
X134103506Y-112675701D01*
X134059649Y-112720902D01*
X133999244Y-112738728D01*
X133937874Y-112724581D01*
X133903711Y-112706650D01*
X133843006Y-112674789D01*
X133843002Y-112674787D01*
X133836365Y-112671304D01*
X133829087Y-112669510D01*
X133829084Y-112669509D01*
X133690267Y-112635294D01*
X133690260Y-112635293D01*
X133682985Y-112633500D01*
X133525015Y-112633500D01*
X133517740Y-112635292D01*
X133517732Y-112635294D01*
X133378915Y-112669509D01*
X133378909Y-112669510D01*
X133371635Y-112671304D01*
X133365000Y-112674786D01*
X133364993Y-112674789D01*
X133238406Y-112741228D01*
X133238400Y-112741231D01*
X133231760Y-112744717D01*
X133226147Y-112749688D01*
X133226139Y-112749695D01*
X133186241Y-112785041D01*
X133126366Y-112814193D01*
X133060043Y-112808165D01*
X133006404Y-112768696D01*
X132980920Y-112707172D01*
X132970237Y-112619182D01*
X132914220Y-112471477D01*
X132824483Y-112341470D01*
X132801769Y-112321347D01*
X132711856Y-112241692D01*
X132711854Y-112241690D01*
X132706240Y-112236717D01*
X132699595Y-112233229D01*
X132699593Y-112233228D01*
X132573006Y-112166789D01*
X132573002Y-112166787D01*
X132566365Y-112163304D01*
X132559087Y-112161510D01*
X132559084Y-112161509D01*
X132420267Y-112127294D01*
X132420260Y-112127293D01*
X132412985Y-112125500D01*
X132255015Y-112125500D01*
X132247740Y-112127292D01*
X132247732Y-112127294D01*
X132108915Y-112161509D01*
X132108909Y-112161510D01*
X132101635Y-112163304D01*
X132095000Y-112166786D01*
X132094993Y-112166789D01*
X131968406Y-112233228D01*
X131968400Y-112233231D01*
X131961760Y-112236717D01*
X131956148Y-112241687D01*
X131956143Y-112241692D01*
X131849127Y-112336499D01*
X131849122Y-112336503D01*
X131843517Y-112341470D01*
X131839262Y-112347634D01*
X131839257Y-112347640D01*
X131758043Y-112465300D01*
X131758040Y-112465303D01*
X131753780Y-112471477D01*
X131751120Y-112478488D01*
X131751118Y-112478494D01*
X131700423Y-112612167D01*
X131697763Y-112619182D01*
X131696859Y-112626622D01*
X131696858Y-112626629D01*
X131683104Y-112739907D01*
X131678722Y-112776000D01*
X131679626Y-112783445D01*
X131696858Y-112925370D01*
X131696859Y-112925375D01*
X131697763Y-112932818D01*
X131700422Y-112939831D01*
X131700423Y-112939832D01*
X131740490Y-113045482D01*
X131753780Y-113080523D01*
X131758043Y-113086699D01*
X131836629Y-113200552D01*
X131843517Y-113210530D01*
X131961760Y-113315283D01*
X132101635Y-113388696D01*
X132255015Y-113426500D01*
X132405485Y-113426500D01*
X132412985Y-113426500D01*
X132566365Y-113388696D01*
X132706240Y-113315283D01*
X132751756Y-113274959D01*
X132811631Y-113245806D01*
X132877954Y-113251833D01*
X132931594Y-113291302D01*
X132957079Y-113352828D01*
X132966858Y-113433371D01*
X132966859Y-113433377D01*
X132967763Y-113440818D01*
X132970422Y-113447831D01*
X132970423Y-113447832D01*
X133019599Y-113577500D01*
X133023780Y-113588523D01*
X133028043Y-113594699D01*
X133088499Y-113682286D01*
X133113517Y-113718530D01*
X133231760Y-113823283D01*
X133371635Y-113896696D01*
X133525015Y-113934500D01*
X133675485Y-113934500D01*
X133682985Y-113934500D01*
X133836365Y-113896696D01*
X133844982Y-113892173D01*
X133846976Y-113891704D01*
X133850018Y-113890551D01*
X133850170Y-113890953D01*
X133905302Y-113877995D01*
X133964953Y-113894776D01*
X134009036Y-113938325D01*
X134026542Y-113997767D01*
X134013099Y-114058258D01*
X134006633Y-114070948D01*
X134006629Y-114070956D01*
X134003092Y-114077900D01*
X134001391Y-114085507D01*
X134001391Y-114085509D01*
X133968941Y-114230681D01*
X133968940Y-114230689D01*
X133967240Y-114238296D01*
X133967485Y-114246092D01*
X133967485Y-114246093D01*
X133972157Y-114394770D01*
X133972158Y-114394776D01*
X133972403Y-114402569D01*
X133974578Y-114410058D01*
X133974579Y-114410059D01*
X134001155Y-114501537D01*
X134018256Y-114560398D01*
X134022229Y-114567116D01*
X134097946Y-114695148D01*
X134097948Y-114695151D01*
X134101919Y-114701865D01*
X134107437Y-114707383D01*
X135203181Y-115803127D01*
X135230061Y-115843355D01*
X135239500Y-115890808D01*
X135239500Y-116031148D01*
X135238595Y-116046094D01*
X135234722Y-116078000D01*
X135235626Y-116085445D01*
X135235626Y-116085447D01*
X135239370Y-116116285D01*
X135239500Y-116117698D01*
X135239500Y-116118925D01*
X135244392Y-116157655D01*
X135244438Y-116158026D01*
X135252859Y-116227378D01*
X135253763Y-116234818D01*
X135254329Y-116236311D01*
X135254929Y-116241058D01*
X135283116Y-116312251D01*
X135283731Y-116313840D01*
X135309780Y-116382523D01*
X135312379Y-116386289D01*
X135312559Y-116386616D01*
X135315432Y-116393871D01*
X135320014Y-116400178D01*
X135320016Y-116400181D01*
X135358196Y-116452732D01*
X135359926Y-116455175D01*
X135395256Y-116506358D01*
X135395257Y-116506359D01*
X135399517Y-116512530D01*
X135404062Y-116516556D01*
X135406063Y-116519047D01*
X135407452Y-116520526D01*
X135412037Y-116526837D01*
X135465256Y-116570863D01*
X135468439Y-116573589D01*
X135517760Y-116617283D01*
X135524403Y-116620769D01*
X135527084Y-116622620D01*
X135530908Y-116625513D01*
X135532659Y-116626624D01*
X135538674Y-116631600D01*
X135565652Y-116644295D01*
X135597776Y-116659411D01*
X135602567Y-116661793D01*
X135657635Y-116690696D01*
X135664919Y-116692491D01*
X135671935Y-116695152D01*
X135671798Y-116695511D01*
X135672891Y-116695898D01*
X135672909Y-116695846D01*
X135680323Y-116698254D01*
X135687387Y-116701579D01*
X135747887Y-116713120D01*
X135754277Y-116714515D01*
X135811015Y-116728500D01*
X135818521Y-116728500D01*
X135824584Y-116729236D01*
X135840023Y-116730696D01*
X135848830Y-116732376D01*
X135906542Y-116728745D01*
X135914329Y-116728500D01*
X135961485Y-116728500D01*
X135968985Y-116728500D01*
X135978251Y-116726215D01*
X136000149Y-116722855D01*
X136012860Y-116722056D01*
X136064294Y-116705343D01*
X136072909Y-116702884D01*
X136122365Y-116690696D01*
X136134153Y-116684508D01*
X136153476Y-116676367D01*
X136154294Y-116676100D01*
X136169171Y-116671268D01*
X136211680Y-116644289D01*
X136220469Y-116639205D01*
X136262240Y-116617283D01*
X136275035Y-116605946D01*
X136290810Y-116594072D01*
X136307940Y-116583202D01*
X136339837Y-116549234D01*
X136347984Y-116541320D01*
X136380483Y-116512530D01*
X136392333Y-116495360D01*
X136403991Y-116480916D01*
X136420448Y-116463393D01*
X136441090Y-116425844D01*
X136447682Y-116415174D01*
X136470220Y-116382523D01*
X136478952Y-116359497D01*
X136486231Y-116343733D01*
X136499627Y-116319368D01*
X136509349Y-116281499D01*
X136513508Y-116268382D01*
X136521122Y-116248304D01*
X136526237Y-116234818D01*
X136529659Y-116206627D01*
X136532645Y-116190768D01*
X136540500Y-116160177D01*
X136540500Y-116124852D01*
X136541404Y-116109906D01*
X136544374Y-116085445D01*
X136545278Y-116078000D01*
X136541404Y-116046094D01*
X136540500Y-116031148D01*
X136540500Y-115651072D01*
X136541050Y-115639403D01*
X136541058Y-115639317D01*
X136542760Y-115631703D01*
X136540560Y-115561736D01*
X136540500Y-115557842D01*
X136540500Y-115532976D01*
X136540500Y-115529075D01*
X136539948Y-115524709D01*
X136539030Y-115513055D01*
X136537597Y-115467430D01*
X136531675Y-115447049D01*
X136527732Y-115428007D01*
X136525071Y-115406942D01*
X136508261Y-115364487D01*
X136504483Y-115353450D01*
X136503337Y-115349506D01*
X136498511Y-115309965D01*
X136506469Y-115270937D01*
X136526237Y-115218818D01*
X136545278Y-115062000D01*
X136526237Y-114905182D01*
X136470220Y-114757477D01*
X136380483Y-114627470D01*
X136374872Y-114622499D01*
X136267856Y-114527692D01*
X136267854Y-114527690D01*
X136262240Y-114522717D01*
X136255595Y-114519229D01*
X136255593Y-114519228D01*
X136129006Y-114452789D01*
X136129002Y-114452787D01*
X136122365Y-114449304D01*
X136115087Y-114447510D01*
X136115084Y-114447509D01*
X135976267Y-114413294D01*
X135976260Y-114413293D01*
X135968985Y-114411500D01*
X135811015Y-114411500D01*
X135803733Y-114413294D01*
X135803731Y-114413295D01*
X135750901Y-114426316D01*
X135687928Y-114425364D01*
X135633546Y-114393600D01*
X135156819Y-113916873D01*
X135129939Y-113876645D01*
X135126532Y-113859518D01*
X138537000Y-113859518D01*
X138537353Y-113866114D01*
X138542573Y-113914667D01*
X138546111Y-113929641D01*
X138590547Y-114048777D01*
X138598962Y-114064189D01*
X138674498Y-114165092D01*
X138686907Y-114177501D01*
X138787810Y-114253037D01*
X138803222Y-114261452D01*
X138922358Y-114305888D01*
X138937332Y-114309426D01*
X138985885Y-114314646D01*
X138992482Y-114315000D01*
X140320674Y-114315000D01*
X140333549Y-114311549D01*
X140337000Y-114298674D01*
X140587000Y-114298674D01*
X140590450Y-114311549D01*
X140603326Y-114315000D01*
X141931518Y-114315000D01*
X141938114Y-114314646D01*
X141986667Y-114309426D01*
X142001641Y-114305888D01*
X142120777Y-114261452D01*
X142136189Y-114253037D01*
X142237092Y-114177501D01*
X142249501Y-114165092D01*
X142325037Y-114064189D01*
X142333452Y-114048777D01*
X142377888Y-113929641D01*
X142381426Y-113914667D01*
X142386646Y-113866114D01*
X142387000Y-113859518D01*
X142387000Y-113593826D01*
X142383549Y-113580950D01*
X142370674Y-113577500D01*
X140603326Y-113577500D01*
X140590450Y-113580950D01*
X140587000Y-113593826D01*
X140587000Y-114298674D01*
X140337000Y-114298674D01*
X140337000Y-113593826D01*
X140333549Y-113580950D01*
X140320674Y-113577500D01*
X138553326Y-113577500D01*
X138540450Y-113580950D01*
X138537000Y-113593826D01*
X138537000Y-113859518D01*
X135126532Y-113859518D01*
X135120500Y-113829192D01*
X135120500Y-113756797D01*
X135133013Y-113702514D01*
X135168027Y-113659186D01*
X135218475Y-113635559D01*
X135274173Y-113636399D01*
X135390515Y-113665075D01*
X135540985Y-113665075D01*
X135548485Y-113665075D01*
X135701865Y-113627271D01*
X135841740Y-113553858D01*
X135847358Y-113548880D01*
X135853527Y-113544623D01*
X135854878Y-113546581D01*
X135895336Y-113525330D01*
X135954701Y-113525318D01*
X136007268Y-113552902D01*
X136020139Y-113564304D01*
X136020142Y-113564306D01*
X136025760Y-113569283D01*
X136165635Y-113642696D01*
X136319015Y-113680500D01*
X136469485Y-113680500D01*
X136476985Y-113680500D01*
X136630365Y-113642696D01*
X136770240Y-113569283D01*
X136888483Y-113464530D01*
X136978220Y-113334523D01*
X137034237Y-113186818D01*
X137053278Y-113030000D01*
X137034237Y-112873182D01*
X136978220Y-112725477D01*
X136888483Y-112595470D01*
X136869552Y-112578699D01*
X136775856Y-112495692D01*
X136775854Y-112495690D01*
X136770240Y-112490717D01*
X136763595Y-112487229D01*
X136763593Y-112487228D01*
X136637006Y-112420789D01*
X136637002Y-112420787D01*
X136630365Y-112417304D01*
X136623087Y-112415510D01*
X136623084Y-112415509D01*
X136484267Y-112381294D01*
X136484260Y-112381293D01*
X136476985Y-112379500D01*
X136319015Y-112379500D01*
X136311740Y-112381292D01*
X136311732Y-112381294D01*
X136172915Y-112415509D01*
X136172909Y-112415510D01*
X136165635Y-112417304D01*
X136159000Y-112420786D01*
X136158993Y-112420789D01*
X136032403Y-112487230D01*
X136032400Y-112487231D01*
X136025760Y-112490717D01*
X136020144Y-112495691D01*
X136013974Y-112499951D01*
X136012631Y-112498006D01*
X135972089Y-112519262D01*
X135912761Y-112519247D01*
X135860231Y-112491672D01*
X135847360Y-112480270D01*
X135847355Y-112480267D01*
X135841740Y-112475292D01*
X135835095Y-112471804D01*
X135835093Y-112471803D01*
X135708506Y-112405364D01*
X135708502Y-112405362D01*
X135701865Y-112401879D01*
X135694587Y-112400085D01*
X135694584Y-112400084D01*
X135555767Y-112365869D01*
X135555760Y-112365868D01*
X135548485Y-112364075D01*
X135390515Y-112364075D01*
X135383239Y-112365868D01*
X135383233Y-112365869D01*
X135320653Y-112381294D01*
X135274173Y-112392750D01*
X135218475Y-112393591D01*
X135168027Y-112369964D01*
X135133013Y-112326636D01*
X135120500Y-112272353D01*
X135120500Y-112268000D01*
X137774722Y-112268000D01*
X137775626Y-112275445D01*
X137792858Y-112417370D01*
X137792859Y-112417375D01*
X137793763Y-112424818D01*
X137796422Y-112431831D01*
X137796423Y-112431832D01*
X137846743Y-112564517D01*
X137849780Y-112572523D01*
X137854043Y-112578699D01*
X137920368Y-112674789D01*
X137939517Y-112702530D01*
X137945126Y-112707499D01*
X137945127Y-112707500D01*
X138027060Y-112780086D01*
X138057760Y-112807283D01*
X138197635Y-112880696D01*
X138351015Y-112918500D01*
X138358515Y-112918500D01*
X138413000Y-112918500D01*
X138475000Y-112935113D01*
X138520387Y-112980500D01*
X138537000Y-113042500D01*
X138537000Y-113311174D01*
X138540450Y-113324049D01*
X138553326Y-113327500D01*
X140320674Y-113327500D01*
X140333549Y-113324049D01*
X140337000Y-113311174D01*
X140587000Y-113311174D01*
X140590450Y-113324049D01*
X140603326Y-113327500D01*
X142370674Y-113327500D01*
X142383549Y-113324049D01*
X142387000Y-113311174D01*
X142387000Y-113045482D01*
X142386646Y-113038885D01*
X142381426Y-112990332D01*
X142377888Y-112975358D01*
X142333452Y-112856222D01*
X142325037Y-112840810D01*
X142249501Y-112739907D01*
X142237092Y-112727498D01*
X142136189Y-112651962D01*
X142120777Y-112643547D01*
X142001641Y-112599111D01*
X141986667Y-112595573D01*
X141938114Y-112590353D01*
X141931518Y-112590000D01*
X140603326Y-112590000D01*
X140590450Y-112593450D01*
X140587000Y-112606326D01*
X140587000Y-113311174D01*
X140337000Y-113311174D01*
X140337000Y-112606326D01*
X140333549Y-112593450D01*
X140320674Y-112590000D01*
X139730413Y-112590000D01*
X139667550Y-112572884D01*
X139622041Y-112526262D01*
X139606449Y-112463004D01*
X139625079Y-112400573D01*
X139672787Y-112356204D01*
X139689105Y-112347640D01*
X139781240Y-112299283D01*
X139899483Y-112194530D01*
X139989220Y-112064523D01*
X140045237Y-111916818D01*
X140064278Y-111760000D01*
X140045237Y-111603182D01*
X139989220Y-111455477D01*
X139899483Y-111325470D01*
X139781240Y-111220717D01*
X139774595Y-111217229D01*
X139774593Y-111217228D01*
X139648006Y-111150789D01*
X139648002Y-111150787D01*
X139641365Y-111147304D01*
X139634087Y-111145510D01*
X139634084Y-111145509D01*
X139495267Y-111111294D01*
X139495260Y-111111293D01*
X139487985Y-111109500D01*
X139330015Y-111109500D01*
X139322740Y-111111292D01*
X139322732Y-111111294D01*
X139183915Y-111145509D01*
X139183909Y-111145510D01*
X139176635Y-111147304D01*
X139170000Y-111150786D01*
X139169993Y-111150789D01*
X139043406Y-111217228D01*
X139043400Y-111217231D01*
X139036760Y-111220717D01*
X139031148Y-111225687D01*
X139031143Y-111225692D01*
X138924127Y-111320499D01*
X138924122Y-111320503D01*
X138918517Y-111325470D01*
X138914262Y-111331634D01*
X138914257Y-111331640D01*
X138833043Y-111449300D01*
X138833040Y-111449303D01*
X138828780Y-111455477D01*
X138826120Y-111462488D01*
X138826118Y-111462494D01*
X138784203Y-111573017D01*
X138750488Y-111621861D01*
X138697937Y-111649443D01*
X138638587Y-111649443D01*
X138516269Y-111619295D01*
X138516266Y-111619294D01*
X138508985Y-111617500D01*
X138351015Y-111617500D01*
X138343740Y-111619292D01*
X138343732Y-111619294D01*
X138204915Y-111653509D01*
X138204909Y-111653510D01*
X138197635Y-111655304D01*
X138191000Y-111658786D01*
X138190993Y-111658789D01*
X138064406Y-111725228D01*
X138064400Y-111725231D01*
X138057760Y-111728717D01*
X138052148Y-111733687D01*
X138052143Y-111733692D01*
X137945127Y-111828499D01*
X137945122Y-111828503D01*
X137939517Y-111833470D01*
X137935262Y-111839634D01*
X137935257Y-111839640D01*
X137854043Y-111957300D01*
X137854040Y-111957303D01*
X137849780Y-111963477D01*
X137847120Y-111970488D01*
X137847118Y-111970494D01*
X137811458Y-112064523D01*
X137793763Y-112111182D01*
X137792859Y-112118622D01*
X137792858Y-112118629D01*
X137783039Y-112199500D01*
X137774722Y-112268000D01*
X135120500Y-112268000D01*
X135120500Y-108677586D01*
X135133013Y-108623303D01*
X135168027Y-108579975D01*
X135218475Y-108556348D01*
X135274173Y-108557188D01*
X135390515Y-108585864D01*
X135540985Y-108585864D01*
X135548485Y-108585864D01*
X135701865Y-108548060D01*
X135841740Y-108474647D01*
X135959983Y-108369894D01*
X136049720Y-108239887D01*
X136105737Y-108092182D01*
X136124778Y-107935364D01*
X136105737Y-107778546D01*
X136049720Y-107630841D01*
X135983777Y-107535306D01*
X135964242Y-107507004D01*
X135964241Y-107507003D01*
X135959983Y-107500834D01*
X135900529Y-107448163D01*
X135847356Y-107401056D01*
X135847354Y-107401054D01*
X135841740Y-107396081D01*
X135835095Y-107392593D01*
X135835093Y-107392592D01*
X135708506Y-107326153D01*
X135708502Y-107326151D01*
X135701865Y-107322668D01*
X135694587Y-107320874D01*
X135694584Y-107320873D01*
X135555767Y-107286658D01*
X135555760Y-107286657D01*
X135548485Y-107284864D01*
X135390515Y-107284864D01*
X135383239Y-107286657D01*
X135383233Y-107286658D01*
X135307354Y-107305361D01*
X135274173Y-107313539D01*
X135218475Y-107314380D01*
X135168027Y-107290753D01*
X135133013Y-107247425D01*
X135120500Y-107193142D01*
X135120500Y-106680000D01*
X135996722Y-106680000D01*
X135997626Y-106687445D01*
X136014858Y-106829370D01*
X136014859Y-106829375D01*
X136015763Y-106836818D01*
X136018422Y-106843831D01*
X136018423Y-106843832D01*
X136058182Y-106948670D01*
X136071780Y-106984523D01*
X136076043Y-106990699D01*
X136111949Y-107042719D01*
X136161517Y-107114530D01*
X136167126Y-107119499D01*
X136167127Y-107119500D01*
X136271271Y-107211763D01*
X136279760Y-107219283D01*
X136419635Y-107292696D01*
X136573015Y-107330500D01*
X136723485Y-107330500D01*
X136730985Y-107330500D01*
X136884365Y-107292696D01*
X137024240Y-107219283D01*
X137074753Y-107174532D01*
X137134956Y-107145320D01*
X137201574Y-107151644D01*
X137255204Y-107191665D01*
X137280230Y-107253726D01*
X137269361Y-107319755D01*
X137247192Y-107367294D01*
X137245623Y-107370536D01*
X137215196Y-107431122D01*
X137215194Y-107431127D01*
X137211960Y-107437567D01*
X137210296Y-107444584D01*
X137209109Y-107447847D01*
X137208977Y-107448163D01*
X137208888Y-107448480D01*
X137207791Y-107451787D01*
X137204743Y-107458327D01*
X137203284Y-107465390D01*
X137203283Y-107465395D01*
X137189574Y-107531787D01*
X137188794Y-107535306D01*
X137173164Y-107601255D01*
X137173163Y-107601260D01*
X137171500Y-107608279D01*
X137171500Y-107615491D01*
X137171097Y-107618939D01*
X137171043Y-107619273D01*
X137171028Y-107619626D01*
X137170726Y-107623070D01*
X137169266Y-107630144D01*
X137169476Y-107637360D01*
X137169476Y-107637361D01*
X137171448Y-107705130D01*
X137171500Y-107708737D01*
X137171500Y-109771709D01*
X137171916Y-109775275D01*
X137171917Y-109775278D01*
X137185920Y-109895084D01*
X137185921Y-109895090D01*
X137186759Y-109902255D01*
X137189226Y-109909034D01*
X137189228Y-109909041D01*
X137242765Y-110056133D01*
X137246763Y-110067117D01*
X137250730Y-110073149D01*
X137250733Y-110073154D01*
X137254698Y-110079182D01*
X137290334Y-110133363D01*
X137310584Y-110195398D01*
X137296532Y-110259125D01*
X137293084Y-110265693D01*
X137288828Y-110271860D01*
X137286171Y-110278863D01*
X137286168Y-110278871D01*
X137235471Y-110412550D01*
X137232811Y-110419565D01*
X137231907Y-110427005D01*
X137231906Y-110427012D01*
X137218976Y-110533505D01*
X137213770Y-110576383D01*
X137214674Y-110583828D01*
X137231906Y-110725753D01*
X137231907Y-110725758D01*
X137232811Y-110733201D01*
X137235470Y-110740214D01*
X137235471Y-110740215D01*
X137279192Y-110855500D01*
X137288828Y-110880906D01*
X137293091Y-110887082D01*
X137369849Y-110998287D01*
X137378565Y-111010913D01*
X137496808Y-111115666D01*
X137636683Y-111189079D01*
X137790063Y-111226883D01*
X137940533Y-111226883D01*
X137948033Y-111226883D01*
X138101413Y-111189079D01*
X138241288Y-111115666D01*
X138359531Y-111010913D01*
X138449268Y-110880906D01*
X138505285Y-110733201D01*
X138524326Y-110576383D01*
X138505285Y-110419565D01*
X138473830Y-110336627D01*
X138467515Y-110271944D01*
X138494784Y-110212951D01*
X138553302Y-110143214D01*
X138632040Y-109986433D01*
X138672500Y-109815721D01*
X138672500Y-109442043D01*
X138688128Y-109381781D01*
X138731072Y-109336709D01*
X138790509Y-109318188D01*
X138851455Y-109330886D01*
X138898550Y-109371603D01*
X138905575Y-109381781D01*
X138918517Y-109400530D01*
X139036760Y-109505283D01*
X139176635Y-109578696D01*
X139330015Y-109616500D01*
X139480485Y-109616500D01*
X139487985Y-109616500D01*
X139641365Y-109578696D01*
X139781240Y-109505283D01*
X139899483Y-109400530D01*
X139989220Y-109270523D01*
X140045237Y-109122818D01*
X140064278Y-108966000D01*
X140045237Y-108809182D01*
X139989220Y-108661477D01*
X139936390Y-108584939D01*
X139914666Y-108521986D01*
X139928644Y-108456873D01*
X139974290Y-108408382D01*
X140038440Y-108390499D01*
X141931561Y-108390499D01*
X141934872Y-108390499D01*
X141994483Y-108384091D01*
X142033145Y-108369670D01*
X142050795Y-108364541D01*
X142064064Y-108361734D01*
X142069170Y-108360015D01*
X142102705Y-108344189D01*
X142112262Y-108340161D01*
X142129331Y-108333796D01*
X142150281Y-108318111D01*
X142158987Y-108312157D01*
X142378923Y-108175174D01*
X142429294Y-108157363D01*
X142482488Y-108162400D01*
X142528624Y-108189353D01*
X142559135Y-108233216D01*
X142613291Y-108364737D01*
X142645739Y-108443538D01*
X142649111Y-108448608D01*
X142649114Y-108448613D01*
X142650557Y-108450783D01*
X142663245Y-108475473D01*
X142667558Y-108486844D01*
X142675780Y-108508523D01*
X142680043Y-108514699D01*
X142755006Y-108623303D01*
X142765517Y-108638530D01*
X142771126Y-108643499D01*
X142771127Y-108643500D01*
X142869837Y-108730949D01*
X142883760Y-108743283D01*
X143023635Y-108816696D01*
X143177015Y-108854500D01*
X143327485Y-108854500D01*
X143334985Y-108854500D01*
X143488365Y-108816696D01*
X143540584Y-108789288D01*
X143596090Y-108775104D01*
X143652053Y-108787387D01*
X143696520Y-108823517D01*
X143719997Y-108875781D01*
X143717474Y-108933020D01*
X143697710Y-109002484D01*
X143693603Y-109016917D01*
X143693073Y-109022627D01*
X143693073Y-109022632D01*
X143681453Y-109148039D01*
X143674785Y-109220000D01*
X143675314Y-109225709D01*
X143691973Y-109405500D01*
X143693603Y-109423083D01*
X143695171Y-109428594D01*
X143695173Y-109428604D01*
X143747847Y-109613731D01*
X143747849Y-109613737D01*
X143749418Y-109619250D01*
X143766985Y-109654530D01*
X143832831Y-109786768D01*
X143840327Y-109801821D01*
X143844721Y-109807640D01*
X143959778Y-109960001D01*
X143959783Y-109960006D01*
X143963236Y-109964579D01*
X143967472Y-109968440D01*
X143967476Y-109968445D01*
X144028718Y-110024274D01*
X144113959Y-110101981D01*
X144287363Y-110209348D01*
X144477544Y-110283024D01*
X144678024Y-110320500D01*
X144876247Y-110320500D01*
X144881976Y-110320500D01*
X145082456Y-110283024D01*
X145087804Y-110280952D01*
X145087808Y-110280951D01*
X145144146Y-110259125D01*
X145172354Y-110248197D01*
X145182971Y-110244627D01*
X145187484Y-110243334D01*
X145199659Y-110237821D01*
X145205929Y-110235189D01*
X145272637Y-110209348D01*
X145446041Y-110101981D01*
X145462881Y-110086629D01*
X145482401Y-110068834D01*
X145498934Y-110056133D01*
X145612493Y-109983203D01*
X145675103Y-109963617D01*
X145738944Y-109978716D01*
X145786147Y-110024274D01*
X145803500Y-110087539D01*
X145803500Y-110538009D01*
X145791597Y-110591021D01*
X145758173Y-110633856D01*
X145709645Y-110658289D01*
X145666901Y-110659344D01*
X145666710Y-110661286D01*
X145660653Y-110660689D01*
X145654674Y-110659500D01*
X143905326Y-110659500D01*
X143899351Y-110660688D01*
X143899346Y-110660689D01*
X143844240Y-110671650D01*
X143844235Y-110671651D01*
X143832260Y-110674034D01*
X143822105Y-110680819D01*
X143822103Y-110680820D01*
X143759551Y-110722615D01*
X143759548Y-110722617D01*
X143749399Y-110729399D01*
X143742617Y-110739548D01*
X143742615Y-110739551D01*
X143700820Y-110802103D01*
X143700819Y-110802105D01*
X143694034Y-110812260D01*
X143691651Y-110824235D01*
X143691650Y-110824240D01*
X143680689Y-110879346D01*
X143680688Y-110879351D01*
X143679500Y-110885326D01*
X143679500Y-112634674D01*
X143680688Y-112640649D01*
X143680689Y-112640653D01*
X143691650Y-112695759D01*
X143691651Y-112695762D01*
X143694034Y-112707740D01*
X143749399Y-112790601D01*
X143832260Y-112845966D01*
X143905326Y-112860500D01*
X145648579Y-112860500D01*
X145654674Y-112860500D01*
X145660653Y-112859310D01*
X145666710Y-112858714D01*
X145666901Y-112860655D01*
X145709645Y-112861711D01*
X145758173Y-112886144D01*
X145791597Y-112928979D01*
X145803500Y-112981991D01*
X145803500Y-113432458D01*
X145786147Y-113495723D01*
X145738943Y-113541281D01*
X145675102Y-113556380D01*
X145612492Y-113536794D01*
X145498921Y-113463855D01*
X145482395Y-113451160D01*
X145446041Y-113418019D01*
X145441171Y-113415004D01*
X145441169Y-113415002D01*
X145277513Y-113313671D01*
X145277512Y-113313670D01*
X145272637Y-113310652D01*
X145205958Y-113284820D01*
X145199634Y-113282166D01*
X145191589Y-113278525D01*
X145191581Y-113278522D01*
X145187458Y-113276656D01*
X145183102Y-113275407D01*
X145183098Y-113275406D01*
X145182941Y-113275361D01*
X145172332Y-113271793D01*
X145087798Y-113239045D01*
X145087793Y-113239043D01*
X145082456Y-113236976D01*
X145076828Y-113235924D01*
X145076825Y-113235923D01*
X144887605Y-113200552D01*
X144887602Y-113200551D01*
X144881976Y-113199500D01*
X144678024Y-113199500D01*
X144672398Y-113200551D01*
X144672394Y-113200552D01*
X144483181Y-113235922D01*
X144483178Y-113235922D01*
X144477544Y-113236976D01*
X144472203Y-113239044D01*
X144472196Y-113239047D01*
X144292705Y-113308582D01*
X144292700Y-113308584D01*
X144287363Y-113310652D01*
X144282491Y-113313668D01*
X144282488Y-113313670D01*
X144118830Y-113415002D01*
X144118822Y-113415007D01*
X144113959Y-113418019D01*
X144109728Y-113421875D01*
X144109724Y-113421879D01*
X143967476Y-113551554D01*
X143967466Y-113551564D01*
X143963236Y-113555421D01*
X143959787Y-113559987D01*
X143959778Y-113559998D01*
X143843779Y-113713607D01*
X143843776Y-113713611D01*
X143840327Y-113718179D01*
X143837774Y-113723304D01*
X143837772Y-113723309D01*
X143751976Y-113895612D01*
X143749418Y-113900750D01*
X143747850Y-113906258D01*
X143747847Y-113906268D01*
X143695173Y-114091395D01*
X143695170Y-114091406D01*
X143693603Y-114096917D01*
X143693073Y-114102627D01*
X143693073Y-114102632D01*
X143679780Y-114246093D01*
X143674785Y-114300000D01*
X143675314Y-114305709D01*
X143688942Y-114452789D01*
X143693603Y-114503083D01*
X143695171Y-114508594D01*
X143695173Y-114508604D01*
X143747847Y-114693731D01*
X143747849Y-114693737D01*
X143749418Y-114699250D01*
X143840327Y-114881821D01*
X143843779Y-114886392D01*
X143959778Y-115040001D01*
X143959783Y-115040006D01*
X143963236Y-115044579D01*
X143967472Y-115048440D01*
X143967476Y-115048445D01*
X144055848Y-115129006D01*
X144113959Y-115181981D01*
X144287363Y-115289348D01*
X144477544Y-115363024D01*
X144678024Y-115400500D01*
X144876247Y-115400500D01*
X144881976Y-115400500D01*
X145082456Y-115363024D01*
X145174698Y-115327288D01*
X145182028Y-115325075D01*
X145182028Y-115325074D01*
X145184204Y-115324241D01*
X145184158Y-115324085D01*
X145184157Y-115324085D01*
X145190650Y-115322134D01*
X145199255Y-115318093D01*
X145207109Y-115314732D01*
X145272637Y-115289348D01*
X145446041Y-115181981D01*
X145504159Y-115128997D01*
X145519130Y-115117319D01*
X145965432Y-114821177D01*
X145998186Y-114805782D01*
X146033991Y-114800500D01*
X146367091Y-114800500D01*
X146375961Y-114800500D01*
X146402153Y-114792809D01*
X146419433Y-114789050D01*
X146446457Y-114785165D01*
X146471284Y-114773825D01*
X146487865Y-114767642D01*
X146493351Y-114766031D01*
X146514053Y-114759953D01*
X146537020Y-114745192D01*
X146552541Y-114736717D01*
X146577373Y-114725377D01*
X146598008Y-114707495D01*
X146612150Y-114696908D01*
X146635128Y-114682143D01*
X146653015Y-114661499D01*
X146665499Y-114649015D01*
X146686143Y-114631128D01*
X146700908Y-114608150D01*
X146711495Y-114594008D01*
X146729377Y-114573373D01*
X146740717Y-114548541D01*
X146749192Y-114533020D01*
X146763953Y-114510053D01*
X146771642Y-114483865D01*
X146777828Y-114467279D01*
X146789165Y-114442457D01*
X146793050Y-114415433D01*
X146796809Y-114398153D01*
X146804500Y-114371961D01*
X146804500Y-114228039D01*
X146804500Y-109184201D01*
X146804500Y-109148039D01*
X146796809Y-109121846D01*
X146793050Y-109104565D01*
X146790427Y-109086320D01*
X146790426Y-109086319D01*
X146789165Y-109077543D01*
X146785479Y-109069471D01*
X146777826Y-109052712D01*
X146771643Y-109036135D01*
X146766453Y-109018462D01*
X146763953Y-109009947D01*
X146755814Y-108997283D01*
X146749192Y-108986978D01*
X146740714Y-108971451D01*
X146740144Y-108970203D01*
X146729377Y-108946627D01*
X146711498Y-108925994D01*
X146700904Y-108911841D01*
X146686143Y-108888872D01*
X146679442Y-108883065D01*
X146679440Y-108883063D01*
X146665510Y-108870992D01*
X146653005Y-108858487D01*
X146640934Y-108844557D01*
X146640932Y-108844556D01*
X146635128Y-108837857D01*
X146627671Y-108833064D01*
X146627669Y-108833063D01*
X146612159Y-108823095D01*
X146598000Y-108812495D01*
X146584078Y-108800432D01*
X146584073Y-108800429D01*
X146577373Y-108794623D01*
X146557332Y-108785470D01*
X146552540Y-108783281D01*
X146537022Y-108774807D01*
X146521515Y-108764842D01*
X146521512Y-108764841D01*
X146514053Y-108760047D01*
X146505544Y-108757548D01*
X146505541Y-108757547D01*
X146487856Y-108752354D01*
X146471285Y-108746173D01*
X146454528Y-108738521D01*
X146446457Y-108734835D01*
X146437675Y-108733572D01*
X146419435Y-108730949D01*
X146402155Y-108727190D01*
X146384471Y-108721998D01*
X146384467Y-108721997D01*
X146375961Y-108719500D01*
X146367094Y-108719500D01*
X146033991Y-108719500D01*
X145998186Y-108714218D01*
X145965431Y-108698823D01*
X145519127Y-108402677D01*
X145504149Y-108390991D01*
X145452817Y-108344196D01*
X145446041Y-108338019D01*
X145441171Y-108335004D01*
X145441169Y-108335002D01*
X145277513Y-108233671D01*
X145277512Y-108233670D01*
X145272637Y-108230652D01*
X145207123Y-108205271D01*
X145199250Y-108201903D01*
X145190634Y-108197860D01*
X145186266Y-108196547D01*
X145186262Y-108196546D01*
X145184144Y-108195910D01*
X145184190Y-108195754D01*
X145182071Y-108194943D01*
X145174686Y-108192705D01*
X145087798Y-108159045D01*
X145087793Y-108159043D01*
X145082456Y-108156976D01*
X145076828Y-108155924D01*
X145076825Y-108155923D01*
X144887605Y-108120552D01*
X144887602Y-108120551D01*
X144881976Y-108119500D01*
X144678024Y-108119500D01*
X144672398Y-108120551D01*
X144672394Y-108120552D01*
X144483181Y-108155922D01*
X144483178Y-108155922D01*
X144477544Y-108156976D01*
X144472203Y-108159044D01*
X144472196Y-108159047D01*
X144292705Y-108228582D01*
X144292700Y-108228584D01*
X144287363Y-108230652D01*
X144282491Y-108233668D01*
X144282488Y-108233670D01*
X144118839Y-108334997D01*
X144118835Y-108334999D01*
X144113959Y-108338019D01*
X144109719Y-108341883D01*
X144105830Y-108344821D01*
X144053194Y-108367882D01*
X143995815Y-108364737D01*
X143946014Y-108336062D01*
X143914489Y-108288016D01*
X143908009Y-108230919D01*
X143911278Y-108204000D01*
X143892237Y-108047182D01*
X143854801Y-107948471D01*
X143847647Y-107889553D01*
X143868693Y-107834060D01*
X143913117Y-107794703D01*
X143970743Y-107780500D01*
X145648579Y-107780500D01*
X145654674Y-107780500D01*
X145727740Y-107765966D01*
X145810601Y-107710601D01*
X145865966Y-107627740D01*
X145880500Y-107554674D01*
X145880500Y-105805326D01*
X145865966Y-105732260D01*
X145810601Y-105649399D01*
X145727740Y-105594034D01*
X145715762Y-105591651D01*
X145715759Y-105591650D01*
X145660653Y-105580689D01*
X145660649Y-105580688D01*
X145654674Y-105579500D01*
X143905326Y-105579500D01*
X143899351Y-105580688D01*
X143899346Y-105580689D01*
X143844240Y-105591650D01*
X143844235Y-105591651D01*
X143832260Y-105594034D01*
X143822105Y-105600819D01*
X143822103Y-105600820D01*
X143759551Y-105642615D01*
X143759548Y-105642617D01*
X143749399Y-105649399D01*
X143742617Y-105659548D01*
X143742615Y-105659551D01*
X143700820Y-105722103D01*
X143700819Y-105722105D01*
X143694034Y-105732260D01*
X143691651Y-105744235D01*
X143691650Y-105744240D01*
X143680689Y-105799346D01*
X143680688Y-105799351D01*
X143679500Y-105805326D01*
X143679500Y-105811421D01*
X143679500Y-107485859D01*
X143663423Y-107546922D01*
X143619361Y-107592150D01*
X143558739Y-107609817D01*
X143498311Y-107595583D01*
X143495538Y-107593739D01*
X143489904Y-107591419D01*
X142916468Y-107355297D01*
X142876000Y-107328318D01*
X142862138Y-107314456D01*
X142847693Y-107296667D01*
X142846556Y-107295432D01*
X142840937Y-107286831D01*
X142817365Y-107268484D01*
X142813401Y-107265266D01*
X142810441Y-107262759D01*
X142806807Y-107259125D01*
X142799245Y-107253726D01*
X142791153Y-107247948D01*
X142787044Y-107244885D01*
X142756733Y-107221293D01*
X142748626Y-107214983D01*
X142741607Y-107212573D01*
X142735566Y-107208260D01*
X142727012Y-107205713D01*
X142704110Y-107190958D01*
X142684212Y-107174533D01*
X142298611Y-106856229D01*
X142262639Y-106826535D01*
X142253896Y-106818588D01*
X142249858Y-106814550D01*
X142244546Y-106807454D01*
X142227546Y-106794728D01*
X142136431Y-106726519D01*
X142136430Y-106726518D01*
X142129331Y-106721204D01*
X142058965Y-106694959D01*
X142001752Y-106673620D01*
X142001750Y-106673619D01*
X141994483Y-106670909D01*
X141986770Y-106670079D01*
X141986767Y-106670079D01*
X141938180Y-106664855D01*
X141938169Y-106664854D01*
X141934873Y-106664500D01*
X141931551Y-106664500D01*
X139092772Y-106664500D01*
X139077264Y-106662905D01*
X139077243Y-106663212D01*
X139075131Y-106663061D01*
X139075113Y-106663197D01*
X139073093Y-106662916D01*
X139073088Y-106662915D01*
X139068989Y-106662346D01*
X139064854Y-106662328D01*
X139064845Y-106662328D01*
X139004924Y-106662077D01*
X139004918Y-106662077D01*
X139000776Y-106662060D01*
X138996672Y-106662595D01*
X138996660Y-106662596D01*
X138950296Y-106668643D01*
X138947521Y-106668973D01*
X138941511Y-106669619D01*
X138929520Y-106670908D01*
X138929302Y-106668874D01*
X138927311Y-106668778D01*
X138927679Y-106671594D01*
X138151640Y-106772817D01*
X138151468Y-106771505D01*
X138126874Y-106772416D01*
X138126844Y-106773468D01*
X138119622Y-106773257D01*
X138112477Y-106772211D01*
X138105284Y-106772840D01*
X138105278Y-106772840D01*
X138063131Y-106776528D01*
X138052324Y-106777000D01*
X138046791Y-106777000D01*
X138043230Y-106777416D01*
X138043215Y-106777417D01*
X138016001Y-106780598D01*
X138012416Y-106780964D01*
X137944893Y-106786871D01*
X137944885Y-106786872D01*
X137937703Y-106787501D01*
X137930852Y-106789770D01*
X137927435Y-106790476D01*
X137927119Y-106790527D01*
X137926795Y-106790619D01*
X137923413Y-106791420D01*
X137916245Y-106792259D01*
X137909468Y-106794725D01*
X137909457Y-106794728D01*
X137845731Y-106817921D01*
X137842331Y-106819103D01*
X137835623Y-106821326D01*
X137771166Y-106842686D01*
X137765026Y-106846472D01*
X137761856Y-106847950D01*
X137761561Y-106848071D01*
X137761280Y-106848229D01*
X137758163Y-106849794D01*
X137751383Y-106852263D01*
X137745355Y-106856227D01*
X137745352Y-106856229D01*
X137688728Y-106893470D01*
X137685690Y-106895405D01*
X137627987Y-106930998D01*
X137627982Y-106931001D01*
X137621844Y-106934788D01*
X137616746Y-106939885D01*
X137614003Y-106942054D01*
X137613747Y-106942239D01*
X137613497Y-106942468D01*
X137610830Y-106944705D01*
X137604804Y-106948670D01*
X137599852Y-106953919D01*
X137553349Y-107003208D01*
X137550837Y-107005793D01*
X137436358Y-107120272D01*
X137422727Y-107132052D01*
X137418351Y-107135310D01*
X137356822Y-107159215D01*
X137291744Y-107148160D01*
X137241560Y-107105277D01*
X137220491Y-107042719D01*
X137233068Y-106984844D01*
X137232220Y-106984523D01*
X137232220Y-106984522D01*
X137288237Y-106836818D01*
X137307278Y-106680000D01*
X137288237Y-106523182D01*
X137232220Y-106375477D01*
X137142483Y-106245470D01*
X137024240Y-106140717D01*
X137017595Y-106137229D01*
X137017593Y-106137228D01*
X136891006Y-106070789D01*
X136891002Y-106070787D01*
X136884365Y-106067304D01*
X136877087Y-106065510D01*
X136877084Y-106065509D01*
X136738267Y-106031294D01*
X136738260Y-106031293D01*
X136730985Y-106029500D01*
X136573015Y-106029500D01*
X136565740Y-106031292D01*
X136565732Y-106031294D01*
X136426915Y-106065509D01*
X136426909Y-106065510D01*
X136419635Y-106067304D01*
X136413000Y-106070786D01*
X136412993Y-106070789D01*
X136286406Y-106137228D01*
X136286400Y-106137231D01*
X136279760Y-106140717D01*
X136274148Y-106145687D01*
X136274143Y-106145692D01*
X136167127Y-106240499D01*
X136167122Y-106240503D01*
X136161517Y-106245470D01*
X136157262Y-106251634D01*
X136157257Y-106251640D01*
X136076043Y-106369300D01*
X136076040Y-106369303D01*
X136071780Y-106375477D01*
X136069120Y-106382488D01*
X136069118Y-106382494D01*
X136018423Y-106516167D01*
X136015763Y-106523182D01*
X136014859Y-106530622D01*
X136014858Y-106530629D01*
X135998900Y-106662060D01*
X135996722Y-106680000D01*
X135120500Y-106680000D01*
X135120500Y-105567082D01*
X135132260Y-105514374D01*
X135165309Y-105471663D01*
X135213379Y-105447051D01*
X135267351Y-105445206D01*
X135529760Y-105494407D01*
X135716740Y-105529465D01*
X135723525Y-105530936D01*
X135811015Y-105552500D01*
X135876869Y-105552500D01*
X135881725Y-105552594D01*
X135903462Y-105553447D01*
X135907974Y-105552962D01*
X135912499Y-105552809D01*
X135912500Y-105552843D01*
X135918919Y-105552500D01*
X135961485Y-105552500D01*
X135968985Y-105552500D01*
X136122365Y-105514696D01*
X136262240Y-105441283D01*
X136380483Y-105336530D01*
X136470220Y-105206523D01*
X136526237Y-105058818D01*
X136545278Y-104902000D01*
X136539449Y-104854002D01*
X136538952Y-104847784D01*
X136538709Y-104845634D01*
X136538532Y-104841094D01*
X136537428Y-104835212D01*
X136536208Y-104827306D01*
X136526237Y-104745182D01*
X136518889Y-104725809D01*
X136512956Y-104704690D01*
X136458986Y-104416847D01*
X136458986Y-104371151D01*
X136512958Y-104083301D01*
X136518891Y-104062187D01*
X136518892Y-104062185D01*
X136526237Y-104042818D01*
X136536210Y-103960674D01*
X136537427Y-103952795D01*
X136538532Y-103946905D01*
X136538709Y-103942359D01*
X136538951Y-103940220D01*
X136539449Y-103933997D01*
X136545278Y-103886000D01*
X136526237Y-103729182D01*
X136470220Y-103581477D01*
X136402037Y-103482696D01*
X136384742Y-103457640D01*
X136384741Y-103457639D01*
X136380483Y-103451470D01*
X136374872Y-103446499D01*
X136267856Y-103351692D01*
X136267854Y-103351690D01*
X136262240Y-103346717D01*
X136255595Y-103343229D01*
X136255593Y-103343228D01*
X136129006Y-103276789D01*
X136129002Y-103276787D01*
X136122365Y-103273304D01*
X136115087Y-103271510D01*
X136115084Y-103271509D01*
X135976267Y-103237294D01*
X135976260Y-103237293D01*
X135968985Y-103235500D01*
X135811015Y-103235500D01*
X135803740Y-103237292D01*
X135803732Y-103237294D01*
X135664915Y-103271509D01*
X135664909Y-103271510D01*
X135657635Y-103273304D01*
X135651000Y-103276786D01*
X135650993Y-103276789D01*
X135524406Y-103343228D01*
X135524400Y-103343231D01*
X135517760Y-103346717D01*
X135512148Y-103351687D01*
X135512143Y-103351692D01*
X135405127Y-103446499D01*
X135405122Y-103446503D01*
X135399517Y-103451470D01*
X135395262Y-103457634D01*
X135395257Y-103457640D01*
X135314043Y-103575300D01*
X135314040Y-103575303D01*
X135309780Y-103581477D01*
X135307120Y-103588488D01*
X135307118Y-103588494D01*
X135256423Y-103722167D01*
X135253763Y-103729182D01*
X135252859Y-103736622D01*
X135252858Y-103736629D01*
X135242797Y-103819492D01*
X135234722Y-103886000D01*
X135235626Y-103893443D01*
X135235626Y-103893447D01*
X135240546Y-103933969D01*
X135241050Y-103940264D01*
X135241290Y-103942392D01*
X135241467Y-103946906D01*
X135242301Y-103951355D01*
X135242303Y-103951371D01*
X135242575Y-103952821D01*
X135243793Y-103960712D01*
X135247815Y-103993833D01*
X135253763Y-104042818D01*
X135256420Y-104049826D01*
X135256422Y-104049831D01*
X135261107Y-104062185D01*
X135267040Y-104083301D01*
X135294099Y-104227617D01*
X135289197Y-104291617D01*
X135252951Y-104344591D01*
X135195074Y-104372345D01*
X135139008Y-104382857D01*
X135079509Y-104379442D01*
X135028476Y-104348662D01*
X134989676Y-104309862D01*
X134983658Y-104303400D01*
X134951128Y-104265857D01*
X134943668Y-104261063D01*
X134936963Y-104255252D01*
X134937038Y-104255164D01*
X134926427Y-104246613D01*
X134567028Y-103887214D01*
X134552546Y-103868138D01*
X134551844Y-103868619D01*
X134192587Y-103343551D01*
X134186442Y-103333337D01*
X134184220Y-103327477D01*
X134154766Y-103284806D01*
X134150083Y-103277485D01*
X134146549Y-103271509D01*
X134122081Y-103230135D01*
X134113742Y-103221796D01*
X134099373Y-103204555D01*
X134098743Y-103203642D01*
X134094483Y-103197470D01*
X134062729Y-103169339D01*
X134060349Y-103167173D01*
X134058204Y-103165169D01*
X134055126Y-103161839D01*
X134051594Y-103158992D01*
X134048283Y-103155898D01*
X134048306Y-103155873D01*
X134043515Y-103151569D01*
X133761946Y-102870000D01*
X142092722Y-102870000D01*
X142093626Y-102877445D01*
X142110858Y-103019370D01*
X142110859Y-103019375D01*
X142111763Y-103026818D01*
X142114422Y-103033831D01*
X142114423Y-103033832D01*
X142164992Y-103167173D01*
X142167780Y-103174523D01*
X142172043Y-103180699D01*
X142243902Y-103284806D01*
X142257517Y-103304530D01*
X142375760Y-103409283D01*
X142515635Y-103482696D01*
X142669015Y-103520500D01*
X142819485Y-103520500D01*
X142826985Y-103520500D01*
X142980365Y-103482696D01*
X143120240Y-103409283D01*
X143238483Y-103304530D01*
X143328220Y-103174523D01*
X143384237Y-103026818D01*
X143403278Y-102870000D01*
X143384237Y-102713182D01*
X143328220Y-102565477D01*
X143238483Y-102435470D01*
X143151660Y-102358552D01*
X143125856Y-102335692D01*
X143125854Y-102335690D01*
X143120240Y-102330717D01*
X143113595Y-102327229D01*
X143113593Y-102327228D01*
X142987006Y-102260789D01*
X142987002Y-102260787D01*
X142980365Y-102257304D01*
X142973087Y-102255510D01*
X142973084Y-102255509D01*
X142834267Y-102221294D01*
X142834260Y-102221293D01*
X142826985Y-102219500D01*
X142669015Y-102219500D01*
X142661740Y-102221292D01*
X142661732Y-102221294D01*
X142522915Y-102255509D01*
X142522909Y-102255510D01*
X142515635Y-102257304D01*
X142509000Y-102260786D01*
X142508993Y-102260789D01*
X142382406Y-102327228D01*
X142382400Y-102327231D01*
X142375760Y-102330717D01*
X142370148Y-102335687D01*
X142370143Y-102335692D01*
X142263127Y-102430499D01*
X142263122Y-102430503D01*
X142257517Y-102435470D01*
X142253262Y-102441634D01*
X142253257Y-102441640D01*
X142172043Y-102559300D01*
X142172040Y-102559303D01*
X142167780Y-102565477D01*
X142165120Y-102572488D01*
X142165118Y-102572494D01*
X142114423Y-102706167D01*
X142111763Y-102713182D01*
X142110859Y-102720622D01*
X142110858Y-102720629D01*
X142106358Y-102757693D01*
X142092722Y-102870000D01*
X133761946Y-102870000D01*
X132491946Y-101600000D01*
X133964722Y-101600000D01*
X133965626Y-101607445D01*
X133982858Y-101749370D01*
X133982859Y-101749375D01*
X133983763Y-101756818D01*
X133986422Y-101763831D01*
X133986423Y-101763832D01*
X134032324Y-101884865D01*
X134039780Y-101904523D01*
X134044043Y-101910699D01*
X134083216Y-101967452D01*
X134129517Y-102034530D01*
X134135126Y-102039499D01*
X134135127Y-102039500D01*
X134206349Y-102102597D01*
X134247760Y-102139283D01*
X134387635Y-102212696D01*
X134541015Y-102250500D01*
X134691485Y-102250500D01*
X134698985Y-102250500D01*
X134852365Y-102212696D01*
X134992240Y-102139283D01*
X135110483Y-102034530D01*
X135200220Y-101904523D01*
X135256237Y-101756818D01*
X135275278Y-101600000D01*
X136250722Y-101600000D01*
X136251626Y-101607445D01*
X136268858Y-101749370D01*
X136268859Y-101749375D01*
X136269763Y-101756818D01*
X136272422Y-101763831D01*
X136272423Y-101763832D01*
X136318324Y-101884865D01*
X136325780Y-101904523D01*
X136330043Y-101910699D01*
X136369216Y-101967452D01*
X136415517Y-102034530D01*
X136421126Y-102039499D01*
X136421127Y-102039500D01*
X136492349Y-102102597D01*
X136533760Y-102139283D01*
X136673635Y-102212696D01*
X136827015Y-102250500D01*
X136977485Y-102250500D01*
X136984985Y-102250500D01*
X137138365Y-102212696D01*
X137278240Y-102139283D01*
X137396483Y-102034530D01*
X137486220Y-101904523D01*
X137542237Y-101756818D01*
X137561278Y-101600000D01*
X138790722Y-101600000D01*
X138791626Y-101607445D01*
X138808858Y-101749370D01*
X138808859Y-101749375D01*
X138809763Y-101756818D01*
X138812422Y-101763831D01*
X138812423Y-101763832D01*
X138858324Y-101884865D01*
X138865780Y-101904523D01*
X138870043Y-101910699D01*
X138909216Y-101967452D01*
X138955517Y-102034530D01*
X138961126Y-102039499D01*
X138961127Y-102039500D01*
X139032349Y-102102597D01*
X139073760Y-102139283D01*
X139213635Y-102212696D01*
X139367015Y-102250500D01*
X139517485Y-102250500D01*
X139524985Y-102250500D01*
X139678365Y-102212696D01*
X139818240Y-102139283D01*
X139936483Y-102034530D01*
X140026220Y-101904523D01*
X140082237Y-101756818D01*
X140101278Y-101600000D01*
X140082237Y-101443182D01*
X140026220Y-101295477D01*
X139936483Y-101165470D01*
X139818240Y-101060717D01*
X139811595Y-101057229D01*
X139811593Y-101057228D01*
X139685006Y-100990789D01*
X139685002Y-100990787D01*
X139678365Y-100987304D01*
X139671087Y-100985510D01*
X139671084Y-100985509D01*
X139532267Y-100951294D01*
X139532260Y-100951293D01*
X139524985Y-100949500D01*
X139367015Y-100949500D01*
X139359740Y-100951292D01*
X139359732Y-100951294D01*
X139220915Y-100985509D01*
X139220909Y-100985510D01*
X139213635Y-100987304D01*
X139207000Y-100990786D01*
X139206993Y-100990789D01*
X139080406Y-101057228D01*
X139080400Y-101057231D01*
X139073760Y-101060717D01*
X139068148Y-101065687D01*
X139068143Y-101065692D01*
X138961127Y-101160499D01*
X138961122Y-101160503D01*
X138955517Y-101165470D01*
X138951262Y-101171634D01*
X138951257Y-101171640D01*
X138870043Y-101289300D01*
X138870040Y-101289303D01*
X138865780Y-101295477D01*
X138863120Y-101302488D01*
X138863118Y-101302494D01*
X138812423Y-101436167D01*
X138809763Y-101443182D01*
X138808859Y-101450622D01*
X138808858Y-101450629D01*
X138792070Y-101588896D01*
X138790722Y-101600000D01*
X137561278Y-101600000D01*
X137542237Y-101443182D01*
X137486220Y-101295477D01*
X137396483Y-101165470D01*
X137278240Y-101060717D01*
X137271595Y-101057229D01*
X137271593Y-101057228D01*
X137145006Y-100990789D01*
X137145002Y-100990787D01*
X137138365Y-100987304D01*
X137131087Y-100985510D01*
X137131084Y-100985509D01*
X136992267Y-100951294D01*
X136992260Y-100951293D01*
X136984985Y-100949500D01*
X136827015Y-100949500D01*
X136819740Y-100951292D01*
X136819732Y-100951294D01*
X136680915Y-100985509D01*
X136680909Y-100985510D01*
X136673635Y-100987304D01*
X136667000Y-100990786D01*
X136666993Y-100990789D01*
X136540406Y-101057228D01*
X136540400Y-101057231D01*
X136533760Y-101060717D01*
X136528148Y-101065687D01*
X136528143Y-101065692D01*
X136421127Y-101160499D01*
X136421122Y-101160503D01*
X136415517Y-101165470D01*
X136411262Y-101171634D01*
X136411257Y-101171640D01*
X136330043Y-101289300D01*
X136330040Y-101289303D01*
X136325780Y-101295477D01*
X136323120Y-101302488D01*
X136323118Y-101302494D01*
X136272423Y-101436167D01*
X136269763Y-101443182D01*
X136268859Y-101450622D01*
X136268858Y-101450629D01*
X136252070Y-101588896D01*
X136250722Y-101600000D01*
X135275278Y-101600000D01*
X135256237Y-101443182D01*
X135200220Y-101295477D01*
X135110483Y-101165470D01*
X134992240Y-101060717D01*
X134985595Y-101057229D01*
X134985593Y-101057228D01*
X134859006Y-100990789D01*
X134859002Y-100990787D01*
X134852365Y-100987304D01*
X134845087Y-100985510D01*
X134845084Y-100985509D01*
X134706267Y-100951294D01*
X134706260Y-100951293D01*
X134698985Y-100949500D01*
X134541015Y-100949500D01*
X134533740Y-100951292D01*
X134533732Y-100951294D01*
X134394915Y-100985509D01*
X134394909Y-100985510D01*
X134387635Y-100987304D01*
X134381000Y-100990786D01*
X134380993Y-100990789D01*
X134254406Y-101057228D01*
X134254400Y-101057231D01*
X134247760Y-101060717D01*
X134242148Y-101065687D01*
X134242143Y-101065692D01*
X134135127Y-101160499D01*
X134135122Y-101160503D01*
X134129517Y-101165470D01*
X134125262Y-101171634D01*
X134125257Y-101171640D01*
X134044043Y-101289300D01*
X134044040Y-101289303D01*
X134039780Y-101295477D01*
X134037120Y-101302488D01*
X134037118Y-101302494D01*
X133986423Y-101436167D01*
X133983763Y-101443182D01*
X133982859Y-101450622D01*
X133982858Y-101450629D01*
X133966070Y-101588896D01*
X133964722Y-101600000D01*
X132491946Y-101600000D01*
X130024545Y-99132599D01*
X130018832Y-99126156D01*
X130018822Y-99126166D01*
X130014068Y-99120978D01*
X130010377Y-99118015D01*
X130006916Y-99114774D01*
X130006997Y-99114687D01*
X130003480Y-99111534D01*
X129928648Y-99036702D01*
X129920785Y-99028061D01*
X129920731Y-99027996D01*
X129916551Y-99021409D01*
X129865515Y-98973483D01*
X129862718Y-98970772D01*
X129845138Y-98953192D01*
X129842384Y-98950438D01*
X129839305Y-98948050D01*
X129839300Y-98948045D01*
X129838897Y-98947732D01*
X129830018Y-98940148D01*
X129802434Y-98914245D01*
X129802428Y-98914241D01*
X129796742Y-98908901D01*
X129789906Y-98905143D01*
X129789905Y-98905142D01*
X129778143Y-98898676D01*
X129761880Y-98887993D01*
X129751273Y-98879765D01*
X129751271Y-98879764D01*
X129745113Y-98874987D01*
X129737961Y-98871892D01*
X129737956Y-98871889D01*
X129703218Y-98856857D01*
X129692728Y-98851718D01*
X129659556Y-98833481D01*
X129659551Y-98833479D01*
X129652717Y-98829722D01*
X129632145Y-98824439D01*
X129613746Y-98818139D01*
X129601436Y-98812812D01*
X129601430Y-98812810D01*
X129594275Y-98809714D01*
X129586576Y-98808494D01*
X129586571Y-98808493D01*
X129549186Y-98802572D01*
X129537748Y-98800203D01*
X129517755Y-98795069D01*
X129493526Y-98788849D01*
X129485726Y-98788849D01*
X129480725Y-98788217D01*
X129434272Y-98772583D01*
X129088161Y-98572760D01*
X129047057Y-98534262D01*
X129003384Y-98468900D01*
X128996601Y-98458748D01*
X128913740Y-98403383D01*
X128901762Y-98401000D01*
X128901759Y-98400999D01*
X128846653Y-98390038D01*
X128846649Y-98390037D01*
X128840674Y-98388849D01*
X127191326Y-98388849D01*
X127185351Y-98390037D01*
X127185346Y-98390038D01*
X127130240Y-98400999D01*
X127130235Y-98401000D01*
X127118260Y-98403383D01*
X127108105Y-98410168D01*
X127108103Y-98410169D01*
X127045551Y-98451964D01*
X127045548Y-98451966D01*
X127035399Y-98458748D01*
X127028617Y-98468897D01*
X127028615Y-98468900D01*
X126986820Y-98531452D01*
X126986819Y-98531454D01*
X126980034Y-98541609D01*
X126977651Y-98553584D01*
X126977650Y-98553589D01*
X126966689Y-98608695D01*
X126966688Y-98608700D01*
X126965500Y-98614675D01*
X126965500Y-100264023D01*
X121920500Y-100264023D01*
X121920500Y-96644500D01*
X121937113Y-96582500D01*
X121982500Y-96537113D01*
X122044500Y-96520500D01*
X147195500Y-96520500D01*
X147257500Y-96537113D01*
G37*
%TD.AperFunction*%
%TD*%
%TA.AperFunction,Conductor*%
%TO.N,U1-OUT2*%
G36*
X145117061Y-113522267D02*
G01*
X146054000Y-114124000D01*
X146515206Y-114124000D01*
X146522183Y-114126308D01*
X146526408Y-114132322D01*
X146526213Y-114139668D01*
X146521675Y-114145449D01*
X145117115Y-115077445D01*
X145110623Y-115079396D01*
X145104138Y-115077419D01*
X145099840Y-115072179D01*
X144781855Y-114305474D01*
X144780963Y-114300999D01*
X144781851Y-114296525D01*
X145099929Y-113527638D01*
X145104177Y-113522426D01*
X145110596Y-113520414D01*
X145117061Y-113522267D01*
G37*
%TD.AperFunction*%
%TD*%
%TA.AperFunction,Conductor*%
%TO.N,U1-OUT2*%
G36*
X145117113Y-108442553D02*
G01*
X146004515Y-109031389D01*
X146521675Y-109374551D01*
X146526213Y-109380332D01*
X146526408Y-109387678D01*
X146522183Y-109393692D01*
X146515206Y-109396000D01*
X146054000Y-109396000D01*
X146052587Y-109396907D01*
X146052585Y-109396908D01*
X145117062Y-109997731D01*
X145110596Y-109999585D01*
X145104177Y-109997573D01*
X145099928Y-109992359D01*
X144853598Y-109396908D01*
X144781851Y-109223475D01*
X144780963Y-109219000D01*
X144781855Y-109214526D01*
X145099841Y-108447818D01*
X145104138Y-108442580D01*
X145110623Y-108440603D01*
X145117113Y-108442553D01*
G37*
%TD.AperFunction*%
%TD*%
%TA.AperFunction,Conductor*%
%TO.N,VIN*%
G36*
X136137762Y-104104697D02*
G01*
X136141790Y-104111544D01*
X136287408Y-104888179D01*
X136286688Y-104894883D01*
X136282389Y-104900076D01*
X136275937Y-104902035D01*
X135890029Y-104902999D01*
X135889971Y-104902999D01*
X135504062Y-104902035D01*
X135497610Y-104900076D01*
X135493311Y-104894883D01*
X135492591Y-104888179D01*
X135638210Y-104111544D01*
X135642238Y-104104697D01*
X135649710Y-104102000D01*
X136130290Y-104102000D01*
X136137762Y-104104697D01*
G37*
%TD.AperFunction*%
%TD*%
%TA.AperFunction,Conductor*%
%TO.N,VIN*%
G36*
X136275939Y-103885964D02*
G01*
X136282389Y-103887923D01*
X136286688Y-103893116D01*
X136287408Y-103899820D01*
X136141790Y-104676456D01*
X136137762Y-104683303D01*
X136130290Y-104686000D01*
X135649710Y-104686000D01*
X135642238Y-104683303D01*
X135638210Y-104676456D01*
X135492591Y-103899820D01*
X135493311Y-103893116D01*
X135497610Y-103887923D01*
X135504059Y-103885964D01*
X135890000Y-103885000D01*
X136275939Y-103885964D01*
G37*
%TD.AperFunction*%
%TD*%
%TA.AperFunction,Conductor*%
%TO.N,VIN*%
G36*
X133889534Y-103356531D02*
G01*
X133894783Y-103360762D01*
X134340978Y-104012895D01*
X134342972Y-104020585D01*
X134339595Y-104027775D01*
X133999775Y-104367595D01*
X133992585Y-104370972D01*
X133984895Y-104368978D01*
X133332762Y-103922783D01*
X133328531Y-103917534D01*
X133327898Y-103910821D01*
X133331075Y-103904875D01*
X133603251Y-103631335D01*
X133603293Y-103631293D01*
X133876875Y-103359075D01*
X133882821Y-103355898D01*
X133889534Y-103356531D01*
G37*
%TD.AperFunction*%
%TD*%
%TA.AperFunction,Conductor*%
%TO.N,VIN*%
G36*
X135882883Y-104505311D02*
G01*
X135888076Y-104509610D01*
X135890035Y-104516062D01*
X135891000Y-104902000D01*
X135891000Y-104902058D01*
X135890035Y-105287937D01*
X135888076Y-105294389D01*
X135882883Y-105298688D01*
X135876179Y-105299408D01*
X135465019Y-105222316D01*
X135099542Y-105153789D01*
X135092697Y-105149762D01*
X135090000Y-105142290D01*
X135090000Y-104661711D01*
X135092697Y-104654239D01*
X135099544Y-104650211D01*
X135513749Y-104572547D01*
X135876180Y-104504591D01*
X135882883Y-104505311D01*
G37*
%TD.AperFunction*%
%TD*%
%TA.AperFunction,Conductor*%
%TO.N,VIN*%
G36*
X133889534Y-103356531D02*
G01*
X133894783Y-103360762D01*
X134340978Y-104012895D01*
X134342972Y-104020585D01*
X134339595Y-104027775D01*
X133999775Y-104367595D01*
X133992585Y-104370972D01*
X133984895Y-104368978D01*
X133332762Y-103922783D01*
X133328531Y-103917534D01*
X133327898Y-103910821D01*
X133331075Y-103904875D01*
X133603251Y-103631335D01*
X133603293Y-103631293D01*
X133876875Y-103359075D01*
X133882821Y-103355898D01*
X133889534Y-103356531D01*
G37*
%TD.AperFunction*%
%TD*%
%TA.AperFunction,Conductor*%
%TO.N,VIN*%
G36*
X128823397Y-98714927D02*
G01*
X129512294Y-99112654D01*
X129825695Y-99293593D01*
X129830449Y-99298781D01*
X129831367Y-99305758D01*
X129828118Y-99311999D01*
X129273637Y-99866480D01*
X129272753Y-99867278D01*
X128824191Y-100232676D01*
X128816207Y-100235290D01*
X128808529Y-100231878D01*
X128023969Y-99447318D01*
X128020894Y-99441894D01*
X128021042Y-99435660D01*
X128024370Y-99430389D01*
X128809679Y-98716403D01*
X128816298Y-98713428D01*
X128823397Y-98714927D01*
G37*
%TD.AperFunction*%
%TD*%
%TA.AperFunction,Conductor*%
%TO.N,U1-IFB*%
G36*
X142076877Y-107004498D02*
G01*
X142760491Y-107568803D01*
X142764129Y-107574085D01*
X142764435Y-107580493D01*
X142761316Y-107586098D01*
X142629944Y-107717470D01*
X142627856Y-107719128D01*
X141987649Y-108117869D01*
X141982543Y-108119588D01*
X141977208Y-108118836D01*
X140951945Y-107718418D01*
X140491702Y-107538669D01*
X140486205Y-107534234D01*
X140484264Y-107527442D01*
X140486585Y-107520770D01*
X140492323Y-107516651D01*
X142065799Y-107002400D01*
X142071607Y-107002026D01*
X142076877Y-107004498D01*
G37*
%TD.AperFunction*%
%TD*%
%TA.AperFunction,Conductor*%
%TO.N,U1-IFB*%
G36*
X142768234Y-107570572D02*
G01*
X143336944Y-107804747D01*
X143398256Y-107829994D01*
X143404601Y-107836312D01*
X143404621Y-107845265D01*
X143258563Y-108200195D01*
X143256016Y-108204016D01*
X143252195Y-108206563D01*
X142897265Y-108352621D01*
X142888312Y-108352601D01*
X142881994Y-108346256D01*
X142821851Y-108200195D01*
X142622572Y-107716234D01*
X142621919Y-107709487D01*
X142625117Y-107703511D01*
X142755511Y-107573117D01*
X142761487Y-107569919D01*
X142768234Y-107570572D01*
G37*
%TD.AperFunction*%
%TD*%
%TA.AperFunction,Conductor*%
%TO.N,U1-IFB*%
G36*
X139039946Y-106916265D02*
G01*
X140437973Y-107516750D01*
X140444184Y-107523069D01*
X140444184Y-107531931D01*
X140437972Y-107538250D01*
X139039949Y-108138733D01*
X139033819Y-108139585D01*
X138821535Y-108111895D01*
X138184686Y-108028828D01*
X138177408Y-108024947D01*
X138174500Y-108017227D01*
X138174500Y-107037773D01*
X138177408Y-107030053D01*
X138184686Y-107026171D01*
X139033822Y-106915414D01*
X139039946Y-106916265D01*
G37*
%TD.AperFunction*%
%TD*%
M02*
