%TF.GenerationSoftware,KiCad,Pcbnew,(7.0.0-rc1-145-gbd6d0b6cb6)*%
%TF.CreationDate,2023-03-28T23:28:49+02:00*%
%TF.ProjectId,2HBR_MINIMAL,32484252-5f4d-4494-9e49-4d414c2e6b69,rev?*%
%TF.SameCoordinates,Original*%
%TF.FileFunction,Legend,Bot*%
%TF.FilePolarity,Positive*%
%FSLAX46Y46*%
G04 Gerber Fmt 4.6, Leading zero omitted, Abs format (unit mm)*
G04 Created by KiCad (PCBNEW (7.0.0-rc1-145-gbd6d0b6cb6)) date 2023-03-28 23:28:49*
%MOMM*%
%LPD*%
G01*
G04 APERTURE LIST*
%ADD10C,0.150000*%
%ADD11C,0.200000*%
%ADD12C,0.120000*%
G04 APERTURE END LIST*
D10*
X126238000Y-106680000D02*
X125984000Y-106680000D01*
X125984000Y-106680000D02*
X125476000Y-106680000D01*
X125984000Y-111760000D02*
X125984000Y-106680000D01*
X125476000Y-111760000D02*
X125984000Y-111760000D01*
X122682000Y-114300000D02*
X122682000Y-115316000D01*
X143256000Y-106680000D02*
X143256000Y-105664000D01*
X146129428Y-104446380D02*
X145938952Y-104446380D01*
X145938952Y-104446380D02*
X145843714Y-104494000D01*
X145843714Y-104494000D02*
X145748476Y-104589238D01*
X145748476Y-104589238D02*
X145700857Y-104779714D01*
X145700857Y-104779714D02*
X145700857Y-105113047D01*
X145700857Y-105113047D02*
X145748476Y-105303523D01*
X145748476Y-105303523D02*
X145843714Y-105398761D01*
X145843714Y-105398761D02*
X145938952Y-105446380D01*
X145938952Y-105446380D02*
X146129428Y-105446380D01*
X146129428Y-105446380D02*
X146224666Y-105398761D01*
X146224666Y-105398761D02*
X146319904Y-105303523D01*
X146319904Y-105303523D02*
X146367523Y-105113047D01*
X146367523Y-105113047D02*
X146367523Y-104779714D01*
X146367523Y-104779714D02*
X146319904Y-104589238D01*
X146319904Y-104589238D02*
X146224666Y-104494000D01*
X146224666Y-104494000D02*
X146129428Y-104446380D01*
X145272285Y-104446380D02*
X145272285Y-105255904D01*
X145272285Y-105255904D02*
X145224666Y-105351142D01*
X145224666Y-105351142D02*
X145177047Y-105398761D01*
X145177047Y-105398761D02*
X145081809Y-105446380D01*
X145081809Y-105446380D02*
X144891333Y-105446380D01*
X144891333Y-105446380D02*
X144796095Y-105398761D01*
X144796095Y-105398761D02*
X144748476Y-105351142D01*
X144748476Y-105351142D02*
X144700857Y-105255904D01*
X144700857Y-105255904D02*
X144700857Y-104446380D01*
X144367523Y-104446380D02*
X143796095Y-104446380D01*
X144081809Y-105446380D02*
X144081809Y-104446380D01*
X142938952Y-105446380D02*
X143510380Y-105446380D01*
X143224666Y-105446380D02*
X143224666Y-104446380D01*
X143224666Y-104446380D02*
X143319904Y-104589238D01*
X143319904Y-104589238D02*
X143415142Y-104684476D01*
X143415142Y-104684476D02*
X143510380Y-104732095D01*
X143256000Y-106680000D02*
X143764000Y-106680000D01*
X143256000Y-111760000D02*
X143256000Y-106680000D01*
X143764000Y-111760000D02*
X143256000Y-111760000D01*
X146558000Y-114300000D02*
X146558000Y-115062000D01*
X146637428Y-115368380D02*
X146446952Y-115368380D01*
X146446952Y-115368380D02*
X146351714Y-115416000D01*
X146351714Y-115416000D02*
X146256476Y-115511238D01*
X146256476Y-115511238D02*
X146208857Y-115701714D01*
X146208857Y-115701714D02*
X146208857Y-116035047D01*
X146208857Y-116035047D02*
X146256476Y-116225523D01*
X146256476Y-116225523D02*
X146351714Y-116320761D01*
X146351714Y-116320761D02*
X146446952Y-116368380D01*
X146446952Y-116368380D02*
X146637428Y-116368380D01*
X146637428Y-116368380D02*
X146732666Y-116320761D01*
X146732666Y-116320761D02*
X146827904Y-116225523D01*
X146827904Y-116225523D02*
X146875523Y-116035047D01*
X146875523Y-116035047D02*
X146875523Y-115701714D01*
X146875523Y-115701714D02*
X146827904Y-115511238D01*
X146827904Y-115511238D02*
X146732666Y-115416000D01*
X146732666Y-115416000D02*
X146637428Y-115368380D01*
X145780285Y-115368380D02*
X145780285Y-116177904D01*
X145780285Y-116177904D02*
X145732666Y-116273142D01*
X145732666Y-116273142D02*
X145685047Y-116320761D01*
X145685047Y-116320761D02*
X145589809Y-116368380D01*
X145589809Y-116368380D02*
X145399333Y-116368380D01*
X145399333Y-116368380D02*
X145304095Y-116320761D01*
X145304095Y-116320761D02*
X145256476Y-116273142D01*
X145256476Y-116273142D02*
X145208857Y-116177904D01*
X145208857Y-116177904D02*
X145208857Y-115368380D01*
X144875523Y-115368380D02*
X144304095Y-115368380D01*
X144589809Y-116368380D02*
X144589809Y-115368380D01*
X144018380Y-115463619D02*
X143970761Y-115416000D01*
X143970761Y-115416000D02*
X143875523Y-115368380D01*
X143875523Y-115368380D02*
X143637428Y-115368380D01*
X143637428Y-115368380D02*
X143542190Y-115416000D01*
X143542190Y-115416000D02*
X143494571Y-115463619D01*
X143494571Y-115463619D02*
X143446952Y-115558857D01*
X143446952Y-115558857D02*
X143446952Y-115654095D01*
X143446952Y-115654095D02*
X143494571Y-115796952D01*
X143494571Y-115796952D02*
X144065999Y-116368380D01*
X144065999Y-116368380D02*
X143446952Y-116368380D01*
X146558000Y-109220000D02*
X145796000Y-109220000D01*
X146558000Y-114300000D02*
X146558000Y-109220000D01*
X145796000Y-114300000D02*
X146558000Y-114300000D01*
G36*
X141803646Y-104280142D02*
G01*
X141557305Y-104280142D01*
X141476353Y-103915857D01*
X141722694Y-103915857D01*
X141803646Y-104280142D01*
G37*
G36*
X140595573Y-103559639D02*
G01*
X140686562Y-103650628D01*
X140736428Y-103850092D01*
X140736428Y-104231626D01*
X140686562Y-104431084D01*
X140595573Y-104522074D01*
X140508009Y-104565857D01*
X140314847Y-104565857D01*
X140227283Y-104522074D01*
X140136293Y-104431084D01*
X140086428Y-104231623D01*
X140086428Y-103850092D01*
X140136293Y-103650628D01*
X140227283Y-103559639D01*
X140314847Y-103515857D01*
X140508008Y-103515857D01*
X140595573Y-103559639D01*
G37*
G36*
X137936428Y-102050428D02*
G01*
X137732569Y-102050428D01*
X137717656Y-102047678D01*
X137710944Y-102050428D01*
X137571990Y-102050428D01*
X137484426Y-102006645D01*
X137444496Y-101966715D01*
X137400714Y-101879152D01*
X137400714Y-101743134D01*
X137444495Y-101655569D01*
X137484426Y-101615639D01*
X137571990Y-101571857D01*
X137936428Y-101571857D01*
X137936428Y-102050428D01*
G37*
G36*
X139136428Y-102621857D02*
G01*
X138771990Y-102621857D01*
X138684426Y-102578074D01*
X138644496Y-102538144D01*
X138600714Y-102450580D01*
X138600714Y-102314563D01*
X138644496Y-102226997D01*
X138680513Y-102190980D01*
X138816986Y-102145489D01*
X138819819Y-102145999D01*
X138826363Y-102143285D01*
X139136428Y-102143285D01*
X139136428Y-102621857D01*
G37*
G36*
X139136428Y-101993285D02*
G01*
X138829133Y-101993285D01*
X138741568Y-101949501D01*
X138701640Y-101909574D01*
X138657857Y-101822009D01*
X138657857Y-101743134D01*
X138701638Y-101655569D01*
X138741569Y-101615639D01*
X138829133Y-101571857D01*
X139136428Y-101571857D01*
X139136428Y-101993285D01*
G37*
G36*
X136164999Y-102621857D02*
G01*
X135966455Y-102621857D01*
X135823369Y-102574161D01*
X135730210Y-102481002D01*
X135682191Y-102384964D01*
X135629285Y-102173337D01*
X135629285Y-102020377D01*
X135682192Y-101808748D01*
X135730210Y-101712711D01*
X135823369Y-101619552D01*
X135966457Y-101571857D01*
X136164999Y-101571857D01*
X136164999Y-102621857D01*
G37*
G36*
X135364999Y-100106428D02*
G01*
X135161140Y-100106428D01*
X135146227Y-100103678D01*
X135139515Y-100106428D01*
X135000561Y-100106428D01*
X134912997Y-100062645D01*
X134873067Y-100022715D01*
X134829285Y-99935152D01*
X134829285Y-99799134D01*
X134873066Y-99711569D01*
X134912997Y-99671639D01*
X135000561Y-99627857D01*
X135364999Y-99627857D01*
X135364999Y-100106428D01*
G37*
G36*
X136538430Y-99671639D02*
G01*
X136629419Y-99762628D01*
X136679285Y-99962092D01*
X136679285Y-100343626D01*
X136629419Y-100543084D01*
X136538430Y-100634074D01*
X136450866Y-100677857D01*
X136257704Y-100677857D01*
X136170140Y-100634074D01*
X136079150Y-100543084D01*
X136029285Y-100343623D01*
X136029285Y-99962092D01*
X136079150Y-99762628D01*
X136170140Y-99671639D01*
X136257704Y-99627857D01*
X136450865Y-99627857D01*
X136538430Y-99671639D01*
G37*
G36*
X132218430Y-99671639D02*
G01*
X132258359Y-99711568D01*
X132306377Y-99807604D01*
X132359285Y-100019235D01*
X132359285Y-100286483D01*
X132306377Y-100498110D01*
X132258359Y-100594145D01*
X132218431Y-100634073D01*
X132130866Y-100677857D01*
X132051989Y-100677857D01*
X131964425Y-100634075D01*
X131924496Y-100594143D01*
X131876477Y-100498107D01*
X131823571Y-100286480D01*
X131823571Y-100019235D01*
X131876478Y-99807605D01*
X131924496Y-99711568D01*
X131964425Y-99671639D01*
X132051990Y-99627857D01*
X132130865Y-99627857D01*
X132218430Y-99671639D01*
G37*
G36*
X132816428Y-98162428D02*
G01*
X132612569Y-98162428D01*
X132597656Y-98159678D01*
X132590944Y-98162428D01*
X132451990Y-98162428D01*
X132364426Y-98118645D01*
X132324496Y-98078715D01*
X132280714Y-97991152D01*
X132280714Y-97855134D01*
X132324495Y-97767569D01*
X132364426Y-97727639D01*
X132451990Y-97683857D01*
X132816428Y-97683857D01*
X132816428Y-98162428D01*
G37*
G36*
X130558800Y-98391000D02*
G01*
X130195485Y-98391000D01*
X130377143Y-97846027D01*
X130558800Y-98391000D01*
G37*
G36*
X139281286Y-98184781D02*
G01*
X139321216Y-98224711D01*
X139364999Y-98312276D01*
X139364999Y-98562581D01*
X139321217Y-98650143D01*
X139281286Y-98690074D01*
X139193723Y-98733857D01*
X139000561Y-98733857D01*
X138912997Y-98690074D01*
X138873067Y-98650144D01*
X138829285Y-98562580D01*
X138829285Y-98312277D01*
X138873067Y-98224711D01*
X138912997Y-98184781D01*
X139000560Y-98141000D01*
X139193722Y-98141000D01*
X139281286Y-98184781D01*
G37*
G36*
X138138429Y-98184781D02*
G01*
X138178359Y-98224711D01*
X138222142Y-98312276D01*
X138222142Y-98562581D01*
X138178360Y-98650143D01*
X138138429Y-98690074D01*
X138050866Y-98733857D01*
X137857704Y-98733857D01*
X137770140Y-98690074D01*
X137730210Y-98650144D01*
X137686428Y-98562580D01*
X137686428Y-98312277D01*
X137730210Y-98224711D01*
X137770140Y-98184781D01*
X137857703Y-98141000D01*
X138050865Y-98141000D01*
X138138429Y-98184781D01*
G37*
G36*
X135852713Y-97727638D02*
G01*
X135892645Y-97767569D01*
X135936428Y-97855133D01*
X135936428Y-98105438D01*
X135892646Y-98193000D01*
X135852715Y-98232931D01*
X135765152Y-98276714D01*
X135571990Y-98276714D01*
X135484426Y-98232931D01*
X135444496Y-98193001D01*
X135400714Y-98105437D01*
X135400714Y-97855134D01*
X135444495Y-97767569D01*
X135484426Y-97727639D01*
X135571990Y-97683857D01*
X135765153Y-97683857D01*
X135852713Y-97727638D01*
G37*
G36*
X134016428Y-98733857D02*
G01*
X133651990Y-98733857D01*
X133564426Y-98690074D01*
X133524496Y-98650144D01*
X133480714Y-98562580D01*
X133480714Y-98426563D01*
X133524496Y-98338997D01*
X133560513Y-98302980D01*
X133696986Y-98257489D01*
X133699819Y-98257999D01*
X133706363Y-98255285D01*
X134016428Y-98255285D01*
X134016428Y-98733857D01*
G37*
G36*
X134016428Y-98105285D02*
G01*
X133709133Y-98105285D01*
X133621568Y-98061501D01*
X133581640Y-98021574D01*
X133537857Y-97934009D01*
X133537857Y-97855134D01*
X133581638Y-97767569D01*
X133621569Y-97727639D01*
X133709133Y-97683857D01*
X134016428Y-97683857D01*
X134016428Y-98105285D01*
G37*
G36*
X128218431Y-97727639D02*
G01*
X128309420Y-97818628D01*
X128359286Y-98018092D01*
X128359286Y-98399626D01*
X128309420Y-98599084D01*
X128218431Y-98690074D01*
X128130867Y-98733857D01*
X127937705Y-98733857D01*
X127850141Y-98690074D01*
X127759151Y-98599084D01*
X127709286Y-98399623D01*
X127709286Y-98018092D01*
X127759151Y-97818628D01*
X127850141Y-97727639D01*
X127937705Y-97683857D01*
X128130866Y-97683857D01*
X128218431Y-97727639D01*
G37*
G36*
X140507856Y-98162428D02*
G01*
X140143418Y-98162428D01*
X140055854Y-98118645D01*
X140015924Y-98078715D01*
X139972142Y-97991152D01*
X139972142Y-97855134D01*
X140015923Y-97767569D01*
X140055854Y-97727639D01*
X140143418Y-97683857D01*
X140507856Y-97683857D01*
X140507856Y-98162428D01*
G37*
G36*
X142636429Y-105298429D02*
G01*
X124702857Y-105298429D01*
X124702857Y-104639544D01*
X134676130Y-104639544D01*
X134687827Y-104682006D01*
X134720624Y-104711403D01*
X134764108Y-104718404D01*
X134804473Y-104700783D01*
X135154285Y-104176065D01*
X135497862Y-104691431D01*
X135523014Y-104712495D01*
X135566708Y-104718030D01*
X135606458Y-104699063D01*
X135629645Y-104661616D01*
X135629483Y-104651981D01*
X135762630Y-104651981D01*
X135780926Y-104692045D01*
X135817978Y-104715857D01*
X136406068Y-104715857D01*
X136422552Y-104718227D01*
X136437704Y-104711307D01*
X136453688Y-104706614D01*
X136457424Y-104702301D01*
X136462616Y-104699931D01*
X136471623Y-104685914D01*
X136482530Y-104673328D01*
X136483341Y-104667681D01*
X136486428Y-104662879D01*
X136486428Y-104651981D01*
X136848344Y-104651981D01*
X136866640Y-104692045D01*
X136903692Y-104715857D01*
X137491782Y-104715857D01*
X137508266Y-104718227D01*
X137523418Y-104711307D01*
X137539402Y-104706614D01*
X137543138Y-104702301D01*
X137548330Y-104699931D01*
X137557337Y-104685914D01*
X137568244Y-104673328D01*
X137569055Y-104667681D01*
X137572142Y-104662879D01*
X137572142Y-104646217D01*
X137574512Y-104629733D01*
X137572142Y-104624543D01*
X137572142Y-104017645D01*
X137574512Y-104001161D01*
X137572142Y-103995971D01*
X137572142Y-103451981D01*
X137819773Y-103451981D01*
X137838069Y-103492045D01*
X137875121Y-103515857D01*
X138165000Y-103515857D01*
X138165000Y-104651639D01*
X138174243Y-104683117D01*
X138207529Y-104711959D01*
X138251124Y-104718227D01*
X138291188Y-104699931D01*
X138315000Y-104662879D01*
X138315000Y-104651981D01*
X138848344Y-104651981D01*
X138866640Y-104692045D01*
X138903692Y-104715857D01*
X139491782Y-104715857D01*
X139508266Y-104718227D01*
X139523418Y-104711307D01*
X139539402Y-104706614D01*
X139543138Y-104702301D01*
X139548330Y-104699931D01*
X139557337Y-104685914D01*
X139568244Y-104673328D01*
X139569055Y-104667681D01*
X139572142Y-104662879D01*
X139572142Y-104646217D01*
X139574512Y-104629733D01*
X139572142Y-104624543D01*
X139572142Y-104237683D01*
X139933326Y-104237683D01*
X139936428Y-104250091D01*
X139936428Y-104251639D01*
X139939032Y-104260508D01*
X139995533Y-104486513D01*
X139999966Y-104506889D01*
X140008744Y-104515667D01*
X140015027Y-104526375D01*
X140023997Y-104530920D01*
X140123176Y-104630099D01*
X140129619Y-104640947D01*
X140148101Y-104650188D01*
X140166242Y-104660094D01*
X140167703Y-104659989D01*
X140259989Y-104706133D01*
X140275120Y-104715857D01*
X140290450Y-104715857D01*
X140305533Y-104718571D01*
X140312077Y-104715857D01*
X140521674Y-104715857D01*
X140539558Y-104717788D01*
X140553271Y-104710931D01*
X140567974Y-104706614D01*
X140572612Y-104701260D01*
X140665130Y-104655001D01*
X140677461Y-104652319D01*
X140692083Y-104637696D01*
X140707206Y-104623629D01*
X140707568Y-104622211D01*
X140806498Y-104523280D01*
X140821705Y-104508983D01*
X140824716Y-104496936D01*
X140830665Y-104486043D01*
X140829947Y-104476013D01*
X140881195Y-104271020D01*
X140886428Y-104262879D01*
X140886428Y-104250091D01*
X140886804Y-104248587D01*
X140886428Y-104239341D01*
X140886428Y-103853201D01*
X140886841Y-103851981D01*
X141076915Y-103851981D01*
X141095211Y-103892045D01*
X141132263Y-103915857D01*
X141322694Y-103915857D01*
X141403646Y-104280142D01*
X141257789Y-104280142D01*
X141226311Y-104289385D01*
X141197469Y-104322671D01*
X141191201Y-104366266D01*
X141209497Y-104406330D01*
X141246549Y-104430142D01*
X141436980Y-104430142D01*
X141540553Y-104896223D01*
X141556404Y-104924946D01*
X141595154Y-104945881D01*
X141639071Y-104942542D01*
X141674212Y-104915991D01*
X141689419Y-104874656D01*
X141590638Y-104430142D01*
X141836980Y-104430142D01*
X141940553Y-104896223D01*
X141956404Y-104924946D01*
X141995154Y-104945881D01*
X142039071Y-104942542D01*
X142074212Y-104915991D01*
X142089419Y-104874656D01*
X141990638Y-104430142D01*
X142136496Y-104430142D01*
X142167974Y-104420899D01*
X142196816Y-104387613D01*
X142203084Y-104344018D01*
X142184788Y-104303954D01*
X142147736Y-104280142D01*
X141957305Y-104280142D01*
X141876353Y-103915857D01*
X142022210Y-103915857D01*
X142053688Y-103906614D01*
X142082530Y-103873328D01*
X142088798Y-103829733D01*
X142070502Y-103789669D01*
X142033450Y-103765857D01*
X141843019Y-103765857D01*
X141739446Y-103299776D01*
X141723595Y-103271053D01*
X141684845Y-103250118D01*
X141640928Y-103253457D01*
X141605787Y-103280008D01*
X141590580Y-103321343D01*
X141689361Y-103765857D01*
X141443019Y-103765857D01*
X141339446Y-103299776D01*
X141323595Y-103271053D01*
X141284845Y-103250118D01*
X141240928Y-103253457D01*
X141205787Y-103280008D01*
X141190580Y-103321343D01*
X141289361Y-103765857D01*
X141143503Y-103765857D01*
X141112025Y-103775100D01*
X141083183Y-103808386D01*
X141076915Y-103851981D01*
X140886841Y-103851981D01*
X140889530Y-103844032D01*
X140886428Y-103831624D01*
X140886428Y-103830075D01*
X140883822Y-103821200D01*
X140827324Y-103595207D01*
X140822890Y-103574824D01*
X140814110Y-103566044D01*
X140807829Y-103555338D01*
X140798858Y-103550792D01*
X140699681Y-103451615D01*
X140693238Y-103440767D01*
X140674756Y-103431526D01*
X140656615Y-103421620D01*
X140655153Y-103421724D01*
X140562866Y-103375580D01*
X140547736Y-103365857D01*
X140532406Y-103365857D01*
X140517323Y-103363143D01*
X140510779Y-103365857D01*
X140301182Y-103365857D01*
X140283298Y-103363926D01*
X140269584Y-103370782D01*
X140254882Y-103375100D01*
X140250243Y-103380453D01*
X140157726Y-103426712D01*
X140145396Y-103429395D01*
X140130770Y-103444020D01*
X140115651Y-103458085D01*
X140115288Y-103459502D01*
X140016351Y-103558438D01*
X140001152Y-103572730D01*
X139998140Y-103584775D01*
X139992192Y-103595670D01*
X139992909Y-103605700D01*
X139941660Y-103810693D01*
X139936428Y-103818835D01*
X139936428Y-103831623D01*
X139936052Y-103833127D01*
X139936428Y-103842373D01*
X139936428Y-104228514D01*
X139933326Y-104237683D01*
X139572142Y-104237683D01*
X139572142Y-104017645D01*
X139574512Y-104001161D01*
X139572142Y-103995971D01*
X139572142Y-103446217D01*
X139574512Y-103429733D01*
X139567592Y-103414580D01*
X139562899Y-103398597D01*
X139558586Y-103394860D01*
X139556216Y-103389669D01*
X139542199Y-103380661D01*
X139529613Y-103369755D01*
X139523966Y-103368943D01*
X139519164Y-103365857D01*
X139502502Y-103365857D01*
X139486018Y-103363487D01*
X139480828Y-103365857D01*
X138914932Y-103365857D01*
X138883454Y-103375100D01*
X138854612Y-103408386D01*
X138848344Y-103451981D01*
X138866640Y-103492045D01*
X138903692Y-103515857D01*
X139422142Y-103515857D01*
X139422142Y-103937285D01*
X139086360Y-103937285D01*
X139054882Y-103946528D01*
X139026040Y-103979814D01*
X139019772Y-104023409D01*
X139038068Y-104063473D01*
X139075120Y-104087285D01*
X139422142Y-104087285D01*
X139422142Y-104565857D01*
X138914932Y-104565857D01*
X138883454Y-104575100D01*
X138854612Y-104608386D01*
X138848344Y-104651981D01*
X138315000Y-104651981D01*
X138315000Y-103515857D01*
X138593639Y-103515857D01*
X138625117Y-103506614D01*
X138653959Y-103473328D01*
X138660227Y-103429733D01*
X138641931Y-103389669D01*
X138604879Y-103365857D01*
X138245360Y-103365857D01*
X138228876Y-103363487D01*
X138223686Y-103365857D01*
X137886361Y-103365857D01*
X137854883Y-103375100D01*
X137826041Y-103408386D01*
X137819773Y-103451981D01*
X137572142Y-103451981D01*
X137572142Y-103446217D01*
X137574512Y-103429733D01*
X137567592Y-103414580D01*
X137562899Y-103398597D01*
X137558586Y-103394860D01*
X137556216Y-103389669D01*
X137542199Y-103380661D01*
X137529613Y-103369755D01*
X137523966Y-103368943D01*
X137519164Y-103365857D01*
X137502502Y-103365857D01*
X137486018Y-103363487D01*
X137480828Y-103365857D01*
X136914932Y-103365857D01*
X136883454Y-103375100D01*
X136854612Y-103408386D01*
X136848344Y-103451981D01*
X136866640Y-103492045D01*
X136903692Y-103515857D01*
X137422142Y-103515857D01*
X137422142Y-103937285D01*
X137086360Y-103937285D01*
X137054882Y-103946528D01*
X137026040Y-103979814D01*
X137019772Y-104023409D01*
X137038068Y-104063473D01*
X137075120Y-104087285D01*
X137422142Y-104087285D01*
X137422142Y-104565857D01*
X136914932Y-104565857D01*
X136883454Y-104575100D01*
X136854612Y-104608386D01*
X136848344Y-104651981D01*
X136486428Y-104651981D01*
X136486428Y-104646217D01*
X136488798Y-104629733D01*
X136486428Y-104624543D01*
X136486428Y-103430075D01*
X136477185Y-103398597D01*
X136443899Y-103369755D01*
X136400304Y-103363487D01*
X136360240Y-103381783D01*
X136336428Y-103418835D01*
X136336428Y-104565857D01*
X135829218Y-104565857D01*
X135797740Y-104575100D01*
X135768898Y-104608386D01*
X135762630Y-104651981D01*
X135629483Y-104651981D01*
X135628905Y-104617578D01*
X135244424Y-104040856D01*
X135622670Y-103473488D01*
X135632440Y-103442170D01*
X135620743Y-103399708D01*
X135587947Y-103370310D01*
X135544463Y-103363310D01*
X135504097Y-103380931D01*
X135154285Y-103905648D01*
X134810708Y-103390283D01*
X134785557Y-103369219D01*
X134741862Y-103363685D01*
X134702112Y-103382652D01*
X134678926Y-103420098D01*
X134679666Y-103464136D01*
X135064146Y-104040856D01*
X134685900Y-104608226D01*
X134676130Y-104639544D01*
X124702857Y-104639544D01*
X124702857Y-102707981D01*
X133191201Y-102707981D01*
X133209497Y-102748045D01*
X133246549Y-102771857D01*
X133834639Y-102771857D01*
X133851123Y-102774227D01*
X133866275Y-102767307D01*
X133882259Y-102762614D01*
X133885995Y-102758301D01*
X133891187Y-102755931D01*
X133900194Y-102741914D01*
X133911101Y-102729328D01*
X133911912Y-102723681D01*
X133914999Y-102718879D01*
X133914999Y-102702217D01*
X133917369Y-102685733D01*
X133914999Y-102680543D01*
X133914999Y-102576995D01*
X134276318Y-102576995D01*
X134279285Y-102590634D01*
X134279285Y-102593353D01*
X134281566Y-102601124D01*
X134285680Y-102620032D01*
X134287716Y-102622068D01*
X134288528Y-102624831D01*
X134303141Y-102637493D01*
X134355540Y-102689892D01*
X134366819Y-102703901D01*
X134381362Y-102708749D01*
X134394813Y-102716093D01*
X134401878Y-102715587D01*
X134550219Y-102765035D01*
X134560834Y-102771857D01*
X134581513Y-102771857D01*
X134602153Y-102772603D01*
X134603412Y-102771857D01*
X134687740Y-102771857D01*
X134699967Y-102774972D01*
X134719579Y-102768434D01*
X134739402Y-102762614D01*
X134740360Y-102761507D01*
X134888461Y-102712141D01*
X134906032Y-102708319D01*
X134916870Y-102697480D01*
X134929457Y-102688733D01*
X134932165Y-102682185D01*
X135029240Y-102585109D01*
X135040090Y-102578666D01*
X135049340Y-102560165D01*
X135059236Y-102542043D01*
X135059131Y-102540582D01*
X135101106Y-102456632D01*
X135107419Y-102450697D01*
X135110763Y-102437317D01*
X135111903Y-102435039D01*
X135113365Y-102426909D01*
X135166909Y-102212734D01*
X135172142Y-102204593D01*
X135172142Y-102191805D01*
X135172518Y-102190301D01*
X135172142Y-102181055D01*
X135172142Y-102179397D01*
X135476183Y-102179397D01*
X135479285Y-102191805D01*
X135479285Y-102193353D01*
X135481889Y-102202222D01*
X135535426Y-102416372D01*
X135534497Y-102424986D01*
X135540663Y-102437318D01*
X135541282Y-102439793D01*
X135545466Y-102446925D01*
X135597283Y-102550558D01*
X135599966Y-102562889D01*
X135614591Y-102577514D01*
X135628656Y-102592634D01*
X135630073Y-102592996D01*
X135726968Y-102689892D01*
X135738247Y-102703901D01*
X135752790Y-102708748D01*
X135766241Y-102716093D01*
X135773306Y-102715587D01*
X135921647Y-102765034D01*
X135932263Y-102771857D01*
X135952943Y-102771857D01*
X135973582Y-102772603D01*
X135974841Y-102771857D01*
X136234639Y-102771857D01*
X136251123Y-102774227D01*
X136266275Y-102767307D01*
X136282259Y-102762614D01*
X136285995Y-102758301D01*
X136291187Y-102755931D01*
X136300194Y-102741914D01*
X136311101Y-102729328D01*
X136311912Y-102723681D01*
X136314999Y-102718879D01*
X136314999Y-102707639D01*
X136736428Y-102707639D01*
X136745671Y-102739117D01*
X136778957Y-102767959D01*
X136822552Y-102774227D01*
X136862616Y-102755931D01*
X136886428Y-102718879D01*
X136886428Y-102693769D01*
X137247609Y-102693769D01*
X137258338Y-102736485D01*
X137290458Y-102766620D01*
X137333772Y-102774607D01*
X137374528Y-102757908D01*
X137764764Y-102200428D01*
X137936428Y-102200428D01*
X137936428Y-102707639D01*
X137945671Y-102739117D01*
X137978957Y-102767959D01*
X138022552Y-102774227D01*
X138062616Y-102755931D01*
X138086428Y-102718879D01*
X138086428Y-102305248D01*
X138448000Y-102305248D01*
X138450714Y-102311792D01*
X138450714Y-102464245D01*
X138448783Y-102482129D01*
X138455639Y-102495842D01*
X138459957Y-102510545D01*
X138465310Y-102515183D01*
X138511569Y-102607701D01*
X138514252Y-102620032D01*
X138528876Y-102634656D01*
X138542942Y-102649777D01*
X138544359Y-102650139D01*
X138580319Y-102686099D01*
X138586762Y-102696947D01*
X138605253Y-102706192D01*
X138623385Y-102716093D01*
X138624844Y-102715988D01*
X138717132Y-102762133D01*
X138732263Y-102771857D01*
X138747593Y-102771857D01*
X138762676Y-102774571D01*
X138769220Y-102771857D01*
X139206068Y-102771857D01*
X139222552Y-102774227D01*
X139237704Y-102767307D01*
X139253688Y-102762614D01*
X139257424Y-102758301D01*
X139262616Y-102755931D01*
X139271623Y-102741914D01*
X139282530Y-102729328D01*
X139283341Y-102723681D01*
X139286428Y-102718879D01*
X139286428Y-102702217D01*
X139288798Y-102685733D01*
X139286428Y-102680543D01*
X139286428Y-102250838D01*
X139705487Y-102250838D01*
X139723783Y-102290902D01*
X139760835Y-102314714D01*
X140707924Y-102314714D01*
X140739402Y-102305471D01*
X140768244Y-102272185D01*
X140774512Y-102228590D01*
X140756216Y-102188526D01*
X140719164Y-102164714D01*
X139772075Y-102164714D01*
X139740597Y-102173957D01*
X139711755Y-102207243D01*
X139705487Y-102250838D01*
X139286428Y-102250838D01*
X139286428Y-102079409D01*
X141191201Y-102079409D01*
X141193571Y-102084599D01*
X141193571Y-102707639D01*
X141202814Y-102739117D01*
X141236100Y-102767959D01*
X141279695Y-102774227D01*
X141319759Y-102755931D01*
X141343571Y-102718879D01*
X141343571Y-102143285D01*
X141879285Y-102143285D01*
X141879285Y-102707639D01*
X141888528Y-102739117D01*
X141921814Y-102767959D01*
X141965409Y-102774227D01*
X142005473Y-102755931D01*
X142029285Y-102718879D01*
X142029285Y-102073645D01*
X142031655Y-102057161D01*
X142029285Y-102051971D01*
X142029285Y-101486075D01*
X142020042Y-101454597D01*
X141986756Y-101425755D01*
X141943161Y-101419487D01*
X141903097Y-101437783D01*
X141879285Y-101474835D01*
X141879285Y-101993285D01*
X141343571Y-101993285D01*
X141343571Y-101486075D01*
X141334328Y-101454597D01*
X141301042Y-101425755D01*
X141257447Y-101419487D01*
X141217383Y-101437783D01*
X141193571Y-101474835D01*
X141193571Y-102062925D01*
X141191201Y-102079409D01*
X139286428Y-102079409D01*
X139286428Y-102073645D01*
X139288798Y-102057161D01*
X139286428Y-102051971D01*
X139286428Y-101502217D01*
X139288798Y-101485733D01*
X139281878Y-101470580D01*
X139277185Y-101454597D01*
X139272872Y-101450860D01*
X139270502Y-101445669D01*
X139256485Y-101436661D01*
X139243899Y-101425755D01*
X139238252Y-101424943D01*
X139233450Y-101421857D01*
X139216788Y-101421857D01*
X139200304Y-101419487D01*
X139195114Y-101421857D01*
X138815468Y-101421857D01*
X138797584Y-101419926D01*
X138783870Y-101426782D01*
X138769168Y-101431100D01*
X138764529Y-101436453D01*
X138672011Y-101482713D01*
X138659683Y-101485395D01*
X138645064Y-101500013D01*
X138629937Y-101514085D01*
X138629574Y-101515502D01*
X138593614Y-101551461D01*
X138582767Y-101557904D01*
X138573528Y-101576381D01*
X138563621Y-101594526D01*
X138563725Y-101595986D01*
X138517580Y-101688275D01*
X138507857Y-101703406D01*
X138507857Y-101718736D01*
X138505143Y-101733819D01*
X138507857Y-101740363D01*
X138507857Y-101835674D01*
X138505926Y-101853558D01*
X138512782Y-101867271D01*
X138517100Y-101881974D01*
X138522453Y-101886612D01*
X138568712Y-101979129D01*
X138571395Y-101991462D01*
X138586027Y-102006094D01*
X138600085Y-102021206D01*
X138601502Y-102021568D01*
X138629728Y-102049794D01*
X138620109Y-102053000D01*
X138602539Y-102056823D01*
X138591700Y-102067661D01*
X138579114Y-102076409D01*
X138576405Y-102082956D01*
X138536472Y-102122889D01*
X138525624Y-102129333D01*
X138516383Y-102147814D01*
X138506477Y-102165956D01*
X138506581Y-102167417D01*
X138460437Y-102259704D01*
X138450714Y-102274835D01*
X138450714Y-102290165D01*
X138448000Y-102305248D01*
X138086428Y-102305248D01*
X138086428Y-102130788D01*
X138088798Y-102114304D01*
X138086428Y-102109114D01*
X138086428Y-101502217D01*
X138088798Y-101485733D01*
X138081878Y-101470580D01*
X138077185Y-101454597D01*
X138072872Y-101450860D01*
X138070502Y-101445669D01*
X138056485Y-101436661D01*
X138043899Y-101425755D01*
X138038252Y-101424943D01*
X138033450Y-101421857D01*
X138016788Y-101421857D01*
X138000304Y-101419487D01*
X137995114Y-101421857D01*
X137558325Y-101421857D01*
X137540441Y-101419926D01*
X137526727Y-101426782D01*
X137512025Y-101431100D01*
X137507386Y-101436453D01*
X137414868Y-101482713D01*
X137402540Y-101485395D01*
X137387921Y-101500013D01*
X137372794Y-101514085D01*
X137372431Y-101515502D01*
X137336471Y-101551461D01*
X137325624Y-101557904D01*
X137316385Y-101576381D01*
X137306478Y-101594526D01*
X137306582Y-101595986D01*
X137260437Y-101688275D01*
X137250714Y-101703406D01*
X137250714Y-101718736D01*
X137248000Y-101733819D01*
X137250714Y-101740363D01*
X137250714Y-101892817D01*
X137248783Y-101910701D01*
X137255639Y-101924414D01*
X137259957Y-101939117D01*
X137265310Y-101943755D01*
X137311569Y-102036272D01*
X137314252Y-102048603D01*
X137328876Y-102063227D01*
X137342942Y-102078348D01*
X137344359Y-102078710D01*
X137380319Y-102114670D01*
X137386762Y-102125518D01*
X137405253Y-102134763D01*
X137423385Y-102144664D01*
X137424844Y-102144559D01*
X137517132Y-102190704D01*
X137532263Y-102200428D01*
X137547593Y-102200428D01*
X137562676Y-102203142D01*
X137569220Y-102200428D01*
X137581665Y-102200428D01*
X137258089Y-102662680D01*
X137247609Y-102693769D01*
X136886428Y-102693769D01*
X136886428Y-101486075D01*
X136877185Y-101454597D01*
X136843899Y-101425755D01*
X136800304Y-101419487D01*
X136760240Y-101437783D01*
X136736428Y-101474835D01*
X136736428Y-102707639D01*
X136314999Y-102707639D01*
X136314999Y-102702217D01*
X136317369Y-102685733D01*
X136314999Y-102680543D01*
X136314999Y-101502217D01*
X136317369Y-101485733D01*
X136310449Y-101470580D01*
X136305756Y-101454597D01*
X136301443Y-101450860D01*
X136299073Y-101445669D01*
X136285056Y-101436661D01*
X136272470Y-101425755D01*
X136266823Y-101424943D01*
X136262021Y-101421857D01*
X136245359Y-101421857D01*
X136228875Y-101419487D01*
X136223685Y-101421857D01*
X135963687Y-101421857D01*
X135951460Y-101418742D01*
X135931847Y-101425279D01*
X135912025Y-101431100D01*
X135911066Y-101432206D01*
X135762965Y-101481572D01*
X135745395Y-101485395D01*
X135734556Y-101496233D01*
X135721970Y-101504981D01*
X135719261Y-101511528D01*
X135622186Y-101608603D01*
X135611338Y-101615047D01*
X135602097Y-101633528D01*
X135592191Y-101651670D01*
X135592295Y-101653131D01*
X135550320Y-101737081D01*
X135544009Y-101743016D01*
X135540664Y-101756392D01*
X135539524Y-101758674D01*
X135538058Y-101766816D01*
X135484517Y-101980977D01*
X135479285Y-101989120D01*
X135479285Y-102001908D01*
X135478909Y-102003412D01*
X135479285Y-102012658D01*
X135479285Y-102170228D01*
X135476183Y-102179397D01*
X135172142Y-102179397D01*
X135172142Y-102023486D01*
X135175244Y-102014317D01*
X135172142Y-102001909D01*
X135172142Y-102000360D01*
X135169535Y-101991484D01*
X135115999Y-101777340D01*
X135116930Y-101768727D01*
X135110763Y-101756393D01*
X135110145Y-101753921D01*
X135105962Y-101746792D01*
X135054143Y-101643154D01*
X135051461Y-101630824D01*
X135036841Y-101616204D01*
X135022772Y-101601079D01*
X135021353Y-101600716D01*
X134924458Y-101503821D01*
X134913180Y-101489813D01*
X134898638Y-101484965D01*
X134885186Y-101477620D01*
X134878118Y-101478125D01*
X134729779Y-101428679D01*
X134719164Y-101421857D01*
X134698484Y-101421857D01*
X134677845Y-101421111D01*
X134676586Y-101421857D01*
X134529755Y-101421857D01*
X134511870Y-101419926D01*
X134498156Y-101426782D01*
X134483454Y-101431100D01*
X134478815Y-101436453D01*
X134368243Y-101491740D01*
X134344222Y-101514084D01*
X134333311Y-101556755D01*
X134347201Y-101598551D01*
X134381483Y-101626203D01*
X134425272Y-101630931D01*
X134543419Y-101571857D01*
X134684972Y-101571857D01*
X134828057Y-101619552D01*
X134921216Y-101712711D01*
X134969234Y-101808747D01*
X135022142Y-102020377D01*
X135022142Y-102173340D01*
X134969234Y-102384967D01*
X134921216Y-102481001D01*
X134828056Y-102574161D01*
X134684970Y-102621857D01*
X134595026Y-102621857D01*
X134451941Y-102574161D01*
X134429285Y-102551505D01*
X134429285Y-102257571D01*
X134593638Y-102257571D01*
X134625116Y-102248328D01*
X134653958Y-102215042D01*
X134660226Y-102171447D01*
X134641930Y-102131383D01*
X134604878Y-102107571D01*
X134359645Y-102107571D01*
X134343161Y-102105201D01*
X134328008Y-102112120D01*
X134312025Y-102116814D01*
X134308288Y-102121126D01*
X134303097Y-102123497D01*
X134294089Y-102137513D01*
X134283183Y-102150100D01*
X134282371Y-102155746D01*
X134279285Y-102160549D01*
X134279285Y-102177211D01*
X134276915Y-102193695D01*
X134279285Y-102198885D01*
X134279285Y-102569040D01*
X134276318Y-102576995D01*
X133914999Y-102576995D01*
X133914999Y-102073645D01*
X133917369Y-102057161D01*
X133914999Y-102051971D01*
X133914999Y-101502217D01*
X133917369Y-101485733D01*
X133910449Y-101470580D01*
X133905756Y-101454597D01*
X133901443Y-101450860D01*
X133899073Y-101445669D01*
X133885056Y-101436661D01*
X133872470Y-101425755D01*
X133866823Y-101424943D01*
X133862021Y-101421857D01*
X133845359Y-101421857D01*
X133828875Y-101419487D01*
X133823685Y-101421857D01*
X133257789Y-101421857D01*
X133226311Y-101431100D01*
X133197469Y-101464386D01*
X133191201Y-101507981D01*
X133209497Y-101548045D01*
X133246549Y-101571857D01*
X133764999Y-101571857D01*
X133764999Y-101993285D01*
X133429217Y-101993285D01*
X133397739Y-102002528D01*
X133368897Y-102035814D01*
X133362629Y-102079409D01*
X133380925Y-102119473D01*
X133417977Y-102143285D01*
X133764999Y-102143285D01*
X133764999Y-102621857D01*
X133257789Y-102621857D01*
X133226311Y-102631100D01*
X133197469Y-102664386D01*
X133191201Y-102707981D01*
X124702857Y-102707981D01*
X124702857Y-100246962D01*
X129385143Y-100246962D01*
X129387857Y-100253506D01*
X129387857Y-100520245D01*
X129385926Y-100538129D01*
X129392782Y-100551842D01*
X129397100Y-100566545D01*
X129402453Y-100571183D01*
X129448712Y-100663701D01*
X129451395Y-100676032D01*
X129466019Y-100690656D01*
X129480085Y-100705777D01*
X129481502Y-100706139D01*
X129517462Y-100742099D01*
X129523905Y-100752947D01*
X129542396Y-100762192D01*
X129560528Y-100772093D01*
X129561987Y-100771988D01*
X129654275Y-100818133D01*
X129669406Y-100827857D01*
X129684736Y-100827857D01*
X129699819Y-100830571D01*
X129706363Y-100827857D01*
X130030245Y-100827857D01*
X130048129Y-100829788D01*
X130061842Y-100822931D01*
X130076545Y-100818614D01*
X130081183Y-100813260D01*
X130173701Y-100767001D01*
X130186032Y-100764319D01*
X130200656Y-100749694D01*
X130215777Y-100735629D01*
X130216139Y-100734211D01*
X130266371Y-100683980D01*
X130282093Y-100655186D01*
X130278951Y-100611255D01*
X130252557Y-100575997D01*
X130211290Y-100560604D01*
X130168253Y-100569966D01*
X130104144Y-100634074D01*
X130016580Y-100677857D01*
X129709133Y-100677857D01*
X129621569Y-100634074D01*
X129581639Y-100594144D01*
X129537857Y-100506580D01*
X129537857Y-100256277D01*
X129581639Y-100168711D01*
X129621569Y-100128781D01*
X129709132Y-100085000D01*
X129841033Y-100085000D01*
X129841198Y-100085105D01*
X129862909Y-100085000D01*
X129873639Y-100085000D01*
X129873818Y-100084947D01*
X129885241Y-100084892D01*
X129894510Y-100078871D01*
X129905117Y-100075757D01*
X129912597Y-100067123D01*
X129922177Y-100060902D01*
X129926720Y-100050825D01*
X129933959Y-100042471D01*
X129935584Y-100031164D01*
X129940280Y-100020750D01*
X129938654Y-100009815D01*
X129940227Y-99998876D01*
X129935482Y-99988486D01*
X129933802Y-99977185D01*
X129926521Y-99968864D01*
X129921931Y-99958812D01*
X129912322Y-99952636D01*
X129864987Y-99898539D01*
X130527599Y-99898539D01*
X130534136Y-99918150D01*
X130539957Y-99937974D01*
X130541063Y-99938932D01*
X130590429Y-100087032D01*
X130594252Y-100104603D01*
X130605090Y-100115441D01*
X130613838Y-100128028D01*
X130620385Y-100130736D01*
X131167505Y-100677857D01*
X130594932Y-100677857D01*
X130563454Y-100687100D01*
X130534612Y-100720386D01*
X130528344Y-100763981D01*
X130546640Y-100804045D01*
X130583692Y-100827857D01*
X131329429Y-100827857D01*
X131331956Y-100829237D01*
X131351245Y-100827857D01*
X131359353Y-100827857D01*
X131361964Y-100827090D01*
X131375887Y-100826094D01*
X131382683Y-100821006D01*
X131390831Y-100818614D01*
X131399971Y-100808064D01*
X131411146Y-100799700D01*
X131414113Y-100791744D01*
X131419673Y-100785328D01*
X131421659Y-100771513D01*
X131426538Y-100758433D01*
X131424732Y-100750135D01*
X131425941Y-100741733D01*
X131420143Y-100729038D01*
X131417176Y-100715396D01*
X131411171Y-100709391D01*
X131407645Y-100701669D01*
X131395902Y-100694122D01*
X130994321Y-100292540D01*
X131670469Y-100292540D01*
X131673571Y-100304948D01*
X131673571Y-100306496D01*
X131676175Y-100315365D01*
X131729712Y-100529515D01*
X131728783Y-100538129D01*
X131734949Y-100550461D01*
X131735568Y-100552936D01*
X131739752Y-100560068D01*
X131791569Y-100663701D01*
X131794252Y-100676032D01*
X131808878Y-100690658D01*
X131822942Y-100705777D01*
X131824358Y-100706139D01*
X131860316Y-100742097D01*
X131866761Y-100752948D01*
X131885261Y-100762198D01*
X131903384Y-100772094D01*
X131904844Y-100771989D01*
X131997133Y-100818133D01*
X132012263Y-100827857D01*
X132027593Y-100827857D01*
X132042676Y-100830571D01*
X132049220Y-100827857D01*
X132144531Y-100827857D01*
X132162415Y-100829788D01*
X132176128Y-100822931D01*
X132190831Y-100818614D01*
X132195469Y-100813260D01*
X132287986Y-100767001D01*
X132300319Y-100764319D01*
X132314951Y-100749686D01*
X132330063Y-100735629D01*
X132330425Y-100734211D01*
X132366383Y-100698252D01*
X132377233Y-100691809D01*
X132386482Y-100673310D01*
X132396379Y-100655185D01*
X132396274Y-100653725D01*
X132438249Y-100569775D01*
X132444562Y-100563840D01*
X132447906Y-100550460D01*
X132449046Y-100548182D01*
X132450508Y-100540052D01*
X132504052Y-100325877D01*
X132509285Y-100317736D01*
X132509285Y-100304948D01*
X132509661Y-100303444D01*
X132509285Y-100294198D01*
X132509285Y-100022344D01*
X132512387Y-100013175D01*
X132509285Y-100000767D01*
X132509285Y-99999218D01*
X132506679Y-99990343D01*
X132483728Y-99898539D01*
X132813313Y-99898539D01*
X132819850Y-99918150D01*
X132825671Y-99937974D01*
X132826777Y-99938932D01*
X132876143Y-100087032D01*
X132879966Y-100104603D01*
X132890804Y-100115441D01*
X132899552Y-100128028D01*
X132906099Y-100130736D01*
X133453219Y-100677857D01*
X132880646Y-100677857D01*
X132849168Y-100687100D01*
X132820326Y-100720386D01*
X132814058Y-100763981D01*
X132832354Y-100804045D01*
X132869406Y-100827857D01*
X133615143Y-100827857D01*
X133617670Y-100829237D01*
X133636959Y-100827857D01*
X133645067Y-100827857D01*
X133647678Y-100827090D01*
X133661601Y-100826094D01*
X133668397Y-100821006D01*
X133676545Y-100818614D01*
X133685685Y-100808064D01*
X133696860Y-100799700D01*
X133699827Y-100791744D01*
X133705387Y-100785328D01*
X133707373Y-100771513D01*
X133712252Y-100758433D01*
X133710446Y-100750135D01*
X133710499Y-100749769D01*
X134676180Y-100749769D01*
X134686909Y-100792485D01*
X134719029Y-100822620D01*
X134762343Y-100830607D01*
X134803099Y-100813908D01*
X135193335Y-100256428D01*
X135364999Y-100256428D01*
X135364999Y-100763639D01*
X135374242Y-100795117D01*
X135407528Y-100823959D01*
X135451123Y-100830227D01*
X135491187Y-100811931D01*
X135514999Y-100774879D01*
X135514999Y-100349683D01*
X135876183Y-100349683D01*
X135879285Y-100362091D01*
X135879285Y-100363639D01*
X135881889Y-100372508D01*
X135938390Y-100598513D01*
X135942823Y-100618889D01*
X135951601Y-100627667D01*
X135957884Y-100638375D01*
X135966854Y-100642920D01*
X136066033Y-100742099D01*
X136072476Y-100752947D01*
X136090958Y-100762188D01*
X136109099Y-100772094D01*
X136110560Y-100771989D01*
X136202846Y-100818133D01*
X136217977Y-100827857D01*
X136233307Y-100827857D01*
X136248390Y-100830571D01*
X136254934Y-100827857D01*
X136464531Y-100827857D01*
X136482415Y-100829788D01*
X136496128Y-100822931D01*
X136510831Y-100818614D01*
X136515469Y-100813260D01*
X136607987Y-100767001D01*
X136620318Y-100764319D01*
X136634940Y-100749696D01*
X136650063Y-100735629D01*
X136650425Y-100734211D01*
X136749355Y-100635280D01*
X136764562Y-100620983D01*
X136767573Y-100608936D01*
X136773522Y-100598043D01*
X136772804Y-100588013D01*
X136824052Y-100383020D01*
X136829285Y-100374879D01*
X136829285Y-100362091D01*
X136829661Y-100360587D01*
X136829285Y-100351341D01*
X136829285Y-99965201D01*
X136832387Y-99956032D01*
X136829285Y-99943624D01*
X136829285Y-99942075D01*
X136826679Y-99933200D01*
X136770181Y-99707207D01*
X136765747Y-99686824D01*
X136756967Y-99678044D01*
X136750686Y-99667338D01*
X136741715Y-99662792D01*
X136642904Y-99563981D01*
X137019773Y-99563981D01*
X137038069Y-99604045D01*
X137075121Y-99627857D01*
X137365000Y-99627857D01*
X137365000Y-100763639D01*
X137374243Y-100795117D01*
X137407529Y-100823959D01*
X137451124Y-100830227D01*
X137491188Y-100811931D01*
X137515000Y-100774879D01*
X137515000Y-99627857D01*
X137793639Y-99627857D01*
X137825117Y-99618614D01*
X137853959Y-99585328D01*
X137859429Y-99547281D01*
X138047747Y-99547281D01*
X138057109Y-99590318D01*
X138540971Y-100074180D01*
X138059245Y-100716483D01*
X138047752Y-100747211D01*
X138057076Y-100790256D01*
X138088191Y-100821427D01*
X138131220Y-100830829D01*
X138172501Y-100815475D01*
X138648113Y-100181322D01*
X138736428Y-100269637D01*
X138736428Y-100763639D01*
X138745671Y-100795117D01*
X138778957Y-100823959D01*
X138822552Y-100830227D01*
X138862616Y-100811931D01*
X138886428Y-100774879D01*
X138886428Y-100763981D01*
X139248344Y-100763981D01*
X139266640Y-100804045D01*
X139303692Y-100827857D01*
X139891782Y-100827857D01*
X139908266Y-100830227D01*
X139923418Y-100823307D01*
X139939402Y-100818614D01*
X139943138Y-100814301D01*
X139948330Y-100811931D01*
X139957337Y-100797914D01*
X139968244Y-100785328D01*
X139969055Y-100779681D01*
X139972142Y-100774879D01*
X139972142Y-100763981D01*
X140219773Y-100763981D01*
X140238069Y-100804045D01*
X140275121Y-100827857D01*
X140863211Y-100827857D01*
X140879695Y-100830227D01*
X140894847Y-100823307D01*
X140910831Y-100818614D01*
X140914567Y-100814301D01*
X140919759Y-100811931D01*
X140928766Y-100797914D01*
X140939673Y-100785328D01*
X140940484Y-100779681D01*
X140943571Y-100774879D01*
X140943571Y-100763981D01*
X141305487Y-100763981D01*
X141323783Y-100804045D01*
X141360835Y-100827857D01*
X141948925Y-100827857D01*
X141965409Y-100830227D01*
X141980561Y-100823307D01*
X141996545Y-100818614D01*
X142000281Y-100814301D01*
X142005473Y-100811931D01*
X142014480Y-100797914D01*
X142025387Y-100785328D01*
X142026198Y-100779681D01*
X142029285Y-100774879D01*
X142029285Y-100758217D01*
X142031655Y-100741733D01*
X142029285Y-100736543D01*
X142029285Y-100129645D01*
X142031655Y-100113161D01*
X142029285Y-100107971D01*
X142029285Y-99558217D01*
X142031655Y-99541733D01*
X142024735Y-99526580D01*
X142020042Y-99510597D01*
X142015729Y-99506860D01*
X142013359Y-99501669D01*
X141999342Y-99492661D01*
X141986756Y-99481755D01*
X141981109Y-99480943D01*
X141976307Y-99477857D01*
X141959645Y-99477857D01*
X141943161Y-99475487D01*
X141937971Y-99477857D01*
X141372075Y-99477857D01*
X141340597Y-99487100D01*
X141311755Y-99520386D01*
X141305487Y-99563981D01*
X141323783Y-99604045D01*
X141360835Y-99627857D01*
X141879285Y-99627857D01*
X141879285Y-100049285D01*
X141543503Y-100049285D01*
X141512025Y-100058528D01*
X141483183Y-100091814D01*
X141476915Y-100135409D01*
X141495211Y-100175473D01*
X141532263Y-100199285D01*
X141879285Y-100199285D01*
X141879285Y-100677857D01*
X141372075Y-100677857D01*
X141340597Y-100687100D01*
X141311755Y-100720386D01*
X141305487Y-100763981D01*
X140943571Y-100763981D01*
X140943571Y-100758217D01*
X140945941Y-100741733D01*
X140943571Y-100736543D01*
X140943571Y-99542075D01*
X140934328Y-99510597D01*
X140901042Y-99481755D01*
X140857447Y-99475487D01*
X140817383Y-99493783D01*
X140793571Y-99530835D01*
X140793571Y-100677857D01*
X140286361Y-100677857D01*
X140254883Y-100687100D01*
X140226041Y-100720386D01*
X140219773Y-100763981D01*
X139972142Y-100763981D01*
X139972142Y-100758217D01*
X139974512Y-100741733D01*
X139972142Y-100736543D01*
X139972142Y-100129645D01*
X139974512Y-100113161D01*
X139972142Y-100107971D01*
X139972142Y-99558217D01*
X139974512Y-99541733D01*
X139967592Y-99526580D01*
X139962899Y-99510597D01*
X139958586Y-99506860D01*
X139956216Y-99501669D01*
X139942199Y-99492661D01*
X139929613Y-99481755D01*
X139923966Y-99480943D01*
X139919164Y-99477857D01*
X139902502Y-99477857D01*
X139886018Y-99475487D01*
X139880828Y-99477857D01*
X139314932Y-99477857D01*
X139283454Y-99487100D01*
X139254612Y-99520386D01*
X139248344Y-99563981D01*
X139266640Y-99604045D01*
X139303692Y-99627857D01*
X139822142Y-99627857D01*
X139822142Y-100049285D01*
X139486360Y-100049285D01*
X139454882Y-100058528D01*
X139426040Y-100091814D01*
X139419772Y-100135409D01*
X139438068Y-100175473D01*
X139475120Y-100199285D01*
X139822142Y-100199285D01*
X139822142Y-100677857D01*
X139314932Y-100677857D01*
X139283454Y-100687100D01*
X139254612Y-100720386D01*
X139248344Y-100763981D01*
X138886428Y-100763981D01*
X138886428Y-100252102D01*
X138889395Y-100244147D01*
X138886428Y-100230508D01*
X138886428Y-99542075D01*
X138877185Y-99510597D01*
X138843899Y-99481755D01*
X138800304Y-99475487D01*
X138760240Y-99493783D01*
X138736428Y-99530835D01*
X138736428Y-100057505D01*
X138693353Y-100014430D01*
X138677523Y-99998571D01*
X138677485Y-99998562D01*
X138171123Y-99492200D01*
X138142329Y-99476477D01*
X138098398Y-99479620D01*
X138063139Y-99506014D01*
X138047747Y-99547281D01*
X137859429Y-99547281D01*
X137860227Y-99541733D01*
X137841931Y-99501669D01*
X137804879Y-99477857D01*
X137445360Y-99477857D01*
X137428876Y-99475487D01*
X137423686Y-99477857D01*
X137086361Y-99477857D01*
X137054883Y-99487100D01*
X137026041Y-99520386D01*
X137019773Y-99563981D01*
X136642904Y-99563981D01*
X136642538Y-99563615D01*
X136636095Y-99552767D01*
X136617613Y-99543526D01*
X136599472Y-99533620D01*
X136598010Y-99533724D01*
X136505723Y-99487580D01*
X136490593Y-99477857D01*
X136475263Y-99477857D01*
X136460180Y-99475143D01*
X136453636Y-99477857D01*
X136244039Y-99477857D01*
X136226155Y-99475926D01*
X136212441Y-99482782D01*
X136197739Y-99487100D01*
X136193100Y-99492453D01*
X136100583Y-99538712D01*
X136088253Y-99541395D01*
X136073627Y-99556020D01*
X136058508Y-99570085D01*
X136058145Y-99571502D01*
X135959208Y-99670438D01*
X135944009Y-99684730D01*
X135940997Y-99696775D01*
X135935049Y-99707670D01*
X135935766Y-99717700D01*
X135884517Y-99922693D01*
X135879285Y-99930835D01*
X135879285Y-99943623D01*
X135878909Y-99945127D01*
X135879285Y-99954373D01*
X135879285Y-100340514D01*
X135876183Y-100349683D01*
X135514999Y-100349683D01*
X135514999Y-100186788D01*
X135517369Y-100170304D01*
X135514999Y-100165114D01*
X135514999Y-99558217D01*
X135517369Y-99541733D01*
X135510449Y-99526580D01*
X135505756Y-99510597D01*
X135501443Y-99506860D01*
X135499073Y-99501669D01*
X135485056Y-99492661D01*
X135472470Y-99481755D01*
X135466823Y-99480943D01*
X135462021Y-99477857D01*
X135445359Y-99477857D01*
X135428875Y-99475487D01*
X135423685Y-99477857D01*
X134986896Y-99477857D01*
X134969012Y-99475926D01*
X134955298Y-99482782D01*
X134940596Y-99487100D01*
X134935957Y-99492453D01*
X134843439Y-99538713D01*
X134831111Y-99541395D01*
X134816492Y-99556013D01*
X134801365Y-99570085D01*
X134801002Y-99571502D01*
X134765042Y-99607461D01*
X134754195Y-99613904D01*
X134744956Y-99632381D01*
X134735049Y-99650526D01*
X134735153Y-99651986D01*
X134689008Y-99744275D01*
X134679285Y-99759406D01*
X134679285Y-99774736D01*
X134676571Y-99789819D01*
X134679285Y-99796363D01*
X134679285Y-99948817D01*
X134677354Y-99966701D01*
X134684210Y-99980414D01*
X134688528Y-99995117D01*
X134693881Y-99999755D01*
X134740140Y-100092272D01*
X134742823Y-100104603D01*
X134757447Y-100119227D01*
X134771513Y-100134348D01*
X134772930Y-100134710D01*
X134808890Y-100170670D01*
X134815333Y-100181518D01*
X134833824Y-100190763D01*
X134851956Y-100200664D01*
X134853415Y-100200559D01*
X134945703Y-100246704D01*
X134960834Y-100256428D01*
X134976164Y-100256428D01*
X134991247Y-100259142D01*
X134997791Y-100256428D01*
X135010236Y-100256428D01*
X134686660Y-100718680D01*
X134676180Y-100749769D01*
X133710499Y-100749769D01*
X133711655Y-100741733D01*
X133705857Y-100729038D01*
X133702890Y-100715396D01*
X133696885Y-100709391D01*
X133693359Y-100701669D01*
X133681616Y-100694122D01*
X133014123Y-100026628D01*
X132966428Y-99883542D01*
X132966428Y-99799134D01*
X133010209Y-99711569D01*
X133050140Y-99671639D01*
X133137704Y-99627857D01*
X133388010Y-99627857D01*
X133475570Y-99671638D01*
X133531734Y-99727800D01*
X133560528Y-99743522D01*
X133604459Y-99740379D01*
X133639717Y-99713985D01*
X133655109Y-99672718D01*
X133645747Y-99629681D01*
X133579683Y-99563618D01*
X133573238Y-99552767D01*
X133554731Y-99543513D01*
X133536613Y-99533620D01*
X133535153Y-99533724D01*
X133442863Y-99487578D01*
X133427736Y-99477857D01*
X133412406Y-99477857D01*
X133397323Y-99475143D01*
X133390779Y-99477857D01*
X133124039Y-99477857D01*
X133106155Y-99475926D01*
X133092441Y-99482782D01*
X133077739Y-99487100D01*
X133073100Y-99492453D01*
X132980582Y-99538713D01*
X132968254Y-99541395D01*
X132953635Y-99556013D01*
X132938508Y-99570085D01*
X132938145Y-99571502D01*
X132902185Y-99607461D01*
X132891338Y-99613904D01*
X132882099Y-99632381D01*
X132872192Y-99650526D01*
X132872296Y-99651986D01*
X132826151Y-99744275D01*
X132816428Y-99759406D01*
X132816428Y-99774736D01*
X132813714Y-99789819D01*
X132816428Y-99796363D01*
X132816428Y-99886312D01*
X132813313Y-99898539D01*
X132483728Y-99898539D01*
X132453142Y-99776197D01*
X132454073Y-99767584D01*
X132447906Y-99755250D01*
X132447288Y-99752778D01*
X132443105Y-99745649D01*
X132391286Y-99642011D01*
X132388604Y-99629681D01*
X132373984Y-99615061D01*
X132359915Y-99599936D01*
X132358496Y-99599573D01*
X132322538Y-99563615D01*
X132316095Y-99552767D01*
X132297613Y-99543526D01*
X132279472Y-99533620D01*
X132278010Y-99533724D01*
X132185723Y-99487580D01*
X132170593Y-99477857D01*
X132155263Y-99477857D01*
X132140180Y-99475143D01*
X132133636Y-99477857D01*
X132038326Y-99477857D01*
X132020441Y-99475926D01*
X132006727Y-99482782D01*
X131992025Y-99487100D01*
X131987386Y-99492453D01*
X131894868Y-99538712D01*
X131882538Y-99541395D01*
X131867918Y-99556014D01*
X131852793Y-99570084D01*
X131852430Y-99571502D01*
X131816472Y-99607460D01*
X131805624Y-99613904D01*
X131796383Y-99632385D01*
X131786477Y-99650527D01*
X131786581Y-99651988D01*
X131744606Y-99735938D01*
X131738295Y-99741873D01*
X131734950Y-99755249D01*
X131733810Y-99757531D01*
X131732344Y-99765673D01*
X131678803Y-99979836D01*
X131673571Y-99987978D01*
X131673571Y-100000766D01*
X131673195Y-100002270D01*
X131673571Y-100011516D01*
X131673571Y-100283371D01*
X131670469Y-100292540D01*
X130994321Y-100292540D01*
X130728409Y-100026628D01*
X130680714Y-99883542D01*
X130680714Y-99799134D01*
X130724495Y-99711569D01*
X130764426Y-99671639D01*
X130851990Y-99627857D01*
X131102296Y-99627857D01*
X131189856Y-99671638D01*
X131246020Y-99727800D01*
X131274814Y-99743522D01*
X131318745Y-99740379D01*
X131354003Y-99713985D01*
X131369395Y-99672718D01*
X131360033Y-99629681D01*
X131293969Y-99563618D01*
X131287524Y-99552767D01*
X131269017Y-99543513D01*
X131250899Y-99533620D01*
X131249439Y-99533724D01*
X131157149Y-99487578D01*
X131142022Y-99477857D01*
X131126692Y-99477857D01*
X131111609Y-99475143D01*
X131105065Y-99477857D01*
X130838325Y-99477857D01*
X130820441Y-99475926D01*
X130806727Y-99482782D01*
X130792025Y-99487100D01*
X130787386Y-99492453D01*
X130694868Y-99538713D01*
X130682540Y-99541395D01*
X130667921Y-99556013D01*
X130652794Y-99570085D01*
X130652431Y-99571502D01*
X130616471Y-99607461D01*
X130605624Y-99613904D01*
X130596385Y-99632381D01*
X130586478Y-99650526D01*
X130586582Y-99651986D01*
X130540437Y-99744275D01*
X130530714Y-99759406D01*
X130530714Y-99774736D01*
X130528000Y-99789819D01*
X130530714Y-99796363D01*
X130530714Y-99886312D01*
X130527599Y-99898539D01*
X129864987Y-99898539D01*
X129628139Y-99627857D01*
X130216496Y-99627857D01*
X130247974Y-99618614D01*
X130276816Y-99585328D01*
X130283084Y-99541733D01*
X130264788Y-99501669D01*
X130227736Y-99477857D01*
X129484681Y-99477857D01*
X129484516Y-99477752D01*
X129462805Y-99477857D01*
X129452075Y-99477857D01*
X129451895Y-99477909D01*
X129440473Y-99477965D01*
X129431203Y-99483985D01*
X129420597Y-99487100D01*
X129413116Y-99495733D01*
X129403537Y-99501955D01*
X129398993Y-99512031D01*
X129391755Y-99520386D01*
X129390129Y-99531692D01*
X129385434Y-99542107D01*
X129387059Y-99553041D01*
X129385487Y-99563981D01*
X129390231Y-99574370D01*
X129391912Y-99585672D01*
X129399192Y-99593992D01*
X129403783Y-99604045D01*
X129413391Y-99610220D01*
X129697575Y-99935000D01*
X129695459Y-99935000D01*
X129677584Y-99933070D01*
X129663874Y-99939924D01*
X129649168Y-99944243D01*
X129644528Y-99949597D01*
X129552013Y-99995854D01*
X129539682Y-99998537D01*
X129525062Y-100013156D01*
X129509937Y-100027226D01*
X129509574Y-100028644D01*
X129473615Y-100064603D01*
X129462767Y-100071047D01*
X129453526Y-100089528D01*
X129443620Y-100107670D01*
X129443724Y-100109131D01*
X129397580Y-100201418D01*
X129387857Y-100216549D01*
X129387857Y-100231879D01*
X129385143Y-100246962D01*
X124702857Y-100246962D01*
X124702857Y-97619981D01*
X125271202Y-97619981D01*
X125289498Y-97660045D01*
X125326550Y-97683857D01*
X125616429Y-97683857D01*
X125616429Y-98819639D01*
X125625672Y-98851117D01*
X125658958Y-98879959D01*
X125702553Y-98886227D01*
X125742617Y-98867931D01*
X125766429Y-98830879D01*
X125766429Y-98594129D01*
X126357355Y-98594129D01*
X126364211Y-98607842D01*
X126368529Y-98622545D01*
X126373882Y-98627183D01*
X126420141Y-98719701D01*
X126422824Y-98732032D01*
X126437448Y-98746656D01*
X126451514Y-98761777D01*
X126452931Y-98762139D01*
X126488891Y-98798099D01*
X126495334Y-98808947D01*
X126513825Y-98818192D01*
X126531957Y-98828093D01*
X126533416Y-98827988D01*
X126625704Y-98874133D01*
X126640835Y-98883857D01*
X126656165Y-98883857D01*
X126671248Y-98886571D01*
X126677792Y-98883857D01*
X126887389Y-98883857D01*
X126905273Y-98885788D01*
X126918986Y-98878931D01*
X126933689Y-98874614D01*
X126938327Y-98869260D01*
X127030844Y-98823001D01*
X127043177Y-98820319D01*
X127057809Y-98805686D01*
X127072921Y-98791629D01*
X127073283Y-98790211D01*
X127109241Y-98754252D01*
X127120091Y-98747809D01*
X127129340Y-98729310D01*
X127139237Y-98711185D01*
X127139132Y-98709725D01*
X127185276Y-98617436D01*
X127195000Y-98602307D01*
X127195000Y-98586977D01*
X127197714Y-98571894D01*
X127195000Y-98565350D01*
X127195000Y-98405683D01*
X127556184Y-98405683D01*
X127559286Y-98418091D01*
X127559286Y-98419639D01*
X127561890Y-98428508D01*
X127618391Y-98654513D01*
X127622824Y-98674889D01*
X127631602Y-98683667D01*
X127637885Y-98694375D01*
X127646855Y-98698920D01*
X127746034Y-98798099D01*
X127752477Y-98808947D01*
X127770959Y-98818188D01*
X127789100Y-98828094D01*
X127790561Y-98827989D01*
X127882847Y-98874133D01*
X127897978Y-98883857D01*
X127913308Y-98883857D01*
X127928391Y-98886571D01*
X127934935Y-98883857D01*
X128144532Y-98883857D01*
X128162416Y-98885788D01*
X128176129Y-98878931D01*
X128190832Y-98874614D01*
X128195470Y-98869260D01*
X128287988Y-98823001D01*
X128300319Y-98820319D01*
X128314941Y-98805696D01*
X128330064Y-98791629D01*
X128330426Y-98790211D01*
X128429356Y-98691280D01*
X128444563Y-98676983D01*
X128447574Y-98664936D01*
X128453523Y-98654043D01*
X128452805Y-98644013D01*
X128504053Y-98439020D01*
X128509286Y-98430879D01*
X128509286Y-98418091D01*
X128509662Y-98416587D01*
X128509286Y-98407341D01*
X128509286Y-98021201D01*
X128512388Y-98012032D01*
X128509286Y-97999624D01*
X128509286Y-97998075D01*
X128506680Y-97989200D01*
X128450182Y-97763207D01*
X128445748Y-97742824D01*
X128436968Y-97734044D01*
X128430687Y-97723338D01*
X128421716Y-97718792D01*
X128322539Y-97619615D01*
X128316096Y-97608767D01*
X128305124Y-97603281D01*
X128813462Y-97603281D01*
X128822824Y-97646318D01*
X129306686Y-98130180D01*
X128824960Y-98772483D01*
X128813467Y-98803211D01*
X128822791Y-98846256D01*
X128853906Y-98877427D01*
X128896935Y-98886829D01*
X128938216Y-98871475D01*
X129413828Y-98237322D01*
X129502143Y-98325637D01*
X129502143Y-98819639D01*
X129511386Y-98851117D01*
X129544672Y-98879959D01*
X129588267Y-98886227D01*
X129628331Y-98867931D01*
X129652143Y-98830879D01*
X129652143Y-98828154D01*
X129901397Y-98828154D01*
X129923854Y-98866042D01*
X129963230Y-98885774D01*
X130007023Y-98881087D01*
X130041330Y-98853466D01*
X130145485Y-98541000D01*
X130608800Y-98541000D01*
X130709401Y-98842803D01*
X130728124Y-98869742D01*
X130768823Y-98886578D01*
X130812163Y-98878739D01*
X130844385Y-98848712D01*
X130851704Y-98819981D01*
X131042630Y-98819981D01*
X131060926Y-98860045D01*
X131097978Y-98883857D01*
X131686068Y-98883857D01*
X131702552Y-98886227D01*
X131717704Y-98879307D01*
X131733688Y-98874614D01*
X131737424Y-98870301D01*
X131742616Y-98867931D01*
X131751623Y-98853914D01*
X131762530Y-98841328D01*
X131763341Y-98835681D01*
X131766428Y-98830879D01*
X131766428Y-98814217D01*
X131767643Y-98805769D01*
X132127609Y-98805769D01*
X132138338Y-98848485D01*
X132170458Y-98878620D01*
X132213772Y-98886607D01*
X132254528Y-98869908D01*
X132644764Y-98312428D01*
X132816428Y-98312428D01*
X132816428Y-98819639D01*
X132825671Y-98851117D01*
X132858957Y-98879959D01*
X132902552Y-98886227D01*
X132942616Y-98867931D01*
X132966428Y-98830879D01*
X132966428Y-98417248D01*
X133328000Y-98417248D01*
X133330714Y-98423792D01*
X133330714Y-98576245D01*
X133328783Y-98594129D01*
X133335639Y-98607842D01*
X133339957Y-98622545D01*
X133345310Y-98627183D01*
X133391569Y-98719701D01*
X133394252Y-98732032D01*
X133408876Y-98746656D01*
X133422942Y-98761777D01*
X133424359Y-98762139D01*
X133460319Y-98798099D01*
X133466762Y-98808947D01*
X133485253Y-98818192D01*
X133503385Y-98828093D01*
X133504844Y-98827988D01*
X133597132Y-98874133D01*
X133612263Y-98883857D01*
X133627593Y-98883857D01*
X133642676Y-98886571D01*
X133649220Y-98883857D01*
X134086068Y-98883857D01*
X134102552Y-98886227D01*
X134117704Y-98879307D01*
X134133688Y-98874614D01*
X134137424Y-98870301D01*
X134142616Y-98867931D01*
X134151623Y-98853914D01*
X134162530Y-98841328D01*
X134163341Y-98835681D01*
X134166428Y-98830879D01*
X134166428Y-98814217D01*
X134168798Y-98797733D01*
X134166428Y-98792543D01*
X134166428Y-98291397D01*
X135247612Y-98291397D01*
X135250714Y-98303805D01*
X135250714Y-98305353D01*
X135253318Y-98314222D01*
X135308012Y-98532998D01*
X135308238Y-98546421D01*
X135319256Y-98562948D01*
X135329313Y-98580089D01*
X135331382Y-98581137D01*
X135426870Y-98724371D01*
X135428537Y-98732032D01*
X135438859Y-98742354D01*
X135440719Y-98745144D01*
X135446442Y-98749937D01*
X135494603Y-98798098D01*
X135501047Y-98808948D01*
X135519555Y-98818202D01*
X135537670Y-98828093D01*
X135539128Y-98827988D01*
X135631419Y-98874133D01*
X135646549Y-98883857D01*
X135661879Y-98883857D01*
X135676962Y-98886571D01*
X135683506Y-98883857D01*
X135907924Y-98883857D01*
X135939402Y-98874614D01*
X135968244Y-98841328D01*
X135971313Y-98819981D01*
X136391201Y-98819981D01*
X136409497Y-98860045D01*
X136446549Y-98883857D01*
X136806068Y-98883857D01*
X136822552Y-98886227D01*
X136827742Y-98883857D01*
X137165067Y-98883857D01*
X137196545Y-98874614D01*
X137225387Y-98841328D01*
X137231655Y-98797733D01*
X137213359Y-98757669D01*
X137176307Y-98733857D01*
X136886428Y-98733857D01*
X136886428Y-98302962D01*
X137533714Y-98302962D01*
X137536428Y-98309506D01*
X137536428Y-98576245D01*
X137534497Y-98594129D01*
X137541353Y-98607842D01*
X137545671Y-98622545D01*
X137551024Y-98627183D01*
X137597283Y-98719701D01*
X137599966Y-98732032D01*
X137614590Y-98746656D01*
X137628656Y-98761777D01*
X137630073Y-98762139D01*
X137666033Y-98798099D01*
X137672476Y-98808947D01*
X137690967Y-98818192D01*
X137709099Y-98828093D01*
X137710558Y-98827988D01*
X137802846Y-98874133D01*
X137817977Y-98883857D01*
X137833307Y-98883857D01*
X137848390Y-98886571D01*
X137854934Y-98883857D01*
X138064531Y-98883857D01*
X138082415Y-98885788D01*
X138096128Y-98878931D01*
X138110831Y-98874614D01*
X138115469Y-98869260D01*
X138207986Y-98823001D01*
X138220317Y-98820319D01*
X138234941Y-98805694D01*
X138250062Y-98791629D01*
X138250424Y-98790211D01*
X138286383Y-98754252D01*
X138297233Y-98747809D01*
X138306487Y-98729300D01*
X138316378Y-98711186D01*
X138316273Y-98709727D01*
X138362418Y-98617436D01*
X138372142Y-98602307D01*
X138372142Y-98586977D01*
X138374856Y-98571894D01*
X138372142Y-98565350D01*
X138372142Y-98302962D01*
X138676571Y-98302962D01*
X138679285Y-98309506D01*
X138679285Y-98576245D01*
X138677354Y-98594129D01*
X138684210Y-98607842D01*
X138688528Y-98622545D01*
X138693881Y-98627183D01*
X138740140Y-98719701D01*
X138742823Y-98732032D01*
X138757447Y-98746656D01*
X138771513Y-98761777D01*
X138772930Y-98762139D01*
X138808890Y-98798099D01*
X138815333Y-98808947D01*
X138833824Y-98818192D01*
X138851956Y-98828093D01*
X138853415Y-98827988D01*
X138945703Y-98874133D01*
X138960834Y-98883857D01*
X138976164Y-98883857D01*
X138991247Y-98886571D01*
X138997791Y-98883857D01*
X139207388Y-98883857D01*
X139225272Y-98885788D01*
X139238985Y-98878931D01*
X139253688Y-98874614D01*
X139258326Y-98869260D01*
X139350843Y-98823001D01*
X139363174Y-98820319D01*
X139377798Y-98805694D01*
X139392919Y-98791629D01*
X139393281Y-98790211D01*
X139429240Y-98754252D01*
X139440090Y-98747809D01*
X139449344Y-98729300D01*
X139459235Y-98711186D01*
X139459130Y-98709727D01*
X139505275Y-98617436D01*
X139514999Y-98602307D01*
X139514999Y-98586977D01*
X139517713Y-98571894D01*
X139514999Y-98565350D01*
X139514999Y-98298612D01*
X139516930Y-98280727D01*
X139514999Y-98276865D01*
X139514999Y-98135486D01*
X139518101Y-98126317D01*
X139514999Y-98113909D01*
X139514999Y-98112360D01*
X139512392Y-98103484D01*
X139457700Y-97884715D01*
X139457475Y-97871292D01*
X139446454Y-97854760D01*
X139441208Y-97845819D01*
X139819428Y-97845819D01*
X139822142Y-97852363D01*
X139822142Y-98004817D01*
X139820211Y-98022701D01*
X139827067Y-98036414D01*
X139831385Y-98051117D01*
X139836738Y-98055755D01*
X139882997Y-98148272D01*
X139885680Y-98160603D01*
X139900304Y-98175227D01*
X139914370Y-98190348D01*
X139915787Y-98190710D01*
X139951747Y-98226670D01*
X139958190Y-98237518D01*
X139976681Y-98246763D01*
X139994813Y-98256664D01*
X139996272Y-98256559D01*
X140088560Y-98302704D01*
X140103691Y-98312428D01*
X140119021Y-98312428D01*
X140134104Y-98315142D01*
X140140648Y-98312428D01*
X140507856Y-98312428D01*
X140507856Y-98819639D01*
X140517099Y-98851117D01*
X140550385Y-98879959D01*
X140593980Y-98886227D01*
X140634044Y-98867931D01*
X140657856Y-98830879D01*
X140657856Y-98242788D01*
X140660226Y-98226304D01*
X140657856Y-98221114D01*
X140657856Y-97620617D01*
X141077008Y-97620617D01*
X141079285Y-97625496D01*
X141079285Y-98819639D01*
X141088528Y-98851117D01*
X141121814Y-98879959D01*
X141165409Y-98886227D01*
X141205473Y-98867931D01*
X141229285Y-98830879D01*
X141229285Y-97946925D01*
X141486065Y-98497167D01*
X141494792Y-98516700D01*
X141504722Y-98523198D01*
X141512568Y-98532103D01*
X141522770Y-98535007D01*
X141531647Y-98540816D01*
X141543515Y-98540913D01*
X141554928Y-98544163D01*
X141565078Y-98541091D01*
X141575689Y-98541179D01*
X141585728Y-98534843D01*
X141597084Y-98531407D01*
X141603963Y-98523334D01*
X141612936Y-98517672D01*
X141617955Y-98506916D01*
X141625652Y-98497885D01*
X141627075Y-98487373D01*
X141879285Y-97946924D01*
X141879285Y-98819639D01*
X141888528Y-98851117D01*
X141921814Y-98879959D01*
X141965409Y-98886227D01*
X142005473Y-98867931D01*
X142029285Y-98830879D01*
X142029285Y-97614527D01*
X142031744Y-97598369D01*
X142024822Y-97582876D01*
X142020042Y-97566597D01*
X142015973Y-97563072D01*
X142013778Y-97558157D01*
X141999578Y-97548865D01*
X141986756Y-97537755D01*
X141981428Y-97536988D01*
X141976923Y-97534041D01*
X141959951Y-97533901D01*
X141943161Y-97531487D01*
X141938266Y-97533722D01*
X141932881Y-97533678D01*
X141918526Y-97542736D01*
X141903097Y-97549783D01*
X141900187Y-97554310D01*
X141895634Y-97557184D01*
X141888457Y-97572562D01*
X141879285Y-97586835D01*
X141879285Y-97592218D01*
X141554285Y-98288646D01*
X141224647Y-97582280D01*
X141220042Y-97566597D01*
X141207219Y-97555486D01*
X141196002Y-97542754D01*
X141190823Y-97541279D01*
X141186756Y-97537755D01*
X141169962Y-97535340D01*
X141153642Y-97530694D01*
X141148489Y-97532253D01*
X141143161Y-97531487D01*
X141127724Y-97538536D01*
X141111486Y-97543450D01*
X141107995Y-97547546D01*
X141103097Y-97549783D01*
X141093921Y-97564060D01*
X141082918Y-97576972D01*
X141082195Y-97582305D01*
X141079285Y-97586835D01*
X141079285Y-97603801D01*
X141077008Y-97620617D01*
X140657856Y-97620617D01*
X140657856Y-97614217D01*
X140660226Y-97597733D01*
X140653306Y-97582580D01*
X140648613Y-97566597D01*
X140644300Y-97562860D01*
X140641930Y-97557669D01*
X140627913Y-97548661D01*
X140615327Y-97537755D01*
X140609680Y-97536943D01*
X140604878Y-97533857D01*
X140588216Y-97533857D01*
X140571732Y-97531487D01*
X140566542Y-97533857D01*
X140129753Y-97533857D01*
X140111869Y-97531926D01*
X140098155Y-97538782D01*
X140083453Y-97543100D01*
X140078814Y-97548453D01*
X139986296Y-97594713D01*
X139973968Y-97597395D01*
X139959349Y-97612013D01*
X139944222Y-97626085D01*
X139943859Y-97627502D01*
X139907899Y-97663461D01*
X139897052Y-97669904D01*
X139887813Y-97688381D01*
X139877906Y-97706526D01*
X139878010Y-97707986D01*
X139831865Y-97800275D01*
X139822142Y-97815406D01*
X139822142Y-97830736D01*
X139819428Y-97845819D01*
X139441208Y-97845819D01*
X139436400Y-97837624D01*
X139434330Y-97836575D01*
X139338842Y-97693341D01*
X139337176Y-97685681D01*
X139326854Y-97675359D01*
X139324994Y-97672569D01*
X139319266Y-97667772D01*
X139271110Y-97619617D01*
X139264666Y-97608767D01*
X139246172Y-97599520D01*
X139228042Y-97589620D01*
X139226581Y-97589724D01*
X139134294Y-97543580D01*
X139119164Y-97533857D01*
X139103834Y-97533857D01*
X139088751Y-97531143D01*
X139082207Y-97533857D01*
X138857789Y-97533857D01*
X138826311Y-97543100D01*
X138797469Y-97576386D01*
X138791201Y-97619981D01*
X138809497Y-97660045D01*
X138846549Y-97683857D01*
X139079436Y-97683857D01*
X139167000Y-97727638D01*
X139210288Y-97770925D01*
X139313245Y-97925362D01*
X139343795Y-98047563D01*
X139342328Y-98046762D01*
X139340867Y-98046866D01*
X139248579Y-98000723D01*
X139233450Y-97991000D01*
X139218120Y-97991000D01*
X139203037Y-97988286D01*
X139196493Y-97991000D01*
X138986887Y-97991000D01*
X138969012Y-97989070D01*
X138955302Y-97995924D01*
X138940596Y-98000243D01*
X138935956Y-98005597D01*
X138843441Y-98051854D01*
X138831110Y-98054537D01*
X138816490Y-98069156D01*
X138801365Y-98083226D01*
X138801002Y-98084644D01*
X138765043Y-98120603D01*
X138754195Y-98127047D01*
X138744954Y-98145528D01*
X138735048Y-98163670D01*
X138735152Y-98165131D01*
X138689008Y-98257418D01*
X138679285Y-98272549D01*
X138679285Y-98287879D01*
X138676571Y-98302962D01*
X138372142Y-98302962D01*
X138372142Y-98298612D01*
X138374073Y-98280727D01*
X138372142Y-98276865D01*
X138372142Y-98135486D01*
X138375244Y-98126317D01*
X138372142Y-98113909D01*
X138372142Y-98112360D01*
X138369535Y-98103484D01*
X138314843Y-97884715D01*
X138314618Y-97871292D01*
X138303597Y-97854760D01*
X138293543Y-97837624D01*
X138291473Y-97836575D01*
X138195985Y-97693341D01*
X138194319Y-97685681D01*
X138183997Y-97675359D01*
X138182137Y-97672569D01*
X138176409Y-97667772D01*
X138128253Y-97619617D01*
X138121809Y-97608767D01*
X138103315Y-97599520D01*
X138085185Y-97589620D01*
X138083724Y-97589724D01*
X137991437Y-97543580D01*
X137976307Y-97533857D01*
X137960977Y-97533857D01*
X137945894Y-97531143D01*
X137939350Y-97533857D01*
X137714932Y-97533857D01*
X137683454Y-97543100D01*
X137654612Y-97576386D01*
X137648344Y-97619981D01*
X137666640Y-97660045D01*
X137703692Y-97683857D01*
X137936579Y-97683857D01*
X138024143Y-97727638D01*
X138067431Y-97770925D01*
X138170388Y-97925362D01*
X138200938Y-98047563D01*
X138199471Y-98046762D01*
X138198010Y-98046866D01*
X138105722Y-98000723D01*
X138090593Y-97991000D01*
X138075263Y-97991000D01*
X138060180Y-97988286D01*
X138053636Y-97991000D01*
X137844030Y-97991000D01*
X137826155Y-97989070D01*
X137812445Y-97995924D01*
X137797739Y-98000243D01*
X137793099Y-98005597D01*
X137700584Y-98051854D01*
X137688253Y-98054537D01*
X137673633Y-98069156D01*
X137658508Y-98083226D01*
X137658145Y-98084644D01*
X137622186Y-98120603D01*
X137611338Y-98127047D01*
X137602097Y-98145528D01*
X137592191Y-98163670D01*
X137592295Y-98165131D01*
X137546151Y-98257418D01*
X137536428Y-98272549D01*
X137536428Y-98287879D01*
X137533714Y-98302962D01*
X136886428Y-98302962D01*
X136886428Y-97847065D01*
X136980316Y-97940954D01*
X136986761Y-97951805D01*
X137005269Y-97961059D01*
X137023384Y-97970950D01*
X137024842Y-97970845D01*
X137130388Y-98023618D01*
X137162676Y-98029428D01*
X137203359Y-98012555D01*
X137228462Y-97976365D01*
X137230015Y-97932349D01*
X137207523Y-97894481D01*
X137084426Y-97832932D01*
X136983997Y-97732502D01*
X136880169Y-97576760D01*
X136877185Y-97566597D01*
X136868208Y-97558818D01*
X136867851Y-97558283D01*
X136860057Y-97551756D01*
X136843899Y-97537755D01*
X136843222Y-97537657D01*
X136842699Y-97537219D01*
X136821473Y-97534530D01*
X136800304Y-97531487D01*
X136799682Y-97531770D01*
X136799005Y-97531685D01*
X136779714Y-97540889D01*
X136760240Y-97549783D01*
X136759870Y-97550358D01*
X136759255Y-97550652D01*
X136748015Y-97568805D01*
X136736428Y-97586835D01*
X136736428Y-97587519D01*
X136736069Y-97588099D01*
X136736428Y-97609463D01*
X136736428Y-98733857D01*
X136457789Y-98733857D01*
X136426311Y-98743100D01*
X136397469Y-98776386D01*
X136391201Y-98819981D01*
X135971313Y-98819981D01*
X135974512Y-98797733D01*
X135956216Y-98757669D01*
X135919164Y-98733857D01*
X135686275Y-98733857D01*
X135598712Y-98690075D01*
X135555425Y-98646788D01*
X135452467Y-98492350D01*
X135421916Y-98370148D01*
X135423385Y-98370950D01*
X135424844Y-98370845D01*
X135517132Y-98416990D01*
X135532263Y-98426714D01*
X135547593Y-98426714D01*
X135562676Y-98429428D01*
X135569220Y-98426714D01*
X135778817Y-98426714D01*
X135796701Y-98428645D01*
X135810414Y-98421788D01*
X135825117Y-98417471D01*
X135829755Y-98412117D01*
X135922272Y-98365858D01*
X135934603Y-98363176D01*
X135949227Y-98348551D01*
X135964348Y-98334486D01*
X135964710Y-98333068D01*
X136000669Y-98297109D01*
X136011519Y-98290666D01*
X136020773Y-98272157D01*
X136030664Y-98254043D01*
X136030559Y-98252584D01*
X136076704Y-98160293D01*
X136086428Y-98145164D01*
X136086428Y-98129834D01*
X136089142Y-98114751D01*
X136086428Y-98108207D01*
X136086428Y-97841469D01*
X136088359Y-97823584D01*
X136081502Y-97809870D01*
X136077185Y-97795168D01*
X136071831Y-97790529D01*
X136025572Y-97698011D01*
X136022890Y-97685681D01*
X136008275Y-97671067D01*
X135994201Y-97655936D01*
X135992781Y-97655572D01*
X135956826Y-97619618D01*
X135950381Y-97608767D01*
X135931874Y-97599513D01*
X135913756Y-97589620D01*
X135912296Y-97589724D01*
X135820006Y-97543578D01*
X135804879Y-97533857D01*
X135789549Y-97533857D01*
X135774466Y-97531143D01*
X135767922Y-97533857D01*
X135558325Y-97533857D01*
X135540441Y-97531926D01*
X135526727Y-97538782D01*
X135512025Y-97543100D01*
X135507386Y-97548453D01*
X135414868Y-97594713D01*
X135402540Y-97597395D01*
X135387921Y-97612013D01*
X135372794Y-97626085D01*
X135372431Y-97627502D01*
X135336471Y-97663461D01*
X135325624Y-97669904D01*
X135316385Y-97688381D01*
X135306478Y-97706526D01*
X135306582Y-97707986D01*
X135260437Y-97800275D01*
X135250714Y-97815406D01*
X135250714Y-97830736D01*
X135248000Y-97845819D01*
X135250714Y-97852363D01*
X135250714Y-98119102D01*
X135248783Y-98136986D01*
X135250714Y-98140848D01*
X135250714Y-98282228D01*
X135247612Y-98291397D01*
X134166428Y-98291397D01*
X134166428Y-98185645D01*
X134168798Y-98169161D01*
X134166428Y-98163971D01*
X134166428Y-97614217D01*
X134168798Y-97597733D01*
X134161878Y-97582580D01*
X134157185Y-97566597D01*
X134152872Y-97562860D01*
X134150502Y-97557669D01*
X134136485Y-97548661D01*
X134123899Y-97537755D01*
X134118252Y-97536943D01*
X134113450Y-97533857D01*
X134096788Y-97533857D01*
X134080304Y-97531487D01*
X134075114Y-97533857D01*
X133695468Y-97533857D01*
X133677584Y-97531926D01*
X133663870Y-97538782D01*
X133649168Y-97543100D01*
X133644529Y-97548453D01*
X133552011Y-97594713D01*
X133539683Y-97597395D01*
X133525064Y-97612013D01*
X133509937Y-97626085D01*
X133509574Y-97627502D01*
X133473614Y-97663461D01*
X133462767Y-97669904D01*
X133453528Y-97688381D01*
X133443621Y-97706526D01*
X133443725Y-97707986D01*
X133397580Y-97800275D01*
X133387857Y-97815406D01*
X133387857Y-97830736D01*
X133385143Y-97845819D01*
X133387857Y-97852363D01*
X133387857Y-97947674D01*
X133385926Y-97965558D01*
X133392782Y-97979271D01*
X133397100Y-97993974D01*
X133402453Y-97998612D01*
X133448712Y-98091129D01*
X133451395Y-98103462D01*
X133466027Y-98118094D01*
X133480085Y-98133206D01*
X133481502Y-98133568D01*
X133509728Y-98161794D01*
X133500109Y-98165000D01*
X133482539Y-98168823D01*
X133471700Y-98179661D01*
X133459114Y-98188409D01*
X133456405Y-98194956D01*
X133416472Y-98234889D01*
X133405624Y-98241333D01*
X133396383Y-98259814D01*
X133386477Y-98277956D01*
X133386581Y-98279417D01*
X133340437Y-98371704D01*
X133330714Y-98386835D01*
X133330714Y-98402165D01*
X133328000Y-98417248D01*
X132966428Y-98417248D01*
X132966428Y-98242788D01*
X132968798Y-98226304D01*
X132966428Y-98221114D01*
X132966428Y-97614217D01*
X132968798Y-97597733D01*
X132961878Y-97582580D01*
X132957185Y-97566597D01*
X132952872Y-97562860D01*
X132950502Y-97557669D01*
X132936485Y-97548661D01*
X132923899Y-97537755D01*
X132918252Y-97536943D01*
X132913450Y-97533857D01*
X132896788Y-97533857D01*
X132880304Y-97531487D01*
X132875114Y-97533857D01*
X132438325Y-97533857D01*
X132420441Y-97531926D01*
X132406727Y-97538782D01*
X132392025Y-97543100D01*
X132387386Y-97548453D01*
X132294868Y-97594713D01*
X132282540Y-97597395D01*
X132267921Y-97612013D01*
X132252794Y-97626085D01*
X132252431Y-97627502D01*
X132216471Y-97663461D01*
X132205624Y-97669904D01*
X132196385Y-97688381D01*
X132186478Y-97706526D01*
X132186582Y-97707986D01*
X132140437Y-97800275D01*
X132130714Y-97815406D01*
X132130714Y-97830736D01*
X132128000Y-97845819D01*
X132130714Y-97852363D01*
X132130714Y-98004817D01*
X132128783Y-98022701D01*
X132135639Y-98036414D01*
X132139957Y-98051117D01*
X132145310Y-98055755D01*
X132191569Y-98148272D01*
X132194252Y-98160603D01*
X132208876Y-98175227D01*
X132222942Y-98190348D01*
X132224359Y-98190710D01*
X132260319Y-98226670D01*
X132266762Y-98237518D01*
X132285253Y-98246763D01*
X132303385Y-98256664D01*
X132304844Y-98256559D01*
X132397132Y-98302704D01*
X132412263Y-98312428D01*
X132427593Y-98312428D01*
X132442676Y-98315142D01*
X132449220Y-98312428D01*
X132461665Y-98312428D01*
X132138089Y-98774680D01*
X132127609Y-98805769D01*
X131767643Y-98805769D01*
X131768798Y-98797733D01*
X131766428Y-98792543D01*
X131766428Y-98185645D01*
X131768798Y-98169161D01*
X131766428Y-98163971D01*
X131766428Y-97614217D01*
X131768798Y-97597733D01*
X131761878Y-97582580D01*
X131757185Y-97566597D01*
X131752872Y-97562860D01*
X131750502Y-97557669D01*
X131736485Y-97548661D01*
X131723899Y-97537755D01*
X131718252Y-97536943D01*
X131713450Y-97533857D01*
X131696788Y-97533857D01*
X131680304Y-97531487D01*
X131675114Y-97533857D01*
X131109218Y-97533857D01*
X131077740Y-97543100D01*
X131048898Y-97576386D01*
X131042630Y-97619981D01*
X131060926Y-97660045D01*
X131097978Y-97683857D01*
X131616428Y-97683857D01*
X131616428Y-98105285D01*
X131280646Y-98105285D01*
X131249168Y-98114528D01*
X131220326Y-98147814D01*
X131214058Y-98191409D01*
X131232354Y-98231473D01*
X131269406Y-98255285D01*
X131616428Y-98255285D01*
X131616428Y-98733857D01*
X131109218Y-98733857D01*
X131077740Y-98743100D01*
X131048898Y-98776386D01*
X131042630Y-98819981D01*
X130851704Y-98819981D01*
X130855258Y-98806032D01*
X130739618Y-98459111D01*
X130740227Y-98454876D01*
X130732744Y-98438491D01*
X130452583Y-97598007D01*
X130452889Y-97589560D01*
X130445757Y-97577527D01*
X130444885Y-97574911D01*
X130440272Y-97568273D01*
X130430432Y-97551672D01*
X130427826Y-97550366D01*
X130426162Y-97547971D01*
X130408308Y-97540585D01*
X130391056Y-97531940D01*
X130388158Y-97532250D01*
X130385463Y-97531135D01*
X130366461Y-97534572D01*
X130347263Y-97536627D01*
X130344991Y-97538456D01*
X130342123Y-97538975D01*
X130328000Y-97552135D01*
X130312956Y-97564248D01*
X130312033Y-97567014D01*
X130309901Y-97569002D01*
X130305134Y-97587713D01*
X130024988Y-98428148D01*
X130020327Y-98433529D01*
X130018151Y-98448661D01*
X129902582Y-98795369D01*
X129901397Y-98828154D01*
X129652143Y-98828154D01*
X129652143Y-98308102D01*
X129655110Y-98300147D01*
X129652143Y-98286508D01*
X129652143Y-97598075D01*
X129642900Y-97566597D01*
X129609614Y-97537755D01*
X129566019Y-97531487D01*
X129525955Y-97549783D01*
X129502143Y-97586835D01*
X129502143Y-98113505D01*
X129459068Y-98070430D01*
X129443238Y-98054571D01*
X129443200Y-98054562D01*
X128936838Y-97548200D01*
X128908044Y-97532477D01*
X128864113Y-97535620D01*
X128828854Y-97562014D01*
X128813462Y-97603281D01*
X128305124Y-97603281D01*
X128297614Y-97599526D01*
X128279473Y-97589620D01*
X128278011Y-97589724D01*
X128185724Y-97543580D01*
X128170594Y-97533857D01*
X128155264Y-97533857D01*
X128140181Y-97531143D01*
X128133637Y-97533857D01*
X127924040Y-97533857D01*
X127906156Y-97531926D01*
X127892442Y-97538782D01*
X127877740Y-97543100D01*
X127873101Y-97548453D01*
X127780584Y-97594712D01*
X127768254Y-97597395D01*
X127753628Y-97612020D01*
X127738509Y-97626085D01*
X127738146Y-97627502D01*
X127639209Y-97726438D01*
X127624010Y-97740730D01*
X127620998Y-97752775D01*
X127615050Y-97763670D01*
X127615767Y-97773700D01*
X127564518Y-97978693D01*
X127559286Y-97986835D01*
X127559286Y-97999623D01*
X127558910Y-98001127D01*
X127559286Y-98010373D01*
X127559286Y-98396514D01*
X127556184Y-98405683D01*
X127195000Y-98405683D01*
X127195000Y-97598075D01*
X127185757Y-97566597D01*
X127152471Y-97537755D01*
X127108876Y-97531487D01*
X127068812Y-97549783D01*
X127045000Y-97586835D01*
X127045000Y-98562581D01*
X127001217Y-98650145D01*
X126961289Y-98690073D01*
X126873724Y-98733857D01*
X126680562Y-98733857D01*
X126592998Y-98690074D01*
X126553068Y-98650144D01*
X126509286Y-98562580D01*
X126509286Y-97598075D01*
X126500043Y-97566597D01*
X126466757Y-97537755D01*
X126423162Y-97531487D01*
X126383098Y-97549783D01*
X126359286Y-97586835D01*
X126359286Y-98576245D01*
X126357355Y-98594129D01*
X125766429Y-98594129D01*
X125766429Y-97683857D01*
X126045068Y-97683857D01*
X126076546Y-97674614D01*
X126105388Y-97641328D01*
X126111656Y-97597733D01*
X126093360Y-97557669D01*
X126056308Y-97533857D01*
X125696789Y-97533857D01*
X125680305Y-97531487D01*
X125675115Y-97533857D01*
X125337790Y-97533857D01*
X125306312Y-97543100D01*
X125277470Y-97576386D01*
X125271202Y-97619981D01*
X124702857Y-97619981D01*
X124702857Y-97098571D01*
X142636429Y-97098571D01*
X142636429Y-105298429D01*
G37*
X122682000Y-114300000D02*
X123444000Y-114300000D01*
X122682000Y-109220000D02*
X122682000Y-114300000D01*
X123444000Y-109220000D02*
X122682000Y-109220000D01*
D11*
X124872761Y-115622380D02*
X124539428Y-116622380D01*
X124539428Y-116622380D02*
X124206095Y-115622380D01*
X123872761Y-116622380D02*
X123872761Y-115622380D01*
X123396571Y-116622380D02*
X123396571Y-115622380D01*
X123396571Y-115622380D02*
X122825143Y-116622380D01*
X122825143Y-116622380D02*
X122825143Y-115622380D01*
X128524095Y-106272000D02*
X128619333Y-106224380D01*
X128619333Y-106224380D02*
X128762190Y-106224380D01*
X128762190Y-106224380D02*
X128905047Y-106272000D01*
X128905047Y-106272000D02*
X129000285Y-106367238D01*
X129000285Y-106367238D02*
X129047904Y-106462476D01*
X129047904Y-106462476D02*
X129095523Y-106652952D01*
X129095523Y-106652952D02*
X129095523Y-106795809D01*
X129095523Y-106795809D02*
X129047904Y-106986285D01*
X129047904Y-106986285D02*
X129000285Y-107081523D01*
X129000285Y-107081523D02*
X128905047Y-107176761D01*
X128905047Y-107176761D02*
X128762190Y-107224380D01*
X128762190Y-107224380D02*
X128666952Y-107224380D01*
X128666952Y-107224380D02*
X128524095Y-107176761D01*
X128524095Y-107176761D02*
X128476476Y-107129142D01*
X128476476Y-107129142D02*
X128476476Y-106795809D01*
X128476476Y-106795809D02*
X128666952Y-106795809D01*
X128047904Y-107224380D02*
X128047904Y-106224380D01*
X128047904Y-106224380D02*
X127476476Y-107224380D01*
X127476476Y-107224380D02*
X127476476Y-106224380D01*
X127000285Y-107224380D02*
X127000285Y-106224380D01*
X127000285Y-106224380D02*
X126762190Y-106224380D01*
X126762190Y-106224380D02*
X126619333Y-106272000D01*
X126619333Y-106272000D02*
X126524095Y-106367238D01*
X126524095Y-106367238D02*
X126476476Y-106462476D01*
X126476476Y-106462476D02*
X126428857Y-106652952D01*
X126428857Y-106652952D02*
X126428857Y-106795809D01*
X126428857Y-106795809D02*
X126476476Y-106986285D01*
X126476476Y-106986285D02*
X126524095Y-107081523D01*
X126524095Y-107081523D02*
X126619333Y-107176761D01*
X126619333Y-107176761D02*
X126762190Y-107224380D01*
X126762190Y-107224380D02*
X127000285Y-107224380D01*
X142685142Y-118249714D02*
X141485142Y-117849714D01*
X141485142Y-117849714D02*
X142685142Y-117449714D01*
X141599428Y-116364000D02*
X141542285Y-116421143D01*
X141542285Y-116421143D02*
X141485142Y-116592571D01*
X141485142Y-116592571D02*
X141485142Y-116706857D01*
X141485142Y-116706857D02*
X141542285Y-116878286D01*
X141542285Y-116878286D02*
X141656571Y-116992571D01*
X141656571Y-116992571D02*
X141770857Y-117049714D01*
X141770857Y-117049714D02*
X141999428Y-117106857D01*
X141999428Y-117106857D02*
X142170857Y-117106857D01*
X142170857Y-117106857D02*
X142399428Y-117049714D01*
X142399428Y-117049714D02*
X142513714Y-116992571D01*
X142513714Y-116992571D02*
X142628000Y-116878286D01*
X142628000Y-116878286D02*
X142685142Y-116706857D01*
X142685142Y-116706857D02*
X142685142Y-116592571D01*
X142685142Y-116592571D02*
X142628000Y-116421143D01*
X142628000Y-116421143D02*
X142570857Y-116364000D01*
X141599428Y-115164000D02*
X141542285Y-115221143D01*
X141542285Y-115221143D02*
X141485142Y-115392571D01*
X141485142Y-115392571D02*
X141485142Y-115506857D01*
X141485142Y-115506857D02*
X141542285Y-115678286D01*
X141542285Y-115678286D02*
X141656571Y-115792571D01*
X141656571Y-115792571D02*
X141770857Y-115849714D01*
X141770857Y-115849714D02*
X141999428Y-115906857D01*
X141999428Y-115906857D02*
X142170857Y-115906857D01*
X142170857Y-115906857D02*
X142399428Y-115849714D01*
X142399428Y-115849714D02*
X142513714Y-115792571D01*
X142513714Y-115792571D02*
X142628000Y-115678286D01*
X142628000Y-115678286D02*
X142685142Y-115506857D01*
X142685142Y-115506857D02*
X142685142Y-115392571D01*
X142685142Y-115392571D02*
X142628000Y-115221143D01*
X142628000Y-115221143D02*
X142570857Y-115164000D01*
X139745142Y-118332285D02*
X138945142Y-118332285D01*
X139630857Y-118332285D02*
X139688000Y-118275142D01*
X139688000Y-118275142D02*
X139745142Y-118160857D01*
X139745142Y-118160857D02*
X139745142Y-117989428D01*
X139745142Y-117989428D02*
X139688000Y-117875142D01*
X139688000Y-117875142D02*
X139573714Y-117818000D01*
X139573714Y-117818000D02*
X138945142Y-117818000D01*
X139573714Y-117246571D02*
X139573714Y-116846571D01*
X138945142Y-116675143D02*
X138945142Y-117246571D01*
X138945142Y-117246571D02*
X140145142Y-117246571D01*
X140145142Y-117246571D02*
X140145142Y-116675143D01*
X138945142Y-115475143D02*
X139516571Y-115875143D01*
X138945142Y-116160857D02*
X140145142Y-116160857D01*
X140145142Y-116160857D02*
X140145142Y-115703714D01*
X140145142Y-115703714D02*
X140088000Y-115589429D01*
X140088000Y-115589429D02*
X140030857Y-115532286D01*
X140030857Y-115532286D02*
X139916571Y-115475143D01*
X139916571Y-115475143D02*
X139745142Y-115475143D01*
X139745142Y-115475143D02*
X139630857Y-115532286D01*
X139630857Y-115532286D02*
X139573714Y-115589429D01*
X139573714Y-115589429D02*
X139516571Y-115703714D01*
X139516571Y-115703714D02*
X139516571Y-116160857D01*
X138945142Y-114275143D02*
X139516571Y-114675143D01*
X138945142Y-114960857D02*
X140145142Y-114960857D01*
X140145142Y-114960857D02*
X140145142Y-114503714D01*
X140145142Y-114503714D02*
X140088000Y-114389429D01*
X140088000Y-114389429D02*
X140030857Y-114332286D01*
X140030857Y-114332286D02*
X139916571Y-114275143D01*
X139916571Y-114275143D02*
X139745142Y-114275143D01*
X139745142Y-114275143D02*
X139630857Y-114332286D01*
X139630857Y-114332286D02*
X139573714Y-114389429D01*
X139573714Y-114389429D02*
X139516571Y-114503714D01*
X139516571Y-114503714D02*
X139516571Y-114960857D01*
X137256142Y-118006857D02*
X137256142Y-117506857D01*
X136470428Y-117292571D02*
X136470428Y-118006857D01*
X136470428Y-118006857D02*
X137970428Y-118006857D01*
X137970428Y-118006857D02*
X137970428Y-117292571D01*
X136470428Y-116649714D02*
X137970428Y-116649714D01*
X137970428Y-116649714D02*
X136470428Y-115792571D01*
X136470428Y-115792571D02*
X137970428Y-115792571D01*
X133930428Y-118006857D02*
X135430428Y-118006857D01*
X133930428Y-117292571D02*
X135430428Y-117292571D01*
X135430428Y-117292571D02*
X133930428Y-116435428D01*
X133930428Y-116435428D02*
X135430428Y-116435428D01*
X133930428Y-114935427D02*
X133930428Y-115792570D01*
X133930428Y-115363999D02*
X135430428Y-115363999D01*
X135430428Y-115363999D02*
X135216142Y-115506856D01*
X135216142Y-115506856D02*
X135073285Y-115649713D01*
X135073285Y-115649713D02*
X135001857Y-115792570D01*
X131390428Y-118006857D02*
X132890428Y-118006857D01*
X131390428Y-117292571D02*
X132890428Y-117292571D01*
X132890428Y-117292571D02*
X131390428Y-116435428D01*
X131390428Y-116435428D02*
X132890428Y-116435428D01*
X132747571Y-115792570D02*
X132819000Y-115721142D01*
X132819000Y-115721142D02*
X132890428Y-115578285D01*
X132890428Y-115578285D02*
X132890428Y-115221142D01*
X132890428Y-115221142D02*
X132819000Y-115078285D01*
X132819000Y-115078285D02*
X132747571Y-115006856D01*
X132747571Y-115006856D02*
X132604714Y-114935427D01*
X132604714Y-114935427D02*
X132461857Y-114935427D01*
X132461857Y-114935427D02*
X132247571Y-115006856D01*
X132247571Y-115006856D02*
X131390428Y-115863999D01*
X131390428Y-115863999D02*
X131390428Y-114935427D01*
X130553000Y-117627523D02*
X130614904Y-117751333D01*
X130614904Y-117751333D02*
X130614904Y-117937047D01*
X130614904Y-117937047D02*
X130553000Y-118122761D01*
X130553000Y-118122761D02*
X130429190Y-118246571D01*
X130429190Y-118246571D02*
X130305380Y-118308476D01*
X130305380Y-118308476D02*
X130057761Y-118370380D01*
X130057761Y-118370380D02*
X129872047Y-118370380D01*
X129872047Y-118370380D02*
X129624428Y-118308476D01*
X129624428Y-118308476D02*
X129500619Y-118246571D01*
X129500619Y-118246571D02*
X129376809Y-118122761D01*
X129376809Y-118122761D02*
X129314904Y-117937047D01*
X129314904Y-117937047D02*
X129314904Y-117813238D01*
X129314904Y-117813238D02*
X129376809Y-117627523D01*
X129376809Y-117627523D02*
X129438714Y-117565619D01*
X129438714Y-117565619D02*
X129872047Y-117565619D01*
X129872047Y-117565619D02*
X129872047Y-117813238D01*
X129314904Y-117008476D02*
X130614904Y-117008476D01*
X130614904Y-117008476D02*
X129314904Y-116265619D01*
X129314904Y-116265619D02*
X130614904Y-116265619D01*
X129314904Y-115646571D02*
X130614904Y-115646571D01*
X130614904Y-115646571D02*
X130614904Y-115337047D01*
X130614904Y-115337047D02*
X130553000Y-115151333D01*
X130553000Y-115151333D02*
X130429190Y-115027523D01*
X130429190Y-115027523D02*
X130305380Y-114965618D01*
X130305380Y-114965618D02*
X130057761Y-114903714D01*
X130057761Y-114903714D02*
X129872047Y-114903714D01*
X129872047Y-114903714D02*
X129624428Y-114965618D01*
X129624428Y-114965618D02*
X129500619Y-115027523D01*
X129500619Y-115027523D02*
X129376809Y-115151333D01*
X129376809Y-115151333D02*
X129314904Y-115337047D01*
X129314904Y-115337047D02*
X129314904Y-115646571D01*
X129686333Y-114408475D02*
X129686333Y-113789428D01*
X129314904Y-114532285D02*
X130614904Y-114098952D01*
X130614904Y-114098952D02*
X129314904Y-113665618D01*
D10*
%TO.C,R8*%
X137527380Y-110323333D02*
X137051190Y-109990000D01*
X137527380Y-109751905D02*
X136527380Y-109751905D01*
X136527380Y-109751905D02*
X136527380Y-110132857D01*
X136527380Y-110132857D02*
X136575000Y-110228095D01*
X136575000Y-110228095D02*
X136622619Y-110275714D01*
X136622619Y-110275714D02*
X136717857Y-110323333D01*
X136717857Y-110323333D02*
X136860714Y-110323333D01*
X136860714Y-110323333D02*
X136955952Y-110275714D01*
X136955952Y-110275714D02*
X137003571Y-110228095D01*
X137003571Y-110228095D02*
X137051190Y-110132857D01*
X137051190Y-110132857D02*
X137051190Y-109751905D01*
X136955952Y-110894762D02*
X136908333Y-110799524D01*
X136908333Y-110799524D02*
X136860714Y-110751905D01*
X136860714Y-110751905D02*
X136765476Y-110704286D01*
X136765476Y-110704286D02*
X136717857Y-110704286D01*
X136717857Y-110704286D02*
X136622619Y-110751905D01*
X136622619Y-110751905D02*
X136575000Y-110799524D01*
X136575000Y-110799524D02*
X136527380Y-110894762D01*
X136527380Y-110894762D02*
X136527380Y-111085238D01*
X136527380Y-111085238D02*
X136575000Y-111180476D01*
X136575000Y-111180476D02*
X136622619Y-111228095D01*
X136622619Y-111228095D02*
X136717857Y-111275714D01*
X136717857Y-111275714D02*
X136765476Y-111275714D01*
X136765476Y-111275714D02*
X136860714Y-111228095D01*
X136860714Y-111228095D02*
X136908333Y-111180476D01*
X136908333Y-111180476D02*
X136955952Y-111085238D01*
X136955952Y-111085238D02*
X136955952Y-110894762D01*
X136955952Y-110894762D02*
X137003571Y-110799524D01*
X137003571Y-110799524D02*
X137051190Y-110751905D01*
X137051190Y-110751905D02*
X137146428Y-110704286D01*
X137146428Y-110704286D02*
X137336904Y-110704286D01*
X137336904Y-110704286D02*
X137432142Y-110751905D01*
X137432142Y-110751905D02*
X137479761Y-110799524D01*
X137479761Y-110799524D02*
X137527380Y-110894762D01*
X137527380Y-110894762D02*
X137527380Y-111085238D01*
X137527380Y-111085238D02*
X137479761Y-111180476D01*
X137479761Y-111180476D02*
X137432142Y-111228095D01*
X137432142Y-111228095D02*
X137336904Y-111275714D01*
X137336904Y-111275714D02*
X137146428Y-111275714D01*
X137146428Y-111275714D02*
X137051190Y-111228095D01*
X137051190Y-111228095D02*
X137003571Y-111180476D01*
X137003571Y-111180476D02*
X136955952Y-111085238D01*
D12*
X142172000Y-108312936D02*
X142172000Y-112667064D01*
X138752000Y-108312936D02*
X138752000Y-112667064D01*
%TD*%
M02*
