M48
; DRILL file {KiCad (7.0.0-rc1-145-gbd6d0b6cb6)} date Tue Mar 28 23:28:57 2023
; FORMAT={-:-/ absolute / inch / decimal}
; #@! TF.CreationDate,2023-03-28T23:28:57+02:00
; #@! TF.GenerationSoftware,Kicad,Pcbnew,(7.0.0-rc1-145-gbd6d0b6cb6)
; #@! TF.FileFunction,Plated,1,4,PTH
FMAT,2
INCH
; #@! TA.AperFunction,Plated,PTH,ViaDrill
T1C0.0157
; #@! TA.AperFunction,Plated,PTH,ComponentDrill
T2C0.0315
; #@! TA.AperFunction,Plated,PTH,ComponentDrill
T3C0.0394
%
G90
G05
T1
X4.85Y-3.86
X4.85Y-3.91
X4.85Y-3.96
X4.85Y-4.02
X4.85Y-4.06
X4.85Y-4.62
X4.9Y-4.57
X4.9Y-4.62
X4.95Y-4.62
X4.96Y-4.3
X5.01Y-4.2
X5.01Y-4.25
X5.01Y-4.3
X5.02Y-4.39
X5.02Y-4.57
X5.08Y-4.26
X5.08Y-4.45
X5.13Y-4.17
X5.13Y-4.34
X5.14Y-4.25
X5.1585Y-4.37
X5.18Y-4.61
X5.19Y-4.27
X5.2Y-3.84
X5.21Y-4.44
X5.24Y-4.17
X5.24Y-4.53
X5.26Y-4.08
X5.26Y-4.46
X5.3Y-4.0
X5.3334Y-4.2494
X5.3334Y-4.4494
X5.35Y-4.09
X5.35Y-4.13
X5.35Y-4.53
X5.35Y-4.57
X5.36Y-4.04
X5.37Y-4.45
X5.38Y-4.2
X5.39Y-4.0
X5.41Y-4.06
X5.4279Y-4.3534
X5.43Y-4.32
X5.45Y-4.42
X5.4885Y-4.29
X5.4885Y-4.4
X5.49Y-4.0
X5.5615Y-4.29
X5.5615Y-4.4
X5.62Y-4.05
X5.64Y-4.26
X5.65Y-4.1
X5.67Y-4.6
X5.69Y-4.1
X5.71Y-3.85
X5.71Y-3.91
X5.71Y-3.97
X5.71Y-4.03
X5.71Y-4.6
X5.73Y-4.1
X5.75Y-4.6
T2
X5.04Y-3.9149
X5.04Y-4.0527
T3
X4.9Y-4.2
X4.9Y-4.3
X4.9Y-4.4
X4.9Y-4.5
X5.1Y-4.7
X5.2Y-4.7
X5.3Y-4.7
X5.4Y-4.7
X5.5Y-4.7
X5.6Y-4.7
X5.7Y-4.2
X5.7Y-4.3
X5.7Y-4.4
X5.7Y-4.5
T0
M30
