%TF.GenerationSoftware,KiCad,Pcbnew,(7.0.0-rc1-145-gbd6d0b6cb6)*%
%TF.CreationDate,2023-03-28T23:28:49+02:00*%
%TF.ProjectId,2HBR_MINIMAL,32484252-5f4d-4494-9e49-4d414c2e6b69,rev?*%
%TF.SameCoordinates,Original*%
%TF.FileFunction,Paste,Top*%
%TF.FilePolarity,Positive*%
%FSLAX46Y46*%
G04 Gerber Fmt 4.6, Leading zero omitted, Abs format (unit mm)*
G04 Created by KiCad (PCBNEW (7.0.0-rc1-145-gbd6d0b6cb6)) date 2023-03-28 23:28:49*
%MOMM*%
%LPD*%
G01*
G04 APERTURE LIST*
G04 Aperture macros list*
%AMRoundRect*
0 Rectangle with rounded corners*
0 $1 Rounding radius*
0 $2 $3 $4 $5 $6 $7 $8 $9 X,Y pos of 4 corners*
0 Add a 4 corners polygon primitive as box body*
4,1,4,$2,$3,$4,$5,$6,$7,$8,$9,$2,$3,0*
0 Add four circle primitives for the rounded corners*
1,1,$1+$1,$2,$3*
1,1,$1+$1,$4,$5*
1,1,$1+$1,$6,$7*
1,1,$1+$1,$8,$9*
0 Add four rect primitives between the rounded corners*
20,1,$1+$1,$2,$3,$4,$5,0*
20,1,$1+$1,$4,$5,$6,$7,0*
20,1,$1+$1,$6,$7,$8,$9,0*
20,1,$1+$1,$8,$9,$2,$3,0*%
G04 Aperture macros list end*
%ADD10C,0.100000*%
%ADD11RoundRect,0.250000X-0.250000X-0.475000X0.250000X-0.475000X0.250000X0.475000X-0.250000X0.475000X0*%
%ADD12RoundRect,0.250000X0.450000X-0.262500X0.450000X0.262500X-0.450000X0.262500X-0.450000X-0.262500X0*%
%ADD13R,0.220000X0.220000*%
%ADD14R,0.200000X1.300000*%
%ADD15R,0.700000X0.200000*%
%ADD16RoundRect,0.250000X-0.450000X0.262500X-0.450000X-0.262500X0.450000X-0.262500X0.450000X0.262500X0*%
%ADD17RoundRect,0.250000X0.262500X0.450000X-0.262500X0.450000X-0.262500X-0.450000X0.262500X-0.450000X0*%
%ADD18RoundRect,0.250000X0.325000X1.100000X-0.325000X1.100000X-0.325000X-1.100000X0.325000X-1.100000X0*%
%ADD19RoundRect,0.250000X0.475000X-0.250000X0.475000X0.250000X-0.475000X0.250000X-0.475000X-0.250000X0*%
%ADD20RoundRect,0.250000X-0.262500X-0.450000X0.262500X-0.450000X0.262500X0.450000X-0.262500X0.450000X0*%
%ADD21RoundRect,0.243750X0.456250X-0.243750X0.456250X0.243750X-0.456250X0.243750X-0.456250X-0.243750X0*%
%ADD22RoundRect,0.250000X0.250000X0.475000X-0.250000X0.475000X-0.250000X-0.475000X0.250000X-0.475000X0*%
G04 APERTURE END LIST*
%TO.C,U1*%
G36*
X134120001Y-112290000D02*
G01*
X133920001Y-112290000D01*
X133920001Y-111240000D01*
X134070001Y-111090000D01*
X134120001Y-111090000D01*
X134120001Y-112290000D01*
G37*
D10*
X134120001Y-112290000D02*
X133920001Y-112290000D01*
X133920001Y-111240000D01*
X134070001Y-111090000D01*
X134120001Y-111090000D01*
X134120001Y-112290000D01*
%TD*%
D11*
%TO.C,C1*%
X139512000Y-115570000D03*
X141412000Y-115570000D03*
%TD*%
D12*
%TO.C,R10*%
X141478000Y-100330000D03*
X141478000Y-98505000D03*
%TD*%
D13*
%TO.C,U1*%
X134020000Y-111639999D03*
D14*
X134619999Y-111639999D03*
X135219998Y-111639999D03*
D15*
X136069999Y-111689999D03*
X136069999Y-111090000D03*
X136069999Y-110689998D03*
X136069999Y-110289999D03*
X136069999Y-109890000D03*
X136069999Y-109289998D03*
D14*
X135219998Y-109339999D03*
X134619999Y-109339999D03*
X134020000Y-109339999D03*
D15*
X133169999Y-109289999D03*
X133169999Y-109689998D03*
X133169999Y-110090000D03*
X133169999Y-110489999D03*
X133169999Y-110889998D03*
X133169999Y-111290000D03*
X133169999Y-111689999D03*
%TD*%
D16*
%TO.C,R13*%
X129032000Y-114149500D03*
X129032000Y-115974500D03*
%TD*%
D12*
%TO.C,R9*%
X136906000Y-100330000D03*
X136906000Y-98505000D03*
%TD*%
D17*
%TO.C,R5*%
X141374500Y-102870000D03*
X139549500Y-102870000D03*
%TD*%
D18*
%TO.C,C10*%
X134620000Y-105918000D03*
X131670000Y-105918000D03*
%TD*%
D19*
%TO.C,C5*%
X129032000Y-111450000D03*
X129032000Y-109550000D03*
%TD*%
D17*
%TO.C,R3*%
X141374500Y-107188000D03*
X139549500Y-107188000D03*
%TD*%
D18*
%TO.C,C7*%
X134571000Y-115062000D03*
X131621000Y-115062000D03*
%TD*%
D20*
%TO.C,R1*%
X139549500Y-113538000D03*
X141374500Y-113538000D03*
%TD*%
D21*
%TO.C,D2*%
X139192000Y-100355000D03*
X139192000Y-98480000D03*
%TD*%
D22*
%TO.C,C3*%
X141412000Y-105156000D03*
X139512000Y-105156000D03*
%TD*%
D21*
%TO.C,D4*%
X134620000Y-100355000D03*
X134620000Y-98480000D03*
%TD*%
M02*
