%TF.GenerationSoftware,KiCad,Pcbnew,(7.0.0-rc1-145-gbd6d0b6cb6)*%
%TF.CreationDate,2023-03-28T23:28:49+02:00*%
%TF.ProjectId,2HBR_MINIMAL,32484252-5f4d-4494-9e49-4d414c2e6b69,rev?*%
%TF.SameCoordinates,Original*%
%TF.FileFunction,Copper,L3,Inr*%
%TF.FilePolarity,Positive*%
%FSLAX46Y46*%
G04 Gerber Fmt 4.6, Leading zero omitted, Abs format (unit mm)*
G04 Created by KiCad (PCBNEW (7.0.0-rc1-145-gbd6d0b6cb6)) date 2023-03-28 23:28:49*
%MOMM*%
%LPD*%
G01*
G04 APERTURE LIST*
%TA.AperFunction,ComponentPad*%
%ADD10R,1.700000X1.700000*%
%TD*%
%TA.AperFunction,ComponentPad*%
%ADD11O,1.700000X1.700000*%
%TD*%
%TA.AperFunction,ComponentPad*%
%ADD12R,1.600000X1.600000*%
%TD*%
%TA.AperFunction,ComponentPad*%
%ADD13C,1.600000*%
%TD*%
%TA.AperFunction,ViaPad*%
%ADD14C,0.800000*%
%TD*%
%TA.AperFunction,Conductor*%
%ADD15C,0.400000*%
%TD*%
%TA.AperFunction,Conductor*%
%ADD16C,0.500000*%
%TD*%
%TA.AperFunction,Conductor*%
%ADD17C,0.250000*%
%TD*%
G04 APERTURE END LIST*
D10*
%TO.N,GND*%
%TO.C,J4*%
X124459999Y-106679999D03*
D11*
%TO.N,VIN*%
X124459999Y-109219999D03*
%TD*%
D10*
%TO.N,GND*%
%TO.C,J5*%
X124459999Y-111759999D03*
D11*
%TO.N,VIN*%
X124459999Y-114299999D03*
%TD*%
D10*
%TO.N,U1-OUT1*%
%TO.C,J6*%
X144779999Y-111759999D03*
D11*
%TO.N,U1-OUT2*%
X144779999Y-114299999D03*
%TD*%
D12*
%TO.N,VIN*%
%TO.C,C8*%
X128015999Y-99439348D03*
D13*
%TO.N,GND*%
X128016000Y-102939349D03*
%TD*%
D10*
%TO.N,GNDA*%
%TO.C,J3*%
X129539999Y-119379999D03*
D11*
%TO.N,U1-IN2*%
X132079999Y-119379999D03*
%TO.N,U1-IN1*%
X134619999Y-119379999D03*
%TO.N,U1-EN*%
X137159999Y-119379999D03*
%TO.N,U1-nFault*%
X139699999Y-119379999D03*
%TO.N,U1-VCC*%
X142239999Y-119379999D03*
%TD*%
D10*
%TO.N,U1-OUT1*%
%TO.C,J2*%
X144779999Y-106679999D03*
D11*
%TO.N,U1-OUT2*%
X144779999Y-109219999D03*
%TD*%
D14*
%TO.N,U1-OUT2*%
X135469500Y-113014575D03*
X136398000Y-113030000D03*
%TO.N,U1-OUT1*%
X136652000Y-106680000D03*
X135469500Y-107935364D03*
%TO.N,GNDA*%
X134620000Y-101600000D03*
X139409000Y-111760000D03*
X127508000Y-116078000D03*
X132334000Y-112776000D03*
X127508000Y-111506000D03*
X139409000Y-108966000D03*
%TO.N,U1-VCC*%
X136906000Y-101600000D03*
X129032000Y-108204000D03*
X142748000Y-102870000D03*
%TO.N,VIN*%
X135890000Y-116078000D03*
X135890000Y-115062000D03*
X133604000Y-103632000D03*
X135890000Y-104902000D03*
X124460000Y-116078000D03*
X135890000Y-103886000D03*
X125984000Y-109220000D03*
%TO.N,GND*%
X145034000Y-102362000D03*
X125730000Y-117348000D03*
X141261500Y-111760000D03*
X145034000Y-116840000D03*
X133096000Y-105918000D03*
X127254000Y-107950000D03*
X145034000Y-99314000D03*
X146050000Y-116840000D03*
X145542000Y-104140000D03*
X130556000Y-107950000D03*
X123190000Y-100584000D03*
X132080000Y-97536000D03*
X145034000Y-100838000D03*
X123190000Y-117348000D03*
X127254000Y-106680000D03*
X131572000Y-117094000D03*
X136144000Y-102616000D03*
X145034000Y-97790000D03*
X127254000Y-109220000D03*
X123190000Y-102108000D03*
X144018000Y-116840000D03*
X137414000Y-103124000D03*
X133096000Y-115062000D03*
X123190000Y-98044000D03*
X130302000Y-105918000D03*
X124460000Y-117348000D03*
X141261500Y-108966000D03*
X123190000Y-103124000D03*
X143510000Y-104140000D03*
X123190000Y-99314000D03*
X144526000Y-104140000D03*
%TO.N,U1-nFault*%
X131826000Y-108458000D03*
X139446000Y-101600000D03*
%TO.N,U1-IN2*%
X131026500Y-110998000D03*
%TO.N,U1-IN1*%
X130302000Y-110236000D03*
%TO.N,U1-EN*%
X138430000Y-112268000D03*
%TO.N,U1-IFB*%
X137869048Y-110576383D03*
X137922000Y-109728000D03*
X143256000Y-108204000D03*
X133604000Y-113284000D03*
%TO.N,U1-ISET*%
X129032000Y-113030000D03*
%TD*%
D15*
%TO.N,GNDA*%
X129540000Y-113750000D02*
X129540000Y-116078000D01*
X132334000Y-112776000D02*
X130302000Y-111506000D01*
X134620000Y-107696000D02*
X134620000Y-101600000D01*
X130514000Y-112776000D02*
X129540000Y-113750000D01*
X132334000Y-112776000D02*
X133350000Y-110998000D01*
X127508000Y-111506000D02*
X127508000Y-116078000D01*
X132334000Y-112776000D02*
X130514000Y-112776000D01*
X132879500Y-111468500D02*
X139117500Y-111468500D01*
X133350000Y-108966000D02*
X134620000Y-107696000D01*
X129540000Y-119380000D02*
X129540000Y-116078000D01*
X133350000Y-110998000D02*
X133350000Y-108966000D01*
X129540000Y-118110000D02*
X127508000Y-116078000D01*
X139117500Y-111468500D02*
X139409000Y-111760000D01*
X139409000Y-111760000D02*
X139409000Y-108966000D01*
X127508000Y-116078000D02*
X129540000Y-116078000D01*
X130302000Y-111506000D02*
X127508000Y-111506000D01*
X129540000Y-119380000D02*
X129540000Y-118110000D01*
X132334000Y-112776000D02*
X132879500Y-111468500D01*
%TO.N,U1-VCC*%
X135890000Y-100584000D02*
X133858000Y-100584000D01*
X136906000Y-101600000D02*
X135890000Y-100584000D01*
D16*
X142240000Y-119380000D02*
X142240000Y-103378000D01*
D15*
X129032000Y-105410000D02*
X129032000Y-108204000D01*
X133858000Y-100584000D02*
X129032000Y-105410000D01*
D16*
X142240000Y-103378000D02*
X142748000Y-102870000D01*
D17*
%TO.N,VIN*%
X124460000Y-109220000D02*
X125984000Y-109220000D01*
D15*
X124460000Y-116078000D02*
X124460000Y-114300000D01*
%TO.N,U1-nFault*%
X140208500Y-102362500D02*
X139446000Y-101600000D01*
X139700000Y-119380000D02*
X140208500Y-118871500D01*
X140208500Y-118871500D02*
X140208500Y-102362500D01*
%TO.N,U1-EN*%
X137160000Y-119380000D02*
X137160000Y-113538000D01*
X137160000Y-113538000D02*
X138430000Y-112268000D01*
%TD*%
%TA.AperFunction,Conductor*%
%TO.N,GND*%
G36*
X147257500Y-96537113D02*
G01*
X147302887Y-96582500D01*
X147319500Y-96644500D01*
X147319500Y-121287500D01*
X147302887Y-121349500D01*
X147257500Y-121394887D01*
X147195500Y-121411500D01*
X122044500Y-121411500D01*
X121982500Y-121394887D01*
X121937113Y-121349500D01*
X121920500Y-121287500D01*
X121920500Y-114300000D01*
X123354785Y-114300000D01*
X123355314Y-114305709D01*
X123368942Y-114452789D01*
X123373603Y-114503083D01*
X123375171Y-114508594D01*
X123375173Y-114508604D01*
X123427847Y-114693730D01*
X123427848Y-114693733D01*
X123429418Y-114699250D01*
X123434424Y-114709304D01*
X123434426Y-114709307D01*
X123441772Y-114728448D01*
X123441803Y-114728438D01*
X123442163Y-114729469D01*
X123442900Y-114731387D01*
X123443148Y-114732282D01*
X123443155Y-114732302D01*
X123444245Y-114736227D01*
X123445845Y-114739985D01*
X123856967Y-115705611D01*
X123866546Y-115745129D01*
X123862827Y-115785620D01*
X123861389Y-115791108D01*
X123845875Y-115850305D01*
X123845447Y-115855831D01*
X123844993Y-115858528D01*
X123838658Y-115881903D01*
X123826425Y-115914161D01*
X123826423Y-115914165D01*
X123823763Y-115921182D01*
X123804722Y-116078000D01*
X123805626Y-116085445D01*
X123822858Y-116227370D01*
X123822859Y-116227375D01*
X123823763Y-116234818D01*
X123879780Y-116382523D01*
X123969517Y-116512530D01*
X124087760Y-116617283D01*
X124227635Y-116690696D01*
X124381015Y-116728500D01*
X124531485Y-116728500D01*
X124538985Y-116728500D01*
X124692365Y-116690696D01*
X124832240Y-116617283D01*
X124950483Y-116512530D01*
X125040220Y-116382523D01*
X125096237Y-116234818D01*
X125115278Y-116078000D01*
X126852722Y-116078000D01*
X126853626Y-116085445D01*
X126870858Y-116227370D01*
X126870859Y-116227375D01*
X126871763Y-116234818D01*
X126927780Y-116382523D01*
X127017517Y-116512530D01*
X127135760Y-116617283D01*
X127142399Y-116620767D01*
X127142400Y-116620768D01*
X127210240Y-116656373D01*
X127225703Y-116666856D01*
X127226011Y-116666424D01*
X127230535Y-116669644D01*
X127234755Y-116673257D01*
X127778113Y-116990945D01*
X127803205Y-117010309D01*
X128692491Y-117899594D01*
X128722464Y-117948115D01*
X128727548Y-118004921D01*
X128706667Y-118057994D01*
X128488777Y-118371821D01*
X128488771Y-118371830D01*
X128485701Y-118376253D01*
X128483442Y-118381140D01*
X128483437Y-118381151D01*
X128476876Y-118395353D01*
X128467419Y-118412225D01*
X128460818Y-118422105D01*
X128460816Y-118422108D01*
X128454034Y-118432260D01*
X128451651Y-118444234D01*
X128451651Y-118444236D01*
X128451139Y-118446812D01*
X128448424Y-118456585D01*
X128448572Y-118456625D01*
X128448276Y-118457745D01*
X128446531Y-118464340D01*
X128446074Y-118469715D01*
X128445319Y-118474073D01*
X128444345Y-118480960D01*
X128440688Y-118499346D01*
X128440686Y-118499359D01*
X128439500Y-118505326D01*
X128439500Y-118541284D01*
X128438893Y-118546599D01*
X128439192Y-118547793D01*
X128438764Y-118550054D01*
X128439108Y-118551835D01*
X128439046Y-118552561D01*
X128438300Y-118552497D01*
X128437990Y-118554138D01*
X128439500Y-118554138D01*
X128439500Y-120254674D01*
X128440688Y-120260649D01*
X128440689Y-120260653D01*
X128451650Y-120315759D01*
X128451651Y-120315762D01*
X128454034Y-120327740D01*
X128509399Y-120410601D01*
X128592260Y-120465966D01*
X128665326Y-120480500D01*
X130408579Y-120480500D01*
X130414674Y-120480500D01*
X130487740Y-120465966D01*
X130570601Y-120410601D01*
X130625966Y-120327740D01*
X130640500Y-120254674D01*
X130640500Y-119380000D01*
X130974785Y-119380000D01*
X130993603Y-119583083D01*
X130995171Y-119588594D01*
X130995173Y-119588604D01*
X131047847Y-119773731D01*
X131047849Y-119773737D01*
X131049418Y-119779250D01*
X131140327Y-119961821D01*
X131143779Y-119966392D01*
X131259778Y-120120001D01*
X131259783Y-120120006D01*
X131263236Y-120124579D01*
X131267472Y-120128440D01*
X131267476Y-120128445D01*
X131369227Y-120221203D01*
X131413959Y-120261981D01*
X131587363Y-120369348D01*
X131777544Y-120443024D01*
X131978024Y-120480500D01*
X132176247Y-120480500D01*
X132181976Y-120480500D01*
X132382456Y-120443024D01*
X132572637Y-120369348D01*
X132746041Y-120261981D01*
X132896764Y-120124579D01*
X133019673Y-119961821D01*
X133110582Y-119779250D01*
X133166397Y-119583083D01*
X133185215Y-119380000D01*
X133514785Y-119380000D01*
X133533603Y-119583083D01*
X133535171Y-119588594D01*
X133535173Y-119588604D01*
X133587847Y-119773731D01*
X133587849Y-119773737D01*
X133589418Y-119779250D01*
X133680327Y-119961821D01*
X133683779Y-119966392D01*
X133799778Y-120120001D01*
X133799783Y-120120006D01*
X133803236Y-120124579D01*
X133807472Y-120128440D01*
X133807476Y-120128445D01*
X133909227Y-120221203D01*
X133953959Y-120261981D01*
X134127363Y-120369348D01*
X134317544Y-120443024D01*
X134518024Y-120480500D01*
X134716247Y-120480500D01*
X134721976Y-120480500D01*
X134922456Y-120443024D01*
X135112637Y-120369348D01*
X135286041Y-120261981D01*
X135436764Y-120124579D01*
X135559673Y-119961821D01*
X135650582Y-119779250D01*
X135706397Y-119583083D01*
X135725215Y-119380000D01*
X135706397Y-119176917D01*
X135650582Y-118980750D01*
X135559673Y-118798179D01*
X135511176Y-118733959D01*
X135440221Y-118639998D01*
X135440216Y-118639992D01*
X135436764Y-118635421D01*
X135432527Y-118631558D01*
X135432523Y-118631554D01*
X135290275Y-118501879D01*
X135290276Y-118501879D01*
X135286041Y-118498019D01*
X135281171Y-118495004D01*
X135281169Y-118495002D01*
X135117511Y-118393670D01*
X135117512Y-118393670D01*
X135112637Y-118390652D01*
X135075469Y-118376253D01*
X134927803Y-118319047D01*
X134927798Y-118319045D01*
X134922456Y-118316976D01*
X134916818Y-118315922D01*
X134727605Y-118280552D01*
X134727602Y-118280551D01*
X134721976Y-118279500D01*
X134518024Y-118279500D01*
X134512398Y-118280551D01*
X134512394Y-118280552D01*
X134323181Y-118315922D01*
X134323178Y-118315922D01*
X134317544Y-118316976D01*
X134312203Y-118319044D01*
X134312196Y-118319047D01*
X134132705Y-118388582D01*
X134132700Y-118388584D01*
X134127363Y-118390652D01*
X134122491Y-118393668D01*
X134122488Y-118393670D01*
X133958830Y-118495002D01*
X133958822Y-118495007D01*
X133953959Y-118498019D01*
X133949728Y-118501875D01*
X133949724Y-118501879D01*
X133807476Y-118631554D01*
X133807466Y-118631564D01*
X133803236Y-118635421D01*
X133799787Y-118639987D01*
X133799778Y-118639998D01*
X133683779Y-118793607D01*
X133683776Y-118793611D01*
X133680327Y-118798179D01*
X133677774Y-118803304D01*
X133677772Y-118803309D01*
X133591976Y-118975612D01*
X133589418Y-118980750D01*
X133587850Y-118986258D01*
X133587847Y-118986268D01*
X133535173Y-119171395D01*
X133535170Y-119171406D01*
X133533603Y-119176917D01*
X133514785Y-119380000D01*
X133185215Y-119380000D01*
X133166397Y-119176917D01*
X133110582Y-118980750D01*
X133019673Y-118798179D01*
X132971176Y-118733959D01*
X132900221Y-118639998D01*
X132900216Y-118639992D01*
X132896764Y-118635421D01*
X132892527Y-118631558D01*
X132892523Y-118631554D01*
X132750275Y-118501879D01*
X132750276Y-118501879D01*
X132746041Y-118498019D01*
X132741171Y-118495004D01*
X132741169Y-118495002D01*
X132577511Y-118393670D01*
X132577512Y-118393670D01*
X132572637Y-118390652D01*
X132535469Y-118376253D01*
X132387803Y-118319047D01*
X132387798Y-118319045D01*
X132382456Y-118316976D01*
X132376818Y-118315922D01*
X132187605Y-118280552D01*
X132187602Y-118280551D01*
X132181976Y-118279500D01*
X131978024Y-118279500D01*
X131972398Y-118280551D01*
X131972394Y-118280552D01*
X131783181Y-118315922D01*
X131783178Y-118315922D01*
X131777544Y-118316976D01*
X131772203Y-118319044D01*
X131772196Y-118319047D01*
X131592705Y-118388582D01*
X131592700Y-118388584D01*
X131587363Y-118390652D01*
X131582491Y-118393668D01*
X131582488Y-118393670D01*
X131418830Y-118495002D01*
X131418822Y-118495007D01*
X131413959Y-118498019D01*
X131409728Y-118501875D01*
X131409724Y-118501879D01*
X131267476Y-118631554D01*
X131267466Y-118631564D01*
X131263236Y-118635421D01*
X131259787Y-118639987D01*
X131259778Y-118639998D01*
X131143779Y-118793607D01*
X131143776Y-118793611D01*
X131140327Y-118798179D01*
X131137774Y-118803304D01*
X131137772Y-118803309D01*
X131051976Y-118975612D01*
X131049418Y-118980750D01*
X131047850Y-118986258D01*
X131047847Y-118986268D01*
X130995173Y-119171395D01*
X130995170Y-119171406D01*
X130993603Y-119176917D01*
X130974785Y-119380000D01*
X130640500Y-119380000D01*
X130640500Y-118549006D01*
X130641203Y-118549006D01*
X130640882Y-118547479D01*
X130641106Y-118546589D01*
X130640500Y-118541285D01*
X130640500Y-118505326D01*
X130630846Y-118456797D01*
X130630736Y-118455827D01*
X130630495Y-118455031D01*
X130625966Y-118432260D01*
X130605810Y-118402095D01*
X130598544Y-118389723D01*
X130589280Y-118371627D01*
X130589276Y-118371621D01*
X130586739Y-118366665D01*
X130080910Y-117705196D01*
X130016000Y-117620314D01*
X129997048Y-117584752D01*
X129990500Y-117544990D01*
X129990500Y-116142731D01*
X129991889Y-116130397D01*
X129991553Y-116130372D01*
X129992247Y-116121106D01*
X129994315Y-116112046D01*
X129990847Y-116065770D01*
X129990500Y-116056503D01*
X129990500Y-113987966D01*
X129999939Y-113940513D01*
X130026819Y-113900285D01*
X130664284Y-113262819D01*
X130704512Y-113235939D01*
X130751965Y-113226500D01*
X131466019Y-113226500D01*
X131497455Y-113230550D01*
X131867384Y-113327505D01*
X132106303Y-113390123D01*
X132105971Y-113391387D01*
X132107498Y-113392033D01*
X132107938Y-113390249D01*
X132255015Y-113426500D01*
X132405485Y-113426500D01*
X132412985Y-113426500D01*
X132566365Y-113388696D01*
X132706240Y-113315283D01*
X132751756Y-113274959D01*
X132811631Y-113245806D01*
X132877954Y-113251833D01*
X132931594Y-113291302D01*
X132957079Y-113352828D01*
X132966858Y-113433371D01*
X132966859Y-113433377D01*
X132967763Y-113440818D01*
X132970422Y-113447831D01*
X132970423Y-113447832D01*
X133010270Y-113552902D01*
X133023780Y-113588523D01*
X133028043Y-113594699D01*
X133087884Y-113681395D01*
X133113517Y-113718530D01*
X133119126Y-113723499D01*
X133119127Y-113723500D01*
X133215987Y-113809310D01*
X133231760Y-113823283D01*
X133371635Y-113896696D01*
X133525015Y-113934500D01*
X133675485Y-113934500D01*
X133682985Y-113934500D01*
X133836365Y-113896696D01*
X133976240Y-113823283D01*
X134094483Y-113718530D01*
X134184220Y-113588523D01*
X134240237Y-113440818D01*
X134259278Y-113284000D01*
X134240237Y-113127182D01*
X134184220Y-112979477D01*
X134103999Y-112863256D01*
X134098742Y-112855640D01*
X134098741Y-112855639D01*
X134094483Y-112849470D01*
X134082867Y-112839179D01*
X133981856Y-112749692D01*
X133981854Y-112749690D01*
X133976240Y-112744717D01*
X133969595Y-112741229D01*
X133969593Y-112741228D01*
X133843006Y-112674789D01*
X133843002Y-112674787D01*
X133836365Y-112671304D01*
X133829087Y-112669510D01*
X133829084Y-112669509D01*
X133690267Y-112635294D01*
X133690260Y-112635293D01*
X133682985Y-112633500D01*
X133525015Y-112633500D01*
X133517740Y-112635292D01*
X133517732Y-112635294D01*
X133378915Y-112669509D01*
X133378909Y-112669510D01*
X133371635Y-112671304D01*
X133365000Y-112674786D01*
X133364993Y-112674789D01*
X133232260Y-112744454D01*
X133177172Y-112758632D01*
X133121550Y-112746721D01*
X133077099Y-112711227D01*
X133053173Y-112659621D01*
X133054807Y-112602761D01*
X133055106Y-112601640D01*
X133140433Y-112281087D01*
X133152597Y-112251466D01*
X133306876Y-111981479D01*
X133352299Y-111935751D01*
X133414538Y-111919000D01*
X137662895Y-111919000D01*
X137725042Y-111935698D01*
X137770452Y-111981294D01*
X137786894Y-112043509D01*
X137769941Y-112105587D01*
X137517053Y-112538113D01*
X137497688Y-112563207D01*
X137212052Y-112848843D01*
X137159469Y-112880091D01*
X137098345Y-112882400D01*
X137043555Y-112855208D01*
X137008429Y-112805132D01*
X136980882Y-112732496D01*
X136980881Y-112732494D01*
X136978220Y-112725477D01*
X136888483Y-112595470D01*
X136869552Y-112578699D01*
X136775856Y-112495692D01*
X136775854Y-112495690D01*
X136770240Y-112490717D01*
X136763595Y-112487229D01*
X136763593Y-112487228D01*
X136637006Y-112420789D01*
X136637002Y-112420787D01*
X136630365Y-112417304D01*
X136623087Y-112415510D01*
X136623084Y-112415509D01*
X136484267Y-112381294D01*
X136484260Y-112381293D01*
X136476985Y-112379500D01*
X136319015Y-112379500D01*
X136311740Y-112381292D01*
X136311732Y-112381294D01*
X136172915Y-112415509D01*
X136172909Y-112415510D01*
X136165635Y-112417304D01*
X136159000Y-112420786D01*
X136158993Y-112420789D01*
X136032403Y-112487230D01*
X136032400Y-112487231D01*
X136025760Y-112490717D01*
X136020144Y-112495691D01*
X136013974Y-112499951D01*
X136012631Y-112498006D01*
X135972089Y-112519262D01*
X135912761Y-112519247D01*
X135860231Y-112491672D01*
X135847360Y-112480270D01*
X135847355Y-112480267D01*
X135841740Y-112475292D01*
X135835095Y-112471804D01*
X135835093Y-112471803D01*
X135708506Y-112405364D01*
X135708502Y-112405362D01*
X135701865Y-112401879D01*
X135694587Y-112400085D01*
X135694584Y-112400084D01*
X135555767Y-112365869D01*
X135555760Y-112365868D01*
X135548485Y-112364075D01*
X135390515Y-112364075D01*
X135383240Y-112365867D01*
X135383232Y-112365869D01*
X135244415Y-112400084D01*
X135244409Y-112400085D01*
X135237135Y-112401879D01*
X135230500Y-112405361D01*
X135230493Y-112405364D01*
X135103906Y-112471803D01*
X135103900Y-112471806D01*
X135097260Y-112475292D01*
X135091648Y-112480262D01*
X135091643Y-112480267D01*
X134984627Y-112575074D01*
X134984622Y-112575078D01*
X134979017Y-112580045D01*
X134974762Y-112586209D01*
X134974757Y-112586215D01*
X134893543Y-112703875D01*
X134893540Y-112703878D01*
X134889280Y-112710052D01*
X134886620Y-112717063D01*
X134886618Y-112717069D01*
X134835923Y-112850742D01*
X134833263Y-112857757D01*
X134832359Y-112865197D01*
X134832358Y-112865204D01*
X134818188Y-112981914D01*
X134814222Y-113014575D01*
X134815126Y-113022020D01*
X134832358Y-113163945D01*
X134832359Y-113163950D01*
X134833263Y-113171393D01*
X134835922Y-113178406D01*
X134835923Y-113178407D01*
X134886076Y-113310652D01*
X134889280Y-113319098D01*
X134893543Y-113325274D01*
X134973296Y-113440818D01*
X134979017Y-113449105D01*
X134984626Y-113454074D01*
X134984627Y-113454075D01*
X135065044Y-113525318D01*
X135097260Y-113553858D01*
X135237135Y-113627271D01*
X135306997Y-113644490D01*
X135374257Y-113661068D01*
X135390515Y-113665075D01*
X135540985Y-113665075D01*
X135548485Y-113665075D01*
X135701865Y-113627271D01*
X135841740Y-113553858D01*
X135847358Y-113548880D01*
X135853527Y-113544623D01*
X135854878Y-113546581D01*
X135895336Y-113525330D01*
X135954701Y-113525318D01*
X136007268Y-113552902D01*
X136020139Y-113564304D01*
X136020142Y-113564306D01*
X136025760Y-113569283D01*
X136165635Y-113642696D01*
X136319015Y-113680500D01*
X136469485Y-113680500D01*
X136476985Y-113680500D01*
X136555825Y-113661067D01*
X136611526Y-113660227D01*
X136661973Y-113683854D01*
X136696987Y-113727182D01*
X136709500Y-113781465D01*
X136709500Y-114712245D01*
X136692384Y-114775108D01*
X136645762Y-114820617D01*
X136582503Y-114836209D01*
X136520072Y-114817579D01*
X136475703Y-114769870D01*
X136472880Y-114764492D01*
X136470220Y-114757477D01*
X136380483Y-114627470D01*
X136262240Y-114522717D01*
X136255595Y-114519229D01*
X136255593Y-114519228D01*
X136129006Y-114452789D01*
X136129002Y-114452787D01*
X136122365Y-114449304D01*
X136115087Y-114447510D01*
X136115084Y-114447509D01*
X135976267Y-114413294D01*
X135976260Y-114413293D01*
X135968985Y-114411500D01*
X135811015Y-114411500D01*
X135803740Y-114413292D01*
X135803732Y-114413294D01*
X135664915Y-114447509D01*
X135664909Y-114447510D01*
X135657635Y-114449304D01*
X135651000Y-114452786D01*
X135650993Y-114452789D01*
X135524406Y-114519228D01*
X135524400Y-114519231D01*
X135517760Y-114522717D01*
X135512148Y-114527687D01*
X135512143Y-114527692D01*
X135405127Y-114622499D01*
X135405122Y-114622503D01*
X135399517Y-114627470D01*
X135395262Y-114633634D01*
X135395257Y-114633640D01*
X135314043Y-114751300D01*
X135314040Y-114751303D01*
X135309780Y-114757477D01*
X135307120Y-114764488D01*
X135307118Y-114764494D01*
X135260889Y-114886392D01*
X135253763Y-114905182D01*
X135252859Y-114912622D01*
X135252858Y-114912629D01*
X135237393Y-115040001D01*
X135234722Y-115062000D01*
X135235626Y-115069445D01*
X135252858Y-115211370D01*
X135252859Y-115211375D01*
X135253763Y-115218818D01*
X135309780Y-115366523D01*
X135314041Y-115372696D01*
X135314043Y-115372699D01*
X135399517Y-115496530D01*
X135398081Y-115497521D01*
X135420544Y-115540307D01*
X135420553Y-115599652D01*
X135398085Y-115642481D01*
X135399517Y-115643470D01*
X135314043Y-115767300D01*
X135314040Y-115767303D01*
X135309780Y-115773477D01*
X135307120Y-115780488D01*
X135307118Y-115780494D01*
X135256423Y-115914167D01*
X135253763Y-115921182D01*
X135252859Y-115928622D01*
X135252858Y-115928629D01*
X135252858Y-115928632D01*
X135234722Y-116078000D01*
X135235626Y-116085445D01*
X135252858Y-116227370D01*
X135252859Y-116227375D01*
X135253763Y-116234818D01*
X135309780Y-116382523D01*
X135399517Y-116512530D01*
X135517760Y-116617283D01*
X135657635Y-116690696D01*
X135811015Y-116728500D01*
X135961485Y-116728500D01*
X135968985Y-116728500D01*
X136122365Y-116690696D01*
X136262240Y-116617283D01*
X136380483Y-116512530D01*
X136470220Y-116382523D01*
X136472882Y-116375505D01*
X136475703Y-116370130D01*
X136520072Y-116322421D01*
X136582503Y-116303791D01*
X136645762Y-116319383D01*
X136692384Y-116364892D01*
X136709500Y-116427755D01*
X136709500Y-117590830D01*
X136699590Y-117639405D01*
X136145842Y-118940018D01*
X136145836Y-118940033D01*
X136144244Y-118943774D01*
X136143152Y-118947702D01*
X136143149Y-118947714D01*
X136142897Y-118948623D01*
X136142154Y-118950558D01*
X136141805Y-118951556D01*
X136141775Y-118951545D01*
X136134433Y-118970675D01*
X136131975Y-118975611D01*
X136131969Y-118975625D01*
X136129418Y-118980750D01*
X136127850Y-118986260D01*
X136127848Y-118986266D01*
X136075173Y-119171395D01*
X136075170Y-119171406D01*
X136073603Y-119176917D01*
X136054785Y-119380000D01*
X136073603Y-119583083D01*
X136075171Y-119588594D01*
X136075173Y-119588604D01*
X136127847Y-119773731D01*
X136127849Y-119773737D01*
X136129418Y-119779250D01*
X136220327Y-119961821D01*
X136223779Y-119966392D01*
X136339778Y-120120001D01*
X136339783Y-120120006D01*
X136343236Y-120124579D01*
X136347472Y-120128440D01*
X136347476Y-120128445D01*
X136449227Y-120221203D01*
X136493959Y-120261981D01*
X136667363Y-120369348D01*
X136857544Y-120443024D01*
X137058024Y-120480500D01*
X137256247Y-120480500D01*
X137261976Y-120480500D01*
X137462456Y-120443024D01*
X137652637Y-120369348D01*
X137826041Y-120261981D01*
X137976764Y-120124579D01*
X138099673Y-119961821D01*
X138190582Y-119779250D01*
X138246397Y-119583083D01*
X138265215Y-119380000D01*
X138246397Y-119176917D01*
X138190582Y-118980750D01*
X138188024Y-118975612D01*
X138185570Y-118970683D01*
X138178224Y-118951542D01*
X138178193Y-118951554D01*
X138177822Y-118950496D01*
X138177094Y-118948597D01*
X138175754Y-118943772D01*
X138009165Y-118552497D01*
X137620410Y-117639407D01*
X137610500Y-117590832D01*
X137610500Y-113775966D01*
X137619939Y-113728513D01*
X137646816Y-113688287D01*
X138134802Y-113200299D01*
X138159883Y-113180945D01*
X138703244Y-112863256D01*
X138707463Y-112859643D01*
X138711988Y-112856423D01*
X138712298Y-112856859D01*
X138727754Y-112846376D01*
X138728536Y-112845966D01*
X138802240Y-112807283D01*
X138920483Y-112702530D01*
X139010220Y-112572523D01*
X139054798Y-112454979D01*
X139088510Y-112406138D01*
X139141062Y-112378556D01*
X139200410Y-112378556D01*
X139330015Y-112410500D01*
X139480485Y-112410500D01*
X139487985Y-112410500D01*
X139604326Y-112381824D01*
X139660025Y-112380984D01*
X139710473Y-112404611D01*
X139745487Y-112447939D01*
X139758000Y-112502222D01*
X139758000Y-117705196D01*
X139748591Y-117752577D01*
X139721792Y-117792767D01*
X138930600Y-118585954D01*
X138930594Y-118585960D01*
X138926310Y-118590256D01*
X138922939Y-118595310D01*
X138919084Y-118600020D01*
X138918674Y-118599684D01*
X138905076Y-118615509D01*
X138887470Y-118631559D01*
X138887459Y-118631570D01*
X138883236Y-118635421D01*
X138879789Y-118639984D01*
X138879783Y-118639992D01*
X138763779Y-118793607D01*
X138763776Y-118793611D01*
X138760327Y-118798179D01*
X138757774Y-118803304D01*
X138757772Y-118803309D01*
X138671976Y-118975612D01*
X138669418Y-118980750D01*
X138667850Y-118986258D01*
X138667847Y-118986268D01*
X138615173Y-119171395D01*
X138615170Y-119171406D01*
X138613603Y-119176917D01*
X138594785Y-119380000D01*
X138613603Y-119583083D01*
X138615171Y-119588594D01*
X138615173Y-119588604D01*
X138667847Y-119773731D01*
X138667849Y-119773737D01*
X138669418Y-119779250D01*
X138760327Y-119961821D01*
X138763779Y-119966392D01*
X138879778Y-120120001D01*
X138879783Y-120120006D01*
X138883236Y-120124579D01*
X138887472Y-120128440D01*
X138887476Y-120128445D01*
X138989227Y-120221203D01*
X139033959Y-120261981D01*
X139207363Y-120369348D01*
X139397544Y-120443024D01*
X139598024Y-120480500D01*
X139796247Y-120480500D01*
X139801976Y-120480500D01*
X140002456Y-120443024D01*
X140192637Y-120369348D01*
X140366041Y-120261981D01*
X140516764Y-120124579D01*
X140639673Y-119961821D01*
X140730582Y-119779250D01*
X140786397Y-119583083D01*
X140805215Y-119380000D01*
X141134785Y-119380000D01*
X141153603Y-119583083D01*
X141155171Y-119588594D01*
X141155173Y-119588604D01*
X141207847Y-119773731D01*
X141207849Y-119773737D01*
X141209418Y-119779250D01*
X141300327Y-119961821D01*
X141303779Y-119966392D01*
X141419778Y-120120001D01*
X141419783Y-120120006D01*
X141423236Y-120124579D01*
X141427472Y-120128440D01*
X141427476Y-120128445D01*
X141529227Y-120221203D01*
X141573959Y-120261981D01*
X141747363Y-120369348D01*
X141937544Y-120443024D01*
X142138024Y-120480500D01*
X142336247Y-120480500D01*
X142341976Y-120480500D01*
X142542456Y-120443024D01*
X142732637Y-120369348D01*
X142906041Y-120261981D01*
X143056764Y-120124579D01*
X143179673Y-119961821D01*
X143270582Y-119779250D01*
X143326397Y-119583083D01*
X143345215Y-119380000D01*
X143326397Y-119176917D01*
X143270582Y-118980750D01*
X143267323Y-118974206D01*
X143259867Y-118954883D01*
X143259233Y-118951350D01*
X142890706Y-118004921D01*
X142748951Y-117640873D01*
X142740500Y-117595880D01*
X142740500Y-114300000D01*
X143674785Y-114300000D01*
X143675314Y-114305709D01*
X143688942Y-114452789D01*
X143693603Y-114503083D01*
X143695171Y-114508594D01*
X143695173Y-114508604D01*
X143747847Y-114693731D01*
X143747849Y-114693736D01*
X143749418Y-114699250D01*
X143840327Y-114881821D01*
X143843779Y-114886392D01*
X143959778Y-115040001D01*
X143959783Y-115040006D01*
X143963236Y-115044579D01*
X143967472Y-115048440D01*
X143967476Y-115048445D01*
X144069227Y-115141203D01*
X144113959Y-115181981D01*
X144287363Y-115289348D01*
X144477544Y-115363024D01*
X144678024Y-115400500D01*
X144876247Y-115400500D01*
X144881976Y-115400500D01*
X145082456Y-115363024D01*
X145272637Y-115289348D01*
X145446041Y-115181981D01*
X145596764Y-115044579D01*
X145719673Y-114881821D01*
X145810582Y-114699250D01*
X145866397Y-114503083D01*
X145885215Y-114300000D01*
X145866397Y-114096917D01*
X145810582Y-113900750D01*
X145719673Y-113718179D01*
X145662671Y-113642696D01*
X145600221Y-113559998D01*
X145600217Y-113559994D01*
X145596764Y-113555421D01*
X145592527Y-113551558D01*
X145592523Y-113551554D01*
X145450275Y-113421879D01*
X145450276Y-113421879D01*
X145446041Y-113418019D01*
X145441171Y-113415004D01*
X145441169Y-113415002D01*
X145311190Y-113334523D01*
X145272637Y-113310652D01*
X145203840Y-113284000D01*
X145087803Y-113239047D01*
X145087798Y-113239045D01*
X145082456Y-113236976D01*
X145076818Y-113235922D01*
X144887605Y-113200552D01*
X144887602Y-113200551D01*
X144881976Y-113199500D01*
X144678024Y-113199500D01*
X144672398Y-113200551D01*
X144672394Y-113200552D01*
X144483181Y-113235922D01*
X144483178Y-113235922D01*
X144477544Y-113236976D01*
X144472203Y-113239044D01*
X144472196Y-113239047D01*
X144292705Y-113308582D01*
X144292700Y-113308584D01*
X144287363Y-113310652D01*
X144282491Y-113313668D01*
X144282488Y-113313670D01*
X144118830Y-113415002D01*
X144118822Y-113415007D01*
X144113959Y-113418019D01*
X144109728Y-113421875D01*
X144109724Y-113421879D01*
X143967476Y-113551554D01*
X143967466Y-113551564D01*
X143963236Y-113555421D01*
X143959787Y-113559987D01*
X143959778Y-113559998D01*
X143843779Y-113713607D01*
X143843776Y-113713611D01*
X143840327Y-113718179D01*
X143837774Y-113723304D01*
X143837772Y-113723309D01*
X143753172Y-113893210D01*
X143749418Y-113900750D01*
X143747850Y-113906258D01*
X143747847Y-113906268D01*
X143695173Y-114091395D01*
X143695170Y-114091406D01*
X143693603Y-114096917D01*
X143674785Y-114300000D01*
X142740500Y-114300000D01*
X142740500Y-112634674D01*
X143679500Y-112634674D01*
X143680688Y-112640649D01*
X143680689Y-112640653D01*
X143691650Y-112695759D01*
X143691651Y-112695762D01*
X143694034Y-112707740D01*
X143749399Y-112790601D01*
X143832260Y-112845966D01*
X143905326Y-112860500D01*
X145648579Y-112860500D01*
X145654674Y-112860500D01*
X145727740Y-112845966D01*
X145810601Y-112790601D01*
X145865966Y-112707740D01*
X145880500Y-112634674D01*
X145880500Y-110885326D01*
X145865966Y-110812260D01*
X145810601Y-110729399D01*
X145727740Y-110674034D01*
X145715762Y-110671651D01*
X145715759Y-110671650D01*
X145660653Y-110660689D01*
X145660649Y-110660688D01*
X145654674Y-110659500D01*
X143905326Y-110659500D01*
X143899351Y-110660688D01*
X143899346Y-110660689D01*
X143844240Y-110671650D01*
X143844235Y-110671651D01*
X143832260Y-110674034D01*
X143822105Y-110680819D01*
X143822103Y-110680820D01*
X143759551Y-110722615D01*
X143759548Y-110722617D01*
X143749399Y-110729399D01*
X143742617Y-110739548D01*
X143742615Y-110739551D01*
X143700820Y-110802103D01*
X143700819Y-110802105D01*
X143694034Y-110812260D01*
X143691651Y-110824235D01*
X143691650Y-110824240D01*
X143680689Y-110879346D01*
X143680688Y-110879351D01*
X143679500Y-110885326D01*
X143679500Y-112634674D01*
X142740500Y-112634674D01*
X142740500Y-108873215D01*
X142756494Y-108812299D01*
X142800351Y-108767098D01*
X142860756Y-108749272D01*
X142922125Y-108763418D01*
X143023635Y-108816696D01*
X143177015Y-108854500D01*
X143327485Y-108854500D01*
X143334985Y-108854500D01*
X143488365Y-108816696D01*
X143540584Y-108789288D01*
X143596090Y-108775104D01*
X143652053Y-108787387D01*
X143696520Y-108823517D01*
X143719997Y-108875781D01*
X143717474Y-108933020D01*
X143711146Y-108955262D01*
X143693603Y-109016917D01*
X143693073Y-109022627D01*
X143693073Y-109022632D01*
X143684486Y-109115304D01*
X143674785Y-109220000D01*
X143675314Y-109225709D01*
X143682164Y-109299640D01*
X143693603Y-109423083D01*
X143695171Y-109428594D01*
X143695173Y-109428604D01*
X143747847Y-109613731D01*
X143747849Y-109613737D01*
X143749418Y-109619250D01*
X143766985Y-109654530D01*
X143820882Y-109762771D01*
X143840327Y-109801821D01*
X143843779Y-109806392D01*
X143959778Y-109960001D01*
X143959783Y-109960006D01*
X143963236Y-109964579D01*
X143967472Y-109968440D01*
X143967476Y-109968445D01*
X144037767Y-110032523D01*
X144113959Y-110101981D01*
X144287363Y-110209348D01*
X144477544Y-110283024D01*
X144678024Y-110320500D01*
X144876247Y-110320500D01*
X144881976Y-110320500D01*
X145082456Y-110283024D01*
X145272637Y-110209348D01*
X145446041Y-110101981D01*
X145596764Y-109964579D01*
X145719673Y-109801821D01*
X145810582Y-109619250D01*
X145866397Y-109423083D01*
X145885215Y-109220000D01*
X145866397Y-109016917D01*
X145848854Y-108955262D01*
X145812152Y-108826268D01*
X145810582Y-108820750D01*
X145719673Y-108638179D01*
X145652973Y-108549854D01*
X145600221Y-108479998D01*
X145600217Y-108479994D01*
X145596764Y-108475421D01*
X145592527Y-108471558D01*
X145592523Y-108471554D01*
X145450275Y-108341879D01*
X145450276Y-108341879D01*
X145446041Y-108338019D01*
X145441171Y-108335004D01*
X145441169Y-108335002D01*
X145277511Y-108233670D01*
X145277512Y-108233670D01*
X145272637Y-108230652D01*
X145249813Y-108221810D01*
X145087803Y-108159047D01*
X145087798Y-108159045D01*
X145082456Y-108156976D01*
X145030694Y-108147300D01*
X144887605Y-108120552D01*
X144887602Y-108120551D01*
X144881976Y-108119500D01*
X144678024Y-108119500D01*
X144672398Y-108120551D01*
X144672394Y-108120552D01*
X144483181Y-108155922D01*
X144483178Y-108155922D01*
X144477544Y-108156976D01*
X144472203Y-108159044D01*
X144472196Y-108159047D01*
X144292705Y-108228582D01*
X144292700Y-108228584D01*
X144287363Y-108230652D01*
X144282491Y-108233668D01*
X144282488Y-108233670D01*
X144118839Y-108334997D01*
X144118835Y-108334999D01*
X144113959Y-108338019D01*
X144109719Y-108341883D01*
X144105830Y-108344821D01*
X144053194Y-108367882D01*
X143995815Y-108364737D01*
X143946014Y-108336062D01*
X143914489Y-108288016D01*
X143908009Y-108230919D01*
X143911278Y-108204000D01*
X143892237Y-108047182D01*
X143854801Y-107948471D01*
X143847647Y-107889553D01*
X143868693Y-107834060D01*
X143913117Y-107794703D01*
X143970743Y-107780500D01*
X145648579Y-107780500D01*
X145654674Y-107780500D01*
X145727740Y-107765966D01*
X145810601Y-107710601D01*
X145865966Y-107627740D01*
X145880500Y-107554674D01*
X145880500Y-105805326D01*
X145865966Y-105732260D01*
X145810601Y-105649399D01*
X145727740Y-105594034D01*
X145715762Y-105591651D01*
X145715759Y-105591650D01*
X145660653Y-105580689D01*
X145660649Y-105580688D01*
X145654674Y-105579500D01*
X143905326Y-105579500D01*
X143899351Y-105580688D01*
X143899346Y-105580689D01*
X143844240Y-105591650D01*
X143844235Y-105591651D01*
X143832260Y-105594034D01*
X143822105Y-105600819D01*
X143822103Y-105600820D01*
X143759551Y-105642615D01*
X143759548Y-105642617D01*
X143749399Y-105649399D01*
X143742617Y-105659548D01*
X143742615Y-105659551D01*
X143700820Y-105722103D01*
X143700819Y-105722105D01*
X143694034Y-105732260D01*
X143691651Y-105744235D01*
X143691650Y-105744240D01*
X143680689Y-105799346D01*
X143680688Y-105799351D01*
X143679500Y-105805326D01*
X143679500Y-105811421D01*
X143679500Y-107486499D01*
X143663506Y-107547415D01*
X143619649Y-107592617D01*
X143559243Y-107610442D01*
X143502087Y-107597265D01*
X143502018Y-107597449D01*
X143500678Y-107596941D01*
X143497872Y-107596294D01*
X143488365Y-107591304D01*
X143481087Y-107589510D01*
X143481084Y-107589509D01*
X143342267Y-107555294D01*
X143342260Y-107555293D01*
X143334985Y-107553500D01*
X143177015Y-107553500D01*
X143169740Y-107555292D01*
X143169732Y-107555294D01*
X143030915Y-107589509D01*
X143030909Y-107589510D01*
X143023635Y-107591304D01*
X143017000Y-107594786D01*
X143016993Y-107594789D01*
X142942726Y-107633768D01*
X142922125Y-107644581D01*
X142860756Y-107658728D01*
X142800351Y-107640902D01*
X142756494Y-107595701D01*
X142740500Y-107534785D01*
X142740500Y-103689569D01*
X142758123Y-103625851D01*
X142805980Y-103580247D01*
X143012309Y-103469809D01*
X143017024Y-103466031D01*
X143036922Y-103453010D01*
X143120240Y-103409283D01*
X143238483Y-103304530D01*
X143328220Y-103174523D01*
X143384237Y-103026818D01*
X143403278Y-102870000D01*
X143384237Y-102713182D01*
X143328220Y-102565477D01*
X143260924Y-102467981D01*
X143242742Y-102441640D01*
X143242741Y-102441639D01*
X143238483Y-102435470D01*
X143151660Y-102358552D01*
X143125856Y-102335692D01*
X143125854Y-102335690D01*
X143120240Y-102330717D01*
X143113595Y-102327229D01*
X143113593Y-102327228D01*
X142987006Y-102260789D01*
X142987002Y-102260787D01*
X142980365Y-102257304D01*
X142973087Y-102255510D01*
X142973084Y-102255509D01*
X142834267Y-102221294D01*
X142834260Y-102221293D01*
X142826985Y-102219500D01*
X142669015Y-102219500D01*
X142661740Y-102221292D01*
X142661732Y-102221294D01*
X142522915Y-102255509D01*
X142522909Y-102255510D01*
X142515635Y-102257304D01*
X142509000Y-102260786D01*
X142508993Y-102260789D01*
X142382406Y-102327228D01*
X142382400Y-102327231D01*
X142375760Y-102330717D01*
X142370148Y-102335687D01*
X142370143Y-102335692D01*
X142263127Y-102430499D01*
X142263122Y-102430503D01*
X142257517Y-102435470D01*
X142253262Y-102441634D01*
X142253257Y-102441640D01*
X142172040Y-102559304D01*
X142172037Y-102559309D01*
X142167780Y-102565477D01*
X142165123Y-102572480D01*
X142165116Y-102572495D01*
X142161908Y-102580955D01*
X142150297Y-102603902D01*
X142147100Y-102607966D01*
X142144442Y-102613046D01*
X142144441Y-102613049D01*
X141985771Y-102916400D01*
X141963575Y-102946609D01*
X141933570Y-102976614D01*
X141922957Y-102985167D01*
X141923033Y-102985255D01*
X141916328Y-102991064D01*
X141908872Y-102995857D01*
X141903067Y-103002555D01*
X141903066Y-103002557D01*
X141876353Y-103033385D01*
X141870327Y-103039858D01*
X141863907Y-103046278D01*
X141863902Y-103046283D01*
X141860779Y-103049407D01*
X141858132Y-103052942D01*
X141858117Y-103052960D01*
X141852674Y-103060230D01*
X141847132Y-103067107D01*
X141820429Y-103097925D01*
X141820425Y-103097930D01*
X141814623Y-103104627D01*
X141810940Y-103112689D01*
X141806144Y-103120153D01*
X141806048Y-103120091D01*
X141805667Y-103120732D01*
X141805768Y-103120787D01*
X141801519Y-103128568D01*
X141796204Y-103135669D01*
X141793105Y-103143976D01*
X141793104Y-103143979D01*
X141778852Y-103182191D01*
X141775466Y-103190366D01*
X141758518Y-103227476D01*
X141758516Y-103227482D01*
X141754835Y-103235543D01*
X141753572Y-103244319D01*
X141751075Y-103252827D01*
X141750964Y-103252794D01*
X141750779Y-103253520D01*
X141750892Y-103253545D01*
X141749007Y-103262208D01*
X141745909Y-103270517D01*
X141745276Y-103279360D01*
X141745276Y-103279362D01*
X141742365Y-103320054D01*
X141741420Y-103328843D01*
X141739500Y-103342201D01*
X141739500Y-103346630D01*
X141739500Y-103355692D01*
X141739184Y-103364539D01*
X141736273Y-103405226D01*
X141736273Y-103405231D01*
X141735641Y-103414073D01*
X141737525Y-103422737D01*
X141738159Y-103431586D01*
X141738043Y-103431594D01*
X141739500Y-103445144D01*
X141739500Y-117595880D01*
X141731049Y-117640873D01*
X141222944Y-118945754D01*
X141222941Y-118945763D01*
X141220766Y-118951350D01*
X141220130Y-118954886D01*
X141212676Y-118974206D01*
X141211972Y-118975619D01*
X141211969Y-118975625D01*
X141209418Y-118980750D01*
X141207850Y-118986257D01*
X141207850Y-118986260D01*
X141155173Y-119171395D01*
X141155170Y-119171406D01*
X141153603Y-119176917D01*
X141134785Y-119380000D01*
X140805215Y-119380000D01*
X140803533Y-119361859D01*
X140803302Y-119352017D01*
X140803103Y-119352022D01*
X140803000Y-119347724D01*
X140803195Y-119343432D01*
X140663882Y-117853942D01*
X140662310Y-117848434D01*
X140661253Y-117842800D01*
X140662232Y-117842616D01*
X140659000Y-117819486D01*
X140659000Y-102394761D01*
X140659780Y-102380878D01*
X140662295Y-102358552D01*
X140663770Y-102345465D01*
X140653130Y-102289232D01*
X140652371Y-102284762D01*
X140643848Y-102228213D01*
X140640122Y-102220476D01*
X140638524Y-102212028D01*
X140611806Y-102161477D01*
X140609714Y-102157335D01*
X140584925Y-102105858D01*
X140579082Y-102099560D01*
X140575066Y-102091962D01*
X140534652Y-102051548D01*
X140531434Y-102048208D01*
X140513017Y-102028359D01*
X140492555Y-102006306D01*
X140486546Y-102002836D01*
X140480848Y-101997744D01*
X140378307Y-101895204D01*
X140358942Y-101870109D01*
X140337283Y-101833065D01*
X140041257Y-101326755D01*
X140041508Y-101326607D01*
X140029495Y-101304111D01*
X140028883Y-101302498D01*
X140028881Y-101302494D01*
X140026220Y-101295477D01*
X139936483Y-101165470D01*
X139930872Y-101160499D01*
X139823856Y-101065692D01*
X139823854Y-101065690D01*
X139818240Y-101060717D01*
X139811595Y-101057229D01*
X139811593Y-101057228D01*
X139685006Y-100990789D01*
X139685002Y-100990787D01*
X139678365Y-100987304D01*
X139671087Y-100985510D01*
X139671084Y-100985509D01*
X139532267Y-100951294D01*
X139532260Y-100951293D01*
X139524985Y-100949500D01*
X139367015Y-100949500D01*
X139359740Y-100951292D01*
X139359732Y-100951294D01*
X139220915Y-100985509D01*
X139220909Y-100985510D01*
X139213635Y-100987304D01*
X139207000Y-100990786D01*
X139206993Y-100990789D01*
X139080406Y-101057228D01*
X139080400Y-101057231D01*
X139073760Y-101060717D01*
X139068148Y-101065687D01*
X139068143Y-101065692D01*
X138961127Y-101160499D01*
X138961122Y-101160503D01*
X138955517Y-101165470D01*
X138951262Y-101171634D01*
X138951257Y-101171640D01*
X138870043Y-101289300D01*
X138870040Y-101289303D01*
X138865780Y-101295477D01*
X138863120Y-101302488D01*
X138863118Y-101302494D01*
X138812424Y-101436165D01*
X138809763Y-101443182D01*
X138808859Y-101450622D01*
X138808858Y-101450629D01*
X138792070Y-101588896D01*
X138790722Y-101600000D01*
X138791626Y-101607445D01*
X138808858Y-101749370D01*
X138808859Y-101749373D01*
X138809763Y-101756818D01*
X138812422Y-101763828D01*
X138812423Y-101763832D01*
X138862245Y-101895204D01*
X138865780Y-101904523D01*
X138870043Y-101910699D01*
X138930125Y-101997744D01*
X138955517Y-102034530D01*
X139073760Y-102139283D01*
X139080399Y-102142767D01*
X139080400Y-102142768D01*
X139148240Y-102178373D01*
X139163703Y-102188856D01*
X139164011Y-102188424D01*
X139168535Y-102191644D01*
X139172755Y-102195257D01*
X139434793Y-102348464D01*
X139696587Y-102501529D01*
X139741557Y-102546869D01*
X139758000Y-102608575D01*
X139758000Y-108223778D01*
X139745487Y-108278061D01*
X139710473Y-108321389D01*
X139660025Y-108345016D01*
X139604326Y-108344175D01*
X139562551Y-108333878D01*
X139495266Y-108317294D01*
X139495261Y-108317293D01*
X139487985Y-108315500D01*
X139330015Y-108315500D01*
X139322740Y-108317292D01*
X139322732Y-108317294D01*
X139183915Y-108351509D01*
X139183909Y-108351510D01*
X139176635Y-108353304D01*
X139170000Y-108356786D01*
X139169993Y-108356789D01*
X139043406Y-108423228D01*
X139043400Y-108423231D01*
X139036760Y-108426717D01*
X139031148Y-108431687D01*
X139031143Y-108431692D01*
X138924127Y-108526499D01*
X138924122Y-108526503D01*
X138918517Y-108531470D01*
X138914262Y-108537634D01*
X138914257Y-108537640D01*
X138833043Y-108655300D01*
X138833040Y-108655303D01*
X138828780Y-108661477D01*
X138826120Y-108668488D01*
X138826118Y-108668494D01*
X138775423Y-108802167D01*
X138772763Y-108809182D01*
X138771859Y-108816622D01*
X138771858Y-108816629D01*
X138757726Y-108933020D01*
X138753722Y-108966000D01*
X138754626Y-108973445D01*
X138771858Y-109115370D01*
X138771859Y-109115375D01*
X138772763Y-109122818D01*
X138785542Y-109156513D01*
X138787660Y-109162098D01*
X138793995Y-109185477D01*
X138794448Y-109188169D01*
X138794876Y-109193693D01*
X138796279Y-109199049D01*
X138796281Y-109199056D01*
X138914039Y-109648359D01*
X138954259Y-109801821D01*
X138954449Y-109802544D01*
X138958500Y-109833981D01*
X138958500Y-110892011D01*
X138954453Y-110923432D01*
X138953932Y-110925421D01*
X138929266Y-110973350D01*
X138886594Y-111006284D01*
X138833979Y-111018000D01*
X138790758Y-111018000D01*
X138782965Y-111017755D01*
X138781478Y-111017661D01*
X138777111Y-111017073D01*
X138772716Y-111017108D01*
X138772704Y-111017108D01*
X138708950Y-111017627D01*
X138708918Y-111017628D01*
X138704775Y-111017662D01*
X138703603Y-111017839D01*
X138699553Y-111018000D01*
X138576920Y-111018000D01*
X138519294Y-111003797D01*
X138474870Y-110964440D01*
X138453824Y-110908947D01*
X138460978Y-110850029D01*
X138470685Y-110824433D01*
X138505285Y-110733201D01*
X138524326Y-110576383D01*
X138505285Y-110419565D01*
X138449268Y-110271860D01*
X138441762Y-110260985D01*
X138422320Y-110215349D01*
X138422320Y-110165744D01*
X138441762Y-110120110D01*
X138502220Y-110032523D01*
X138558237Y-109884818D01*
X138577278Y-109728000D01*
X138558237Y-109571182D01*
X138502220Y-109423477D01*
X138412483Y-109293470D01*
X138406872Y-109288499D01*
X138299856Y-109193692D01*
X138299854Y-109193690D01*
X138294240Y-109188717D01*
X138287595Y-109185229D01*
X138287593Y-109185228D01*
X138161006Y-109118789D01*
X138161002Y-109118787D01*
X138154365Y-109115304D01*
X138147087Y-109113510D01*
X138147084Y-109113509D01*
X138008267Y-109079294D01*
X138008260Y-109079293D01*
X138000985Y-109077500D01*
X137843015Y-109077500D01*
X137835740Y-109079292D01*
X137835732Y-109079294D01*
X137696915Y-109113509D01*
X137696909Y-109113510D01*
X137689635Y-109115304D01*
X137683000Y-109118786D01*
X137682993Y-109118789D01*
X137556406Y-109185228D01*
X137556400Y-109185231D01*
X137549760Y-109188717D01*
X137544148Y-109193687D01*
X137544143Y-109193692D01*
X137437127Y-109288499D01*
X137437122Y-109288503D01*
X137431517Y-109293470D01*
X137427262Y-109299634D01*
X137427257Y-109299640D01*
X137346043Y-109417300D01*
X137346040Y-109417303D01*
X137341780Y-109423477D01*
X137339120Y-109430488D01*
X137339118Y-109430494D01*
X137303458Y-109524523D01*
X137285763Y-109571182D01*
X137284859Y-109578622D01*
X137284858Y-109578629D01*
X137275039Y-109659500D01*
X137266722Y-109728000D01*
X137267626Y-109735445D01*
X137284858Y-109877370D01*
X137284859Y-109877375D01*
X137285763Y-109884818D01*
X137288422Y-109891831D01*
X137288423Y-109891832D01*
X137306119Y-109938494D01*
X137341780Y-110032523D01*
X137346043Y-110038699D01*
X137346044Y-110038700D01*
X137349286Y-110043398D01*
X137368728Y-110089034D01*
X137368727Y-110138638D01*
X137349284Y-110184273D01*
X137293090Y-110265684D01*
X137293086Y-110265689D01*
X137288828Y-110271860D01*
X137286168Y-110278871D01*
X137286166Y-110278877D01*
X137235471Y-110412550D01*
X137232811Y-110419565D01*
X137231907Y-110427005D01*
X137231906Y-110427012D01*
X137218976Y-110533505D01*
X137213770Y-110576383D01*
X137214674Y-110583828D01*
X137231906Y-110725753D01*
X137231907Y-110725758D01*
X137232811Y-110733201D01*
X137267337Y-110824240D01*
X137277118Y-110850029D01*
X137284272Y-110908947D01*
X137263226Y-110964440D01*
X137218802Y-111003797D01*
X137161176Y-111018000D01*
X133924500Y-111018000D01*
X133862500Y-111001387D01*
X133817113Y-110956000D01*
X133800500Y-110894000D01*
X133800500Y-109203966D01*
X133809939Y-109156513D01*
X133836819Y-109116285D01*
X134055604Y-108897500D01*
X134712173Y-108240930D01*
X134757636Y-108212020D01*
X134811073Y-108205122D01*
X134862391Y-108221539D01*
X134901901Y-108258173D01*
X134967611Y-108353370D01*
X134979017Y-108369894D01*
X134984626Y-108374863D01*
X134984627Y-108374864D01*
X135043157Y-108426717D01*
X135097260Y-108474647D01*
X135237135Y-108548060D01*
X135390515Y-108585864D01*
X135540985Y-108585864D01*
X135548485Y-108585864D01*
X135701865Y-108548060D01*
X135841740Y-108474647D01*
X135959983Y-108369894D01*
X136049720Y-108239887D01*
X136105737Y-108092182D01*
X136124778Y-107935364D01*
X136105737Y-107778546D01*
X136049720Y-107630841D01*
X135959983Y-107500834D01*
X135943802Y-107486499D01*
X135847356Y-107401056D01*
X135847354Y-107401054D01*
X135841740Y-107396081D01*
X135835095Y-107392593D01*
X135835093Y-107392592D01*
X135708506Y-107326153D01*
X135708502Y-107326151D01*
X135701865Y-107322668D01*
X135694587Y-107320874D01*
X135694584Y-107320873D01*
X135555767Y-107286658D01*
X135555760Y-107286657D01*
X135548485Y-107284864D01*
X135390515Y-107284864D01*
X135383240Y-107286656D01*
X135383232Y-107286658D01*
X135244412Y-107320874D01*
X135244408Y-107320875D01*
X135237135Y-107322668D01*
X135235592Y-107323477D01*
X135179553Y-107330282D01*
X135124060Y-107309236D01*
X135084703Y-107264812D01*
X135070500Y-107207186D01*
X135070500Y-106680000D01*
X135996722Y-106680000D01*
X135997626Y-106687445D01*
X136014858Y-106829370D01*
X136014859Y-106829375D01*
X136015763Y-106836818D01*
X136071780Y-106984523D01*
X136161517Y-107114530D01*
X136279760Y-107219283D01*
X136419635Y-107292696D01*
X136573015Y-107330500D01*
X136723485Y-107330500D01*
X136730985Y-107330500D01*
X136884365Y-107292696D01*
X137024240Y-107219283D01*
X137142483Y-107114530D01*
X137232220Y-106984523D01*
X137288237Y-106836818D01*
X137307278Y-106680000D01*
X137288237Y-106523182D01*
X137232220Y-106375477D01*
X137142483Y-106245470D01*
X137024240Y-106140717D01*
X137017595Y-106137229D01*
X137017593Y-106137228D01*
X136891006Y-106070789D01*
X136891002Y-106070787D01*
X136884365Y-106067304D01*
X136877087Y-106065510D01*
X136877084Y-106065509D01*
X136738267Y-106031294D01*
X136738260Y-106031293D01*
X136730985Y-106029500D01*
X136573015Y-106029500D01*
X136565740Y-106031292D01*
X136565732Y-106031294D01*
X136426915Y-106065509D01*
X136426909Y-106065510D01*
X136419635Y-106067304D01*
X136413000Y-106070786D01*
X136412993Y-106070789D01*
X136286406Y-106137228D01*
X136286400Y-106137231D01*
X136279760Y-106140717D01*
X136274148Y-106145687D01*
X136274143Y-106145692D01*
X136167127Y-106240499D01*
X136167122Y-106240503D01*
X136161517Y-106245470D01*
X136157262Y-106251634D01*
X136157257Y-106251640D01*
X136076043Y-106369300D01*
X136076040Y-106369303D01*
X136071780Y-106375477D01*
X136069120Y-106382488D01*
X136069118Y-106382494D01*
X136018423Y-106516167D01*
X136015763Y-106523182D01*
X136014859Y-106530622D01*
X136014858Y-106530629D01*
X135998070Y-106668896D01*
X135996722Y-106680000D01*
X135070500Y-106680000D01*
X135070500Y-105251755D01*
X135087616Y-105188892D01*
X135134238Y-105143383D01*
X135197497Y-105127791D01*
X135259928Y-105146421D01*
X135304297Y-105194130D01*
X135307118Y-105199505D01*
X135309780Y-105206523D01*
X135399517Y-105336530D01*
X135405126Y-105341499D01*
X135405127Y-105341500D01*
X135470327Y-105399262D01*
X135517760Y-105441283D01*
X135657635Y-105514696D01*
X135811015Y-105552500D01*
X135961485Y-105552500D01*
X135968985Y-105552500D01*
X136122365Y-105514696D01*
X136262240Y-105441283D01*
X136380483Y-105336530D01*
X136470220Y-105206523D01*
X136526237Y-105058818D01*
X136545278Y-104902000D01*
X136526237Y-104745182D01*
X136470220Y-104597477D01*
X136380483Y-104467470D01*
X136381917Y-104466480D01*
X136359448Y-104423659D01*
X136359457Y-104364299D01*
X136381921Y-104321522D01*
X136380483Y-104320530D01*
X136407972Y-104280705D01*
X136470220Y-104190523D01*
X136526237Y-104042818D01*
X136545278Y-103886000D01*
X136526237Y-103729182D01*
X136470220Y-103581477D01*
X136396850Y-103475182D01*
X136384742Y-103457640D01*
X136384741Y-103457639D01*
X136380483Y-103451470D01*
X136374872Y-103446499D01*
X136267856Y-103351692D01*
X136267854Y-103351690D01*
X136262240Y-103346717D01*
X136255595Y-103343229D01*
X136255593Y-103343228D01*
X136129006Y-103276789D01*
X136129002Y-103276787D01*
X136122365Y-103273304D01*
X136115087Y-103271510D01*
X136115084Y-103271509D01*
X135976267Y-103237294D01*
X135976260Y-103237293D01*
X135968985Y-103235500D01*
X135811015Y-103235500D01*
X135803740Y-103237292D01*
X135803732Y-103237294D01*
X135664915Y-103271509D01*
X135664909Y-103271510D01*
X135657635Y-103273304D01*
X135651000Y-103276786D01*
X135650993Y-103276789D01*
X135524406Y-103343228D01*
X135524400Y-103343231D01*
X135517760Y-103346717D01*
X135512148Y-103351687D01*
X135512143Y-103351692D01*
X135405127Y-103446499D01*
X135405122Y-103446503D01*
X135399517Y-103451470D01*
X135395262Y-103457634D01*
X135395257Y-103457640D01*
X135314041Y-103575303D01*
X135314039Y-103575306D01*
X135309780Y-103581477D01*
X135307120Y-103588490D01*
X135304297Y-103593870D01*
X135259928Y-103641579D01*
X135197497Y-103660209D01*
X135134238Y-103644617D01*
X135087616Y-103599108D01*
X135070500Y-103536245D01*
X135070500Y-102467981D01*
X135074551Y-102436544D01*
X135234123Y-101827696D01*
X135234551Y-101822154D01*
X135235000Y-101819492D01*
X135241339Y-101796098D01*
X135256237Y-101756818D01*
X135275278Y-101600000D01*
X135256237Y-101443182D01*
X135200220Y-101295477D01*
X135154292Y-101228939D01*
X135132569Y-101165987D01*
X135146547Y-101100874D01*
X135192193Y-101052383D01*
X135256343Y-101034500D01*
X135652034Y-101034500D01*
X135699487Y-101043939D01*
X135739715Y-101070819D01*
X135973689Y-101304792D01*
X135993054Y-101329886D01*
X136310742Y-101873244D01*
X136310491Y-101873390D01*
X136322501Y-101895880D01*
X136323117Y-101897505D01*
X136323121Y-101897513D01*
X136325780Y-101904523D01*
X136330039Y-101910693D01*
X136390125Y-101997744D01*
X136415517Y-102034530D01*
X136421126Y-102039499D01*
X136421127Y-102039500D01*
X136496030Y-102105858D01*
X136533760Y-102139283D01*
X136673635Y-102212696D01*
X136827015Y-102250500D01*
X136977485Y-102250500D01*
X136984985Y-102250500D01*
X137138365Y-102212696D01*
X137278240Y-102139283D01*
X137396483Y-102034530D01*
X137486220Y-101904523D01*
X137542237Y-101756818D01*
X137561278Y-101600000D01*
X137542237Y-101443182D01*
X137486220Y-101295477D01*
X137396483Y-101165470D01*
X137390872Y-101160499D01*
X137283852Y-101065688D01*
X137283848Y-101065685D01*
X137278240Y-101060717D01*
X137228289Y-101034500D01*
X137203755Y-101021623D01*
X137188290Y-101011141D01*
X137187984Y-101011572D01*
X137183464Y-101008355D01*
X137179244Y-101004742D01*
X136635886Y-100687053D01*
X136610792Y-100667688D01*
X136231368Y-100288265D01*
X136222102Y-100277896D01*
X136205676Y-100257298D01*
X136205672Y-100257294D01*
X136199879Y-100250030D01*
X136152643Y-100217825D01*
X136148870Y-100215148D01*
X136142843Y-100210700D01*
X136102882Y-100181207D01*
X136094775Y-100178370D01*
X136087673Y-100173528D01*
X136078798Y-100170790D01*
X136078795Y-100170789D01*
X136033049Y-100156679D01*
X136028644Y-100155230D01*
X136028195Y-100155073D01*
X136005890Y-100147268D01*
X135983465Y-100139421D01*
X135983463Y-100139420D01*
X135974699Y-100136354D01*
X135966113Y-100136032D01*
X135957902Y-100133500D01*
X135948612Y-100133500D01*
X135900738Y-100133500D01*
X135896101Y-100133413D01*
X135848280Y-100131623D01*
X135848275Y-100131623D01*
X135838990Y-100131276D01*
X135832287Y-100133071D01*
X135824658Y-100133500D01*
X133890261Y-100133500D01*
X133876378Y-100132720D01*
X133850195Y-100129770D01*
X133840965Y-100128730D01*
X133831843Y-100130455D01*
X133831835Y-100130456D01*
X133784782Y-100139358D01*
X133780218Y-100140134D01*
X133732894Y-100147268D01*
X133732893Y-100147268D01*
X133723713Y-100148652D01*
X133715976Y-100152377D01*
X133707529Y-100153976D01*
X133699319Y-100158314D01*
X133699319Y-100158315D01*
X133656963Y-100180700D01*
X133652833Y-100182784D01*
X133601358Y-100207575D01*
X133595059Y-100213418D01*
X133587463Y-100217434D01*
X133580902Y-100223994D01*
X133580895Y-100224000D01*
X133547058Y-100257837D01*
X133543722Y-100261051D01*
X133508615Y-100293626D01*
X133508611Y-100293630D01*
X133501806Y-100299945D01*
X133498337Y-100305951D01*
X133493239Y-100311656D01*
X128736263Y-105068632D01*
X128725898Y-105077895D01*
X128705297Y-105094324D01*
X128705291Y-105094329D01*
X128698030Y-105100121D01*
X128692797Y-105107795D01*
X128692796Y-105107797D01*
X128665824Y-105147356D01*
X128663144Y-105151132D01*
X128634724Y-105189641D01*
X128634721Y-105189646D01*
X128629207Y-105197118D01*
X128626370Y-105205224D01*
X128621528Y-105212327D01*
X128618791Y-105221199D01*
X128618788Y-105221206D01*
X128604672Y-105266968D01*
X128603225Y-105271367D01*
X128587422Y-105316532D01*
X128584354Y-105325301D01*
X128584032Y-105333886D01*
X128581500Y-105342098D01*
X128581500Y-105351385D01*
X128581500Y-105399262D01*
X128581413Y-105403899D01*
X128579623Y-105451719D01*
X128579623Y-105451723D01*
X128579276Y-105461010D01*
X128581071Y-105467712D01*
X128581500Y-105475342D01*
X128581500Y-107336011D01*
X128577449Y-107367448D01*
X128419280Y-107970940D01*
X128419278Y-107970951D01*
X128417875Y-107976305D01*
X128417447Y-107981827D01*
X128416993Y-107984527D01*
X128410658Y-108007903D01*
X128398425Y-108040161D01*
X128398423Y-108040165D01*
X128395763Y-108047182D01*
X128394858Y-108054628D01*
X128394858Y-108054632D01*
X128378442Y-108189826D01*
X128376722Y-108204000D01*
X128377626Y-108211445D01*
X128394858Y-108353370D01*
X128394859Y-108353375D01*
X128395763Y-108360818D01*
X128398422Y-108367831D01*
X128398423Y-108367832D01*
X128438932Y-108474647D01*
X128451780Y-108508523D01*
X128456043Y-108514699D01*
X128531923Y-108624632D01*
X128541517Y-108638530D01*
X128547126Y-108643499D01*
X128547127Y-108643500D01*
X128618953Y-108707132D01*
X128659760Y-108743283D01*
X128799635Y-108816696D01*
X128953015Y-108854500D01*
X129103485Y-108854500D01*
X129110985Y-108854500D01*
X129264365Y-108816696D01*
X129404240Y-108743283D01*
X129522483Y-108638530D01*
X129612220Y-108508523D01*
X129631381Y-108458000D01*
X131170722Y-108458000D01*
X131171626Y-108465445D01*
X131188858Y-108607370D01*
X131188859Y-108607375D01*
X131189763Y-108614818D01*
X131192422Y-108621831D01*
X131192423Y-108621832D01*
X131242661Y-108754301D01*
X131245780Y-108762523D01*
X131250043Y-108768699D01*
X131322184Y-108873215D01*
X131335517Y-108892530D01*
X131341126Y-108897499D01*
X131341127Y-108897500D01*
X131406327Y-108955262D01*
X131453760Y-108997283D01*
X131593635Y-109070696D01*
X131747015Y-109108500D01*
X131897485Y-109108500D01*
X131904985Y-109108500D01*
X132058365Y-109070696D01*
X132198240Y-108997283D01*
X132316483Y-108892530D01*
X132406220Y-108762523D01*
X132462237Y-108614818D01*
X132481278Y-108458000D01*
X132462237Y-108301182D01*
X132406220Y-108153477D01*
X132348075Y-108069239D01*
X132320742Y-108029640D01*
X132320741Y-108029639D01*
X132316483Y-108023470D01*
X132298910Y-108007902D01*
X132203856Y-107923692D01*
X132203854Y-107923690D01*
X132198240Y-107918717D01*
X132191595Y-107915229D01*
X132191593Y-107915228D01*
X132065006Y-107848789D01*
X132065002Y-107848787D01*
X132058365Y-107845304D01*
X132051087Y-107843510D01*
X132051084Y-107843509D01*
X131912267Y-107809294D01*
X131912260Y-107809293D01*
X131904985Y-107807500D01*
X131747015Y-107807500D01*
X131739740Y-107809292D01*
X131739732Y-107809294D01*
X131600915Y-107843509D01*
X131600909Y-107843510D01*
X131593635Y-107845304D01*
X131587000Y-107848786D01*
X131586993Y-107848789D01*
X131460406Y-107915228D01*
X131460400Y-107915231D01*
X131453760Y-107918717D01*
X131448148Y-107923687D01*
X131448143Y-107923692D01*
X131341127Y-108018499D01*
X131341122Y-108018503D01*
X131335517Y-108023470D01*
X131331262Y-108029634D01*
X131331257Y-108029640D01*
X131250043Y-108147300D01*
X131250040Y-108147303D01*
X131245780Y-108153477D01*
X131243120Y-108160488D01*
X131243118Y-108160494D01*
X131194756Y-108288016D01*
X131189763Y-108301182D01*
X131188859Y-108308622D01*
X131188858Y-108308629D01*
X131180816Y-108374864D01*
X131170722Y-108458000D01*
X129631381Y-108458000D01*
X129668237Y-108360818D01*
X129687278Y-108204000D01*
X129668237Y-108047182D01*
X129653335Y-108007889D01*
X129647001Y-107984513D01*
X129646552Y-107981848D01*
X129646123Y-107976303D01*
X129486550Y-107367455D01*
X129482500Y-107336019D01*
X129482500Y-105647966D01*
X129491939Y-105600513D01*
X129518819Y-105560285D01*
X130526859Y-104552245D01*
X133787819Y-101291283D01*
X133845822Y-101258569D01*
X133912386Y-101260580D01*
X133968311Y-101296737D01*
X133997466Y-101356611D01*
X133991442Y-101422932D01*
X133986423Y-101436165D01*
X133986423Y-101436167D01*
X133983763Y-101443182D01*
X133982859Y-101450622D01*
X133982858Y-101450629D01*
X133966070Y-101588896D01*
X133964722Y-101600000D01*
X133965626Y-101607445D01*
X133982858Y-101749370D01*
X133982859Y-101749373D01*
X133983763Y-101756818D01*
X133998660Y-101796098D01*
X134004995Y-101819477D01*
X134005448Y-101822169D01*
X134005876Y-101827693D01*
X134007279Y-101833049D01*
X134007281Y-101833056D01*
X134130660Y-102303807D01*
X134165167Y-102435470D01*
X134165449Y-102436544D01*
X134169500Y-102467981D01*
X134169500Y-102990951D01*
X134151617Y-103055100D01*
X134103127Y-103100747D01*
X134038015Y-103114725D01*
X133977520Y-103093851D01*
X133976240Y-103092717D01*
X133969595Y-103089229D01*
X133969593Y-103089228D01*
X133843006Y-103022789D01*
X133843002Y-103022787D01*
X133836365Y-103019304D01*
X133829087Y-103017510D01*
X133829084Y-103017509D01*
X133690267Y-102983294D01*
X133690260Y-102983293D01*
X133682985Y-102981500D01*
X133525015Y-102981500D01*
X133517740Y-102983292D01*
X133517732Y-102983294D01*
X133378915Y-103017509D01*
X133378909Y-103017510D01*
X133371635Y-103019304D01*
X133365000Y-103022786D01*
X133364993Y-103022789D01*
X133238406Y-103089228D01*
X133238400Y-103089231D01*
X133231760Y-103092717D01*
X133226148Y-103097687D01*
X133226143Y-103097692D01*
X133119127Y-103192499D01*
X133119122Y-103192503D01*
X133113517Y-103197470D01*
X133109262Y-103203634D01*
X133109257Y-103203640D01*
X133028043Y-103321300D01*
X133028040Y-103321303D01*
X133023780Y-103327477D01*
X133021120Y-103334488D01*
X133021118Y-103334494D01*
X132971150Y-103466250D01*
X132967763Y-103475182D01*
X132966859Y-103482622D01*
X132966858Y-103482629D01*
X132953352Y-103593870D01*
X132948722Y-103632000D01*
X132949626Y-103639445D01*
X132966858Y-103781370D01*
X132966859Y-103781375D01*
X132967763Y-103788818D01*
X132970422Y-103795831D01*
X132970423Y-103795832D01*
X133015952Y-103915884D01*
X133023780Y-103936523D01*
X133028043Y-103942699D01*
X133097149Y-104042818D01*
X133113517Y-104066530D01*
X133119126Y-104071499D01*
X133119127Y-104071500D01*
X133182206Y-104127383D01*
X133231760Y-104171283D01*
X133371635Y-104244696D01*
X133525015Y-104282500D01*
X133675485Y-104282500D01*
X133682985Y-104282500D01*
X133836365Y-104244696D01*
X133976240Y-104171283D01*
X133977520Y-104170148D01*
X134038015Y-104149275D01*
X134103127Y-104163253D01*
X134151617Y-104208900D01*
X134169500Y-104273049D01*
X134169500Y-107458035D01*
X134160061Y-107505488D01*
X134133181Y-107545716D01*
X133054263Y-108624632D01*
X133043898Y-108633895D01*
X133023297Y-108650324D01*
X133023291Y-108650329D01*
X133016030Y-108656121D01*
X133010797Y-108663795D01*
X133010796Y-108663797D01*
X132983824Y-108703356D01*
X132981144Y-108707132D01*
X132952724Y-108745641D01*
X132952721Y-108745646D01*
X132947207Y-108753118D01*
X132944370Y-108761224D01*
X132939528Y-108768327D01*
X132936791Y-108777199D01*
X132936788Y-108777206D01*
X132922672Y-108822968D01*
X132921225Y-108827367D01*
X132905422Y-108872532D01*
X132902354Y-108881301D01*
X132902032Y-108889886D01*
X132899500Y-108898098D01*
X132899500Y-108907385D01*
X132899500Y-108955262D01*
X132899413Y-108959899D01*
X132897623Y-109007719D01*
X132897623Y-109007723D01*
X132897276Y-109017010D01*
X132899071Y-109023712D01*
X132899500Y-109031342D01*
X132899500Y-110845433D01*
X132883162Y-110906953D01*
X132873746Y-110923432D01*
X132847050Y-110970150D01*
X132809471Y-111010923D01*
X132757878Y-111031242D01*
X132754400Y-111031766D01*
X132754393Y-111031768D01*
X132745213Y-111033152D01*
X132736846Y-111037180D01*
X132736843Y-111037182D01*
X132728352Y-111041271D01*
X132708590Y-111048785D01*
X132699534Y-111051369D01*
X132699525Y-111051372D01*
X132690596Y-111053921D01*
X132682815Y-111058986D01*
X132682808Y-111058990D01*
X132664628Y-111070827D01*
X132650777Y-111078629D01*
X132631227Y-111088044D01*
X132631223Y-111088046D01*
X132622858Y-111092075D01*
X132616053Y-111098388D01*
X132616048Y-111098392D01*
X132609143Y-111104799D01*
X132592472Y-111117805D01*
X132584577Y-111122945D01*
X132584566Y-111122953D01*
X132576788Y-111128019D01*
X132570845Y-111135153D01*
X132570841Y-111135158D01*
X132556952Y-111151835D01*
X132546015Y-111163374D01*
X132530114Y-111178127D01*
X132530111Y-111178130D01*
X132523306Y-111184445D01*
X132518665Y-111192482D01*
X132518660Y-111192489D01*
X132513947Y-111200653D01*
X132501853Y-111217993D01*
X132495825Y-111225231D01*
X132495822Y-111225234D01*
X132489879Y-111232372D01*
X132486302Y-111240944D01*
X132486299Y-111240950D01*
X132477948Y-111260967D01*
X132470899Y-111275215D01*
X132455404Y-111302055D01*
X132453337Y-111311108D01*
X132453336Y-111311112D01*
X132451239Y-111320298D01*
X132444789Y-111340444D01*
X132252378Y-111801633D01*
X132236513Y-111829115D01*
X132144432Y-111949775D01*
X132106783Y-111982548D01*
X132059262Y-111997821D01*
X132009569Y-111993120D01*
X131951498Y-111975348D01*
X131871986Y-111951014D01*
X131842554Y-111937594D01*
X131458084Y-111697301D01*
X131417942Y-111656718D01*
X131400233Y-111602453D01*
X131408710Y-111546003D01*
X131441577Y-111499333D01*
X131442455Y-111498555D01*
X131516983Y-111432530D01*
X131606720Y-111302523D01*
X131662737Y-111154818D01*
X131681778Y-110998000D01*
X131662737Y-110841182D01*
X131606720Y-110693477D01*
X131516983Y-110563470D01*
X131398740Y-110458717D01*
X131392095Y-110455229D01*
X131392093Y-110455228D01*
X131265506Y-110388789D01*
X131265502Y-110388787D01*
X131258865Y-110385304D01*
X131251587Y-110383510D01*
X131251584Y-110383509D01*
X131112767Y-110349294D01*
X131112760Y-110349293D01*
X131105485Y-110347500D01*
X131080374Y-110347500D01*
X131018374Y-110330887D01*
X130972987Y-110285500D01*
X130959646Y-110235712D01*
X130957278Y-110236000D01*
X130938237Y-110079182D01*
X130882220Y-109931477D01*
X130813911Y-109832514D01*
X130796742Y-109807640D01*
X130796741Y-109807639D01*
X130792483Y-109801470D01*
X130786872Y-109796499D01*
X130679856Y-109701692D01*
X130679854Y-109701690D01*
X130674240Y-109696717D01*
X130667595Y-109693229D01*
X130667593Y-109693228D01*
X130541006Y-109626789D01*
X130541002Y-109626787D01*
X130534365Y-109623304D01*
X130527087Y-109621510D01*
X130527084Y-109621509D01*
X130388267Y-109587294D01*
X130388260Y-109587293D01*
X130380985Y-109585500D01*
X130223015Y-109585500D01*
X130215740Y-109587292D01*
X130215732Y-109587294D01*
X130076915Y-109621509D01*
X130076909Y-109621510D01*
X130069635Y-109623304D01*
X130063000Y-109626786D01*
X130062993Y-109626789D01*
X129936406Y-109693228D01*
X129936400Y-109693231D01*
X129929760Y-109696717D01*
X129924148Y-109701687D01*
X129924143Y-109701692D01*
X129817127Y-109796499D01*
X129817122Y-109796503D01*
X129811517Y-109801470D01*
X129807262Y-109807634D01*
X129807257Y-109807640D01*
X129726043Y-109925300D01*
X129726040Y-109925303D01*
X129721780Y-109931477D01*
X129719120Y-109938488D01*
X129719118Y-109938494D01*
X129679334Y-110043398D01*
X129665763Y-110079182D01*
X129664859Y-110086622D01*
X129664858Y-110086629D01*
X129654750Y-110169880D01*
X129646722Y-110236000D01*
X129647626Y-110243445D01*
X129664858Y-110385370D01*
X129664859Y-110385375D01*
X129665763Y-110392818D01*
X129721780Y-110540523D01*
X129726043Y-110546699D01*
X129804248Y-110660000D01*
X129811517Y-110670530D01*
X129817126Y-110675499D01*
X129817127Y-110675500D01*
X129873851Y-110725753D01*
X129929760Y-110775283D01*
X129936402Y-110778769D01*
X129936405Y-110778771D01*
X130018207Y-110821704D01*
X130065915Y-110866073D01*
X130084545Y-110928504D01*
X130068953Y-110991762D01*
X130023444Y-111038384D01*
X129960581Y-111055500D01*
X128375983Y-111055500D01*
X128344546Y-111051449D01*
X128306330Y-111041433D01*
X128306329Y-111041433D01*
X127735693Y-110891876D01*
X127736021Y-110890624D01*
X127734493Y-110889977D01*
X127734057Y-110891749D01*
X127586985Y-110855500D01*
X127429015Y-110855500D01*
X127421740Y-110857292D01*
X127421732Y-110857294D01*
X127282915Y-110891509D01*
X127282909Y-110891510D01*
X127275635Y-110893304D01*
X127269000Y-110896786D01*
X127268993Y-110896789D01*
X127142406Y-110963228D01*
X127142400Y-110963231D01*
X127135760Y-110966717D01*
X127130148Y-110971687D01*
X127130143Y-110971692D01*
X127023127Y-111066499D01*
X127023122Y-111066503D01*
X127017517Y-111071470D01*
X127013262Y-111077634D01*
X127013257Y-111077640D01*
X126932043Y-111195300D01*
X126932040Y-111195303D01*
X126927780Y-111201477D01*
X126925120Y-111208488D01*
X126925118Y-111208494D01*
X126874423Y-111342167D01*
X126871763Y-111349182D01*
X126870859Y-111356622D01*
X126870858Y-111356629D01*
X126861039Y-111437500D01*
X126852722Y-111506000D01*
X126853626Y-111513445D01*
X126870858Y-111655370D01*
X126870859Y-111655375D01*
X126871763Y-111662818D01*
X126874422Y-111669828D01*
X126886660Y-111702098D01*
X126892995Y-111725477D01*
X126893448Y-111728169D01*
X126893876Y-111733693D01*
X126895279Y-111739049D01*
X126895281Y-111739056D01*
X127053449Y-112342544D01*
X127057500Y-112373981D01*
X127057500Y-115210011D01*
X127053449Y-115241448D01*
X126895280Y-115844940D01*
X126895278Y-115844951D01*
X126893875Y-115850305D01*
X126893447Y-115855827D01*
X126892993Y-115858527D01*
X126886658Y-115881903D01*
X126874425Y-115914161D01*
X126874423Y-115914165D01*
X126871763Y-115921182D01*
X126852722Y-116078000D01*
X125115278Y-116078000D01*
X125096237Y-115921182D01*
X125081335Y-115881889D01*
X125075002Y-115858518D01*
X125074552Y-115855847D01*
X125074123Y-115850303D01*
X125057170Y-115785624D01*
X125053450Y-115745132D01*
X125063028Y-115705615D01*
X125475754Y-114736227D01*
X125477090Y-114731413D01*
X125477822Y-114729506D01*
X125478196Y-114728439D01*
X125478227Y-114728450D01*
X125485575Y-114709304D01*
X125490582Y-114699250D01*
X125546397Y-114503083D01*
X125565215Y-114300000D01*
X125546397Y-114096917D01*
X125490582Y-113900750D01*
X125399673Y-113718179D01*
X125342671Y-113642696D01*
X125280221Y-113559998D01*
X125280217Y-113559994D01*
X125276764Y-113555421D01*
X125272527Y-113551558D01*
X125272523Y-113551554D01*
X125130275Y-113421879D01*
X125130276Y-113421879D01*
X125126041Y-113418019D01*
X125121171Y-113415004D01*
X125121169Y-113415002D01*
X124991190Y-113334523D01*
X124952637Y-113310652D01*
X124883840Y-113284000D01*
X124767803Y-113239047D01*
X124767798Y-113239045D01*
X124762456Y-113236976D01*
X124756818Y-113235922D01*
X124567605Y-113200552D01*
X124567602Y-113200551D01*
X124561976Y-113199500D01*
X124358024Y-113199500D01*
X124352398Y-113200551D01*
X124352394Y-113200552D01*
X124163181Y-113235922D01*
X124163178Y-113235922D01*
X124157544Y-113236976D01*
X124152203Y-113239044D01*
X124152196Y-113239047D01*
X123972705Y-113308582D01*
X123972700Y-113308584D01*
X123967363Y-113310652D01*
X123962491Y-113313668D01*
X123962488Y-113313670D01*
X123798830Y-113415002D01*
X123798822Y-113415007D01*
X123793959Y-113418019D01*
X123789728Y-113421875D01*
X123789724Y-113421879D01*
X123647476Y-113551554D01*
X123647466Y-113551564D01*
X123643236Y-113555421D01*
X123639787Y-113559987D01*
X123639778Y-113559998D01*
X123523779Y-113713607D01*
X123523776Y-113713611D01*
X123520327Y-113718179D01*
X123517774Y-113723304D01*
X123517772Y-113723309D01*
X123433172Y-113893210D01*
X123429418Y-113900750D01*
X123427850Y-113906258D01*
X123427847Y-113906268D01*
X123375173Y-114091395D01*
X123375170Y-114091406D01*
X123373603Y-114096917D01*
X123354785Y-114300000D01*
X121920500Y-114300000D01*
X121920500Y-112628528D01*
X123360000Y-112628528D01*
X123361189Y-112640604D01*
X123372122Y-112695566D01*
X123381289Y-112717699D01*
X123422975Y-112780086D01*
X123439913Y-112797024D01*
X123502300Y-112838710D01*
X123524433Y-112847877D01*
X123579395Y-112858810D01*
X123591472Y-112860000D01*
X124318674Y-112860000D01*
X124331549Y-112856549D01*
X124335000Y-112843674D01*
X124585000Y-112843674D01*
X124588450Y-112856549D01*
X124601326Y-112860000D01*
X125328528Y-112860000D01*
X125340604Y-112858810D01*
X125395566Y-112847877D01*
X125417699Y-112838710D01*
X125480086Y-112797024D01*
X125497024Y-112780086D01*
X125538710Y-112717699D01*
X125547877Y-112695566D01*
X125558810Y-112640604D01*
X125560000Y-112628528D01*
X125560000Y-111901326D01*
X125556549Y-111888450D01*
X125543674Y-111885000D01*
X124601326Y-111885000D01*
X124588450Y-111888450D01*
X124585000Y-111901326D01*
X124585000Y-112843674D01*
X124335000Y-112843674D01*
X124335000Y-111901326D01*
X124331549Y-111888450D01*
X124318674Y-111885000D01*
X123376326Y-111885000D01*
X123363450Y-111888450D01*
X123360000Y-111901326D01*
X123360000Y-112628528D01*
X121920500Y-112628528D01*
X121920500Y-111618674D01*
X123360000Y-111618674D01*
X123363450Y-111631549D01*
X123376326Y-111635000D01*
X124318674Y-111635000D01*
X124331549Y-111631549D01*
X124335000Y-111618674D01*
X124585000Y-111618674D01*
X124588450Y-111631549D01*
X124601326Y-111635000D01*
X125543674Y-111635000D01*
X125556549Y-111631549D01*
X125560000Y-111618674D01*
X125560000Y-110891472D01*
X125558810Y-110879395D01*
X125547877Y-110824433D01*
X125538710Y-110802300D01*
X125497024Y-110739913D01*
X125480086Y-110722975D01*
X125417699Y-110681289D01*
X125395566Y-110672122D01*
X125340604Y-110661189D01*
X125328528Y-110660000D01*
X124601326Y-110660000D01*
X124588450Y-110663450D01*
X124585000Y-110676326D01*
X124585000Y-111618674D01*
X124335000Y-111618674D01*
X124335000Y-110676326D01*
X124331549Y-110663450D01*
X124318674Y-110660000D01*
X123591472Y-110660000D01*
X123579395Y-110661189D01*
X123524433Y-110672122D01*
X123502300Y-110681289D01*
X123439913Y-110722975D01*
X123422975Y-110739913D01*
X123381289Y-110802300D01*
X123372122Y-110824433D01*
X123361189Y-110879395D01*
X123360000Y-110891472D01*
X123360000Y-111618674D01*
X121920500Y-111618674D01*
X121920500Y-109220000D01*
X123354785Y-109220000D01*
X123355314Y-109225709D01*
X123362164Y-109299640D01*
X123373603Y-109423083D01*
X123375171Y-109428594D01*
X123375173Y-109428604D01*
X123427847Y-109613731D01*
X123427849Y-109613737D01*
X123429418Y-109619250D01*
X123446985Y-109654530D01*
X123500882Y-109762771D01*
X123520327Y-109801821D01*
X123523779Y-109806392D01*
X123639778Y-109960001D01*
X123639783Y-109960006D01*
X123643236Y-109964579D01*
X123647472Y-109968440D01*
X123647476Y-109968445D01*
X123717767Y-110032523D01*
X123793959Y-110101981D01*
X123967363Y-110209348D01*
X124157544Y-110283024D01*
X124358024Y-110320500D01*
X124556247Y-110320500D01*
X124561976Y-110320500D01*
X124762456Y-110283024D01*
X124848845Y-110249556D01*
X124852197Y-110248402D01*
X124853320Y-110248148D01*
X124919994Y-110222790D01*
X124923413Y-110220905D01*
X124929806Y-110218192D01*
X124947287Y-110211421D01*
X124947292Y-110211418D01*
X124952637Y-110209348D01*
X125016383Y-110169877D01*
X125021814Y-110166703D01*
X125628510Y-109832512D01*
X125673605Y-109818004D01*
X125720854Y-109821466D01*
X125724412Y-109822432D01*
X125729999Y-109824545D01*
X125733228Y-109825096D01*
X125739622Y-109827173D01*
X125744992Y-109829209D01*
X125751635Y-109832696D01*
X125905015Y-109870500D01*
X126055485Y-109870500D01*
X126062985Y-109870500D01*
X126216365Y-109832696D01*
X126356240Y-109759283D01*
X126474483Y-109654530D01*
X126564220Y-109524523D01*
X126620237Y-109376818D01*
X126639278Y-109220000D01*
X126620237Y-109063182D01*
X126564220Y-108915477D01*
X126495990Y-108816629D01*
X126478742Y-108791640D01*
X126478741Y-108791639D01*
X126474483Y-108785470D01*
X126455170Y-108768360D01*
X126361856Y-108685692D01*
X126361854Y-108685690D01*
X126356240Y-108680717D01*
X126349595Y-108677229D01*
X126349593Y-108677228D01*
X126223006Y-108610789D01*
X126223002Y-108610787D01*
X126216365Y-108607304D01*
X126209087Y-108605510D01*
X126209084Y-108605509D01*
X126070267Y-108571294D01*
X126070260Y-108571293D01*
X126062985Y-108569500D01*
X125905015Y-108569500D01*
X125897740Y-108571292D01*
X125897732Y-108571294D01*
X125758915Y-108605509D01*
X125758909Y-108605510D01*
X125751635Y-108607304D01*
X125744999Y-108610785D01*
X125739620Y-108612826D01*
X125733220Y-108614903D01*
X125730000Y-108615454D01*
X125724435Y-108617557D01*
X125720861Y-108618529D01*
X125673609Y-108621993D01*
X125628507Y-108607483D01*
X125021816Y-108273296D01*
X125016367Y-108270111D01*
X124957514Y-108233671D01*
X124957508Y-108233668D01*
X124952637Y-108230652D01*
X124947298Y-108228583D01*
X124947291Y-108228580D01*
X124929814Y-108221810D01*
X124923413Y-108219092D01*
X124919994Y-108217209D01*
X124915948Y-108215670D01*
X124915939Y-108215666D01*
X124856936Y-108193226D01*
X124856928Y-108193223D01*
X124853320Y-108191851D01*
X124852205Y-108191597D01*
X124848819Y-108190432D01*
X124767807Y-108159048D01*
X124767797Y-108159045D01*
X124762456Y-108156976D01*
X124710694Y-108147300D01*
X124567605Y-108120552D01*
X124567602Y-108120551D01*
X124561976Y-108119500D01*
X124358024Y-108119500D01*
X124352398Y-108120551D01*
X124352394Y-108120552D01*
X124163181Y-108155922D01*
X124163178Y-108155922D01*
X124157544Y-108156976D01*
X124152203Y-108159044D01*
X124152196Y-108159047D01*
X123972705Y-108228582D01*
X123972700Y-108228584D01*
X123967363Y-108230652D01*
X123962491Y-108233668D01*
X123962488Y-108233670D01*
X123798830Y-108335002D01*
X123798822Y-108335007D01*
X123793959Y-108338019D01*
X123789728Y-108341875D01*
X123789724Y-108341879D01*
X123647476Y-108471554D01*
X123647466Y-108471564D01*
X123643236Y-108475421D01*
X123639787Y-108479987D01*
X123639778Y-108479998D01*
X123523779Y-108633607D01*
X123523776Y-108633611D01*
X123520327Y-108638179D01*
X123517774Y-108643304D01*
X123517772Y-108643309D01*
X123445083Y-108789290D01*
X123429418Y-108820750D01*
X123427850Y-108826258D01*
X123427847Y-108826268D01*
X123375173Y-109011395D01*
X123375172Y-109011402D01*
X123373603Y-109016917D01*
X123373073Y-109022627D01*
X123373073Y-109022632D01*
X123364486Y-109115304D01*
X123354785Y-109220000D01*
X121920500Y-109220000D01*
X121920500Y-107548528D01*
X123360000Y-107548528D01*
X123361189Y-107560604D01*
X123372122Y-107615566D01*
X123381289Y-107637699D01*
X123422975Y-107700086D01*
X123439913Y-107717024D01*
X123502300Y-107758710D01*
X123524433Y-107767877D01*
X123579395Y-107778810D01*
X123591472Y-107780000D01*
X124318674Y-107780000D01*
X124331549Y-107776549D01*
X124335000Y-107763674D01*
X124585000Y-107763674D01*
X124588450Y-107776549D01*
X124601326Y-107780000D01*
X125328528Y-107780000D01*
X125340604Y-107778810D01*
X125395566Y-107767877D01*
X125417699Y-107758710D01*
X125480086Y-107717024D01*
X125497024Y-107700086D01*
X125538710Y-107637699D01*
X125547877Y-107615566D01*
X125558810Y-107560604D01*
X125560000Y-107548528D01*
X125560000Y-106821326D01*
X125556549Y-106808450D01*
X125543674Y-106805000D01*
X124601326Y-106805000D01*
X124588450Y-106808450D01*
X124585000Y-106821326D01*
X124585000Y-107763674D01*
X124335000Y-107763674D01*
X124335000Y-106821326D01*
X124331549Y-106808450D01*
X124318674Y-106805000D01*
X123376326Y-106805000D01*
X123363450Y-106808450D01*
X123360000Y-106821326D01*
X123360000Y-107548528D01*
X121920500Y-107548528D01*
X121920500Y-106538674D01*
X123360000Y-106538674D01*
X123363450Y-106551549D01*
X123376326Y-106555000D01*
X124318674Y-106555000D01*
X124331549Y-106551549D01*
X124335000Y-106538674D01*
X124585000Y-106538674D01*
X124588450Y-106551549D01*
X124601326Y-106555000D01*
X125543674Y-106555000D01*
X125556549Y-106551549D01*
X125560000Y-106538674D01*
X125560000Y-105811472D01*
X125558810Y-105799395D01*
X125547877Y-105744433D01*
X125538710Y-105722300D01*
X125497024Y-105659913D01*
X125480086Y-105642975D01*
X125417699Y-105601289D01*
X125395566Y-105592122D01*
X125340604Y-105581189D01*
X125328528Y-105580000D01*
X124601326Y-105580000D01*
X124588450Y-105583450D01*
X124585000Y-105596326D01*
X124585000Y-106538674D01*
X124335000Y-106538674D01*
X124335000Y-105596326D01*
X124331549Y-105583450D01*
X124318674Y-105580000D01*
X123591472Y-105580000D01*
X123579395Y-105581189D01*
X123524433Y-105592122D01*
X123502300Y-105601289D01*
X123439913Y-105642975D01*
X123422975Y-105659913D01*
X123381289Y-105722300D01*
X123372122Y-105744433D01*
X123361189Y-105799395D01*
X123360000Y-105811472D01*
X123360000Y-106538674D01*
X121920500Y-106538674D01*
X121920500Y-103764811D01*
X127372644Y-103764811D01*
X127380456Y-103776099D01*
X127425115Y-103812749D01*
X127435206Y-103819492D01*
X127606865Y-103911245D01*
X127618065Y-103915884D01*
X127804333Y-103972388D01*
X127816228Y-103974754D01*
X128009939Y-103993833D01*
X128022061Y-103993833D01*
X128215771Y-103974754D01*
X128227666Y-103972388D01*
X128413934Y-103915884D01*
X128425134Y-103911245D01*
X128596795Y-103819491D01*
X128606883Y-103812749D01*
X128651541Y-103776100D01*
X128659354Y-103764810D01*
X128652687Y-103752813D01*
X128027542Y-103127668D01*
X128015999Y-103121004D01*
X128004457Y-103127668D01*
X127379312Y-103752812D01*
X127372644Y-103764811D01*
X121920500Y-103764811D01*
X121920500Y-102945410D01*
X126961516Y-102945410D01*
X126980594Y-103139120D01*
X126982960Y-103151015D01*
X127039464Y-103337283D01*
X127044103Y-103348483D01*
X127135856Y-103520142D01*
X127142599Y-103530234D01*
X127179248Y-103574891D01*
X127190536Y-103582703D01*
X127202535Y-103576035D01*
X127827680Y-102950891D01*
X127834344Y-102939349D01*
X128197655Y-102939349D01*
X128204319Y-102950891D01*
X128829464Y-103576036D01*
X128841461Y-103582703D01*
X128852751Y-103574890D01*
X128889400Y-103530232D01*
X128896142Y-103520144D01*
X128987896Y-103348483D01*
X128992535Y-103337283D01*
X129049039Y-103151015D01*
X129051405Y-103139120D01*
X129070484Y-102945410D01*
X129070484Y-102933288D01*
X129051405Y-102739577D01*
X129049039Y-102727682D01*
X128992535Y-102541414D01*
X128987896Y-102530214D01*
X128896143Y-102358555D01*
X128889400Y-102348464D01*
X128852750Y-102303805D01*
X128841462Y-102295993D01*
X128829463Y-102302661D01*
X128204319Y-102927806D01*
X128197655Y-102939349D01*
X127834344Y-102939349D01*
X127827680Y-102927806D01*
X127202535Y-102302661D01*
X127190536Y-102295993D01*
X127179247Y-102303807D01*
X127142599Y-102348464D01*
X127135858Y-102358552D01*
X127044103Y-102530214D01*
X127039464Y-102541414D01*
X126982960Y-102727682D01*
X126980594Y-102739577D01*
X126961516Y-102933288D01*
X126961516Y-102945410D01*
X121920500Y-102945410D01*
X121920500Y-102113885D01*
X127372644Y-102113885D01*
X127379312Y-102125884D01*
X128004457Y-102751029D01*
X128016000Y-102757693D01*
X128027542Y-102751029D01*
X128652686Y-102125884D01*
X128659354Y-102113885D01*
X128651542Y-102102597D01*
X128606885Y-102065948D01*
X128596793Y-102059205D01*
X128425134Y-101967452D01*
X128413934Y-101962813D01*
X128227666Y-101906309D01*
X128215771Y-101903943D01*
X128022061Y-101884865D01*
X128009939Y-101884865D01*
X127816228Y-101903943D01*
X127804333Y-101906309D01*
X127618065Y-101962813D01*
X127606865Y-101967452D01*
X127435203Y-102059207D01*
X127425115Y-102065948D01*
X127380458Y-102102596D01*
X127372644Y-102113885D01*
X121920500Y-102113885D01*
X121920500Y-100264023D01*
X126965500Y-100264023D01*
X126966688Y-100269998D01*
X126966689Y-100270002D01*
X126977650Y-100325108D01*
X126977651Y-100325111D01*
X126980034Y-100337089D01*
X127035399Y-100419950D01*
X127118260Y-100475315D01*
X127191326Y-100489849D01*
X128834579Y-100489849D01*
X128840674Y-100489849D01*
X128913740Y-100475315D01*
X128996601Y-100419950D01*
X129051966Y-100337089D01*
X129066500Y-100264023D01*
X129066500Y-98614675D01*
X129051966Y-98541609D01*
X128996601Y-98458748D01*
X128913740Y-98403383D01*
X128901762Y-98401000D01*
X128901759Y-98400999D01*
X128846653Y-98390038D01*
X128846649Y-98390037D01*
X128840674Y-98388849D01*
X127191326Y-98388849D01*
X127185351Y-98390037D01*
X127185346Y-98390038D01*
X127130240Y-98400999D01*
X127130235Y-98401000D01*
X127118260Y-98403383D01*
X127108105Y-98410168D01*
X127108103Y-98410169D01*
X127045551Y-98451964D01*
X127045548Y-98451966D01*
X127035399Y-98458748D01*
X127028617Y-98468897D01*
X127028615Y-98468900D01*
X126986820Y-98531452D01*
X126986819Y-98531454D01*
X126980034Y-98541609D01*
X126977651Y-98553584D01*
X126977650Y-98553589D01*
X126966689Y-98608695D01*
X126966688Y-98608700D01*
X126965500Y-98614675D01*
X126965500Y-100264023D01*
X121920500Y-100264023D01*
X121920500Y-96644500D01*
X121937113Y-96582500D01*
X121982500Y-96537113D01*
X122044500Y-96520500D01*
X147195500Y-96520500D01*
X147257500Y-96537113D01*
G37*
%TD.AperFunction*%
%TD*%
%TA.AperFunction,Conductor*%
%TO.N,GNDA*%
G36*
X132474790Y-112402689D02*
G01*
X132480169Y-112406170D01*
X132482908Y-112411962D01*
X132482186Y-112418328D01*
X132335743Y-112774349D01*
X132333176Y-112778191D01*
X132059742Y-113050299D01*
X132054359Y-113053348D01*
X132048174Y-113053227D01*
X132042915Y-113049967D01*
X131562061Y-112532142D01*
X131558988Y-112525290D01*
X131560712Y-112517981D01*
X131763207Y-112193989D01*
X131769032Y-112189233D01*
X131776549Y-112189005D01*
X132474790Y-112402689D01*
G37*
%TD.AperFunction*%
%TD*%
%TA.AperFunction,Conductor*%
%TO.N,GNDA*%
G36*
X134624497Y-101600875D02*
G01*
X134980155Y-101749155D01*
X134986138Y-101754763D01*
X134986971Y-101762920D01*
X134822289Y-102391266D01*
X134818119Y-102397563D01*
X134810971Y-102400000D01*
X134429029Y-102400000D01*
X134421881Y-102397563D01*
X134417711Y-102391266D01*
X134402585Y-102333553D01*
X134253028Y-101762917D01*
X134253861Y-101754763D01*
X134259842Y-101749156D01*
X134615502Y-101600875D01*
X134620000Y-101599975D01*
X134624497Y-101600875D01*
G37*
%TD.AperFunction*%
%TD*%
%TA.AperFunction,Conductor*%
%TO.N,GNDA*%
G36*
X132561703Y-111992462D02*
G01*
X132893405Y-112182006D01*
X132898396Y-112187654D01*
X132898906Y-112195174D01*
X132706980Y-112916192D01*
X132703595Y-112921793D01*
X132697731Y-112924700D01*
X132691223Y-112924002D01*
X132685852Y-112921793D01*
X132622327Y-112895664D01*
X132335683Y-112777764D01*
X132331841Y-112775197D01*
X132059371Y-112501410D01*
X132055964Y-112493157D01*
X132059370Y-112484905D01*
X132547606Y-111994365D01*
X132554331Y-111991025D01*
X132561703Y-111992462D01*
G37*
%TD.AperFunction*%
%TD*%
%TA.AperFunction,Conductor*%
%TO.N,GNDA*%
G36*
X127706119Y-115280437D02*
G01*
X127710289Y-115286734D01*
X127874971Y-115915079D01*
X127874138Y-115923236D01*
X127868155Y-115928844D01*
X127512502Y-116077123D01*
X127508000Y-116078024D01*
X127503498Y-116077123D01*
X127147844Y-115928844D01*
X127141861Y-115923236D01*
X127141028Y-115915081D01*
X127305710Y-115286734D01*
X127309881Y-115280437D01*
X127317029Y-115278000D01*
X127698971Y-115278000D01*
X127706119Y-115280437D01*
G37*
%TD.AperFunction*%
%TD*%
%TA.AperFunction,Conductor*%
%TO.N,GNDA*%
G36*
X127512497Y-111506875D02*
G01*
X127868155Y-111655155D01*
X127874138Y-111660763D01*
X127874971Y-111668920D01*
X127710289Y-112297266D01*
X127706119Y-112303563D01*
X127698971Y-112306000D01*
X127317029Y-112306000D01*
X127309881Y-112303563D01*
X127305711Y-112297266D01*
X127290585Y-112239553D01*
X127141028Y-111668917D01*
X127141861Y-111660763D01*
X127147842Y-111655156D01*
X127503502Y-111506875D01*
X127508000Y-111505975D01*
X127512497Y-111506875D01*
G37*
%TD.AperFunction*%
%TD*%
%TA.AperFunction,Conductor*%
%TO.N,GNDA*%
G36*
X132179236Y-112409861D02*
G01*
X132184844Y-112415844D01*
X132333123Y-112771498D01*
X132334024Y-112776000D01*
X132333123Y-112780502D01*
X132184844Y-113136155D01*
X132179236Y-113142138D01*
X132171079Y-113142971D01*
X131542734Y-112978289D01*
X131536437Y-112974119D01*
X131534000Y-112966971D01*
X131534000Y-112585029D01*
X131536437Y-112577881D01*
X131542734Y-112573711D01*
X131586999Y-112562109D01*
X132171081Y-112409028D01*
X132179236Y-112409861D01*
G37*
%TD.AperFunction*%
%TD*%
%TA.AperFunction,Conductor*%
%TO.N,GNDA*%
G36*
X129739401Y-117681211D02*
G01*
X129743512Y-117684593D01*
X130383781Y-118521868D01*
X130386162Y-118529746D01*
X130382765Y-118537243D01*
X129548278Y-119372712D01*
X129543030Y-119375745D01*
X129536970Y-119375745D01*
X129531722Y-119372712D01*
X128697234Y-118537243D01*
X128693837Y-118529746D01*
X128696217Y-118521869D01*
X129336487Y-117684593D01*
X129340599Y-117681211D01*
X129345782Y-117680000D01*
X129734218Y-117680000D01*
X129739401Y-117681211D01*
G37*
%TD.AperFunction*%
%TD*%
%TA.AperFunction,Conductor*%
%TO.N,GNDA*%
G36*
X127882690Y-115933715D02*
G01*
X128210550Y-116494470D01*
X128212054Y-116501869D01*
X128208723Y-116508647D01*
X127938647Y-116778723D01*
X127931869Y-116782054D01*
X127924470Y-116780550D01*
X127447828Y-116501869D01*
X127363715Y-116452690D01*
X127358535Y-116446333D01*
X127358799Y-116438140D01*
X127505437Y-116081801D01*
X127507983Y-116077983D01*
X127511801Y-116075437D01*
X127868140Y-115928799D01*
X127876333Y-115928535D01*
X127882690Y-115933715D01*
G37*
%TD.AperFunction*%
%TD*%
%TA.AperFunction,Conductor*%
%TO.N,GNDA*%
G36*
X139398888Y-111358637D02*
G01*
X139406123Y-111362520D01*
X139409025Y-111370203D01*
X139409987Y-111755124D01*
X139409098Y-111759626D01*
X139406546Y-111763441D01*
X139134196Y-112034831D01*
X139126094Y-112038242D01*
X139117904Y-112035050D01*
X138733408Y-111671962D01*
X138730698Y-111668088D01*
X138729742Y-111663456D01*
X138729742Y-111281881D01*
X138731581Y-111275585D01*
X138736519Y-111271267D01*
X138743002Y-111270286D01*
X139398888Y-111358637D01*
G37*
%TD.AperFunction*%
%TD*%
%TA.AperFunction,Conductor*%
%TO.N,GNDA*%
G36*
X139607119Y-110962437D02*
G01*
X139611289Y-110968734D01*
X139775971Y-111597079D01*
X139775138Y-111605236D01*
X139769155Y-111610844D01*
X139413502Y-111759123D01*
X139409000Y-111760024D01*
X139404498Y-111759123D01*
X139048844Y-111610844D01*
X139042861Y-111605236D01*
X139042028Y-111597081D01*
X139206710Y-110968734D01*
X139210881Y-110962437D01*
X139218029Y-110960000D01*
X139599971Y-110960000D01*
X139607119Y-110962437D01*
G37*
%TD.AperFunction*%
%TD*%
%TA.AperFunction,Conductor*%
%TO.N,GNDA*%
G36*
X139413498Y-108966875D02*
G01*
X139769155Y-109115155D01*
X139775138Y-109120763D01*
X139775971Y-109128920D01*
X139611289Y-109757266D01*
X139607119Y-109763563D01*
X139599971Y-109766000D01*
X139218029Y-109766000D01*
X139210881Y-109763563D01*
X139206711Y-109757266D01*
X139191585Y-109699553D01*
X139042028Y-109128917D01*
X139042861Y-109120763D01*
X139048842Y-109115156D01*
X139404503Y-108966874D01*
X139408999Y-108965975D01*
X139413498Y-108966875D01*
G37*
%TD.AperFunction*%
%TD*%
%TA.AperFunction,Conductor*%
%TO.N,GNDA*%
G36*
X128241553Y-115860585D02*
G01*
X128299266Y-115875711D01*
X128305563Y-115879881D01*
X128308000Y-115887029D01*
X128308000Y-116268971D01*
X128305563Y-116276119D01*
X128299266Y-116280289D01*
X127670920Y-116444971D01*
X127662763Y-116444138D01*
X127657155Y-116438155D01*
X127508875Y-116082497D01*
X127507975Y-116078000D01*
X127508875Y-116073502D01*
X127657156Y-115717842D01*
X127662763Y-115711861D01*
X127670917Y-115711028D01*
X128241553Y-115860585D01*
G37*
%TD.AperFunction*%
%TD*%
%TA.AperFunction,Conductor*%
%TO.N,GNDA*%
G36*
X128241553Y-111288585D02*
G01*
X128299266Y-111303711D01*
X128305563Y-111307881D01*
X128308000Y-111315029D01*
X128308000Y-111696971D01*
X128305563Y-111704119D01*
X128299266Y-111708289D01*
X127670920Y-111872971D01*
X127662763Y-111872138D01*
X127657155Y-111866155D01*
X127508875Y-111510497D01*
X127507975Y-111506000D01*
X127508875Y-111501502D01*
X127657156Y-111145842D01*
X127662763Y-111139861D01*
X127670917Y-111139028D01*
X128241553Y-111288585D01*
G37*
%TD.AperFunction*%
%TD*%
%TA.AperFunction,Conductor*%
%TO.N,GNDA*%
G36*
X129380394Y-117669773D02*
G01*
X129385637Y-117672804D01*
X129659140Y-117946623D01*
X130234336Y-118522486D01*
X130237745Y-118530195D01*
X130235087Y-118538195D01*
X129548900Y-119370766D01*
X129543616Y-119374409D01*
X129537206Y-119374718D01*
X129531598Y-119371598D01*
X128696914Y-118536914D01*
X128693534Y-118529684D01*
X128695575Y-118521969D01*
X129093932Y-117948216D01*
X129095259Y-117946629D01*
X129369090Y-117672798D01*
X129374335Y-117669771D01*
X129380394Y-117669773D01*
G37*
%TD.AperFunction*%
%TD*%
%TA.AperFunction,Conductor*%
%TO.N,GNDA*%
G36*
X132465705Y-111964334D02*
G01*
X132474574Y-111968035D01*
X132818201Y-112111399D01*
X132823860Y-112116401D01*
X132825283Y-112123819D01*
X132735407Y-112765945D01*
X132731509Y-112773142D01*
X132723847Y-112776023D01*
X132338492Y-112776910D01*
X132333988Y-112776019D01*
X132330173Y-112773464D01*
X132303616Y-112746784D01*
X132058358Y-112500391D01*
X132054976Y-112492906D01*
X132057349Y-112485042D01*
X132451900Y-111968034D01*
X132458172Y-111963832D01*
X132465705Y-111964334D01*
G37*
%TD.AperFunction*%
%TD*%
%TA.AperFunction,Conductor*%
%TO.N,U1-VCC*%
G36*
X136489527Y-100897448D02*
G01*
X136978827Y-101183530D01*
X137050284Y-101225309D01*
X137055464Y-101231666D01*
X137055199Y-101239861D01*
X136908563Y-101596195D01*
X136906016Y-101600016D01*
X136902195Y-101602563D01*
X136545861Y-101749199D01*
X136537666Y-101749464D01*
X136531309Y-101744284D01*
X136444725Y-101596195D01*
X136203448Y-101183527D01*
X136201945Y-101176130D01*
X136205275Y-101169353D01*
X136475353Y-100899275D01*
X136482130Y-100895945D01*
X136489527Y-100897448D01*
G37*
%TD.AperFunction*%
%TD*%
%TA.AperFunction,Conductor*%
%TO.N,U1-VCC*%
G36*
X142488604Y-117682042D02*
G01*
X142492903Y-117687455D01*
X143021146Y-119044058D01*
X143021006Y-119052890D01*
X143014732Y-119059108D01*
X142244489Y-119379134D01*
X142240000Y-119380029D01*
X142235511Y-119379134D01*
X141465267Y-119059108D01*
X141458993Y-119052890D01*
X141458853Y-119044058D01*
X141987097Y-117687455D01*
X141991396Y-117682042D01*
X141998000Y-117680000D01*
X142482000Y-117680000D01*
X142488604Y-117682042D01*
G37*
%TD.AperFunction*%
%TD*%
%TA.AperFunction,Conductor*%
%TO.N,U1-VCC*%
G36*
X129230119Y-107406437D02*
G01*
X129234289Y-107412734D01*
X129398971Y-108041079D01*
X129398138Y-108049236D01*
X129392155Y-108054844D01*
X129036502Y-108203123D01*
X129032000Y-108204024D01*
X129027498Y-108203123D01*
X128671844Y-108054844D01*
X128665861Y-108049236D01*
X128665028Y-108041081D01*
X128829710Y-107412734D01*
X128833881Y-107406437D01*
X128841029Y-107404000D01*
X129222971Y-107404000D01*
X129230119Y-107406437D01*
G37*
%TD.AperFunction*%
%TD*%
%TA.AperFunction,Conductor*%
%TO.N,U1-VCC*%
G36*
X142388319Y-102720989D02*
G01*
X142743498Y-102867147D01*
X142747312Y-102869687D01*
X142749858Y-102873499D01*
X142897030Y-103229766D01*
X142897231Y-103238177D01*
X142891737Y-103244548D01*
X142561632Y-103421238D01*
X142521991Y-103442457D01*
X142492588Y-103458195D01*
X142487067Y-103459580D01*
X142009323Y-103459580D01*
X142001928Y-103456946D01*
X141997862Y-103450231D01*
X141998956Y-103442457D01*
X142102473Y-103244548D01*
X142373500Y-102726385D01*
X142379863Y-102720815D01*
X142388319Y-102720989D01*
G37*
%TD.AperFunction*%
%TD*%
%TA.AperFunction,Conductor*%
%TO.N,VIN*%
G36*
X125829115Y-108854649D02*
G01*
X125835280Y-108860890D01*
X125983123Y-109215498D01*
X125984024Y-109220000D01*
X125983123Y-109224502D01*
X125835280Y-109579109D01*
X125829115Y-109585350D01*
X125820344Y-109585551D01*
X125191563Y-109347859D01*
X125186075Y-109343567D01*
X125184000Y-109336915D01*
X125184000Y-109103085D01*
X125186075Y-109096433D01*
X125191563Y-109092141D01*
X125820345Y-108854448D01*
X125829115Y-108854649D01*
G37*
%TD.AperFunction*%
%TD*%
%TA.AperFunction,Conductor*%
%TO.N,VIN*%
G36*
X124796720Y-108441003D02*
G01*
X125977945Y-109091665D01*
X125982373Y-109095961D01*
X125984000Y-109101913D01*
X125984000Y-109338087D01*
X125982373Y-109344039D01*
X125977945Y-109348335D01*
X124796720Y-109998996D01*
X124790412Y-110000429D01*
X124784307Y-109998292D01*
X124780270Y-109993237D01*
X124460865Y-109224488D01*
X124459970Y-109219999D01*
X124460864Y-109215512D01*
X124780270Y-108446761D01*
X124784307Y-108441707D01*
X124790412Y-108439570D01*
X124796720Y-108441003D01*
G37*
%TD.AperFunction*%
%TD*%
%TA.AperFunction,Conductor*%
%TO.N,VIN*%
G36*
X124658119Y-115280437D02*
G01*
X124662289Y-115286734D01*
X124826971Y-115915079D01*
X124826138Y-115923236D01*
X124820155Y-115928844D01*
X124464502Y-116077123D01*
X124460000Y-116078024D01*
X124455498Y-116077123D01*
X124099844Y-115928844D01*
X124093861Y-115923236D01*
X124093028Y-115915081D01*
X124257710Y-115286734D01*
X124261881Y-115280437D01*
X124269029Y-115278000D01*
X124650971Y-115278000D01*
X124658119Y-115280437D01*
G37*
%TD.AperFunction*%
%TD*%
%TA.AperFunction,Conductor*%
%TO.N,VIN*%
G36*
X124464489Y-114300865D02*
G01*
X125234398Y-114620752D01*
X125239220Y-114624472D01*
X125241519Y-114630110D01*
X125240674Y-114636140D01*
X124663030Y-115992883D01*
X124658717Y-115998060D01*
X124652265Y-116000000D01*
X124267735Y-116000000D01*
X124261283Y-115998060D01*
X124256970Y-115992883D01*
X123679325Y-114636140D01*
X123678480Y-114630110D01*
X123680779Y-114624472D01*
X123685599Y-114620753D01*
X124455511Y-114300864D01*
X124460000Y-114299970D01*
X124464489Y-114300865D01*
G37*
%TD.AperFunction*%
%TD*%
%TA.AperFunction,Conductor*%
%TO.N,U1-nFault*%
G36*
X139820690Y-101455715D02*
G01*
X140148550Y-102016470D01*
X140150054Y-102023869D01*
X140146723Y-102030647D01*
X139876647Y-102300723D01*
X139869869Y-102304054D01*
X139862470Y-102302550D01*
X139385828Y-102023869D01*
X139301715Y-101974690D01*
X139296535Y-101968333D01*
X139296799Y-101960140D01*
X139443437Y-101603801D01*
X139445983Y-101599983D01*
X139449801Y-101597437D01*
X139806140Y-101450799D01*
X139814333Y-101450535D01*
X139820690Y-101455715D01*
G37*
%TD.AperFunction*%
%TD*%
%TA.AperFunction,Conductor*%
%TO.N,U1-nFault*%
G36*
X140405722Y-117870175D02*
G01*
X140409492Y-117877735D01*
X140548805Y-119367225D01*
X140547634Y-119373520D01*
X140543326Y-119378256D01*
X140537170Y-119380015D01*
X139704859Y-119380994D01*
X139700369Y-119380104D01*
X139696567Y-119377561D01*
X139403818Y-119084325D01*
X139107208Y-118787221D01*
X139103788Y-118778957D01*
X139107203Y-118770694D01*
X140005070Y-117870562D01*
X140008872Y-117868018D01*
X140013356Y-117867125D01*
X140397843Y-117867125D01*
X140405722Y-117870175D01*
G37*
%TD.AperFunction*%
%TD*%
%TA.AperFunction,Conductor*%
%TO.N,U1-EN*%
G36*
X137358717Y-117681940D02*
G01*
X137363030Y-117687117D01*
X137940674Y-119043859D01*
X137941519Y-119049889D01*
X137939220Y-119055527D01*
X137934398Y-119059247D01*
X137164489Y-119379134D01*
X137160000Y-119380029D01*
X137155511Y-119379134D01*
X136385601Y-119059247D01*
X136380779Y-119055527D01*
X136378480Y-119049889D01*
X136379324Y-119043861D01*
X136956969Y-117687117D01*
X136961283Y-117681940D01*
X136967735Y-117680000D01*
X137352265Y-117680000D01*
X137358717Y-117681940D01*
G37*
%TD.AperFunction*%
%TD*%
%TA.AperFunction,Conductor*%
%TO.N,U1-EN*%
G36*
X138069859Y-112118799D02*
G01*
X138426196Y-112265436D01*
X138430016Y-112267983D01*
X138432563Y-112271804D01*
X138579199Y-112628138D01*
X138579464Y-112636333D01*
X138574284Y-112642690D01*
X138013530Y-112970550D01*
X138006130Y-112972054D01*
X137999352Y-112968723D01*
X137729276Y-112698647D01*
X137725945Y-112691869D01*
X137727448Y-112684473D01*
X138055310Y-112123713D01*
X138061666Y-112118535D01*
X138069859Y-112118799D01*
G37*
%TD.AperFunction*%
%TD*%
M02*
