%TF.GenerationSoftware,KiCad,Pcbnew,(6.0.0-rc1-124-g18b4ebcc17)*%
%TF.CreationDate,2021-11-27T01:21:43+01:00*%
%TF.ProjectId,2HBR_NG,32484252-5f4e-4472-9e6b-696361645f70,1*%
%TF.SameCoordinates,Original*%
%TF.FileFunction,Copper,L4,Bot*%
%TF.FilePolarity,Positive*%
%FSLAX46Y46*%
G04 Gerber Fmt 4.6, Leading zero omitted, Abs format (unit mm)*
G04 Created by KiCad (PCBNEW (6.0.0-rc1-124-g18b4ebcc17)) date 2021-11-27 01:21:43*
%MOMM*%
%LPD*%
G01*
G04 APERTURE LIST*
%TA.AperFunction,ComponentPad*%
%ADD10R,1.600000X1.600000*%
%TD*%
%TA.AperFunction,ComponentPad*%
%ADD11C,1.600000*%
%TD*%
%TA.AperFunction,ComponentPad*%
%ADD12R,3.000000X3.000000*%
%TD*%
%TA.AperFunction,ComponentPad*%
%ADD13C,3.000000*%
%TD*%
%TA.AperFunction,ComponentPad*%
%ADD14C,0.800000*%
%TD*%
%TA.AperFunction,ComponentPad*%
%ADD15C,6.000000*%
%TD*%
%TA.AperFunction,ComponentPad*%
%ADD16R,1.700000X1.700000*%
%TD*%
%TA.AperFunction,ComponentPad*%
%ADD17O,1.700000X1.700000*%
%TD*%
%TA.AperFunction,ViaPad*%
%ADD18C,0.800000*%
%TD*%
%TA.AperFunction,Conductor*%
%ADD19C,0.200000*%
%TD*%
%TA.AperFunction,Conductor*%
%ADD20C,1.000000*%
%TD*%
%TA.AperFunction,Conductor*%
%ADD21C,0.400000*%
%TD*%
%TA.AperFunction,Conductor*%
%ADD22C,0.250000*%
%TD*%
G04 APERTURE END LIST*
D10*
%TO.P,C8,1*%
%TO.N,VIN*%
X170000001Y-69500000D03*
D11*
%TO.P,C8,2*%
%TO.N,GND*%
X170000001Y-66000000D03*
%TD*%
D12*
%TO.P,J3,1,Pin_1*%
%TO.N,U2-OUT1*%
X150000000Y-87960000D03*
D13*
%TO.P,J3,2,Pin_2*%
%TO.N,U2-OUT2*%
X150000000Y-93040000D03*
%TD*%
D12*
%TO.P,J1,1,Pin_1*%
%TO.N,GND*%
X150000000Y-77460000D03*
D13*
%TO.P,J1,2,Pin_2*%
%TO.N,VIN*%
X150000000Y-82540000D03*
%TD*%
D14*
%TO.P,H4,1,1*%
%TO.N,unconnected-(H4-Pad1)*%
X148409010Y-98409010D03*
X150000000Y-102250000D03*
X150000000Y-97750000D03*
D15*
X150000000Y-100000000D03*
D14*
X152250000Y-100000000D03*
X151590990Y-98409010D03*
X148409010Y-101590990D03*
X147750000Y-100000000D03*
X151590990Y-101590990D03*
%TD*%
%TO.P,H3,1,1*%
%TO.N,unconnected-(H3-Pad1)*%
X148409010Y-58409010D03*
X147750000Y-60000000D03*
X152250000Y-60000000D03*
X151590990Y-58409010D03*
X150000000Y-57750000D03*
X148409010Y-61590990D03*
D15*
X150000000Y-60000000D03*
D14*
X151590990Y-61590990D03*
X150000000Y-62250000D03*
%TD*%
D16*
%TO.P,J4,1,Pin_1*%
%TO.N,U1-IN2*%
X169000000Y-74925000D03*
D17*
%TO.P,J4,2,Pin_2*%
%TO.N,U2-IN2*%
X171540000Y-74925000D03*
%TO.P,J4,3,Pin_3*%
%TO.N,U1-IN1*%
X169000000Y-77465000D03*
%TO.P,J4,4,Pin_4*%
%TO.N,U2-IN1*%
X171540000Y-77465000D03*
%TO.P,J4,5,Pin_5*%
%TO.N,U1-EN*%
X169000000Y-80005000D03*
%TO.P,J4,6,Pin_6*%
%TO.N,U2-EN*%
X171540000Y-80005000D03*
%TO.P,J4,7,Pin_7*%
%TO.N,U1-nFault*%
X169000000Y-82545000D03*
%TO.P,J4,8,Pin_8*%
%TO.N,U2-nFault*%
X171540000Y-82545000D03*
%TO.P,J4,9,Pin_9*%
%TO.N,GNDA*%
X169000000Y-85085000D03*
%TO.P,J4,10,Pin_10*%
X171540000Y-85085000D03*
%TD*%
D10*
%TO.P,C9,1*%
%TO.N,VIN*%
X170000001Y-90527350D03*
D11*
%TO.P,C9,2*%
%TO.N,GND*%
X170000001Y-94027350D03*
%TD*%
D15*
%TO.P,H2,1,1*%
%TO.N,unconnected-(H2-Pad1)*%
X170000000Y-60000000D03*
D14*
X170000000Y-62250000D03*
X168409010Y-61590990D03*
X168409010Y-58409010D03*
X170000000Y-57750000D03*
X171590990Y-58409010D03*
X172250000Y-60000000D03*
X171590990Y-61590990D03*
X167750000Y-60000000D03*
%TD*%
D12*
%TO.P,J2,1,Pin_1*%
%TO.N,U1-OUT1*%
X150000000Y-66960000D03*
D13*
%TO.P,J2,2,Pin_2*%
%TO.N,U1-OUT2*%
X150000000Y-72040000D03*
%TD*%
D14*
%TO.P,H1,1,1*%
%TO.N,unconnected-(H1-Pad1)*%
X172250000Y-100000000D03*
X170000000Y-102250000D03*
X168409010Y-101590990D03*
X171590990Y-101590990D03*
X171590990Y-98409010D03*
X168409010Y-98409010D03*
X170000000Y-97750000D03*
X167750000Y-100000000D03*
D15*
X170000000Y-100000000D03*
%TD*%
D18*
%TO.N,U1-OUT2*%
X155600000Y-73200000D03*
X156400000Y-65700000D03*
X156400000Y-66991999D03*
%TO.N,U2-OUT2*%
X157500000Y-87900000D03*
X155600000Y-84400000D03*
X156600000Y-87900000D03*
%TO.N,U1-OUT1*%
X156800000Y-71600000D03*
X157700000Y-71600000D03*
%TO.N,U2-OUT1*%
X164600000Y-86300000D03*
X157400000Y-93700000D03*
X157400000Y-95500000D03*
X157400000Y-94600000D03*
%TO.N,GNDA*%
X163600000Y-66700000D03*
X157600000Y-78100000D03*
X164000000Y-103080000D03*
X156500000Y-78100000D03*
X166600000Y-57200000D03*
X166200000Y-87800000D03*
X160000000Y-98300000D03*
X161200000Y-63300000D03*
%TO.N,Net-(R4-Pad1)*%
X162122919Y-87288898D03*
X156200000Y-91800000D03*
%TO.N,VIN*%
X158980000Y-93090000D03*
X158200000Y-100000000D03*
X158200000Y-99100000D03*
X160000000Y-66100000D03*
X159000000Y-87700000D03*
X159000000Y-66100000D03*
X161000000Y-87700000D03*
X159100000Y-62100000D03*
X159200000Y-71700500D03*
X160981770Y-93118230D03*
X160000000Y-61500000D03*
X158200000Y-98200000D03*
X160070000Y-93120000D03*
X161000000Y-71700500D03*
X160100000Y-71700500D03*
X158000000Y-66100500D03*
X160000000Y-87700000D03*
%TO.N,GND*%
X152600000Y-86200000D03*
X152600000Y-76600000D03*
X172500000Y-69460000D03*
X160010000Y-101370000D03*
X157430000Y-82740000D03*
X147190000Y-72215000D03*
X152600000Y-88340000D03*
X172980000Y-72560000D03*
X152600000Y-74600000D03*
X167970000Y-103070000D03*
X147190000Y-64220000D03*
X153400000Y-101800000D03*
X153000000Y-103200000D03*
X147190000Y-85200000D03*
X147190000Y-96200000D03*
X163210000Y-77240000D03*
X147190000Y-69550000D03*
X147190000Y-77545000D03*
X147190000Y-82875000D03*
X155080000Y-101380000D03*
X152600000Y-72600000D03*
X147190000Y-66885000D03*
X156670000Y-99500000D03*
X158970000Y-79990000D03*
X147190000Y-93535000D03*
X161280000Y-79930000D03*
X147190000Y-80210000D03*
X147190000Y-74880000D03*
X147190000Y-90870000D03*
X154170000Y-57810000D03*
X160000000Y-58700000D03*
X160255000Y-82740000D03*
X155090000Y-99430000D03*
X163080000Y-82740000D03*
X166800000Y-102000000D03*
X156650000Y-101400000D03*
X147190000Y-88205000D03*
X152600000Y-63750000D03*
X172040000Y-63390000D03*
X156000000Y-58800000D03*
X152600000Y-84160000D03*
X166480000Y-63390000D03*
%TO.N,Net-(R1-Pad1)*%
X155300000Y-67900000D03*
X158200000Y-76400000D03*
%TO.N,Net-(R3-Pad1)*%
X156076898Y-70499500D03*
X161100000Y-76300000D03*
%TO.N,U1-nFault*%
X164600000Y-72400000D03*
X167200000Y-72400000D03*
%TO.N,U2-nFault*%
X164020000Y-100700000D03*
X162600000Y-93900000D03*
%TO.N,U2-IFB*%
X163600000Y-87800000D03*
X158200000Y-96600000D03*
%TO.N,U1-EN*%
X167070000Y-79530000D03*
X154210000Y-67940000D03*
%TO.N,U1-IN1*%
X162100000Y-69900000D03*
%TO.N,U1-IN2*%
X161771140Y-68721757D03*
%TO.N,U2-IN1*%
X168200000Y-87400000D03*
X161935156Y-91528134D03*
%TO.N,U2-IN2*%
X161899999Y-90499999D03*
%TO.N,U2-EN*%
X154700000Y-90000000D03*
%TO.N,U1-IFB*%
X161600000Y-66100000D03*
X156930000Y-64500000D03*
%TO.N,U2-VCC*%
X164200000Y-93400000D03*
X164125000Y-98275000D03*
X167100000Y-80800000D03*
%TD*%
D19*
%TO.N,U1-OUT2*%
X153909766Y-66800989D02*
X156208990Y-66800989D01*
X156208990Y-66800989D02*
X156400000Y-66991999D01*
X153000499Y-70600499D02*
X153000499Y-67710256D01*
X153000499Y-67710256D02*
X153909766Y-66800989D01*
X155600000Y-73200000D02*
X153000499Y-70600499D01*
D20*
%TO.N,U2-OUT2*%
X156600000Y-87900000D02*
X157500000Y-87900000D01*
D21*
%TO.N,U1-OUT1*%
X156800000Y-71600000D02*
X157700000Y-71600000D01*
D20*
%TO.N,U2-OUT1*%
X157400000Y-93700000D02*
X157400000Y-94600000D01*
X157400000Y-94600000D02*
X157400000Y-95500000D01*
D19*
X158519777Y-91890978D02*
X164110755Y-86300000D01*
X157400000Y-92974327D02*
X158483349Y-91890978D01*
D20*
X150000000Y-87960000D02*
X155740000Y-93700000D01*
D19*
X164110755Y-86300000D02*
X164600000Y-86300000D01*
D20*
X155740000Y-93700000D02*
X157400000Y-93700000D01*
D19*
X158483349Y-91890978D02*
X158519777Y-91890978D01*
X157400000Y-93700000D02*
X157400000Y-92974327D01*
%TO.N,GNDA*%
X169000000Y-85085000D02*
X166285000Y-87800000D01*
X161300000Y-63400000D02*
X163600000Y-63400000D01*
X166285000Y-87800000D02*
X166200000Y-87800000D01*
X163600000Y-63400000D02*
X163600000Y-60200000D01*
D20*
X156500000Y-78100000D02*
X157600000Y-78100000D01*
D19*
X161200000Y-63300000D02*
X161300000Y-63400000D01*
D22*
X160000000Y-98300000D02*
X164000000Y-102300000D01*
X164000000Y-102300000D02*
X164000000Y-103080000D01*
D19*
X163600000Y-60200000D02*
X166600000Y-57200000D01*
X163600000Y-66700000D02*
X163600000Y-63400000D01*
%TO.N,Net-(R4-Pad1)*%
X158009333Y-91800000D02*
X162122919Y-87686414D01*
X162122919Y-87686414D02*
X162122919Y-87288898D01*
X156200000Y-91800000D02*
X158009333Y-91800000D01*
%TO.N,VIN*%
X158200000Y-100000000D02*
X158200000Y-99100000D01*
D20*
X161450499Y-92649501D02*
X160981770Y-93118230D01*
D21*
X160070000Y-96330000D02*
X158200000Y-98200000D01*
D20*
X170000001Y-90527350D02*
X164417720Y-90527350D01*
D21*
X159000000Y-87700000D02*
X161000000Y-87700000D01*
D20*
X159999500Y-66100500D02*
X160000000Y-66100000D01*
D19*
X159200000Y-71700500D02*
X160100000Y-71700500D01*
D20*
X158000000Y-66100500D02*
X159999500Y-66100500D01*
D19*
X160000000Y-87700000D02*
X161000000Y-87700000D01*
D20*
X158980000Y-93090000D02*
X159008230Y-93118230D01*
D21*
X160070000Y-93120000D02*
X160070000Y-96330000D01*
D20*
X163059501Y-91885569D02*
X163059501Y-92005429D01*
X162415429Y-92649501D02*
X161450499Y-92649501D01*
X159200000Y-71700500D02*
X161000000Y-71700500D01*
X164417720Y-90527350D02*
X163059501Y-91885569D01*
X158200000Y-100000000D02*
X158200000Y-98200000D01*
X159008230Y-93118230D02*
X160981770Y-93118230D01*
X163059501Y-92005429D02*
X162415429Y-92649501D01*
D21*
%TO.N,GND*%
X159900000Y-58800000D02*
X160000000Y-58700000D01*
X156000000Y-58800000D02*
X159900000Y-58800000D01*
D19*
%TO.N,Net-(R1-Pad1)*%
X158400000Y-76200000D02*
X158400000Y-71000000D01*
X158200000Y-76400000D02*
X158400000Y-76200000D01*
X158400000Y-71000000D02*
X155300000Y-67900000D01*
%TO.N,Net-(R3-Pad1)*%
X159000000Y-77200000D02*
X157600000Y-77200000D01*
X157600000Y-77200000D02*
X157200000Y-76800000D01*
X156076898Y-72176898D02*
X156076898Y-70499500D01*
X159900000Y-76300000D02*
X159000000Y-77200000D01*
X157200000Y-76800000D02*
X157200000Y-73300000D01*
X157200000Y-73300000D02*
X156076898Y-72176898D01*
X161100000Y-76300000D02*
X159900000Y-76300000D01*
%TO.N,U1-nFault*%
X164600000Y-72400000D02*
X167200000Y-72400000D01*
D22*
%TO.N,U2-nFault*%
X162600000Y-93900000D02*
X162600000Y-93775400D01*
X162600000Y-93775400D02*
X164575400Y-91800000D01*
X164575400Y-91800000D02*
X170170000Y-91800000D01*
D19*
X167700000Y-91800000D02*
X170170000Y-91800000D01*
X163300000Y-99500000D02*
X163300000Y-99980000D01*
X163300000Y-94600000D02*
X162600000Y-93900000D01*
D22*
X171540000Y-82545000D02*
X172714511Y-83719511D01*
X172714511Y-90285489D02*
X171200000Y-91800000D01*
D19*
X163300000Y-99980000D02*
X164020000Y-100700000D01*
D22*
X172714511Y-83719511D02*
X172714511Y-90285489D01*
X171200000Y-91800000D02*
X170170000Y-91800000D01*
D19*
X163300000Y-99500000D02*
X163300000Y-94600000D01*
%TO.N,U2-IFB*%
X158180489Y-92758831D02*
X158648831Y-92290489D01*
X158648831Y-92290489D02*
X159120265Y-92290489D01*
X163355377Y-88044623D02*
X163600000Y-87800000D01*
X159120265Y-92290489D02*
X163355377Y-88055377D01*
X163355377Y-88055377D02*
X163355377Y-88044623D01*
X158200000Y-96600000D02*
X158200000Y-93440680D01*
X158180489Y-93421169D02*
X158180489Y-92758831D01*
X158200000Y-93440680D02*
X158180489Y-93421169D01*
%TO.N,U1-EN*%
X155589744Y-67200499D02*
X158989245Y-70600000D01*
X154210000Y-67940000D02*
X154949501Y-67200499D01*
X167300000Y-70600000D02*
X168400000Y-71700000D01*
X167070000Y-73990985D02*
X167070000Y-79530000D01*
X168400000Y-72660985D02*
X167070000Y-73990985D01*
X154949501Y-67200499D02*
X155589744Y-67200499D01*
X158989245Y-70600000D02*
X167300000Y-70600000D01*
X168400000Y-71700000D02*
X168400000Y-72660985D01*
%TO.N,U1-IN1*%
X168799510Y-71299510D02*
X168799510Y-73165484D01*
X167400000Y-69900000D02*
X168799510Y-71299510D01*
X168799510Y-73165484D02*
X168265482Y-73699511D01*
X162100000Y-69900000D02*
X167400000Y-69900000D01*
X168065483Y-73699511D02*
X167799511Y-73965483D01*
X167799511Y-73965483D02*
X167799511Y-76264511D01*
X168265482Y-73699511D02*
X168065483Y-73699511D01*
X167799511Y-76264511D02*
X169000000Y-77465000D01*
%TO.N,U1-IN2*%
X169000000Y-74925000D02*
X169199020Y-74725980D01*
X166786751Y-68721757D02*
X161771140Y-68721757D01*
X169199020Y-74725980D02*
X169199020Y-71134026D01*
X169199020Y-71134026D02*
X166786751Y-68721757D01*
%TO.N,U2-IN1*%
X161935156Y-91528134D02*
X163933290Y-89530000D01*
X163933290Y-89530000D02*
X166070000Y-89530000D01*
X166070000Y-89530000D02*
X168200000Y-87400000D01*
%TO.N,U2-IN2*%
X171540000Y-74925000D02*
X172700000Y-76085000D01*
X172700000Y-80470655D02*
X172016144Y-81154511D01*
X170005489Y-83694511D02*
X168750111Y-83694511D01*
X172016144Y-81154511D02*
X171304834Y-81154511D01*
X170390489Y-83309511D02*
X170005489Y-83694511D01*
X170390489Y-82068856D02*
X170390489Y-83309511D01*
X172700000Y-76085000D02*
X172700000Y-80470655D01*
X161944623Y-90499999D02*
X161899999Y-90499999D01*
X171304834Y-81154511D02*
X170390489Y-82068856D01*
X168750111Y-83694511D02*
X161944623Y-90499999D01*
D22*
%TO.N,U2-EN*%
X170245000Y-81300000D02*
X171540000Y-80005000D01*
X163100000Y-86370000D02*
X168170000Y-81300000D01*
X154700000Y-88150000D02*
X156480000Y-86370000D01*
X156480000Y-86370000D02*
X163100000Y-86370000D01*
X154700000Y-90000000D02*
X154700000Y-88150000D01*
X168170000Y-81300000D02*
X170245000Y-81300000D01*
D19*
%TO.N,U1-IFB*%
X160000000Y-64500000D02*
X156930000Y-64500000D01*
X161600000Y-66100000D02*
X160000000Y-64500000D01*
%TO.N,U2-VCC*%
X164125000Y-93475000D02*
X164200000Y-93400000D01*
X164125000Y-98275000D02*
X164125000Y-93475000D01*
%TD*%
%TA.AperFunction,Conductor*%
%TO.N,GND*%
G36*
X166127602Y-56208000D02*
G01*
X166174095Y-56261656D01*
X166184199Y-56331930D01*
X166154705Y-56396510D01*
X166133542Y-56415934D01*
X166008965Y-56506445D01*
X165988747Y-56521134D01*
X165984326Y-56526044D01*
X165984325Y-56526045D01*
X165913995Y-56604155D01*
X165860960Y-56663056D01*
X165765473Y-56828444D01*
X165706458Y-57010072D01*
X165686496Y-57200000D01*
X165686684Y-57201786D01*
X165667184Y-57268196D01*
X165650281Y-57289170D01*
X163203766Y-59735685D01*
X163191375Y-59746552D01*
X163166013Y-59766013D01*
X163141526Y-59797925D01*
X163141523Y-59797928D01*
X163068476Y-59893124D01*
X163009314Y-60035954D01*
X163007162Y-60041150D01*
X162991500Y-60160115D01*
X162991500Y-60160120D01*
X162986250Y-60200000D01*
X162987328Y-60208188D01*
X162990422Y-60231690D01*
X162991500Y-60248136D01*
X162991500Y-62665500D01*
X162971498Y-62733621D01*
X162917842Y-62780114D01*
X162865500Y-62791500D01*
X162020749Y-62791500D01*
X161952628Y-62771498D01*
X161927113Y-62749810D01*
X161912537Y-62733621D01*
X161811253Y-62621134D01*
X161656752Y-62508882D01*
X161650724Y-62506198D01*
X161650722Y-62506197D01*
X161488319Y-62433891D01*
X161488318Y-62433891D01*
X161482288Y-62431206D01*
X161388887Y-62411353D01*
X161301944Y-62392872D01*
X161301939Y-62392872D01*
X161295487Y-62391500D01*
X161104513Y-62391500D01*
X161098061Y-62392872D01*
X161098056Y-62392872D01*
X161011113Y-62411353D01*
X160917712Y-62431206D01*
X160911682Y-62433891D01*
X160911681Y-62433891D01*
X160749278Y-62506197D01*
X160749276Y-62506198D01*
X160743248Y-62508882D01*
X160588747Y-62621134D01*
X160460960Y-62763056D01*
X160365473Y-62928444D01*
X160306458Y-63110072D01*
X160305768Y-63116633D01*
X160305768Y-63116635D01*
X160296000Y-63209573D01*
X160286496Y-63300000D01*
X160287186Y-63306565D01*
X160290719Y-63340175D01*
X160306458Y-63489928D01*
X160365473Y-63671556D01*
X160368776Y-63677278D01*
X160368777Y-63677279D01*
X160423607Y-63772248D01*
X160440345Y-63841244D01*
X160417124Y-63908336D01*
X160361317Y-63952223D01*
X160290642Y-63958971D01*
X160266278Y-63951660D01*
X160158851Y-63907162D01*
X160150664Y-63906084D01*
X160150663Y-63906084D01*
X160139458Y-63904609D01*
X160108262Y-63900502D01*
X160039885Y-63891500D01*
X160039882Y-63891500D01*
X160039874Y-63891499D01*
X160008189Y-63887328D01*
X160000000Y-63886250D01*
X159968307Y-63890422D01*
X159951864Y-63891500D01*
X157660710Y-63891500D01*
X157592589Y-63871498D01*
X157567074Y-63849811D01*
X157545668Y-63826037D01*
X157545666Y-63826036D01*
X157541253Y-63821134D01*
X157519671Y-63805454D01*
X157392094Y-63712763D01*
X157392093Y-63712762D01*
X157386752Y-63708882D01*
X157380724Y-63706198D01*
X157380722Y-63706197D01*
X157218319Y-63633891D01*
X157218318Y-63633891D01*
X157212288Y-63631206D01*
X157118888Y-63611353D01*
X157031944Y-63592872D01*
X157031939Y-63592872D01*
X157025487Y-63591500D01*
X156834513Y-63591500D01*
X156828061Y-63592872D01*
X156828056Y-63592872D01*
X156741112Y-63611353D01*
X156647712Y-63631206D01*
X156641682Y-63633891D01*
X156641681Y-63633891D01*
X156479278Y-63706197D01*
X156479276Y-63706198D01*
X156473248Y-63708882D01*
X156318747Y-63821134D01*
X156190960Y-63963056D01*
X156095473Y-64128444D01*
X156036458Y-64310072D01*
X156016496Y-64500000D01*
X156036458Y-64689928D01*
X156038496Y-64696202D01*
X156038498Y-64696209D01*
X156051771Y-64737059D01*
X156053798Y-64808027D01*
X156017135Y-64868824D01*
X155983187Y-64891100D01*
X155943248Y-64908882D01*
X155937907Y-64912762D01*
X155937906Y-64912763D01*
X155936289Y-64913938D01*
X155788747Y-65021134D01*
X155660960Y-65163056D01*
X155565473Y-65328444D01*
X155506458Y-65510072D01*
X155486496Y-65700000D01*
X155506458Y-65889928D01*
X155508498Y-65896206D01*
X155551175Y-66027553D01*
X155553202Y-66098521D01*
X155516540Y-66159318D01*
X155452828Y-66190644D01*
X155431342Y-66192489D01*
X153957902Y-66192489D01*
X153941459Y-66191411D01*
X153909766Y-66187239D01*
X153901577Y-66188317D01*
X153869892Y-66192488D01*
X153869883Y-66192489D01*
X153869881Y-66192489D01*
X153869875Y-66192490D01*
X153869873Y-66192490D01*
X153770309Y-66205598D01*
X153759102Y-66207073D01*
X153759100Y-66207074D01*
X153750915Y-66208151D01*
X153602890Y-66269465D01*
X153568041Y-66296206D01*
X153507703Y-66342504D01*
X153507687Y-66342518D01*
X153482332Y-66361973D01*
X153482329Y-66361976D01*
X153475779Y-66367002D01*
X153470749Y-66373557D01*
X153456314Y-66392368D01*
X153445447Y-66404759D01*
X152604265Y-67245941D01*
X152591874Y-67256808D01*
X152566512Y-67276269D01*
X152542025Y-67308181D01*
X152542022Y-67308184D01*
X152542016Y-67308192D01*
X152495143Y-67369278D01*
X152468975Y-67403380D01*
X152407661Y-67551405D01*
X152407661Y-67551406D01*
X152391999Y-67670371D01*
X152391999Y-67670376D01*
X152386749Y-67710256D01*
X152387827Y-67718444D01*
X152390921Y-67741946D01*
X152391999Y-67758392D01*
X152391999Y-70552363D01*
X152390921Y-70568806D01*
X152386749Y-70600499D01*
X152391999Y-70640379D01*
X152391999Y-70640384D01*
X152403956Y-70731206D01*
X152407661Y-70759350D01*
X152468975Y-70907375D01*
X152474002Y-70913926D01*
X152474003Y-70913928D01*
X152542019Y-71002568D01*
X152542025Y-71002574D01*
X152566512Y-71034486D01*
X152573067Y-71039516D01*
X152591878Y-71053951D01*
X152604269Y-71064818D01*
X154650281Y-73110830D01*
X154684307Y-73173142D01*
X154686841Y-73196716D01*
X154686496Y-73200000D01*
X154687186Y-73206565D01*
X154701151Y-73339431D01*
X154706458Y-73389928D01*
X154765473Y-73571556D01*
X154768776Y-73577278D01*
X154768777Y-73577279D01*
X154802686Y-73636010D01*
X154860960Y-73736944D01*
X154865378Y-73741851D01*
X154865379Y-73741852D01*
X154984325Y-73873955D01*
X154988747Y-73878866D01*
X155143248Y-73991118D01*
X155149276Y-73993802D01*
X155149278Y-73993803D01*
X155311681Y-74066109D01*
X155317712Y-74068794D01*
X155411112Y-74088647D01*
X155498056Y-74107128D01*
X155498061Y-74107128D01*
X155504513Y-74108500D01*
X155695487Y-74108500D01*
X155701939Y-74107128D01*
X155701944Y-74107128D01*
X155788888Y-74088647D01*
X155882288Y-74068794D01*
X155888319Y-74066109D01*
X156050722Y-73993803D01*
X156050724Y-73993802D01*
X156056752Y-73991118D01*
X156211253Y-73878866D01*
X156215675Y-73873955D01*
X156334621Y-73741852D01*
X156334622Y-73741851D01*
X156339040Y-73736944D01*
X156356382Y-73706907D01*
X156407764Y-73657915D01*
X156477478Y-73644480D01*
X156543389Y-73670867D01*
X156584570Y-73728699D01*
X156591500Y-73769909D01*
X156591500Y-76751864D01*
X156590422Y-76768307D01*
X156586250Y-76800000D01*
X156587328Y-76808189D01*
X156591500Y-76839880D01*
X156591500Y-76839885D01*
X156604278Y-76936944D01*
X156604278Y-76936947D01*
X156605872Y-76949057D01*
X156594931Y-77019205D01*
X156547802Y-77072303D01*
X156480950Y-77091500D01*
X156450231Y-77091500D01*
X156447175Y-77091800D01*
X156447168Y-77091800D01*
X156388660Y-77097537D01*
X156303167Y-77105920D01*
X156297266Y-77107702D01*
X156297264Y-77107702D01*
X156223947Y-77129838D01*
X156113831Y-77163084D01*
X155939204Y-77255934D01*
X155852938Y-77326291D01*
X155790713Y-77377040D01*
X155790710Y-77377043D01*
X155785938Y-77380935D01*
X155782011Y-77385682D01*
X155782009Y-77385684D01*
X155663799Y-77528575D01*
X155663797Y-77528579D01*
X155659870Y-77533325D01*
X155565802Y-77707299D01*
X155507318Y-77896232D01*
X155486645Y-78092925D01*
X155487204Y-78099065D01*
X155502810Y-78270544D01*
X155504570Y-78289888D01*
X155506308Y-78295794D01*
X155506309Y-78295798D01*
X155522922Y-78352244D01*
X155560410Y-78479619D01*
X155563263Y-78485077D01*
X155563265Y-78485081D01*
X155610720Y-78575853D01*
X155652040Y-78654890D01*
X155775968Y-78809025D01*
X155780692Y-78812989D01*
X155787933Y-78819065D01*
X155927474Y-78936154D01*
X155932872Y-78939121D01*
X155932877Y-78939125D01*
X156065202Y-79011870D01*
X156100787Y-79031433D01*
X156106654Y-79033294D01*
X156106656Y-79033295D01*
X156283436Y-79089373D01*
X156289306Y-79091235D01*
X156443227Y-79108500D01*
X157649769Y-79108500D01*
X157652825Y-79108200D01*
X157652832Y-79108200D01*
X157711340Y-79102463D01*
X157796833Y-79094080D01*
X157802734Y-79092298D01*
X157802736Y-79092298D01*
X157931571Y-79053400D01*
X157986169Y-79036916D01*
X158160796Y-78944066D01*
X158270477Y-78854612D01*
X158309287Y-78822960D01*
X158309290Y-78822957D01*
X158314062Y-78819065D01*
X158384315Y-78734144D01*
X158436201Y-78671425D01*
X158436203Y-78671421D01*
X158440130Y-78666675D01*
X158534198Y-78492701D01*
X158592682Y-78303768D01*
X158607049Y-78167077D01*
X158612711Y-78113204D01*
X158612711Y-78113202D01*
X158613355Y-78107075D01*
X158598689Y-77945920D01*
X158612434Y-77876266D01*
X158661656Y-77825102D01*
X158724170Y-77808500D01*
X158951864Y-77808500D01*
X158968307Y-77809578D01*
X159000000Y-77813750D01*
X159008189Y-77812672D01*
X159039874Y-77808501D01*
X159039884Y-77808500D01*
X159039885Y-77808500D01*
X159139457Y-77795391D01*
X159150664Y-77793916D01*
X159150666Y-77793915D01*
X159158851Y-77792838D01*
X159306876Y-77731524D01*
X159322071Y-77719865D01*
X159402072Y-77658477D01*
X159402075Y-77658474D01*
X159427434Y-77639015D01*
X159433987Y-77633987D01*
X159439017Y-77627432D01*
X159453452Y-77608621D01*
X159464319Y-77596230D01*
X160115144Y-76945405D01*
X160177456Y-76911379D01*
X160204239Y-76908500D01*
X160369290Y-76908500D01*
X160437411Y-76928502D01*
X160462926Y-76950189D01*
X160488747Y-76978866D01*
X160643248Y-77091118D01*
X160649276Y-77093802D01*
X160649278Y-77093803D01*
X160811681Y-77166109D01*
X160817712Y-77168794D01*
X160907528Y-77187885D01*
X160998056Y-77207128D01*
X160998061Y-77207128D01*
X161004513Y-77208500D01*
X161195487Y-77208500D01*
X161201939Y-77207128D01*
X161201944Y-77207128D01*
X161292472Y-77187885D01*
X161382288Y-77168794D01*
X161388319Y-77166109D01*
X161550722Y-77093803D01*
X161550724Y-77093802D01*
X161556752Y-77091118D01*
X161711253Y-76978866D01*
X161738093Y-76949057D01*
X161834621Y-76841852D01*
X161834622Y-76841851D01*
X161839040Y-76836944D01*
X161934527Y-76671556D01*
X161993542Y-76489928D01*
X161995842Y-76468051D01*
X162012814Y-76306565D01*
X162013504Y-76300000D01*
X162003872Y-76208357D01*
X161994232Y-76116635D01*
X161994232Y-76116633D01*
X161993542Y-76110072D01*
X161934527Y-75928444D01*
X161926955Y-75915328D01*
X161873601Y-75822918D01*
X161839040Y-75763056D01*
X161802025Y-75721946D01*
X161715675Y-75626045D01*
X161715674Y-75626044D01*
X161711253Y-75621134D01*
X161556752Y-75508882D01*
X161550724Y-75506198D01*
X161550722Y-75506197D01*
X161388319Y-75433891D01*
X161388318Y-75433891D01*
X161382288Y-75431206D01*
X161288887Y-75411353D01*
X161201944Y-75392872D01*
X161201939Y-75392872D01*
X161195487Y-75391500D01*
X161004513Y-75391500D01*
X160998061Y-75392872D01*
X160998056Y-75392872D01*
X160911113Y-75411353D01*
X160817712Y-75431206D01*
X160811682Y-75433891D01*
X160811681Y-75433891D01*
X160649278Y-75506197D01*
X160649276Y-75506198D01*
X160643248Y-75508882D01*
X160488747Y-75621134D01*
X160484334Y-75626036D01*
X160484332Y-75626037D01*
X160462926Y-75649811D01*
X160402480Y-75687050D01*
X160369290Y-75691500D01*
X159948136Y-75691500D01*
X159931690Y-75690422D01*
X159908188Y-75687328D01*
X159900000Y-75686250D01*
X159891812Y-75687328D01*
X159860129Y-75691499D01*
X159860120Y-75691500D01*
X159860115Y-75691500D01*
X159741150Y-75707162D01*
X159685802Y-75730088D01*
X159593124Y-75768476D01*
X159586573Y-75773503D01*
X159586571Y-75773504D01*
X159570607Y-75785754D01*
X159497928Y-75841523D01*
X159497925Y-75841526D01*
X159466013Y-75866013D01*
X159460983Y-75872568D01*
X159446548Y-75891379D01*
X159435681Y-75903770D01*
X159247720Y-76091731D01*
X159185408Y-76125757D01*
X159114593Y-76120692D01*
X159057757Y-76078145D01*
X159038793Y-76041575D01*
X159034527Y-76028444D01*
X159025380Y-76012602D01*
X159008500Y-75949603D01*
X159008500Y-72834512D01*
X159028502Y-72766391D01*
X159082158Y-72719898D01*
X159141198Y-72708772D01*
X159143227Y-72709000D01*
X161049769Y-72709000D01*
X161052825Y-72708700D01*
X161052832Y-72708700D01*
X161111340Y-72702963D01*
X161196833Y-72694580D01*
X161202734Y-72692798D01*
X161202736Y-72692798D01*
X161323238Y-72656416D01*
X161386169Y-72637416D01*
X161560796Y-72544566D01*
X161647062Y-72474209D01*
X161709287Y-72423460D01*
X161709290Y-72423457D01*
X161714062Y-72419565D01*
X161764069Y-72359117D01*
X161836201Y-72271925D01*
X161836203Y-72271921D01*
X161840130Y-72267175D01*
X161934198Y-72093201D01*
X161992682Y-71904268D01*
X161996413Y-71868774D01*
X162012711Y-71713704D01*
X162012711Y-71713702D01*
X162013355Y-71707575D01*
X161997304Y-71531206D01*
X161995989Y-71516751D01*
X161995988Y-71516748D01*
X161995430Y-71510612D01*
X161993134Y-71502809D01*
X161954068Y-71370075D01*
X161954023Y-71299078D01*
X161992369Y-71239328D01*
X162056931Y-71209794D01*
X162074942Y-71208500D01*
X166995760Y-71208500D01*
X167063881Y-71228502D01*
X167084855Y-71245405D01*
X167127163Y-71287713D01*
X167161189Y-71350025D01*
X167156124Y-71420840D01*
X167113577Y-71477676D01*
X167064265Y-71500055D01*
X166917712Y-71531206D01*
X166911682Y-71533891D01*
X166911681Y-71533891D01*
X166749278Y-71606197D01*
X166749276Y-71606198D01*
X166743248Y-71608882D01*
X166588747Y-71721134D01*
X166584334Y-71726036D01*
X166584332Y-71726037D01*
X166562926Y-71749811D01*
X166502480Y-71787050D01*
X166469290Y-71791500D01*
X165330710Y-71791500D01*
X165262589Y-71771498D01*
X165237074Y-71749811D01*
X165215668Y-71726037D01*
X165215666Y-71726036D01*
X165211253Y-71721134D01*
X165056752Y-71608882D01*
X165050724Y-71606198D01*
X165050722Y-71606197D01*
X164888319Y-71533891D01*
X164888318Y-71533891D01*
X164882288Y-71531206D01*
X164785401Y-71510612D01*
X164701944Y-71492872D01*
X164701939Y-71492872D01*
X164695487Y-71491500D01*
X164504513Y-71491500D01*
X164498061Y-71492872D01*
X164498056Y-71492872D01*
X164414599Y-71510612D01*
X164317712Y-71531206D01*
X164311682Y-71533891D01*
X164311681Y-71533891D01*
X164149278Y-71606197D01*
X164149276Y-71606198D01*
X164143248Y-71608882D01*
X163988747Y-71721134D01*
X163984326Y-71726044D01*
X163984325Y-71726045D01*
X163962597Y-71750177D01*
X163860960Y-71863056D01*
X163765473Y-72028444D01*
X163706458Y-72210072D01*
X163686496Y-72400000D01*
X163687186Y-72406565D01*
X163700030Y-72528765D01*
X163706458Y-72589928D01*
X163765473Y-72771556D01*
X163860960Y-72936944D01*
X163865378Y-72941851D01*
X163865379Y-72941852D01*
X163976081Y-73064799D01*
X163988747Y-73078866D01*
X164143248Y-73191118D01*
X164149276Y-73193802D01*
X164149278Y-73193803D01*
X164263135Y-73244495D01*
X164317712Y-73268794D01*
X164403143Y-73286953D01*
X164498056Y-73307128D01*
X164498061Y-73307128D01*
X164504513Y-73308500D01*
X164695487Y-73308500D01*
X164701939Y-73307128D01*
X164701944Y-73307128D01*
X164796857Y-73286953D01*
X164882288Y-73268794D01*
X164936865Y-73244495D01*
X165050722Y-73193803D01*
X165050724Y-73193802D01*
X165056752Y-73191118D01*
X165129973Y-73137920D01*
X165189671Y-73094546D01*
X165211253Y-73078866D01*
X165227369Y-73060968D01*
X165237074Y-73050189D01*
X165297520Y-73012950D01*
X165330710Y-73008500D01*
X166469290Y-73008500D01*
X166537411Y-73028502D01*
X166562926Y-73050189D01*
X166572632Y-73060968D01*
X166588747Y-73078866D01*
X166610329Y-73094546D01*
X166670028Y-73137920D01*
X166743248Y-73191118D01*
X166749278Y-73193803D01*
X166749282Y-73193805D01*
X166759866Y-73198517D01*
X166813964Y-73244495D01*
X166834615Y-73312422D01*
X166815265Y-73380730D01*
X166797716Y-73402720D01*
X166673766Y-73526670D01*
X166661375Y-73537537D01*
X166636013Y-73556998D01*
X166611526Y-73588910D01*
X166611523Y-73588913D01*
X166602584Y-73600562D01*
X166558576Y-73657915D01*
X166538476Y-73684109D01*
X166516591Y-73736944D01*
X166484577Y-73814234D01*
X166477415Y-73831524D01*
X166477162Y-73832135D01*
X166461500Y-73951100D01*
X166461500Y-73951105D01*
X166456250Y-73990985D01*
X166457328Y-73999173D01*
X166460422Y-74022675D01*
X166461500Y-74039121D01*
X166461500Y-78799710D01*
X166441498Y-78867831D01*
X166429136Y-78884020D01*
X166337642Y-78985635D01*
X166330960Y-78993056D01*
X166290952Y-79062352D01*
X166242001Y-79147138D01*
X166235473Y-79158444D01*
X166176458Y-79340072D01*
X166175768Y-79346633D01*
X166175768Y-79346635D01*
X166174275Y-79360840D01*
X166156496Y-79530000D01*
X166176458Y-79719928D01*
X166235473Y-79901556D01*
X166330960Y-80066944D01*
X166335378Y-80071851D01*
X166335379Y-80071852D01*
X166358617Y-80097660D01*
X166389334Y-80161668D01*
X166380571Y-80232121D01*
X166366916Y-80256034D01*
X166365384Y-80258143D01*
X166360960Y-80263056D01*
X166265473Y-80428444D01*
X166206458Y-80610072D01*
X166205768Y-80616633D01*
X166205768Y-80616635D01*
X166203614Y-80637134D01*
X166186496Y-80800000D01*
X166187186Y-80806565D01*
X166199540Y-80924103D01*
X166206458Y-80989928D01*
X166265473Y-81171556D01*
X166360960Y-81336944D01*
X166488747Y-81478866D01*
X166587843Y-81550864D01*
X166628173Y-81580165D01*
X166643248Y-81591118D01*
X166649281Y-81593804D01*
X166649286Y-81593807D01*
X166710837Y-81621212D01*
X166764933Y-81667192D01*
X166785582Y-81735119D01*
X166766229Y-81803427D01*
X166748683Y-81825413D01*
X164806110Y-83767985D01*
X162874500Y-85699595D01*
X162812188Y-85733621D01*
X162785405Y-85736500D01*
X156558767Y-85736500D01*
X156547584Y-85735973D01*
X156540091Y-85734298D01*
X156532165Y-85734547D01*
X156532164Y-85734547D01*
X156472014Y-85736438D01*
X156468055Y-85736500D01*
X156440144Y-85736500D01*
X156436210Y-85736997D01*
X156436209Y-85736997D01*
X156436144Y-85737005D01*
X156424307Y-85737938D01*
X156392490Y-85738938D01*
X156388029Y-85739078D01*
X156380110Y-85739327D01*
X156362454Y-85744456D01*
X156360658Y-85744978D01*
X156341306Y-85748986D01*
X156334235Y-85749880D01*
X156321203Y-85751526D01*
X156313834Y-85754443D01*
X156313832Y-85754444D01*
X156280097Y-85767800D01*
X156268869Y-85771645D01*
X156226407Y-85783982D01*
X156219584Y-85788017D01*
X156219582Y-85788018D01*
X156208972Y-85794293D01*
X156191224Y-85802988D01*
X156172383Y-85810448D01*
X156165967Y-85815110D01*
X156165966Y-85815110D01*
X156136613Y-85836436D01*
X156126693Y-85842952D01*
X156095465Y-85861420D01*
X156095462Y-85861422D01*
X156088638Y-85865458D01*
X156074317Y-85879779D01*
X156059284Y-85892619D01*
X156042893Y-85904528D01*
X156037842Y-85910634D01*
X156014702Y-85938605D01*
X156006712Y-85947384D01*
X154307747Y-87646348D01*
X154299461Y-87653888D01*
X154292982Y-87658000D01*
X154287557Y-87663777D01*
X154246357Y-87707651D01*
X154243602Y-87710493D01*
X154223865Y-87730230D01*
X154221385Y-87733427D01*
X154213682Y-87742447D01*
X154183414Y-87774679D01*
X154179595Y-87781625D01*
X154179593Y-87781628D01*
X154173652Y-87792434D01*
X154162801Y-87808953D01*
X154150386Y-87824959D01*
X154147241Y-87832228D01*
X154147238Y-87832232D01*
X154132826Y-87865537D01*
X154127609Y-87876187D01*
X154106305Y-87914940D01*
X154104334Y-87922615D01*
X154104334Y-87922616D01*
X154101267Y-87934562D01*
X154094863Y-87953266D01*
X154086819Y-87971855D01*
X154085580Y-87979678D01*
X154085577Y-87979688D01*
X154079901Y-88015524D01*
X154077495Y-88027144D01*
X154066500Y-88069970D01*
X154066500Y-88090224D01*
X154064949Y-88109934D01*
X154061780Y-88129943D01*
X154062526Y-88137835D01*
X154065941Y-88173961D01*
X154066500Y-88185819D01*
X154066500Y-89297476D01*
X154046498Y-89365597D01*
X154034142Y-89381779D01*
X153960960Y-89463056D01*
X153936907Y-89504717D01*
X153872061Y-89617034D01*
X153865473Y-89628444D01*
X153806458Y-89810072D01*
X153805768Y-89816633D01*
X153805768Y-89816635D01*
X153789807Y-89968500D01*
X153786496Y-90000000D01*
X153787186Y-90006565D01*
X153787186Y-90013170D01*
X153785242Y-90013170D01*
X153774147Y-90073849D01*
X153725647Y-90125697D01*
X153656815Y-90143093D01*
X153589504Y-90120514D01*
X153572513Y-90106279D01*
X152045405Y-88579171D01*
X152011379Y-88516859D01*
X152008500Y-88490076D01*
X152008500Y-86411866D01*
X152001745Y-86349684D01*
X151950615Y-86213295D01*
X151863261Y-86096739D01*
X151746705Y-86009385D01*
X151610316Y-85958255D01*
X151548134Y-85951500D01*
X148451866Y-85951500D01*
X148389684Y-85958255D01*
X148253295Y-86009385D01*
X148136739Y-86096739D01*
X148049385Y-86213295D01*
X147998255Y-86349684D01*
X147991500Y-86411866D01*
X147991500Y-89508134D01*
X147998255Y-89570316D01*
X148049385Y-89706705D01*
X148136739Y-89823261D01*
X148253295Y-89910615D01*
X148389684Y-89961745D01*
X148451866Y-89968500D01*
X150530075Y-89968500D01*
X150598196Y-89988502D01*
X150619170Y-90005405D01*
X154983145Y-94369379D01*
X154992247Y-94379522D01*
X155015968Y-94409025D01*
X155054421Y-94441291D01*
X155058069Y-94444472D01*
X155059881Y-94446115D01*
X155062075Y-94448309D01*
X155095349Y-94475642D01*
X155096147Y-94476304D01*
X155167474Y-94536154D01*
X155172144Y-94538722D01*
X155176261Y-94542103D01*
X155234145Y-94573140D01*
X155258086Y-94585977D01*
X155259245Y-94586606D01*
X155335381Y-94628462D01*
X155335389Y-94628465D01*
X155340787Y-94631433D01*
X155345869Y-94633045D01*
X155350563Y-94635562D01*
X155356454Y-94637363D01*
X155439477Y-94662747D01*
X155440735Y-94663139D01*
X155529306Y-94691235D01*
X155534597Y-94691829D01*
X155539698Y-94693388D01*
X155632263Y-94702790D01*
X155633450Y-94702916D01*
X155662838Y-94706213D01*
X155679730Y-94708108D01*
X155679735Y-94708108D01*
X155683227Y-94708500D01*
X155686752Y-94708500D01*
X155687737Y-94708555D01*
X155693432Y-94709003D01*
X155705342Y-94710213D01*
X155730334Y-94712752D01*
X155730339Y-94712752D01*
X155736462Y-94713374D01*
X155782108Y-94709059D01*
X155793967Y-94708500D01*
X156265500Y-94708500D01*
X156333621Y-94728502D01*
X156380114Y-94782158D01*
X156391500Y-94834500D01*
X156391500Y-95549769D01*
X156405920Y-95696833D01*
X156463084Y-95886169D01*
X156555934Y-96060796D01*
X156626291Y-96147062D01*
X156677040Y-96209287D01*
X156677043Y-96209290D01*
X156680935Y-96214062D01*
X156685682Y-96217989D01*
X156685684Y-96217991D01*
X156828575Y-96336201D01*
X156828579Y-96336203D01*
X156833325Y-96340130D01*
X157007299Y-96434198D01*
X157176859Y-96486685D01*
X157196232Y-96492682D01*
X157195559Y-96494857D01*
X157249279Y-96523387D01*
X157284024Y-96585300D01*
X157286531Y-96600333D01*
X157306458Y-96789928D01*
X157365473Y-96971556D01*
X157460960Y-97136944D01*
X157465378Y-97141851D01*
X157465379Y-97141852D01*
X157561479Y-97248582D01*
X157592197Y-97312589D01*
X157583432Y-97383043D01*
X157546798Y-97431085D01*
X157490975Y-97475968D01*
X157363846Y-97627474D01*
X157360879Y-97632872D01*
X157360875Y-97632877D01*
X157303053Y-97738056D01*
X157268567Y-97800787D01*
X157266706Y-97806654D01*
X157266705Y-97806656D01*
X157236002Y-97903444D01*
X157208765Y-97989306D01*
X157191500Y-98143227D01*
X157191500Y-100049769D01*
X157191800Y-100052825D01*
X157191800Y-100052832D01*
X157192530Y-100060273D01*
X157205920Y-100196833D01*
X157207702Y-100202734D01*
X157207702Y-100202736D01*
X157210051Y-100210516D01*
X157263084Y-100386169D01*
X157355934Y-100560796D01*
X157382943Y-100593912D01*
X157477040Y-100709287D01*
X157477043Y-100709290D01*
X157480935Y-100714062D01*
X157485682Y-100717989D01*
X157485684Y-100717991D01*
X157628575Y-100836201D01*
X157628579Y-100836203D01*
X157633325Y-100840130D01*
X157807299Y-100934198D01*
X157996232Y-100992682D01*
X158002357Y-100993326D01*
X158002358Y-100993326D01*
X158186796Y-101012711D01*
X158186798Y-101012711D01*
X158192925Y-101013355D01*
X158284797Y-101004994D01*
X158383749Y-100995989D01*
X158383752Y-100995988D01*
X158389888Y-100995430D01*
X158395794Y-100993692D01*
X158395798Y-100993691D01*
X158500924Y-100962751D01*
X158579619Y-100939590D01*
X158585077Y-100936737D01*
X158585081Y-100936735D01*
X158687167Y-100883365D01*
X158754890Y-100847960D01*
X158909025Y-100724032D01*
X159036154Y-100572526D01*
X159039121Y-100567128D01*
X159039125Y-100567123D01*
X159128467Y-100404608D01*
X159131433Y-100399213D01*
X159133846Y-100391608D01*
X159189373Y-100216564D01*
X159189373Y-100216563D01*
X159191235Y-100210694D01*
X159208500Y-100056773D01*
X159208500Y-99095198D01*
X159228502Y-99027077D01*
X159282158Y-98980584D01*
X159352432Y-98970480D01*
X159408561Y-98993262D01*
X159512534Y-99068803D01*
X159543248Y-99091118D01*
X159549276Y-99093802D01*
X159549278Y-99093803D01*
X159711681Y-99166109D01*
X159717712Y-99168794D01*
X159811113Y-99188647D01*
X159898056Y-99207128D01*
X159898061Y-99207128D01*
X159904513Y-99208500D01*
X159960406Y-99208500D01*
X160028527Y-99228502D01*
X160049501Y-99245405D01*
X163224143Y-102420047D01*
X163258169Y-102482359D01*
X163253104Y-102553174D01*
X163244167Y-102572142D01*
X163165473Y-102708444D01*
X163106458Y-102890072D01*
X163086496Y-103080000D01*
X163087186Y-103086565D01*
X163100115Y-103209573D01*
X163106458Y-103269928D01*
X163165473Y-103451556D01*
X163260960Y-103616944D01*
X163388747Y-103758866D01*
X163543248Y-103871118D01*
X163549274Y-103873801D01*
X163549281Y-103873805D01*
X163677505Y-103930893D01*
X163731601Y-103976873D01*
X163752251Y-104044800D01*
X163732899Y-104113108D01*
X163679688Y-104160110D01*
X163626257Y-104172000D01*
X150049312Y-104172000D01*
X150029927Y-104170500D01*
X150015139Y-104168197D01*
X150015135Y-104168197D01*
X150006266Y-104166816D01*
X149987101Y-104169322D01*
X149986370Y-104169418D01*
X149964212Y-104170348D01*
X149637479Y-104155242D01*
X149625890Y-104154168D01*
X149272232Y-104104834D01*
X149260792Y-104102695D01*
X149242284Y-104098342D01*
X148913195Y-104020941D01*
X148902019Y-104017761D01*
X148696251Y-103948794D01*
X148563444Y-103904281D01*
X148552592Y-103900077D01*
X148225934Y-103755844D01*
X148215516Y-103750656D01*
X147903575Y-103576906D01*
X147893680Y-103570780D01*
X147599086Y-103368978D01*
X147589798Y-103361964D01*
X147315079Y-103133840D01*
X147306479Y-103125999D01*
X147053999Y-102873519D01*
X147046158Y-102864919D01*
X146818035Y-102590200D01*
X146811021Y-102580912D01*
X146609225Y-102286326D01*
X146603099Y-102276431D01*
X146429340Y-101964473D01*
X146424152Y-101954055D01*
X146407110Y-101915457D01*
X146359436Y-101807486D01*
X146279923Y-101627405D01*
X146275719Y-101616553D01*
X146194408Y-101373955D01*
X146162239Y-101277978D01*
X146159057Y-101266792D01*
X146077306Y-100919203D01*
X146075167Y-100907764D01*
X146025834Y-100554107D01*
X146024760Y-100542518D01*
X146009997Y-100223184D01*
X146011362Y-100197985D01*
X146011805Y-100195142D01*
X146011805Y-100195140D01*
X146013186Y-100186270D01*
X146011547Y-100173731D01*
X146009064Y-100154749D01*
X146008000Y-100138411D01*
X146008000Y-100000000D01*
X146486685Y-100000000D01*
X146505931Y-100367241D01*
X146563459Y-100730459D01*
X146658639Y-101085674D01*
X146790427Y-101428994D01*
X146791925Y-101431934D01*
X146949309Y-101740816D01*
X146957380Y-101756657D01*
X146959176Y-101759423D01*
X146959178Y-101759426D01*
X147005612Y-101830928D01*
X147157668Y-102065075D01*
X147389098Y-102350867D01*
X147649133Y-102610902D01*
X147934925Y-102842332D01*
X148243342Y-103042620D01*
X148246276Y-103044115D01*
X148246283Y-103044119D01*
X148406994Y-103126005D01*
X148571006Y-103209573D01*
X148914326Y-103341361D01*
X149269541Y-103436541D01*
X149462558Y-103467112D01*
X149629511Y-103493555D01*
X149629519Y-103493556D01*
X149632759Y-103494069D01*
X150000000Y-103513315D01*
X150367241Y-103494069D01*
X150370481Y-103493556D01*
X150370489Y-103493555D01*
X150537442Y-103467112D01*
X150730459Y-103436541D01*
X151085674Y-103341361D01*
X151428994Y-103209573D01*
X151593006Y-103126005D01*
X151753717Y-103044119D01*
X151753724Y-103044115D01*
X151756658Y-103042620D01*
X152065075Y-102842332D01*
X152350867Y-102610902D01*
X152610902Y-102350867D01*
X152842332Y-102065075D01*
X152994388Y-101830928D01*
X153040822Y-101759426D01*
X153040824Y-101759423D01*
X153042620Y-101756657D01*
X153050692Y-101740816D01*
X153208075Y-101431934D01*
X153209573Y-101428994D01*
X153341361Y-101085674D01*
X153436541Y-100730459D01*
X153494069Y-100367241D01*
X153513315Y-100000000D01*
X153494069Y-99632759D01*
X153436541Y-99269541D01*
X153341361Y-98914326D01*
X153209573Y-98571006D01*
X153158722Y-98471206D01*
X153044119Y-98246284D01*
X153044115Y-98246277D01*
X153042620Y-98243343D01*
X152842332Y-97934925D01*
X152610902Y-97649133D01*
X152350867Y-97389098D01*
X152065075Y-97157668D01*
X151756658Y-96957380D01*
X151753724Y-96955885D01*
X151753717Y-96955881D01*
X151431934Y-96791925D01*
X151428994Y-96790427D01*
X151108135Y-96667261D01*
X151088764Y-96659825D01*
X151088762Y-96659824D01*
X151085674Y-96658639D01*
X150730459Y-96563459D01*
X150537442Y-96532888D01*
X150370489Y-96506445D01*
X150370481Y-96506444D01*
X150367241Y-96505931D01*
X150000000Y-96486685D01*
X149632759Y-96505931D01*
X149629519Y-96506444D01*
X149629511Y-96506445D01*
X149462558Y-96532888D01*
X149269541Y-96563459D01*
X148914326Y-96658639D01*
X148911238Y-96659824D01*
X148911236Y-96659825D01*
X148891865Y-96667261D01*
X148571006Y-96790427D01*
X148568066Y-96791925D01*
X148246284Y-96955881D01*
X148246277Y-96955885D01*
X148243343Y-96957380D01*
X148240577Y-96959176D01*
X148240574Y-96959178D01*
X148212701Y-96977279D01*
X147934925Y-97157668D01*
X147649133Y-97389098D01*
X147389098Y-97649133D01*
X147157668Y-97934925D01*
X146957380Y-98243343D01*
X146955885Y-98246277D01*
X146955881Y-98246284D01*
X146841278Y-98471206D01*
X146790427Y-98571006D01*
X146658639Y-98914326D01*
X146563459Y-99269541D01*
X146505931Y-99632759D01*
X146486685Y-100000000D01*
X146008000Y-100000000D01*
X146008000Y-93018918D01*
X147986917Y-93018918D01*
X148002682Y-93292320D01*
X148003507Y-93296525D01*
X148003508Y-93296533D01*
X148022520Y-93393435D01*
X148055405Y-93561053D01*
X148056792Y-93565103D01*
X148056793Y-93565108D01*
X148129436Y-93777279D01*
X148144112Y-93820144D01*
X148146039Y-93823975D01*
X148263167Y-94056859D01*
X148267160Y-94064799D01*
X148269586Y-94068328D01*
X148269589Y-94068334D01*
X148359777Y-94199557D01*
X148422274Y-94290490D01*
X148425161Y-94293663D01*
X148425162Y-94293664D01*
X148590625Y-94475506D01*
X148606582Y-94493043D01*
X148609877Y-94495798D01*
X148609878Y-94495799D01*
X148668739Y-94545014D01*
X148816675Y-94668707D01*
X148820316Y-94670991D01*
X149045024Y-94811951D01*
X149045028Y-94811953D01*
X149048664Y-94814234D01*
X149116544Y-94844883D01*
X149294345Y-94925164D01*
X149294349Y-94925166D01*
X149298257Y-94926930D01*
X149302377Y-94928150D01*
X149302376Y-94928150D01*
X149556723Y-95003491D01*
X149556727Y-95003492D01*
X149560836Y-95004709D01*
X149565070Y-95005357D01*
X149565075Y-95005358D01*
X149827298Y-95045483D01*
X149827300Y-95045483D01*
X149831540Y-95046132D01*
X149970912Y-95048322D01*
X150101071Y-95050367D01*
X150101077Y-95050367D01*
X150105362Y-95050434D01*
X150377235Y-95017534D01*
X150642127Y-94948041D01*
X150646087Y-94946401D01*
X150646092Y-94946399D01*
X150801182Y-94882158D01*
X150895136Y-94843241D01*
X151022537Y-94768794D01*
X151127879Y-94707237D01*
X151127880Y-94707236D01*
X151131582Y-94705073D01*
X151347089Y-94536094D01*
X151350868Y-94532195D01*
X151486834Y-94391889D01*
X151537669Y-94339431D01*
X151540202Y-94335983D01*
X151540206Y-94335978D01*
X151697257Y-94122178D01*
X151699795Y-94118723D01*
X151704244Y-94110529D01*
X151828418Y-93881830D01*
X151828419Y-93881828D01*
X151830468Y-93878054D01*
X151911752Y-93662942D01*
X151925751Y-93625895D01*
X151925752Y-93625891D01*
X151927269Y-93621877D01*
X151976582Y-93406565D01*
X151987449Y-93359117D01*
X151987450Y-93359113D01*
X151988407Y-93354933D01*
X151991959Y-93315139D01*
X152012531Y-93084627D01*
X152012531Y-93084625D01*
X152012751Y-93082161D01*
X152013193Y-93040000D01*
X152007316Y-92953784D01*
X151994859Y-92771055D01*
X151994858Y-92771049D01*
X151994567Y-92766778D01*
X151985115Y-92721134D01*
X151954028Y-92571024D01*
X151939032Y-92498612D01*
X151847617Y-92240465D01*
X151722013Y-91997112D01*
X151712040Y-91982921D01*
X151599393Y-91822641D01*
X151564545Y-91773057D01*
X151378125Y-91572445D01*
X151374810Y-91569731D01*
X151374806Y-91569728D01*
X151202751Y-91428903D01*
X151166205Y-91398990D01*
X150932704Y-91255901D01*
X150928768Y-91254173D01*
X150685873Y-91147549D01*
X150685869Y-91147548D01*
X150681945Y-91145825D01*
X150418566Y-91070800D01*
X150414324Y-91070196D01*
X150414318Y-91070195D01*
X150213834Y-91041662D01*
X150147443Y-91032213D01*
X150003589Y-91031460D01*
X149877877Y-91030802D01*
X149877871Y-91030802D01*
X149873591Y-91030780D01*
X149869347Y-91031339D01*
X149869343Y-91031339D01*
X149750302Y-91047011D01*
X149602078Y-91066525D01*
X149597938Y-91067658D01*
X149597936Y-91067658D01*
X149525008Y-91087609D01*
X149337928Y-91138788D01*
X149333980Y-91140472D01*
X149089982Y-91244546D01*
X149089978Y-91244548D01*
X149086030Y-91246232D01*
X149066125Y-91258145D01*
X148854725Y-91384664D01*
X148854721Y-91384667D01*
X148851043Y-91386868D01*
X148637318Y-91558094D01*
X148448808Y-91756742D01*
X148289002Y-91979136D01*
X148160857Y-92221161D01*
X148159385Y-92225184D01*
X148159383Y-92225188D01*
X148069646Y-92470405D01*
X148066743Y-92478337D01*
X148008404Y-92745907D01*
X147986917Y-93018918D01*
X146008000Y-93018918D01*
X146008000Y-82518918D01*
X147986917Y-82518918D01*
X148002682Y-82792320D01*
X148003507Y-82796525D01*
X148003508Y-82796533D01*
X148011648Y-82838022D01*
X148055405Y-83061053D01*
X148056792Y-83065103D01*
X148056793Y-83065108D01*
X148141948Y-83313824D01*
X148144112Y-83320144D01*
X148146039Y-83323975D01*
X148250265Y-83531206D01*
X148267160Y-83564799D01*
X148269586Y-83568328D01*
X148269589Y-83568334D01*
X148377982Y-83726045D01*
X148422274Y-83790490D01*
X148425161Y-83793663D01*
X148425162Y-83793664D01*
X148550589Y-83931507D01*
X148606582Y-83993043D01*
X148816675Y-84168707D01*
X148820316Y-84170991D01*
X149045024Y-84311951D01*
X149045028Y-84311953D01*
X149048664Y-84314234D01*
X149116544Y-84344883D01*
X149294345Y-84425164D01*
X149294349Y-84425166D01*
X149298257Y-84426930D01*
X149302377Y-84428150D01*
X149302376Y-84428150D01*
X149556723Y-84503491D01*
X149556727Y-84503492D01*
X149560836Y-84504709D01*
X149565070Y-84505357D01*
X149565075Y-84505358D01*
X149827298Y-84545483D01*
X149827300Y-84545483D01*
X149831540Y-84546132D01*
X149970912Y-84548322D01*
X150101071Y-84550367D01*
X150101077Y-84550367D01*
X150105362Y-84550434D01*
X150377235Y-84517534D01*
X150642127Y-84448041D01*
X150646087Y-84446401D01*
X150646092Y-84446399D01*
X150758108Y-84400000D01*
X154686496Y-84400000D01*
X154706458Y-84589928D01*
X154765473Y-84771556D01*
X154860960Y-84936944D01*
X154988747Y-85078866D01*
X155143248Y-85191118D01*
X155149276Y-85193802D01*
X155149278Y-85193803D01*
X155311681Y-85266109D01*
X155317712Y-85268794D01*
X155411113Y-85288647D01*
X155498056Y-85307128D01*
X155498061Y-85307128D01*
X155504513Y-85308500D01*
X155695487Y-85308500D01*
X155701939Y-85307128D01*
X155701944Y-85307128D01*
X155788887Y-85288647D01*
X155882288Y-85268794D01*
X155888319Y-85266109D01*
X156050722Y-85193803D01*
X156050724Y-85193802D01*
X156056752Y-85191118D01*
X156211253Y-85078866D01*
X156339040Y-84936944D01*
X156434527Y-84771556D01*
X156493542Y-84589928D01*
X156513504Y-84400000D01*
X156507711Y-84344883D01*
X156494232Y-84216635D01*
X156494232Y-84216633D01*
X156493542Y-84210072D01*
X156434527Y-84028444D01*
X156339040Y-83863056D01*
X156320540Y-83842509D01*
X156215675Y-83726045D01*
X156215674Y-83726044D01*
X156211253Y-83721134D01*
X156112157Y-83649136D01*
X156062094Y-83612763D01*
X156062093Y-83612762D01*
X156056752Y-83608882D01*
X156050724Y-83606198D01*
X156050722Y-83606197D01*
X155888319Y-83533891D01*
X155888318Y-83533891D01*
X155882288Y-83531206D01*
X155758943Y-83504988D01*
X155701944Y-83492872D01*
X155701939Y-83492872D01*
X155695487Y-83491500D01*
X155504513Y-83491500D01*
X155498061Y-83492872D01*
X155498056Y-83492872D01*
X155441057Y-83504988D01*
X155317712Y-83531206D01*
X155311682Y-83533891D01*
X155311681Y-83533891D01*
X155149278Y-83606197D01*
X155149276Y-83606198D01*
X155143248Y-83608882D01*
X155137907Y-83612762D01*
X155137906Y-83612763D01*
X155087843Y-83649136D01*
X154988747Y-83721134D01*
X154984326Y-83726044D01*
X154984325Y-83726045D01*
X154879461Y-83842509D01*
X154860960Y-83863056D01*
X154765473Y-84028444D01*
X154706458Y-84210072D01*
X154705768Y-84216633D01*
X154705768Y-84216635D01*
X154692289Y-84344883D01*
X154686496Y-84400000D01*
X150758108Y-84400000D01*
X150773957Y-84393435D01*
X150895136Y-84343241D01*
X151131582Y-84205073D01*
X151347089Y-84036094D01*
X151354503Y-84028444D01*
X151471059Y-83908167D01*
X151537669Y-83839431D01*
X151540202Y-83835983D01*
X151540206Y-83835978D01*
X151697257Y-83622178D01*
X151699795Y-83618723D01*
X151727154Y-83568334D01*
X151828418Y-83381830D01*
X151828419Y-83381828D01*
X151830468Y-83378054D01*
X151927269Y-83121877D01*
X151964933Y-82957425D01*
X151987449Y-82859117D01*
X151987450Y-82859113D01*
X151988407Y-82854933D01*
X151989917Y-82838022D01*
X152012531Y-82584627D01*
X152012531Y-82584625D01*
X152012751Y-82582161D01*
X152013193Y-82540000D01*
X151998708Y-82327522D01*
X151994859Y-82271055D01*
X151994858Y-82271049D01*
X151994567Y-82266778D01*
X151939032Y-81998612D01*
X151847617Y-81740465D01*
X151722013Y-81497112D01*
X151712040Y-81482921D01*
X151567008Y-81276562D01*
X151564545Y-81273057D01*
X151378125Y-81072445D01*
X151374810Y-81069731D01*
X151374806Y-81069728D01*
X151210164Y-80934970D01*
X151166205Y-80898990D01*
X150968001Y-80777531D01*
X150936366Y-80758145D01*
X150936365Y-80758145D01*
X150932704Y-80755901D01*
X150928768Y-80754173D01*
X150685873Y-80647549D01*
X150685869Y-80647548D01*
X150681945Y-80645825D01*
X150418566Y-80570800D01*
X150414324Y-80570196D01*
X150414318Y-80570195D01*
X150213834Y-80541662D01*
X150147443Y-80532213D01*
X150003589Y-80531460D01*
X149877877Y-80530802D01*
X149877871Y-80530802D01*
X149873591Y-80530780D01*
X149869347Y-80531339D01*
X149869343Y-80531339D01*
X149750302Y-80547011D01*
X149602078Y-80566525D01*
X149597938Y-80567658D01*
X149597936Y-80567658D01*
X149525008Y-80587609D01*
X149337928Y-80638788D01*
X149333980Y-80640472D01*
X149089982Y-80744546D01*
X149089978Y-80744548D01*
X149086030Y-80746232D01*
X149066125Y-80758145D01*
X148854725Y-80884664D01*
X148854721Y-80884667D01*
X148851043Y-80886868D01*
X148637318Y-81058094D01*
X148448808Y-81256742D01*
X148289002Y-81479136D01*
X148160857Y-81721161D01*
X148159385Y-81725184D01*
X148159383Y-81725188D01*
X148122706Y-81825413D01*
X148066743Y-81978337D01*
X148008404Y-82245907D01*
X147986917Y-82518918D01*
X146008000Y-82518918D01*
X146008000Y-79004669D01*
X147992001Y-79004669D01*
X147992371Y-79011490D01*
X147997895Y-79062352D01*
X148001521Y-79077604D01*
X148046676Y-79198054D01*
X148055214Y-79213649D01*
X148131715Y-79315724D01*
X148144276Y-79328285D01*
X148246351Y-79404786D01*
X148261946Y-79413324D01*
X148382394Y-79458478D01*
X148397649Y-79462105D01*
X148448514Y-79467631D01*
X148455328Y-79468000D01*
X149727885Y-79468000D01*
X149743124Y-79463525D01*
X149744329Y-79462135D01*
X149746000Y-79454452D01*
X149746000Y-79449884D01*
X150254000Y-79449884D01*
X150258475Y-79465123D01*
X150259865Y-79466328D01*
X150267548Y-79467999D01*
X151544669Y-79467999D01*
X151551490Y-79467629D01*
X151602352Y-79462105D01*
X151617604Y-79458479D01*
X151738054Y-79413324D01*
X151753649Y-79404786D01*
X151855724Y-79328285D01*
X151868285Y-79315724D01*
X151944786Y-79213649D01*
X151953324Y-79198054D01*
X151998478Y-79077606D01*
X152002105Y-79062351D01*
X152007631Y-79011486D01*
X152008000Y-79004672D01*
X152008000Y-77732115D01*
X152003525Y-77716876D01*
X152002135Y-77715671D01*
X151994452Y-77714000D01*
X150272115Y-77714000D01*
X150256876Y-77718475D01*
X150255671Y-77719865D01*
X150254000Y-77727548D01*
X150254000Y-79449884D01*
X149746000Y-79449884D01*
X149746000Y-77732115D01*
X149741525Y-77716876D01*
X149740135Y-77715671D01*
X149732452Y-77714000D01*
X148010116Y-77714000D01*
X147994877Y-77718475D01*
X147993672Y-77719865D01*
X147992001Y-77727548D01*
X147992001Y-79004669D01*
X146008000Y-79004669D01*
X146008000Y-77187885D01*
X147992000Y-77187885D01*
X147996475Y-77203124D01*
X147997865Y-77204329D01*
X148005548Y-77206000D01*
X149727885Y-77206000D01*
X149743124Y-77201525D01*
X149744329Y-77200135D01*
X149746000Y-77192452D01*
X149746000Y-77187885D01*
X150254000Y-77187885D01*
X150258475Y-77203124D01*
X150259865Y-77204329D01*
X150267548Y-77206000D01*
X151989884Y-77206000D01*
X152005123Y-77201525D01*
X152006328Y-77200135D01*
X152007999Y-77192452D01*
X152007999Y-75915331D01*
X152007629Y-75908510D01*
X152002105Y-75857648D01*
X151998479Y-75842396D01*
X151953324Y-75721946D01*
X151944786Y-75706351D01*
X151868285Y-75604276D01*
X151855724Y-75591715D01*
X151753649Y-75515214D01*
X151738054Y-75506676D01*
X151617606Y-75461522D01*
X151602351Y-75457895D01*
X151551486Y-75452369D01*
X151544672Y-75452000D01*
X150272115Y-75452000D01*
X150256876Y-75456475D01*
X150255671Y-75457865D01*
X150254000Y-75465548D01*
X150254000Y-77187885D01*
X149746000Y-77187885D01*
X149746000Y-75470116D01*
X149741525Y-75454877D01*
X149740135Y-75453672D01*
X149732452Y-75452001D01*
X148455331Y-75452001D01*
X148448510Y-75452371D01*
X148397648Y-75457895D01*
X148382396Y-75461521D01*
X148261946Y-75506676D01*
X148246351Y-75515214D01*
X148144276Y-75591715D01*
X148131715Y-75604276D01*
X148055214Y-75706351D01*
X148046676Y-75721946D01*
X148001522Y-75842394D01*
X147997895Y-75857649D01*
X147992369Y-75908514D01*
X147992000Y-75915328D01*
X147992000Y-77187885D01*
X146008000Y-77187885D01*
X146008000Y-72018918D01*
X147986917Y-72018918D01*
X148002682Y-72292320D01*
X148003507Y-72296525D01*
X148003508Y-72296533D01*
X148033917Y-72451526D01*
X148055405Y-72561053D01*
X148056792Y-72565103D01*
X148056793Y-72565108D01*
X148129436Y-72777279D01*
X148144112Y-72820144D01*
X148159872Y-72851479D01*
X148248905Y-73028502D01*
X148267160Y-73064799D01*
X148269586Y-73068328D01*
X148269589Y-73068334D01*
X148390662Y-73244495D01*
X148422274Y-73290490D01*
X148606582Y-73493043D01*
X148609877Y-73495798D01*
X148609878Y-73495799D01*
X148661241Y-73538745D01*
X148816675Y-73668707D01*
X148820316Y-73670991D01*
X149045024Y-73811951D01*
X149045028Y-73811953D01*
X149048664Y-73814234D01*
X149116544Y-73844883D01*
X149294345Y-73925164D01*
X149294349Y-73925166D01*
X149298257Y-73926930D01*
X149361393Y-73945632D01*
X149556723Y-74003491D01*
X149556727Y-74003492D01*
X149560836Y-74004709D01*
X149565070Y-74005357D01*
X149565075Y-74005358D01*
X149827298Y-74045483D01*
X149827300Y-74045483D01*
X149831540Y-74046132D01*
X149970912Y-74048322D01*
X150101071Y-74050367D01*
X150101077Y-74050367D01*
X150105362Y-74050434D01*
X150377235Y-74017534D01*
X150642127Y-73948041D01*
X150646087Y-73946401D01*
X150646092Y-73946399D01*
X150820986Y-73873955D01*
X150895136Y-73843241D01*
X151077041Y-73736944D01*
X151127879Y-73707237D01*
X151127880Y-73707236D01*
X151131582Y-73705073D01*
X151347089Y-73536094D01*
X151350562Y-73532511D01*
X151534686Y-73342509D01*
X151537669Y-73339431D01*
X151540202Y-73335983D01*
X151540206Y-73335978D01*
X151697257Y-73122178D01*
X151699795Y-73118723D01*
X151727154Y-73068334D01*
X151828418Y-72881830D01*
X151828419Y-72881828D01*
X151830468Y-72878054D01*
X151914218Y-72656416D01*
X151925751Y-72625895D01*
X151925752Y-72625891D01*
X151927269Y-72621877D01*
X151954277Y-72503954D01*
X151987449Y-72359117D01*
X151987450Y-72359113D01*
X151988407Y-72354933D01*
X152001336Y-72210072D01*
X152012531Y-72084627D01*
X152012531Y-72084625D01*
X152012751Y-72082161D01*
X152013193Y-72040000D01*
X152009972Y-71992754D01*
X151994859Y-71771055D01*
X151994858Y-71771049D01*
X151994567Y-71766778D01*
X151985115Y-71721134D01*
X151939901Y-71502809D01*
X151939032Y-71498612D01*
X151847617Y-71240465D01*
X151741303Y-71034486D01*
X151723978Y-71000919D01*
X151723978Y-71000918D01*
X151722013Y-70997112D01*
X151712040Y-70982921D01*
X151590081Y-70809391D01*
X151564545Y-70773057D01*
X151486832Y-70689428D01*
X151381046Y-70575588D01*
X151381043Y-70575585D01*
X151378125Y-70572445D01*
X151374810Y-70569731D01*
X151374806Y-70569728D01*
X151189082Y-70417715D01*
X151166205Y-70398990D01*
X150932704Y-70255901D01*
X150928768Y-70254173D01*
X150685873Y-70147549D01*
X150685869Y-70147548D01*
X150681945Y-70145825D01*
X150418566Y-70070800D01*
X150414324Y-70070196D01*
X150414318Y-70070195D01*
X150213834Y-70041662D01*
X150147443Y-70032213D01*
X150003589Y-70031460D01*
X149877877Y-70030802D01*
X149877871Y-70030802D01*
X149873591Y-70030780D01*
X149869347Y-70031339D01*
X149869343Y-70031339D01*
X149750302Y-70047011D01*
X149602078Y-70066525D01*
X149597938Y-70067658D01*
X149597936Y-70067658D01*
X149525008Y-70087609D01*
X149337928Y-70138788D01*
X149333980Y-70140472D01*
X149089982Y-70244546D01*
X149089978Y-70244548D01*
X149086030Y-70246232D01*
X149066125Y-70258145D01*
X148854725Y-70384664D01*
X148854721Y-70384667D01*
X148851043Y-70386868D01*
X148637318Y-70558094D01*
X148559229Y-70640383D01*
X148473043Y-70731204D01*
X148448808Y-70756742D01*
X148289002Y-70979136D01*
X148160857Y-71221161D01*
X148159385Y-71225184D01*
X148159383Y-71225188D01*
X148087784Y-71420840D01*
X148066743Y-71478337D01*
X148008404Y-71745907D01*
X147986917Y-72018918D01*
X146008000Y-72018918D01*
X146008000Y-68508134D01*
X147991500Y-68508134D01*
X147998255Y-68570316D01*
X148049385Y-68706705D01*
X148136739Y-68823261D01*
X148253295Y-68910615D01*
X148389684Y-68961745D01*
X148451866Y-68968500D01*
X151548134Y-68968500D01*
X151610316Y-68961745D01*
X151746705Y-68910615D01*
X151863261Y-68823261D01*
X151950615Y-68706705D01*
X152001745Y-68570316D01*
X152008500Y-68508134D01*
X152008500Y-65411866D01*
X152001745Y-65349684D01*
X151950615Y-65213295D01*
X151863261Y-65096739D01*
X151746705Y-65009385D01*
X151610316Y-64958255D01*
X151548134Y-64951500D01*
X148451866Y-64951500D01*
X148389684Y-64958255D01*
X148253295Y-65009385D01*
X148136739Y-65096739D01*
X148049385Y-65213295D01*
X147998255Y-65349684D01*
X147991500Y-65411866D01*
X147991500Y-68508134D01*
X146008000Y-68508134D01*
X146008000Y-60229321D01*
X146009500Y-60209936D01*
X146011804Y-60195142D01*
X146011804Y-60195138D01*
X146013185Y-60186269D01*
X146010583Y-60166373D01*
X146009653Y-60144215D01*
X146016321Y-60000000D01*
X146486685Y-60000000D01*
X146505931Y-60367241D01*
X146563459Y-60730459D01*
X146658639Y-61085674D01*
X146659824Y-61088762D01*
X146659825Y-61088764D01*
X146699262Y-61191500D01*
X146790427Y-61428994D01*
X146791925Y-61431934D01*
X146943005Y-61728444D01*
X146957380Y-61756657D01*
X147157668Y-62065075D01*
X147389098Y-62350867D01*
X147649133Y-62610902D01*
X147934925Y-62842332D01*
X147937700Y-62844134D01*
X148190802Y-63008500D01*
X148243342Y-63042620D01*
X148246276Y-63044115D01*
X148246283Y-63044119D01*
X148568066Y-63208075D01*
X148571006Y-63209573D01*
X148914326Y-63341361D01*
X149269541Y-63436541D01*
X149462558Y-63467112D01*
X149629511Y-63493555D01*
X149629519Y-63493556D01*
X149632759Y-63494069D01*
X150000000Y-63513315D01*
X150367241Y-63494069D01*
X150370481Y-63493556D01*
X150370489Y-63493555D01*
X150537442Y-63467112D01*
X150730459Y-63436541D01*
X151085674Y-63341361D01*
X151428994Y-63209573D01*
X151431934Y-63208075D01*
X151753717Y-63044119D01*
X151753724Y-63044115D01*
X151756658Y-63042620D01*
X151809199Y-63008500D01*
X152062300Y-62844134D01*
X152065075Y-62842332D01*
X152350867Y-62610902D01*
X152610902Y-62350867D01*
X152814050Y-62100000D01*
X158186496Y-62100000D01*
X158206458Y-62289928D01*
X158265473Y-62471556D01*
X158360960Y-62636944D01*
X158488747Y-62778866D01*
X158643248Y-62891118D01*
X158649276Y-62893802D01*
X158649278Y-62893803D01*
X158741200Y-62934729D01*
X158817712Y-62968794D01*
X158911113Y-62988647D01*
X158998056Y-63007128D01*
X158998061Y-63007128D01*
X159004513Y-63008500D01*
X159195487Y-63008500D01*
X159201939Y-63007128D01*
X159201944Y-63007128D01*
X159288887Y-62988647D01*
X159382288Y-62968794D01*
X159458800Y-62934729D01*
X159550722Y-62893803D01*
X159550724Y-62893802D01*
X159556752Y-62891118D01*
X159711253Y-62778866D01*
X159839040Y-62636944D01*
X159934527Y-62471556D01*
X159937176Y-62473085D01*
X159974650Y-62429086D01*
X160043671Y-62408500D01*
X160095487Y-62408500D01*
X160101939Y-62407128D01*
X160101944Y-62407128D01*
X160188888Y-62388647D01*
X160282288Y-62368794D01*
X160288319Y-62366109D01*
X160450722Y-62293803D01*
X160450724Y-62293802D01*
X160456752Y-62291118D01*
X160611253Y-62178866D01*
X160713711Y-62065075D01*
X160734621Y-62041852D01*
X160734622Y-62041851D01*
X160739040Y-62036944D01*
X160834527Y-61871556D01*
X160893542Y-61689928D01*
X160907393Y-61558148D01*
X160912814Y-61506565D01*
X160913504Y-61500000D01*
X160893542Y-61310072D01*
X160834527Y-61128444D01*
X160739040Y-60963056D01*
X160611253Y-60821134D01*
X160456752Y-60708882D01*
X160450724Y-60706198D01*
X160450722Y-60706197D01*
X160288319Y-60633891D01*
X160288318Y-60633891D01*
X160282288Y-60631206D01*
X160188887Y-60611353D01*
X160101944Y-60592872D01*
X160101939Y-60592872D01*
X160095487Y-60591500D01*
X159904513Y-60591500D01*
X159898061Y-60592872D01*
X159898056Y-60592872D01*
X159811113Y-60611353D01*
X159717712Y-60631206D01*
X159711682Y-60633891D01*
X159711681Y-60633891D01*
X159549278Y-60706197D01*
X159549276Y-60706198D01*
X159543248Y-60708882D01*
X159388747Y-60821134D01*
X159260960Y-60963056D01*
X159165473Y-61128444D01*
X159162824Y-61126915D01*
X159125350Y-61170914D01*
X159056329Y-61191500D01*
X159004513Y-61191500D01*
X158998061Y-61192872D01*
X158998056Y-61192872D01*
X158911113Y-61211353D01*
X158817712Y-61231206D01*
X158811682Y-61233891D01*
X158811681Y-61233891D01*
X158649278Y-61306197D01*
X158649276Y-61306198D01*
X158643248Y-61308882D01*
X158488747Y-61421134D01*
X158360960Y-61563056D01*
X158265473Y-61728444D01*
X158206458Y-61910072D01*
X158205768Y-61916633D01*
X158205768Y-61916635D01*
X158190458Y-62062300D01*
X158186496Y-62100000D01*
X152814050Y-62100000D01*
X152842332Y-62065075D01*
X153042620Y-61756657D01*
X153056996Y-61728444D01*
X153208075Y-61431934D01*
X153209573Y-61428994D01*
X153300738Y-61191500D01*
X153340175Y-61088764D01*
X153340176Y-61088762D01*
X153341361Y-61085674D01*
X153436541Y-60730459D01*
X153494069Y-60367241D01*
X153513315Y-60000000D01*
X153494069Y-59632759D01*
X153436541Y-59269541D01*
X153341361Y-58914326D01*
X153209573Y-58571006D01*
X153200150Y-58552513D01*
X153044119Y-58246284D01*
X153044115Y-58246277D01*
X153042620Y-58243343D01*
X152842332Y-57934925D01*
X152610902Y-57649133D01*
X152350867Y-57389098D01*
X152065075Y-57157668D01*
X151837797Y-57010072D01*
X151759427Y-56959178D01*
X151759424Y-56959176D01*
X151756658Y-56957380D01*
X151753724Y-56955885D01*
X151753717Y-56955881D01*
X151431934Y-56791925D01*
X151428994Y-56790427D01*
X151085674Y-56658639D01*
X150730459Y-56563459D01*
X150537442Y-56532888D01*
X150370489Y-56506445D01*
X150370481Y-56506444D01*
X150367241Y-56505931D01*
X150000000Y-56486685D01*
X149632759Y-56505931D01*
X149629519Y-56506444D01*
X149629511Y-56506445D01*
X149462558Y-56532888D01*
X149269541Y-56563459D01*
X148914326Y-56658639D01*
X148571006Y-56790427D01*
X148568066Y-56791925D01*
X148246284Y-56955881D01*
X148246277Y-56955885D01*
X148243343Y-56957380D01*
X148240577Y-56959176D01*
X148240574Y-56959178D01*
X148186471Y-56994313D01*
X147934925Y-57157668D01*
X147649133Y-57389098D01*
X147389098Y-57649133D01*
X147157668Y-57934925D01*
X146957380Y-58243343D01*
X146955885Y-58246277D01*
X146955881Y-58246284D01*
X146799850Y-58552513D01*
X146790427Y-58571006D01*
X146658639Y-58914326D01*
X146563459Y-59269541D01*
X146505931Y-59632759D01*
X146486685Y-60000000D01*
X146016321Y-60000000D01*
X146024759Y-59817481D01*
X146025833Y-59805892D01*
X146075166Y-59452235D01*
X146077305Y-59440795D01*
X146159058Y-59093203D01*
X146162243Y-59082010D01*
X146206637Y-58949556D01*
X146275718Y-58743445D01*
X146279920Y-58732597D01*
X146424156Y-58405936D01*
X146429336Y-58395531D01*
X146603104Y-58083558D01*
X146609220Y-58073681D01*
X146811022Y-57779087D01*
X146818036Y-57769799D01*
X147046159Y-57495080D01*
X147054000Y-57486480D01*
X147306480Y-57234000D01*
X147315080Y-57226159D01*
X147317424Y-57224213D01*
X147567401Y-57016635D01*
X147589799Y-56998036D01*
X147599087Y-56991022D01*
X147891919Y-56790427D01*
X147893682Y-56789219D01*
X147903558Y-56783104D01*
X148215531Y-56609336D01*
X148225936Y-56604156D01*
X148448393Y-56505931D01*
X148552601Y-56459918D01*
X148563446Y-56455718D01*
X148902012Y-56342242D01*
X148913200Y-56339059D01*
X149260795Y-56257305D01*
X149272235Y-56255166D01*
X149625892Y-56205833D01*
X149637480Y-56204759D01*
X149658610Y-56203782D01*
X149956815Y-56189996D01*
X149982014Y-56191361D01*
X149984857Y-56191804D01*
X149984859Y-56191804D01*
X149993729Y-56193185D01*
X150002631Y-56192021D01*
X150002634Y-56192021D01*
X150022790Y-56189385D01*
X150025251Y-56189063D01*
X150041588Y-56187999D01*
X150075192Y-56187999D01*
X166059482Y-56187998D01*
X166127602Y-56208000D01*
G37*
%TD.AperFunction*%
%TA.AperFunction,Conductor*%
G36*
X169970063Y-56189498D02*
G01*
X169984857Y-56191802D01*
X169984861Y-56191802D01*
X169993730Y-56193183D01*
X170013626Y-56190581D01*
X170035784Y-56189651D01*
X170362517Y-56204757D01*
X170374106Y-56205831D01*
X170727764Y-56255165D01*
X170739203Y-56257304D01*
X170873862Y-56288975D01*
X171086796Y-56339056D01*
X171097978Y-56342237D01*
X171436563Y-56455720D01*
X171447388Y-56459913D01*
X171774063Y-56604155D01*
X171784467Y-56609335D01*
X172096440Y-56783103D01*
X172106317Y-56789219D01*
X172400911Y-56991021D01*
X172410199Y-56998035D01*
X172684912Y-57226153D01*
X172693513Y-57233994D01*
X172946004Y-57486486D01*
X172953844Y-57495086D01*
X173181962Y-57769798D01*
X173188976Y-57779086D01*
X173390778Y-58073681D01*
X173396903Y-58083574D01*
X173443141Y-58166587D01*
X173570654Y-58395517D01*
X173575842Y-58405935D01*
X173720075Y-58732593D01*
X173724279Y-58743445D01*
X173837756Y-59082010D01*
X173837756Y-59082011D01*
X173840941Y-59093205D01*
X173922693Y-59440794D01*
X173924832Y-59452234D01*
X173974165Y-59805892D01*
X173975239Y-59817481D01*
X173990002Y-60136814D01*
X173988637Y-60162013D01*
X173986813Y-60173728D01*
X173987977Y-60182630D01*
X173987977Y-60182633D01*
X173990935Y-60205249D01*
X173991999Y-60221587D01*
X173991999Y-100130679D01*
X173990499Y-100150064D01*
X173988195Y-100164858D01*
X173988195Y-100164862D01*
X173986814Y-100173731D01*
X173989033Y-100190699D01*
X173989416Y-100193627D01*
X173990346Y-100215785D01*
X173975240Y-100542518D01*
X173974166Y-100554107D01*
X173924832Y-100907765D01*
X173922693Y-100919204D01*
X173840942Y-101266793D01*
X173837760Y-101277979D01*
X173724277Y-101616564D01*
X173720084Y-101627389D01*
X173595900Y-101908637D01*
X173575842Y-101954064D01*
X173570662Y-101964468D01*
X173396894Y-102276441D01*
X173390779Y-102286317D01*
X173389588Y-102288055D01*
X173188976Y-102580912D01*
X173181962Y-102590200D01*
X172953844Y-102864913D01*
X172946003Y-102873514D01*
X172693511Y-103126005D01*
X172684911Y-103133845D01*
X172410199Y-103361963D01*
X172400911Y-103368977D01*
X172106316Y-103570779D01*
X172096421Y-103576905D01*
X171784480Y-103750655D01*
X171774062Y-103755843D01*
X171447404Y-103900076D01*
X171436552Y-103904280D01*
X171303742Y-103948794D01*
X171097982Y-104017758D01*
X171086801Y-104020940D01*
X170757707Y-104098342D01*
X170739203Y-104102694D01*
X170727763Y-104104833D01*
X170374105Y-104154166D01*
X170362516Y-104155240D01*
X170341948Y-104156191D01*
X170043183Y-104170003D01*
X170017984Y-104168638D01*
X170015141Y-104168195D01*
X170015139Y-104168195D01*
X170006269Y-104166814D01*
X169997367Y-104167978D01*
X169997364Y-104167978D01*
X169979244Y-104170348D01*
X169975314Y-104170862D01*
X169974748Y-104170936D01*
X169958410Y-104172000D01*
X164373743Y-104172000D01*
X164305622Y-104151998D01*
X164259129Y-104098342D01*
X164249025Y-104028068D01*
X164278519Y-103963488D01*
X164322495Y-103930893D01*
X164450719Y-103873805D01*
X164450726Y-103873801D01*
X164456752Y-103871118D01*
X164611253Y-103758866D01*
X164739040Y-103616944D01*
X164834527Y-103451556D01*
X164893542Y-103269928D01*
X164899886Y-103209573D01*
X164912814Y-103086565D01*
X164913504Y-103080000D01*
X164893542Y-102890072D01*
X164834527Y-102708444D01*
X164739040Y-102543056D01*
X164665972Y-102461906D01*
X164635257Y-102397903D01*
X164634205Y-102366786D01*
X164635702Y-102360091D01*
X164633562Y-102292014D01*
X164633500Y-102288055D01*
X164633500Y-102260144D01*
X164632995Y-102256144D01*
X164632062Y-102244301D01*
X164630922Y-102208029D01*
X164630673Y-102200110D01*
X164625022Y-102180658D01*
X164621014Y-102161306D01*
X164619467Y-102149063D01*
X164618474Y-102141203D01*
X164615556Y-102133832D01*
X164602200Y-102100097D01*
X164598355Y-102088870D01*
X164592190Y-102067651D01*
X164586018Y-102046407D01*
X164581984Y-102039585D01*
X164581981Y-102039579D01*
X164575706Y-102028968D01*
X164567010Y-102011218D01*
X164562472Y-101999756D01*
X164562469Y-101999751D01*
X164559552Y-101992383D01*
X164539280Y-101964481D01*
X164533573Y-101956625D01*
X164527057Y-101946707D01*
X164508575Y-101915457D01*
X164504542Y-101908637D01*
X164490218Y-101894313D01*
X164477376Y-101879278D01*
X164465472Y-101862893D01*
X164431406Y-101834711D01*
X164422627Y-101826722D01*
X164336721Y-101740816D01*
X164302695Y-101678504D01*
X164307760Y-101607689D01*
X164350307Y-101550853D01*
X164374567Y-101536614D01*
X164470722Y-101493803D01*
X164470724Y-101493802D01*
X164476752Y-101491118D01*
X164631253Y-101378866D01*
X164759040Y-101236944D01*
X164846376Y-101085674D01*
X164851223Y-101077279D01*
X164851224Y-101077278D01*
X164854527Y-101071556D01*
X164913542Y-100889928D01*
X164929968Y-100733648D01*
X164932814Y-100706565D01*
X164933504Y-100700000D01*
X164918873Y-100560796D01*
X164914232Y-100516635D01*
X164914232Y-100516633D01*
X164913542Y-100510072D01*
X164854527Y-100328444D01*
X164759040Y-100163056D01*
X164751561Y-100154749D01*
X164635675Y-100026045D01*
X164635674Y-100026044D01*
X164631253Y-100021134D01*
X164602165Y-100000000D01*
X166486685Y-100000000D01*
X166505931Y-100367241D01*
X166563459Y-100730459D01*
X166658639Y-101085674D01*
X166790427Y-101428994D01*
X166791925Y-101431934D01*
X166949309Y-101740816D01*
X166957380Y-101756657D01*
X166959176Y-101759423D01*
X166959178Y-101759426D01*
X167005612Y-101830928D01*
X167157668Y-102065075D01*
X167389098Y-102350867D01*
X167649133Y-102610902D01*
X167934925Y-102842332D01*
X168243342Y-103042620D01*
X168246276Y-103044115D01*
X168246283Y-103044119D01*
X168406994Y-103126005D01*
X168571006Y-103209573D01*
X168914326Y-103341361D01*
X169269541Y-103436541D01*
X169462558Y-103467112D01*
X169629511Y-103493555D01*
X169629519Y-103493556D01*
X169632759Y-103494069D01*
X170000000Y-103513315D01*
X170367241Y-103494069D01*
X170370481Y-103493556D01*
X170370489Y-103493555D01*
X170537442Y-103467112D01*
X170730459Y-103436541D01*
X171085674Y-103341361D01*
X171428994Y-103209573D01*
X171593006Y-103126005D01*
X171753717Y-103044119D01*
X171753724Y-103044115D01*
X171756658Y-103042620D01*
X172065075Y-102842332D01*
X172350867Y-102610902D01*
X172610902Y-102350867D01*
X172842332Y-102065075D01*
X172994388Y-101830928D01*
X173040822Y-101759426D01*
X173040824Y-101759423D01*
X173042620Y-101756657D01*
X173050692Y-101740816D01*
X173208075Y-101431934D01*
X173209573Y-101428994D01*
X173341361Y-101085674D01*
X173436541Y-100730459D01*
X173494069Y-100367241D01*
X173513315Y-100000000D01*
X173494069Y-99632759D01*
X173436541Y-99269541D01*
X173341361Y-98914326D01*
X173209573Y-98571006D01*
X173158722Y-98471206D01*
X173044119Y-98246284D01*
X173044115Y-98246277D01*
X173042620Y-98243343D01*
X172842332Y-97934925D01*
X172610902Y-97649133D01*
X172350867Y-97389098D01*
X172065075Y-97157668D01*
X171756658Y-96957380D01*
X171753724Y-96955885D01*
X171753717Y-96955881D01*
X171431934Y-96791925D01*
X171428994Y-96790427D01*
X171108135Y-96667261D01*
X171088764Y-96659825D01*
X171088762Y-96659824D01*
X171085674Y-96658639D01*
X170730459Y-96563459D01*
X170537442Y-96532888D01*
X170370489Y-96506445D01*
X170370481Y-96506444D01*
X170367241Y-96505931D01*
X170000000Y-96486685D01*
X169632759Y-96505931D01*
X169629519Y-96506444D01*
X169629511Y-96506445D01*
X169462558Y-96532888D01*
X169269541Y-96563459D01*
X168914326Y-96658639D01*
X168911238Y-96659824D01*
X168911236Y-96659825D01*
X168891865Y-96667261D01*
X168571006Y-96790427D01*
X168568066Y-96791925D01*
X168246284Y-96955881D01*
X168246277Y-96955885D01*
X168243343Y-96957380D01*
X168240577Y-96959176D01*
X168240574Y-96959178D01*
X168212701Y-96977279D01*
X167934925Y-97157668D01*
X167649133Y-97389098D01*
X167389098Y-97649133D01*
X167157668Y-97934925D01*
X166957380Y-98243343D01*
X166955885Y-98246277D01*
X166955881Y-98246284D01*
X166841278Y-98471206D01*
X166790427Y-98571006D01*
X166658639Y-98914326D01*
X166563459Y-99269541D01*
X166505931Y-99632759D01*
X166486685Y-100000000D01*
X164602165Y-100000000D01*
X164519747Y-99940120D01*
X164482094Y-99912763D01*
X164482093Y-99912762D01*
X164476752Y-99908882D01*
X164470724Y-99906198D01*
X164470722Y-99906197D01*
X164308319Y-99833891D01*
X164308318Y-99833891D01*
X164302288Y-99831206D01*
X164208888Y-99811353D01*
X164121944Y-99792872D01*
X164121939Y-99792872D01*
X164115487Y-99791500D01*
X164034500Y-99791500D01*
X163966379Y-99771498D01*
X163919886Y-99717842D01*
X163908500Y-99665500D01*
X163908500Y-99309500D01*
X163928502Y-99241379D01*
X163982158Y-99194886D01*
X164034500Y-99183500D01*
X164220487Y-99183500D01*
X164226939Y-99182128D01*
X164226944Y-99182128D01*
X164313887Y-99163647D01*
X164407288Y-99143794D01*
X164516437Y-99095198D01*
X164575722Y-99068803D01*
X164575724Y-99068802D01*
X164581752Y-99066118D01*
X164736253Y-98953866D01*
X164864040Y-98811944D01*
X164959527Y-98646556D01*
X165018542Y-98464928D01*
X165038504Y-98275000D01*
X165024654Y-98143227D01*
X165019232Y-98091635D01*
X165019232Y-98091633D01*
X165018542Y-98085072D01*
X164959527Y-97903444D01*
X164864040Y-97738056D01*
X164786292Y-97651708D01*
X164765864Y-97629020D01*
X164735146Y-97565013D01*
X164733500Y-97544710D01*
X164733500Y-95113412D01*
X169278494Y-95113412D01*
X169287790Y-95125427D01*
X169338995Y-95161281D01*
X169348490Y-95166764D01*
X169545948Y-95258840D01*
X169556240Y-95262586D01*
X169766689Y-95318975D01*
X169777482Y-95320878D01*
X169994526Y-95339867D01*
X170005476Y-95339867D01*
X170222520Y-95320878D01*
X170233313Y-95318975D01*
X170443762Y-95262586D01*
X170454054Y-95258840D01*
X170651512Y-95166764D01*
X170661007Y-95161281D01*
X170713049Y-95124841D01*
X170721425Y-95114362D01*
X170714357Y-95100916D01*
X170012813Y-94399372D01*
X169998869Y-94391758D01*
X169997036Y-94391889D01*
X169990421Y-94396140D01*
X169284924Y-95101637D01*
X169278494Y-95113412D01*
X164733500Y-95113412D01*
X164733500Y-94199557D01*
X164753502Y-94131436D01*
X164785439Y-94097621D01*
X164805909Y-94082749D01*
X164805911Y-94082747D01*
X164811253Y-94078866D01*
X164823919Y-94064799D01*
X164852709Y-94032825D01*
X168687484Y-94032825D01*
X168706473Y-94249869D01*
X168708376Y-94260662D01*
X168764765Y-94471111D01*
X168768511Y-94481403D01*
X168860587Y-94678861D01*
X168866070Y-94688356D01*
X168902510Y-94740398D01*
X168912989Y-94748774D01*
X168926435Y-94741706D01*
X169627979Y-94040162D01*
X169634357Y-94028482D01*
X170364409Y-94028482D01*
X170364540Y-94030315D01*
X170368791Y-94036930D01*
X171074288Y-94742427D01*
X171086063Y-94748857D01*
X171098078Y-94739561D01*
X171133932Y-94688356D01*
X171139415Y-94678861D01*
X171231491Y-94481403D01*
X171235237Y-94471111D01*
X171291626Y-94260662D01*
X171293529Y-94249869D01*
X171312518Y-94032825D01*
X171312518Y-94021875D01*
X171293529Y-93804831D01*
X171291626Y-93794038D01*
X171235237Y-93583589D01*
X171231491Y-93573297D01*
X171139415Y-93375839D01*
X171133932Y-93366344D01*
X171097492Y-93314302D01*
X171087013Y-93305926D01*
X171073567Y-93312994D01*
X170372023Y-94014538D01*
X170364409Y-94028482D01*
X169634357Y-94028482D01*
X169635593Y-94026218D01*
X169635462Y-94024385D01*
X169631211Y-94017770D01*
X168925714Y-93312273D01*
X168913939Y-93305843D01*
X168901924Y-93315139D01*
X168866070Y-93366344D01*
X168860587Y-93375839D01*
X168768511Y-93573297D01*
X168764765Y-93583589D01*
X168708376Y-93794038D01*
X168706473Y-93804831D01*
X168687484Y-94021875D01*
X168687484Y-94032825D01*
X164852709Y-94032825D01*
X164934621Y-93941852D01*
X164934622Y-93941851D01*
X164939040Y-93936944D01*
X165034527Y-93771556D01*
X165093542Y-93589928D01*
X165113504Y-93400000D01*
X165104497Y-93314302D01*
X165094232Y-93216635D01*
X165094232Y-93216633D01*
X165093542Y-93210072D01*
X165034527Y-93028444D01*
X164983659Y-92940338D01*
X169278577Y-92940338D01*
X169285645Y-92953784D01*
X169987189Y-93655328D01*
X170001133Y-93662942D01*
X170002966Y-93662811D01*
X170009581Y-93658560D01*
X170715078Y-92953063D01*
X170721508Y-92941288D01*
X170712212Y-92929273D01*
X170661007Y-92893419D01*
X170651512Y-92887936D01*
X170454054Y-92795860D01*
X170443762Y-92792114D01*
X170233313Y-92735725D01*
X170222520Y-92733822D01*
X170005476Y-92714833D01*
X169994526Y-92714833D01*
X169777482Y-92733822D01*
X169766689Y-92735725D01*
X169556240Y-92792114D01*
X169545948Y-92795860D01*
X169348490Y-92887936D01*
X169338995Y-92893419D01*
X169286953Y-92929859D01*
X169278577Y-92940338D01*
X164983659Y-92940338D01*
X164939040Y-92863056D01*
X164837404Y-92750177D01*
X164815675Y-92726045D01*
X164815674Y-92726044D01*
X164811253Y-92721134D01*
X164802581Y-92714833D01*
X164779387Y-92697982D01*
X164736033Y-92641760D01*
X164729958Y-92571024D01*
X164764353Y-92506951D01*
X164800899Y-92470405D01*
X164863211Y-92436379D01*
X164889994Y-92433500D01*
X171121233Y-92433500D01*
X171132416Y-92434027D01*
X171139909Y-92435702D01*
X171147835Y-92435453D01*
X171147836Y-92435453D01*
X171207986Y-92433562D01*
X171211945Y-92433500D01*
X171239856Y-92433500D01*
X171243791Y-92433003D01*
X171243856Y-92432995D01*
X171255693Y-92432062D01*
X171287951Y-92431048D01*
X171291970Y-92430922D01*
X171299889Y-92430673D01*
X171319343Y-92425021D01*
X171338700Y-92421013D01*
X171350930Y-92419468D01*
X171350931Y-92419468D01*
X171358797Y-92418474D01*
X171366168Y-92415555D01*
X171366170Y-92415555D01*
X171399912Y-92402196D01*
X171411142Y-92398351D01*
X171445983Y-92388229D01*
X171445984Y-92388229D01*
X171453593Y-92386018D01*
X171460412Y-92381985D01*
X171460417Y-92381983D01*
X171471028Y-92375707D01*
X171488776Y-92367012D01*
X171507617Y-92359552D01*
X171543387Y-92333564D01*
X171553307Y-92327048D01*
X171584535Y-92308580D01*
X171584538Y-92308578D01*
X171591362Y-92304542D01*
X171605683Y-92290221D01*
X171620717Y-92277380D01*
X171630694Y-92270131D01*
X171637107Y-92265472D01*
X171665298Y-92231395D01*
X171673288Y-92222616D01*
X173106764Y-90789141D01*
X173115050Y-90781601D01*
X173121529Y-90777489D01*
X173168155Y-90727837D01*
X173170909Y-90724996D01*
X173190646Y-90705259D01*
X173193126Y-90702062D01*
X173200831Y-90693040D01*
X173225670Y-90666589D01*
X173231097Y-90660810D01*
X173234916Y-90653864D01*
X173234918Y-90653861D01*
X173240859Y-90643055D01*
X173251710Y-90626536D01*
X173259269Y-90616790D01*
X173264125Y-90610530D01*
X173267270Y-90603261D01*
X173267273Y-90603257D01*
X173281685Y-90569952D01*
X173286902Y-90559302D01*
X173308206Y-90520549D01*
X173313244Y-90500926D01*
X173319648Y-90482223D01*
X173324544Y-90470909D01*
X173324544Y-90470908D01*
X173327692Y-90463634D01*
X173328931Y-90455811D01*
X173328934Y-90455801D01*
X173334610Y-90419965D01*
X173337016Y-90408345D01*
X173346039Y-90373200D01*
X173346039Y-90373199D01*
X173348011Y-90365519D01*
X173348011Y-90345265D01*
X173349562Y-90325554D01*
X173351491Y-90313375D01*
X173352731Y-90305546D01*
X173348570Y-90261527D01*
X173348011Y-90249670D01*
X173348011Y-83798274D01*
X173348538Y-83787090D01*
X173350212Y-83779602D01*
X173348073Y-83711543D01*
X173348011Y-83707586D01*
X173348011Y-83679655D01*
X173347505Y-83675649D01*
X173346572Y-83663803D01*
X173345433Y-83627548D01*
X173345184Y-83619621D01*
X173339533Y-83600169D01*
X173335525Y-83580817D01*
X173333979Y-83568579D01*
X173333978Y-83568577D01*
X173332985Y-83560714D01*
X173316705Y-83519597D01*
X173312870Y-83508396D01*
X173300529Y-83465917D01*
X173296496Y-83459098D01*
X173296494Y-83459093D01*
X173290218Y-83448482D01*
X173281521Y-83430732D01*
X173274063Y-83411894D01*
X173248082Y-83376134D01*
X173241564Y-83366212D01*
X173223089Y-83334971D01*
X173223085Y-83334966D01*
X173219053Y-83328148D01*
X173204729Y-83313824D01*
X173191887Y-83298789D01*
X173179983Y-83282404D01*
X173145917Y-83254222D01*
X173137138Y-83246233D01*
X172891218Y-83000313D01*
X172857192Y-82938001D01*
X172859755Y-82874589D01*
X172866606Y-82852042D01*
X172872370Y-82833069D01*
X172901529Y-82611590D01*
X172903156Y-82545000D01*
X172884852Y-82322361D01*
X172830431Y-82105702D01*
X172741354Y-81900840D01*
X172620014Y-81713277D01*
X172579538Y-81668794D01*
X172556988Y-81644011D01*
X172525936Y-81580165D01*
X172534332Y-81509666D01*
X172561087Y-81470117D01*
X173096234Y-80934970D01*
X173108625Y-80924103D01*
X173127437Y-80909668D01*
X173133987Y-80904642D01*
X173158474Y-80872730D01*
X173158477Y-80872727D01*
X173231523Y-80777531D01*
X173231524Y-80777530D01*
X173245187Y-80744546D01*
X173289678Y-80637134D01*
X173292838Y-80629505D01*
X173308500Y-80510540D01*
X173308500Y-80510533D01*
X173313750Y-80470655D01*
X173309578Y-80438962D01*
X173308500Y-80422519D01*
X173308500Y-76133136D01*
X173309578Y-76116690D01*
X173312672Y-76093188D01*
X173313750Y-76085000D01*
X173308500Y-76045120D01*
X173308500Y-76045115D01*
X173306305Y-76028444D01*
X173294891Y-75941741D01*
X173294890Y-75941739D01*
X173292838Y-75926150D01*
X173292838Y-75926149D01*
X173231524Y-75778124D01*
X173158478Y-75682929D01*
X173158474Y-75682925D01*
X173158471Y-75682921D01*
X173139016Y-75657566D01*
X173139013Y-75657563D01*
X173133987Y-75651013D01*
X173127432Y-75645983D01*
X173108621Y-75631548D01*
X173096230Y-75620681D01*
X172882979Y-75407430D01*
X172848953Y-75345118D01*
X172851516Y-75281706D01*
X172870865Y-75218022D01*
X172872370Y-75213069D01*
X172901529Y-74991590D01*
X172903156Y-74925000D01*
X172884852Y-74702361D01*
X172830431Y-74485702D01*
X172741354Y-74280840D01*
X172701906Y-74219862D01*
X172622822Y-74097617D01*
X172622820Y-74097614D01*
X172620014Y-74093277D01*
X172469670Y-73928051D01*
X172465619Y-73924852D01*
X172465615Y-73924848D01*
X172298414Y-73792800D01*
X172298410Y-73792798D01*
X172294359Y-73789598D01*
X172098789Y-73681638D01*
X172093920Y-73679914D01*
X172093916Y-73679912D01*
X171893087Y-73608795D01*
X171893083Y-73608794D01*
X171888212Y-73607069D01*
X171883119Y-73606162D01*
X171883116Y-73606161D01*
X171673373Y-73568800D01*
X171673367Y-73568799D01*
X171668284Y-73567894D01*
X171594452Y-73566992D01*
X171450081Y-73565228D01*
X171450079Y-73565228D01*
X171444911Y-73565165D01*
X171224091Y-73598955D01*
X171011756Y-73668357D01*
X170813607Y-73771507D01*
X170809474Y-73774610D01*
X170809471Y-73774612D01*
X170670618Y-73878866D01*
X170634965Y-73905635D01*
X170556985Y-73987237D01*
X170554283Y-73990064D01*
X170492759Y-74025494D01*
X170421846Y-74022037D01*
X170364060Y-73980791D01*
X170345207Y-73947243D01*
X170303767Y-73836703D01*
X170300615Y-73828295D01*
X170213261Y-73711739D01*
X170096705Y-73624385D01*
X169960316Y-73573255D01*
X169952464Y-73572402D01*
X169952460Y-73572401D01*
X169924189Y-73569330D01*
X169919913Y-73568866D01*
X169854351Y-73541625D01*
X169813924Y-73483262D01*
X169807520Y-73443603D01*
X169807520Y-71182170D01*
X169808598Y-71165724D01*
X169811693Y-71142214D01*
X169812771Y-71134026D01*
X169791858Y-70975175D01*
X169788697Y-70967543D01*
X169788581Y-70967111D01*
X169790271Y-70896134D01*
X169830066Y-70837338D01*
X169895330Y-70809391D01*
X169910288Y-70808500D01*
X170848135Y-70808500D01*
X170910317Y-70801745D01*
X171046706Y-70750615D01*
X171163262Y-70663261D01*
X171250616Y-70546705D01*
X171301746Y-70410316D01*
X171308501Y-70348134D01*
X171308501Y-68651866D01*
X171301746Y-68589684D01*
X171250616Y-68453295D01*
X171163262Y-68336739D01*
X171046706Y-68249385D01*
X170910317Y-68198255D01*
X170848135Y-68191500D01*
X169151867Y-68191500D01*
X169089685Y-68198255D01*
X168953296Y-68249385D01*
X168836740Y-68336739D01*
X168749386Y-68453295D01*
X168698256Y-68589684D01*
X168691501Y-68651866D01*
X168691501Y-69461768D01*
X168671499Y-69529889D01*
X168617843Y-69576382D01*
X168547569Y-69586486D01*
X168482989Y-69556992D01*
X168476406Y-69550863D01*
X167251066Y-68325523D01*
X167240199Y-68313132D01*
X167225764Y-68294320D01*
X167220738Y-68287770D01*
X167188826Y-68263283D01*
X167188823Y-68263280D01*
X167107697Y-68201029D01*
X167100180Y-68195261D01*
X167100178Y-68195260D01*
X167093627Y-68190233D01*
X166945602Y-68128919D01*
X166937415Y-68127841D01*
X166937414Y-68127841D01*
X166926209Y-68126366D01*
X166895013Y-68122259D01*
X166826636Y-68113257D01*
X166826633Y-68113257D01*
X166826625Y-68113256D01*
X166794940Y-68109085D01*
X166786751Y-68108007D01*
X166755058Y-68112179D01*
X166738615Y-68113257D01*
X162501850Y-68113257D01*
X162433729Y-68093255D01*
X162408214Y-68071568D01*
X162386808Y-68047794D01*
X162386806Y-68047793D01*
X162382393Y-68042891D01*
X162227892Y-67930639D01*
X162221864Y-67927955D01*
X162221862Y-67927954D01*
X162059459Y-67855648D01*
X162059458Y-67855648D01*
X162053428Y-67852963D01*
X161960027Y-67833110D01*
X161873084Y-67814629D01*
X161873079Y-67814629D01*
X161866627Y-67813257D01*
X161675653Y-67813257D01*
X161669201Y-67814629D01*
X161669196Y-67814629D01*
X161582253Y-67833110D01*
X161488852Y-67852963D01*
X161482822Y-67855648D01*
X161482821Y-67855648D01*
X161320418Y-67927954D01*
X161320416Y-67927955D01*
X161314388Y-67930639D01*
X161159887Y-68042891D01*
X161032100Y-68184813D01*
X160936613Y-68350201D01*
X160877598Y-68531829D01*
X160876908Y-68538390D01*
X160876908Y-68538392D01*
X160867667Y-68626315D01*
X160857636Y-68721757D01*
X160858326Y-68728322D01*
X160862298Y-68766109D01*
X160877598Y-68911685D01*
X160936613Y-69093313D01*
X161032100Y-69258701D01*
X161159887Y-69400623D01*
X161204847Y-69433289D01*
X161248201Y-69489510D01*
X161254277Y-69560246D01*
X161250621Y-69574153D01*
X161206458Y-69710072D01*
X161205768Y-69716633D01*
X161205768Y-69716635D01*
X161188738Y-69878670D01*
X161161725Y-69944327D01*
X161103503Y-69984957D01*
X161063428Y-69991500D01*
X159293484Y-69991500D01*
X159225363Y-69971498D01*
X159204389Y-69954595D01*
X157052878Y-67803084D01*
X157018852Y-67740772D01*
X157023917Y-67669957D01*
X157048337Y-67629679D01*
X157134621Y-67533851D01*
X157134622Y-67533850D01*
X157139040Y-67528943D01*
X157234527Y-67363555D01*
X157293542Y-67181927D01*
X157300700Y-67113824D01*
X157305406Y-67069050D01*
X157332419Y-67003393D01*
X157390641Y-66962764D01*
X157461586Y-66960061D01*
X157491417Y-66971807D01*
X157595384Y-67028964D01*
X157595395Y-67028969D01*
X157600787Y-67031933D01*
X157606654Y-67033794D01*
X157606656Y-67033795D01*
X157774417Y-67087012D01*
X157789306Y-67091735D01*
X157943227Y-67109000D01*
X159937657Y-67109000D01*
X159951264Y-67109737D01*
X159982762Y-67113159D01*
X159982767Y-67113159D01*
X159988888Y-67113824D01*
X160015138Y-67111527D01*
X160038888Y-67109450D01*
X160043714Y-67109121D01*
X160046186Y-67109000D01*
X160049269Y-67109000D01*
X160061238Y-67107826D01*
X160092006Y-67104810D01*
X160093319Y-67104688D01*
X160137584Y-67100815D01*
X160185913Y-67096587D01*
X160191032Y-67095100D01*
X160196333Y-67094580D01*
X160285334Y-67067709D01*
X160286467Y-67067374D01*
X160369914Y-67043130D01*
X160369918Y-67043128D01*
X160375836Y-67041409D01*
X160380568Y-67038956D01*
X160385669Y-67037416D01*
X160401565Y-67028964D01*
X160467760Y-66993769D01*
X160468926Y-66993157D01*
X160545953Y-66953229D01*
X160551426Y-66950392D01*
X160555589Y-66947069D01*
X160560296Y-66944566D01*
X160632418Y-66885745D01*
X160633274Y-66885054D01*
X160672473Y-66853762D01*
X160674977Y-66851258D01*
X160675695Y-66850616D01*
X160680028Y-66846915D01*
X160713562Y-66819565D01*
X160717480Y-66814829D01*
X160717489Y-66814820D01*
X160745196Y-66781328D01*
X160747073Y-66779161D01*
X160748309Y-66777925D01*
X160750251Y-66775561D01*
X160750259Y-66775552D01*
X160769629Y-66751970D01*
X160828324Y-66712027D01*
X160899296Y-66710158D01*
X160960628Y-66747637D01*
X160988747Y-66778866D01*
X161143248Y-66891118D01*
X161149276Y-66893802D01*
X161149278Y-66893803D01*
X161276380Y-66950392D01*
X161317712Y-66968794D01*
X161411113Y-66988647D01*
X161498056Y-67007128D01*
X161498061Y-67007128D01*
X161504513Y-67008500D01*
X161695487Y-67008500D01*
X161701939Y-67007128D01*
X161701944Y-67007128D01*
X161788887Y-66988647D01*
X161882288Y-66968794D01*
X161923620Y-66950392D01*
X162050722Y-66893803D01*
X162050724Y-66893802D01*
X162056752Y-66891118D01*
X162211253Y-66778866D01*
X162270516Y-66713048D01*
X162334621Y-66641852D01*
X162334622Y-66641851D01*
X162339040Y-66636944D01*
X162434527Y-66471556D01*
X162493542Y-66289928D01*
X162503897Y-66191411D01*
X162512814Y-66106565D01*
X162513504Y-66100000D01*
X162493542Y-65910072D01*
X162434527Y-65728444D01*
X162339040Y-65563056D01*
X162297243Y-65516635D01*
X162215675Y-65426045D01*
X162215674Y-65426044D01*
X162211253Y-65421134D01*
X162102727Y-65342285D01*
X162062094Y-65312763D01*
X162062093Y-65312762D01*
X162056752Y-65308882D01*
X162050724Y-65306198D01*
X162050722Y-65306197D01*
X161888319Y-65233891D01*
X161888318Y-65233891D01*
X161882288Y-65231206D01*
X161764217Y-65206109D01*
X161701944Y-65192872D01*
X161701939Y-65192872D01*
X161695487Y-65191500D01*
X161604239Y-65191500D01*
X161536118Y-65171498D01*
X161515144Y-65154595D01*
X160698375Y-64337826D01*
X160664349Y-64275514D01*
X160669414Y-64204699D01*
X160711961Y-64147863D01*
X160778481Y-64123052D01*
X160838718Y-64133624D01*
X160917712Y-64168794D01*
X161011113Y-64188647D01*
X161098056Y-64207128D01*
X161098061Y-64207128D01*
X161104513Y-64208500D01*
X161295487Y-64208500D01*
X161301939Y-64207128D01*
X161301944Y-64207128D01*
X161388887Y-64188647D01*
X161482288Y-64168794D01*
X161559314Y-64134500D01*
X161650722Y-64093803D01*
X161650724Y-64093802D01*
X161656752Y-64091118D01*
X161669085Y-64082158D01*
X161737344Y-64032564D01*
X161804211Y-64008706D01*
X161811405Y-64008500D01*
X162865500Y-64008500D01*
X162933621Y-64028502D01*
X162980114Y-64082158D01*
X162991500Y-64134500D01*
X162991500Y-65969710D01*
X162971498Y-66037831D01*
X162959136Y-66054020D01*
X162865379Y-66158148D01*
X162860960Y-66163056D01*
X162765473Y-66328444D01*
X162706458Y-66510072D01*
X162705768Y-66516633D01*
X162705768Y-66516635D01*
X162691592Y-66651511D01*
X162686496Y-66700000D01*
X162706458Y-66889928D01*
X162765473Y-67071556D01*
X162768776Y-67077278D01*
X162768777Y-67077279D01*
X162789566Y-67113287D01*
X162860960Y-67236944D01*
X162865378Y-67241851D01*
X162865379Y-67241852D01*
X162891843Y-67271243D01*
X162988747Y-67378866D01*
X163143248Y-67491118D01*
X163149276Y-67493802D01*
X163149278Y-67493803D01*
X163308476Y-67564682D01*
X163317712Y-67568794D01*
X163411112Y-67588647D01*
X163498056Y-67607128D01*
X163498061Y-67607128D01*
X163504513Y-67608500D01*
X163695487Y-67608500D01*
X163701939Y-67607128D01*
X163701944Y-67607128D01*
X163788888Y-67588647D01*
X163882288Y-67568794D01*
X163891524Y-67564682D01*
X164050722Y-67493803D01*
X164050724Y-67493802D01*
X164056752Y-67491118D01*
X164211253Y-67378866D01*
X164308157Y-67271243D01*
X164334621Y-67241852D01*
X164334622Y-67241851D01*
X164339040Y-67236944D01*
X164410434Y-67113287D01*
X164426152Y-67086062D01*
X169278494Y-67086062D01*
X169287790Y-67098077D01*
X169338995Y-67133931D01*
X169348490Y-67139414D01*
X169545948Y-67231490D01*
X169556240Y-67235236D01*
X169766689Y-67291625D01*
X169777482Y-67293528D01*
X169994526Y-67312517D01*
X170005476Y-67312517D01*
X170222520Y-67293528D01*
X170233313Y-67291625D01*
X170443762Y-67235236D01*
X170454054Y-67231490D01*
X170651512Y-67139414D01*
X170661007Y-67133931D01*
X170713049Y-67097491D01*
X170721425Y-67087012D01*
X170714357Y-67073566D01*
X170012813Y-66372022D01*
X169998869Y-66364408D01*
X169997036Y-66364539D01*
X169990421Y-66368790D01*
X169284924Y-67074287D01*
X169278494Y-67086062D01*
X164426152Y-67086062D01*
X164431223Y-67077279D01*
X164431224Y-67077278D01*
X164434527Y-67071556D01*
X164493542Y-66889928D01*
X164513504Y-66700000D01*
X164508408Y-66651511D01*
X164494232Y-66516635D01*
X164494232Y-66516633D01*
X164493542Y-66510072D01*
X164434527Y-66328444D01*
X164339040Y-66163056D01*
X164334621Y-66158148D01*
X164240864Y-66054020D01*
X164217566Y-66005475D01*
X168687484Y-66005475D01*
X168706473Y-66222519D01*
X168708376Y-66233312D01*
X168764765Y-66443761D01*
X168768511Y-66454053D01*
X168860587Y-66651511D01*
X168866070Y-66661006D01*
X168902510Y-66713048D01*
X168912989Y-66721424D01*
X168926435Y-66714356D01*
X169627979Y-66012812D01*
X169634357Y-66001132D01*
X170364409Y-66001132D01*
X170364540Y-66002965D01*
X170368791Y-66009580D01*
X171074288Y-66715077D01*
X171086063Y-66721507D01*
X171098078Y-66712211D01*
X171133932Y-66661006D01*
X171139415Y-66651511D01*
X171231491Y-66454053D01*
X171235237Y-66443761D01*
X171291626Y-66233312D01*
X171293529Y-66222519D01*
X171312518Y-66005475D01*
X171312518Y-65994525D01*
X171293529Y-65777481D01*
X171291626Y-65766688D01*
X171235237Y-65556239D01*
X171231491Y-65545947D01*
X171139415Y-65348489D01*
X171133932Y-65338994D01*
X171097492Y-65286952D01*
X171087013Y-65278576D01*
X171073567Y-65285644D01*
X170372023Y-65987188D01*
X170364409Y-66001132D01*
X169634357Y-66001132D01*
X169635593Y-65998868D01*
X169635462Y-65997035D01*
X169631211Y-65990420D01*
X168925714Y-65284923D01*
X168913939Y-65278493D01*
X168901924Y-65287789D01*
X168866070Y-65338994D01*
X168860587Y-65348489D01*
X168768511Y-65545947D01*
X168764765Y-65556239D01*
X168708376Y-65766688D01*
X168706473Y-65777481D01*
X168687484Y-65994525D01*
X168687484Y-66005475D01*
X164217566Y-66005475D01*
X164210146Y-65990013D01*
X164208500Y-65969710D01*
X164208500Y-64912988D01*
X169278577Y-64912988D01*
X169285645Y-64926434D01*
X169987189Y-65627978D01*
X170001133Y-65635592D01*
X170002966Y-65635461D01*
X170009581Y-65631210D01*
X170715078Y-64925713D01*
X170721508Y-64913938D01*
X170712212Y-64901923D01*
X170661007Y-64866069D01*
X170651512Y-64860586D01*
X170454054Y-64768510D01*
X170443762Y-64764764D01*
X170233313Y-64708375D01*
X170222520Y-64706472D01*
X170005476Y-64687483D01*
X169994526Y-64687483D01*
X169777482Y-64706472D01*
X169766689Y-64708375D01*
X169556240Y-64764764D01*
X169545948Y-64768510D01*
X169348490Y-64860586D01*
X169338995Y-64866069D01*
X169286953Y-64902509D01*
X169278577Y-64912988D01*
X164208500Y-64912988D01*
X164208500Y-63448143D01*
X164209578Y-63431697D01*
X164212673Y-63408188D01*
X164213751Y-63400000D01*
X164209578Y-63368303D01*
X164208500Y-63351857D01*
X164208500Y-60504239D01*
X164228502Y-60436118D01*
X164245405Y-60415144D01*
X166515144Y-58145405D01*
X166577456Y-58111379D01*
X166604239Y-58108500D01*
X166695487Y-58108500D01*
X166701939Y-58107128D01*
X166701944Y-58107128D01*
X166807847Y-58084617D01*
X166878638Y-58090019D01*
X166935270Y-58132836D01*
X166959764Y-58199473D01*
X166946311Y-58265067D01*
X166790427Y-58571006D01*
X166658639Y-58914326D01*
X166563459Y-59269541D01*
X166505931Y-59632759D01*
X166486685Y-60000000D01*
X166505931Y-60367241D01*
X166563459Y-60730459D01*
X166658639Y-61085674D01*
X166659824Y-61088762D01*
X166659825Y-61088764D01*
X166699262Y-61191500D01*
X166790427Y-61428994D01*
X166791925Y-61431934D01*
X166943005Y-61728444D01*
X166957380Y-61756657D01*
X167157668Y-62065075D01*
X167389098Y-62350867D01*
X167649133Y-62610902D01*
X167934925Y-62842332D01*
X167937700Y-62844134D01*
X168190802Y-63008500D01*
X168243342Y-63042620D01*
X168246276Y-63044115D01*
X168246283Y-63044119D01*
X168568066Y-63208075D01*
X168571006Y-63209573D01*
X168914326Y-63341361D01*
X169269541Y-63436541D01*
X169462558Y-63467112D01*
X169629511Y-63493555D01*
X169629519Y-63493556D01*
X169632759Y-63494069D01*
X170000000Y-63513315D01*
X170367241Y-63494069D01*
X170370481Y-63493556D01*
X170370489Y-63493555D01*
X170537442Y-63467112D01*
X170730459Y-63436541D01*
X171085674Y-63341361D01*
X171428994Y-63209573D01*
X171431934Y-63208075D01*
X171753717Y-63044119D01*
X171753724Y-63044115D01*
X171756658Y-63042620D01*
X171809199Y-63008500D01*
X172062300Y-62844134D01*
X172065075Y-62842332D01*
X172350867Y-62610902D01*
X172610902Y-62350867D01*
X172842332Y-62065075D01*
X173042620Y-61756657D01*
X173056996Y-61728444D01*
X173208075Y-61431934D01*
X173209573Y-61428994D01*
X173300738Y-61191500D01*
X173340175Y-61088764D01*
X173340176Y-61088762D01*
X173341361Y-61085674D01*
X173436541Y-60730459D01*
X173494069Y-60367241D01*
X173513315Y-60000000D01*
X173494069Y-59632759D01*
X173436541Y-59269541D01*
X173341361Y-58914326D01*
X173209573Y-58571006D01*
X173200150Y-58552513D01*
X173044119Y-58246284D01*
X173044115Y-58246277D01*
X173042620Y-58243343D01*
X172842332Y-57934925D01*
X172610902Y-57649133D01*
X172350867Y-57389098D01*
X172065075Y-57157668D01*
X171837797Y-57010072D01*
X171759427Y-56959178D01*
X171759424Y-56959176D01*
X171756658Y-56957380D01*
X171753724Y-56955885D01*
X171753717Y-56955881D01*
X171431934Y-56791925D01*
X171428994Y-56790427D01*
X171085674Y-56658639D01*
X170730459Y-56563459D01*
X170537442Y-56532888D01*
X170370489Y-56506445D01*
X170370481Y-56506444D01*
X170367241Y-56505931D01*
X170000000Y-56486685D01*
X169632759Y-56505931D01*
X169629519Y-56506444D01*
X169629511Y-56506445D01*
X169462558Y-56532888D01*
X169269541Y-56563459D01*
X168914326Y-56658639D01*
X168571006Y-56790427D01*
X168568066Y-56791925D01*
X168246284Y-56955881D01*
X168246277Y-56955885D01*
X168243343Y-56957380D01*
X168240577Y-56959176D01*
X168240574Y-56959178D01*
X168186471Y-56994313D01*
X167934925Y-57157668D01*
X167932349Y-57159754D01*
X167715563Y-57335304D01*
X167650036Y-57362630D01*
X167580138Y-57350190D01*
X167528061Y-57301936D01*
X167510339Y-57233187D01*
X167510959Y-57224213D01*
X167512814Y-57206564D01*
X167513504Y-57200000D01*
X167493542Y-57010072D01*
X167434527Y-56828444D01*
X167339040Y-56663056D01*
X167286006Y-56604155D01*
X167215675Y-56526045D01*
X167215674Y-56526044D01*
X167211253Y-56521134D01*
X167191036Y-56506445D01*
X167066458Y-56415934D01*
X167023104Y-56359712D01*
X167017029Y-56288975D01*
X167050161Y-56226184D01*
X167111981Y-56191272D01*
X167140518Y-56187998D01*
X169950678Y-56187998D01*
X169970063Y-56189498D01*
G37*
%TD.AperFunction*%
%TD*%
M02*
