%TF.GenerationSoftware,KiCad,Pcbnew,(6.0.0-rc1-124-g18b4ebcc17)*%
%TF.CreationDate,2021-11-27T01:21:43+01:00*%
%TF.ProjectId,2HBR_NG,32484252-5f4e-4472-9e6b-696361645f70,1*%
%TF.SameCoordinates,Original*%
%TF.FileFunction,Copper,L1,Top*%
%TF.FilePolarity,Positive*%
%FSLAX46Y46*%
G04 Gerber Fmt 4.6, Leading zero omitted, Abs format (unit mm)*
G04 Created by KiCad (PCBNEW (6.0.0-rc1-124-g18b4ebcc17)) date 2021-11-27 01:21:43*
%MOMM*%
%LPD*%
G01*
G04 APERTURE LIST*
G04 Aperture macros list*
%AMRoundRect*
0 Rectangle with rounded corners*
0 $1 Rounding radius*
0 $2 $3 $4 $5 $6 $7 $8 $9 X,Y pos of 4 corners*
0 Add a 4 corners polygon primitive as box body*
4,1,4,$2,$3,$4,$5,$6,$7,$8,$9,$2,$3,0*
0 Add four circle primitives for the rounded corners*
1,1,$1+$1,$2,$3*
1,1,$1+$1,$4,$5*
1,1,$1+$1,$6,$7*
1,1,$1+$1,$8,$9*
0 Add four rect primitives between the rounded corners*
20,1,$1+$1,$2,$3,$4,$5,0*
20,1,$1+$1,$4,$5,$6,$7,0*
20,1,$1+$1,$6,$7,$8,$9,0*
20,1,$1+$1,$8,$9,$2,$3,0*%
G04 Aperture macros list end*
%TA.AperFunction,EtchedComponent*%
%ADD10C,0.100000*%
%TD*%
%TA.AperFunction,SMDPad,CuDef*%
%ADD11RoundRect,0.200000X0.275000X-0.200000X0.275000X0.200000X-0.275000X0.200000X-0.275000X-0.200000X0*%
%TD*%
%TA.AperFunction,SMDPad,CuDef*%
%ADD12RoundRect,0.218750X-0.256250X0.218750X-0.256250X-0.218750X0.256250X-0.218750X0.256250X0.218750X0*%
%TD*%
%TA.AperFunction,SMDPad,CuDef*%
%ADD13RoundRect,0.250000X-0.450000X0.262500X-0.450000X-0.262500X0.450000X-0.262500X0.450000X0.262500X0*%
%TD*%
%TA.AperFunction,SMDPad,CuDef*%
%ADD14RoundRect,0.250000X-1.425000X0.362500X-1.425000X-0.362500X1.425000X-0.362500X1.425000X0.362500X0*%
%TD*%
%TA.AperFunction,SMDPad,CuDef*%
%ADD15RoundRect,0.250000X0.475000X-0.250000X0.475000X0.250000X-0.475000X0.250000X-0.475000X-0.250000X0*%
%TD*%
%TA.AperFunction,SMDPad,CuDef*%
%ADD16RoundRect,0.250000X-0.475000X0.250000X-0.475000X-0.250000X0.475000X-0.250000X0.475000X0.250000X0*%
%TD*%
%TA.AperFunction,ComponentPad*%
%ADD17R,1.600000X1.600000*%
%TD*%
%TA.AperFunction,ComponentPad*%
%ADD18C,1.600000*%
%TD*%
%TA.AperFunction,SMDPad,CuDef*%
%ADD19RoundRect,0.250000X0.450000X-0.262500X0.450000X0.262500X-0.450000X0.262500X-0.450000X-0.262500X0*%
%TD*%
%TA.AperFunction,SMDPad,CuDef*%
%ADD20RoundRect,0.250000X1.100000X-0.325000X1.100000X0.325000X-1.100000X0.325000X-1.100000X-0.325000X0*%
%TD*%
%TA.AperFunction,SMDPad,CuDef*%
%ADD21R,0.127000X0.127000*%
%TD*%
%TA.AperFunction,SMDPad,CuDef*%
%ADD22R,0.200000X1.300000*%
%TD*%
%TA.AperFunction,SMDPad,CuDef*%
%ADD23R,0.700000X0.200000*%
%TD*%
%TA.AperFunction,SMDPad,CuDef*%
%ADD24RoundRect,0.250000X1.425000X-0.362500X1.425000X0.362500X-1.425000X0.362500X-1.425000X-0.362500X0*%
%TD*%
%TA.AperFunction,ComponentPad*%
%ADD25R,3.000000X3.000000*%
%TD*%
%TA.AperFunction,ComponentPad*%
%ADD26C,3.000000*%
%TD*%
%TA.AperFunction,ComponentPad*%
%ADD27C,0.800000*%
%TD*%
%TA.AperFunction,ComponentPad*%
%ADD28C,6.000000*%
%TD*%
%TA.AperFunction,SMDPad,CuDef*%
%ADD29RoundRect,0.250000X-1.100000X0.325000X-1.100000X-0.325000X1.100000X-0.325000X1.100000X0.325000X0*%
%TD*%
%TA.AperFunction,SMDPad,CuDef*%
%ADD30RoundRect,0.200000X-0.275000X0.200000X-0.275000X-0.200000X0.275000X-0.200000X0.275000X0.200000X0*%
%TD*%
%TA.AperFunction,ComponentPad*%
%ADD31R,1.700000X1.700000*%
%TD*%
%TA.AperFunction,ComponentPad*%
%ADD32O,1.700000X1.700000*%
%TD*%
%TA.AperFunction,SMDPad,CuDef*%
%ADD33R,1.000000X1.500000*%
%TD*%
%TA.AperFunction,SMDPad,CuDef*%
%ADD34RoundRect,0.218750X0.256250X-0.218750X0.256250X0.218750X-0.256250X0.218750X-0.256250X-0.218750X0*%
%TD*%
%TA.AperFunction,ViaPad*%
%ADD35C,0.800000*%
%TD*%
%TA.AperFunction,Conductor*%
%ADD36C,0.200000*%
%TD*%
%TA.AperFunction,Conductor*%
%ADD37C,0.400000*%
%TD*%
%TA.AperFunction,Conductor*%
%ADD38C,1.000000*%
%TD*%
G04 APERTURE END LIST*
D10*
%TO.C,U1*%
X159699999Y-68250000D02*
X159549999Y-68400000D01*
X159549999Y-68400000D02*
X159499999Y-68400000D01*
X159499999Y-68400000D02*
X159499999Y-67200000D01*
X159499999Y-67200000D02*
X159699999Y-67200000D01*
X159699999Y-67200000D02*
X159699999Y-68250000D01*
G36*
X159699999Y-68250000D02*
G01*
X159549999Y-68400000D01*
X159499999Y-68400000D01*
X159499999Y-67200000D01*
X159699999Y-67200000D01*
X159699999Y-68250000D01*
G37*
X159699999Y-68250000D02*
X159549999Y-68400000D01*
X159499999Y-68400000D01*
X159499999Y-67200000D01*
X159699999Y-67200000D01*
X159699999Y-68250000D01*
X159699999Y-68250000D02*
X159549999Y-68400000D01*
X159549999Y-68400000D02*
X159499999Y-68400000D01*
X159499999Y-68400000D02*
X159499999Y-67200000D01*
X159499999Y-67200000D02*
X159699999Y-67200000D01*
X159699999Y-67200000D02*
X159699999Y-68250000D01*
G36*
X159699999Y-68250000D02*
G01*
X159549999Y-68400000D01*
X159499999Y-68400000D01*
X159499999Y-67200000D01*
X159699999Y-67200000D01*
X159699999Y-68250000D01*
G37*
X159699999Y-68250000D02*
X159549999Y-68400000D01*
X159499999Y-68400000D01*
X159499999Y-67200000D01*
X159699999Y-67200000D01*
X159699999Y-68250000D01*
%TO.C,U2*%
X159699999Y-89750000D02*
X159549999Y-89900000D01*
X159549999Y-89900000D02*
X159499999Y-89900000D01*
X159499999Y-89900000D02*
X159499999Y-88700000D01*
X159499999Y-88700000D02*
X159699999Y-88700000D01*
X159699999Y-88700000D02*
X159699999Y-89750000D01*
G36*
X159699999Y-89750000D02*
G01*
X159549999Y-89900000D01*
X159499999Y-89900000D01*
X159499999Y-88700000D01*
X159699999Y-88700000D01*
X159699999Y-89750000D01*
G37*
X159699999Y-89750000D02*
X159549999Y-89900000D01*
X159499999Y-89900000D01*
X159499999Y-88700000D01*
X159699999Y-88700000D01*
X159699999Y-89750000D01*
X159699999Y-89750000D02*
X159549999Y-89900000D01*
X159549999Y-89900000D02*
X159499999Y-89900000D01*
X159499999Y-89900000D02*
X159499999Y-88700000D01*
X159499999Y-88700000D02*
X159699999Y-88700000D01*
X159699999Y-88700000D02*
X159699999Y-89750000D01*
G36*
X159699999Y-89750000D02*
G01*
X159549999Y-89900000D01*
X159499999Y-89900000D01*
X159499999Y-88700000D01*
X159699999Y-88700000D01*
X159699999Y-89750000D01*
G37*
X159699999Y-89750000D02*
X159549999Y-89900000D01*
X159499999Y-89900000D01*
X159499999Y-88700000D01*
X159699999Y-88700000D01*
X159699999Y-89750000D01*
%TO.C,JP1*%
G36*
X156050000Y-80600000D02*
G01*
X155550000Y-80600000D01*
X155550000Y-80200000D01*
X156050000Y-80200000D01*
X156050000Y-80600000D01*
G37*
G36*
X156050000Y-79800000D02*
G01*
X155550000Y-79800000D01*
X155550000Y-79400000D01*
X156050000Y-79400000D01*
X156050000Y-79800000D01*
G37*
%TD*%
D11*
%TO.P,R13,1*%
%TO.N,U1-ISET*%
X160000000Y-64925000D03*
%TO.P,R13,2*%
%TO.N,GNDA*%
X160000000Y-63275000D03*
%TD*%
D12*
%TO.P,D4,1,K*%
%TO.N,GNDA*%
X165300000Y-57212500D03*
%TO.P,D4,2,A*%
%TO.N,Net-(R9-Pad2)*%
X165300000Y-58787500D03*
%TD*%
D13*
%TO.P,R1,1*%
%TO.N,Net-(R1-Pad1)*%
X159000000Y-73267501D03*
%TO.P,R1,2*%
%TO.N,Net-(R1-Pad2)*%
X159000000Y-75092501D03*
%TD*%
%TO.P,R6,1*%
%TO.N,U2-VCC*%
X165500000Y-80587500D03*
%TO.P,R6,2*%
%TO.N,U2-nFault*%
X165500000Y-82412500D03*
%TD*%
D14*
%TO.P,R7,1*%
%TO.N,U2-IFB*%
X156000000Y-97037500D03*
%TO.P,R7,2*%
%TO.N,GND*%
X156000000Y-102962500D03*
%TD*%
D15*
%TO.P,C4,1*%
%TO.N,U2-OUT1*%
X163000000Y-86250000D03*
%TO.P,C4,2*%
%TO.N,Net-(C4-Pad2)*%
X163000000Y-84350000D03*
%TD*%
D16*
%TO.P,C5,1*%
%TO.N,GNDA*%
X163600000Y-68050000D03*
%TO.P,C5,2*%
%TO.N,U1-VCC*%
X163600000Y-69950000D03*
%TD*%
D17*
%TO.P,C8,1*%
%TO.N,VIN*%
X170000001Y-69500000D03*
D18*
%TO.P,C8,2*%
%TO.N,GND*%
X170000001Y-66000000D03*
%TD*%
D19*
%TO.P,R4,1*%
%TO.N,Net-(R4-Pad1)*%
X161000000Y-86212500D03*
%TO.P,R4,2*%
%TO.N,Net-(C4-Pad2)*%
X161000000Y-84387500D03*
%TD*%
D20*
%TO.P,C10,1*%
%TO.N,VIN*%
X160000000Y-60275000D03*
%TO.P,C10,2*%
%TO.N,GND*%
X160000000Y-57325000D03*
%TD*%
D21*
%TO.P,U1,1,IFB*%
%TO.N,U1-IFB*%
X159599999Y-67850000D03*
D22*
%TO.P,U1,2,VIN*%
%TO.N,VIN*%
X159000000Y-67850000D03*
%TO.P,U1,3,OUT2*%
%TO.N,U1-OUT2*%
X158400001Y-67850000D03*
D23*
%TO.P,U1,4,BST2*%
%TO.N,Net-(R1-Pad1)*%
X157550000Y-67800000D03*
%TO.P,U1,5,EN*%
%TO.N,U1-EN*%
X157550000Y-68399999D03*
%TO.P,U1,6,LSS*%
%TO.N,U1-IFB*%
X157550000Y-68800001D03*
%TO.P,U1,7,LSS*%
X157550000Y-69200000D03*
%TO.P,U1,8,LSS*%
X157550000Y-69599999D03*
%TO.P,U1,9,BST1*%
%TO.N,Net-(R3-Pad1)*%
X157550000Y-70200001D03*
D22*
%TO.P,U1,10,OUT1*%
%TO.N,U1-OUT1*%
X158400001Y-70150000D03*
%TO.P,U1,11,VIN*%
%TO.N,VIN*%
X159000000Y-70150000D03*
%TO.P,U1,12,NC*%
%TO.N,unconnected-(U1-Pad12)*%
X159599999Y-70150000D03*
D23*
%TO.P,U1,13,NFAULT*%
%TO.N,U1-nFault*%
X160450000Y-70200000D03*
%TO.P,U1,14,VCC*%
%TO.N,U1-VCC*%
X160450000Y-69800001D03*
%TO.P,U1,15,IN1*%
%TO.N,U1-IN1*%
X160450000Y-69399999D03*
%TO.P,U1,16,IN2*%
%TO.N,U1-IN2*%
X160450000Y-69000000D03*
%TO.P,U1,17,ISET*%
%TO.N,U1-ISET*%
X160450000Y-68600001D03*
%TO.P,U1,18,NC*%
%TO.N,unconnected-(U1-Pad18)*%
X160450000Y-68199999D03*
%TO.P,U1,19,AGND*%
%TO.N,GNDA*%
X160450000Y-67800000D03*
%TD*%
D24*
%TO.P,R8,1*%
%TO.N,U1-IFB*%
X156000000Y-63262500D03*
%TO.P,R8,2*%
%TO.N,GND*%
X156000000Y-57337500D03*
%TD*%
D25*
%TO.P,J3,1,Pin_1*%
%TO.N,U2-OUT1*%
X150000000Y-87960000D03*
D26*
%TO.P,J3,2,Pin_2*%
%TO.N,U2-OUT2*%
X150000000Y-93040000D03*
%TD*%
D25*
%TO.P,J1,1,Pin_1*%
%TO.N,GND*%
X150000000Y-77460000D03*
D26*
%TO.P,J1,2,Pin_2*%
%TO.N,VIN*%
X150000000Y-82540000D03*
%TD*%
D11*
%TO.P,R10,1*%
%TO.N,U1-VCC*%
X162600000Y-62025000D03*
%TO.P,R10,2*%
%TO.N,Net-(D2-Pad2)*%
X162600000Y-60375000D03*
%TD*%
D16*
%TO.P,C3,1*%
%TO.N,U1-OUT1*%
X163000001Y-73230001D03*
%TO.P,C3,2*%
%TO.N,Net-(C3-Pad2)*%
X163000001Y-75130001D03*
%TD*%
D27*
%TO.P,H4,1,1*%
%TO.N,unconnected-(H4-Pad1)*%
X148409010Y-98409010D03*
X150000000Y-102250000D03*
X150000000Y-97750000D03*
D28*
X150000000Y-100000000D03*
D27*
X152250000Y-100000000D03*
X151590990Y-98409010D03*
X148409010Y-101590990D03*
X147750000Y-100000000D03*
X151590990Y-101590990D03*
%TD*%
D29*
%TO.P,C7,1*%
%TO.N,VIN*%
X160000000Y-100025000D03*
%TO.P,C7,2*%
%TO.N,GND*%
X160000000Y-102975000D03*
%TD*%
D13*
%TO.P,R3,1*%
%TO.N,Net-(R3-Pad1)*%
X161000000Y-73267501D03*
%TO.P,R3,2*%
%TO.N,Net-(C3-Pad2)*%
X161000000Y-75092501D03*
%TD*%
D16*
%TO.P,C6,1*%
%TO.N,GNDA*%
X163600000Y-89550000D03*
%TO.P,C6,2*%
%TO.N,U2-VCC*%
X163600000Y-91450000D03*
%TD*%
D27*
%TO.P,H3,1,1*%
%TO.N,unconnected-(H3-Pad1)*%
X148409010Y-58409010D03*
X147750000Y-60000000D03*
X152250000Y-60000000D03*
X151590990Y-58409010D03*
X150000000Y-57750000D03*
X148409010Y-61590990D03*
D28*
X150000000Y-60000000D03*
D27*
X151590990Y-61590990D03*
X150000000Y-62250000D03*
%TD*%
D12*
%TO.P,D2,1,K*%
%TO.N,U1-nFault*%
X162600000Y-57212500D03*
%TO.P,D2,2,A*%
%TO.N,Net-(D2-Pad2)*%
X162600000Y-58787500D03*
%TD*%
D30*
%TO.P,R11,1*%
%TO.N,U2-VCC*%
X165300000Y-98275000D03*
%TO.P,R11,2*%
%TO.N,Net-(D3-Pad2)*%
X165300000Y-99925000D03*
%TD*%
D21*
%TO.P,U2,1,IFB*%
%TO.N,U2-IFB*%
X159599999Y-89350000D03*
D22*
%TO.P,U2,2,VIN*%
%TO.N,VIN*%
X159000000Y-89350000D03*
%TO.P,U2,3,OUT2*%
%TO.N,U2-OUT2*%
X158400001Y-89350000D03*
D23*
%TO.P,U2,4,BST2*%
%TO.N,Net-(U2-Pad4)*%
X157550000Y-89300000D03*
%TO.P,U2,5,EN*%
%TO.N,U2-EN*%
X157550000Y-89899999D03*
%TO.P,U2,6,LSS*%
%TO.N,U2-IFB*%
X157550000Y-90300001D03*
%TO.P,U2,7,LSS*%
X157550000Y-90700000D03*
%TO.P,U2,8,LSS*%
X157550000Y-91099999D03*
%TO.P,U2,9,BST1*%
%TO.N,Net-(R4-Pad1)*%
X157550000Y-91700001D03*
D22*
%TO.P,U2,10,OUT1*%
%TO.N,U2-OUT1*%
X158400001Y-91650000D03*
%TO.P,U2,11,VIN*%
%TO.N,VIN*%
X159000000Y-91650000D03*
%TO.P,U2,12,NC*%
%TO.N,unconnected-(U2-Pad12)*%
X159599999Y-91650000D03*
D23*
%TO.P,U2,13,NFAULT*%
%TO.N,U2-nFault*%
X160450000Y-91700000D03*
%TO.P,U2,14,VCC*%
%TO.N,U2-VCC*%
X160450000Y-91300001D03*
%TO.P,U2,15,IN1*%
%TO.N,U2-IN1*%
X160450000Y-90899999D03*
%TO.P,U2,16,IN2*%
%TO.N,U2-IN2*%
X160450000Y-90500000D03*
%TO.P,U2,17,ISET*%
%TO.N,U2-ISET*%
X160450000Y-90100001D03*
%TO.P,U2,18,NC*%
%TO.N,unconnected-(U2-Pad18)*%
X160450000Y-89699999D03*
%TO.P,U2,19,AGND*%
%TO.N,GNDA*%
X160450000Y-89300000D03*
%TD*%
D30*
%TO.P,R14,1*%
%TO.N,U2-ISET*%
X160000000Y-95375000D03*
%TO.P,R14,2*%
%TO.N,GNDA*%
X160000000Y-97025000D03*
%TD*%
D31*
%TO.P,J4,1,Pin_1*%
%TO.N,U1-IN2*%
X169000000Y-74925000D03*
D32*
%TO.P,J4,2,Pin_2*%
%TO.N,U2-IN2*%
X171540000Y-74925000D03*
%TO.P,J4,3,Pin_3*%
%TO.N,U1-IN1*%
X169000000Y-77465000D03*
%TO.P,J4,4,Pin_4*%
%TO.N,U2-IN1*%
X171540000Y-77465000D03*
%TO.P,J4,5,Pin_5*%
%TO.N,U1-EN*%
X169000000Y-80005000D03*
%TO.P,J4,6,Pin_6*%
%TO.N,U2-EN*%
X171540000Y-80005000D03*
%TO.P,J4,7,Pin_7*%
%TO.N,U1-nFault*%
X169000000Y-82545000D03*
%TO.P,J4,8,Pin_8*%
%TO.N,U2-nFault*%
X171540000Y-82545000D03*
%TO.P,J4,9,Pin_9*%
%TO.N,GNDA*%
X169000000Y-85085000D03*
%TO.P,J4,10,Pin_10*%
X171540000Y-85085000D03*
%TD*%
D19*
%TO.P,R5,1*%
%TO.N,U1-VCC*%
X165500000Y-78912500D03*
%TO.P,R5,2*%
%TO.N,U1-nFault*%
X165500000Y-77087500D03*
%TD*%
D11*
%TO.P,R9,1*%
%TO.N,U1-VCC*%
X165300000Y-62025000D03*
%TO.P,R9,2*%
%TO.N,Net-(R9-Pad2)*%
X165300000Y-60375000D03*
%TD*%
D17*
%TO.P,C9,1*%
%TO.N,VIN*%
X170000001Y-90527350D03*
D18*
%TO.P,C9,2*%
%TO.N,GND*%
X170000001Y-94027350D03*
%TD*%
D33*
%TO.P,JP1,1,A*%
%TO.N,GNDA*%
X156450000Y-80000000D03*
%TO.P,JP1,2,B*%
%TO.N,GND*%
X155150000Y-80000000D03*
%TD*%
D28*
%TO.P,H2,1,1*%
%TO.N,unconnected-(H2-Pad1)*%
X170000000Y-60000000D03*
D27*
X170000000Y-62250000D03*
X168409010Y-61590990D03*
X168409010Y-58409010D03*
X170000000Y-57750000D03*
X171590990Y-58409010D03*
X172250000Y-60000000D03*
X171590990Y-61590990D03*
X167750000Y-60000000D03*
%TD*%
D16*
%TO.P,C1,1*%
%TO.N,U1-OUT2*%
X157000000Y-73230001D03*
%TO.P,C1,2*%
%TO.N,Net-(R1-Pad2)*%
X157000000Y-75130001D03*
%TD*%
D25*
%TO.P,J2,1,Pin_1*%
%TO.N,U1-OUT1*%
X150000000Y-66960000D03*
D26*
%TO.P,J2,2,Pin_2*%
%TO.N,U1-OUT2*%
X150000000Y-72040000D03*
%TD*%
D34*
%TO.P,D1,1,K*%
%TO.N,U2-nFault*%
X162700000Y-103087500D03*
%TO.P,D1,2,A*%
%TO.N,Net-(D1-Pad2)*%
X162700000Y-101512500D03*
%TD*%
D19*
%TO.P,R2,1*%
%TO.N,Net-(U2-Pad4)*%
X159000000Y-86212500D03*
%TO.P,R2,2*%
%TO.N,Net-(R2-Pad2)*%
X159000000Y-84387500D03*
%TD*%
D34*
%TO.P,D3,1,K*%
%TO.N,GNDA*%
X165300000Y-103087500D03*
%TO.P,D3,2,A*%
%TO.N,Net-(D3-Pad2)*%
X165300000Y-101512500D03*
%TD*%
D15*
%TO.P,C2,1*%
%TO.N,Net-(R2-Pad2)*%
X157000000Y-86250000D03*
%TO.P,C2,2*%
%TO.N,U2-OUT2*%
X157000000Y-84350000D03*
%TD*%
D30*
%TO.P,R12,1*%
%TO.N,U2-VCC*%
X162700000Y-98275000D03*
%TO.P,R12,2*%
%TO.N,Net-(D1-Pad2)*%
X162700000Y-99925000D03*
%TD*%
D27*
%TO.P,H1,1,1*%
%TO.N,unconnected-(H1-Pad1)*%
X172250000Y-100000000D03*
X170000000Y-102250000D03*
X168409010Y-101590990D03*
X171590990Y-101590990D03*
X171590990Y-98409010D03*
X168409010Y-98409010D03*
X170000000Y-97750000D03*
X167750000Y-100000000D03*
D28*
X170000000Y-100000000D03*
%TD*%
D35*
%TO.N,U1-OUT2*%
X155600000Y-73200000D03*
X156400000Y-65700000D03*
X156400000Y-66991999D03*
%TO.N,U2-OUT2*%
X157500000Y-87900000D03*
X155600000Y-84400000D03*
X156600000Y-87900000D03*
%TO.N,U1-OUT1*%
X156800000Y-71600000D03*
X157700000Y-71600000D03*
%TO.N,U2-OUT1*%
X164600000Y-86300000D03*
X157400000Y-93700000D03*
X157400000Y-95500000D03*
X157400000Y-94600000D03*
%TO.N,GNDA*%
X163600000Y-66700000D03*
X157600000Y-78100000D03*
X164000000Y-103080000D03*
X156500000Y-78100000D03*
X166600000Y-57200000D03*
X166200000Y-87800000D03*
X160000000Y-98300000D03*
X161200000Y-63300000D03*
%TO.N,Net-(R4-Pad1)*%
X162122919Y-87288898D03*
X156200000Y-91800000D03*
%TO.N,VIN*%
X158980000Y-93090000D03*
X158200000Y-100000000D03*
X158200000Y-99100000D03*
X160000000Y-66100000D03*
X159000000Y-87700000D03*
X159000000Y-66100000D03*
X161000000Y-87700000D03*
X159100000Y-62100000D03*
X159200000Y-71700500D03*
X160981770Y-93118230D03*
X160000000Y-61500000D03*
X158200000Y-98200000D03*
X160070000Y-93120000D03*
X161000000Y-71700500D03*
X160100000Y-71700500D03*
X158000000Y-66100500D03*
X160000000Y-87700000D03*
%TO.N,GND*%
X152600000Y-86200000D03*
X152600000Y-76600000D03*
X172500000Y-69460000D03*
X160010000Y-101370000D03*
X157430000Y-82740000D03*
X147190000Y-72215000D03*
X152600000Y-88340000D03*
X172980000Y-72560000D03*
X152600000Y-74600000D03*
X167970000Y-103070000D03*
X147190000Y-64220000D03*
X153400000Y-101800000D03*
X153000000Y-103200000D03*
X147190000Y-85200000D03*
X147190000Y-96200000D03*
X163210000Y-77240000D03*
X147190000Y-69550000D03*
X147190000Y-77545000D03*
X147190000Y-82875000D03*
X155080000Y-101380000D03*
X152600000Y-72600000D03*
X147190000Y-66885000D03*
X156670000Y-99500000D03*
X158970000Y-79990000D03*
X147190000Y-93535000D03*
X161280000Y-79930000D03*
X147190000Y-80210000D03*
X147190000Y-74880000D03*
X147190000Y-90870000D03*
X154170000Y-57810000D03*
X160000000Y-58700000D03*
X160255000Y-82740000D03*
X155090000Y-99430000D03*
X163080000Y-82740000D03*
X166800000Y-102000000D03*
X156650000Y-101400000D03*
X147190000Y-88205000D03*
X152600000Y-63750000D03*
X172040000Y-63390000D03*
X156000000Y-58800000D03*
X152600000Y-84160000D03*
X166480000Y-63390000D03*
%TO.N,Net-(R1-Pad1)*%
X155300000Y-67900000D03*
X158200000Y-76400000D03*
%TO.N,Net-(R3-Pad1)*%
X156076898Y-70499500D03*
X161100000Y-76300000D03*
%TO.N,U1-nFault*%
X164600000Y-72400000D03*
X167200000Y-72400000D03*
%TO.N,U2-nFault*%
X164020000Y-100700000D03*
X162600000Y-93900000D03*
%TO.N,U2-IFB*%
X163600000Y-87800000D03*
X158200000Y-96600000D03*
%TO.N,U1-EN*%
X167070000Y-79530000D03*
X154210000Y-67940000D03*
%TO.N,U1-IN1*%
X162100000Y-69900000D03*
%TO.N,U1-IN2*%
X161771140Y-68721757D03*
%TO.N,U2-IN1*%
X168200000Y-87400000D03*
X161935156Y-91528134D03*
%TO.N,U2-IN2*%
X161899999Y-90499999D03*
%TO.N,U2-EN*%
X154700000Y-90000000D03*
%TO.N,U1-IFB*%
X161600000Y-66100000D03*
X156930000Y-64500000D03*
%TO.N,U2-VCC*%
X164200000Y-93400000D03*
X164125000Y-98275000D03*
X167100000Y-80800000D03*
%TD*%
D36*
%TO.N,U1-OUT2*%
X158400001Y-66991999D02*
X156400000Y-66991999D01*
D37*
X156969999Y-73200000D02*
X157000000Y-73230001D01*
X155600000Y-73200000D02*
X156969999Y-73200000D01*
D36*
X158400001Y-67850000D02*
X158400001Y-66991999D01*
D37*
X156400000Y-66991999D02*
X157858001Y-66991999D01*
D36*
X158400001Y-66991999D02*
X157691999Y-66991999D01*
D38*
X156400000Y-65700000D02*
X156400000Y-66991999D01*
D36*
%TO.N,Net-(R1-Pad2)*%
X158962500Y-75130001D02*
X159000000Y-75092501D01*
X157000000Y-75130001D02*
X158962500Y-75130001D01*
%TO.N,Net-(R2-Pad2)*%
X158862500Y-84387500D02*
X159000000Y-84387500D01*
X157000000Y-86250000D02*
X158862500Y-84387500D01*
%TO.N,U2-OUT2*%
X157660000Y-87900000D02*
X157500000Y-87900000D01*
X158400001Y-88640001D02*
X157660000Y-87900000D01*
X158400001Y-89350000D02*
X158400001Y-88640001D01*
X157000000Y-84350000D02*
X155650000Y-84350000D01*
X155650000Y-84350000D02*
X155600000Y-84400000D01*
D37*
X156600000Y-87900000D02*
X157500000Y-87900000D01*
D36*
%TO.N,U1-OUT1*%
X162170000Y-72400000D02*
X163000001Y-73230001D01*
X158500000Y-72400000D02*
X162170000Y-72400000D01*
X158400001Y-70899999D02*
X157700000Y-71600000D01*
D38*
X157700000Y-71600000D02*
X156800000Y-71600000D01*
D36*
X158400001Y-70150000D02*
X158400001Y-70899999D01*
X157700000Y-71600000D02*
X158500000Y-72400000D01*
%TO.N,Net-(C3-Pad2)*%
X162962501Y-75092501D02*
X163000001Y-75130001D01*
X161000000Y-75092501D02*
X162962501Y-75092501D01*
%TO.N,U2-OUT1*%
X163000000Y-86250000D02*
X164550000Y-86250000D01*
X158400001Y-91650000D02*
X158400001Y-92299999D01*
X157400000Y-93300000D02*
X157400000Y-93700000D01*
X158400001Y-92299999D02*
X158000000Y-92700000D01*
X164550000Y-86250000D02*
X164600000Y-86300000D01*
X158000000Y-92700000D02*
X157400000Y-93300000D01*
%TO.N,Net-(C4-Pad2)*%
X162962500Y-84387500D02*
X163000000Y-84350000D01*
X161000000Y-84387500D02*
X162962500Y-84387500D01*
%TO.N,GNDA*%
X163350000Y-89300000D02*
X163600000Y-89550000D01*
X161020000Y-67800000D02*
X161690000Y-67130000D01*
X162680000Y-67130000D02*
X163600000Y-68050000D01*
X164007500Y-103087500D02*
X164000000Y-103080000D01*
X160450000Y-67800000D02*
X161020000Y-67800000D01*
X163600000Y-68050000D02*
X163600000Y-66700000D01*
X160000000Y-98300000D02*
X160000000Y-97025000D01*
D38*
X156500000Y-78100000D02*
X157600000Y-78100000D01*
D36*
X160000000Y-63275000D02*
X161175000Y-63275000D01*
D38*
X156450000Y-80000000D02*
X156450000Y-78150000D01*
X156450000Y-78150000D02*
X156500000Y-78100000D01*
D36*
X164450000Y-89550000D02*
X166200000Y-87800000D01*
X165300000Y-103087500D02*
X164007500Y-103087500D01*
X161175000Y-63275000D02*
X161200000Y-63300000D01*
X166600000Y-57200000D02*
X165312500Y-57200000D01*
X161690000Y-67130000D02*
X162680000Y-67130000D01*
X165312500Y-57200000D02*
X165300000Y-57212500D01*
X163600000Y-89550000D02*
X164450000Y-89550000D01*
X160450000Y-89300000D02*
X163350000Y-89300000D01*
%TO.N,Net-(R4-Pad1)*%
X161000000Y-86212500D02*
X162076398Y-87288898D01*
X162076398Y-87288898D02*
X162122919Y-87288898D01*
X156299999Y-91700001D02*
X156200000Y-91800000D01*
X157550000Y-91700001D02*
X156299999Y-91700001D01*
D37*
%TO.N,VIN*%
X159400000Y-62100000D02*
X160000000Y-61500000D01*
D36*
X159000000Y-67850000D02*
X159000000Y-66100000D01*
X158225000Y-100025000D02*
X158200000Y-100000000D01*
D38*
X159000000Y-66100000D02*
X160000000Y-66100000D01*
D37*
X159125480Y-94064520D02*
X159125480Y-97274520D01*
X159100000Y-62100000D02*
X159400000Y-62100000D01*
D36*
X160100000Y-71700500D02*
X161000000Y-71700500D01*
D37*
X159000000Y-87700000D02*
X161000000Y-87700000D01*
D36*
X159000000Y-71500500D02*
X159200000Y-71700500D01*
D37*
X159000000Y-62000000D02*
X159000000Y-66100000D01*
D36*
X159000000Y-70150000D02*
X159000000Y-71500500D01*
D37*
X159200000Y-71700500D02*
X161000000Y-71700500D01*
D38*
X158000000Y-66100500D02*
X158999500Y-66100500D01*
D36*
X159000000Y-91650000D02*
X159000000Y-93070000D01*
X159000000Y-89350000D02*
X159000000Y-88000000D01*
D37*
X160953540Y-93090000D02*
X160981770Y-93118230D01*
D36*
X159000000Y-87700000D02*
X160000000Y-87700000D01*
D38*
X160000000Y-60275000D02*
X160000000Y-61500000D01*
X158999500Y-66100500D02*
X159000000Y-66100000D01*
D36*
X158200000Y-99100000D02*
X158200000Y-98200000D01*
D37*
X158980000Y-93090000D02*
X160953540Y-93090000D01*
X160070000Y-93120000D02*
X159125480Y-94064520D01*
D36*
X160000000Y-100025000D02*
X158225000Y-100025000D01*
D37*
X159125480Y-97274520D02*
X158200000Y-98200000D01*
D36*
X159000000Y-93070000D02*
X158980000Y-93090000D01*
D37*
X158200000Y-100000000D02*
X158200000Y-98200000D01*
D38*
%TO.N,GND*%
X159987500Y-102962500D02*
X160000000Y-102975000D01*
X156000000Y-102962500D02*
X159987500Y-102962500D01*
D37*
X155100000Y-101400000D02*
X155080000Y-101380000D01*
X160000000Y-58700000D02*
X160000000Y-57325000D01*
D38*
X156000000Y-102962500D02*
X156650000Y-102312500D01*
X156650000Y-102312500D02*
X156650000Y-101400000D01*
X159987500Y-57337500D02*
X160000000Y-57325000D01*
X160000000Y-102975000D02*
X160000000Y-101380000D01*
D37*
X156000000Y-57337500D02*
X159987500Y-57337500D01*
D38*
X153400000Y-80000000D02*
X155150000Y-80000000D01*
X150860000Y-77460000D02*
X153400000Y-80000000D01*
X150000000Y-77460000D02*
X150860000Y-77460000D01*
X160000000Y-101380000D02*
X160010000Y-101370000D01*
D37*
X156650000Y-101400000D02*
X155100000Y-101400000D01*
X156000000Y-57337500D02*
X156000000Y-58800000D01*
D36*
%TO.N,Net-(U2-Pad4)*%
X156550000Y-89300000D02*
X155860000Y-88610000D01*
X155860000Y-87486900D02*
X156246900Y-87100000D01*
X155860000Y-88610000D02*
X155860000Y-87486900D01*
X158430000Y-87100000D02*
X159000000Y-86530000D01*
X156246900Y-87100000D02*
X158430000Y-87100000D01*
X159000000Y-86530000D02*
X159000000Y-86212500D01*
X157550000Y-89300000D02*
X156550000Y-89300000D01*
%TO.N,Net-(R1-Pad1)*%
X157550000Y-67800000D02*
X155400000Y-67800000D01*
X160000000Y-75600000D02*
X160000000Y-74267501D01*
X158200000Y-76400000D02*
X159200000Y-76400000D01*
X159200000Y-76400000D02*
X160000000Y-75600000D01*
X155400000Y-67800000D02*
X155300000Y-67900000D01*
X160000000Y-74267501D02*
X159000000Y-73267501D01*
%TO.N,Net-(R3-Pad1)*%
X161000000Y-73267501D02*
X161932499Y-74200000D01*
X163332142Y-76300000D02*
X161100000Y-76300000D01*
X164024521Y-74534521D02*
X164024521Y-75607621D01*
X161932499Y-74200000D02*
X163690000Y-74200000D01*
X157550000Y-70200001D02*
X156376397Y-70200001D01*
X156376397Y-70200001D02*
X156076898Y-70499500D01*
X164024521Y-75607621D02*
X163332142Y-76300000D01*
X163690000Y-74200000D02*
X164024521Y-74534521D01*
%TO.N,U1-nFault*%
X164525480Y-61325480D02*
X165781908Y-61325480D01*
X164650000Y-72150000D02*
X162750000Y-72150000D01*
X160800000Y-70200000D02*
X160450000Y-70200000D01*
X164650000Y-72350000D02*
X164600000Y-72400000D01*
X166700000Y-81500000D02*
X167745000Y-82545000D01*
X167200000Y-62743572D02*
X167200000Y-72400000D01*
X165781908Y-61325480D02*
X167200000Y-62743572D01*
X163800000Y-80800000D02*
X164500000Y-81500000D01*
X167745000Y-82545000D02*
X169000000Y-82545000D01*
X165500000Y-77087500D02*
X164612500Y-77087500D01*
X165500000Y-77087500D02*
X165500000Y-73000000D01*
X165500000Y-73000000D02*
X164650000Y-72150000D01*
X163900000Y-58512500D02*
X163900000Y-60700000D01*
X164500000Y-81500000D02*
X166700000Y-81500000D01*
X162750000Y-72150000D02*
X160800000Y-70200000D01*
X164612500Y-77087500D02*
X163800000Y-77900000D01*
X163900000Y-60700000D02*
X164525480Y-61325480D01*
X164650000Y-72150000D02*
X164650000Y-72350000D01*
X163800000Y-77900000D02*
X163800000Y-80800000D01*
X162600000Y-57212500D02*
X163900000Y-58512500D01*
%TO.N,U2-nFault*%
X170400000Y-83800000D02*
X170600000Y-83600000D01*
X160552783Y-91700000D02*
X162600000Y-93747217D01*
X170600000Y-83485000D02*
X171540000Y-82545000D01*
X166212500Y-82412500D02*
X167600000Y-83800000D01*
X162600000Y-93747217D02*
X162600000Y-93900000D01*
X160450000Y-91700000D02*
X160552783Y-91700000D01*
X170600000Y-83600000D02*
X170600000Y-83485000D01*
X165500000Y-82412500D02*
X166212500Y-82412500D01*
X164020000Y-101767500D02*
X164020000Y-100700000D01*
X167600000Y-83800000D02*
X170400000Y-83800000D01*
X162700000Y-103087500D02*
X164020000Y-101767500D01*
%TO.N,U2-IFB*%
X157762500Y-97037500D02*
X158200000Y-96600000D01*
X157550000Y-90700000D02*
X156200000Y-90700000D01*
X159599999Y-88570001D02*
X159760000Y-88410000D01*
D38*
X156000000Y-97037500D02*
X155100499Y-96137999D01*
D36*
X159760000Y-88410000D02*
X162990000Y-88410000D01*
X157550000Y-90300001D02*
X156599999Y-90300001D01*
X162990000Y-88410000D02*
X163600000Y-87800000D01*
X159599999Y-89350000D02*
X159599999Y-88570001D01*
X157550000Y-91099999D02*
X156599999Y-91099999D01*
D38*
X155100499Y-91344571D02*
X155745070Y-90700000D01*
D36*
X156599999Y-91099999D02*
X156200000Y-90700000D01*
X156599999Y-90300001D02*
X156200000Y-90700000D01*
D38*
X155745070Y-90700000D02*
X156200000Y-90700000D01*
D36*
X156000000Y-97037500D02*
X157762500Y-97037500D01*
D38*
X155100499Y-96137999D02*
X155100499Y-91344571D01*
D36*
%TO.N,U1-EN*%
X169000000Y-80005000D02*
X167545000Y-80005000D01*
X154870000Y-68600000D02*
X154210000Y-67940000D01*
X157550000Y-68399999D02*
X156300001Y-68399999D01*
X156100000Y-68600000D02*
X154870000Y-68600000D01*
X156300001Y-68399999D02*
X156100000Y-68600000D01*
X167545000Y-80005000D02*
X167070000Y-79530000D01*
%TO.N,U1-IN1*%
X161599999Y-69399999D02*
X162100000Y-69900000D01*
X160450000Y-69399999D02*
X161599999Y-69399999D01*
%TO.N,U1-IN2*%
X160450000Y-69000000D02*
X161492897Y-69000000D01*
X161492897Y-69000000D02*
X161771140Y-68721757D01*
%TO.N,U2-IN1*%
X171540000Y-77465000D02*
X173350000Y-79275000D01*
X173350000Y-79275000D02*
X173350000Y-86530000D01*
X160450000Y-90899999D02*
X161307021Y-90899999D01*
X173350000Y-86530000D02*
X172480000Y-87400000D01*
X161307021Y-90899999D02*
X161935156Y-91528134D01*
X172480000Y-87400000D02*
X168200000Y-87400000D01*
%TO.N,U2-IN2*%
X160450000Y-90500000D02*
X161899999Y-90499999D01*
%TO.N,U2-EN*%
X154800001Y-89899999D02*
X154700000Y-90000000D01*
X157550000Y-89899999D02*
X154800001Y-89899999D01*
%TO.N,U1-IFB*%
X159740000Y-66900000D02*
X160800000Y-66900000D01*
D38*
X156000000Y-63262500D02*
X156000000Y-64030000D01*
X156000000Y-64030000D02*
X153040000Y-66990000D01*
X153040000Y-69360000D02*
X153080000Y-69400000D01*
D36*
X156930000Y-64192500D02*
X156930000Y-64500000D01*
X157550000Y-68800001D02*
X156999999Y-68800001D01*
X156599999Y-69599999D02*
X156400000Y-69400000D01*
X157550000Y-69599999D02*
X156599999Y-69599999D01*
X157550000Y-69200000D02*
X156600000Y-69200000D01*
X156600000Y-69200000D02*
X156400000Y-69400000D01*
D38*
X153080000Y-69400000D02*
X156400000Y-69400000D01*
D36*
X156000000Y-63262500D02*
X156930000Y-64192500D01*
X159599999Y-67040001D02*
X159740000Y-66900000D01*
D38*
X153040000Y-66990000D02*
X153040000Y-69360000D01*
D36*
X160800000Y-66900000D02*
X161600000Y-66100000D01*
X159599999Y-67850000D02*
X159599999Y-67040001D01*
X156999999Y-68800001D02*
X156400000Y-69400000D01*
%TO.N,U1-VCC*%
X162950499Y-70599501D02*
X161810256Y-70599501D01*
X161810256Y-70599501D02*
X161010756Y-69800001D01*
X165500000Y-78912500D02*
X165707500Y-78912500D01*
X166499520Y-78120480D02*
X166499520Y-72849520D01*
X161010756Y-69800001D02*
X160450000Y-69800001D01*
X164390000Y-69950000D02*
X163600000Y-69950000D01*
X165707500Y-78912500D02*
X166499520Y-78120480D01*
X162600000Y-62025000D02*
X165300000Y-62025000D01*
X166499520Y-72849520D02*
X163600000Y-69950000D01*
X165300000Y-69040000D02*
X164390000Y-69950000D01*
X163600000Y-69950000D02*
X162950499Y-70599501D01*
X165300000Y-62025000D02*
X165300000Y-69040000D01*
%TO.N,U2-VCC*%
X165300000Y-98275000D02*
X164125000Y-98275000D01*
X164200000Y-92050000D02*
X164200000Y-93400000D01*
X163600000Y-91450000D02*
X164200000Y-92050000D01*
X160450000Y-91300001D02*
X161000013Y-91300001D01*
X162800499Y-92249501D02*
X163600000Y-91450000D01*
X165500000Y-80587500D02*
X166887500Y-80587500D01*
X166887500Y-80587500D02*
X167100000Y-80800000D01*
X161667278Y-92249501D02*
X162800499Y-92249501D01*
X164125000Y-98275000D02*
X162700000Y-98275000D01*
X161000013Y-91300001D02*
X161235655Y-91535643D01*
X161235655Y-91817878D02*
X161667278Y-92249501D01*
X161235655Y-91535643D02*
X161235655Y-91817878D01*
%TO.N,Net-(D1-Pad2)*%
X162700000Y-99925000D02*
X162700000Y-101512500D01*
%TO.N,Net-(D2-Pad2)*%
X162600000Y-58787500D02*
X162600000Y-60375000D01*
%TO.N,Net-(D3-Pad2)*%
X165300000Y-99925000D02*
X165300000Y-101512500D01*
%TO.N,Net-(R9-Pad2)*%
X165300000Y-58787500D02*
X165300000Y-60375000D01*
%TO.N,U1-ISET*%
X161481396Y-68022256D02*
X162070116Y-68022256D01*
X160450000Y-68600001D02*
X161010754Y-68600001D01*
X161071639Y-68432013D02*
X161481396Y-68022256D01*
X162070116Y-68022256D02*
X163047860Y-69000000D01*
X161010754Y-68600001D02*
X161071639Y-68539116D01*
X164624520Y-68665480D02*
X164624520Y-66524520D01*
X161071639Y-68539116D02*
X161071639Y-68432013D01*
X163047860Y-69000000D02*
X164290000Y-69000000D01*
X163025000Y-64925000D02*
X160000000Y-64925000D01*
X164290000Y-69000000D02*
X164624520Y-68665480D01*
X164624520Y-66524520D02*
X163025000Y-64925000D01*
%TO.N,U2-ISET*%
X162200498Y-89800498D02*
X162800000Y-90400000D01*
X161310752Y-90100001D02*
X161610255Y-89800498D01*
X160450000Y-90100001D02*
X161310752Y-90100001D01*
X164600000Y-90400000D02*
X165139501Y-90939501D01*
X161610255Y-89800498D02*
X162200498Y-89800498D01*
X165139501Y-93669744D02*
X163434245Y-95375000D01*
X165139501Y-90939501D02*
X165139501Y-93669744D01*
X162800000Y-90400000D02*
X164600000Y-90400000D01*
X163434245Y-95375000D02*
X160000000Y-95375000D01*
%TD*%
%TA.AperFunction,Conductor*%
%TO.N,GND*%
G36*
X154053858Y-56208001D02*
G01*
X154100351Y-56261657D01*
X154110455Y-56331931D01*
X154080961Y-56396511D01*
X154074910Y-56403017D01*
X153981261Y-56496829D01*
X153972249Y-56508240D01*
X153887184Y-56646243D01*
X153881037Y-56659424D01*
X153829862Y-56813710D01*
X153826995Y-56827086D01*
X153817328Y-56921438D01*
X153817000Y-56927855D01*
X153817000Y-57065385D01*
X153821475Y-57080624D01*
X153822865Y-57081829D01*
X153830548Y-57083500D01*
X158083885Y-57083500D01*
X158109073Y-57076104D01*
X158144571Y-57071000D01*
X160128000Y-57071000D01*
X160196121Y-57091002D01*
X160242614Y-57144658D01*
X160254000Y-57197000D01*
X160254000Y-58389884D01*
X160258475Y-58405123D01*
X160259865Y-58406328D01*
X160267548Y-58407999D01*
X161147095Y-58407999D01*
X161153614Y-58407662D01*
X161249206Y-58397743D01*
X161262600Y-58394851D01*
X161416784Y-58343412D01*
X161429961Y-58337239D01*
X161431422Y-58336335D01*
X161432559Y-58336022D01*
X161436583Y-58334137D01*
X161436906Y-58334826D01*
X161499874Y-58317498D01*
X161567644Y-58338660D01*
X161613214Y-58393101D01*
X161623068Y-58456322D01*
X161616500Y-58520428D01*
X161616500Y-59054572D01*
X161616837Y-59057816D01*
X161616837Y-59057824D01*
X161625864Y-59144824D01*
X161612999Y-59214645D01*
X161564428Y-59266427D01*
X161495572Y-59283729D01*
X161434419Y-59265085D01*
X161422738Y-59257885D01*
X161262254Y-59204655D01*
X161261389Y-59204368D01*
X161261387Y-59204368D01*
X161254861Y-59202203D01*
X161248025Y-59201503D01*
X161248022Y-59201502D01*
X161204969Y-59197091D01*
X161150400Y-59191500D01*
X158849600Y-59191500D01*
X158846354Y-59191837D01*
X158846350Y-59191837D01*
X158750692Y-59201762D01*
X158750688Y-59201763D01*
X158743834Y-59202474D01*
X158737298Y-59204655D01*
X158737296Y-59204655D01*
X158707353Y-59214645D01*
X158576054Y-59258450D01*
X158425652Y-59351522D01*
X158300695Y-59476697D01*
X158296855Y-59482927D01*
X158296854Y-59482928D01*
X158216454Y-59613361D01*
X158207885Y-59627262D01*
X158152203Y-59795139D01*
X158141500Y-59899600D01*
X158141500Y-60650400D01*
X158141837Y-60653646D01*
X158141837Y-60653650D01*
X158150138Y-60733648D01*
X158152474Y-60756166D01*
X158154655Y-60762702D01*
X158154655Y-60762704D01*
X158190018Y-60868699D01*
X158208450Y-60923946D01*
X158301522Y-61074348D01*
X158426697Y-61199305D01*
X158432929Y-61203147D01*
X158432931Y-61203148D01*
X158467144Y-61224238D01*
X158514637Y-61277011D01*
X158526059Y-61347082D01*
X158497785Y-61412206D01*
X158490217Y-61420066D01*
X158488747Y-61421134D01*
X158360960Y-61563056D01*
X158357659Y-61568774D01*
X158288504Y-61688554D01*
X158265473Y-61728444D01*
X158206458Y-61910072D01*
X158186496Y-62100000D01*
X158187186Y-62106565D01*
X158206458Y-62289928D01*
X158204149Y-62290171D01*
X158199551Y-62350354D01*
X158156729Y-62406982D01*
X158090089Y-62431469D01*
X158020789Y-62416041D01*
X157992693Y-62394921D01*
X157990641Y-62392872D01*
X157898303Y-62300695D01*
X157872059Y-62284518D01*
X157753968Y-62211725D01*
X157753966Y-62211724D01*
X157747738Y-62207885D01*
X157587254Y-62154655D01*
X157586389Y-62154368D01*
X157586387Y-62154368D01*
X157579861Y-62152203D01*
X157573025Y-62151503D01*
X157573022Y-62151502D01*
X157529969Y-62147091D01*
X157475400Y-62141500D01*
X154524600Y-62141500D01*
X154521354Y-62141837D01*
X154521350Y-62141837D01*
X154425692Y-62151762D01*
X154425688Y-62151763D01*
X154418834Y-62152474D01*
X154412298Y-62154655D01*
X154412296Y-62154655D01*
X154280194Y-62198728D01*
X154251054Y-62208450D01*
X154100652Y-62301522D01*
X153975695Y-62426697D01*
X153971855Y-62432927D01*
X153971854Y-62432928D01*
X153920256Y-62516636D01*
X153882885Y-62577262D01*
X153872505Y-62608558D01*
X153844774Y-62692165D01*
X153827203Y-62745139D01*
X153816500Y-62849600D01*
X153816500Y-63675400D01*
X153827474Y-63781166D01*
X153829655Y-63787702D01*
X153829655Y-63787704D01*
X153873728Y-63919806D01*
X153883450Y-63948946D01*
X153976522Y-64099348D01*
X154101697Y-64224305D01*
X154107929Y-64228147D01*
X154107931Y-64228148D01*
X154137845Y-64246588D01*
X154185338Y-64299361D01*
X154196760Y-64369432D01*
X154168486Y-64434556D01*
X154160823Y-64442942D01*
X152370621Y-66233145D01*
X152360478Y-66242247D01*
X152330975Y-66265968D01*
X152327008Y-66270696D01*
X152298709Y-66304421D01*
X152295528Y-66308069D01*
X152293885Y-66309881D01*
X152291691Y-66312075D01*
X152264358Y-66345349D01*
X152263696Y-66346147D01*
X152237331Y-66377568D01*
X152231022Y-66385087D01*
X152171912Y-66424414D01*
X152100924Y-66425540D01*
X152040597Y-66388109D01*
X152010083Y-66324004D01*
X152008500Y-66304096D01*
X152008500Y-65411866D01*
X152001745Y-65349684D01*
X151950615Y-65213295D01*
X151863261Y-65096739D01*
X151746705Y-65009385D01*
X151610316Y-64958255D01*
X151548134Y-64951500D01*
X148451866Y-64951500D01*
X148389684Y-64958255D01*
X148253295Y-65009385D01*
X148136739Y-65096739D01*
X148049385Y-65213295D01*
X147998255Y-65349684D01*
X147991500Y-65411866D01*
X147991500Y-68508134D01*
X147998255Y-68570316D01*
X148049385Y-68706705D01*
X148136739Y-68823261D01*
X148253295Y-68910615D01*
X148389684Y-68961745D01*
X148451866Y-68968500D01*
X151548134Y-68968500D01*
X151610316Y-68961745D01*
X151746705Y-68910615D01*
X151829936Y-68848237D01*
X151896441Y-68823389D01*
X151965823Y-68838442D01*
X152016054Y-68888616D01*
X152031500Y-68949063D01*
X152031500Y-69298157D01*
X152030763Y-69311764D01*
X152026676Y-69349388D01*
X152027213Y-69355523D01*
X152031050Y-69399388D01*
X152031379Y-69404214D01*
X152031500Y-69406686D01*
X152031500Y-69409769D01*
X152031801Y-69412837D01*
X152035690Y-69452506D01*
X152035812Y-69453819D01*
X152037577Y-69473987D01*
X152043913Y-69546413D01*
X152045400Y-69551532D01*
X152045920Y-69556833D01*
X152072791Y-69645834D01*
X152073126Y-69646967D01*
X152099091Y-69736336D01*
X152101544Y-69741068D01*
X152103084Y-69746169D01*
X152105978Y-69751612D01*
X152146731Y-69828260D01*
X152147343Y-69829426D01*
X152190108Y-69911926D01*
X152193431Y-69916089D01*
X152195934Y-69920796D01*
X152254755Y-69992918D01*
X152255446Y-69993774D01*
X152286738Y-70032973D01*
X152289242Y-70035477D01*
X152289884Y-70036195D01*
X152293585Y-70040528D01*
X152320935Y-70074062D01*
X152329846Y-70081434D01*
X152331744Y-70083004D01*
X152349627Y-70101139D01*
X152352100Y-70104215D01*
X152352104Y-70104219D01*
X152355968Y-70109025D01*
X152394450Y-70141315D01*
X152398062Y-70144467D01*
X152399888Y-70146123D01*
X152402075Y-70148310D01*
X152404458Y-70150267D01*
X152404463Y-70150272D01*
X152435268Y-70175576D01*
X152436252Y-70176393D01*
X152507474Y-70236154D01*
X152512147Y-70238723D01*
X152516262Y-70242103D01*
X152521691Y-70245014D01*
X152521694Y-70245016D01*
X152598180Y-70286028D01*
X152599338Y-70286657D01*
X152675388Y-70328465D01*
X152680787Y-70331433D01*
X152685865Y-70333044D01*
X152690563Y-70335563D01*
X152779498Y-70362753D01*
X152780702Y-70363128D01*
X152869306Y-70391235D01*
X152874597Y-70391828D01*
X152879698Y-70393388D01*
X152972311Y-70402795D01*
X152973431Y-70402915D01*
X153023227Y-70408500D01*
X153026756Y-70408500D01*
X153027739Y-70408555D01*
X153033426Y-70409003D01*
X153053683Y-70411060D01*
X153070336Y-70412752D01*
X153070339Y-70412752D01*
X153076463Y-70413374D01*
X153122112Y-70409059D01*
X153133969Y-70408500D01*
X155040378Y-70408500D01*
X155108499Y-70428502D01*
X155154992Y-70482158D01*
X155165688Y-70521329D01*
X155171391Y-70575588D01*
X155183356Y-70689428D01*
X155242371Y-70871056D01*
X155337858Y-71036444D01*
X155342276Y-71041351D01*
X155342277Y-71041352D01*
X155357247Y-71057978D01*
X155465645Y-71178366D01*
X155620146Y-71290618D01*
X155626174Y-71293302D01*
X155626176Y-71293303D01*
X155725925Y-71337714D01*
X155780021Y-71383694D01*
X155800670Y-71451622D01*
X155799986Y-71465991D01*
X155792084Y-71541179D01*
X155786645Y-71592925D01*
X155804570Y-71789888D01*
X155806308Y-71795794D01*
X155806309Y-71795798D01*
X155824660Y-71858148D01*
X155860410Y-71979619D01*
X155863265Y-71985080D01*
X155863267Y-71985085D01*
X155940404Y-72132634D01*
X155954238Y-72202269D01*
X155928228Y-72268330D01*
X155870632Y-72309842D01*
X155802545Y-72314256D01*
X155701944Y-72292872D01*
X155701939Y-72292872D01*
X155695487Y-72291500D01*
X155504513Y-72291500D01*
X155498061Y-72292872D01*
X155498056Y-72292872D01*
X155422065Y-72309025D01*
X155317712Y-72331206D01*
X155311682Y-72333891D01*
X155311681Y-72333891D01*
X155149278Y-72406197D01*
X155149276Y-72406198D01*
X155143248Y-72408882D01*
X154988747Y-72521134D01*
X154984326Y-72526044D01*
X154984325Y-72526045D01*
X154901809Y-72617689D01*
X154860960Y-72663056D01*
X154765473Y-72828444D01*
X154706458Y-73010072D01*
X154705768Y-73016633D01*
X154705768Y-73016635D01*
X154698819Y-73082749D01*
X154686496Y-73200000D01*
X154687186Y-73206565D01*
X154701151Y-73339431D01*
X154706458Y-73389928D01*
X154765473Y-73571556D01*
X154768776Y-73577278D01*
X154768777Y-73577279D01*
X154802023Y-73634862D01*
X154860960Y-73736944D01*
X154865378Y-73741851D01*
X154865379Y-73741852D01*
X154979050Y-73868096D01*
X154988747Y-73878866D01*
X155143248Y-73991118D01*
X155149276Y-73993802D01*
X155149278Y-73993803D01*
X155311679Y-74066108D01*
X155317712Y-74068794D01*
X155411112Y-74088647D01*
X155498056Y-74107128D01*
X155498061Y-74107128D01*
X155504513Y-74108500D01*
X155695487Y-74108500D01*
X155701939Y-74107128D01*
X155701944Y-74107128D01*
X155788888Y-74088647D01*
X155882288Y-74068794D01*
X155888315Y-74066111D01*
X155888323Y-74066108D01*
X155913413Y-74054937D01*
X155983780Y-74045503D01*
X156042755Y-74071163D01*
X156046513Y-74074131D01*
X156051697Y-74079306D01*
X156055918Y-74081908D01*
X156096418Y-74139033D01*
X156099648Y-74209956D01*
X156064022Y-74271367D01*
X156056470Y-74277923D01*
X156050652Y-74281523D01*
X155925695Y-74406698D01*
X155832885Y-74557263D01*
X155830581Y-74564210D01*
X155783047Y-74707522D01*
X155777203Y-74725140D01*
X155766500Y-74829601D01*
X155766500Y-75430401D01*
X155766837Y-75433647D01*
X155766837Y-75433651D01*
X155770621Y-75470116D01*
X155777474Y-75536167D01*
X155779655Y-75542703D01*
X155779655Y-75542705D01*
X155788008Y-75567741D01*
X155833450Y-75703947D01*
X155926522Y-75854349D01*
X156051697Y-75979306D01*
X156057927Y-75983146D01*
X156057928Y-75983147D01*
X156175441Y-76055583D01*
X156202262Y-76072116D01*
X156267966Y-76093909D01*
X156363611Y-76125633D01*
X156363613Y-76125633D01*
X156370139Y-76127798D01*
X156376975Y-76128498D01*
X156376978Y-76128499D01*
X156420031Y-76132910D01*
X156474600Y-76138501D01*
X157174043Y-76138501D01*
X157242164Y-76158503D01*
X157288657Y-76212159D01*
X157299353Y-76277671D01*
X157294987Y-76319212D01*
X157286496Y-76400000D01*
X157287186Y-76406565D01*
X157302890Y-76555976D01*
X157306458Y-76589928D01*
X157365473Y-76771556D01*
X157368776Y-76777278D01*
X157368777Y-76777279D01*
X157387450Y-76809621D01*
X157436970Y-76895391D01*
X157441074Y-76902500D01*
X157457812Y-76971495D01*
X157434592Y-77038587D01*
X157378785Y-77082474D01*
X157331955Y-77091500D01*
X156561850Y-77091500D01*
X156548242Y-77090763D01*
X156547662Y-77090700D01*
X156510612Y-77086675D01*
X156460570Y-77091053D01*
X156455788Y-77091379D01*
X156453310Y-77091500D01*
X156450231Y-77091500D01*
X156447177Y-77091799D01*
X156447166Y-77091800D01*
X156407529Y-77095687D01*
X156406215Y-77095809D01*
X156370688Y-77098917D01*
X156313587Y-77103913D01*
X156308468Y-77105400D01*
X156303167Y-77105920D01*
X156214166Y-77132791D01*
X156213033Y-77133126D01*
X156129586Y-77157370D01*
X156129582Y-77157372D01*
X156123664Y-77159091D01*
X156118932Y-77161544D01*
X156113831Y-77163084D01*
X156108388Y-77165978D01*
X156031740Y-77206731D01*
X156030574Y-77207343D01*
X156016368Y-77214707D01*
X155948074Y-77250108D01*
X155943911Y-77253431D01*
X155939204Y-77255934D01*
X155934429Y-77259828D01*
X155934428Y-77259829D01*
X155867102Y-77314739D01*
X155866075Y-77315567D01*
X155829792Y-77344531D01*
X155829787Y-77344536D01*
X155827028Y-77346738D01*
X155824527Y-77349239D01*
X155823809Y-77349881D01*
X155819461Y-77353594D01*
X155785938Y-77380935D01*
X155782010Y-77385683D01*
X155772151Y-77397600D01*
X155754025Y-77415474D01*
X155745787Y-77422098D01*
X155745782Y-77422103D01*
X155740975Y-77425968D01*
X155708709Y-77464421D01*
X155705528Y-77468069D01*
X155703885Y-77469881D01*
X155701691Y-77472075D01*
X155674358Y-77505349D01*
X155673696Y-77506147D01*
X155613846Y-77577474D01*
X155611278Y-77582144D01*
X155607897Y-77586261D01*
X155600126Y-77600754D01*
X155564023Y-77668086D01*
X155563394Y-77669245D01*
X155521538Y-77745381D01*
X155521535Y-77745389D01*
X155518567Y-77750787D01*
X155516955Y-77755869D01*
X155514438Y-77760563D01*
X155487238Y-77849531D01*
X155486918Y-77850559D01*
X155458765Y-77939306D01*
X155458171Y-77944602D01*
X155456613Y-77949698D01*
X155455990Y-77955834D01*
X155447218Y-78042187D01*
X155447089Y-78043393D01*
X155443319Y-78077008D01*
X155441998Y-78088790D01*
X155441500Y-78093227D01*
X155441500Y-78096754D01*
X155441445Y-78097739D01*
X155440998Y-78103419D01*
X155436626Y-78146462D01*
X155438575Y-78167077D01*
X155440941Y-78192109D01*
X155441500Y-78203967D01*
X155441500Y-78659521D01*
X155421498Y-78727642D01*
X155410724Y-78742034D01*
X155405671Y-78747865D01*
X155404000Y-78755548D01*
X155404000Y-81239884D01*
X155408475Y-81255123D01*
X155409865Y-81256328D01*
X155417548Y-81257999D01*
X155694669Y-81257999D01*
X155701490Y-81257629D01*
X155752349Y-81252105D01*
X155769764Y-81247965D01*
X155828058Y-81247966D01*
X155832284Y-81248971D01*
X155839684Y-81251745D01*
X155901866Y-81258500D01*
X156998134Y-81258500D01*
X157060316Y-81251745D01*
X157196705Y-81200615D01*
X157313261Y-81113261D01*
X157400615Y-80996705D01*
X157451745Y-80860316D01*
X157458500Y-80798134D01*
X157458500Y-79234500D01*
X157478502Y-79166379D01*
X157532158Y-79119886D01*
X157584500Y-79108500D01*
X157649769Y-79108500D01*
X157652825Y-79108200D01*
X157652832Y-79108200D01*
X157711340Y-79102463D01*
X157796833Y-79094080D01*
X157802734Y-79092298D01*
X157802736Y-79092298D01*
X157931571Y-79053400D01*
X157986169Y-79036916D01*
X158160796Y-78944066D01*
X158270477Y-78854612D01*
X158309287Y-78822960D01*
X158309290Y-78822957D01*
X158314062Y-78819065D01*
X158366608Y-78755548D01*
X158436201Y-78671425D01*
X158436203Y-78671421D01*
X158440130Y-78666675D01*
X158534198Y-78492701D01*
X158592682Y-78303768D01*
X158598843Y-78245150D01*
X158612711Y-78113204D01*
X158612711Y-78113202D01*
X158613355Y-78107075D01*
X158599031Y-77949682D01*
X158595989Y-77916251D01*
X158595988Y-77916248D01*
X158595430Y-77910112D01*
X158584402Y-77872639D01*
X158553150Y-77766456D01*
X158539590Y-77720381D01*
X158536255Y-77714000D01*
X158469635Y-77586571D01*
X158447960Y-77545110D01*
X158391567Y-77474971D01*
X158364471Y-77409349D01*
X158377155Y-77339495D01*
X158425591Y-77287587D01*
X158463569Y-77272773D01*
X158469902Y-77271427D01*
X158482288Y-77268794D01*
X158502424Y-77259829D01*
X158650722Y-77193803D01*
X158650724Y-77193802D01*
X158656752Y-77191118D01*
X158693978Y-77164072D01*
X158805914Y-77082745D01*
X158811253Y-77078866D01*
X158837074Y-77050189D01*
X158897520Y-77012950D01*
X158930710Y-77008500D01*
X159151864Y-77008500D01*
X159168307Y-77009578D01*
X159200000Y-77013750D01*
X159208189Y-77012672D01*
X159239874Y-77008501D01*
X159239884Y-77008500D01*
X159239885Y-77008500D01*
X159347707Y-76994305D01*
X159350664Y-76993916D01*
X159350666Y-76993915D01*
X159358851Y-76992838D01*
X159506876Y-76931524D01*
X159530040Y-76913750D01*
X159602072Y-76858477D01*
X159602075Y-76858474D01*
X159627434Y-76839015D01*
X159633987Y-76833987D01*
X159640430Y-76825590D01*
X159653452Y-76808621D01*
X159664319Y-76796230D01*
X160003232Y-76457317D01*
X160065544Y-76423291D01*
X160136359Y-76428356D01*
X160193195Y-76470903D01*
X160212159Y-76507475D01*
X160265473Y-76671556D01*
X160360960Y-76836944D01*
X160365378Y-76841851D01*
X160365379Y-76841852D01*
X160482110Y-76971495D01*
X160488747Y-76978866D01*
X160536761Y-77013750D01*
X160637133Y-77086675D01*
X160643248Y-77091118D01*
X160649276Y-77093802D01*
X160649278Y-77093803D01*
X160807106Y-77164072D01*
X160817712Y-77168794D01*
X160904479Y-77187237D01*
X160998056Y-77207128D01*
X160998061Y-77207128D01*
X161004513Y-77208500D01*
X161195487Y-77208500D01*
X161201939Y-77207128D01*
X161201944Y-77207128D01*
X161295521Y-77187237D01*
X161382288Y-77168794D01*
X161392894Y-77164072D01*
X161550722Y-77093803D01*
X161550724Y-77093802D01*
X161556752Y-77091118D01*
X161562868Y-77086675D01*
X161696465Y-76989610D01*
X161711253Y-76978866D01*
X161728743Y-76959442D01*
X161737074Y-76950189D01*
X161797520Y-76912950D01*
X161830710Y-76908500D01*
X163284006Y-76908500D01*
X163300449Y-76909578D01*
X163332142Y-76913750D01*
X163340331Y-76912672D01*
X163372016Y-76908501D01*
X163372026Y-76908500D01*
X163372027Y-76908500D01*
X163471599Y-76895391D01*
X163482806Y-76893916D01*
X163482808Y-76893915D01*
X163490993Y-76892838D01*
X163639018Y-76831524D01*
X163646752Y-76825590D01*
X163699418Y-76785177D01*
X163765638Y-76759576D01*
X163835187Y-76773840D01*
X163885983Y-76823441D01*
X163901899Y-76892631D01*
X163877882Y-76959442D01*
X163865217Y-76974234D01*
X163403766Y-77435685D01*
X163391375Y-77446552D01*
X163366013Y-77466013D01*
X163341526Y-77497925D01*
X163341523Y-77497928D01*
X163341517Y-77497936D01*
X163280485Y-77577474D01*
X163268476Y-77593124D01*
X163212425Y-77728444D01*
X163207162Y-77741150D01*
X163206084Y-77749338D01*
X163204437Y-77761846D01*
X163191500Y-77860115D01*
X163191500Y-77860120D01*
X163186250Y-77900000D01*
X163187328Y-77908188D01*
X163190422Y-77931690D01*
X163191500Y-77948136D01*
X163191500Y-80751864D01*
X163190422Y-80768307D01*
X163186250Y-80800000D01*
X163191500Y-80839880D01*
X163191500Y-80839885D01*
X163199467Y-80900400D01*
X163207162Y-80958851D01*
X163268476Y-81106876D01*
X163273503Y-81113427D01*
X163273504Y-81113429D01*
X163341520Y-81202069D01*
X163341526Y-81202075D01*
X163366013Y-81233987D01*
X163372568Y-81239017D01*
X163391379Y-81253452D01*
X163403770Y-81264319D01*
X164035685Y-81896234D01*
X164046552Y-81908625D01*
X164066013Y-81933987D01*
X164097925Y-81958474D01*
X164097928Y-81958477D01*
X164145707Y-81995139D01*
X164193125Y-82031524D01*
X164213720Y-82040055D01*
X164268999Y-82084603D01*
X164291500Y-82156463D01*
X164291500Y-82725400D01*
X164291837Y-82728646D01*
X164291837Y-82728650D01*
X164298881Y-82796533D01*
X164302474Y-82831166D01*
X164358450Y-82998946D01*
X164451522Y-83149348D01*
X164576697Y-83274305D01*
X164582927Y-83278145D01*
X164582928Y-83278146D01*
X164706583Y-83354368D01*
X164727262Y-83367115D01*
X164771627Y-83381830D01*
X164888611Y-83420632D01*
X164888613Y-83420632D01*
X164895139Y-83422797D01*
X164901975Y-83423497D01*
X164901978Y-83423498D01*
X164945031Y-83427909D01*
X164999600Y-83433500D01*
X166000400Y-83433500D01*
X166003646Y-83433163D01*
X166003650Y-83433163D01*
X166099308Y-83423238D01*
X166099312Y-83423237D01*
X166106166Y-83422526D01*
X166112702Y-83420345D01*
X166112704Y-83420345D01*
X166224092Y-83383183D01*
X166295042Y-83380599D01*
X166353063Y-83413612D01*
X167135685Y-84196234D01*
X167146552Y-84208625D01*
X167166013Y-84233987D01*
X167172563Y-84239013D01*
X167197925Y-84258474D01*
X167197928Y-84258477D01*
X167267318Y-84311722D01*
X167286570Y-84326495D01*
X167286574Y-84326497D01*
X167293125Y-84331524D01*
X167441150Y-84392838D01*
X167560115Y-84408500D01*
X167560120Y-84408500D01*
X167560129Y-84408501D01*
X167581617Y-84411330D01*
X167600000Y-84413750D01*
X167608189Y-84412672D01*
X167616445Y-84412672D01*
X167616445Y-84416167D01*
X167670698Y-84424668D01*
X167723761Y-84471835D01*
X167742901Y-84540203D01*
X167731199Y-84591660D01*
X167720688Y-84614305D01*
X167660989Y-84829570D01*
X167637251Y-85051695D01*
X167637548Y-85056848D01*
X167637548Y-85056851D01*
X167646300Y-85208635D01*
X167650110Y-85274715D01*
X167651247Y-85279761D01*
X167651248Y-85279767D01*
X167661248Y-85324137D01*
X167699222Y-85492639D01*
X167783266Y-85699616D01*
X167822142Y-85763056D01*
X167897291Y-85885688D01*
X167899987Y-85890088D01*
X168046250Y-86058938D01*
X168218126Y-86201632D01*
X168312385Y-86256712D01*
X168361109Y-86308350D01*
X168374180Y-86378133D01*
X168347449Y-86443905D01*
X168289402Y-86484784D01*
X168248815Y-86491500D01*
X168104513Y-86491500D01*
X168098061Y-86492872D01*
X168098056Y-86492872D01*
X168011112Y-86511353D01*
X167917712Y-86531206D01*
X167911682Y-86533891D01*
X167911681Y-86533891D01*
X167749278Y-86606197D01*
X167749276Y-86606198D01*
X167743248Y-86608882D01*
X167588747Y-86721134D01*
X167584326Y-86726044D01*
X167584325Y-86726045D01*
X167484533Y-86836876D01*
X167460960Y-86863056D01*
X167421114Y-86932071D01*
X167391452Y-86983448D01*
X167365473Y-87028444D01*
X167306458Y-87210072D01*
X167305768Y-87216633D01*
X167305768Y-87216635D01*
X167294860Y-87320420D01*
X167286496Y-87400000D01*
X167287186Y-87406565D01*
X167287186Y-87410516D01*
X167267184Y-87478637D01*
X167213528Y-87525130D01*
X167143254Y-87535234D01*
X167078674Y-87505740D01*
X167041353Y-87449453D01*
X167040563Y-87447020D01*
X167034527Y-87428444D01*
X166939040Y-87263056D01*
X166897243Y-87216635D01*
X166815675Y-87126045D01*
X166815674Y-87126044D01*
X166811253Y-87121134D01*
X166675800Y-87022721D01*
X166662094Y-87012763D01*
X166662093Y-87012762D01*
X166656752Y-87008882D01*
X166650724Y-87006198D01*
X166650722Y-87006197D01*
X166488319Y-86933891D01*
X166488318Y-86933891D01*
X166482288Y-86931206D01*
X166388888Y-86911353D01*
X166301944Y-86892872D01*
X166301939Y-86892872D01*
X166295487Y-86891500D01*
X166104513Y-86891500D01*
X166098061Y-86892872D01*
X166098056Y-86892872D01*
X166011112Y-86911353D01*
X165917712Y-86931206D01*
X165911682Y-86933891D01*
X165911681Y-86933891D01*
X165749278Y-87006197D01*
X165749276Y-87006198D01*
X165743248Y-87008882D01*
X165737907Y-87012762D01*
X165737906Y-87012763D01*
X165724200Y-87022721D01*
X165588747Y-87121134D01*
X165584326Y-87126044D01*
X165584325Y-87126045D01*
X165502758Y-87216635D01*
X165460960Y-87263056D01*
X165365473Y-87428444D01*
X165306458Y-87610072D01*
X165305768Y-87616633D01*
X165305768Y-87616635D01*
X165294761Y-87721363D01*
X165286496Y-87800000D01*
X165286684Y-87801786D01*
X165267184Y-87868196D01*
X165250281Y-87889170D01*
X164550754Y-88588697D01*
X164488442Y-88622723D01*
X164417627Y-88617658D01*
X164408408Y-88613796D01*
X164403969Y-88611726D01*
X164397738Y-88607885D01*
X164390794Y-88605582D01*
X164390788Y-88605579D01*
X164347618Y-88591261D01*
X164289257Y-88550831D01*
X164262020Y-88485267D01*
X164274553Y-88415385D01*
X164293647Y-88387359D01*
X164334621Y-88341852D01*
X164334622Y-88341851D01*
X164339040Y-88336944D01*
X164434527Y-88171556D01*
X164493542Y-87989928D01*
X164499681Y-87931524D01*
X164512814Y-87806565D01*
X164513504Y-87800000D01*
X164505239Y-87721363D01*
X164494232Y-87616635D01*
X164494232Y-87616633D01*
X164493542Y-87610072D01*
X164434527Y-87428444D01*
X164416662Y-87397501D01*
X164399923Y-87328506D01*
X164423143Y-87261414D01*
X164478949Y-87217526D01*
X164525780Y-87208500D01*
X164695487Y-87208500D01*
X164701939Y-87207128D01*
X164701944Y-87207128D01*
X164793559Y-87187654D01*
X164882288Y-87168794D01*
X164888319Y-87166109D01*
X165050722Y-87093803D01*
X165050724Y-87093802D01*
X165056752Y-87091118D01*
X165065399Y-87084836D01*
X165164598Y-87012763D01*
X165211253Y-86978866D01*
X165339040Y-86836944D01*
X165434527Y-86671556D01*
X165493542Y-86489928D01*
X165501388Y-86415283D01*
X165512814Y-86306565D01*
X165513504Y-86300000D01*
X165502818Y-86198327D01*
X165494232Y-86116635D01*
X165494232Y-86116633D01*
X165493542Y-86110072D01*
X165434527Y-85928444D01*
X165339040Y-85763056D01*
X165281919Y-85699616D01*
X165215675Y-85626045D01*
X165215674Y-85626044D01*
X165211253Y-85621134D01*
X165056752Y-85508882D01*
X165050724Y-85506198D01*
X165050722Y-85506197D01*
X164888319Y-85433891D01*
X164888318Y-85433891D01*
X164882288Y-85431206D01*
X164788887Y-85411353D01*
X164701944Y-85392872D01*
X164701939Y-85392872D01*
X164695487Y-85391500D01*
X164504513Y-85391500D01*
X164498061Y-85392872D01*
X164498056Y-85392872D01*
X164411112Y-85411353D01*
X164317712Y-85431206D01*
X164311685Y-85433889D01*
X164311677Y-85433892D01*
X164162416Y-85500347D01*
X164092049Y-85509781D01*
X164027752Y-85479674D01*
X164022150Y-85474413D01*
X163953484Y-85405867D01*
X163948303Y-85400695D01*
X163944084Y-85398094D01*
X163903583Y-85340970D01*
X163900351Y-85270047D01*
X163935976Y-85208635D01*
X163943530Y-85202078D01*
X163949348Y-85198478D01*
X164074305Y-85073303D01*
X164084446Y-85056851D01*
X164163275Y-84928968D01*
X164163276Y-84928966D01*
X164167115Y-84922738D01*
X164199670Y-84824588D01*
X164220632Y-84761389D01*
X164220632Y-84761387D01*
X164222797Y-84754861D01*
X164233500Y-84650400D01*
X164233500Y-84049600D01*
X164227632Y-83993043D01*
X164223238Y-83950692D01*
X164223237Y-83950688D01*
X164222526Y-83943834D01*
X164166550Y-83776054D01*
X164073478Y-83625652D01*
X163948303Y-83500695D01*
X163859457Y-83445929D01*
X163803968Y-83411725D01*
X163803966Y-83411724D01*
X163797738Y-83407885D01*
X163674820Y-83367115D01*
X163636389Y-83354368D01*
X163636387Y-83354368D01*
X163629861Y-83352203D01*
X163623025Y-83351503D01*
X163623022Y-83351502D01*
X163579969Y-83347091D01*
X163525400Y-83341500D01*
X162474600Y-83341500D01*
X162471354Y-83341837D01*
X162471350Y-83341837D01*
X162375692Y-83351762D01*
X162375688Y-83351763D01*
X162368834Y-83352474D01*
X162362298Y-83354655D01*
X162362296Y-83354655D01*
X162276788Y-83383183D01*
X162201054Y-83408450D01*
X162050652Y-83501522D01*
X162046958Y-83505223D01*
X161981944Y-83531535D01*
X161912180Y-83518363D01*
X161903377Y-83513412D01*
X161778968Y-83436725D01*
X161778966Y-83436724D01*
X161772738Y-83432885D01*
X161690419Y-83405581D01*
X161611389Y-83379368D01*
X161611387Y-83379368D01*
X161604861Y-83377203D01*
X161598025Y-83376503D01*
X161598022Y-83376502D01*
X161554969Y-83372091D01*
X161500400Y-83366500D01*
X160499600Y-83366500D01*
X160496354Y-83366837D01*
X160496350Y-83366837D01*
X160400692Y-83376762D01*
X160400688Y-83376763D01*
X160393834Y-83377474D01*
X160387298Y-83379655D01*
X160387296Y-83379655D01*
X160265334Y-83420345D01*
X160226054Y-83433450D01*
X160075652Y-83526522D01*
X160075536Y-83526638D01*
X160012457Y-83552173D01*
X159942692Y-83539004D01*
X159925749Y-83528136D01*
X159923303Y-83525695D01*
X159793899Y-83445929D01*
X159778968Y-83436725D01*
X159778966Y-83436724D01*
X159772738Y-83432885D01*
X159690419Y-83405581D01*
X159611389Y-83379368D01*
X159611387Y-83379368D01*
X159604861Y-83377203D01*
X159598025Y-83376503D01*
X159598022Y-83376502D01*
X159554969Y-83372091D01*
X159500400Y-83366500D01*
X158499600Y-83366500D01*
X158496354Y-83366837D01*
X158496350Y-83366837D01*
X158400692Y-83376762D01*
X158400688Y-83376763D01*
X158393834Y-83377474D01*
X158387298Y-83379655D01*
X158387296Y-83379655D01*
X158265334Y-83420345D01*
X158226054Y-83433450D01*
X158110593Y-83504900D01*
X158096912Y-83513366D01*
X158028460Y-83532204D01*
X157960691Y-83511043D01*
X157953262Y-83505645D01*
X157948303Y-83500695D01*
X157937058Y-83493763D01*
X157803968Y-83411725D01*
X157803966Y-83411724D01*
X157797738Y-83407885D01*
X157674820Y-83367115D01*
X157636389Y-83354368D01*
X157636387Y-83354368D01*
X157629861Y-83352203D01*
X157623025Y-83351503D01*
X157623022Y-83351502D01*
X157579969Y-83347091D01*
X157525400Y-83341500D01*
X156474600Y-83341500D01*
X156471354Y-83341837D01*
X156471350Y-83341837D01*
X156375692Y-83351762D01*
X156375688Y-83351763D01*
X156368834Y-83352474D01*
X156362298Y-83354655D01*
X156362296Y-83354655D01*
X156276788Y-83383183D01*
X156201054Y-83408450D01*
X156140489Y-83445929D01*
X156056879Y-83497668D01*
X156056876Y-83497671D01*
X156050652Y-83501522D01*
X156039572Y-83512622D01*
X155977291Y-83546702D01*
X155906471Y-83541701D01*
X155899155Y-83538716D01*
X155882288Y-83531206D01*
X155787429Y-83511043D01*
X155701944Y-83492872D01*
X155701939Y-83492872D01*
X155695487Y-83491500D01*
X155504513Y-83491500D01*
X155498061Y-83492872D01*
X155498056Y-83492872D01*
X155412571Y-83511043D01*
X155317712Y-83531206D01*
X155311682Y-83533891D01*
X155311681Y-83533891D01*
X155149278Y-83606197D01*
X155149276Y-83606198D01*
X155143248Y-83608882D01*
X155137907Y-83612762D01*
X155137906Y-83612763D01*
X155120166Y-83625652D01*
X154988747Y-83721134D01*
X154984326Y-83726044D01*
X154984325Y-83726045D01*
X154879461Y-83842509D01*
X154860960Y-83863056D01*
X154765473Y-84028444D01*
X154706458Y-84210072D01*
X154705768Y-84216633D01*
X154705768Y-84216635D01*
X154692289Y-84344883D01*
X154686496Y-84400000D01*
X154706458Y-84589928D01*
X154765473Y-84771556D01*
X154860960Y-84936944D01*
X154865378Y-84941851D01*
X154865379Y-84941852D01*
X154978128Y-85067072D01*
X154988747Y-85078866D01*
X155143248Y-85191118D01*
X155149276Y-85193802D01*
X155149278Y-85193803D01*
X155311681Y-85266109D01*
X155317712Y-85268794D01*
X155411113Y-85288647D01*
X155498056Y-85307128D01*
X155498061Y-85307128D01*
X155504513Y-85308500D01*
X155695487Y-85308500D01*
X155701939Y-85307128D01*
X155701944Y-85307128D01*
X155848772Y-85275918D01*
X155919563Y-85281320D01*
X155976195Y-85324137D01*
X156000689Y-85390774D01*
X155985268Y-85460076D01*
X155964142Y-85488183D01*
X155925695Y-85526697D01*
X155921855Y-85532927D01*
X155921854Y-85532928D01*
X155897351Y-85572680D01*
X155832885Y-85677262D01*
X155777203Y-85845139D01*
X155766500Y-85949600D01*
X155766500Y-86550400D01*
X155766837Y-86553644D01*
X155766837Y-86553652D01*
X155776237Y-86644248D01*
X155763372Y-86714069D01*
X155740005Y-86746346D01*
X155463766Y-87022585D01*
X155451375Y-87033452D01*
X155426013Y-87052913D01*
X155401526Y-87084825D01*
X155401523Y-87084828D01*
X155328476Y-87180024D01*
X155275814Y-87307162D01*
X155267162Y-87328050D01*
X155251500Y-87447015D01*
X155251500Y-87447020D01*
X155246250Y-87486900D01*
X155247328Y-87495088D01*
X155250422Y-87518590D01*
X155251500Y-87535036D01*
X155251500Y-88561864D01*
X155250422Y-88578307D01*
X155246250Y-88610000D01*
X155251500Y-88649880D01*
X155251500Y-88649885D01*
X155259597Y-88711379D01*
X155260320Y-88716873D01*
X155260320Y-88716876D01*
X155264076Y-88745405D01*
X155267162Y-88768851D01*
X155328476Y-88916876D01*
X155333503Y-88923427D01*
X155333504Y-88923429D01*
X155401520Y-89012069D01*
X155401526Y-89012075D01*
X155426013Y-89043987D01*
X155432568Y-89049017D01*
X155451379Y-89063452D01*
X155463770Y-89074319D01*
X155465855Y-89076404D01*
X155499881Y-89138716D01*
X155494816Y-89209531D01*
X155452269Y-89266367D01*
X155385749Y-89291178D01*
X155376760Y-89291499D01*
X155311404Y-89291499D01*
X155243283Y-89271497D01*
X155237343Y-89267435D01*
X155162094Y-89212763D01*
X155162093Y-89212762D01*
X155156752Y-89208882D01*
X155150724Y-89206198D01*
X155150722Y-89206197D01*
X154988319Y-89133891D01*
X154988318Y-89133891D01*
X154982288Y-89131206D01*
X154888888Y-89111353D01*
X154801944Y-89092872D01*
X154801939Y-89092872D01*
X154795487Y-89091500D01*
X154604513Y-89091500D01*
X154598061Y-89092872D01*
X154598056Y-89092872D01*
X154511112Y-89111353D01*
X154417712Y-89131206D01*
X154411682Y-89133891D01*
X154411681Y-89133891D01*
X154249278Y-89206197D01*
X154249276Y-89206198D01*
X154243248Y-89208882D01*
X154088747Y-89321134D01*
X153960960Y-89463056D01*
X153957659Y-89468774D01*
X153872061Y-89617034D01*
X153865473Y-89628444D01*
X153806458Y-89810072D01*
X153805768Y-89816633D01*
X153805768Y-89816635D01*
X153789807Y-89968500D01*
X153786496Y-90000000D01*
X153806458Y-90189928D01*
X153865473Y-90371556D01*
X153960960Y-90536944D01*
X153965378Y-90541851D01*
X153965379Y-90541852D01*
X154084325Y-90673955D01*
X154088747Y-90678866D01*
X154160963Y-90731334D01*
X154204316Y-90787557D01*
X154210391Y-90858293D01*
X154197316Y-90893971D01*
X154169066Y-90945358D01*
X154167454Y-90950440D01*
X154164937Y-90955134D01*
X154137737Y-91044102D01*
X154137417Y-91045130D01*
X154109264Y-91133877D01*
X154108670Y-91139173D01*
X154107112Y-91144269D01*
X154106489Y-91150405D01*
X154097717Y-91236758D01*
X154097588Y-91237964D01*
X154091999Y-91287798D01*
X154091999Y-91291325D01*
X154091944Y-91292310D01*
X154091497Y-91297990D01*
X154087125Y-91341033D01*
X154087705Y-91347164D01*
X154091440Y-91386680D01*
X154091999Y-91398538D01*
X154091999Y-96033064D01*
X154071997Y-96101185D01*
X154055173Y-96122080D01*
X153975695Y-96201697D01*
X153971855Y-96207927D01*
X153971854Y-96207928D01*
X153937685Y-96263361D01*
X153882885Y-96352262D01*
X153856436Y-96432005D01*
X153831916Y-96505931D01*
X153827203Y-96520139D01*
X153826503Y-96526975D01*
X153826502Y-96526978D01*
X153822817Y-96562943D01*
X153816500Y-96624600D01*
X153816500Y-97450400D01*
X153816837Y-97453646D01*
X153816837Y-97453650D01*
X153826546Y-97547220D01*
X153827474Y-97556166D01*
X153883450Y-97723946D01*
X153976522Y-97874348D01*
X154101697Y-97999305D01*
X154107927Y-98003145D01*
X154107928Y-98003146D01*
X154137297Y-98021249D01*
X154252262Y-98092115D01*
X154306401Y-98110072D01*
X154413611Y-98145632D01*
X154413613Y-98145632D01*
X154420139Y-98147797D01*
X154426975Y-98148497D01*
X154426978Y-98148498D01*
X154470031Y-98152909D01*
X154524600Y-98158500D01*
X157168683Y-98158500D01*
X157236804Y-98178502D01*
X157283297Y-98232158D01*
X157293993Y-98271330D01*
X157306458Y-98389928D01*
X157365473Y-98571556D01*
X157368776Y-98577277D01*
X157374389Y-98586998D01*
X157391128Y-98655993D01*
X157374390Y-98713000D01*
X157365473Y-98728444D01*
X157306458Y-98910072D01*
X157305768Y-98916633D01*
X157305768Y-98916635D01*
X157295860Y-99010905D01*
X157286496Y-99100000D01*
X157287186Y-99106565D01*
X157305455Y-99280382D01*
X157306458Y-99289928D01*
X157365473Y-99471556D01*
X157368776Y-99477277D01*
X157374389Y-99486998D01*
X157391128Y-99555993D01*
X157374390Y-99613000D01*
X157365473Y-99628444D01*
X157306458Y-99810072D01*
X157305768Y-99816633D01*
X157305768Y-99816635D01*
X157301700Y-99855343D01*
X157286496Y-100000000D01*
X157287186Y-100006565D01*
X157305415Y-100180001D01*
X157306458Y-100189928D01*
X157365473Y-100371556D01*
X157460960Y-100536944D01*
X157465378Y-100541851D01*
X157465379Y-100541852D01*
X157480711Y-100558880D01*
X157588747Y-100678866D01*
X157743248Y-100791118D01*
X157749276Y-100793802D01*
X157749278Y-100793803D01*
X157852920Y-100839947D01*
X157917712Y-100868794D01*
X158011112Y-100888647D01*
X158098056Y-100907128D01*
X158098061Y-100907128D01*
X158104513Y-100908500D01*
X158295487Y-100908500D01*
X158303109Y-100906880D01*
X158303798Y-100906933D01*
X158308514Y-100906437D01*
X158308605Y-100907299D01*
X158373900Y-100912278D01*
X158418331Y-100940954D01*
X158426697Y-100949305D01*
X158432927Y-100953145D01*
X158432928Y-100953146D01*
X158570090Y-101037694D01*
X158577262Y-101042115D01*
X158657005Y-101068564D01*
X158738611Y-101095632D01*
X158738613Y-101095632D01*
X158745139Y-101097797D01*
X158751975Y-101098497D01*
X158751978Y-101098498D01*
X158795031Y-101102909D01*
X158849600Y-101108500D01*
X161150400Y-101108500D01*
X161153646Y-101108163D01*
X161153650Y-101108163D01*
X161249308Y-101098238D01*
X161249312Y-101098237D01*
X161256166Y-101097526D01*
X161262702Y-101095345D01*
X161262704Y-101095345D01*
X161394806Y-101051272D01*
X161423946Y-101041550D01*
X161461348Y-101018405D01*
X161553078Y-100961641D01*
X161621530Y-100942803D01*
X161689300Y-100963964D01*
X161734871Y-101018405D01*
X161743774Y-101088841D01*
X161738973Y-101108454D01*
X161728929Y-101138733D01*
X161728927Y-101138741D01*
X161726762Y-101145269D01*
X161716500Y-101245428D01*
X161716500Y-101779572D01*
X161727022Y-101880982D01*
X161729204Y-101887523D01*
X161730659Y-101894259D01*
X161728825Y-101894655D01*
X161731073Y-101956322D01*
X161694889Y-102017406D01*
X161631426Y-102049232D01*
X161560830Y-102041694D01*
X161542848Y-102032510D01*
X161428757Y-101962184D01*
X161415576Y-101956037D01*
X161261290Y-101904862D01*
X161247914Y-101901995D01*
X161153562Y-101892328D01*
X161147145Y-101892000D01*
X160272115Y-101892000D01*
X160256876Y-101896475D01*
X160255671Y-101897865D01*
X160254000Y-101905548D01*
X160254000Y-103103000D01*
X160233998Y-103171121D01*
X160180342Y-103217614D01*
X160128000Y-103229000D01*
X158155628Y-103229000D01*
X158128428Y-103221013D01*
X158127559Y-103225007D01*
X158088452Y-103216500D01*
X153835116Y-103216500D01*
X153819877Y-103220975D01*
X153818672Y-103222365D01*
X153817001Y-103230048D01*
X153817001Y-103372095D01*
X153817338Y-103378614D01*
X153827257Y-103474206D01*
X153830149Y-103487600D01*
X153881588Y-103641784D01*
X153887761Y-103654962D01*
X153973063Y-103792807D01*
X153982099Y-103804208D01*
X154096829Y-103918739D01*
X154108243Y-103927753D01*
X154126067Y-103938740D01*
X154173561Y-103991512D01*
X154184985Y-104061583D01*
X154156711Y-104126707D01*
X154097718Y-104166207D01*
X154059952Y-104172000D01*
X150049312Y-104172000D01*
X150029927Y-104170500D01*
X150015139Y-104168197D01*
X150015135Y-104168197D01*
X150006266Y-104166816D01*
X149987101Y-104169322D01*
X149986370Y-104169418D01*
X149964212Y-104170348D01*
X149637479Y-104155242D01*
X149625890Y-104154168D01*
X149272232Y-104104834D01*
X149260792Y-104102695D01*
X149085995Y-104061583D01*
X148913195Y-104020941D01*
X148902019Y-104017761D01*
X148696251Y-103948794D01*
X148563444Y-103904281D01*
X148552592Y-103900077D01*
X148225934Y-103755844D01*
X148215516Y-103750656D01*
X147903575Y-103576906D01*
X147893680Y-103570780D01*
X147599086Y-103368978D01*
X147589798Y-103361964D01*
X147315079Y-103133840D01*
X147306479Y-103125999D01*
X147053999Y-102873519D01*
X147046158Y-102864919D01*
X146818035Y-102590200D01*
X146811021Y-102580912D01*
X146609225Y-102286326D01*
X146603099Y-102276431D01*
X146429340Y-101964473D01*
X146424152Y-101954055D01*
X146403194Y-101906588D01*
X146359436Y-101807486D01*
X146279923Y-101627405D01*
X146275719Y-101616553D01*
X146206637Y-101410442D01*
X146162239Y-101277978D01*
X146159057Y-101266792D01*
X146154801Y-101248694D01*
X146106756Y-101044419D01*
X146077306Y-100919203D01*
X146075167Y-100907764D01*
X146025834Y-100554107D01*
X146024760Y-100542518D01*
X146009997Y-100223184D01*
X146011362Y-100197985D01*
X146011805Y-100195142D01*
X146011805Y-100195140D01*
X146013186Y-100186270D01*
X146011547Y-100173731D01*
X146009064Y-100154749D01*
X146008000Y-100138411D01*
X146008000Y-100000000D01*
X146486685Y-100000000D01*
X146505931Y-100367241D01*
X146506444Y-100370481D01*
X146506445Y-100370489D01*
X146512933Y-100411450D01*
X146563459Y-100730459D01*
X146658639Y-101085674D01*
X146659824Y-101088762D01*
X146659825Y-101088764D01*
X146663462Y-101098238D01*
X146790427Y-101428994D01*
X146791925Y-101431934D01*
X146891524Y-101627407D01*
X146957380Y-101756657D01*
X146959176Y-101759423D01*
X146959178Y-101759426D01*
X147047141Y-101894877D01*
X147157668Y-102065075D01*
X147389098Y-102350867D01*
X147649133Y-102610902D01*
X147934925Y-102842332D01*
X148243342Y-103042620D01*
X148246276Y-103044115D01*
X148246283Y-103044119D01*
X148568066Y-103208075D01*
X148571006Y-103209573D01*
X148914326Y-103341361D01*
X149269541Y-103436541D01*
X149462558Y-103467112D01*
X149629511Y-103493555D01*
X149629519Y-103493556D01*
X149632759Y-103494069D01*
X150000000Y-103513315D01*
X150367241Y-103494069D01*
X150370481Y-103493556D01*
X150370489Y-103493555D01*
X150537442Y-103467112D01*
X150730459Y-103436541D01*
X151085674Y-103341361D01*
X151428994Y-103209573D01*
X151431934Y-103208075D01*
X151753717Y-103044119D01*
X151753724Y-103044115D01*
X151756658Y-103042620D01*
X152065075Y-102842332D01*
X152252714Y-102690385D01*
X153817000Y-102690385D01*
X153821475Y-102705624D01*
X153822865Y-102706829D01*
X153830548Y-102708500D01*
X155727885Y-102708500D01*
X155743124Y-102704025D01*
X155744329Y-102702635D01*
X155746000Y-102694952D01*
X155746000Y-102690385D01*
X156254000Y-102690385D01*
X156258475Y-102705624D01*
X156259865Y-102706829D01*
X156267548Y-102708500D01*
X158169372Y-102708500D01*
X158196572Y-102716487D01*
X158197441Y-102712493D01*
X158236548Y-102721000D01*
X159727885Y-102721000D01*
X159743124Y-102716525D01*
X159744329Y-102715135D01*
X159746000Y-102707452D01*
X159746000Y-101910116D01*
X159741525Y-101894877D01*
X159740135Y-101893672D01*
X159732452Y-101892001D01*
X158852905Y-101892001D01*
X158846386Y-101892338D01*
X158750794Y-101902257D01*
X158737400Y-101905149D01*
X158583216Y-101956588D01*
X158570038Y-101962761D01*
X158432193Y-102048063D01*
X158420792Y-102057099D01*
X158306261Y-102171829D01*
X158297247Y-102183243D01*
X158285170Y-102202835D01*
X158232398Y-102250328D01*
X158162326Y-102261750D01*
X158097203Y-102233476D01*
X158070767Y-102203021D01*
X158026937Y-102132193D01*
X158017901Y-102120792D01*
X157903171Y-102006261D01*
X157891760Y-101997249D01*
X157753757Y-101912184D01*
X157740576Y-101906037D01*
X157586290Y-101854862D01*
X157572914Y-101851995D01*
X157478562Y-101842328D01*
X157472145Y-101842000D01*
X156272115Y-101842000D01*
X156256876Y-101846475D01*
X156255671Y-101847865D01*
X156254000Y-101855548D01*
X156254000Y-102690385D01*
X155746000Y-102690385D01*
X155746000Y-101860116D01*
X155741525Y-101844877D01*
X155740135Y-101843672D01*
X155732452Y-101842001D01*
X154527905Y-101842001D01*
X154521386Y-101842338D01*
X154425794Y-101852257D01*
X154412400Y-101855149D01*
X154258216Y-101906588D01*
X154245038Y-101912761D01*
X154107193Y-101998063D01*
X154095792Y-102007099D01*
X153981261Y-102121829D01*
X153972249Y-102133240D01*
X153887184Y-102271243D01*
X153881037Y-102284424D01*
X153829862Y-102438710D01*
X153826995Y-102452086D01*
X153817328Y-102546438D01*
X153817000Y-102552855D01*
X153817000Y-102690385D01*
X152252714Y-102690385D01*
X152350867Y-102610902D01*
X152610902Y-102350867D01*
X152842332Y-102065075D01*
X152952859Y-101894877D01*
X153040822Y-101759426D01*
X153040824Y-101759423D01*
X153042620Y-101756657D01*
X153108477Y-101627407D01*
X153208075Y-101431934D01*
X153209573Y-101428994D01*
X153336538Y-101098238D01*
X153340175Y-101088764D01*
X153340176Y-101088762D01*
X153341361Y-101085674D01*
X153436541Y-100730459D01*
X153487067Y-100411450D01*
X153493555Y-100370489D01*
X153493556Y-100370481D01*
X153494069Y-100367241D01*
X153513315Y-100000000D01*
X153494069Y-99632759D01*
X153492480Y-99622723D01*
X153440764Y-99296206D01*
X153436541Y-99269541D01*
X153341361Y-98914326D01*
X153339271Y-98908880D01*
X153225096Y-98611446D01*
X153209573Y-98571006D01*
X153206651Y-98565271D01*
X153044119Y-98246284D01*
X153044115Y-98246277D01*
X153042620Y-98243343D01*
X153035357Y-98232158D01*
X152844134Y-97937700D01*
X152842332Y-97934925D01*
X152610902Y-97649133D01*
X152350867Y-97389098D01*
X152065075Y-97157668D01*
X151756658Y-96957380D01*
X151753724Y-96955885D01*
X151753717Y-96955881D01*
X151431934Y-96791925D01*
X151428994Y-96790427D01*
X151180236Y-96694938D01*
X151088764Y-96659825D01*
X151088762Y-96659824D01*
X151085674Y-96658639D01*
X150730459Y-96563459D01*
X150486401Y-96524804D01*
X150370489Y-96506445D01*
X150370481Y-96506444D01*
X150367241Y-96505931D01*
X150000000Y-96486685D01*
X149632759Y-96505931D01*
X149629519Y-96506444D01*
X149629511Y-96506445D01*
X149513599Y-96524804D01*
X149269541Y-96563459D01*
X148914326Y-96658639D01*
X148911238Y-96659824D01*
X148911236Y-96659825D01*
X148819764Y-96694938D01*
X148571006Y-96790427D01*
X148568066Y-96791925D01*
X148246284Y-96955881D01*
X148246277Y-96955885D01*
X148243343Y-96957380D01*
X147934925Y-97157668D01*
X147649133Y-97389098D01*
X147389098Y-97649133D01*
X147157668Y-97934925D01*
X147155866Y-97937700D01*
X146964644Y-98232158D01*
X146957380Y-98243343D01*
X146955885Y-98246277D01*
X146955881Y-98246284D01*
X146793349Y-98565271D01*
X146790427Y-98571006D01*
X146774904Y-98611446D01*
X146660730Y-98908880D01*
X146658639Y-98914326D01*
X146563459Y-99269541D01*
X146559236Y-99296206D01*
X146507521Y-99622723D01*
X146505931Y-99632759D01*
X146486685Y-100000000D01*
X146008000Y-100000000D01*
X146008000Y-93018918D01*
X147986917Y-93018918D01*
X148002682Y-93292320D01*
X148003507Y-93296525D01*
X148003508Y-93296533D01*
X148033917Y-93451526D01*
X148055405Y-93561053D01*
X148056792Y-93565103D01*
X148056793Y-93565108D01*
X148135174Y-93794038D01*
X148144112Y-93820144D01*
X148179210Y-93889928D01*
X148248904Y-94028500D01*
X148267160Y-94064799D01*
X148269586Y-94068328D01*
X148269589Y-94068334D01*
X148401774Y-94260662D01*
X148422274Y-94290490D01*
X148425161Y-94293663D01*
X148425162Y-94293664D01*
X148588012Y-94472635D01*
X148606582Y-94493043D01*
X148609877Y-94495798D01*
X148609878Y-94495799D01*
X148644238Y-94524528D01*
X148816675Y-94668707D01*
X148820316Y-94670991D01*
X149045024Y-94811951D01*
X149045028Y-94811953D01*
X149048664Y-94814234D01*
X149116544Y-94844883D01*
X149294345Y-94925164D01*
X149294349Y-94925166D01*
X149298257Y-94926930D01*
X149302377Y-94928150D01*
X149302376Y-94928150D01*
X149556723Y-95003491D01*
X149556727Y-95003492D01*
X149560836Y-95004709D01*
X149565070Y-95005357D01*
X149565075Y-95005358D01*
X149827298Y-95045483D01*
X149827300Y-95045483D01*
X149831540Y-95046132D01*
X149970912Y-95048322D01*
X150101071Y-95050367D01*
X150101077Y-95050367D01*
X150105362Y-95050434D01*
X150377235Y-95017534D01*
X150642127Y-94948041D01*
X150646087Y-94946401D01*
X150646092Y-94946399D01*
X150768632Y-94895641D01*
X150895136Y-94843241D01*
X151131582Y-94705073D01*
X151347089Y-94536094D01*
X151358298Y-94524528D01*
X151486834Y-94391889D01*
X151537669Y-94339431D01*
X151540202Y-94335983D01*
X151540206Y-94335978D01*
X151697257Y-94122178D01*
X151699795Y-94118723D01*
X151707935Y-94103731D01*
X151828418Y-93881830D01*
X151828419Y-93881828D01*
X151830468Y-93878054D01*
X151897749Y-93700000D01*
X151925751Y-93625895D01*
X151925752Y-93625891D01*
X151927269Y-93621877D01*
X151988407Y-93354933D01*
X151990211Y-93334729D01*
X152012531Y-93084627D01*
X152012531Y-93084625D01*
X152012751Y-93082161D01*
X152013193Y-93040000D01*
X152012834Y-93034729D01*
X151994859Y-92771055D01*
X151994858Y-92771049D01*
X151994567Y-92766778D01*
X151985115Y-92721134D01*
X151958189Y-92591118D01*
X151939032Y-92498612D01*
X151847617Y-92240465D01*
X151722013Y-91997112D01*
X151712040Y-91982921D01*
X151643279Y-91885084D01*
X151564545Y-91773057D01*
X151378125Y-91572445D01*
X151374810Y-91569731D01*
X151374806Y-91569728D01*
X151213458Y-91437666D01*
X151166205Y-91398990D01*
X150932704Y-91255901D01*
X150928768Y-91254173D01*
X150685873Y-91147549D01*
X150685869Y-91147548D01*
X150681945Y-91145825D01*
X150418566Y-91070800D01*
X150414324Y-91070196D01*
X150414318Y-91070195D01*
X150213834Y-91041662D01*
X150147443Y-91032213D01*
X150003589Y-91031460D01*
X149877877Y-91030802D01*
X149877871Y-91030802D01*
X149873591Y-91030780D01*
X149869347Y-91031339D01*
X149869343Y-91031339D01*
X149773546Y-91043951D01*
X149602078Y-91066525D01*
X149597938Y-91067658D01*
X149597936Y-91067658D01*
X149525008Y-91087609D01*
X149337928Y-91138788D01*
X149333980Y-91140472D01*
X149089982Y-91244546D01*
X149089978Y-91244548D01*
X149086030Y-91246232D01*
X148967414Y-91317222D01*
X148854725Y-91384664D01*
X148854721Y-91384667D01*
X148851043Y-91386868D01*
X148637318Y-91558094D01*
X148448808Y-91756742D01*
X148289002Y-91979136D01*
X148160857Y-92221161D01*
X148159385Y-92225184D01*
X148159383Y-92225188D01*
X148068214Y-92474317D01*
X148066743Y-92478337D01*
X148008404Y-92745907D01*
X148007092Y-92762581D01*
X147996439Y-92897939D01*
X147986917Y-93018918D01*
X146008000Y-93018918D01*
X146008000Y-89508134D01*
X147991500Y-89508134D01*
X147998255Y-89570316D01*
X148049385Y-89706705D01*
X148136739Y-89823261D01*
X148253295Y-89910615D01*
X148389684Y-89961745D01*
X148451866Y-89968500D01*
X151548134Y-89968500D01*
X151610316Y-89961745D01*
X151746705Y-89910615D01*
X151863261Y-89823261D01*
X151950615Y-89706705D01*
X152001745Y-89570316D01*
X152008500Y-89508134D01*
X152008500Y-86411866D01*
X152001745Y-86349684D01*
X151950615Y-86213295D01*
X151863261Y-86096739D01*
X151746705Y-86009385D01*
X151610316Y-85958255D01*
X151548134Y-85951500D01*
X148451866Y-85951500D01*
X148389684Y-85958255D01*
X148253295Y-86009385D01*
X148136739Y-86096739D01*
X148049385Y-86213295D01*
X147998255Y-86349684D01*
X147991500Y-86411866D01*
X147991500Y-89508134D01*
X146008000Y-89508134D01*
X146008000Y-82518918D01*
X147986917Y-82518918D01*
X148002682Y-82792320D01*
X148003507Y-82796525D01*
X148003508Y-82796533D01*
X148010303Y-82831166D01*
X148055405Y-83061053D01*
X148056792Y-83065103D01*
X148056793Y-83065108D01*
X148142723Y-83316088D01*
X148144112Y-83320144D01*
X148174043Y-83379655D01*
X148254187Y-83539004D01*
X148267160Y-83564799D01*
X148269586Y-83568328D01*
X148269589Y-83568334D01*
X148412352Y-83776054D01*
X148422274Y-83790490D01*
X148425161Y-83793663D01*
X148425162Y-83793664D01*
X148564781Y-83947104D01*
X148606582Y-83993043D01*
X148816675Y-84168707D01*
X148820316Y-84170991D01*
X149045024Y-84311951D01*
X149045028Y-84311953D01*
X149048664Y-84314234D01*
X149116544Y-84344883D01*
X149294345Y-84425164D01*
X149294349Y-84425166D01*
X149298257Y-84426930D01*
X149302377Y-84428150D01*
X149302376Y-84428150D01*
X149556723Y-84503491D01*
X149556727Y-84503492D01*
X149560836Y-84504709D01*
X149565070Y-84505357D01*
X149565075Y-84505358D01*
X149827298Y-84545483D01*
X149827300Y-84545483D01*
X149831540Y-84546132D01*
X149970912Y-84548322D01*
X150101071Y-84550367D01*
X150101077Y-84550367D01*
X150105362Y-84550434D01*
X150377235Y-84517534D01*
X150642127Y-84448041D01*
X150646087Y-84446401D01*
X150646092Y-84446399D01*
X150773957Y-84393435D01*
X150895136Y-84343241D01*
X151123027Y-84210072D01*
X151127879Y-84207237D01*
X151127880Y-84207236D01*
X151131582Y-84205073D01*
X151347089Y-84036094D01*
X151354503Y-84028444D01*
X151501878Y-83876364D01*
X151537669Y-83839431D01*
X151540202Y-83835983D01*
X151540206Y-83835978D01*
X151697257Y-83622178D01*
X151699795Y-83618723D01*
X151708722Y-83602282D01*
X151828418Y-83381830D01*
X151828419Y-83381828D01*
X151830468Y-83378054D01*
X151879960Y-83247077D01*
X151925751Y-83125895D01*
X151925752Y-83125891D01*
X151927269Y-83121877D01*
X151988407Y-82854933D01*
X151991141Y-82824308D01*
X152012531Y-82584627D01*
X152012531Y-82584625D01*
X152012751Y-82582161D01*
X152013193Y-82540000D01*
X151994567Y-82266778D01*
X151939032Y-81998612D01*
X151847617Y-81740465D01*
X151722013Y-81497112D01*
X151712040Y-81482921D01*
X151573569Y-81285897D01*
X151564545Y-81273057D01*
X151426258Y-81124242D01*
X151381046Y-81075588D01*
X151381043Y-81075585D01*
X151378125Y-81072445D01*
X151374810Y-81069731D01*
X151374806Y-81069728D01*
X151216120Y-80939845D01*
X151166205Y-80898990D01*
X150995968Y-80794669D01*
X154142001Y-80794669D01*
X154142370Y-80801486D01*
X154147895Y-80852352D01*
X154151521Y-80867604D01*
X154196676Y-80988054D01*
X154205214Y-81003649D01*
X154281715Y-81105724D01*
X154294276Y-81118285D01*
X154396351Y-81194786D01*
X154411946Y-81203324D01*
X154532394Y-81248478D01*
X154547649Y-81252105D01*
X154598514Y-81257631D01*
X154605328Y-81258000D01*
X154877885Y-81258000D01*
X154893124Y-81253525D01*
X154894329Y-81252135D01*
X154896000Y-81244452D01*
X154896000Y-80272115D01*
X154891525Y-80256876D01*
X154890135Y-80255671D01*
X154882452Y-80254000D01*
X154160116Y-80254000D01*
X154144877Y-80258475D01*
X154143672Y-80259865D01*
X154142001Y-80267548D01*
X154142001Y-80794669D01*
X150995968Y-80794669D01*
X150932704Y-80755901D01*
X150928768Y-80754173D01*
X150685873Y-80647549D01*
X150685869Y-80647548D01*
X150681945Y-80645825D01*
X150418566Y-80570800D01*
X150414324Y-80570196D01*
X150414318Y-80570195D01*
X150213834Y-80541662D01*
X150147443Y-80532213D01*
X150003589Y-80531460D01*
X149877877Y-80530802D01*
X149877871Y-80530802D01*
X149873591Y-80530780D01*
X149869347Y-80531339D01*
X149869343Y-80531339D01*
X149750302Y-80547011D01*
X149602078Y-80566525D01*
X149597938Y-80567658D01*
X149597936Y-80567658D01*
X149525008Y-80587609D01*
X149337928Y-80638788D01*
X149333980Y-80640472D01*
X149089982Y-80744546D01*
X149089978Y-80744548D01*
X149086030Y-80746232D01*
X149009871Y-80791812D01*
X148854725Y-80884664D01*
X148854721Y-80884667D01*
X148851043Y-80886868D01*
X148637318Y-81058094D01*
X148574546Y-81124242D01*
X148451861Y-81253525D01*
X148448808Y-81256742D01*
X148289002Y-81479136D01*
X148160857Y-81721161D01*
X148159385Y-81725184D01*
X148159383Y-81725188D01*
X148068214Y-81974317D01*
X148066743Y-81978337D01*
X148008404Y-82245907D01*
X147986917Y-82518918D01*
X146008000Y-82518918D01*
X146008000Y-79727885D01*
X154142000Y-79727885D01*
X154146475Y-79743124D01*
X154147865Y-79744329D01*
X154155548Y-79746000D01*
X154877885Y-79746000D01*
X154893124Y-79741525D01*
X154894329Y-79740135D01*
X154896000Y-79732452D01*
X154896000Y-78760116D01*
X154891525Y-78744877D01*
X154890135Y-78743672D01*
X154882452Y-78742001D01*
X154605331Y-78742001D01*
X154598510Y-78742371D01*
X154547648Y-78747895D01*
X154532396Y-78751521D01*
X154411946Y-78796676D01*
X154396351Y-78805214D01*
X154294276Y-78881715D01*
X154281715Y-78894276D01*
X154205214Y-78996351D01*
X154196676Y-79011946D01*
X154151522Y-79132394D01*
X154147895Y-79147649D01*
X154142369Y-79198514D01*
X154142000Y-79205328D01*
X154142000Y-79727885D01*
X146008000Y-79727885D01*
X146008000Y-79004669D01*
X147992001Y-79004669D01*
X147992371Y-79011490D01*
X147997895Y-79062352D01*
X148001521Y-79077604D01*
X148046676Y-79198054D01*
X148055214Y-79213649D01*
X148131715Y-79315724D01*
X148144276Y-79328285D01*
X148246351Y-79404786D01*
X148261946Y-79413324D01*
X148382394Y-79458478D01*
X148397649Y-79462105D01*
X148448514Y-79467631D01*
X148455328Y-79468000D01*
X149727885Y-79468000D01*
X149743124Y-79463525D01*
X149744329Y-79462135D01*
X149746000Y-79454452D01*
X149746000Y-79449884D01*
X150254000Y-79449884D01*
X150258475Y-79465123D01*
X150259865Y-79466328D01*
X150267548Y-79467999D01*
X151544669Y-79467999D01*
X151551490Y-79467629D01*
X151602352Y-79462105D01*
X151617604Y-79458479D01*
X151738054Y-79413324D01*
X151753649Y-79404786D01*
X151855724Y-79328285D01*
X151868285Y-79315724D01*
X151944786Y-79213649D01*
X151953324Y-79198054D01*
X151998478Y-79077606D01*
X152002105Y-79062351D01*
X152007631Y-79011486D01*
X152008000Y-79004672D01*
X152008000Y-77732115D01*
X152003525Y-77716876D01*
X152002135Y-77715671D01*
X151994452Y-77714000D01*
X150272115Y-77714000D01*
X150256876Y-77718475D01*
X150255671Y-77719865D01*
X150254000Y-77727548D01*
X150254000Y-79449884D01*
X149746000Y-79449884D01*
X149746000Y-77732115D01*
X149741525Y-77716876D01*
X149740135Y-77715671D01*
X149732452Y-77714000D01*
X148010116Y-77714000D01*
X147994877Y-77718475D01*
X147993672Y-77719865D01*
X147992001Y-77727548D01*
X147992001Y-79004669D01*
X146008000Y-79004669D01*
X146008000Y-77187885D01*
X147992000Y-77187885D01*
X147996475Y-77203124D01*
X147997865Y-77204329D01*
X148005548Y-77206000D01*
X149727885Y-77206000D01*
X149743124Y-77201525D01*
X149744329Y-77200135D01*
X149746000Y-77192452D01*
X149746000Y-77187885D01*
X150254000Y-77187885D01*
X150258475Y-77203124D01*
X150259865Y-77204329D01*
X150267548Y-77206000D01*
X151989884Y-77206000D01*
X152005123Y-77201525D01*
X152006328Y-77200135D01*
X152007999Y-77192452D01*
X152007999Y-75915331D01*
X152007629Y-75908510D01*
X152002105Y-75857648D01*
X151998479Y-75842396D01*
X151953324Y-75721946D01*
X151944786Y-75706351D01*
X151868285Y-75604276D01*
X151855724Y-75591715D01*
X151753649Y-75515214D01*
X151738054Y-75506676D01*
X151617606Y-75461522D01*
X151602351Y-75457895D01*
X151551486Y-75452369D01*
X151544672Y-75452000D01*
X150272115Y-75452000D01*
X150256876Y-75456475D01*
X150255671Y-75457865D01*
X150254000Y-75465548D01*
X150254000Y-77187885D01*
X149746000Y-77187885D01*
X149746000Y-75470116D01*
X149741525Y-75454877D01*
X149740135Y-75453672D01*
X149732452Y-75452001D01*
X148455331Y-75452001D01*
X148448510Y-75452371D01*
X148397648Y-75457895D01*
X148382396Y-75461521D01*
X148261946Y-75506676D01*
X148246351Y-75515214D01*
X148144276Y-75591715D01*
X148131715Y-75604276D01*
X148055214Y-75706351D01*
X148046676Y-75721946D01*
X148001522Y-75842394D01*
X147997895Y-75857649D01*
X147992369Y-75908514D01*
X147992000Y-75915328D01*
X147992000Y-77187885D01*
X146008000Y-77187885D01*
X146008000Y-72018918D01*
X147986917Y-72018918D01*
X148002682Y-72292320D01*
X148003507Y-72296525D01*
X148003508Y-72296533D01*
X148025096Y-72406565D01*
X148055405Y-72561053D01*
X148056792Y-72565103D01*
X148056793Y-72565108D01*
X148129436Y-72777279D01*
X148144112Y-72820144D01*
X148267160Y-73064799D01*
X148269586Y-73068328D01*
X148269589Y-73068334D01*
X148381594Y-73231301D01*
X148422274Y-73290490D01*
X148606582Y-73493043D01*
X148816675Y-73668707D01*
X148820316Y-73670991D01*
X149045024Y-73811951D01*
X149045028Y-73811953D01*
X149048664Y-73814234D01*
X149116544Y-73844883D01*
X149294345Y-73925164D01*
X149294349Y-73925166D01*
X149298257Y-73926930D01*
X149361393Y-73945632D01*
X149556723Y-74003491D01*
X149556727Y-74003492D01*
X149560836Y-74004709D01*
X149565070Y-74005357D01*
X149565075Y-74005358D01*
X149827298Y-74045483D01*
X149827300Y-74045483D01*
X149831540Y-74046132D01*
X149970912Y-74048322D01*
X150101071Y-74050367D01*
X150101077Y-74050367D01*
X150105362Y-74050434D01*
X150377235Y-74017534D01*
X150642127Y-73948041D01*
X150646087Y-73946401D01*
X150646092Y-73946399D01*
X150820986Y-73873955D01*
X150895136Y-73843241D01*
X151086827Y-73731226D01*
X151127879Y-73707237D01*
X151127880Y-73707236D01*
X151131582Y-73705073D01*
X151347089Y-73536094D01*
X151355724Y-73527184D01*
X151495094Y-73383365D01*
X151537669Y-73339431D01*
X151540202Y-73335983D01*
X151540206Y-73335978D01*
X151697257Y-73122178D01*
X151699795Y-73118723D01*
X151727154Y-73068334D01*
X151828418Y-72881830D01*
X151828419Y-72881828D01*
X151830468Y-72878054D01*
X151911709Y-72663056D01*
X151925751Y-72625895D01*
X151925752Y-72625891D01*
X151927269Y-72621877D01*
X151976666Y-72406197D01*
X151987449Y-72359117D01*
X151987450Y-72359113D01*
X151988407Y-72354933D01*
X151992038Y-72314256D01*
X152012531Y-72084627D01*
X152012531Y-72084625D01*
X152012751Y-72082161D01*
X152013193Y-72040000D01*
X152011465Y-72014648D01*
X151994859Y-71771055D01*
X151994858Y-71771049D01*
X151994567Y-71766778D01*
X151985115Y-71721134D01*
X151945675Y-71530690D01*
X151939032Y-71498612D01*
X151847617Y-71240465D01*
X151740788Y-71033488D01*
X151723978Y-71000919D01*
X151723978Y-71000918D01*
X151722013Y-70997112D01*
X151712040Y-70982921D01*
X151605764Y-70831706D01*
X151564545Y-70773057D01*
X151486832Y-70689428D01*
X151381046Y-70575588D01*
X151381043Y-70575585D01*
X151378125Y-70572445D01*
X151374810Y-70569731D01*
X151374806Y-70569728D01*
X151209095Y-70434095D01*
X151166205Y-70398990D01*
X150932704Y-70255901D01*
X150928768Y-70254173D01*
X150685873Y-70147549D01*
X150685869Y-70147548D01*
X150681945Y-70145825D01*
X150418566Y-70070800D01*
X150414324Y-70070196D01*
X150414318Y-70070195D01*
X150206021Y-70040550D01*
X150147443Y-70032213D01*
X150003589Y-70031460D01*
X149877877Y-70030802D01*
X149877871Y-70030802D01*
X149873591Y-70030780D01*
X149869347Y-70031339D01*
X149869343Y-70031339D01*
X149750302Y-70047011D01*
X149602078Y-70066525D01*
X149597938Y-70067658D01*
X149597936Y-70067658D01*
X149574527Y-70074062D01*
X149337928Y-70138788D01*
X149333980Y-70140472D01*
X149089982Y-70244546D01*
X149089978Y-70244548D01*
X149086030Y-70246232D01*
X148994572Y-70300968D01*
X148854725Y-70384664D01*
X148854721Y-70384667D01*
X148851043Y-70386868D01*
X148637318Y-70558094D01*
X148448808Y-70756742D01*
X148289002Y-70979136D01*
X148160857Y-71221161D01*
X148159385Y-71225184D01*
X148159383Y-71225188D01*
X148096789Y-71396232D01*
X148066743Y-71478337D01*
X148008404Y-71745907D01*
X147986917Y-72018918D01*
X146008000Y-72018918D01*
X146008000Y-60229321D01*
X146009500Y-60209936D01*
X146011804Y-60195142D01*
X146011804Y-60195138D01*
X146013185Y-60186269D01*
X146010583Y-60166373D01*
X146009653Y-60144215D01*
X146016321Y-60000000D01*
X146486685Y-60000000D01*
X146505931Y-60367241D01*
X146506444Y-60370481D01*
X146506445Y-60370489D01*
X146521989Y-60468626D01*
X146563459Y-60730459D01*
X146658639Y-61085674D01*
X146659824Y-61088762D01*
X146659825Y-61088764D01*
X146668324Y-61110905D01*
X146790427Y-61428994D01*
X146791925Y-61431934D01*
X146943005Y-61728444D01*
X146957380Y-61756657D01*
X147157668Y-62065075D01*
X147389098Y-62350867D01*
X147649133Y-62610902D01*
X147934925Y-62842332D01*
X147979897Y-62871537D01*
X148210092Y-63021027D01*
X148243342Y-63042620D01*
X148246276Y-63044115D01*
X148246283Y-63044119D01*
X148568066Y-63208075D01*
X148571006Y-63209573D01*
X148914326Y-63341361D01*
X149269541Y-63436541D01*
X149462558Y-63467112D01*
X149629511Y-63493555D01*
X149629519Y-63493556D01*
X149632759Y-63494069D01*
X150000000Y-63513315D01*
X150367241Y-63494069D01*
X150370481Y-63493556D01*
X150370489Y-63493555D01*
X150537442Y-63467112D01*
X150730459Y-63436541D01*
X151085674Y-63341361D01*
X151428994Y-63209573D01*
X151431934Y-63208075D01*
X151753717Y-63044119D01*
X151753724Y-63044115D01*
X151756658Y-63042620D01*
X151789909Y-63021027D01*
X152020103Y-62871537D01*
X152065075Y-62842332D01*
X152350867Y-62610902D01*
X152610902Y-62350867D01*
X152842332Y-62065075D01*
X153042620Y-61756657D01*
X153056996Y-61728444D01*
X153208075Y-61431934D01*
X153209573Y-61428994D01*
X153331676Y-61110905D01*
X153340175Y-61088764D01*
X153340176Y-61088762D01*
X153341361Y-61085674D01*
X153436541Y-60730459D01*
X153478011Y-60468626D01*
X153493555Y-60370489D01*
X153493556Y-60370481D01*
X153494069Y-60367241D01*
X153513315Y-60000000D01*
X153494069Y-59632759D01*
X153493199Y-59627262D01*
X153449525Y-59351522D01*
X153436541Y-59269541D01*
X153341361Y-58914326D01*
X153209573Y-58571006D01*
X153182146Y-58517178D01*
X153044119Y-58246284D01*
X153044115Y-58246277D01*
X153042620Y-58243343D01*
X153000971Y-58179208D01*
X152844134Y-57937700D01*
X152842332Y-57934925D01*
X152690230Y-57747095D01*
X153817001Y-57747095D01*
X153817338Y-57753614D01*
X153827257Y-57849206D01*
X153830149Y-57862600D01*
X153881588Y-58016784D01*
X153887761Y-58029962D01*
X153973063Y-58167807D01*
X153982099Y-58179208D01*
X154096829Y-58293739D01*
X154108240Y-58302751D01*
X154246243Y-58387816D01*
X154259424Y-58393963D01*
X154413710Y-58445138D01*
X154427086Y-58448005D01*
X154521438Y-58457672D01*
X154527854Y-58458000D01*
X155727885Y-58458000D01*
X155743124Y-58453525D01*
X155744329Y-58452135D01*
X155746000Y-58444452D01*
X155746000Y-58439884D01*
X156254000Y-58439884D01*
X156258475Y-58455123D01*
X156259865Y-58456328D01*
X156267548Y-58457999D01*
X157472095Y-58457999D01*
X157478614Y-58457662D01*
X157574206Y-58447743D01*
X157587600Y-58444851D01*
X157741784Y-58393412D01*
X157754962Y-58387239D01*
X157892807Y-58301937D01*
X157904208Y-58292901D01*
X158018739Y-58178171D01*
X158027753Y-58166757D01*
X158070709Y-58097069D01*
X158123481Y-58049575D01*
X158193552Y-58038151D01*
X158258676Y-58066425D01*
X158285112Y-58096879D01*
X158298063Y-58117808D01*
X158307099Y-58129208D01*
X158421829Y-58243739D01*
X158433240Y-58252751D01*
X158571243Y-58337816D01*
X158584424Y-58343963D01*
X158738710Y-58395138D01*
X158752086Y-58398005D01*
X158846438Y-58407672D01*
X158852854Y-58408000D01*
X159727885Y-58408000D01*
X159743124Y-58403525D01*
X159744329Y-58402135D01*
X159746000Y-58394452D01*
X159746000Y-57597115D01*
X159741525Y-57581876D01*
X159740135Y-57580671D01*
X159732452Y-57579000D01*
X158241115Y-57579000D01*
X158215927Y-57586396D01*
X158180429Y-57591500D01*
X156272115Y-57591500D01*
X156256876Y-57595975D01*
X156255671Y-57597365D01*
X156254000Y-57605048D01*
X156254000Y-58439884D01*
X155746000Y-58439884D01*
X155746000Y-57609615D01*
X155741525Y-57594376D01*
X155740135Y-57593171D01*
X155732452Y-57591500D01*
X153835116Y-57591500D01*
X153819877Y-57595975D01*
X153818672Y-57597365D01*
X153817001Y-57605048D01*
X153817001Y-57747095D01*
X152690230Y-57747095D01*
X152610902Y-57649133D01*
X152350867Y-57389098D01*
X152065075Y-57157668D01*
X151837797Y-57010072D01*
X151759427Y-56959178D01*
X151759424Y-56959176D01*
X151756658Y-56957380D01*
X151753724Y-56955885D01*
X151753717Y-56955881D01*
X151431934Y-56791925D01*
X151428994Y-56790427D01*
X151085674Y-56658639D01*
X150730459Y-56563459D01*
X150537442Y-56532888D01*
X150370489Y-56506445D01*
X150370481Y-56506444D01*
X150367241Y-56505931D01*
X150000000Y-56486685D01*
X149632759Y-56505931D01*
X149629519Y-56506444D01*
X149629511Y-56506445D01*
X149462558Y-56532888D01*
X149269541Y-56563459D01*
X148914326Y-56658639D01*
X148571006Y-56790427D01*
X148568066Y-56791925D01*
X148246284Y-56955881D01*
X148246277Y-56955885D01*
X148243343Y-56957380D01*
X148240577Y-56959176D01*
X148240574Y-56959178D01*
X148186471Y-56994313D01*
X147934925Y-57157668D01*
X147649133Y-57389098D01*
X147389098Y-57649133D01*
X147157668Y-57934925D01*
X147155866Y-57937700D01*
X146999030Y-58179208D01*
X146957380Y-58243343D01*
X146955885Y-58246277D01*
X146955881Y-58246284D01*
X146817854Y-58517178D01*
X146790427Y-58571006D01*
X146658639Y-58914326D01*
X146563459Y-59269541D01*
X146550475Y-59351522D01*
X146506802Y-59627262D01*
X146505931Y-59632759D01*
X146486685Y-60000000D01*
X146016321Y-60000000D01*
X146024759Y-59817481D01*
X146025833Y-59805892D01*
X146075166Y-59452235D01*
X146077305Y-59440795D01*
X146133586Y-59201502D01*
X146159059Y-59093200D01*
X146162243Y-59082010D01*
X146171439Y-59054572D01*
X146275718Y-58743445D01*
X146279920Y-58732597D01*
X146424156Y-58405936D01*
X146429336Y-58395531D01*
X146603104Y-58083558D01*
X146609220Y-58073681D01*
X146614191Y-58066425D01*
X146706035Y-57932349D01*
X146811022Y-57779087D01*
X146818036Y-57769799D01*
X147046159Y-57495080D01*
X147054000Y-57486480D01*
X147306480Y-57234000D01*
X147315080Y-57226159D01*
X147317424Y-57224213D01*
X147486878Y-57083500D01*
X147589799Y-56998036D01*
X147599087Y-56991022D01*
X147891919Y-56790427D01*
X147893682Y-56789219D01*
X147903558Y-56783104D01*
X148215531Y-56609336D01*
X148225936Y-56604156D01*
X148442862Y-56508373D01*
X148552601Y-56459918D01*
X148563446Y-56455718D01*
X148902012Y-56342242D01*
X148913200Y-56339059D01*
X149260795Y-56257305D01*
X149272235Y-56255166D01*
X149625892Y-56205833D01*
X149637480Y-56204759D01*
X149658610Y-56203782D01*
X149956815Y-56189996D01*
X149982014Y-56191361D01*
X149984857Y-56191804D01*
X149984859Y-56191804D01*
X149993729Y-56193185D01*
X150002631Y-56192021D01*
X150002634Y-56192021D01*
X150022790Y-56189385D01*
X150025251Y-56189063D01*
X150041588Y-56187999D01*
X153985737Y-56187999D01*
X154053858Y-56208001D01*
G37*
%TD.AperFunction*%
%TA.AperFunction,Conductor*%
G36*
X173910031Y-86940585D02*
G01*
X173966867Y-86983132D01*
X173991678Y-87049652D01*
X173991999Y-87058641D01*
X173991999Y-100130679D01*
X173990499Y-100150064D01*
X173988195Y-100164858D01*
X173988195Y-100164862D01*
X173986814Y-100173731D01*
X173988932Y-100189928D01*
X173989416Y-100193627D01*
X173990346Y-100215785D01*
X173975240Y-100542518D01*
X173974166Y-100554107D01*
X173924832Y-100907765D01*
X173922693Y-100919204D01*
X173894825Y-101037694D01*
X173868206Y-101150874D01*
X173840942Y-101266793D01*
X173837760Y-101277979D01*
X173724277Y-101616564D01*
X173720084Y-101627389D01*
X173598833Y-101901995D01*
X173575842Y-101954064D01*
X173570662Y-101964468D01*
X173396894Y-102276441D01*
X173390779Y-102286317D01*
X173363025Y-102326832D01*
X173188976Y-102580912D01*
X173181962Y-102590200D01*
X172953844Y-102864913D01*
X172946003Y-102873514D01*
X172693511Y-103126005D01*
X172684911Y-103133845D01*
X172410199Y-103361963D01*
X172400911Y-103368977D01*
X172106316Y-103570779D01*
X172096421Y-103576905D01*
X171784480Y-103750655D01*
X171774062Y-103755843D01*
X171447404Y-103900076D01*
X171436552Y-103904280D01*
X171303742Y-103948794D01*
X171097982Y-104017758D01*
X171086801Y-104020940D01*
X170757707Y-104098342D01*
X170739203Y-104102694D01*
X170727763Y-104104833D01*
X170374105Y-104154166D01*
X170362516Y-104155240D01*
X170341948Y-104156191D01*
X170043183Y-104170003D01*
X170017984Y-104168638D01*
X170015141Y-104168195D01*
X170015139Y-104168195D01*
X170006269Y-104166814D01*
X169997367Y-104167978D01*
X169997364Y-104167978D01*
X169979244Y-104170348D01*
X169975314Y-104170862D01*
X169974748Y-104170936D01*
X169958410Y-104172000D01*
X165982364Y-104172000D01*
X165914243Y-104151998D01*
X165867750Y-104098342D01*
X165857646Y-104028068D01*
X165887140Y-103963488D01*
X165916061Y-103938856D01*
X166004829Y-103883925D01*
X166004836Y-103883919D01*
X166011055Y-103880071D01*
X166130864Y-103760053D01*
X166136657Y-103750656D01*
X166182875Y-103675675D01*
X166219849Y-103615692D01*
X166234746Y-103570779D01*
X166271072Y-103461262D01*
X166271072Y-103461260D01*
X166273238Y-103454731D01*
X166283500Y-103354572D01*
X166283500Y-102820428D01*
X166272978Y-102719018D01*
X166219308Y-102558151D01*
X166130071Y-102413945D01*
X166105195Y-102389113D01*
X166071116Y-102326832D01*
X166076118Y-102256012D01*
X166105040Y-102210922D01*
X166125693Y-102190233D01*
X166130864Y-102185053D01*
X166219849Y-102040692D01*
X166227573Y-102017406D01*
X166271072Y-101886262D01*
X166271072Y-101886260D01*
X166273238Y-101879731D01*
X166283500Y-101779572D01*
X166283500Y-101245428D01*
X166272978Y-101144018D01*
X166219308Y-100983151D01*
X166130071Y-100838945D01*
X166085707Y-100794658D01*
X166051628Y-100732375D01*
X166056631Y-100661555D01*
X166085630Y-100616390D01*
X166136639Y-100565381D01*
X166225472Y-100418699D01*
X166238453Y-100377279D01*
X166258648Y-100312835D01*
X166298106Y-100253813D01*
X166363209Y-100225493D01*
X166433289Y-100236866D01*
X166486095Y-100284322D01*
X166504709Y-100343920D01*
X166505931Y-100367241D01*
X166506444Y-100370481D01*
X166506445Y-100370489D01*
X166512933Y-100411450D01*
X166563459Y-100730459D01*
X166658639Y-101085674D01*
X166659824Y-101088762D01*
X166659825Y-101088764D01*
X166663462Y-101098238D01*
X166790427Y-101428994D01*
X166791925Y-101431934D01*
X166891524Y-101627407D01*
X166957380Y-101756657D01*
X166959176Y-101759423D01*
X166959178Y-101759426D01*
X167047141Y-101894877D01*
X167157668Y-102065075D01*
X167389098Y-102350867D01*
X167649133Y-102610902D01*
X167934925Y-102842332D01*
X168243342Y-103042620D01*
X168246276Y-103044115D01*
X168246283Y-103044119D01*
X168568066Y-103208075D01*
X168571006Y-103209573D01*
X168914326Y-103341361D01*
X169269541Y-103436541D01*
X169462558Y-103467112D01*
X169629511Y-103493555D01*
X169629519Y-103493556D01*
X169632759Y-103494069D01*
X170000000Y-103513315D01*
X170367241Y-103494069D01*
X170370481Y-103493556D01*
X170370489Y-103493555D01*
X170537442Y-103467112D01*
X170730459Y-103436541D01*
X171085674Y-103341361D01*
X171428994Y-103209573D01*
X171431934Y-103208075D01*
X171753717Y-103044119D01*
X171753724Y-103044115D01*
X171756658Y-103042620D01*
X172065075Y-102842332D01*
X172350867Y-102610902D01*
X172610902Y-102350867D01*
X172842332Y-102065075D01*
X172952859Y-101894877D01*
X173040822Y-101759426D01*
X173040824Y-101759423D01*
X173042620Y-101756657D01*
X173108477Y-101627407D01*
X173208075Y-101431934D01*
X173209573Y-101428994D01*
X173336538Y-101098238D01*
X173340175Y-101088764D01*
X173340176Y-101088762D01*
X173341361Y-101085674D01*
X173436541Y-100730459D01*
X173487067Y-100411450D01*
X173493555Y-100370489D01*
X173493556Y-100370481D01*
X173494069Y-100367241D01*
X173513315Y-100000000D01*
X173494069Y-99632759D01*
X173492480Y-99622723D01*
X173440764Y-99296206D01*
X173436541Y-99269541D01*
X173341361Y-98914326D01*
X173339271Y-98908880D01*
X173225096Y-98611446D01*
X173209573Y-98571006D01*
X173206651Y-98565271D01*
X173044119Y-98246284D01*
X173044115Y-98246277D01*
X173042620Y-98243343D01*
X173035357Y-98232158D01*
X172844134Y-97937700D01*
X172842332Y-97934925D01*
X172610902Y-97649133D01*
X172350867Y-97389098D01*
X172065075Y-97157668D01*
X171756658Y-96957380D01*
X171753724Y-96955885D01*
X171753717Y-96955881D01*
X171431934Y-96791925D01*
X171428994Y-96790427D01*
X171180236Y-96694938D01*
X171088764Y-96659825D01*
X171088762Y-96659824D01*
X171085674Y-96658639D01*
X170730459Y-96563459D01*
X170486401Y-96524804D01*
X170370489Y-96506445D01*
X170370481Y-96506444D01*
X170367241Y-96505931D01*
X170000000Y-96486685D01*
X169632759Y-96505931D01*
X169629519Y-96506444D01*
X169629511Y-96506445D01*
X169513599Y-96524804D01*
X169269541Y-96563459D01*
X168914326Y-96658639D01*
X168911238Y-96659824D01*
X168911236Y-96659825D01*
X168819764Y-96694938D01*
X168571006Y-96790427D01*
X168568066Y-96791925D01*
X168246284Y-96955881D01*
X168246277Y-96955885D01*
X168243343Y-96957380D01*
X167934925Y-97157668D01*
X167649133Y-97389098D01*
X167389098Y-97649133D01*
X167157668Y-97934925D01*
X167155866Y-97937700D01*
X166964644Y-98232158D01*
X166957380Y-98243343D01*
X166955885Y-98246277D01*
X166955881Y-98246284D01*
X166793349Y-98565271D01*
X166790427Y-98571006D01*
X166774904Y-98611446D01*
X166660730Y-98908880D01*
X166658639Y-98914326D01*
X166563459Y-99269541D01*
X166531463Y-99471556D01*
X166517006Y-99562834D01*
X166486594Y-99626987D01*
X166426325Y-99664514D01*
X166355336Y-99663500D01*
X166296164Y-99624267D01*
X166272323Y-99580802D01*
X166227744Y-99438550D01*
X166227743Y-99438548D01*
X166225472Y-99431301D01*
X166136639Y-99284619D01*
X166041115Y-99189095D01*
X166007089Y-99126783D01*
X166012154Y-99055968D01*
X166041115Y-99010905D01*
X166136639Y-98915381D01*
X166225472Y-98768699D01*
X166230549Y-98752500D01*
X166255915Y-98671556D01*
X166276753Y-98605062D01*
X166283500Y-98531635D01*
X166283499Y-98018366D01*
X166283234Y-98015474D01*
X166277364Y-97951592D01*
X166276753Y-97944938D01*
X166269792Y-97922724D01*
X166227744Y-97788550D01*
X166227743Y-97788548D01*
X166225472Y-97781301D01*
X166136639Y-97634619D01*
X166015381Y-97513361D01*
X165868699Y-97424528D01*
X165861452Y-97422257D01*
X165861450Y-97422256D01*
X165755642Y-97389098D01*
X165705062Y-97373247D01*
X165631635Y-97366500D01*
X165628737Y-97366500D01*
X165299140Y-97366501D01*
X164968366Y-97366501D01*
X164965508Y-97366764D01*
X164965499Y-97366764D01*
X164929996Y-97370026D01*
X164894938Y-97373247D01*
X164888560Y-97375246D01*
X164888559Y-97375246D01*
X164738550Y-97422256D01*
X164738548Y-97422257D01*
X164731301Y-97424528D01*
X164688581Y-97450400D01*
X164667800Y-97462985D01*
X164599170Y-97481163D01*
X164551282Y-97470315D01*
X164413323Y-97408892D01*
X164413315Y-97408889D01*
X164407288Y-97406206D01*
X164313887Y-97386353D01*
X164226944Y-97367872D01*
X164226939Y-97367872D01*
X164220487Y-97366500D01*
X164029513Y-97366500D01*
X164023061Y-97367872D01*
X164023056Y-97367872D01*
X163936113Y-97386353D01*
X163842712Y-97406206D01*
X163836682Y-97408891D01*
X163836681Y-97408891D01*
X163674278Y-97481197D01*
X163674276Y-97481198D01*
X163668248Y-97483882D01*
X163662907Y-97487762D01*
X163662906Y-97487763D01*
X163636189Y-97507174D01*
X163611385Y-97525196D01*
X163591777Y-97539442D01*
X163524910Y-97563300D01*
X163455758Y-97547220D01*
X163428621Y-97526601D01*
X163415381Y-97513361D01*
X163268699Y-97424528D01*
X163261452Y-97422257D01*
X163261450Y-97422256D01*
X163155642Y-97389098D01*
X163105062Y-97373247D01*
X163031635Y-97366500D01*
X163028737Y-97366500D01*
X162699140Y-97366501D01*
X162368366Y-97366501D01*
X162365508Y-97366764D01*
X162365499Y-97366764D01*
X162329996Y-97370026D01*
X162294938Y-97373247D01*
X162288560Y-97375246D01*
X162288559Y-97375246D01*
X162138550Y-97422256D01*
X162138548Y-97422257D01*
X162131301Y-97424528D01*
X161984619Y-97513361D01*
X161863361Y-97634619D01*
X161774528Y-97781301D01*
X161723247Y-97944938D01*
X161716500Y-98018365D01*
X161716501Y-98531634D01*
X161716764Y-98534492D01*
X161716764Y-98534501D01*
X161719591Y-98565271D01*
X161723247Y-98605062D01*
X161725246Y-98611440D01*
X161725246Y-98611441D01*
X161769452Y-98752500D01*
X161774528Y-98768699D01*
X161863361Y-98915381D01*
X161958885Y-99010905D01*
X161992911Y-99073217D01*
X161987846Y-99144032D01*
X161958885Y-99189095D01*
X161896559Y-99251421D01*
X161834247Y-99285447D01*
X161763432Y-99280382D01*
X161706596Y-99237835D01*
X161703793Y-99233724D01*
X161702334Y-99231883D01*
X161698478Y-99225652D01*
X161573303Y-99100695D01*
X161527978Y-99072756D01*
X161428968Y-99011725D01*
X161428966Y-99011724D01*
X161422738Y-99007885D01*
X161342995Y-98981436D01*
X161261389Y-98954368D01*
X161261387Y-98954368D01*
X161254861Y-98952203D01*
X161248025Y-98951503D01*
X161248022Y-98951502D01*
X161204969Y-98947091D01*
X161150400Y-98941500D01*
X160896913Y-98941500D01*
X160828792Y-98921498D01*
X160782299Y-98867842D01*
X160772195Y-98797568D01*
X160787794Y-98752500D01*
X160831223Y-98677279D01*
X160831224Y-98677278D01*
X160834527Y-98671556D01*
X160893542Y-98489928D01*
X160903393Y-98396206D01*
X160912814Y-98306565D01*
X160913504Y-98300000D01*
X160898632Y-98158500D01*
X160894232Y-98116635D01*
X160894232Y-98116633D01*
X160893542Y-98110072D01*
X160834527Y-97928444D01*
X160787353Y-97846736D01*
X160770616Y-97777741D01*
X160793837Y-97710649D01*
X160807378Y-97694642D01*
X160836639Y-97665381D01*
X160925472Y-97518699D01*
X160937225Y-97481197D01*
X160953751Y-97428462D01*
X160976753Y-97355062D01*
X160983500Y-97281635D01*
X160983499Y-96768366D01*
X160976753Y-96694938D01*
X160965110Y-96657784D01*
X160927744Y-96538550D01*
X160927743Y-96538548D01*
X160925472Y-96531301D01*
X160836639Y-96384619D01*
X160741115Y-96289095D01*
X160707089Y-96226783D01*
X160712154Y-96155968D01*
X160741115Y-96110905D01*
X160831615Y-96020405D01*
X160893927Y-95986379D01*
X160920710Y-95983500D01*
X163386109Y-95983500D01*
X163402552Y-95984578D01*
X163434245Y-95988750D01*
X163442434Y-95987672D01*
X163474119Y-95983501D01*
X163474129Y-95983500D01*
X163474130Y-95983500D01*
X163573702Y-95970391D01*
X163584909Y-95968916D01*
X163584911Y-95968915D01*
X163593096Y-95967838D01*
X163741121Y-95906524D01*
X163776216Y-95879595D01*
X163836317Y-95833477D01*
X163836320Y-95833474D01*
X163861679Y-95814015D01*
X163868232Y-95808987D01*
X163873262Y-95802432D01*
X163887697Y-95783621D01*
X163898564Y-95771230D01*
X164556382Y-95113412D01*
X169278494Y-95113412D01*
X169287790Y-95125427D01*
X169338995Y-95161281D01*
X169348490Y-95166764D01*
X169545948Y-95258840D01*
X169556240Y-95262586D01*
X169766689Y-95318975D01*
X169777482Y-95320878D01*
X169994526Y-95339867D01*
X170005476Y-95339867D01*
X170222520Y-95320878D01*
X170233313Y-95318975D01*
X170443762Y-95262586D01*
X170454054Y-95258840D01*
X170651512Y-95166764D01*
X170661007Y-95161281D01*
X170713049Y-95124841D01*
X170721425Y-95114362D01*
X170714357Y-95100916D01*
X170012813Y-94399372D01*
X169998869Y-94391758D01*
X169997036Y-94391889D01*
X169990421Y-94396140D01*
X169284924Y-95101637D01*
X169278494Y-95113412D01*
X164556382Y-95113412D01*
X165535735Y-94134059D01*
X165548126Y-94123192D01*
X165566938Y-94108757D01*
X165573488Y-94103731D01*
X165597975Y-94071819D01*
X165597981Y-94071813D01*
X165627898Y-94032825D01*
X168687484Y-94032825D01*
X168706473Y-94249869D01*
X168708376Y-94260662D01*
X168764765Y-94471111D01*
X168768511Y-94481403D01*
X168860587Y-94678861D01*
X168866070Y-94688356D01*
X168902510Y-94740398D01*
X168912989Y-94748774D01*
X168926435Y-94741706D01*
X169627979Y-94040162D01*
X169634357Y-94028482D01*
X170364409Y-94028482D01*
X170364540Y-94030315D01*
X170368791Y-94036930D01*
X171074288Y-94742427D01*
X171086063Y-94748857D01*
X171098078Y-94739561D01*
X171133932Y-94688356D01*
X171139415Y-94678861D01*
X171231491Y-94481403D01*
X171235237Y-94471111D01*
X171291626Y-94260662D01*
X171293529Y-94249869D01*
X171312518Y-94032825D01*
X171312518Y-94021875D01*
X171293529Y-93804831D01*
X171291626Y-93794038D01*
X171235237Y-93583589D01*
X171231491Y-93573297D01*
X171139415Y-93375839D01*
X171133932Y-93366344D01*
X171097492Y-93314302D01*
X171087013Y-93305926D01*
X171073567Y-93312994D01*
X170372023Y-94014538D01*
X170364409Y-94028482D01*
X169634357Y-94028482D01*
X169635593Y-94026218D01*
X169635462Y-94024385D01*
X169631211Y-94017770D01*
X168925714Y-93312273D01*
X168913939Y-93305843D01*
X168901924Y-93315139D01*
X168866070Y-93366344D01*
X168860587Y-93375839D01*
X168768511Y-93573297D01*
X168764765Y-93583589D01*
X168708376Y-93794038D01*
X168706473Y-93804831D01*
X168687484Y-94021875D01*
X168687484Y-94032825D01*
X165627898Y-94032825D01*
X165665997Y-93983173D01*
X165665998Y-93983171D01*
X165671025Y-93976620D01*
X165732339Y-93828595D01*
X165733417Y-93820407D01*
X165739478Y-93774366D01*
X165739478Y-93774364D01*
X165748001Y-93709629D01*
X165748001Y-93709624D01*
X165752173Y-93677933D01*
X165753251Y-93669744D01*
X165749079Y-93638051D01*
X165748001Y-93621608D01*
X165748001Y-92940338D01*
X169278577Y-92940338D01*
X169285645Y-92953784D01*
X169987189Y-93655328D01*
X170001133Y-93662942D01*
X170002966Y-93662811D01*
X170009581Y-93658560D01*
X170715078Y-92953063D01*
X170721508Y-92941288D01*
X170712212Y-92929273D01*
X170661007Y-92893419D01*
X170651512Y-92887936D01*
X170454054Y-92795860D01*
X170443762Y-92792114D01*
X170233313Y-92735725D01*
X170222520Y-92733822D01*
X170005476Y-92714833D01*
X169994526Y-92714833D01*
X169777482Y-92733822D01*
X169766689Y-92735725D01*
X169556240Y-92792114D01*
X169545948Y-92795860D01*
X169348490Y-92887936D01*
X169338995Y-92893419D01*
X169286953Y-92929859D01*
X169278577Y-92940338D01*
X165748001Y-92940338D01*
X165748001Y-91375484D01*
X168691501Y-91375484D01*
X168698256Y-91437666D01*
X168749386Y-91574055D01*
X168836740Y-91690611D01*
X168953296Y-91777965D01*
X169089685Y-91829095D01*
X169151867Y-91835850D01*
X170848135Y-91835850D01*
X170910317Y-91829095D01*
X171046706Y-91777965D01*
X171163262Y-91690611D01*
X171250616Y-91574055D01*
X171301746Y-91437666D01*
X171308501Y-91375484D01*
X171308501Y-89679216D01*
X171301746Y-89617034D01*
X171250616Y-89480645D01*
X171163262Y-89364089D01*
X171046706Y-89276735D01*
X170910317Y-89225605D01*
X170848135Y-89218850D01*
X169151867Y-89218850D01*
X169089685Y-89225605D01*
X168953296Y-89276735D01*
X168836740Y-89364089D01*
X168749386Y-89480645D01*
X168698256Y-89617034D01*
X168691501Y-89679216D01*
X168691501Y-91375484D01*
X165748001Y-91375484D01*
X165748001Y-90987645D01*
X165749079Y-90971199D01*
X165752174Y-90947689D01*
X165753252Y-90939501D01*
X165732339Y-90780650D01*
X165671025Y-90632625D01*
X165597979Y-90537430D01*
X165597975Y-90537426D01*
X165597605Y-90536944D01*
X165578517Y-90512067D01*
X165578514Y-90512064D01*
X165573488Y-90505514D01*
X165555225Y-90491500D01*
X165548122Y-90486049D01*
X165535731Y-90475182D01*
X165064315Y-90003766D01*
X165053450Y-89991378D01*
X165040709Y-89974773D01*
X165015107Y-89908557D01*
X165029370Y-89839007D01*
X165051575Y-89808974D01*
X166115144Y-88745405D01*
X166177456Y-88711379D01*
X166204239Y-88708500D01*
X166295487Y-88708500D01*
X166301939Y-88707128D01*
X166301944Y-88707128D01*
X166388887Y-88688647D01*
X166482288Y-88668794D01*
X166488319Y-88666109D01*
X166650722Y-88593803D01*
X166650724Y-88593802D01*
X166656752Y-88591118D01*
X166811253Y-88478866D01*
X166815675Y-88473955D01*
X166934621Y-88341852D01*
X166934622Y-88341851D01*
X166939040Y-88336944D01*
X167034527Y-88171556D01*
X167093542Y-87989928D01*
X167099681Y-87931524D01*
X167112814Y-87806565D01*
X167113504Y-87800000D01*
X167112814Y-87793435D01*
X167112814Y-87789484D01*
X167132816Y-87721363D01*
X167186472Y-87674870D01*
X167256746Y-87664766D01*
X167321326Y-87694260D01*
X167358646Y-87750546D01*
X167365473Y-87771556D01*
X167368776Y-87777278D01*
X167368777Y-87777279D01*
X167397733Y-87827432D01*
X167460960Y-87936944D01*
X167465378Y-87941851D01*
X167465379Y-87941852D01*
X167508442Y-87989678D01*
X167588747Y-88078866D01*
X167743248Y-88191118D01*
X167749276Y-88193802D01*
X167749278Y-88193803D01*
X167911681Y-88266109D01*
X167917712Y-88268794D01*
X168011113Y-88288647D01*
X168098056Y-88307128D01*
X168098061Y-88307128D01*
X168104513Y-88308500D01*
X168295487Y-88308500D01*
X168301939Y-88307128D01*
X168301944Y-88307128D01*
X168388888Y-88288647D01*
X168482288Y-88268794D01*
X168488319Y-88266109D01*
X168650722Y-88193803D01*
X168650724Y-88193802D01*
X168656752Y-88191118D01*
X168811253Y-88078866D01*
X168837074Y-88050189D01*
X168897520Y-88012950D01*
X168930710Y-88008500D01*
X172431864Y-88008500D01*
X172448307Y-88009578D01*
X172480000Y-88013750D01*
X172488189Y-88012672D01*
X172519874Y-88008501D01*
X172519884Y-88008500D01*
X172519885Y-88008500D01*
X172619457Y-87995391D01*
X172630664Y-87993916D01*
X172630666Y-87993915D01*
X172638851Y-87992838D01*
X172786876Y-87931524D01*
X172842073Y-87889170D01*
X172882072Y-87858477D01*
X172882075Y-87858474D01*
X172913987Y-87833987D01*
X172919017Y-87827432D01*
X172933452Y-87808621D01*
X172944319Y-87796230D01*
X173746234Y-86994315D01*
X173758625Y-86983448D01*
X173783987Y-86963987D01*
X173784902Y-86965179D01*
X173839216Y-86935520D01*
X173910031Y-86940585D01*
G37*
%TD.AperFunction*%
%TA.AperFunction,Conductor*%
G36*
X169970063Y-56189498D02*
G01*
X169984857Y-56191802D01*
X169984861Y-56191802D01*
X169993730Y-56193183D01*
X170013626Y-56190581D01*
X170035784Y-56189651D01*
X170362517Y-56204757D01*
X170374106Y-56205831D01*
X170727764Y-56255165D01*
X170739203Y-56257304D01*
X170852875Y-56284039D01*
X171086796Y-56339056D01*
X171097978Y-56342237D01*
X171436563Y-56455720D01*
X171447388Y-56459913D01*
X171755598Y-56596002D01*
X171774063Y-56604155D01*
X171784467Y-56609335D01*
X172096440Y-56783103D01*
X172106317Y-56789219D01*
X172400911Y-56991021D01*
X172410199Y-56998035D01*
X172684912Y-57226153D01*
X172693513Y-57233994D01*
X172946004Y-57486486D01*
X172953844Y-57495086D01*
X173181962Y-57769798D01*
X173188976Y-57779086D01*
X173295728Y-57934925D01*
X173385808Y-58066425D01*
X173390778Y-58073681D01*
X173396903Y-58083574D01*
X173443820Y-58167807D01*
X173570654Y-58395517D01*
X173575842Y-58405935D01*
X173720075Y-58732593D01*
X173724279Y-58743445D01*
X173837756Y-59082010D01*
X173837756Y-59082011D01*
X173840939Y-59093196D01*
X173869503Y-59214645D01*
X173922693Y-59440794D01*
X173924832Y-59452234D01*
X173974165Y-59805892D01*
X173975239Y-59817481D01*
X173990002Y-60136814D01*
X173988637Y-60162013D01*
X173986813Y-60173728D01*
X173987977Y-60182630D01*
X173987977Y-60182633D01*
X173990935Y-60205249D01*
X173991999Y-60221587D01*
X173991999Y-78746358D01*
X173971997Y-78814479D01*
X173918341Y-78860972D01*
X173848067Y-78871076D01*
X173784929Y-78842241D01*
X173783987Y-78841013D01*
X173777671Y-78836167D01*
X173777663Y-78836159D01*
X173758621Y-78821548D01*
X173746230Y-78810681D01*
X172882979Y-77947430D01*
X172848953Y-77885118D01*
X172851516Y-77821706D01*
X172870865Y-77758022D01*
X172872370Y-77753069D01*
X172901529Y-77531590D01*
X172901611Y-77528240D01*
X172903074Y-77468365D01*
X172903074Y-77468361D01*
X172903156Y-77465000D01*
X172884852Y-77242361D01*
X172830431Y-77025702D01*
X172741354Y-76820840D01*
X172640712Y-76665271D01*
X172622822Y-76637617D01*
X172622820Y-76637614D01*
X172620014Y-76633277D01*
X172469670Y-76468051D01*
X172465619Y-76464852D01*
X172465615Y-76464848D01*
X172298414Y-76332800D01*
X172298410Y-76332798D01*
X172294359Y-76329598D01*
X172253053Y-76306796D01*
X172203084Y-76256364D01*
X172188312Y-76186921D01*
X172213428Y-76120516D01*
X172240780Y-76093909D01*
X172294511Y-76055583D01*
X172419860Y-75966173D01*
X172578096Y-75808489D01*
X172708453Y-75627077D01*
X172714022Y-75615810D01*
X172805136Y-75431453D01*
X172805137Y-75431451D01*
X172807430Y-75426811D01*
X172872370Y-75213069D01*
X172901529Y-74991590D01*
X172903156Y-74925000D01*
X172884852Y-74702361D01*
X172830431Y-74485702D01*
X172741354Y-74280840D01*
X172676156Y-74180059D01*
X172622822Y-74097617D01*
X172622820Y-74097614D01*
X172620014Y-74093277D01*
X172469670Y-73928051D01*
X172465619Y-73924852D01*
X172465615Y-73924848D01*
X172298414Y-73792800D01*
X172298410Y-73792798D01*
X172294359Y-73789598D01*
X172098789Y-73681638D01*
X172093920Y-73679914D01*
X172093916Y-73679912D01*
X171893087Y-73608795D01*
X171893083Y-73608794D01*
X171888212Y-73607069D01*
X171883119Y-73606162D01*
X171883116Y-73606161D01*
X171673373Y-73568800D01*
X171673367Y-73568799D01*
X171668284Y-73567894D01*
X171594452Y-73566992D01*
X171450081Y-73565228D01*
X171450079Y-73565228D01*
X171444911Y-73565165D01*
X171224091Y-73598955D01*
X171011756Y-73668357D01*
X170813607Y-73771507D01*
X170809474Y-73774610D01*
X170809471Y-73774612D01*
X170670618Y-73878866D01*
X170634965Y-73905635D01*
X170556985Y-73987237D01*
X170554283Y-73990064D01*
X170492759Y-74025494D01*
X170421846Y-74022037D01*
X170364060Y-73980791D01*
X170345207Y-73947243D01*
X170303767Y-73836703D01*
X170300615Y-73828295D01*
X170213261Y-73711739D01*
X170096705Y-73624385D01*
X169960316Y-73573255D01*
X169898134Y-73566500D01*
X168101866Y-73566500D01*
X168039684Y-73573255D01*
X167903295Y-73624385D01*
X167786739Y-73711739D01*
X167699385Y-73828295D01*
X167648255Y-73964684D01*
X167641500Y-74026866D01*
X167641500Y-75823134D01*
X167648255Y-75885316D01*
X167699385Y-76021705D01*
X167786739Y-76138261D01*
X167903295Y-76225615D01*
X167911704Y-76228767D01*
X167911705Y-76228768D01*
X168020451Y-76269535D01*
X168077216Y-76312176D01*
X168101916Y-76378738D01*
X168086709Y-76448087D01*
X168067316Y-76474568D01*
X167940629Y-76607138D01*
X167937720Y-76611403D01*
X167937714Y-76611411D01*
X167875868Y-76702074D01*
X167814743Y-76791680D01*
X167783737Y-76858477D01*
X167727855Y-76978866D01*
X167720688Y-76994305D01*
X167660989Y-77209570D01*
X167637251Y-77431695D01*
X167637548Y-77436848D01*
X167637548Y-77436851D01*
X167645926Y-77582144D01*
X167650110Y-77654715D01*
X167651247Y-77659761D01*
X167651248Y-77659767D01*
X167671583Y-77749999D01*
X167699222Y-77872639D01*
X167729878Y-77948136D01*
X167768601Y-78043499D01*
X167783266Y-78079616D01*
X167820476Y-78140337D01*
X167897291Y-78265688D01*
X167899987Y-78270088D01*
X168046250Y-78438938D01*
X168218126Y-78581632D01*
X168252123Y-78601498D01*
X168291445Y-78624476D01*
X168340169Y-78676114D01*
X168353240Y-78745897D01*
X168326509Y-78811669D01*
X168286055Y-78845027D01*
X168273607Y-78851507D01*
X168269474Y-78854610D01*
X168269471Y-78854612D01*
X168118287Y-78968124D01*
X168094965Y-78985635D01*
X168091393Y-78989373D01*
X168030207Y-79053400D01*
X167968682Y-79088830D01*
X167897770Y-79085373D01*
X167839984Y-79044127D01*
X167829994Y-79029350D01*
X167819902Y-79011870D01*
X167809040Y-78993056D01*
X167799563Y-78982530D01*
X167685675Y-78856045D01*
X167685674Y-78856044D01*
X167681253Y-78851134D01*
X167539793Y-78748357D01*
X167532094Y-78742763D01*
X167532093Y-78742762D01*
X167526752Y-78738882D01*
X167520724Y-78736198D01*
X167520722Y-78736197D01*
X167358319Y-78663891D01*
X167358318Y-78663891D01*
X167352288Y-78661206D01*
X167258887Y-78641353D01*
X167171944Y-78622872D01*
X167171939Y-78622872D01*
X167165487Y-78621500D01*
X167134138Y-78621500D01*
X167066017Y-78601498D01*
X167019524Y-78547842D01*
X167009420Y-78477568D01*
X167026284Y-78433558D01*
X167031043Y-78427356D01*
X167031044Y-78427355D01*
X167092358Y-78279330D01*
X167108020Y-78160365D01*
X167108020Y-78160358D01*
X167113270Y-78120480D01*
X167109098Y-78088787D01*
X167108020Y-78072344D01*
X167108020Y-73434500D01*
X167128022Y-73366379D01*
X167181678Y-73319886D01*
X167234020Y-73308500D01*
X167295487Y-73308500D01*
X167301939Y-73307128D01*
X167301944Y-73307128D01*
X167396857Y-73286953D01*
X167482288Y-73268794D01*
X167491499Y-73264693D01*
X167650722Y-73193803D01*
X167650724Y-73193802D01*
X167656752Y-73191118D01*
X167811253Y-73078866D01*
X167823919Y-73064799D01*
X167934621Y-72941852D01*
X167934622Y-72941851D01*
X167939040Y-72936944D01*
X168034527Y-72771556D01*
X168093542Y-72589928D01*
X168100773Y-72521134D01*
X168112814Y-72406565D01*
X168113504Y-72400000D01*
X168093542Y-72210072D01*
X168034527Y-72028444D01*
X167939040Y-71863056D01*
X167895893Y-71815136D01*
X167840864Y-71754020D01*
X167810146Y-71690013D01*
X167808500Y-71669710D01*
X167808500Y-70348134D01*
X168691501Y-70348134D01*
X168698256Y-70410316D01*
X168749386Y-70546705D01*
X168836740Y-70663261D01*
X168953296Y-70750615D01*
X169089685Y-70801745D01*
X169151867Y-70808500D01*
X170848135Y-70808500D01*
X170910317Y-70801745D01*
X171046706Y-70750615D01*
X171163262Y-70663261D01*
X171250616Y-70546705D01*
X171301746Y-70410316D01*
X171308501Y-70348134D01*
X171308501Y-68651866D01*
X171301746Y-68589684D01*
X171250616Y-68453295D01*
X171163262Y-68336739D01*
X171046706Y-68249385D01*
X170910317Y-68198255D01*
X170848135Y-68191500D01*
X169151867Y-68191500D01*
X169089685Y-68198255D01*
X168953296Y-68249385D01*
X168836740Y-68336739D01*
X168749386Y-68453295D01*
X168698256Y-68589684D01*
X168691501Y-68651866D01*
X168691501Y-70348134D01*
X167808500Y-70348134D01*
X167808500Y-67086062D01*
X169278494Y-67086062D01*
X169287790Y-67098077D01*
X169338995Y-67133931D01*
X169348490Y-67139414D01*
X169545948Y-67231490D01*
X169556240Y-67235236D01*
X169766689Y-67291625D01*
X169777482Y-67293528D01*
X169994526Y-67312517D01*
X170005476Y-67312517D01*
X170222520Y-67293528D01*
X170233313Y-67291625D01*
X170443762Y-67235236D01*
X170454054Y-67231490D01*
X170651512Y-67139414D01*
X170661007Y-67133931D01*
X170713049Y-67097491D01*
X170721425Y-67087012D01*
X170714357Y-67073566D01*
X170012813Y-66372022D01*
X169998869Y-66364408D01*
X169997036Y-66364539D01*
X169990421Y-66368790D01*
X169284924Y-67074287D01*
X169278494Y-67086062D01*
X167808500Y-67086062D01*
X167808500Y-66005475D01*
X168687484Y-66005475D01*
X168706473Y-66222519D01*
X168708376Y-66233312D01*
X168764765Y-66443761D01*
X168768511Y-66454053D01*
X168860587Y-66651511D01*
X168866070Y-66661006D01*
X168902510Y-66713048D01*
X168912989Y-66721424D01*
X168926435Y-66714356D01*
X169627979Y-66012812D01*
X169634357Y-66001132D01*
X170364409Y-66001132D01*
X170364540Y-66002965D01*
X170368791Y-66009580D01*
X171074288Y-66715077D01*
X171086063Y-66721507D01*
X171098078Y-66712211D01*
X171133932Y-66661006D01*
X171139415Y-66651511D01*
X171231491Y-66454053D01*
X171235237Y-66443761D01*
X171291626Y-66233312D01*
X171293529Y-66222519D01*
X171312518Y-66005475D01*
X171312518Y-65994525D01*
X171293529Y-65777481D01*
X171291626Y-65766688D01*
X171235237Y-65556239D01*
X171231491Y-65545947D01*
X171139415Y-65348489D01*
X171133932Y-65338994D01*
X171097492Y-65286952D01*
X171087013Y-65278576D01*
X171073567Y-65285644D01*
X170372023Y-65987188D01*
X170364409Y-66001132D01*
X169634357Y-66001132D01*
X169635593Y-65998868D01*
X169635462Y-65997035D01*
X169631211Y-65990420D01*
X168925714Y-65284923D01*
X168913939Y-65278493D01*
X168901924Y-65287789D01*
X168866070Y-65338994D01*
X168860587Y-65348489D01*
X168768511Y-65545947D01*
X168764765Y-65556239D01*
X168708376Y-65766688D01*
X168706473Y-65777481D01*
X168687484Y-65994525D01*
X168687484Y-66005475D01*
X167808500Y-66005475D01*
X167808500Y-64912988D01*
X169278577Y-64912988D01*
X169285645Y-64926434D01*
X169987189Y-65627978D01*
X170001133Y-65635592D01*
X170002966Y-65635461D01*
X170009581Y-65631210D01*
X170715078Y-64925713D01*
X170721508Y-64913938D01*
X170712212Y-64901923D01*
X170661007Y-64866069D01*
X170651512Y-64860586D01*
X170454054Y-64768510D01*
X170443762Y-64764764D01*
X170233313Y-64708375D01*
X170222520Y-64706472D01*
X170005476Y-64687483D01*
X169994526Y-64687483D01*
X169777482Y-64706472D01*
X169766689Y-64708375D01*
X169556240Y-64764764D01*
X169545948Y-64768510D01*
X169348490Y-64860586D01*
X169338995Y-64866069D01*
X169286953Y-64902509D01*
X169278577Y-64912988D01*
X167808500Y-64912988D01*
X167808500Y-62992294D01*
X167828502Y-62924173D01*
X167882158Y-62877680D01*
X167952432Y-62867576D01*
X168003124Y-62886621D01*
X168210092Y-63021027D01*
X168243342Y-63042620D01*
X168246276Y-63044115D01*
X168246283Y-63044119D01*
X168568066Y-63208075D01*
X168571006Y-63209573D01*
X168914326Y-63341361D01*
X169269541Y-63436541D01*
X169462558Y-63467112D01*
X169629511Y-63493555D01*
X169629519Y-63493556D01*
X169632759Y-63494069D01*
X170000000Y-63513315D01*
X170367241Y-63494069D01*
X170370481Y-63493556D01*
X170370489Y-63493555D01*
X170537442Y-63467112D01*
X170730459Y-63436541D01*
X171085674Y-63341361D01*
X171428994Y-63209573D01*
X171431934Y-63208075D01*
X171753717Y-63044119D01*
X171753724Y-63044115D01*
X171756658Y-63042620D01*
X171789909Y-63021027D01*
X172020103Y-62871537D01*
X172065075Y-62842332D01*
X172350867Y-62610902D01*
X172610902Y-62350867D01*
X172842332Y-62065075D01*
X173042620Y-61756657D01*
X173056996Y-61728444D01*
X173208075Y-61431934D01*
X173209573Y-61428994D01*
X173331676Y-61110905D01*
X173340175Y-61088764D01*
X173340176Y-61088762D01*
X173341361Y-61085674D01*
X173436541Y-60730459D01*
X173478011Y-60468626D01*
X173493555Y-60370489D01*
X173493556Y-60370481D01*
X173494069Y-60367241D01*
X173513315Y-60000000D01*
X173494069Y-59632759D01*
X173493199Y-59627262D01*
X173449525Y-59351522D01*
X173436541Y-59269541D01*
X173341361Y-58914326D01*
X173209573Y-58571006D01*
X173182146Y-58517178D01*
X173044119Y-58246284D01*
X173044115Y-58246277D01*
X173042620Y-58243343D01*
X173000971Y-58179208D01*
X172844134Y-57937700D01*
X172842332Y-57934925D01*
X172610902Y-57649133D01*
X172350867Y-57389098D01*
X172065075Y-57157668D01*
X171837797Y-57010072D01*
X171759427Y-56959178D01*
X171759424Y-56959176D01*
X171756658Y-56957380D01*
X171753724Y-56955885D01*
X171753717Y-56955881D01*
X171431934Y-56791925D01*
X171428994Y-56790427D01*
X171085674Y-56658639D01*
X170730459Y-56563459D01*
X170537442Y-56532888D01*
X170370489Y-56506445D01*
X170370481Y-56506444D01*
X170367241Y-56505931D01*
X170000000Y-56486685D01*
X169632759Y-56505931D01*
X169629519Y-56506444D01*
X169629511Y-56506445D01*
X169462558Y-56532888D01*
X169269541Y-56563459D01*
X168914326Y-56658639D01*
X168571006Y-56790427D01*
X168568066Y-56791925D01*
X168246284Y-56955881D01*
X168246277Y-56955885D01*
X168243343Y-56957380D01*
X168240577Y-56959176D01*
X168240574Y-56959178D01*
X168186471Y-56994313D01*
X167934925Y-57157668D01*
X167932349Y-57159754D01*
X167715563Y-57335304D01*
X167650036Y-57362630D01*
X167580138Y-57350190D01*
X167528061Y-57301936D01*
X167510339Y-57233187D01*
X167510959Y-57224213D01*
X167512814Y-57206564D01*
X167513504Y-57200000D01*
X167493542Y-57010072D01*
X167434527Y-56828444D01*
X167339040Y-56663056D01*
X167304123Y-56624276D01*
X167215675Y-56526045D01*
X167215674Y-56526044D01*
X167211253Y-56521134D01*
X167200576Y-56513376D01*
X167066458Y-56415934D01*
X167023104Y-56359712D01*
X167017029Y-56288975D01*
X167050161Y-56226184D01*
X167111981Y-56191272D01*
X167140518Y-56187998D01*
X169950678Y-56187998D01*
X169970063Y-56189498D01*
G37*
%TD.AperFunction*%
%TA.AperFunction,Conductor*%
G36*
X166242982Y-62663204D02*
G01*
X166288045Y-62692165D01*
X166554595Y-62958715D01*
X166588621Y-63021027D01*
X166591500Y-63047810D01*
X166591500Y-71669710D01*
X166571498Y-71737831D01*
X166559141Y-71754015D01*
X166508414Y-71810353D01*
X166447971Y-71847591D01*
X166376987Y-71846240D01*
X166325685Y-71815136D01*
X164944644Y-70434095D01*
X164910618Y-70371783D01*
X164915683Y-70300968D01*
X164944644Y-70255905D01*
X165696234Y-69504315D01*
X165708625Y-69493448D01*
X165727437Y-69479013D01*
X165733987Y-69473987D01*
X165758474Y-69442075D01*
X165758477Y-69442072D01*
X165828653Y-69350616D01*
X165831524Y-69346875D01*
X165892838Y-69198850D01*
X165908500Y-69079885D01*
X165908500Y-69079878D01*
X165913750Y-69040000D01*
X165909578Y-69008307D01*
X165908500Y-68991864D01*
X165908500Y-62922365D01*
X165928502Y-62854244D01*
X165969228Y-62814590D01*
X166015381Y-62786639D01*
X166109855Y-62692165D01*
X166172167Y-62658139D01*
X166242982Y-62663204D01*
G37*
%TD.AperFunction*%
%TD*%
M02*
