%TF.GenerationSoftware,KiCad,Pcbnew,(6.0.0-rc1-124-g18b4ebcc17)*%
%TF.CreationDate,2021-11-27T01:21:43+01:00*%
%TF.ProjectId,2HBR_NG,32484252-5f4e-4472-9e6b-696361645f70,1*%
%TF.SameCoordinates,Original*%
%TF.FileFunction,Soldermask,Bot*%
%TF.FilePolarity,Negative*%
%FSLAX46Y46*%
G04 Gerber Fmt 4.6, Leading zero omitted, Abs format (unit mm)*
G04 Created by KiCad (PCBNEW (6.0.0-rc1-124-g18b4ebcc17)) date 2021-11-27 01:21:43*
%MOMM*%
%LPD*%
G01*
G04 APERTURE LIST*
%ADD10R,1.600000X1.600000*%
%ADD11C,1.600000*%
%ADD12R,3.000000X3.000000*%
%ADD13C,3.000000*%
%ADD14C,0.800000*%
%ADD15C,6.000000*%
%ADD16R,1.700000X1.700000*%
%ADD17O,1.700000X1.700000*%
G04 APERTURE END LIST*
D10*
%TO.C,C8*%
X170000001Y-69500000D03*
D11*
X170000001Y-66000000D03*
%TD*%
D12*
%TO.C,J3*%
X150000000Y-87960000D03*
D13*
X150000000Y-93040000D03*
%TD*%
D12*
%TO.C,J1*%
X150000000Y-77460000D03*
D13*
X150000000Y-82540000D03*
%TD*%
D14*
%TO.C,H4*%
X148409010Y-98409010D03*
X150000000Y-102250000D03*
X150000000Y-97750000D03*
D15*
X150000000Y-100000000D03*
D14*
X152250000Y-100000000D03*
X151590990Y-98409010D03*
X148409010Y-101590990D03*
X147750000Y-100000000D03*
X151590990Y-101590990D03*
%TD*%
%TO.C,H3*%
X148409010Y-58409010D03*
X147750000Y-60000000D03*
X152250000Y-60000000D03*
X151590990Y-58409010D03*
X150000000Y-57750000D03*
X148409010Y-61590990D03*
D15*
X150000000Y-60000000D03*
D14*
X151590990Y-61590990D03*
X150000000Y-62250000D03*
%TD*%
D16*
%TO.C,J4*%
X169000000Y-74925000D03*
D17*
X171540000Y-74925000D03*
X169000000Y-77465000D03*
X171540000Y-77465000D03*
X169000000Y-80005000D03*
X171540000Y-80005000D03*
X169000000Y-82545000D03*
X171540000Y-82545000D03*
X169000000Y-85085000D03*
X171540000Y-85085000D03*
%TD*%
D10*
%TO.C,C9*%
X170000001Y-90527350D03*
D11*
X170000001Y-94027350D03*
%TD*%
D15*
%TO.C,H2*%
X170000000Y-60000000D03*
D14*
X170000000Y-62250000D03*
X168409010Y-61590990D03*
X168409010Y-58409010D03*
X170000000Y-57750000D03*
X171590990Y-58409010D03*
X172250000Y-60000000D03*
X171590990Y-61590990D03*
X167750000Y-60000000D03*
%TD*%
D12*
%TO.C,J2*%
X150000000Y-66960000D03*
D13*
X150000000Y-72040000D03*
%TD*%
D14*
%TO.C,H1*%
X172250000Y-100000000D03*
X170000000Y-102250000D03*
X168409010Y-101590990D03*
X171590990Y-101590990D03*
X171590990Y-98409010D03*
X168409010Y-98409010D03*
X170000000Y-97750000D03*
X167750000Y-100000000D03*
D15*
X170000000Y-100000000D03*
%TD*%
M02*
