%TF.GenerationSoftware,KiCad,Pcbnew,(6.0.0-rc1-124-g18b4ebcc17)*%
%TF.CreationDate,2021-11-27T01:21:43+01:00*%
%TF.ProjectId,2HBR_NG,32484252-5f4e-4472-9e6b-696361645f70,1*%
%TF.SameCoordinates,Original*%
%TF.FileFunction,Legend,Bot*%
%TF.FilePolarity,Positive*%
%FSLAX46Y46*%
G04 Gerber Fmt 4.6, Leading zero omitted, Abs format (unit mm)*
G04 Created by KiCad (PCBNEW (6.0.0-rc1-124-g18b4ebcc17)) date 2021-11-27 01:21:43*
%MOMM*%
%LPD*%
G01*
G04 APERTURE LIST*
%ADD10C,0.150000*%
%ADD11C,0.200000*%
G04 APERTURE END LIST*
D10*
X169300000Y-85670000D02*
X169490000Y-86450000D01*
X169290000Y-85660000D02*
X170710000Y-87510000D01*
X152720000Y-76150000D02*
X152680000Y-78710000D01*
X171800000Y-86540000D02*
X171590000Y-85670000D01*
X171550000Y-86240000D02*
X171800000Y-86540000D01*
X169530000Y-86080000D02*
X169980000Y-86180000D01*
X170400000Y-72920000D02*
X167150000Y-72920000D01*
X167150000Y-72920000D02*
X167150000Y-76180000D01*
X167150000Y-76180000D02*
X170400000Y-76180000D01*
X170400000Y-76180000D02*
X170400000Y-72920000D01*
G36*
X170400000Y-72920000D02*
G01*
X167150000Y-72920000D01*
X167150000Y-76180000D01*
X170400000Y-76180000D01*
X170400000Y-72920000D01*
G37*
X153670000Y-82190000D02*
X151990000Y-82170000D01*
X169490000Y-86450000D02*
X169530000Y-86080000D01*
X152740000Y-81120000D02*
X152740000Y-83440000D01*
X169980000Y-86180000D02*
X169310000Y-85700000D01*
X154010000Y-74860000D02*
X146070000Y-74860000D01*
X146070000Y-74860000D02*
X146070000Y-85220000D01*
X146070000Y-85220000D02*
X154010000Y-85220000D01*
X154010000Y-85220000D02*
X154010000Y-74860000D01*
X171360000Y-86510000D02*
X171550000Y-86240000D01*
X173370000Y-73120000D02*
X167270000Y-73120000D01*
X167270000Y-73120000D02*
X167270000Y-86860000D01*
X167270000Y-86860000D02*
X173370000Y-86860000D01*
X173370000Y-86860000D02*
X173370000Y-73120000D01*
X171610000Y-85730000D02*
X171360000Y-86510000D01*
X171610000Y-85730000D02*
X171630000Y-87530000D01*
X172501904Y-87870000D02*
X172597142Y-87822380D01*
X172740000Y-87822380D01*
X172882857Y-87870000D01*
X172978095Y-87965238D01*
X173025714Y-88060476D01*
X173073333Y-88250952D01*
X173073333Y-88393809D01*
X173025714Y-88584285D01*
X172978095Y-88679523D01*
X172882857Y-88774761D01*
X172740000Y-88822380D01*
X172644761Y-88822380D01*
X172501904Y-88774761D01*
X172454285Y-88727142D01*
X172454285Y-88393809D01*
X172644761Y-88393809D01*
X172025714Y-88822380D02*
X172025714Y-87822380D01*
X171454285Y-88822380D01*
X171454285Y-87822380D01*
X170978095Y-88822380D02*
X170978095Y-87822380D01*
X170740000Y-87822380D01*
X170597142Y-87870000D01*
X170501904Y-87965238D01*
X170454285Y-88060476D01*
X170406666Y-88250952D01*
X170406666Y-88393809D01*
X170454285Y-88584285D01*
X170501904Y-88679523D01*
X170597142Y-88774761D01*
X170740000Y-88822380D01*
X170978095Y-88822380D01*
D11*
X164071428Y-65278571D02*
X164000000Y-65350000D01*
X163928571Y-65492857D01*
X163928571Y-65850000D01*
X164000000Y-65992857D01*
X164071428Y-66064285D01*
X164214285Y-66135714D01*
X164357142Y-66135714D01*
X164571428Y-66064285D01*
X165428571Y-65207142D01*
X165428571Y-66135714D01*
X163928571Y-66635714D02*
X163928571Y-67635714D01*
X165428571Y-66992857D01*
X164857142Y-68207142D02*
X164857142Y-69350000D01*
X165428571Y-70850000D02*
X165428571Y-69992857D01*
X165428571Y-70421428D02*
X163928571Y-70421428D01*
X164142857Y-70278571D01*
X164285714Y-70135714D01*
X164357142Y-69992857D01*
X165428571Y-72278571D02*
X165428571Y-71421428D01*
X165428571Y-71850000D02*
X163928571Y-71850000D01*
X164142857Y-71707142D01*
X164285714Y-71564285D01*
X164357142Y-71421428D01*
X164857142Y-72921428D02*
X164857142Y-74064285D01*
X164071428Y-74707142D02*
X164000000Y-74778571D01*
X163928571Y-74921428D01*
X163928571Y-75278571D01*
X164000000Y-75421428D01*
X164071428Y-75492857D01*
X164214285Y-75564285D01*
X164357142Y-75564285D01*
X164571428Y-75492857D01*
X165428571Y-74635714D01*
X165428571Y-75564285D01*
X163928571Y-76492857D02*
X163928571Y-76635714D01*
X164000000Y-76778571D01*
X164071428Y-76850000D01*
X164214285Y-76921428D01*
X164500000Y-76992857D01*
X164857142Y-76992857D01*
X165142857Y-76921428D01*
X165285714Y-76850000D01*
X165357142Y-76778571D01*
X165428571Y-76635714D01*
X165428571Y-76492857D01*
X165357142Y-76350000D01*
X165285714Y-76278571D01*
X165142857Y-76207142D01*
X164857142Y-76135714D01*
X164500000Y-76135714D01*
X164214285Y-76207142D01*
X164071428Y-76278571D01*
X164000000Y-76350000D01*
X163928571Y-76492857D01*
X164071428Y-77564285D02*
X164000000Y-77635714D01*
X163928571Y-77778571D01*
X163928571Y-78135714D01*
X164000000Y-78278571D01*
X164071428Y-78350000D01*
X164214285Y-78421428D01*
X164357142Y-78421428D01*
X164571428Y-78350000D01*
X165428571Y-77492857D01*
X165428571Y-78421428D01*
X165428571Y-79850000D02*
X165428571Y-78992857D01*
X165428571Y-79421428D02*
X163928571Y-79421428D01*
X164142857Y-79278571D01*
X164285714Y-79135714D01*
X164357142Y-78992857D01*
X164642857Y-81635714D02*
X164642857Y-82135714D01*
X165428571Y-82350000D02*
X165428571Y-81635714D01*
X163928571Y-81635714D01*
X163928571Y-82350000D01*
X165285714Y-82992857D02*
X165357142Y-83064285D01*
X165428571Y-82992857D01*
X165357142Y-82921428D01*
X165285714Y-82992857D01*
X165428571Y-82992857D01*
X163928571Y-85135714D02*
X163928571Y-85421428D01*
X164000000Y-85564285D01*
X164142857Y-85707142D01*
X164428571Y-85778571D01*
X164928571Y-85778571D01*
X165214285Y-85707142D01*
X165357142Y-85564285D01*
X165428571Y-85421428D01*
X165428571Y-85135714D01*
X165357142Y-84992857D01*
X165214285Y-84850000D01*
X164928571Y-84778571D01*
X164428571Y-84778571D01*
X164142857Y-84850000D01*
X164000000Y-84992857D01*
X163928571Y-85135714D01*
X164642857Y-86421428D02*
X164642857Y-86921428D01*
X165428571Y-87135714D02*
X165428571Y-86421428D01*
X163928571Y-86421428D01*
X163928571Y-87135714D01*
X163928571Y-87564285D02*
X163928571Y-88421428D01*
X165428571Y-87992857D02*
X163928571Y-87992857D01*
X164642857Y-88921428D02*
X164642857Y-89421428D01*
X165428571Y-89635714D02*
X165428571Y-88921428D01*
X163928571Y-88921428D01*
X163928571Y-89635714D01*
X165428571Y-90992857D02*
X165428571Y-90278571D01*
X163928571Y-90278571D01*
X165000000Y-91421428D02*
X165000000Y-92135714D01*
X165428571Y-91278571D02*
X163928571Y-91778571D01*
X165428571Y-92278571D01*
X165000000Y-92707142D02*
X165000000Y-93421428D01*
X165428571Y-92564285D02*
X163928571Y-93064285D01*
X165428571Y-93564285D01*
X165428571Y-94921428D02*
X164714285Y-94421428D01*
X165428571Y-94064285D02*
X163928571Y-94064285D01*
X163928571Y-94635714D01*
X164000000Y-94778571D01*
X164071428Y-94850000D01*
X164214285Y-94921428D01*
X164428571Y-94921428D01*
X164571428Y-94850000D01*
X164642857Y-94778571D01*
X164714285Y-94635714D01*
X164714285Y-94064285D01*
D10*
X155392380Y-73817142D02*
X154392380Y-73817142D01*
X155344761Y-73817142D02*
X155392380Y-73721904D01*
X155392380Y-73531428D01*
X155344761Y-73436190D01*
X155297142Y-73388571D01*
X155201904Y-73340952D01*
X154916190Y-73340952D01*
X154820952Y-73388571D01*
X154773333Y-73436190D01*
X154725714Y-73531428D01*
X154725714Y-73721904D01*
X154773333Y-73817142D01*
X154725714Y-74721904D02*
X155392380Y-74721904D01*
X154725714Y-74293333D02*
X155249523Y-74293333D01*
X155344761Y-74340952D01*
X155392380Y-74436190D01*
X155392380Y-74579047D01*
X155344761Y-74674285D01*
X155297142Y-74721904D01*
X155392380Y-75626666D02*
X154868571Y-75626666D01*
X154773333Y-75579047D01*
X154725714Y-75483809D01*
X154725714Y-75293333D01*
X154773333Y-75198095D01*
X155344761Y-75626666D02*
X155392380Y-75531428D01*
X155392380Y-75293333D01*
X155344761Y-75198095D01*
X155249523Y-75150476D01*
X155154285Y-75150476D01*
X155059047Y-75198095D01*
X155011428Y-75293333D01*
X155011428Y-75531428D01*
X154963809Y-75626666D01*
X155392380Y-76245714D02*
X155344761Y-76150476D01*
X155249523Y-76102857D01*
X154392380Y-76102857D01*
X155392380Y-77388571D02*
X154392380Y-77388571D01*
X155392380Y-77817142D02*
X154868571Y-77817142D01*
X154773333Y-77769523D01*
X154725714Y-77674285D01*
X154725714Y-77531428D01*
X154773333Y-77436190D01*
X154820952Y-77388571D01*
X155011428Y-78293333D02*
X155011428Y-79055238D01*
X155392380Y-79531428D02*
X154392380Y-79531428D01*
X154773333Y-79531428D02*
X154725714Y-79626666D01*
X154725714Y-79817142D01*
X154773333Y-79912380D01*
X154820952Y-79960000D01*
X154916190Y-80007619D01*
X155201904Y-80007619D01*
X155297142Y-79960000D01*
X155344761Y-79912380D01*
X155392380Y-79817142D01*
X155392380Y-79626666D01*
X155344761Y-79531428D01*
X155392380Y-80436190D02*
X154725714Y-80436190D01*
X154916190Y-80436190D02*
X154820952Y-80483809D01*
X154773333Y-80531428D01*
X154725714Y-80626666D01*
X154725714Y-80721904D01*
X155392380Y-81055238D02*
X154725714Y-81055238D01*
X154392380Y-81055238D02*
X154440000Y-81007619D01*
X154487619Y-81055238D01*
X154440000Y-81102857D01*
X154392380Y-81055238D01*
X154487619Y-81055238D01*
X155392380Y-81960000D02*
X154392380Y-81960000D01*
X155344761Y-81960000D02*
X155392380Y-81864761D01*
X155392380Y-81674285D01*
X155344761Y-81579047D01*
X155297142Y-81531428D01*
X155201904Y-81483809D01*
X154916190Y-81483809D01*
X154820952Y-81531428D01*
X154773333Y-81579047D01*
X154725714Y-81674285D01*
X154725714Y-81864761D01*
X154773333Y-81960000D01*
X154725714Y-82864761D02*
X155535238Y-82864761D01*
X155630476Y-82817142D01*
X155678095Y-82769523D01*
X155725714Y-82674285D01*
X155725714Y-82531428D01*
X155678095Y-82436190D01*
X155344761Y-82864761D02*
X155392380Y-82769523D01*
X155392380Y-82579047D01*
X155344761Y-82483809D01*
X155297142Y-82436190D01*
X155201904Y-82388571D01*
X154916190Y-82388571D01*
X154820952Y-82436190D01*
X154773333Y-82483809D01*
X154725714Y-82579047D01*
X154725714Y-82769523D01*
X154773333Y-82864761D01*
X155344761Y-83721904D02*
X155392380Y-83626666D01*
X155392380Y-83436190D01*
X155344761Y-83340952D01*
X155249523Y-83293333D01*
X154868571Y-83293333D01*
X154773333Y-83340952D01*
X154725714Y-83436190D01*
X154725714Y-83626666D01*
X154773333Y-83721904D01*
X154868571Y-83769523D01*
X154963809Y-83769523D01*
X155059047Y-83293333D01*
X155392380Y-84960000D02*
X154392380Y-84960000D01*
X155392380Y-85531428D01*
X154392380Y-85531428D01*
X154440000Y-86531428D02*
X154392380Y-86436190D01*
X154392380Y-86293333D01*
X154440000Y-86150476D01*
X154535238Y-86055238D01*
X154630476Y-86007619D01*
X154820952Y-85960000D01*
X154963809Y-85960000D01*
X155154285Y-86007619D01*
X155249523Y-86055238D01*
X155344761Y-86150476D01*
X155392380Y-86293333D01*
X155392380Y-86388571D01*
X155344761Y-86531428D01*
X155297142Y-86579047D01*
X154963809Y-86579047D01*
X154963809Y-86388571D01*
X156478571Y-76769523D02*
X156478571Y-77102857D01*
X157002380Y-77245714D02*
X157002380Y-76769523D01*
X156002380Y-76769523D01*
X156002380Y-77245714D01*
X157002380Y-78102857D02*
X156002380Y-78102857D01*
X156954761Y-78102857D02*
X157002380Y-78007619D01*
X157002380Y-77817142D01*
X156954761Y-77721904D01*
X156907142Y-77674285D01*
X156811904Y-77626666D01*
X156526190Y-77626666D01*
X156430952Y-77674285D01*
X156383333Y-77721904D01*
X156335714Y-77817142D01*
X156335714Y-78007619D01*
X156383333Y-78102857D01*
X156335714Y-79007619D02*
X157002380Y-79007619D01*
X156335714Y-78579047D02*
X156859523Y-78579047D01*
X156954761Y-78626666D01*
X157002380Y-78721904D01*
X157002380Y-78864761D01*
X156954761Y-78960000D01*
X156907142Y-79007619D01*
X157002380Y-79483809D02*
X156335714Y-79483809D01*
X156002380Y-79483809D02*
X156050000Y-79436190D01*
X156097619Y-79483809D01*
X156050000Y-79531428D01*
X156002380Y-79483809D01*
X156097619Y-79483809D01*
X156335714Y-79960000D02*
X157002380Y-79960000D01*
X156430952Y-79960000D02*
X156383333Y-80007619D01*
X156335714Y-80102857D01*
X156335714Y-80245714D01*
X156383333Y-80340952D01*
X156478571Y-80388571D01*
X157002380Y-80388571D01*
X157002380Y-81007619D02*
X156954761Y-80912380D01*
X156907142Y-80864761D01*
X156811904Y-80817142D01*
X156526190Y-80817142D01*
X156430952Y-80864761D01*
X156383333Y-80912380D01*
X156335714Y-81007619D01*
X156335714Y-81150476D01*
X156383333Y-81245714D01*
X156430952Y-81293333D01*
X156526190Y-81340952D01*
X156811904Y-81340952D01*
X156907142Y-81293333D01*
X156954761Y-81245714D01*
X157002380Y-81150476D01*
X157002380Y-81007619D01*
X156907142Y-81769523D02*
X156954761Y-81817142D01*
X157002380Y-81769523D01*
X156954761Y-81721904D01*
X156907142Y-81769523D01*
X157002380Y-81769523D01*
X157002380Y-82245714D02*
X156335714Y-82245714D01*
X156002380Y-82245714D02*
X156050000Y-82198095D01*
X156097619Y-82245714D01*
X156050000Y-82293333D01*
X156002380Y-82245714D01*
X156097619Y-82245714D01*
X157002380Y-82864761D02*
X156954761Y-82769523D01*
X156907142Y-82721904D01*
X156811904Y-82674285D01*
X156526190Y-82674285D01*
X156430952Y-82721904D01*
X156383333Y-82769523D01*
X156335714Y-82864761D01*
X156335714Y-83007619D01*
X156383333Y-83102857D01*
X156430952Y-83150476D01*
X156526190Y-83198095D01*
X156811904Y-83198095D01*
X156907142Y-83150476D01*
X156954761Y-83102857D01*
X157002380Y-83007619D01*
X157002380Y-82864761D01*
X158612380Y-71269523D02*
X157612380Y-71269523D01*
X157612380Y-71507619D01*
X157660000Y-71650476D01*
X157755238Y-71745714D01*
X157850476Y-71793333D01*
X158040952Y-71840952D01*
X158183809Y-71840952D01*
X158374285Y-71793333D01*
X158469523Y-71745714D01*
X158564761Y-71650476D01*
X158612380Y-71507619D01*
X158612380Y-71269523D01*
X158564761Y-72650476D02*
X158612380Y-72555238D01*
X158612380Y-72364761D01*
X158564761Y-72269523D01*
X158469523Y-72221904D01*
X158088571Y-72221904D01*
X157993333Y-72269523D01*
X157945714Y-72364761D01*
X157945714Y-72555238D01*
X157993333Y-72650476D01*
X158088571Y-72698095D01*
X158183809Y-72698095D01*
X158279047Y-72221904D01*
X158612380Y-73126666D02*
X157945714Y-73126666D01*
X158040952Y-73126666D02*
X157993333Y-73174285D01*
X157945714Y-73269523D01*
X157945714Y-73412380D01*
X157993333Y-73507619D01*
X158088571Y-73555238D01*
X158612380Y-73555238D01*
X158088571Y-73555238D02*
X157993333Y-73602857D01*
X157945714Y-73698095D01*
X157945714Y-73840952D01*
X157993333Y-73936190D01*
X158088571Y-73983809D01*
X158612380Y-73983809D01*
X158612380Y-74888571D02*
X158088571Y-74888571D01*
X157993333Y-74840952D01*
X157945714Y-74745714D01*
X157945714Y-74555238D01*
X157993333Y-74460000D01*
X158564761Y-74888571D02*
X158612380Y-74793333D01*
X158612380Y-74555238D01*
X158564761Y-74460000D01*
X158469523Y-74412380D01*
X158374285Y-74412380D01*
X158279047Y-74460000D01*
X158231428Y-74555238D01*
X158231428Y-74793333D01*
X158183809Y-74888571D01*
X157945714Y-75364761D02*
X158612380Y-75364761D01*
X158040952Y-75364761D02*
X157993333Y-75412380D01*
X157945714Y-75507619D01*
X157945714Y-75650476D01*
X157993333Y-75745714D01*
X158088571Y-75793333D01*
X158612380Y-75793333D01*
X158612380Y-76698095D02*
X157612380Y-76698095D01*
X158564761Y-76698095D02*
X158612380Y-76602857D01*
X158612380Y-76412380D01*
X158564761Y-76317142D01*
X158517142Y-76269523D01*
X158421904Y-76221904D01*
X158136190Y-76221904D01*
X158040952Y-76269523D01*
X157993333Y-76317142D01*
X157945714Y-76412380D01*
X157945714Y-76602857D01*
X157993333Y-76698095D01*
X157945714Y-77174285D02*
X158945714Y-77174285D01*
X157993333Y-77174285D02*
X157945714Y-77269523D01*
X157945714Y-77460000D01*
X157993333Y-77555238D01*
X158040952Y-77602857D01*
X158136190Y-77650476D01*
X158421904Y-77650476D01*
X158517142Y-77602857D01*
X158564761Y-77555238D01*
X158612380Y-77460000D01*
X158612380Y-77269523D01*
X158564761Y-77174285D01*
X158564761Y-78460000D02*
X158612380Y-78364761D01*
X158612380Y-78174285D01*
X158564761Y-78079047D01*
X158469523Y-78031428D01*
X158088571Y-78031428D01*
X157993333Y-78079047D01*
X157945714Y-78174285D01*
X157945714Y-78364761D01*
X157993333Y-78460000D01*
X158088571Y-78507619D01*
X158183809Y-78507619D01*
X158279047Y-78031428D01*
X158612380Y-78936190D02*
X157945714Y-78936190D01*
X158136190Y-78936190D02*
X158040952Y-78983809D01*
X157993333Y-79031428D01*
X157945714Y-79126666D01*
X157945714Y-79221904D01*
X158612380Y-79555238D02*
X157945714Y-79555238D01*
X157612380Y-79555238D02*
X157660000Y-79507619D01*
X157707619Y-79555238D01*
X157660000Y-79602857D01*
X157612380Y-79555238D01*
X157707619Y-79555238D01*
X157945714Y-80031428D02*
X158945714Y-80031428D01*
X157993333Y-80031428D02*
X157945714Y-80126666D01*
X157945714Y-80317142D01*
X157993333Y-80412380D01*
X158040952Y-80460000D01*
X158136190Y-80507619D01*
X158421904Y-80507619D01*
X158517142Y-80460000D01*
X158564761Y-80412380D01*
X158612380Y-80317142D01*
X158612380Y-80126666D01*
X158564761Y-80031428D01*
X158612380Y-80936190D02*
X157612380Y-80936190D01*
X158612380Y-81364761D02*
X158088571Y-81364761D01*
X157993333Y-81317142D01*
X157945714Y-81221904D01*
X157945714Y-81079047D01*
X157993333Y-80983809D01*
X158040952Y-80936190D01*
X158564761Y-82221904D02*
X158612380Y-82126666D01*
X158612380Y-81936190D01*
X158564761Y-81840952D01*
X158469523Y-81793333D01*
X158088571Y-81793333D01*
X157993333Y-81840952D01*
X157945714Y-81936190D01*
X157945714Y-82126666D01*
X157993333Y-82221904D01*
X158088571Y-82269523D01*
X158183809Y-82269523D01*
X158279047Y-81793333D01*
X158612380Y-82698095D02*
X157945714Y-82698095D01*
X158136190Y-82698095D02*
X158040952Y-82745714D01*
X157993333Y-82793333D01*
X157945714Y-82888571D01*
X157945714Y-82983809D01*
X158612380Y-83745714D02*
X158088571Y-83745714D01*
X157993333Y-83698095D01*
X157945714Y-83602857D01*
X157945714Y-83412380D01*
X157993333Y-83317142D01*
X158564761Y-83745714D02*
X158612380Y-83650476D01*
X158612380Y-83412380D01*
X158564761Y-83317142D01*
X158469523Y-83269523D01*
X158374285Y-83269523D01*
X158279047Y-83317142D01*
X158231428Y-83412380D01*
X158231428Y-83650476D01*
X158183809Y-83745714D01*
X158612380Y-84364761D02*
X158564761Y-84269523D01*
X158469523Y-84221904D01*
X157612380Y-84221904D01*
X158564761Y-84698095D02*
X158612380Y-84793333D01*
X158612380Y-84983809D01*
X158564761Y-85079047D01*
X158469523Y-85126666D01*
X158421904Y-85126666D01*
X158326666Y-85079047D01*
X158279047Y-84983809D01*
X158279047Y-84840952D01*
X158231428Y-84745714D01*
X158136190Y-84698095D01*
X158088571Y-84698095D01*
X157993333Y-84745714D01*
X157945714Y-84840952D01*
X157945714Y-84983809D01*
X157993333Y-85079047D01*
X158517142Y-85555238D02*
X158564761Y-85602857D01*
X158612380Y-85555238D01*
X158564761Y-85507619D01*
X158517142Y-85555238D01*
X158612380Y-85555238D01*
X158564761Y-86460000D02*
X158612380Y-86364761D01*
X158612380Y-86174285D01*
X158564761Y-86079047D01*
X158517142Y-86031428D01*
X158421904Y-85983809D01*
X158136190Y-85983809D01*
X158040952Y-86031428D01*
X157993333Y-86079047D01*
X157945714Y-86174285D01*
X157945714Y-86364761D01*
X157993333Y-86460000D01*
X158612380Y-87031428D02*
X158564761Y-86936190D01*
X158517142Y-86888571D01*
X158421904Y-86840952D01*
X158136190Y-86840952D01*
X158040952Y-86888571D01*
X157993333Y-86936190D01*
X157945714Y-87031428D01*
X157945714Y-87174285D01*
X157993333Y-87269523D01*
X158040952Y-87317142D01*
X158136190Y-87364761D01*
X158421904Y-87364761D01*
X158517142Y-87317142D01*
X158564761Y-87269523D01*
X158612380Y-87174285D01*
X158612380Y-87031428D01*
X158612380Y-87793333D02*
X157945714Y-87793333D01*
X158040952Y-87793333D02*
X157993333Y-87840952D01*
X157945714Y-87936190D01*
X157945714Y-88079047D01*
X157993333Y-88174285D01*
X158088571Y-88221904D01*
X158612380Y-88221904D01*
X158088571Y-88221904D02*
X157993333Y-88269523D01*
X157945714Y-88364761D01*
X157945714Y-88507619D01*
X157993333Y-88602857D01*
X158088571Y-88650476D01*
X158612380Y-88650476D01*
X159317619Y-75579047D02*
X159270000Y-75626666D01*
X159222380Y-75721904D01*
X159222380Y-75960000D01*
X159270000Y-76055238D01*
X159317619Y-76102857D01*
X159412857Y-76150476D01*
X159508095Y-76150476D01*
X159650952Y-76102857D01*
X160222380Y-75531428D01*
X160222380Y-76150476D01*
X159650952Y-76721904D02*
X159603333Y-76626666D01*
X159555714Y-76579047D01*
X159460476Y-76531428D01*
X159412857Y-76531428D01*
X159317619Y-76579047D01*
X159270000Y-76626666D01*
X159222380Y-76721904D01*
X159222380Y-76912380D01*
X159270000Y-77007619D01*
X159317619Y-77055238D01*
X159412857Y-77102857D01*
X159460476Y-77102857D01*
X159555714Y-77055238D01*
X159603333Y-77007619D01*
X159650952Y-76912380D01*
X159650952Y-76721904D01*
X159698571Y-76626666D01*
X159746190Y-76579047D01*
X159841428Y-76531428D01*
X160031904Y-76531428D01*
X160127142Y-76579047D01*
X160174761Y-76626666D01*
X160222380Y-76721904D01*
X160222380Y-76912380D01*
X160174761Y-77007619D01*
X160127142Y-77055238D01*
X160031904Y-77102857D01*
X159841428Y-77102857D01*
X159746190Y-77055238D01*
X159698571Y-77007619D01*
X159650952Y-76912380D01*
X159222380Y-77388571D02*
X160222380Y-77721904D01*
X159222380Y-78055238D01*
X159222380Y-79626666D02*
X159222380Y-79150476D01*
X159698571Y-79102857D01*
X159650952Y-79150476D01*
X159603333Y-79245714D01*
X159603333Y-79483809D01*
X159650952Y-79579047D01*
X159698571Y-79626666D01*
X159793809Y-79674285D01*
X160031904Y-79674285D01*
X160127142Y-79626666D01*
X160174761Y-79579047D01*
X160222380Y-79483809D01*
X160222380Y-79245714D01*
X160174761Y-79150476D01*
X160127142Y-79102857D01*
X159936666Y-80055238D02*
X159936666Y-80531428D01*
X160222380Y-79960000D02*
X159222380Y-80293333D01*
X160222380Y-80626666D01*
X160222380Y-81721904D02*
X159555714Y-81721904D01*
X159650952Y-81721904D02*
X159603333Y-81769523D01*
X159555714Y-81864761D01*
X159555714Y-82007619D01*
X159603333Y-82102857D01*
X159698571Y-82150476D01*
X160222380Y-82150476D01*
X159698571Y-82150476D02*
X159603333Y-82198095D01*
X159555714Y-82293333D01*
X159555714Y-82436190D01*
X159603333Y-82531428D01*
X159698571Y-82579047D01*
X160222380Y-82579047D01*
X160222380Y-83483809D02*
X159698571Y-83483809D01*
X159603333Y-83436190D01*
X159555714Y-83340952D01*
X159555714Y-83150476D01*
X159603333Y-83055238D01*
X160174761Y-83483809D02*
X160222380Y-83388571D01*
X160222380Y-83150476D01*
X160174761Y-83055238D01*
X160079523Y-83007619D01*
X159984285Y-83007619D01*
X159889047Y-83055238D01*
X159841428Y-83150476D01*
X159841428Y-83388571D01*
X159793809Y-83483809D01*
X160222380Y-83864761D02*
X159555714Y-84388571D01*
X159555714Y-83864761D02*
X160222380Y-84388571D01*
X161832380Y-59317142D02*
X160832380Y-59317142D01*
X161546666Y-59650476D01*
X160832380Y-59983809D01*
X161832380Y-59983809D01*
X161832380Y-60460000D02*
X160832380Y-60460000D01*
X160832380Y-60840952D01*
X160880000Y-60936190D01*
X160927619Y-60983809D01*
X161022857Y-61031428D01*
X161165714Y-61031428D01*
X161260952Y-60983809D01*
X161308571Y-60936190D01*
X161356190Y-60840952D01*
X161356190Y-60460000D01*
X160832380Y-61888571D02*
X160832380Y-61698095D01*
X160880000Y-61602857D01*
X160927619Y-61555238D01*
X161070476Y-61460000D01*
X161260952Y-61412380D01*
X161641904Y-61412380D01*
X161737142Y-61460000D01*
X161784761Y-61507619D01*
X161832380Y-61602857D01*
X161832380Y-61793333D01*
X161784761Y-61888571D01*
X161737142Y-61936190D01*
X161641904Y-61983809D01*
X161403809Y-61983809D01*
X161308571Y-61936190D01*
X161260952Y-61888571D01*
X161213333Y-61793333D01*
X161213333Y-61602857D01*
X161260952Y-61507619D01*
X161308571Y-61460000D01*
X161403809Y-61412380D01*
X160832380Y-62840952D02*
X160832380Y-62650476D01*
X160880000Y-62555238D01*
X160927619Y-62507619D01*
X161070476Y-62412380D01*
X161260952Y-62364761D01*
X161641904Y-62364761D01*
X161737142Y-62412380D01*
X161784761Y-62460000D01*
X161832380Y-62555238D01*
X161832380Y-62745714D01*
X161784761Y-62840952D01*
X161737142Y-62888571D01*
X161641904Y-62936190D01*
X161403809Y-62936190D01*
X161308571Y-62888571D01*
X161260952Y-62840952D01*
X161213333Y-62745714D01*
X161213333Y-62555238D01*
X161260952Y-62460000D01*
X161308571Y-62412380D01*
X161403809Y-62364761D01*
X161832380Y-63888571D02*
X161832380Y-63317142D01*
X161832380Y-63602857D02*
X160832380Y-63602857D01*
X160975238Y-63507619D01*
X161070476Y-63412380D01*
X161118095Y-63317142D01*
X161832380Y-64364761D02*
X161832380Y-64555238D01*
X161784761Y-64650476D01*
X161737142Y-64698095D01*
X161594285Y-64793333D01*
X161403809Y-64840952D01*
X161022857Y-64840952D01*
X160927619Y-64793333D01*
X160880000Y-64745714D01*
X160832380Y-64650476D01*
X160832380Y-64460000D01*
X160880000Y-64364761D01*
X160927619Y-64317142D01*
X161022857Y-64269523D01*
X161260952Y-64269523D01*
X161356190Y-64317142D01*
X161403809Y-64364761D01*
X161451428Y-64460000D01*
X161451428Y-64650476D01*
X161403809Y-64745714D01*
X161356190Y-64793333D01*
X161260952Y-64840952D01*
X161451428Y-66031428D02*
X161451428Y-66793333D01*
X160832380Y-68507619D02*
X160832380Y-68031428D01*
X161308571Y-67983809D01*
X161260952Y-68031428D01*
X161213333Y-68126666D01*
X161213333Y-68364761D01*
X161260952Y-68460000D01*
X161308571Y-68507619D01*
X161403809Y-68555238D01*
X161641904Y-68555238D01*
X161737142Y-68507619D01*
X161784761Y-68460000D01*
X161832380Y-68364761D01*
X161832380Y-68126666D01*
X161784761Y-68031428D01*
X161737142Y-67983809D01*
X161737142Y-68983809D02*
X161784761Y-69031428D01*
X161832380Y-68983809D01*
X161784761Y-68936190D01*
X161737142Y-68983809D01*
X161832380Y-68983809D01*
X161165714Y-69888571D02*
X161832380Y-69888571D01*
X160784761Y-69650476D02*
X161499047Y-69412380D01*
X161499047Y-70031428D01*
X160832380Y-70269523D02*
X161832380Y-70602857D01*
X160832380Y-70936190D01*
X160832380Y-71888571D02*
X160832380Y-72460000D01*
X161832380Y-72174285D02*
X160832380Y-72174285D01*
X160832380Y-72983809D02*
X160832380Y-73174285D01*
X160880000Y-73269523D01*
X160975238Y-73364761D01*
X161165714Y-73412380D01*
X161499047Y-73412380D01*
X161689523Y-73364761D01*
X161784761Y-73269523D01*
X161832380Y-73174285D01*
X161832380Y-72983809D01*
X161784761Y-72888571D01*
X161689523Y-72793333D01*
X161499047Y-72745714D01*
X161165714Y-72745714D01*
X160975238Y-72793333D01*
X160880000Y-72888571D01*
X160832380Y-72983809D01*
X160927619Y-74555238D02*
X160880000Y-74602857D01*
X160832380Y-74698095D01*
X160832380Y-74936190D01*
X160880000Y-75031428D01*
X160927619Y-75079047D01*
X161022857Y-75126666D01*
X161118095Y-75126666D01*
X161260952Y-75079047D01*
X161832380Y-74507619D01*
X161832380Y-75126666D01*
X161260952Y-75698095D02*
X161213333Y-75602857D01*
X161165714Y-75555238D01*
X161070476Y-75507619D01*
X161022857Y-75507619D01*
X160927619Y-75555238D01*
X160880000Y-75602857D01*
X160832380Y-75698095D01*
X160832380Y-75888571D01*
X160880000Y-75983809D01*
X160927619Y-76031428D01*
X161022857Y-76079047D01*
X161070476Y-76079047D01*
X161165714Y-76031428D01*
X161213333Y-75983809D01*
X161260952Y-75888571D01*
X161260952Y-75698095D01*
X161308571Y-75602857D01*
X161356190Y-75555238D01*
X161451428Y-75507619D01*
X161641904Y-75507619D01*
X161737142Y-75555238D01*
X161784761Y-75602857D01*
X161832380Y-75698095D01*
X161832380Y-75888571D01*
X161784761Y-75983809D01*
X161737142Y-76031428D01*
X161641904Y-76079047D01*
X161451428Y-76079047D01*
X161356190Y-76031428D01*
X161308571Y-75983809D01*
X161260952Y-75888571D01*
X160832380Y-76364761D02*
X161832380Y-76698095D01*
X160832380Y-77031428D01*
X161784761Y-77412380D02*
X161832380Y-77412380D01*
X161927619Y-77364761D01*
X161975238Y-77317142D01*
X160832380Y-79079047D02*
X160832380Y-78602857D01*
X161308571Y-78555238D01*
X161260952Y-78602857D01*
X161213333Y-78698095D01*
X161213333Y-78936190D01*
X161260952Y-79031428D01*
X161308571Y-79079047D01*
X161403809Y-79126666D01*
X161641904Y-79126666D01*
X161737142Y-79079047D01*
X161784761Y-79031428D01*
X161832380Y-78936190D01*
X161832380Y-78698095D01*
X161784761Y-78602857D01*
X161737142Y-78555238D01*
X161546666Y-79507619D02*
X161546666Y-79983809D01*
X161832380Y-79412380D02*
X160832380Y-79745714D01*
X161832380Y-80079047D01*
X161784761Y-80460000D02*
X161832380Y-80460000D01*
X161927619Y-80412380D01*
X161975238Y-80364761D01*
X161832380Y-81650476D02*
X160832380Y-81650476D01*
X161308571Y-81650476D02*
X161308571Y-82221904D01*
X161832380Y-82221904D02*
X160832380Y-82221904D01*
X161451428Y-82698095D02*
X161451428Y-83460000D01*
X161308571Y-84269523D02*
X161356190Y-84412380D01*
X161403809Y-84460000D01*
X161499047Y-84507619D01*
X161641904Y-84507619D01*
X161737142Y-84460000D01*
X161784761Y-84412380D01*
X161832380Y-84317142D01*
X161832380Y-83936190D01*
X160832380Y-83936190D01*
X160832380Y-84269523D01*
X160880000Y-84364761D01*
X160927619Y-84412380D01*
X161022857Y-84460000D01*
X161118095Y-84460000D01*
X161213333Y-84412380D01*
X161260952Y-84364761D01*
X161308571Y-84269523D01*
X161308571Y-83936190D01*
X161832380Y-85507619D02*
X161356190Y-85174285D01*
X161832380Y-84936190D02*
X160832380Y-84936190D01*
X160832380Y-85317142D01*
X160880000Y-85412380D01*
X160927619Y-85460000D01*
X161022857Y-85507619D01*
X161165714Y-85507619D01*
X161260952Y-85460000D01*
X161308571Y-85412380D01*
X161356190Y-85317142D01*
X161356190Y-84936190D01*
X161832380Y-85936190D02*
X160832380Y-85936190D01*
X161832380Y-86412380D02*
X160832380Y-86412380D01*
X160832380Y-86650476D01*
X160880000Y-86793333D01*
X160975238Y-86888571D01*
X161070476Y-86936190D01*
X161260952Y-86983809D01*
X161403809Y-86983809D01*
X161594285Y-86936190D01*
X161689523Y-86888571D01*
X161784761Y-86793333D01*
X161832380Y-86650476D01*
X161832380Y-86412380D01*
X160880000Y-87936190D02*
X160832380Y-87840952D01*
X160832380Y-87698095D01*
X160880000Y-87555238D01*
X160975238Y-87460000D01*
X161070476Y-87412380D01*
X161260952Y-87364761D01*
X161403809Y-87364761D01*
X161594285Y-87412380D01*
X161689523Y-87460000D01*
X161784761Y-87555238D01*
X161832380Y-87698095D01*
X161832380Y-87793333D01*
X161784761Y-87936190D01*
X161737142Y-87983809D01*
X161403809Y-87983809D01*
X161403809Y-87793333D01*
X161308571Y-88412380D02*
X161308571Y-88745714D01*
X161832380Y-88888571D02*
X161832380Y-88412380D01*
X160832380Y-88412380D01*
X160832380Y-88888571D01*
X161832380Y-90079047D02*
X160832380Y-90079047D01*
X161546666Y-90412380D01*
X160832380Y-90745714D01*
X161832380Y-90745714D01*
X160832380Y-91412380D02*
X160832380Y-91602857D01*
X160880000Y-91698095D01*
X160975238Y-91793333D01*
X161165714Y-91840952D01*
X161499047Y-91840952D01*
X161689523Y-91793333D01*
X161784761Y-91698095D01*
X161832380Y-91602857D01*
X161832380Y-91412380D01*
X161784761Y-91317142D01*
X161689523Y-91221904D01*
X161499047Y-91174285D01*
X161165714Y-91174285D01*
X160975238Y-91221904D01*
X160880000Y-91317142D01*
X160832380Y-91412380D01*
X160832380Y-92126666D02*
X160832380Y-92698095D01*
X161832380Y-92412380D02*
X160832380Y-92412380D01*
X160832380Y-93221904D02*
X160832380Y-93412380D01*
X160880000Y-93507619D01*
X160975238Y-93602857D01*
X161165714Y-93650476D01*
X161499047Y-93650476D01*
X161689523Y-93602857D01*
X161784761Y-93507619D01*
X161832380Y-93412380D01*
X161832380Y-93221904D01*
X161784761Y-93126666D01*
X161689523Y-93031428D01*
X161499047Y-92983809D01*
X161165714Y-92983809D01*
X160975238Y-93031428D01*
X160880000Y-93126666D01*
X160832380Y-93221904D01*
X161832380Y-94650476D02*
X161356190Y-94317142D01*
X161832380Y-94079047D02*
X160832380Y-94079047D01*
X160832380Y-94460000D01*
X160880000Y-94555238D01*
X160927619Y-94602857D01*
X161022857Y-94650476D01*
X161165714Y-94650476D01*
X161260952Y-94602857D01*
X161308571Y-94555238D01*
X161356190Y-94460000D01*
X161356190Y-94079047D01*
X161832380Y-95840952D02*
X160832380Y-95840952D01*
X160832380Y-96079047D01*
X160880000Y-96221904D01*
X160975238Y-96317142D01*
X161070476Y-96364761D01*
X161260952Y-96412380D01*
X161403809Y-96412380D01*
X161594285Y-96364761D01*
X161689523Y-96317142D01*
X161784761Y-96221904D01*
X161832380Y-96079047D01*
X161832380Y-95840952D01*
X161832380Y-97412380D02*
X161356190Y-97079047D01*
X161832380Y-96840952D02*
X160832380Y-96840952D01*
X160832380Y-97221904D01*
X160880000Y-97317142D01*
X160927619Y-97364761D01*
X161022857Y-97412380D01*
X161165714Y-97412380D01*
X161260952Y-97364761D01*
X161308571Y-97317142D01*
X161356190Y-97221904D01*
X161356190Y-96840952D01*
X161832380Y-97840952D02*
X160832380Y-97840952D01*
X160832380Y-98174285D02*
X161832380Y-98507619D01*
X160832380Y-98840952D01*
X161308571Y-99174285D02*
X161308571Y-99507619D01*
X161832380Y-99650476D02*
X161832380Y-99174285D01*
X160832380Y-99174285D01*
X160832380Y-99650476D01*
X161832380Y-100650476D02*
X161356190Y-100317142D01*
X161832380Y-100079047D02*
X160832380Y-100079047D01*
X160832380Y-100460000D01*
X160880000Y-100555238D01*
X160927619Y-100602857D01*
X161022857Y-100650476D01*
X161165714Y-100650476D01*
X161260952Y-100602857D01*
X161308571Y-100555238D01*
X161356190Y-100460000D01*
X161356190Y-100079047D01*
M02*
