M48
; DRILL file {KiCad (6.0.0-rc1-124-g18b4ebcc17)} date Sat Nov 27 01:21:48 2021
; FORMAT={-:-/ absolute / inch / decimal}
; #@! TF.CreationDate,2021-11-27T01:21:48+01:00
; #@! TF.GenerationSoftware,Kicad,Pcbnew,(6.0.0-rc1-124-g18b4ebcc17)
; #@! TF.FileFunction,Plated,1,4,PTH
FMAT,2
INCH
; #@! TA.AperFunction,Plated,PTH,ViaDrill
T1C0.0157
; #@! TA.AperFunction,Plated,PTH,ComponentDrill
T2C0.0197
; #@! TA.AperFunction,Plated,PTH,ComponentDrill
T3C0.0315
; #@! TA.AperFunction,Plated,PTH,ComponentDrill
T4C0.0394
; #@! TA.AperFunction,Plated,PTH,ComponentDrill
T5C0.0598
; #@! TA.AperFunction,Plated,PTH,ComponentDrill
T6C0.1181
%
G90
G05
T1
X5.7949Y-2.5283
X5.7949Y-2.6333
X5.7949Y-2.7382
X5.7949Y-2.8431
X5.7949Y-2.948
X5.7949Y-3.053
X5.7949Y-3.1579
X5.7949Y-3.2628
X5.7949Y-3.3543
X5.7949Y-3.4726
X5.7949Y-3.5776
X5.7949Y-3.6825
X5.7949Y-3.7874
X6.0079Y-2.5098
X6.0079Y-2.8583
X6.0079Y-2.937
X6.0079Y-3.0157
X6.0079Y-3.3134
X6.0079Y-3.3937
X6.0079Y-3.478
X6.0236Y-4.063
X6.0394Y-4.0079
X6.0697Y-2.276
X6.0713Y-2.6748
X6.0906Y-3.5433
X6.1055Y-3.9913
X6.1059Y-3.9146
X6.1142Y-2.6732
X6.126Y-2.8819
X6.126Y-3.3228
X6.1417Y-2.315
X6.1448Y-2.7756
X6.1496Y-3.6142
X6.1575Y-2.5866
X6.1575Y-2.6375
X6.1614Y-3.0748
X6.1654Y-3.4606
X6.1673Y-3.9921
X6.1681Y-3.9173
X6.1732Y-2.8189
X6.1783Y-2.5394
X6.1969Y-3.689
X6.1969Y-3.7244
X6.1969Y-3.7598
X6.198Y-3.2575
X6.2008Y-3.4606
X6.2047Y-3.0748
X6.2087Y-2.8189
X6.2205Y-2.6024
X6.2283Y-3.0079
X6.2283Y-3.8031
X6.2283Y-3.8661
X6.2283Y-3.9016
X6.2283Y-3.937
X6.2587Y-3.1492
X6.2591Y-3.665
X6.2598Y-2.6024
X6.2598Y-3.4528
X6.2638Y-2.4449
X6.2677Y-2.8229
X6.2992Y-2.311
X6.2992Y-2.4213
X6.2992Y-2.6024
X6.2992Y-3.4528
X6.2992Y-3.8701
X6.2996Y-3.9909
X6.302Y-3.6661
X6.3031Y-2.8229
X6.3093Y-3.2575
X6.3379Y-3.6661
X6.3386Y-2.8229
X6.3386Y-3.4528
X6.3425Y-3.0039
X6.3465Y-2.4921
X6.3496Y-3.1469
X6.3622Y-2.6024
X6.3689Y-2.7056
X6.374Y-3.563
X6.3754Y-3.6035
X6.3819Y-2.752
X6.3828Y-3.4366
X6.4016Y-3.6969
X6.4205Y-3.2575
X6.4256Y-3.0409
X6.4409Y-2.626
X6.4409Y-3.4567
X6.4567Y-4.0583
X6.4575Y-3.9646
X6.4616Y-3.8691
X6.4646Y-3.6772
X6.4803Y-2.8504
X6.4803Y-3.3976
X6.5433Y-3.4567
X6.5543Y-2.4957
X6.5591Y-2.252
X6.5669Y-4.0157
X6.5776Y-3.1311
X6.5787Y-3.1811
X6.5827Y-2.8504
X6.613Y-4.0579
X6.622Y-3.4409
X6.7732Y-2.4957
X6.7913Y-2.7346
X6.8102Y-2.8567
T2
X5.8169Y-2.3622
X5.8169Y-3.937
X5.8429Y-2.2996
X5.8429Y-2.4248
X5.8429Y-3.8744
X5.8429Y-3.9996
X5.9055Y-2.2736
X5.9055Y-2.4508
X5.9055Y-3.8484
X5.9055Y-4.0256
X5.9681Y-2.2996
X5.9681Y-2.4248
X5.9681Y-3.8744
X5.9681Y-3.9996
X5.9941Y-2.3622
X5.9941Y-3.937
X6.6043Y-2.3622
X6.6043Y-3.937
X6.6303Y-2.2996
X6.6303Y-2.4248
X6.6303Y-3.8744
X6.6303Y-3.9996
X6.6929Y-2.2736
X6.6929Y-2.4508
X6.6929Y-3.8484
X6.6929Y-4.0256
X6.7556Y-2.2996
X6.7556Y-2.4248
X6.7556Y-3.8744
X6.7556Y-3.9996
X6.7815Y-2.3622
X6.7815Y-3.937
T3
X6.6929Y-2.5984
X6.6929Y-2.7362
X6.6929Y-3.5641
X6.6929Y-3.7019
T4
X6.6535Y-2.9498
X6.6535Y-3.0498
X6.6535Y-3.1498
X6.6535Y-3.2498
X6.6535Y-3.3498
X6.7535Y-2.9498
X6.7535Y-3.0498
X6.7535Y-3.1498
X6.7535Y-3.2498
X6.7535Y-3.3498
T5
X5.9055Y-2.6362
X5.9055Y-2.8362
X5.9055Y-3.0496
X5.9055Y-3.2496
X5.9055Y-3.463
X5.9055Y-3.663
T6
X5.9055Y-2.3622
X5.9055Y-3.937
X6.6929Y-2.3622
X6.6929Y-3.937
T0
M30
