%TF.GenerationSoftware,KiCad,Pcbnew,(6.0.0-rc1-124-g18b4ebcc17)*%
%TF.CreationDate,2021-11-27T01:21:43+01:00*%
%TF.ProjectId,2HBR_NG,32484252-5f4e-4472-9e6b-696361645f70,1*%
%TF.SameCoordinates,Original*%
%TF.FileFunction,Soldermask,Top*%
%TF.FilePolarity,Negative*%
%FSLAX46Y46*%
G04 Gerber Fmt 4.6, Leading zero omitted, Abs format (unit mm)*
G04 Created by KiCad (PCBNEW (6.0.0-rc1-124-g18b4ebcc17)) date 2021-11-27 01:21:43*
%MOMM*%
%LPD*%
G01*
G04 APERTURE LIST*
G04 Aperture macros list*
%AMRoundRect*
0 Rectangle with rounded corners*
0 $1 Rounding radius*
0 $2 $3 $4 $5 $6 $7 $8 $9 X,Y pos of 4 corners*
0 Add a 4 corners polygon primitive as box body*
4,1,4,$2,$3,$4,$5,$6,$7,$8,$9,$2,$3,0*
0 Add four circle primitives for the rounded corners*
1,1,$1+$1,$2,$3*
1,1,$1+$1,$4,$5*
1,1,$1+$1,$6,$7*
1,1,$1+$1,$8,$9*
0 Add four rect primitives between the rounded corners*
20,1,$1+$1,$2,$3,$4,$5,0*
20,1,$1+$1,$4,$5,$6,$7,0*
20,1,$1+$1,$6,$7,$8,$9,0*
20,1,$1+$1,$8,$9,$2,$3,0*%
G04 Aperture macros list end*
%ADD10C,0.100000*%
%ADD11RoundRect,0.200000X0.275000X-0.200000X0.275000X0.200000X-0.275000X0.200000X-0.275000X-0.200000X0*%
%ADD12RoundRect,0.218750X-0.256250X0.218750X-0.256250X-0.218750X0.256250X-0.218750X0.256250X0.218750X0*%
%ADD13RoundRect,0.250000X-0.450000X0.262500X-0.450000X-0.262500X0.450000X-0.262500X0.450000X0.262500X0*%
%ADD14RoundRect,0.250000X-1.425000X0.362500X-1.425000X-0.362500X1.425000X-0.362500X1.425000X0.362500X0*%
%ADD15RoundRect,0.250000X0.475000X-0.250000X0.475000X0.250000X-0.475000X0.250000X-0.475000X-0.250000X0*%
%ADD16RoundRect,0.250000X-0.475000X0.250000X-0.475000X-0.250000X0.475000X-0.250000X0.475000X0.250000X0*%
%ADD17R,1.600000X1.600000*%
%ADD18C,1.600000*%
%ADD19RoundRect,0.250000X0.450000X-0.262500X0.450000X0.262500X-0.450000X0.262500X-0.450000X-0.262500X0*%
%ADD20RoundRect,0.250000X1.100000X-0.325000X1.100000X0.325000X-1.100000X0.325000X-1.100000X-0.325000X0*%
%ADD21R,0.127000X0.127000*%
%ADD22R,0.200000X1.300000*%
%ADD23R,0.700000X0.200000*%
%ADD24RoundRect,0.250000X1.425000X-0.362500X1.425000X0.362500X-1.425000X0.362500X-1.425000X-0.362500X0*%
%ADD25R,3.000000X3.000000*%
%ADD26C,3.000000*%
%ADD27C,0.800000*%
%ADD28C,6.000000*%
%ADD29RoundRect,0.250000X-1.100000X0.325000X-1.100000X-0.325000X1.100000X-0.325000X1.100000X0.325000X0*%
%ADD30RoundRect,0.200000X-0.275000X0.200000X-0.275000X-0.200000X0.275000X-0.200000X0.275000X0.200000X0*%
%ADD31R,1.700000X1.700000*%
%ADD32O,1.700000X1.700000*%
%ADD33R,1.000000X1.500000*%
%ADD34RoundRect,0.218750X0.256250X-0.218750X0.256250X0.218750X-0.256250X0.218750X-0.256250X-0.218750X0*%
G04 APERTURE END LIST*
D10*
%TO.C,U1*%
X159699999Y-68250000D02*
X159549999Y-68400000D01*
X159549999Y-68400000D02*
X159499999Y-68400000D01*
X159499999Y-68400000D02*
X159499999Y-67200000D01*
X159499999Y-67200000D02*
X159699999Y-67200000D01*
X159699999Y-67200000D02*
X159699999Y-68250000D01*
G36*
X159699999Y-68250000D02*
G01*
X159549999Y-68400000D01*
X159499999Y-68400000D01*
X159499999Y-67200000D01*
X159699999Y-67200000D01*
X159699999Y-68250000D01*
G37*
X159699999Y-68250000D02*
X159549999Y-68400000D01*
X159499999Y-68400000D01*
X159499999Y-67200000D01*
X159699999Y-67200000D01*
X159699999Y-68250000D01*
%TO.C,U2*%
X159699999Y-89750000D02*
X159549999Y-89900000D01*
X159549999Y-89900000D02*
X159499999Y-89900000D01*
X159499999Y-89900000D02*
X159499999Y-88700000D01*
X159499999Y-88700000D02*
X159699999Y-88700000D01*
X159699999Y-88700000D02*
X159699999Y-89750000D01*
G36*
X159699999Y-89750000D02*
G01*
X159549999Y-89900000D01*
X159499999Y-89900000D01*
X159499999Y-88700000D01*
X159699999Y-88700000D01*
X159699999Y-89750000D01*
G37*
X159699999Y-89750000D02*
X159549999Y-89900000D01*
X159499999Y-89900000D01*
X159499999Y-88700000D01*
X159699999Y-88700000D01*
X159699999Y-89750000D01*
%TD*%
D11*
%TO.C,R13*%
X160000000Y-64925000D03*
X160000000Y-63275000D03*
%TD*%
D12*
%TO.C,D4*%
X165300000Y-57212500D03*
X165300000Y-58787500D03*
%TD*%
D13*
%TO.C,R1*%
X159000000Y-73267501D03*
X159000000Y-75092501D03*
%TD*%
%TO.C,R6*%
X165500000Y-80587500D03*
X165500000Y-82412500D03*
%TD*%
D14*
%TO.C,R7*%
X156000000Y-97037500D03*
X156000000Y-102962500D03*
%TD*%
D15*
%TO.C,C4*%
X163000000Y-86250000D03*
X163000000Y-84350000D03*
%TD*%
D16*
%TO.C,C5*%
X163600000Y-68050000D03*
X163600000Y-69950000D03*
%TD*%
D17*
%TO.C,C8*%
X170000001Y-69500000D03*
D18*
X170000001Y-66000000D03*
%TD*%
D19*
%TO.C,R4*%
X161000000Y-86212500D03*
X161000000Y-84387500D03*
%TD*%
D20*
%TO.C,C10*%
X160000000Y-60275000D03*
X160000000Y-57325000D03*
%TD*%
D21*
%TO.C,U1*%
X159599999Y-67850000D03*
D22*
X159000000Y-67850000D03*
X158400001Y-67850000D03*
D23*
X157550000Y-67800000D03*
X157550000Y-68399999D03*
X157550000Y-68800001D03*
X157550000Y-69200000D03*
X157550000Y-69599999D03*
X157550000Y-70200001D03*
D22*
X158400001Y-70150000D03*
X159000000Y-70150000D03*
X159599999Y-70150000D03*
D23*
X160450000Y-70200000D03*
X160450000Y-69800001D03*
X160450000Y-69399999D03*
X160450000Y-69000000D03*
X160450000Y-68600001D03*
X160450000Y-68199999D03*
X160450000Y-67800000D03*
%TD*%
D24*
%TO.C,R8*%
X156000000Y-63262500D03*
X156000000Y-57337500D03*
%TD*%
D25*
%TO.C,J3*%
X150000000Y-87960000D03*
D26*
X150000000Y-93040000D03*
%TD*%
D25*
%TO.C,J1*%
X150000000Y-77460000D03*
D26*
X150000000Y-82540000D03*
%TD*%
D11*
%TO.C,R10*%
X162600000Y-62025000D03*
X162600000Y-60375000D03*
%TD*%
D16*
%TO.C,C3*%
X163000001Y-73230001D03*
X163000001Y-75130001D03*
%TD*%
D27*
%TO.C,H4*%
X148409010Y-98409010D03*
X150000000Y-102250000D03*
X150000000Y-97750000D03*
D28*
X150000000Y-100000000D03*
D27*
X152250000Y-100000000D03*
X151590990Y-98409010D03*
X148409010Y-101590990D03*
X147750000Y-100000000D03*
X151590990Y-101590990D03*
%TD*%
D29*
%TO.C,C7*%
X160000000Y-100025000D03*
X160000000Y-102975000D03*
%TD*%
D13*
%TO.C,R3*%
X161000000Y-73267501D03*
X161000000Y-75092501D03*
%TD*%
D16*
%TO.C,C6*%
X163600000Y-89550000D03*
X163600000Y-91450000D03*
%TD*%
D27*
%TO.C,H3*%
X148409010Y-58409010D03*
X147750000Y-60000000D03*
X152250000Y-60000000D03*
X151590990Y-58409010D03*
X150000000Y-57750000D03*
X148409010Y-61590990D03*
D28*
X150000000Y-60000000D03*
D27*
X151590990Y-61590990D03*
X150000000Y-62250000D03*
%TD*%
D12*
%TO.C,D2*%
X162600000Y-57212500D03*
X162600000Y-58787500D03*
%TD*%
D30*
%TO.C,R11*%
X165300000Y-98275000D03*
X165300000Y-99925000D03*
%TD*%
D21*
%TO.C,U2*%
X159599999Y-89350000D03*
D22*
X159000000Y-89350000D03*
X158400001Y-89350000D03*
D23*
X157550000Y-89300000D03*
X157550000Y-89899999D03*
X157550000Y-90300001D03*
X157550000Y-90700000D03*
X157550000Y-91099999D03*
X157550000Y-91700001D03*
D22*
X158400001Y-91650000D03*
X159000000Y-91650000D03*
X159599999Y-91650000D03*
D23*
X160450000Y-91700000D03*
X160450000Y-91300001D03*
X160450000Y-90899999D03*
X160450000Y-90500000D03*
X160450000Y-90100001D03*
X160450000Y-89699999D03*
X160450000Y-89300000D03*
%TD*%
D30*
%TO.C,R14*%
X160000000Y-95375000D03*
X160000000Y-97025000D03*
%TD*%
D31*
%TO.C,J4*%
X169000000Y-74925000D03*
D32*
X171540000Y-74925000D03*
X169000000Y-77465000D03*
X171540000Y-77465000D03*
X169000000Y-80005000D03*
X171540000Y-80005000D03*
X169000000Y-82545000D03*
X171540000Y-82545000D03*
X169000000Y-85085000D03*
X171540000Y-85085000D03*
%TD*%
D19*
%TO.C,R5*%
X165500000Y-78912500D03*
X165500000Y-77087500D03*
%TD*%
D11*
%TO.C,R9*%
X165300000Y-62025000D03*
X165300000Y-60375000D03*
%TD*%
D17*
%TO.C,C9*%
X170000001Y-90527350D03*
D18*
X170000001Y-94027350D03*
%TD*%
D33*
%TO.C,JP1*%
X156450000Y-80000000D03*
X155150000Y-80000000D03*
%TD*%
D28*
%TO.C,H2*%
X170000000Y-60000000D03*
D27*
X170000000Y-62250000D03*
X168409010Y-61590990D03*
X168409010Y-58409010D03*
X170000000Y-57750000D03*
X171590990Y-58409010D03*
X172250000Y-60000000D03*
X171590990Y-61590990D03*
X167750000Y-60000000D03*
%TD*%
D16*
%TO.C,C1*%
X157000000Y-73230001D03*
X157000000Y-75130001D03*
%TD*%
D25*
%TO.C,J2*%
X150000000Y-66960000D03*
D26*
X150000000Y-72040000D03*
%TD*%
D34*
%TO.C,D1*%
X162700000Y-103087500D03*
X162700000Y-101512500D03*
%TD*%
D19*
%TO.C,R2*%
X159000000Y-86212500D03*
X159000000Y-84387500D03*
%TD*%
D34*
%TO.C,D3*%
X165300000Y-103087500D03*
X165300000Y-101512500D03*
%TD*%
D15*
%TO.C,C2*%
X157000000Y-86250000D03*
X157000000Y-84350000D03*
%TD*%
D30*
%TO.C,R12*%
X162700000Y-98275000D03*
X162700000Y-99925000D03*
%TD*%
D27*
%TO.C,H1*%
X172250000Y-100000000D03*
X170000000Y-102250000D03*
X168409010Y-101590990D03*
X171590990Y-101590990D03*
X171590990Y-98409010D03*
X168409010Y-98409010D03*
X170000000Y-97750000D03*
X167750000Y-100000000D03*
D28*
X170000000Y-100000000D03*
%TD*%
M02*
